<?xml version="1.0" standalone="no"?>
<!DOCTYPE svg PUBLIC "-//W3C//DTD SVG 1.1//EN" "http://www.w3.org/Graphics/SVG/1.1/DTD/svg11.dtd">
<!--Generator: Xara Designer (www.xara.com), SVG filter version: 5.0.0.2-->
<svg stroke-width="0.501" stroke-linejoin="bevel" fill-rule="evenodd" xmlns:xlink="http://www.w3.org/1999/xlink" xmlns="http://www.w3.org/2000/svg" version="1.1" overflow="visible" width="18pt" height="18pt" viewBox="0 0 18 18">
 <defs>
  <marker id="DefaultArrow2" markerUnits="strokeWidth" viewBox="0 0 1 1" markerWidth="1" markerHeight="1" overflow="visible" orient="auto">
   <!-- REF_ARROW_STRAIGHT (-2) -->
   <g transform="scale(0.0092592592)">
    <!-- 1/108 -->
    <path d="M -9 54 L -9 -54 L 117 0 z"/>
   </g>
  </marker>
  <marker id="DefaultArrow3" markerUnits="strokeWidth" viewBox="0 0 1 1" markerWidth="1" markerHeight="1" overflow="visible" orient="auto">
   <!-- REF_ARROW_ANGLED -->
   <g transform="scale(0.0092592592)">
    <path d="M -27 54 L -9 0 L -27 -54 L 135 0 z"/>
   </g>
  </marker>
  <marker id="DefaultArrow4" markerUnits="strokeWidth" viewBox="0 0 1 1" markerWidth="1" markerHeight="1" overflow="visible" orient="auto">
   <!-- REF_ARROW_ROUNDED -->
   <g transform="scale(0.0092592592)">
    <path d="M -9,0 L -9,-45 C -9,-51.708 2.808,-56.580 9,-54 L 117,-9 C 120.916,-7.369 126.000,-4.242 126,0 C 126,4.242 120.916,7.369 117,9 L 9,54 C 2.808,56.580 -9,51.708 -9,45 z"/>
   </g>
  </marker>
  <marker id="DefaultArrow5" markerUnits="strokeWidth" viewBox="0 0 1 1" markerWidth="1" markerHeight="1" overflow="visible" orient="auto">
   <!-- REF_ARROW_SPOT -->
   <g transform="scale(0.0092592592)">
    <path d="M -54, 0 C -54,29.807 -29.807,54 0,54 C 29.807,54 54,29.807 54,0 C 54,-29.807 29.807,-54 0,-54 C -29.807,-54 -54,-29.807 -54,0 z"/>
   </g>
  </marker>
  <marker id="DefaultArrow6" markerUnits="strokeWidth" viewBox="0 0 1 1" markerWidth="1" markerHeight="1" overflow="visible" orient="auto">
   <!-- REF_ARROW_DIAMOND -->
   <g transform="scale(0.0092592592)">
    <path d="M -63,0 L 0,63 L 63,0 L 0,-63 z"/>
   </g>
  </marker>
  <marker id="DefaultArrow7" markerUnits="strokeWidth" viewBox="0 0 1 1" markerWidth="1" markerHeight="1" overflow="visible" orient="auto">
   <!-- REF_ARROW_FEATHER -->
   <g transform="scale(0.0092592592)">
    <path d="M 18,-54 L 108,-54 L 63,0 L 108,54 L 18, 54 L -36,0 z"/>
   </g>
  </marker>
  <marker id="DefaultArrow8" markerUnits="strokeWidth" viewBox="0 0 1 1" markerWidth="1" markerHeight="1" overflow="visible" orient="auto">
   <!-- REF_ARROW_FEATHER2 -->
   <g transform="scale(0.0092592592)">
    <path d="M -36,0 L 18,-54 L 54,-54 L 18,-18 L 27,-18 L 63,-54 L 99,-54 L 63,-18 L 72,-18 L 108,-54 L 144,-54 L 90,0 L 144,54 L 108,54 L 72,18 L 63,18 L 99,54 L 63,54 L 27,18 L 18,18 L 54,54 L 18,54 z"/>
   </g>
  </marker>
  <marker id="DefaultArrow9" markerUnits="strokeWidth" viewBox="0 0 1 1" markerWidth="1" markerHeight="1" overflow="visible" orient="auto">
   <!-- REF_ARROW_HOLLOWDIAMOND -->
   <g transform="scale(0.0092592592)">
    <path d="M 0,45 L -45,0 L 0, -45 L 45, 0 z M 0, 63 L-63, 0 L 0, -63 L 63, 0 z"/>
   </g>
  </marker>
  <filter id="StainedFilter">
   <feBlend mode="multiply" in2="BackgroundImage" in="SourceGraphic" result="blend"/>
   <feComposite in="blend" in2="SourceAlpha" operator="in" result="comp"/>
  </filter>
  <filter id="BleachFilter">
   <feBlend mode="screen" in2="BackgroundImage" in="SourceGraphic" result="blend"/>
   <feComposite in="blend" in2="SourceAlpha" operator="in" result="comp"/>
  </filter>
  <filter id="InvertTransparencyBitmapFilter">
   <feComponentTransfer>
    <feFuncR type="gamma" amplitude="1.055" exponent=".416666666" offset="-0.055"/>
    <feFuncG type="gamma" amplitude="1.055" exponent=".416666666" offset="-0.055"/>
    <feFuncB type="gamma" amplitude="1.055" exponent=".416666666" offset="-0.055"/>
   </feComponentTransfer>
   <feComponentTransfer>
    <feFuncR type="linear" slope="-1" intercept="1"/>
    <feFuncG type="linear" slope="-1" intercept="1"/>
    <feFuncB type="linear" slope="-1" intercept="1"/>
    <feFuncA type="linear" slope="1" intercept="0"/>
   </feComponentTransfer>
   <feComponentTransfer>
    <feFuncR type="gamma" amplitude="1" exponent="2.4" offset="0"/>
    <feFuncG type="gamma" amplitude="1" exponent="2.4" offset="0"/>
    <feFuncB type="gamma" amplitude="1" exponent="2.4" offset="0"/>
   </feComponentTransfer>
  </filter>
 </defs>
 <g id="Document" fill="none" stroke="black" font-family="Times New Roman" font-size="16" transform="scale(1 -1)">
  <g id="Spread" transform="translate(0 -18)">
   <g id="Layer 1">
    <g id="Group">
     <path d="M 18.001,0 L 18.001,18.001 L 0,18.001 L 0,0 L 18.001,0 Z" stroke-linejoin="miter" fill="#898989" stroke="none" stroke-width="0.75" marker-start="none" marker-end="none" stroke-miterlimit="79.8403193612775"/>
     <path d="M 14.49,3.361 C 11.377,0.333 6.39,0.399 3.361,3.512 C 0.333,6.625 0.399,11.612 3.512,14.641 C 6.625,17.669 11.612,17.603 14.641,14.49 C 17.669,11.377 17.603,6.39 14.49,3.361 Z" stroke-linejoin="miter" stroke-width="0.752" stroke="#b4b4b4" marker-start="none" marker-end="none" stroke-miterlimit="79.8403193612775"/>
     <g id="Group_1" stroke-linecap="round">
      <g id="Group_2">
       <g id="Group_3" stroke-linejoin="miter" stroke="#b4b4b4">
        <path d="M 4.139,5.559 L 4.139,7.393 L 7.808,7.393 L 7.808,5.559 L 4.139,5.559 Z" fill="#b4b4b4" stroke-width="0.459" marker-start="none" marker-end="none" stroke-miterlimit="79.8403193612775"/>
        <g id="Group_4">
         <path d="M 4.809,3.964 L 4.809,5.531 L 7.138,5.531 L 7.138,3.964 L 4.809,3.964 Z" stroke-width="0.424" marker-start="none" marker-end="none" stroke-miterlimit="79.8403193612775"/>
         <path d="M 4.226,7.401 L 5.072,10.879 L 6.947,10.879 L 7.728,7.401 L 4.226,7.401 Z" fill="#b4b4b4" stroke-width="0.459" marker-start="none" marker-end="none" stroke-miterlimit="79.8403193612775"/>
        </g>
       </g>
       <g id="Group_5" stroke="#898989" stroke-linejoin="round" stroke-width="0.459" fill="#b4b4b4" stroke-miterlimit="79.8403193612775">
        <g id="Group_6">
         <path d="M 3.972,7.559 L 5.295,7.559" fill="none"/>
         <path d="M 6.651,7.56 L 7.974,7.56" fill="none"/>
        </g>
        <g id="Group_7">
         <g id="Group_8">
          <path d="M 6.653,8.294 L 7.788,8.294" fill="none"/>
         </g>
         <path d="M 4.192,8.293 L 5.294,8.293" fill="none"/>
        </g>
        <g id="Group_9">
         <path d="M 4.373,9.027 L 5.295,9.027" fill="none"/>
         <path d="M 6.651,9.028 L 7.618,9.028" fill="none"/>
        </g>
        <g id="Group_10">
         <path d="M 4.552,9.762 L 5.301,9.762" fill="none"/>
         <path d="M 6.647,9.763 L 7.483,9.763" fill="none"/>
        </g>
       </g>
       <path d="M 6.051,11.277 L 6.051,13.318 L 9.686,13.333 L 9.686,10.8" fill="none" stroke="#b4b4b4" stroke-linejoin="round" stroke-width="1.836" stroke-miterlimit="79.8403193612775"/>
      </g>
      <path d="M 9.706,6.724 L 9.706,4.683 L 13.34,4.668 L 13.32,13.219" fill="none" stroke="#b4b4b4" stroke-linejoin="round" stroke-width="1.836" stroke-miterlimit="79.8403193612775"/>
      <path d="M 8.835,9.397 C 8.807,9.369 8.794,9.336 8.794,9.296 C 8.794,9.257 8.807,9.224 8.835,9.196 L 9.269,8.762 L 8.835,8.33 C 8.807,8.301 8.794,8.268 8.794,8.229 C 8.794,8.189 8.807,8.156 8.835,8.128 L 9.035,7.928 C 9.063,7.9 9.096,7.886 9.136,7.886 C 9.175,7.886 9.208,7.9 9.237,7.928 L 9.67,8.362 L 10.103,7.928 C 10.131,7.9 10.164,7.886 10.203,7.886 C 10.243,7.886 10.276,7.9 10.304,7.928 L 10.504,8.128 C 10.533,8.156 10.546,8.189 10.546,8.229 C 10.546,8.268 10.533,8.301 10.504,8.33 L 10.072,8.762 L 10.504,9.196 C 10.533,9.224 10.546,9.257 10.546,9.296 C 10.546,9.336 10.533,9.369 10.504,9.397 L 10.304,9.597 C 10.276,9.626 10.243,9.638 10.203,9.638 C 10.164,9.638 10.131,9.626 10.103,9.597 L 9.67,9.164 L 9.237,9.597 C 9.208,9.626 9.175,9.638 9.136,9.638 C 9.096,9.638 9.063,9.626 9.035,9.597 L 8.835,9.397 Z" stroke="none" fill-rule="nonzero" fill="#b4b4b4" stroke-width="0.005" stroke-linejoin="round" marker-start="none" marker-end="none" stroke-miterlimit="79.8403193612775"/>
     </g>
    </g>
   </g>
  </g>
 </g>
</svg>
