<svg xmlns="http://www.w3.org/2000/svg" xml:space="preserve" width="18mm" height="18mm" shape-rendering="geometricPrecision" text-rendering="geometricPrecision" image-rendering="optimizeQuality" fill-rule="evenodd" clip-rule="evenodd" viewBox="0 0 1800 1800">
    <path fill="none" d="M0 0h1800v1800H0z"/>
    <path fill="#333" d="M1149 890c9 6 7 6 17 5-4 20-5 9 9 27 11 15 6 12-1 27 16-3 20-14 29 8 0 2 6 20 6 20 3 11 2 10-7 13 7 13 14 8 24 0-3 28 27 20-3 61 58-4 18-36 17-57-16-9-11-22-24-39-10-13-9-4-16-22-3-8 2 3-5-7-7-8-13-36-44-57l-7-14c-13-7-1-3-18-9l-2 15c9 20-3-5-3 26 17-1 9-9 16 2v12l12-11zm-197-86c12 3 59 4 78 6 12 1 30-1 38 0 23 4-3 4 17 21 11 5 33 5 42 1 15-8 8-21 11-42-14-6-23-5-30 0-26 2-56 3-82 3-37 1-39 4-71-12l-5 6 3 3v-2l-1 16z"/>
    <path fill="#101010" d="M1191 796c-6-11-16 6-37-13l41-4v-15l-72-4-6 10 5 16 13-9c20 40 18 30 53 28l3-9zm-54 105c0 1-1 2-1 3v1h-2c15 20 0 4-3 28 4 10 11 25 19 31l14 9-16-36c27 4 9 4 17 8 16 8-1 8 9 4 7-15 12-12 1-27-14-18-13-7-9-27-10 1-8 1-17-5l-12 11z"/>
    <path fill="#B3B3B3" d="M1053 865c2 39 0 23-16 46-12 6-6 1-13 15l18 4v-5c16-3 21-6 33 1l7-8 3-4 6-21 2 3c-3-14 4-20-8-29-11-7-21-6-32-2zm20 49c1-7 2-21 9-13l-9 13z"/>
    <path fill="#BDC2C4" d="M797 806c19 16 21 10 80 10 30 0 39 3 62-5H813l3-13c2 18 0 4 7 10l10-1v-7c10 13-1 4 12 8 14-4 2 4 13-8l3 9 1-9 17 8 6-12 8 4-4 7 13 1 1-9 6 11 6-9 5-6c5 14 0 4 8 14l3-13c27 1 10 8 22-6l-3-3-19 1-1-3-11-6-5 5-5 6-62-2-47-1-10 1-4-6-7 6-20-1-2 11c24-3 7-1 15 4l-2 6 13-6 8 8c7-3 4 5 6-4zm139 4zm-113-5 7-9c-3 12 3 5-7 9z"/>
    <path fill="#FAFEF3" d="M1206 772v11c7 13 8 22-4 33h-7l-4 11h17l8-22 14 13c4-22-1-19-2-23-8-19 0-6-15-31l-7 8z"/>
    <path fill="#222625" d="m1191 796 4-17-41 4c21 19 31 2 37 13z"/>
    <path fill="#2C2D2D" d="M717 791c9 7 0 5 16 8 13 3 7 2 17 0 2-24-10-10-33-8z"/>
    <path fill="gray" d="M1202 816c12-11 11-20 4-33l-8 22c-4 5-4-8-3 11h7z"/>
    <path fill="#B3B3B3" d="m1057 853 3-8h-18c-16 3-4-1-13 6 11 7 14 5 28 2zm25-8 1-8-11 2c5 9-4 8 10 6z"/>
    <path fill="#fff" d="M1085 914c8-8 7-5 8-18l-2-3-6 21z"/>
    <path fill="#0E0E0E" d="m677 847-15 10c23 26 97-16 132-15 41 0 125-5 157 3l22 77c8 10 54 29 69 28l10-1c15-2 26-3 40-9 22-9 14-13 39-7 3-24 18-8 3-28h2v-1c0-1 1-2 1-3v-12c-7-11 1-3-16-2 0-31 12-6 3-26l2-15c17 6 5 2 18 9l7 14c31 21 37 49 44 57 7 10 2-1 5 7 7 18 6 9 16 22 13 17 8 30 24 39 1 21-14-18-31-17v75c52-12 53-12 97-41l-9-7c-11-19-39-50-55-67-18-20-36-56-52-71l1-39 4-11c-1-19-1-6 3-11l8-22v-11l-1-16-1-6-430-2-3 4-16-21-11 5-19 5c-41 38-211 16-231 34v44c43 11 152-3 197 17-4 10-1 7-14 11zm532 130s-6-18-6-20c-9-22-13-11-29-8-10 4 7 4-9-4-8-4 10-4-17-8l16 36-14-9c1 16 11 36 18 51l2 54 39-17m-127-207c-14 2-5 3-10-6l11-2-1 8zm3-14c-20-17 6-17-17-21-8-1-26 1-38 0-19-2-66-3-78-6l1-16v2c-12 14 5 7-22 6l-3 13c-8-10-3 0-8-14l-5 6-6 9-6-11-1 9-13-1 4-7-8-4-6 12-17-8-1 9-3-9c-11 12 1 4-13 8-13-4-2 5-12-8v7l-10 1c-7-6-5 8-7-10l-3 13h126c-23 8-32 5-62 5-59 0-61 6-80-10-2 9 1 1-6 4l-8-8-13 6 2-6c-8-5 9-7-15-4l2-11 20 1 7-6 4 6 10-1 47 1 62 2 5-6 5-5 11 6 1 3 19-1 5-6c32 16 34 13 71 12 26 0 56-1 82-3 7-5 16-6 30 0-3 21 4 34-11 42-9 4-31 4-42-1zm-90 86c-6-18-38-28-8-59l39 6 27 1c11-4 21-5 32 2 12 9 5 15 8 29-1 13 0 10-8 18l-3 4-7 8-33 4-18-4-29-9zm65-72-3 8c-14 3-17 5-28-2 9-7-3-3 13-6h18z"/>
    <path fill="#D9DBDD" d="M728 847c-2 7 6-1 2-1-2 1 0-13-2 1z"/>
    <path fill="#F6FDE5" d="m1085 914-3 4z"/>
</svg>
