<svg xmlns="http://www.w3.org/2000/svg" xml:space="preserve" width="18mm" height="18mm" shape-rendering="geometricPrecision" text-rendering="geometricPrecision" image-rendering="optimizeQuality" fill-rule="evenodd" clip-rule="evenodd" viewBox="0 0 1800 1800">
    <path fill="#FFDB12" d="M898 1090c5-46 25-86 55-118 5-5 9-7 14-12 14-17 17-15 34-40 34-49 52-119 45-179-5-40-30-117-49-151-11-21-22-35-35-53-2-3-3-5-6-7-3 7-3 41-21 83-9 21-26 53-39 66l-61 71c-11 16-20 31-28 51-25 56-28 115-6 174 15 39 36 67 65 92 5 5 25 20 32 23z"/>
    <path fill="#F93" d="M1139 929v-31c-1-5-6-48-7-58-7-41-23-89-43-125-6-11-7-18-14-19 6 37 5 89 1 127-2 19-8 38-15 54-4 9-7 14-12 22-24 34-51 40-79 91-14 28-32 66-36 101 6-3 26-25 63-29 31-3 47-8 71-21 11-6 17-12 26-19 20-18 37-46 42-74 1-5 2-16 3-19z"/>
    <path fill="#010101" d="M693 1159c49-1 60 2 100 18 28 12 54 27 85 34 32 7 64 16 96 22 17 3 31 7 47 12 15 4 30 11 44 15-6-58-7-48 14-61 5-4 11-7 16-11-40-5-82-14-119-26-36-11-71-26-108-36-54-15-95-23-149-32-5-1-10-3-14 0l-9 9c-11 15-13 38-3 56z"/>
    <path fill="red" d="M873 1088c0-8-1-5-15-12-6-3-12-6-18-10-3-2-5-3-8-5-58-43-88-113-72-189 5-27 11-44 5-75-1-5-2-19-7-21-3 4-2 28-17 51-11 16-17 17-30 40-18 31-21 78-7 114 14 35 36 55 67 71 16 8 84 37 102 36z"/>
    <path fill="#010101" d="M932 1127c33 11 67 22 103 31 6 2 21 6 28 6l60-16c5-1 3 0 6-3 8-13 5-34-12-46-5-4-6-4-12-3-19 4-39 7-58 10-17 3-108 18-114 20l-1 1zm-230 66c37 3 50 32 38 63l115-38c-27-11-37-8-78-27-6-3-12-5-17-8-10-5-8-6-19-3-11 4-30 8-39 13z"/>
    <path fill="#010101" d="M661 1232v9c4 9 2 10 10 18 8 9 8 6 17 11h13c7-4 10-2 16-8 31-28-3-72-35-57-17 7-17 19-21 27zm472-1c2-11 1-18-4-27s-9-10-20-4c-7 3-13 7-20 11-6 3-14 7-14 18 1 3 5 22 6 26 7 19 44 9 52-24z"/>
    <path fill="#fff" d="M661 1270h27c-9-5-9-2-17-11-8-8-6-9-10-18v29z"/>
    <path fill="none" d="M521 619h757v562H521z"/>
    <path fill="none" d="M0 0h1800v1800H0z"/>
</svg>
