<svg xmlns="http://www.w3.org/2000/svg" xml:space="preserve" width="18mm" height="18mm" shape-rendering="geometricPrecision" text-rendering="geometricPrecision" image-rendering="optimizeQuality" fill-rule="evenodd" clip-rule="evenodd" viewBox="0 0 1800 1800">
    <path fill="none" d="M0 0h1800v1800H0z"/>
    <path d="M1190 798c2 2 3 3 6 7 1 2 2 7 3 9 4 10 3 9 3 20 1 0 2 0 5 7 2 5 1 5 2 12 19 61 12 224-13 281-15 34-125 172-110 199 41 38 88-21 102-49 19-39 35-80 53-121 24-51 34-72 37-136 3-57 3-108-5-164-17-126-106-253-192-331-19-17-70-67-92-78-8 15-26 30-37 43 21 23 47 43 70 64 48 42 160 180 168 237z"/>
    <path d="M660 1032c-34 0-78-17-98-35-22-20-24-76-24-113 0-87 96-85 164-85 36 0 75 5 99 25 31 27 7 60-7 89-29 57-50 119-134 119zm230-171c-10-84 241-82 272-14 12 27 5 87-1 116-8 37-34 49-68 60-83 28-127-7-165-74-9-17-36-70-38-88zm289-31c-2-2-3 0-6-6-4-8-2-2-2-9-5-4-1 1-7-6-4-5-1-3-4-9-57-27-74-38-159-33-64 3-115 14-182 10-99-6-268-42-293 66-11 46-7 130 16 166 19 31 89 55 141 50 121-9 135-187 171-210 19 22 45 100 64 134 73 130 228 67 252 16 25-54 12-125 9-169z"/>
    <path fill="#FDFDFD" d="M890 861c2 18 29 71 38 88 38 67 82 102 165 74 34-11 60-23 68-60 6-29 13-89 1-116-31-68-282-70-272 14zm-230 171c84 0 105-62 134-119 14-29 38-62 7-89-24-20-63-25-99-25-68 0-164-2-164 85 0 37 2 93 24 113 20 18 64 35 98 35z"/>
    <path d="M689 1067c65 67 96-23 124 25 35 61 64 30 93-19 33-2 34 12 61 15 12 1 20 0 31-5 12-6 14-8 17-17-28-13-38-12-62-30-42-33-75-131-99-179-16 16-46 103-61 129-36 64-72 65-104 81zm-16-308c62 2 122 12 184 13 65 0 124-13 187-13-6-22-44-40-74-50-99-30-271-15-297 50zm390 501c4 4 16 40 43 1 14-19 29-28 26-57l-23-6c-11-25-14-46-29-72-20-35-53-32-59-11 21 4 57-6 57 71 0 71-90 59-101 51-20-13-2-21-24-33-23 60 65 56 110 56zm102-460 6 15c4 2 1-2 6 5 5 10 2 3 2 10 1 1 1-1 4 7 15 36-10 36 19 34 8-10 4-4 5-19-6-6-7-6-5-18-1-1-2-2-5-7 0-2-2-8-2-9-2-6-4-12-5-20-1-1-5-4-7-6-7 2-13 6-18 8z"/>
    <path fill="#DEDEDE" d="M1202 834c0-11 1-10-3-20-1-2-2-7-3-9-3-4-4-5-6-7 1 8 3 14 5 20 0 1 2 7 2 9 3 5 4 6 5 7zm5 18 2 1c-1-7 0-7-2-12-3-7-4-7-5-7-2 12-1 12 5 18z"/>
    <path fill="#CECECE" d="M1179 830c0-7 3 0-2-10-5-7-2-3-6-5 0 7-2 1 2 9 3 6 4 4 6 6zm-8-15-6-15h-5c3 6 0 4 4 9 6 7 2 2 7 6z"/>
</svg>
