<svg xmlns="http://www.w3.org/2000/svg" viewBox="0 0 34.861 34.861" style="enable-background:new 0 0 34.861 34.861" xml:space="preserve">
    <path d="M9.575 24.769a.5.5 0 0 1-.5-.5V7.908c0-1.93 1.481-3.5 3.303-3.5s3.303 1.57 3.303 3.5v10.637a.5.5 0 0 1-1 0V7.908c0-1.378-1.033-2.5-2.303-2.5s-2.303 1.122-2.303 2.5v16.361a.5.5 0 0 1-.5.5z"/>
    <path d="M11.74 34.861a.502.502 0 0 1-.354-.146l-7.412-7.412c-1.755-1.754-2.135-4.229-.847-5.517 1.288-1.289 3.416-1.255 4.745.074l2.056 2.056a.5.5 0 0 1-.707.707l-2.056-2.056c-.939-.938-2.433-.972-3.331-.074-.883.883-.495 2.762.847 4.103l7.412 7.412a.5.5 0 0 1-.353.853zm9.047-15.244a.5.5 0 0 1-.5-.5v-2.521c0-1.115-1.033-2.021-2.303-2.021-1.271 0-2.304.907-2.304 2.021v2.521a.5.5 0 0 1-1 0v-2.521c0-1.666 1.482-3.021 3.304-3.021s3.303 1.355 3.303 3.021v2.521a.5.5 0 0 1-.5.5z"/>
    <path d="M26.391 19.617a.5.5 0 0 1-.5-.5v-2.104c0-.87-1.054-1.604-2.302-1.604s-2.303.735-2.303 1.604v2.104a.5.5 0 0 1-1 0v-2.104c0-1.436 1.481-2.604 3.303-2.604 1.82 0 3.302 1.168 3.302 2.604v2.104a.5.5 0 0 1-.5.5z"/>
    <path d="M31.997 26.035a.5.5 0 0 1-.5-.5v-6.877c0-1.378-1.033-2.5-2.303-2.5-1.357 0-2.303.648-2.303 1.229v1.729a.5.5 0 0 1-1 0v-1.729c0-1.25 1.451-2.229 3.303-2.229 1.821 0 3.303 1.57 3.303 3.5v6.877a.5.5 0 0 1-.5.5z"/>
    <path d="M27.997 34.857H11.779c-.276 0-.519-.224-.519-.5s.206-.5.482-.5h16.254c1.93 0 3.5-1.57 3.5-3.5V24.96a.5.5 0 0 1 1 0v5.396a4.504 4.504 0 0 1-4.499 4.501zm-8.869-26.51a.5.5 0 0 1-.5-.5V7.25c0-3.446-2.804-6.25-6.25-6.25s-6.25 2.804-6.25 6.25v.597a.5.5 0 0 1-1 0V7.25C5.128 3.252 8.38 0 12.378 0s7.25 3.252 7.25 7.25v.597a.5.5 0 0 1-.5.5z"/>
    <path style="fill:#f4e52e;fill-opacity:1;stroke:#000;stroke-width:.01477161;stroke-miterlimit:4;stroke-opacity:1;stroke-dasharray:none;opacity:.90086207" d="M8.104 29.943c-3.09-3.11-3.945-4.056-4.242-4.695-.85-1.824-.11-3.301 1.64-3.275.837.013 1.113.186 2.585 1.622.987.962 1.357 1.235 1.625 1.197l.347-.05.074-8.8.074-8.8.393-.593c.924-1.396 2.541-1.392 3.586.007.295.395.306.61.347 6.555.029 4.303.092 6.208.209 6.349.092.11.339.181.549.157l.382-.045.074-1.78c.085-2.054.248-2.436 1.23-2.882.777-.353 1.195-.352 1.98.004.997.453 1.22.968 1.22 2.82.001 1.645.096 1.912.68 1.912.43 0 .503-.243.503-1.678 0-1.413.173-1.758 1.09-2.175 1.097-.498 2.395-.264 3.032.546.26.33.31.598.31 1.673 0 1.356.115 1.634.678 1.634.418 0 .503-.248.503-1.463 0-1.117.22-1.449 1.167-1.766 1.152-.386 2.154-.068 2.882.913.3.406.31.587.35 6.91.028 4.33-.012 6.692-.119 7.089-.194.721-1.018 1.666-1.833 2.102-.594.319-.695.323-9.023.365l-8.423.042-3.87-3.895z"/>
</svg>
