<svg xmlns="http://www.w3.org/2000/svg" xml:space="preserve" width="18mm" height="18mm" shape-rendering="geometricPrecision" text-rendering="geometricPrecision" image-rendering="optimizeQuality" fill-rule="evenodd" clip-rule="evenodd" viewBox="0 0 1800 1800">
    <path fill="none" d="M0 0h1800v1800H0z"/>
    <path fill="#FFC90E" stroke="#000" stroke-width="10" d="m1323 1234-846-8 423-660z"/>
    <path d="M982 775c-1-1-7-9-5-11 3-3 15 10 15 18-5 0-8-4-10-7zm-175 30c-4 0-3-7-2-10s2-6 4-10c3-6 7-12 10-16 5-6 21-26 29-26 4 0 5 2 4 9-3 8-10 21-15 27-6 8-19 26-30 26zm-41 51v9c4 6 0 6 11 17 6 6 13 8 16 12 0 6 1 12 2 18 1 19 25 54 19 114-1 13-4 22-7 32-7 19-11 47-6 67 1 5 8 22 14 24 0-2 1-5 2-8 2-8 1-31 2-42 2-25 12-48 16-73 2-17 1-26-1-42-2-8-1-16-2-24-1-15-9-28-12-42-1-1 2-8 3-11 1 0 1 0 1-1 0 9 4 20 7 25 8 15 15-1 16-3-3 10-5 24-5 34v19c3 22 18 43 18 81 0 12 0 25-3 36-1 6-3 10-4 15-6 22-13 53 2 73 2 2 3 4 5 5 5-12 2-46 7-64 3-10 5-19 8-29 9-39 1-37 1-63-1-22-11-36-14-57-2-11-3-20-3-32 5 0 9 4 14-10 1-2 1-4 2-6 2 6 6 19 14 17 3-1 5-6 7-8 1-4 2-10 3-12 1 2 2 5 2 8 3 7 6 8 5 14 0 3-1 6-1 9-4 24-16 40-16 65 0 4-1 14-2 18-8 41 9 67 14 102 2 14 1 48 4 56 4-1 8-8 9-11 3-4 4-9 6-15 5-21 2-47-5-68-4-10-7-21-8-33-3-26 1-48 7-70 7-29 14-31 13-65 11 2 11-6 14-12 4 6 3 31 2 40-1 27-12 43-17 68-1 7-1 13-2 20 0 3 0 6-1 10-3 17-2 31 1 47 5 26 12 44 15 71 1 10-1 33 3 39 3-2 8-8 10-13 10-24 8-53 0-78-8-23-10-33-9-59 0-51 25-76 20-116 0-8 0-14-2-21-1-5-1-3 1-8 1-2 2-6 4-8-1 29-2 22 6 46 9 27 16 59 10 90-1 5-3 9-4 14-6 17-10 42-7 60 2 8 7 19 12 22 2-1 1-1 2-4 1-4 2-7 2-12v-17c0-23 7-41 12-62 2-9 5-23 4-33 0-5-2-11-3-16 0-5-1-11-1-17 0-14-11-35-14-58-2-9 1-7 3-14 2-5 2-10 4-15 3 4 6 10 12 4 4-3 6-9 7-14s1-4 5-7c8-6 8-9 12-18l1-1v-7c-1-1-2-12-2-15-1-5-1-9-2-14-12-53-52-100-106-109-3-1-14-2-15-2h-13c-1 0-13 1-15 2-59 10-99 64-108 121l-1 15h-1z"/>
</svg>
