<svg xmlns="http://www.w3.org/2000/svg" xml:space="preserve" width="18mm" height="18mm" shape-rendering="geometricPrecision" text-rendering="geometricPrecision" image-rendering="optimizeQuality" fill-rule="evenodd" clip-rule="evenodd" viewBox="0 0 1800 1800">
    <path fill="none" d="M0 0h1800v1800H0z"/>
    <path fill="#FFC90E" stroke="#000" stroke-width="10" d="m1323 1234-846-8 423-660z"/>
    <path d="M773 1117c-2-1-2-3-2-5 3-1 6-1 10-2-2 2-5 8-8 7zm333-129c1 0-1-1 2 0l5 4c12 8 27 16 36 27 1 2 3 5 4 7 1 3 3 4 3 7-3-3-6-9-10-13-8-10-23-18-34-27-2-1-4-4-6-5zm-41-9c-5-2-20-10-23-15 4 2 7 5 12 8 15 8 16 6 27 8h-3c-4 2-9 0-13-1zm-33-25c4-1 5 1 10 0 5 0 17-8 25-6l-6 1c24 7 9 12 7 23 7 0 5-9 12-12 2 2 2 1 3 4l1 3 2-7c3 5 0 6 0 12-15 5-26-1-39-9-11-8-13-4-15-9zm7-3c6 0 13-5 17-7 5-3 15-3 20 1-18-3-12-1-28 6-4 1-7 2-9 0zm-73 61c5 3 10-11 16-4 6 6-2 14 2 20 8-1 6-14 16-13 13 3 4 13 5 18 6 1 6-6 12-9 3 0 6 3 7 5 0 4-3 9-2 13 3-1 1-1 5-6 5-6 14-5 14 1v10c7-2-1-12 16-8 18 3 36-11 61 9 20 16 25 40 44 27 6-4 9-9 10-18 4 6 0 18-11 22-12 4-16 1-24-7-4-4-6-6-9-10-11-11-27-12-41-10-9 1-16 3-21 12-5 8-9 19-16 24-7 6-15 6-23 9-6 2-17 10-24 9-1-2-1-2-1-4-4 1-4 7-8 8-7 2-7-4-9-6-4 3-3 7-8 7-9 1-6-3-5-9-5 1-5 4-8 6-4 5-16 5-12-8 1-3 1 0 1-2v-2c-7 1-5 7-12 12-11-2-4-13-10-18-7 7-3 17-12 19-2-2-2-3-2-7v-4c0-2 1-2 0-4-8 3-6 11-11 18-1 3-4 4-7 5-3 2-5 2-9 0l1-6c-5 0-5 5-9 7s-9 0-11-3c0-6 1-5 3-8-7-1-14 9-18 6-1-5 2-6 4-10-5 0-5 2-9 5-2 2-19 5-21 2-3-3 3-8 4-10-7-2-14 5-18 10-1 3-4 7-8 6-5-2 1-7 2-11-6 2-7 5-11 10-7 11-17 6-15-2 2-6 5-1 21-9 27-12 18-17 60-14 19 2 46-1 62-10 11-7 33-22 44-26 8-3 13-1-2-25-3-4-10-16-17-18 36 34-8 58-36 68-5 1-10 3-16 1-1-3-1-6-1-10-5 2-6 7-10 10-3 2-9 6-13 3-1-3 1-5 2-9-7-1-8 4-13 7-6 3-8 0-1-9-7-1-11 11-18 8-1-6 1-6 0-10-7 2-9 15-19 13-2-5-1-6 2-12-4 2-9 6-13 9-3 4-6 10-12 10-3-4-2-5 0-12-12-2-9 24-23 19-8-3 7-23-5-14s-3 19-18 25c1-2 9-11-1-6-5 3-7 3-12-2-4-4-7-4-6-11s4-9 5-14c-13 0-9 22-24 18-3-7 1-11 0-14-5 1-5 6-8 10-7-2-7-7-6-16 1-10 5-11 8-17-7-2-14 4-17 10-6 11-2 13-11 21-13 11-9 31-1 41 19 26 49 32 88 37 16 1 32 3 49 4 22 2 52 4 76 10 8 3 18 4 27 6 8 2 19 4 27 6 9 1 18 4 27 6s18 4 26 5c28 5 48 11 77 10 25-1 40-7 57-23 17-15 31-27 42-51 5-11 7-40 7-51 0-22-2-56-23-68-2-2-3-2-6-3l-2-2c-3-2-1 0-2-2-3-1-2-1-4-3-1-1-2-3-3-4-8-17-2-12-19-22-17-9-14-16-36-22-3-9-10-18-24-21-12-2-23 0-35 0-25-2-31-24-51-13l-13 8c6 0 9-2 17 0 6 1 12 2 18 4 14 5 26 1 33 3-6 2-26 2-33 0-18-4-21-7-37-6-17 2-44-20-58-29-16-10-38-10-63-30-10-8-11-14-18-23-5-8-13-13-21-16-1-1-2-1-2-1-2-1-1 0-2-2-17-1-27-8-51 4-21 10-26 39-19 42 0-7 3-11 8-13 7 4 2 9 4 18 3-1 2-5 4-8s4-4 7-5h13c9 2-1 13 4 19 2-5 4-10 7-11s7 4 7 8c0 6-10 12-8 21v1l1 2c3-4 4-7 8-11 3-3 10-5 13 0 6 9-8 22-4 29 5-8 16-21 26-12-2 6-6 8-5 15 3 0 0 1 3-1 3-4 1-3 8-8 11 3 1 6 0 16 5-2 11-10 16-2 2 3 1 4-1 8-3 3-3 5-5 10 5-1 13-15 24-1-2 6-9 11-9 17 0 3 1 2 1 3 4-2 5-7 10-9 1-1 11-5 13 0 1 3-5 12-6 15-2 6-2 12 1 15 1-2 5-9 9-15 4-4 15-15 19-5 2 6-6 18 1 26 2-9 6-21 13-24 4-1 11-2 10 4 0 7-4 9 0 15v-1h1l1-2c2-3 3-7 6-11s7-6 12-5c-1 4-2 3-2 8 1 2 2 6 3 6l1-1c1-3 2-11 7-10 7 4 0 12-2 19 8 2 9-11 17-12 3 2 5 5 3 10-1 2-3 4-3 6-2 2-2 4-4 7z"/>
</svg>
