<svg xmlns="http://www.w3.org/2000/svg" xml:space="preserve" width="18mm" height="18mm" shape-rendering="geometricPrecision" text-rendering="geometricPrecision" image-rendering="optimizeQuality" fill-rule="evenodd" clip-rule="evenodd" viewBox="0 0 1800 1800">
    <path fill="none" d="M0 0h1800v1800H0z"/>
    <path fill="none" stroke="#000" stroke-width="25" d="M659 917h531m-239 185V731m158 318V784m-317 264V785"/>
    <path d="M460 869h62.649v62.664H460zm818 0h62.649v62.664H1278zM909 600h62.649v62.664H909zm0 537h62.649v62.664H909zM636 664h62.649v62.664H636zm-118 82h62.649v62.664H518zm2 247h62.649v62.664H520zm129 86h62.649v62.664H649zm390-462h62.649v62.664H1039zm125 57h62.649v62.664H1164zm-124 446h62.649v62.664H1040zm209-356h62.649v62.664H1249zM771 617h62.649v62.664H771zm19 508h62.649v62.664H790zm366-56h62.649v62.664H1156zm85-83h62.649v62.664H1241z"/>
</svg>
