<svg xmlns="http://www.w3.org/2000/svg" xml:space="preserve" width="18mm" height="18mm" shape-rendering="geometricPrecision" text-rendering="geometricPrecision" image-rendering="optimizeQuality" fill-rule="evenodd" clip-rule="evenodd" viewBox="0 0 1800 1800">
    <path fill="none" d="M0 0h1800v1800H0z"/>
    <path fill="#FFC90E" d="M1175 1062c-90 156-289 209-444 119-156-89-209-288-119-443 90-156 288-209 444-119 155 89 209 288 119 443z"/>
    <path d="M781 732c-117-40-155 74-41 180l12-33c-68-90-72-140 55-103 34-138 136-98 204-29 71-97 137-144 219-28 19-135-142-144-229-32-88-66-168-55-220 45zm353 110c44 4 62 7 79-30-42 5-58 4-94-21-22 58-36 60-89 51 5 21 10 42 15 62 40-12 61-3 89-62z"/>
    <path d="M814 903c55-22 120-12 165 10-3-30-5-25 9-49-34 4-61 1-82-28-26 34-75 39-113 12 7 19 14 37 21 55zm-120 253h-39v34h476v-34h-34l-44-228h-84l-44 228h-60l-43-228h-85z"/>
</svg>
