<svg xmlns="http://www.w3.org/2000/svg" xml:space="preserve" width="18mm" height="18mm" shape-rendering="geometricPrecision" text-rendering="geometricPrecision" image-rendering="optimizeQuality" fill-rule="evenodd" clip-rule="evenodd" viewBox="0 0 1800 1800">
    <path fill="none" d="M0 0h1800v1800H0z"/>
    <circle fill="none" stroke="red" stroke-width="25" stroke-dasharray="25.000000 25.000000" cx="900" cy="900" r="325"/>
    <path d="M1158 840c-28-1-37 16-51 37-76 0-160-84-229 12 69 96 153 12 229 12 14 21 23 38 51 37-28-26-28-72 0-98zM922 984c-28 0-36 16-51 38-76 0-160-84-229 12 69 95 153 11 229 11 15 22 23 38 51 38-28-27-28-72 0-99zm73-267c-29 0-37 16-51 38-77 0-160-84-230 11 70 96 153 12 230 12 14 22 22 38 51 38-28-27-28-72 0-99z"/>
</svg>
