<svg xmlns="http://www.w3.org/2000/svg" xml:space="preserve" width="18mm" height="18mm" shape-rendering="geometricPrecision" text-rendering="geometricPrecision" image-rendering="optimizeQuality" fill-rule="evenodd" clip-rule="evenodd" viewBox="0 0 1800 1800">
    <path fill="none" d="M0 0h1800v1800H0z"/>
    <path fill="#FFC90E" d="M1181 1062c-89 156-288 209-443 119-156-89-209-288-119-443 89-156 288-209 443-119 156 89 209 288 119 443z"/>
    <path d="M864 1002c-3 25-10 41-22 58-8 12-25 30-42 37-6 13-85 29-132-11-14-12-14-3-14-3-8 9 35 36 42 41 109 61 187-4 204-10 61 43 136 50 205 11 8-4 49-31 41-40-6-6-7-2-19 7-44 33-108 27-149-8l-6-8c-8-4-2 0-8-6l-12-18c-5-10-11-21-12-33-12-26 3-60 9-82-8-2-11-6-19-10-28 15-29 17-58 0l-19 9c5 23 15 38 11 66zm149-235c-4 10-8 17-13 24-7 9-10 15-20 19l-5 6c-2 2-4 3-7 5-24 16-34 14-58 20l-1 23c24 6 30 22 29 49l19 10c4-3 1-1 5-5 23-24 40-41 81-46l44 4c32-2 95 51 92 119 0 5-1 9-1 14v10c0 1 0 2 1 2v1c11 6 13-13 15-25 7-38 0-79-16-113-11-23-30-47-50-62-5-4-8-7-13-10-9-6-19-10-29-17 3-81-22-140-86-179-11-6-51-29-63-20-1 17 38 8 70 62 14 25 26 86 6 109zM691 883c15-17 68-15 90-7 29 9 51 27 62 48l21-11c-1-35 3-36 29-50l-2-23c-35-2-57-18-78-37-5-5-6-7-10-13-7-11-12-18-16-32-13-18-7-73 12-104 34-52 80-45 67-59-9-10-71 23-87 39-7 7-16 15-22 23-27 35-44 80-40 137-40 15-74 50-93 85-10 19-18 48-19 72-1 10 0 79 15 70 3-3 2 0 3-5 1-7-14-67 36-112 8-8 19-19 32-21z"/>
    <path d="m966 1023-9 7c5 14 11 20 16 29l8-2c3-3 31-17 42-30l8-9c24-23 43-68 45-107v-24c-13-3-22-3-35-1 2 34-4 62-20 87-9 16-36 47-55 50zM726 915c4 34 12 57 27 81 23 35 53 50 55 55l18 8c7-8 13-17 17-29-6-6-17-7-22-15-8-2-22-16-27-22-36-46-29-58-34-108-13-2-21-3-34 0v30zm75-161c3 14 9 24 16 32 19-6 35-25 82-26 27 0 78 16 82 27 7-3 3 0 7-4 2-2 3-4 5-5 3-6 3-8 6-13l3-7c-18-19-69-32-99-32-60-1-88 26-102 28z"/>
</svg>
