<svg xmlns="http://www.w3.org/2000/svg" xml:space="preserve" width="18mm" height="18mm" shape-rendering="geometricPrecision" text-rendering="geometricPrecision" image-rendering="optimizeQuality" fill-rule="evenodd" clip-rule="evenodd" viewBox="0 0 1800 1800">
    <path fill="none" d="M0 0h1800v1800H0z"/>
    <path fill="#FFC90E" d="M1181 1062c-89 156-288 209-443 119-156-89-209-288-119-443 89-156 288-209 443-119 156 89 209 288 119 443z"/>
    <path d="M900 1181c-157 1-206-123-171-247 31-114 139-225 171-315 32 90 140 201 171 315 35 124-14 248-171 247z"/>
    <path fill="#CCC" fill-opacity=".4" d="M944 1147c-68 0 50-83 65-176 14-85-87-169-86-250 14 67 116 146 130 231 15 92-41 195-109 195z"/>
    <path fill="#B3B3B3" d="M786 939c-4-86 63-172 85-250-25 43-108 155-129 230-12 44 47 85 44 20z"/>
</svg>
