<svg xmlns="http://www.w3.org/2000/svg" xml:space="preserve" width="18mm" height="18mm" shape-rendering="geometricPrecision" text-rendering="geometricPrecision" image-rendering="optimizeQuality" fill-rule="evenodd" clip-rule="evenodd" viewBox="0 0 1800 1800">
    <path fill="none" d="M0 0h1800v1800H0z"/>
    <path fill="#FFC90E" stroke="#000" stroke-width="10" d="m1323 1234-846-8 423-660z"/>
    <path d="M913 1035h-32c-10-61-21-115-33-162-10-42-15-72-15-90 0-22 6-40 18-51s27-17 44-17c22 0 39 9 51 27 9 13 13 27 13 42 0 11-1 21-3 32s-8 40-18 85c-11 48-19 93-25 134zm-15 48c13 0 23 4 32 13s14 20 14 33-5 23-14 33c-9 9-20 13-32 13-13 0-24-4-34-14-9-9-13-20-13-32 0-13 5-24 14-33s20-13 33-13z" fill-rule="nonzero"/>
</svg>
