<svg xmlns="http://www.w3.org/2000/svg" xml:space="preserve" width="18mm" height="18mm" shape-rendering="geometricPrecision" text-rendering="geometricPrecision" image-rendering="optimizeQuality" fill-rule="evenodd" clip-rule="evenodd" viewBox="0 0 1800 1800">
    <path fill="none" d="M0 0h1800v1800H0z"/>
    <path d="M905 898c31 13 46 71 31 93-6 10-16 1-21-4-9-10-10-5-9-23 0-21 0-46-1-66zm-286 259c4 4 9 11 15 13 12 15 5 33 13 50 11 2 16 1 22-6 19-20 17-35 39-47 9-4 69-37 76-39 0-15-1-12-5-23-3-6-5-13-6-21-14 0-12 1-22 6-21 11-74 42-95 38-12-3-23-6-37-2-4 1-8 0-9 5v1l-1 1c-2 12 2 17 10 24zm217-100v-22l-10-3v20l10 5zm-10 5c0 18-5 21 10 26 1-21 2-21-10-26zm149-11v-19l-11 2v18l1 5 10-6zm-10 38c4-2 8-4 11-8l-1-20-10 6-1 6v8l1 8zm-40 11 10-2v-24l-10 1v25zm-60-2 10 2 1-15v-4l-1-5-10-1v23zm70-32v-27h-10v28l10-1zm-70 0 11 1-1-28h-9l-1 27zm-20 27 12 3v-23l-12-3v23zm111-1v-22l-13 3 1 24 12-5zm-49-16c-3 5-2 19-2 25h12v-25h-10zm-23 25h13v-24h-13v24zm-39-40 12 3c0-8 1-19-1-26l-11-2v25zm111-1v-24l-13 2 1 26 12-4zm-39 7v-28l-12 1 1 28 11-1zm-33 1h13v-28h-13v28zm100 7c8-7 8-32 11-44 3-13 8-29 13-40-11 8-18 15-18 34l-7 3 1 47zm-192-85c5 11 10 28 13 42 6 22 3 38 13 43v-46c-5-5-5-2-6-11-2-14-10-21-20-28zm224 135c3 4-2 0 4 4l72 38c34 19 26 58 62 53 6-8 6-12 7-25 3-28 2-19 25-41 7-7 10-8 8-23-14-8-28-9-47-5-17 4-28-4-41-10-14-6-26-12-39-18-6-3-13-6-19-9-10-5-8-5-21-5-1 18-11 25-11 41zm39-145c-7 8-13-2-21 23-3 9-8 27-6 38 12 0 10-1 19-5l87-40c30-14 31-21 57-15 9 2 14 1 23 1 8-1 16-1 19-7 5-7 1-14-3-18-5-6-23-21-25-26s0-20-5-34l-2-7c-1-3 0-1-1-3-15-2-15-1-24 6-17 13-14 37-38 49-13 6-72 36-80 38zm-302 3-75-36c-32-18-25-13-41-43-4-7-8-8-12-14-10-2 0-3-21-3-6 9-6 11-8 24-3 26 7 11-23 42-8 7-8 9-8 24 23 13 41 4 59 3 13-1 80 35 99 43 22 9 31 20 51 20 0-19-3-35-10-51-3-9-4-5-11-9zm275-1c-7 0-6 2-8 8l-13 35c-5 18-7 47-12 53-25 37-110 40-151 25-16-6-32-15-40-25-4-6-4-19-5-27-3-16-9-36-14-51-6-13-5-18-13-19 8 12 17 47 15 65-3 23-1 47 9 66 20 36 49 51 105 51 54 0 86-17 104-52 11-19 13-42 9-67-3-20 8-46 14-62zm-132-19c0 12 2 12-6 19-4 4-9 10-14 12-23 8-26-72 20-97v66zm56-151c8-2 39 3 49 4 19 3 30 4 39 16 11 15 6 27 0 43-8 18-9 22-21 33-10 9-29 14-43 5-12-8-42-48-44-66-1-17 7-32 20-35zm-113-1c17-2 27 9 30 25 3 17-6 29-13 40-7 12-15 23-24 32-22 21-53 9-67-25-5-12-14-27-8-42 10-27 45-24 82-30zm-48-214c-24 10-44 21-59 36-38 40-51 87-41 143 4 18 19 61 31 68 1-38 2-36-8-70-4-10-5-23-5-35 0-18 2-21 10-32 6 2 12 8 14 12-6 15-7 13-4 39 3 24 25 45 5 119-4 23-5 47 7 66 11 17 43 17 51 26 3 0 3 0 6 1 4 3 3 2 3 4 9 3 17 11 22 19 6 11 7 17 8 31 35 9 106 12 140-1 3-63 68-58 87-78 30-30-1-92 3-138 3-31 13-32 13-68 1-15-2-12-5-21 4-5 8-10 14-12 8 10 10 15 10 31 0 13-1 25-4 36-6 19-16 46-8 66 4 0 13-16 16-22 16-31 21-65 14-100-18-94-91-128-180-137-24-2-52-1-75 2-36 5-39 10-65 15z"/>
</svg>
