<svg xmlns="http://www.w3.org/2000/svg" xml:space="preserve" width="18mm" height="18mm" shape-rendering="geometricPrecision" text-rendering="geometricPrecision" image-rendering="optimizeQuality" fill-rule="evenodd" clip-rule="evenodd" viewBox="0 0 1800 1800">
    <path stroke="#000" stroke-width="20" d="M875 896 616 791c17 88 35 175 53 263 61 17 86-20 131-16 37 3 66 22 103 22 39 2 65-22 98-23 33 0 61 24 95 23l96-26-274-116 67-164 78 30 17-43-75-31 35-85-46-19-30 84-73-27-17 43 69 28-68 162z"/>
    <path d="M514 1121c32 0 65-21 98-21 31 0 62 21 93 21 33 0 67-21 100-21s66 21 99 21c31 0 62-21 93-21 33 0 65 21 98 21 32 0 65-21 97-21 31 0 63 21 94 21v73c-32 0-64-21-95-21-32 0-64 21-96 21-33 0-65-21-98-21-32 0-63 21-95 21-33 0-66-21-99-21-32 0-64 21-96 21-31 0-63-21-94-21-33 0-66 21-99 21v-73z"/>
    <path fill="none" d="M0 0h1800v1800H0z"/>
</svg>
