<svg xmlns="http://www.w3.org/2000/svg" xml:space="preserve" width="18mm" height="18mm" shape-rendering="geometricPrecision" text-rendering="geometricPrecision" image-rendering="optimizeQuality" fill-rule="evenodd" clip-rule="evenodd" viewBox="0 0 1800 1800">
    <path fill="none" d="M0 0h1800v1800H0z"/>
    <path fill="#FFC90E" stroke="#000" stroke-width="10" d="m1323 1234-846-8 423-660z"/>
    <path d="M793 786h-6c-4 2-5 2-7 5-5 7-3 21-1 29 2 12 4 24 7 36 10 48 22 103 21 153-1 21-3 32-7 45 4-1 8-2 13-2 16 0 30 8 43 16 8 5 16 10 21 10s13-5 21-10c13-8 27-16 43-16 17 0 30 8 43 16 8 5 16 10 21 10s13-5 21-10c14-8 27-16 43-16 7 0 14 2 20 4l-1-1c-15-31-54-86-76-112-2-4-5-7-8-10-2-2-3-4-5-6-4-6-16-18-22-24-6-7-12-13-18-19l-20-18c-7-6-14-12-21-17-33-26-75-51-118-61l-5-1c-3-1-1-1-2-1z"/>
    <path fill-rule="nonzero" d="M684 1078c17 0 30 8 43 15 8 5 17 10 21 10 5 0 13-5 22-10 13-7 26-15 43-15 16 0 30 8 43 15 8 5 16 10 21 10s13-5 21-10c13-7 27-15 43-15 17 0 30 8 43 15 8 5 16 10 21 10s13-5 21-10c14-7 27-15 43-15 17 0 30 8 44 15 8 5 16 10 21 10 4 0 13-5 21-10 13-7 26-15 43-15v43c-5 0-13 5-21 10-14 8-27 15-43 15-17 0-30-7-43-15h-1c-8-5-16-10-21-10-4 0-13 5-21 10-13 8-26 15-43 15-16 0-30-7-43-15-8-5-16-10-21-10s-13 5-21 10c-13 8-27 15-43 15-17 0-30-7-43-15-8-5-17-10-21-10-5 0-13 5-21 10-14 8-27 15-44 15-16 0-29-7-43-15-8-5-16-10-21-10v-43z"/>
</svg>
