<svg xmlns="http://www.w3.org/2000/svg" xml:space="preserve" width="18mm" height="18mm" shape-rendering="geometricPrecision" text-rendering="geometricPrecision" image-rendering="optimizeQuality" fill-rule="evenodd" clip-rule="evenodd" viewBox="0 0 1800 1800">
    <path fill="none" d="M0 0h1800v1800H0z"/>
    <path fill="#373435" d="m1295 782 5-2-8-5c-14 1-44 5-54 15l-97 96c-12 8-42 8-55 2 10-7 17-2 26-7-14-8-87-30-108-40-13-7 5 3-4-3l-3-2c-15-3-25-8-40-16-68-40-23-83-17-107-23 8-50 40-63 60-5 9-12 23-16 32-24 1-32 3-46-10-11-11-18-17-28-25-4 8-7 11-11 17-3 7-4 12-8 19l-55 4c-15 2-36 5-48 7-15 2-32 5-47 11-10 3-29 10-39 16-14 9-35 24-44 33-6 7-25 30-28 43 14 12 29 19 36 35l-34 5c-9 3-5 1-9 4 6 12 4 9 17 12l87 17c37 5 60 3 96 6 9 13 14 30 27 48 5 8 7 7 8 14 11 3 9 3 13-8l5-18 2-37-18-4 59-2h53c8 1 41 11 46 15 5 3 18 25 24 33 14 17 40 43 73 47l-9-12c-13-7-3-1-15-16-4-4-2-2-6-7-49-62 122-94 152-126l-33 1c9-10 30-12 43-12 29-2 51 31 78 54l15 16c6 7 27 23 33 26 8 4 18 8 27 10 7 1 13 1 20 2l-6-7c-6-11-16-16-24-25-9-11-14-20-24-31-8-12-24-28-31-40-6-12-6-35 1-48 4-6 5-9 8-13 5-8 13-19 18-26 7-10 15-20 23-31 7-9 17-16 33-20z"/>
</svg>
