<svg xmlns="http://www.w3.org/2000/svg" xml:space="preserve" width="18mm" height="18mm" shape-rendering="geometricPrecision" text-rendering="geometricPrecision" image-rendering="optimizeQuality" fill-rule="evenodd" clip-rule="evenodd" viewBox="0 0 1800 1800">
    <path fill="none" d="M0 0h1800v1800H0z"/>
    <path d="M899 614c-5 13-13 19-22 31-6 10-13 26-19 32l-8 30-11 26c-4 13-23 49-34 54-13 6-51 18-64 22-11 10-93 40-133 136-12 29-7 10-28 39-2 3-4 5-5 7l-6 7c-1 21-6 20 0 43 8 4 8 6 15 12 3 3 5 4 7 6 4 4 3 1 4 5l40 20-20 13c-3 11-15 18-25 23l-11 12c-5 8-13 15-22 19-1 5 2 0-4 6-2 3-4 5-7 7-6 6-6 8-14 12-2 7 0-1-2 5-5 10-5 5-5 15 11-5 19-9 25-10 6-9 22-18 32-19 6-10 18-14 27-19 5-3 9-5 14-8 9-5 8-6 18-7 6-8 8-7 17-12 11-6 7-8 21-9 9-5 22-3 34-3 5-7-9-6 11-6l-1 4c22 3 60-3 82-6 48-7 53-19 67-22l6-7c4-3 33-25 38-34l-43 56 1-13c-10 9 2 9-9 21 0 0-18 11-20 13-13 8-29 15-44 19-75 13-47 4-81 1-14-1-6 0-9 3 10 3 18 10 32 14 13 4 31 1 44 5 1 0 2-1 3-1l39-7c55-9 99-17 146-43 14-8 16-14 34-13s75 3 87 11l70 5 54-1c-5-14-24-18-37-23l-47-21-31-13c-8-4-15-8-17-14l-23-6c3-10 12-21 17-29 6-8 12-19 22-24 5-5 18-7 26-9 10-5 20-4 26-14-3-5 5-2-7-5l-24-2c4-8 15-20 21-28 8-10 13-21 27-25 7 1 13 1 19 3 8 3 8 2 13 8 14 0 13 5 25 5h2c-9-8-15-20-16-33-3-21 14-51 23-69l18-28 8-27c2-10 7-17 10-23l-34 18c-6 7-14 13-20 22-5 6-13 18-18 21l-15 27c-30 53-21 44-61 21-50-28-84-39-139-54l-21-4-44-6-7-28-1-37-1-4c0-10-1-44 4-53l-2-13c1-6 2-14 2-20 0-4 0-7-1-10-4-11 12-1-5-7-3 5-8 8-13 10z"/>
    <path fill="#100D0A" d="m690 1139 1 1 9-6 12-14c8 3 7 4 17 11 4-9-2 0 7-14l14 14 4-14c-4-5 7-5-8-4-1 0-11 1-11 0-16-2-6 2-12-6l1-4c-20 0-6-1-11 6 7 3 7-1 2 4l-23-1c4 10 5 7 9 16l-11 11z"/>
    <path fill="#fff" d="m814 997 40-11-10-34 9-8 2-2 5-4c-28 5-51 25-46 59zm166 88c25-22 9-65 3-96-3 21 1 29 4 48s-3 31-7 48zm19-4c24-31 5-51 1-86-5 17-3 23 2 40 5 18-2 29-3 46zm17-15c18-18 7-46-4-59 3 39 10-4 4 59z"/>
    <path d="m794 1127 1 2c8-5 6-2 9-21l-21 2c3 7 7 9 11 17z"/>
    <path fill="#020202" d="m774 1124 1-13-9 1c-7 1-4 1-8 4 3 2 8 5 11 12 9 2 1 1 5-4zm-95-12c-8 3 0-1-3 5 5 8 3 7 11 11l2-17-10 1z"/>
    <path fill="#0E0A06" d="M810 1121c1-1 3 1 5-8 3-14 1-3-1-7-11 4-8 0-4 15z"/>
    <path fill="#020202" d="M854 1108c2-9 2-7-1-14-4 3-6-1-5 6 2 13 3 4 6 8z"/>
    <path d="M651 1101c-2-8 4-1-5-9-2-2-9-8-10-8 3 9 8 13 15 17z"/>
    <path fill="#0E0A06" d="M828 1102c-2 4-4 0-2 14l10-16-8 2z"/>
    <path d="M651 1101c3 4-3 1 13 9-5-6-4-6-13-9z"/>
</svg>
