<svg xmlns="http://www.w3.org/2000/svg" xml:space="preserve" width="18mm" height="18mm" shape-rendering="geometricPrecision" text-rendering="geometricPrecision" image-rendering="optimizeQuality" fill-rule="evenodd" clip-rule="evenodd" viewBox="0 0 1800 1800">
    <path fill="none" d="M0 0h1800v1800H0z"/>
    <path fill="#0C85CA" d="m537 1030 72-124 332-291h135l74 301 114 114v177H537z"/>
    <path fill="#963" d="M543 1065c27-8-11-55 73-99 48-25 83-33 148-42 65-168 169-289 177-309-33-18-53-22-103-22-57-1-66 5-106 20-80 31-163-42-177 67-4 32-14 57-20 88-5 27-1 75-3 105-1 33-3 68-2 102 1 15 7 33 8 44 0 15-11 35 5 46zm455-140c78 10 109 24 165 53 108 57 71 88 94 108 24-3 8-34 8-49-2-60-29-82-31-112-1-19 14-36 20-51 21-47-27-93-28-174-1-23 5-41-9-61-20-29-61-49-119-41-26 4-29 22-37 41-39 96-79 176-63 286z"/>
    <path fill="#FEFEFE" d="M679 968c6-10 12-10 27-13-8 8-12 11-24 17-1 4-14 18-18 29-16 38 12 75 48 95 100 55 312 43 368-21 45-52-5-104-51-122l-10-7c10 1 3 0 12 2 0 0 2 2 2 1 1 0 2 1 2 2 36 3 146 53 106 135-17 36-69 71-117 79-24 4-59-3-53 16 28 25 117-18 132-27 83-50 96-137 16-186-45-27-60-30-128-37-13-98 5-151 41-242 8-19 25-52 28-71l-11 1-6 18c-1 3-2 7-3 9-7 12 0 2-6 7 1 22-45 123-53 160-13 60 2 186-5 194-13 14-32 1-41 9-25 18 55 26 60-5-2-9-2-18 1-28l2-13-4-10c17 2 6 1 10 5 38 8 104 61 52 105-63 54-275 60-350-2-64-53 2-102 41-106 5-3-7-3 11-4l1 21c3 12 7 12 25 16 2 16 4 23 23 26s34 0 48-5c14 29 72 27 73 3-15-6-17 1-35 0-22 0-15-7-24-17-20 2-3 4-17 2-17-2-10 0-25 1-34 3-22-8-28-27-31-3-30 10 0-75 10-27 24-62 37-86 15-28 31-54 47-79 17-26 36-49 52-72 2-5 3-7 6-11 3 4 8-6 2 7-4 10 0 1-7 5-4 14-29 51-41 68-15 24-28 48-39 73-8 17-67 144-46 160 13-3 14-23 20-44 5-17 10-31 16-47 22-64 51-115 89-171 14-22 48-63 45-86-38-8-35 4-72 56-51 70-111 175-137 254-53 11-90 8-126 35-75 58-42 132 39 173 28 14 91 34 132 30 7-21-11-16-34-20-73-14-166-53-156-124 4-24 33-53 53-56zm316 43 9-12c37 33-46 57-104 56-18-1-45-8-59-1 0 19 35 17 70 16 124-2 144-73 97-81-1 0-4 3-12-6-3 10-3 19-1 28z"/>
    <path fill="#FEFEFE" d="M869 971c17-1 14-9 19-42 13-78 41-157 80-227 10-19 43-66 44-82-18-2-15 1-32 31-25 44-46 79-66 127-11 28-57 170-45 193zm162-324c5-9 10-17 9-26-16-9-20 17-26 29-8 15-14 27-21 41-14 31-24 56-35 88-9 28-42 180-30 203 19 1 12-2 16-39 6-52 8-84 23-138 7-28 16-56 28-82 11-23 28-54 36-76zm-227 425c3-16-9-12-25-18-24-9-45-27-36-50 22-58-45-1-9 41 10 11 45 36 70 27z"/>
</svg>
