<svg xmlns="http://www.w3.org/2000/svg" xml:space="preserve" width="18mm" height="18mm" shape-rendering="geometricPrecision" text-rendering="geometricPrecision" image-rendering="optimizeQuality" fill-rule="evenodd" clip-rule="evenodd" viewBox="0 0 1800 1800">
    <path fill="none" stroke="#000" stroke-width="20" d="M1209 900H584m517 0 55-164c-174 55-338 55-512 0l55 164h402z"/>
    <path fill="#90C" d="M329 1220c-100-176 296-280 535-297-141 194-439 475-535 297z"/>
    <path fill="none" stroke="#000" stroke-width="20" d="M900 412v365m-75-230 150-105m-150 0 150 105"/>
    <path fill="#fff" stroke="#000" stroke-width="20" d="M900 857c24 0 43 19 43 43s-19 43-43 43-43-19-43-43 19-43 43-43z"/>
    <path fill="none" d="M0 0h1800v1800H0z"/>
</svg>
