<svg xmlns="http://www.w3.org/2000/svg" xml:space="preserve" width="18mm" height="18mm" shape-rendering="geometricPrecision" text-rendering="geometricPrecision" image-rendering="optimizeQuality" fill-rule="evenodd" clip-rule="evenodd" viewBox="0 0 1800 1800">
    <path style="fill:none;stroke-width:.94074076" d="M0 106.667h1693.333V1800H0z"/>
    <path transform="translate(13.742 -321.808) scale(.95249)" style="fill:#000;stroke:#000;stroke-width:27.94485283;stroke-miterlimit:4;stroke-dasharray:none" d="m984 1139 119 49v109H697v-109l119-49 53-303h62z"/>
    <path d="m831.432 510.004-45.548 282.889.394 144.863h60.36l1.078-427.904z" style="fill:#4b96ff;fill-opacity:1;fill-rule:evenodd;stroke:#4b96ff;stroke-width:13.22916698;stroke-linecap:butt;stroke-linejoin:miter;stroke-miterlimit:4;stroke-dasharray:none;stroke-opacity:1" transform="translate(16.685 -29.104)"/>
    <path style="fill:#ff0;fill-opacity:1;fill-rule:evenodd;stroke:#ff0;stroke-width:13.22916698;stroke-linecap:butt;stroke-linejoin:miter;stroke-miterlimit:4;stroke-dasharray:none;stroke-opacity:1" d="m876.76 510.004 45.548 282.889-.394 144.863h-60.36l-1.077-427.904zM672.027 842.906l100.24-38.802v132.575h-100.24z" transform="translate(16.685 -29.104)"/>
    <path d="m1036.462 843.786-100.24-38.803v132.575h100.24z" style="fill:#4b96ff;fill-opacity:1;fill-rule:evenodd;stroke:#4b96ff;stroke-width:13.22916508;stroke-linecap:butt;stroke-linejoin:miter;stroke-miterlimit:4;stroke-dasharray:none;stroke-opacity:1" transform="translate(16.685 -29.104)"/>
    <text xml:space="preserve" style="font-style:normal;font-variant:normal;font-weight:700;font-stretch:normal;font-size:654.53009033px;line-height:1309.05993652px;font-family:sans-serif;-inkscape-font-specification:'sans-serif Bold';text-align:center;letter-spacing:0;word-spacing:0;text-anchor:middle;fill:#ff0;fill-opacity:1;stroke:#000;stroke-width:15.70872498;stroke-linecap:butt;stroke-linejoin:miter;stroke-miterlimit:4;stroke-dasharray:none;stroke-opacity:1" x="852.4" y="445.248" transform="matrix(.99999 0 0 1.00001 18.841 -26.458)"><tspan x="852.4" y="445.248" style="font-style:normal;font-variant:normal;font-weight:700;font-stretch:normal;font-size:418.89938354px;font-family:sans-serif;-inkscape-font-specification:'sans-serif Bold';fill:#ff0;fill-opacity:1;stroke:#000;stroke-width:15.70872498;stroke-miterlimit:4;stroke-dasharray:none;stroke-opacity:1">+</tspan></text>
</svg>
