<svg xmlns="http://www.w3.org/2000/svg" xml:space="preserve" width="18mm" height="18mm" shape-rendering="geometricPrecision" text-rendering="geometricPrecision" image-rendering="optimizeQuality" fill-rule="evenodd" clip-rule="evenodd" viewBox="0 0 1800 1800">
    <path style="fill:none;stroke-width:.94074076" d="M0 106.667h1693.333V1800H0z"/>
    <path style="fill:#000;stroke:#000;stroke-width:27.94485283;stroke-miterlimit:4;stroke-dasharray:none" transform="translate(13.742 -321.808) scale(.95249)" d="m697 1188 119-49 53-303h62l53 303 119 49v109H697z"/>
    <path style="fill:#4b96ff;fill-opacity:1;fill-rule:evenodd;stroke:#4b96ff;stroke-width:13.22916698;stroke-linecap:butt;stroke-linejoin:miter;stroke-miterlimit:4;stroke-dasharray:none;stroke-opacity:1" d="m831.432 510.004-45.548 282.889.394 144.863h60.36l1.078-427.904z" transform="translate(16.685 -29.104)"/>
    <path d="m876.76 510.004 45.548 282.889-.394 144.863h-60.36l-1.077-427.904zM672.027 842.906l100.24-38.802v132.575h-100.24z" style="fill:#ff0;fill-opacity:1;fill-rule:evenodd;stroke:#ff0;stroke-width:13.22916698;stroke-linecap:butt;stroke-linejoin:miter;stroke-miterlimit:4;stroke-dasharray:none;stroke-opacity:1" transform="translate(16.685 -29.104)"/>
    <path style="fill:#4b96ff;fill-opacity:1;fill-rule:evenodd;stroke:#4b96ff;stroke-width:13.22916508;stroke-linecap:butt;stroke-linejoin:miter;stroke-miterlimit:4;stroke-dasharray:none;stroke-opacity:1" d="m1036.462 843.786-100.24-38.803v132.575h100.24z" transform="translate(16.685 -29.104)"/>
    <text transform="scale(.99999 1.00001)" y="418.79" x="871.241" style="font-style:normal;font-variant:normal;font-weight:700;font-stretch:normal;font-size:654.53009033px;line-height:1309.05993652px;font-family:sans-serif;-inkscape-font-specification:'sans-serif Bold';text-align:center;letter-spacing:0;word-spacing:0;text-anchor:middle;fill:#ff0;fill-opacity:1;stroke:#000;stroke-width:15.70872498;stroke-linecap:butt;stroke-linejoin:miter;stroke-miterlimit:4;stroke-dasharray:none;stroke-opacity:1" xml:space="preserve"><tspan style="font-style:normal;font-variant:normal;font-weight:700;font-stretch:normal;font-size:418.89938354px;font-family:sans-serif;-inkscape-font-specification:'sans-serif Bold';fill:#ff0;fill-opacity:1;stroke:#000;stroke-width:15.70872498;stroke-miterlimit:4;stroke-dasharray:none;stroke-opacity:1" y="418.79" x="871.241">+</tspan></text>
    <path style="fill:#ff0;stroke-width:.93393499" d="M1580.414 192.024c105 191.892-380 272.137-669 272.137 186-192.764 568-465.773 669-272.137Z"/>
</svg>
