<svg xmlns="http://www.w3.org/2000/svg" xml:space="preserve" width="18mm" height="18mm" shape-rendering="geometricPrecision" text-rendering="geometricPrecision" image-rendering="optimizeQuality" fill-rule="evenodd" clip-rule="evenodd" viewBox="0 0 1800 1800">
    <path style="fill:none;stroke-width:.94074076" d="M0 106.667h1693.333V1800H0z"/>
    <path style="fill:#ff0;stroke-width:.93395865" d="M1580.706 174.934c106 191.9-380 271.278-669 272.15 186-193.645 568-465.796 669-272.15Z"/>
    <path style="fill:#000" d="M980 620H821l79-123zm0 156H821l79-123z" transform="matrix(1 0 0 .99267 -26.864 -376.502)"/>
    <path style="fill:#fff212;stroke:#000;stroke-width:20" d="m816 1146 53-304h62l53 304 119 48v109H697v-109z" transform="matrix(1 0 0 .99267 -26.864 -376.502)"/>
    <path style="fill:#000;stroke:#000;stroke-width:20" d="m931 842 53 304H816l53-304z" transform="matrix(1 0 0 .99267 -26.864 -376.502)"/>
</svg>
