<svg xmlns="http://www.w3.org/2000/svg" xml:space="preserve" width="18mm" height="18mm" shape-rendering="geometricPrecision" text-rendering="geometricPrecision" image-rendering="optimizeQuality" fill-rule="evenodd" clip-rule="evenodd" viewBox="0 0 1800 1800">
    <path fill="none" d="M0 0h1800v1800H0z"/>
    <path fill="#F60" d="m568 1161 332-522 332 522z"/>
    <path fill="#373435" fill-rule="nonzero" d="m816 1038 47-5c2 12 6 21 12 27 7 7 15 10 24 10 10 0 18-4 25-12 7-7 10-18 10-30 0-13-3-22-10-29-6-8-14-11-24-11-6 0-13 1-22 4l6-40c13 1 23-2 30-8 6-6 10-14 10-24 0-9-3-16-8-21s-12-7-20-7-15 2-21 8-10 14-11 25l-44-7c3-16 8-28 14-37s15-16 26-22c11-5 24-8 38-8 23 0 42 8 57 23 12 13 17 27 17 42 0 23-12 40-36 54 15 3 26 10 35 21 8 10 13 23 13 39 0 22-8 41-24 56-17 16-37 24-61 24-23 0-42-7-57-20s-23-30-26-52z"/>
</svg>
