<svg xmlns="http://www.w3.org/2000/svg" xml:space="preserve" width="18mm" height="18mm" shape-rendering="geometricPrecision" text-rendering="geometricPrecision" image-rendering="optimizeQuality" fill-rule="evenodd" clip-rule="evenodd" viewBox="0 0 1800 1800">
    <path fill="none" d="M0 0h1800v1800H0z"/>
    <path fill-rule="nonzero" d="m367 936 60 17c-10 31-25 53-46 68s-48 23-81 23c-40 0-73-13-99-38s-39-60-39-104c0-46 13-82 39-108 26-25 60-38 103-38 37 0 67 10 91 30 13 12 24 29 31 52l-61 13c-4-15-11-26-23-34-11-9-25-13-41-13-23 0-41 8-55 22-14 15-21 39-21 72 0 35 7 60 21 75 13 15 31 22 54 22 16 0 30-4 42-14 12-9 20-24 25-45zm100-34c0-29 4-52 13-72 7-14 17-27 29-38s25-19 39-25c19-7 41-11 66-11 44 0 80 13 107 38 27 26 41 61 41 106s-14 81-40 106c-27 25-63 38-108 38s-81-13-107-38c-27-25-40-60-40-104zm63-2c0 31 8 55 24 71 16 17 36 25 60 25 25 0 45-8 61-24 15-16 23-41 23-73s-7-56-23-71c-15-16-35-24-61-24-25 0-45 8-61 24-15 16-23 40-23 72zm280 139V761h129c32 0 56 3 71 8 14 5 26 13 35 26s13 28 13 44c0 21-6 38-20 52-13 13-33 22-60 25 14 7 24 15 33 24 9 8 20 23 35 45l37 54h-73l-44-61c-16-21-27-35-33-40-6-6-12-10-18-12-7-2-17-3-31-3h-13v116h-61zm61-160h45c30 0 48-1 56-4 7-2 13-6 17-12 4-5 6-12 6-20 0-10-3-17-8-23-6-6-13-10-23-11-5-1-20-1-45-1h-48v71zm519 160h-66l-27-63h-122l-25 63h-65l118-278h65l122 278zm-113-110-42-103-41 103h83zm147 110V763h62v229h152v47h-214z"/>
</svg>
