<svg xmlns="http://www.w3.org/2000/svg" xml:space="preserve" width="18mm" height="18mm" shape-rendering="geometricPrecision" text-rendering="geometricPrecision" image-rendering="optimizeQuality" fill-rule="evenodd" clip-rule="evenodd" viewBox="0 0 1800 1800">
    <path fill="none" d="M0 0h1800v1800H0z"/>
    <path fill-rule="nonzero" d="M368 937v-47h121v111c-12 11-29 21-51 30-23 9-45 13-68 13-29 0-54-6-76-18-22-13-38-30-49-53-11-22-16-47-16-74 0-29 6-55 18-77 12-23 30-40 53-52 18-9 40-14 67-14 34 0 61 7 81 22 19 14 32 34 37 60l-56 10c-4-13-11-24-22-32s-24-12-40-12c-25 0-44 8-58 24-15 15-22 38-22 69 0 33 7 58 22 74 14 17 34 25 57 25 12 0 24-2 36-7 11-5 22-10 30-17v-35h-64zm173 102V761h118c29 0 51 3 64 8 14 5 25 13 33 26s12 28 12 44c0 21-6 38-18 52-13 13-31 22-55 25 12 7 22 15 30 24 8 8 18 23 32 45l33 54h-67l-40-61c-14-21-24-35-30-40-5-6-10-10-16-12s-16-3-29-3h-11v116h-56zm56-160h41c27 0 44-1 51-4 6-2 12-6 15-12 4-5 6-12 6-20 0-10-2-17-7-23s-12-9-21-11c-5-1-19-1-41-1h-44v71zm474 160h-60l-24-63H875l-23 63h-60l108-278h60l111 278zM968 929l-38-103-38 103h76zm118 20 55-6c3 19 10 32 20 41 10 8 23 13 40 13 18 0 32-4 41-12 9-7 14-16 14-27 0-6-2-12-6-16-4-5-10-9-20-12-7-3-21-7-45-13-30-7-51-16-63-27-17-15-25-34-25-56 0-14 4-28 12-40s19-22 34-28c15-7 34-10 55-10 35 0 61 8 78 23 18 16 27 36 28 62l-56 2c-3-14-8-25-16-31-7-6-19-9-35-9s-29 3-38 10c-6 4-9 10-9 17s3 12 9 17c7 6 24 12 51 19 27 6 47 13 60 20 14 7 24 16 31 28s11 27 11 44c0 16-4 31-13 45s-21 24-38 31c-16 7-36 10-60 10-35 0-62-8-81-24-19-17-30-40-34-71zm259 0 55-6c3 19 10 32 20 41 10 8 23 13 40 13 18 0 32-4 41-12 9-7 14-16 14-27 0-6-2-12-6-16-4-5-11-9-20-12-7-3-22-7-45-13-30-7-51-16-63-27-17-15-25-34-25-56 0-14 4-28 12-40s19-22 34-28c15-7 33-10 55-10 34 0 61 8 78 23 18 16 27 36 28 62l-56 2c-3-14-8-25-16-31s-19-9-35-9-29 3-38 10c-6 4-9 10-9 17s3 12 9 17c7 6 24 12 51 19 27 6 47 13 60 20s24 16 31 28 11 27 11 44c0 16-4 31-13 45s-22 24-38 31-36 10-60 10c-35 0-62-8-81-24-19-17-30-40-34-71z"/>
</svg>
