<svg xmlns="http://www.w3.org/2000/svg" xml:space="preserve" width="18mm" height="18mm" shape-rendering="geometricPrecision" text-rendering="geometricPrecision" image-rendering="optimizeQuality" fill-rule="evenodd" clip-rule="evenodd" viewBox="0 0 1800 1800">
    <path fill="none" d="M0 0h1800v1800H0z"/>
    <path fill-rule="nonzero" d="m367 949 54-6c4 19 10 32 20 41 10 8 24 13 41 13 18 0 32-4 41-12 9-7 13-16 13-27 0-6-2-12-5-16-4-5-11-9-21-12-6-3-21-7-44-13-30-7-51-16-63-27-17-15-26-34-26-56 0-14 4-28 12-40s20-22 35-28c15-7 33-10 54-10 35 0 61 8 79 23 17 16 27 36 27 62l-56 2c-2-14-7-25-15-31s-20-9-35-9c-17 0-29 3-38 10-6 4-9 10-9 17s3 12 8 17c7 6 24 12 52 19 27 6 47 13 60 20s23 16 31 28c7 12 11 27 11 44 0 16-5 31-14 45s-21 24-37 31-37 10-61 10c-35 0-62-8-81-24-18-17-30-40-33-71zm524 90h-61l-24-63H695l-23 63h-60l108-278h59l112 278zM788 929l-39-103-37 103h76zm133 110V761h54l114 186V761h52v278h-56L973 856v183h-52zm280-278h102c23 0 41 2 53 5 16 5 30 14 42 26 11 12 20 27 26 45s9 40 9 66c0 23-3 42-8 59-7 20-17 36-30 49-10 9-23 17-39 22-13 4-29 6-50 6h-105V761zm56 47v184h42c15 0 27-1 34-3 9-2 16-6 22-11 6-6 11-15 15-27s5-29 5-51c0-21-1-38-5-49-4-12-9-21-16-27-7-7-15-11-26-13-8-2-23-3-46-3h-25z"/>
</svg>
