<svg xmlns="http://www.w3.org/2000/svg" xml:space="preserve" width="18mm" height="18mm" shape-rendering="geometricPrecision" text-rendering="geometricPrecision" image-rendering="optimizeQuality" fill-rule="evenodd" clip-rule="evenodd" viewBox="0 0 1800 1800">
    <path fill="none" d="M0 0h1800v1800H0z"/>
    <path fill-rule="nonzero" d="m820 898 34 8-6 19-7 18-9 17-10 15-11 15-12 13-14 13-14 11-15 12-15 10-16 10-16 9-16 10-17 8-16 9-17 9-16 8-16 9-15 9-15 9-15 9-14 10-13 10-12 10-11 11-10 12-9 12-8 13-7 14-5 15-4 15-2 17-35-3 3-20 5-20 6-18 8-17 10-15 11-15 11-14 13-12 14-12 14-11 16-11 15-10 16-9 16-9 17-9 16-9 17-9 16-8 16-9 16-9 15-9 15-9 14-10 13-10 13-10 12-11 10-12 10-12 8-13 7-14 6-15 5-15zm38-85 24 101-90-22 66-79z"/>
    <path fill-rule="nonzero" d="m1071 552 34 9-6 19-7 18-9 16-10 16-12 14-12 14-13 12-14 12-15 11-15 11-16 10-16 9-17 9-16 9-17 9-16 8-16 9-16 9-16 9-15 9-14 9-14 10-13 10-12 10-12 11-10 12-9 12-7 13-7 14-5 14-4 16-3 17-35-3 3-21 5-19 7-18 8-17 9-16 11-14 12-14 13-13 14-11 14-12 15-10 16-10 16-10 16-9 16-9 17-8 16-9 16-9 17-8 15-9 16-9 14-10 15-9 13-10 13-11 11-11 11-11 9-12 9-13 7-14 6-15 5-16zm38-84 23 101-89-22 66-79zm-30 387 34 9-5 19-8 18-8 16-11 16-11 14-12 14-14 12-14 12-14 11-16 11-15 10-17 9-16 9-16 9-17 9-16 9-17 8-16 9-15 9-15 9-15 9-14 10-13 10-12 10-11 11-10 12-9 12-8 13-6 14-6 14-4 16-2 17-35-3 3-21 5-19 6-18 8-17 10-16 11-14 12-14 13-12 13-12 15-12 15-10 15-10 16-10 16-9 17-9 16-8 17-9 16-9 16-8 16-9 15-9 15-10 14-9 14-10 12-11 12-11 10-11 10-12 8-13 8-14 6-15 4-16zm39-84 23 101-90-22 67-79z"/>
    <path fill-rule="nonzero" d="m1330 510 34 8-6 19-7 18-9 17-10 16-11 14-13 14-13 12-14 12-15 11-15 10-16 10-16 10-16 9-17 9-16 9-17 8-16 9-16 9-16 8-15 9-14 10-14 9-13 10-12 11-11 11-10 11-9 13-8 13-7 13-5 15-4 16-3 17-34-4 3-20 4-19 7-18 8-17 10-16 10-14 12-14 13-13 14-12 14-11 15-10 16-10 16-10 16-9 16-9 17-9 16-8 17-9 16-9 16-9 15-9 15-9 14-9 13-11 13-10 11-11 11-12 10-12 8-13 7-13 6-15 5-16zm38-84 23 100-89-21 66-79z"/>
</svg>
