<svg xmlns="http://www.w3.org/2000/svg" xml:space="preserve" width="18mm" height="18mm" shape-rendering="geometricPrecision" text-rendering="geometricPrecision" image-rendering="optimizeQuality" fill-rule="evenodd" clip-rule="evenodd" viewBox="0 0 1800 1800">
    <path fill="none" d="M0 0h1800v1800H0z"/>
    <path fill-rule="nonzero" d="m845 849 18 30-17 9-18 8-18 5-18 4-18 3h-37l-18-2-19-2-18-4-18-4-18-5-18-5-18-5-18-6-18-5-17-6-18-5-17-4-17-5-17-3-16-3-17-2-16-2h-15l-16 1-15 3-14 3-15 5-14 7-14 8-14 10-22-27 17-12 17-10 17-8 18-6 18-5 18-3 18-1h18l18 2 18 2 18 3 18 4 18 5 18 5 18 5 18 5 18 6 17 5 18 6 17 5 17 4 17 4 17 3 17 2 16 2h32l15-2 15-3 15-5 15-6 14-8zm87-32-55 87-48-79 103-8z"/>
    <path fill-rule="nonzero" d="m1266 782 19 30-18 9-18 8-18 6-18 3-18 3h-37l-18-2-18-2-18-4-19-4-18-5-18-5-18-5-17-6-18-5-18-5-17-6-17-4-18-5-16-3-17-3-16-2-16-2h-16l-15 1-15 3-15 3-14 5-14 7-14 8-14 10-22-27 16-12 17-10 17-8 18-6 18-5 18-2 18-2h18l18 2 18 2 18 3 18 4 18 5 18 5 18 5 18 5 18 6 18 5 17 6 18 5 17 4 17 4 17 3 16 2 16 2h32l15-2 16-3 14-5 15-6 14-8zm87-32-55 87-48-79 103-8zm-295 252 18 30-17 10-18 7-18 6-18 4-18 2-18 1-19-1-18-1-18-3-19-3-18-5-18-4-18-5-18-6-18-5-17-6-18-5-17-5-18-5-17-4-17-4-16-3-16-2-16-1h-16l-15 1-15 2-15 4-14 5-15 6-14 9-13 10-23-27 17-12 17-11 17-8 18-6 18-4 18-3 18-1h18l18 1 18 2 18 4 18 4 18 4 18 5 18 5 18 6 18 5 17 6 18 5 17 5 18 4 17 4 16 4 17 2 16 1 16 1 16-1 15-2 15-3 15-5 15-6 14-8zm87-32-55 87-48-78 103-9z"/>
    <path fill-rule="nonzero" d="m1480 935 18 30-18 10-17 7-18 6-19 4-18 2-18 1-18-1-19-1-18-3-18-3-18-5-18-4-18-5-18-6-18-5-18-6-18-5-17-5-17-5-17-4-17-4-17-3-16-2-16-1h-16l-15 1-15 2-15 4-14 5-14 6-14 9-14 10-22-27 16-12 17-11 18-8 17-6 18-4 18-3 18-1h18l18 1 19 3 18 3 18 4 18 4 18 5 18 5 17 6 18 5 18 6 17 5 18 5 17 4 17 4 17 4 16 2 17 1 16 1 15-1 16-2 15-3 15-5 14-6 15-8zm86-32-54 87-48-78 102-9z"/>
</svg>
