<svg xmlns="http://www.w3.org/2000/svg" xml:space="preserve" width="18mm" height="18mm" shape-rendering="geometricPrecision" text-rendering="geometricPrecision" image-rendering="optimizeQuality" fill-rule="evenodd" clip-rule="evenodd" viewBox="0 0 1800 1800">
    <path fill="none" d="M0 0h1800v1800H0z"/>
    <path fill-rule="nonzero" d="M343 1039V761h118c30 0 52 3 65 8 14 5 24 13 32 26 9 13 13 28 13 44 0 21-6 38-19 52-12 13-30 22-54 25 12 7 22 15 29 24 8 8 19 23 32 45l34 54h-67l-40-61c-15-21-24-35-30-40-5-6-11-10-17-12s-15-3-28-3h-12v116h-56zm56-160h42c27 0 44-1 50-4 7-2 12-6 16-12 4-5 6-12 6-20 0-10-3-17-8-23s-12-9-21-11c-4-1-18-1-41-1h-44v71zm213 23c0-29 4-52 13-72 6-14 14-27 25-38s23-19 36-25c18-7 38-11 60-11 41 0 74 13 99 38 24 26 37 61 37 106s-13 81-37 106-57 38-98 38-74-13-99-38c-24-25-36-60-36-104zm58-2c0 31 7 55 21 71 15 17 34 25 56 25s41-8 55-24c15-16 22-41 22-73s-7-56-21-71c-14-16-33-24-56-24s-42 8-56 24-21 40-21 72zm433 36 54 17c-8 31-22 53-41 68-20 15-44 23-74 23-37 0-67-13-91-38s-36-60-36-104c0-46 12-82 36-108 24-25 55-38 94-38 34 0 62 10 83 30 13 12 22 29 29 52l-56 13c-3-15-10-26-20-34-11-9-24-13-39-13-20 0-37 8-50 22-13 15-19 39-19 72 0 35 6 60 19 75s29 22 49 22c15 0 28-4 39-14 11-9 18-24 23-45zm103 103V761h57v123l113-123h75l-104 108 110 170h-73l-76-131-45 47v84h-57z"/>
</svg>
