<svg xmlns="http://www.w3.org/2000/svg" xml:space="preserve" width="18mm" height="18mm" shape-rendering="geometricPrecision" text-rendering="geometricPrecision" image-rendering="optimizeQuality" fill-rule="evenodd" clip-rule="evenodd" viewBox="0 0 1800 1800">
    <path fill="none" d="M0 0h1800v1800H0z"/>
    <path fill="red" d="M1044 839c-34-12-42 42-73 36-25-6-44-42-68-46-18-3-30 6-43 12-27 11-59 13-82-10-11-11-12-26-33-25-32 9-28 69-64 116-11 15-16 17-26 27l495 3c0-19-3-29-12-37-4-4-8-7-14-7-10-1-11 2-17 3 10-29-48-63-63-72z"/>
    <path fill="#E6E6E6" d="M773 670c0 37 19 37 16 90l-8 64c8-7 20-25 25-36 10-21 13-38 13-62 0-10-3-14-6-21-1-4-1-6-3-9-4-6-3-1-7-8-7-16-11-36-11-54 0-4 1-6 2-11-9 5-21 32-21 47zm130 12c0 46-5 70-10 117 9-7 26-35 33-48 14-31 17-50 17-84 0-12-5-20-8-28-6-17-28-53-26-90l3-19c-14 8-29 46-27 71 3 42 18 54 18 81zm95-29c0 41 21 41 17 99l-8 73c9-8 22-29 28-41 11-23 14-42 14-69 0-11-4-16-6-24-2-4-2-6-5-10-4-6-3 0-7-8-8-18-12-40-12-60 0-5 1-6 2-13-10 7-23 36-23 53z"/>
    <path fill="#fff" stroke="#000" stroke-width="25" d="M614 957c0 54 23 114 45 146 19 29 40 53 68 74l28 20c-4 6-14 9-14 21 0 35 97 52 138 52h42c41 0 138-17 138-52 0-11-8-16-14-21 5-5 30-19 53-42 55-53 88-126 88-205H614v7z"/>
</svg>
