<svg xmlns="http://www.w3.org/2000/svg" xml:space="preserve" width="18mm" height="18mm" shape-rendering="geometricPrecision" text-rendering="geometricPrecision" image-rendering="optimizeQuality" fill-rule="evenodd" clip-rule="evenodd" viewBox="0 0 1800 1800">
    <path fill="none" d="M0 0h1800v1800H0z"/>
    <path fill="#0C85CA" d="M1054 1064c0-8 0-10 8-9 2 4 1 3 1 9v103c0 11-9 11-9-1v-102zm-93 0c0-8 0-10 7-9 2 4 2 3 2 9v103c0 11-9 11-9-1v-102zm-129-9c8-1 7 2 7 10 1 17 2 107-3 110-9 4-6-19-6-25 0-19-2-87 2-95zm-94 0c9-1 8 2 8 10 0 17 2 107-3 110-9 4-6-19-6-25 0-19-3-87 1-95zm-115 190 569 1-15-1 46-251H577l46 251zm-68-261h690v-74h2-691z"/>
    <path fill="#F68E8E" d="M592 900h203c4-5 10-8 16-12 6-5 12-9 17-13 10-7 26-16 34-25-3-13-16-32-23-39-10-12-18-20-33-30-59-37-137-23-180 29-20 23-32 50-34 90z"/>
    <path fill="#02598C" d="M579 994h644l-46 251 15 1-569-1-46-251h2zm-23-84h691-2v74H555l1-74zm624-10H545l1 94h21l49 261h568l48-261h23v-94h-75z"/>
    <path fill="#FDECA1" d="M811 900h327c-4-7-128-130-136-137l-95 68c-17 12-31 22-48 34-9 6-43 30-48 35z"/>
    <path fill="#FEFEFE" d="M909 817c8-5 15-10 23-16 11-7 65-47 72-50l147 149h20v-92c0-35 0-49-13-78-10-2-226-2-236 0-15 34-12 47-13 87z"/>
    <path fill="#C2E8FF" d="M922 730c10-2 226-2 236 0l-55-110H977l-55 110z"/>
    <path fill="#7496C4" d="M980 556c12-3 84-1 102-1 17 0 31 1 33 18 3 52-19 38-117 38-17 0-31 0-33-18-1-18-1-33 15-37zm-80 268c3-2 6-4 9-7 1-40-2-53 13-87l55-110h126l55 110c13 29 13 43 13 78v92h9c0-46 6-129-10-166-7-16-57-111-58-118 8-10 12-10 12-28 1-51-22-42-84-42h-41c-33 0-43 5-43 41 0 19 3 18 12 29-2 8-39 79-46 92-23 46-23 59-22 116z"/>
    <path fill="#C0E6FE" d="M980 556c-16 4-16 19-15 37 2 18 16 18 33 18 98 0 120 14 117-38-2-17-16-18-33-18-18 0-90-2-102 1z"/>
    <path fill="#BA9B48" d="M909 817c-3 3-6 5-9 7-5 4-10 7-15 11-3 2-5 3-8 6-4 3-4 4-7 2-1 4 0 3-3 5-2 2-3 2-5 2-8 9-24 18-34 25-5 4-11 8-17 13-6 4-12 7-16 12h16c5-5 39-29 48-35 17-12 31-22 48-34l95-68c8 7 132 130 136 137h13l-147-149c-7 3-61 43-72 50-8 6-15 11-23 16z"/>
    <path fill="#C74343" d="M583 900h9c2-40 14-67 34-90 43-52 121-66 180-29 15 10 23 18 33 30 7 7 20 26 23 39 2 0 3 0 5-2 3-2 2-1 3-5-10-29-40-58-62-71-89-54-219-2-225 128z"/>
    <path fill="#02598C" stroke="#02598C" stroke-width="10" d="M738 1055c-4 8-1 76-1 95 0 6-3 29 6 25 5-3 3-93 3-110 0-8 1-11-8-10zm94 0c-4 8-2 76-2 95 0 6-3 29 6 25 5-3 4-93 3-110 0-8 1-11-7-10zm129 9v102c0 12 9 12 9 1v-103c0-6 0-5-2-9-7-1-7 1-7 9zm93 0v102c0 12 9 12 9 1v-103c0-6 1-5-1-9-8-1-8 1-8 9z"/>
</svg>
