<svg xmlns="http://www.w3.org/2000/svg" xml:space="preserve" width="18mm" height="18mm" shape-rendering="geometricPrecision" text-rendering="geometricPrecision" image-rendering="optimizeQuality" fill-rule="evenodd" clip-rule="evenodd" viewBox="0 0 1800 1800">
    <path fill="none" d="M0 0h1800v1800H0z"/>
    <path fill-rule="nonzero" d="M1089 1029h54c-17 34-43 61-77 80-40 23-89 34-146 34-55 0-103-10-144-28-40-19-70-47-89-83-20-37-30-77-30-120 0-47 11-91 34-132 22-41 52-72 91-92s83-31 133-31c43 0 80 9 113 25s58 40 76 70c17 31 26 64 26 100 0 43-14 81-40 116-33 44-75 65-127 65-14 0-24-2-32-7-7-5-11-12-14-21-19 19-42 28-68 28-28 0-51-9-69-28-19-20-28-45-28-77 0-40 11-76 33-108 27-40 61-60 103-60 30 0 52 12 67 35l6-28h66l-38 180c-2 11-3 19-3 22 0 4 1 8 3 10 1 2 4 3 6 3 9 0 19-5 32-15 17-13 31-30 41-51 11-22 16-44 16-67 0-41-15-76-45-104-30-27-71-41-125-41-45 0-84 9-116 28-31 18-55 44-71 78s-24 69-24 106c0 35 9 67 27 96 18 30 43 51 75 64 32 14 69 20 111 20 40 0 75-5 103-17 29-11 53-28 70-50zM817 925c0 22 5 37 13 47 9 10 20 15 32 15 10 0 19-2 27-7 7-3 13-8 19-16 9-10 17-25 23-44 7-20 10-38 10-55 0-19-5-34-13-44-9-10-20-15-34-15s-27 5-40 17c-12 11-21 27-27 47-6 21-10 39-10 55z"/>
</svg>
