<svg xmlns="http://www.w3.org/2000/svg" xml:space="preserve" width="18mm" height="18mm" shape-rendering="geometricPrecision" text-rendering="geometricPrecision" image-rendering="optimizeQuality" fill-rule="evenodd" clip-rule="evenodd" viewBox="0 0 1800 1800">
    <path fill="none" d="M0 0h1800v1800H0z"/>
    <path fill="#C1FEFE" d="M922 759c78 12 131 85 119 163-13 78-86 131-164 119-77-13-131-86-118-164 12-77 85-130 163-118z"/>
    <path fill="#0D0FFE" d="m868 1005 27-67h11c9 9 23 49 29 65-20 9-40 6-67 2zm-17-7c-9-7-17-9-27-19-12-12-14-18-22-27 16-9 61-32 76-23 1 9-20 57-27 69zm74-66c4-21 44 9 75 16-12 25-30 38-47 49-5-8-29-59-28-65zm-63-26c-11 8-54 25-68 30-2-18-10-43-2-66 18-3 49 17 69 23l1 13zm85 3c-3-2-10-2-6-14 4-9 46-19 63-31 13 17 8 49 3 68l-60-23zm-147-57c12-32 29-36 47-53 8 11 12 25 18 39 14 30 12 39-7 36-9-1-39-18-58-22zm152-54c28 20 34 24 49 52-24 6-46 21-69 26-4-9 1-3-9-10l29-68zm-88-7c11-1 20-5 32-5 15 0 26 3 40 6-8 19-19 50-28 67h-14c-8-8-25-54-30-68zm122-42c18-58-10-5 26-68 9-16 33-53 8-65-44-19-39 69-56 90-9 11-4-1-11 14-2 5-4 10-5 18-32-8-68-8-91 0-2-6-5-11-8-17l-11-16c-17-21-16-109-57-89-27 13 0 51 9 66 30 50 11 26 21 54 2 7 4 10 6 17-11 11-20 13-34 27-11 12-16 23-27 36-39-12-29-6-42-10-22-5-81-61-98-26-20 43 69 40 91 58 23 18 11 6 32 17-7 39-4 58 2 88l-34 18c-22 19-111 17-91 58 14 29 53-1 68-9 44-25 17-10 72-28 19 21 31 47 62 59-7 20-9 22-11 41-3 26-60 80-29 100 33 18 40-22 46-52 14-61 14-17 33-73 28 13 61 7 87 3 9 25 8 22 19 34 7 10 9 23 13 38 5 21 13 66 43 53 39-18-23-79-27-103-4-31-7-24-8-38 29-25 32-18 60-61 37 19 16-6 71 27 10 5 21 13 32 17 20 8 24 4 37-3l3-22c-36-37-60-14-98-43l-14-8c-6-3-10-4-14-7 7-32 9-64 1-87 5-2 10-4 17-8l16-11c20-16 108-15 90-57-17-39-78 23-101 27l-37 9-12-18c-13-16-31-36-50-43l1-7z"/>
</svg>
