<svg xmlns="http://www.w3.org/2000/svg" xml:space="preserve" width="18mm" height="18mm" shape-rendering="geometricPrecision" text-rendering="geometricPrecision" image-rendering="optimizeQuality" fill-rule="evenodd" clip-rule="evenodd" viewBox="0 0 1800 1800">
    <path fill="none" d="M0 0h1800v1800H0z"/>
    <path fill="red" stroke="red" stroke-width="10" d="M875 659v489c0 16 0 26-7 36-3 4-6 8-11 10-7 5-11 4-15 6H458c-5-3-29-3-33-34-1-13 0-299 0-335 0-12-2-59 1-66 5-13 28-30 32-36-2-6-15-22-19-28-9-12-13-15-25-23-16-11-3-18 6-27 4-4 20-21 25-23 5-1 82-10 85-8 6 3 6 10 7 17 1 9-4 11-9 15-8 6-19 16-27 20 2 5 7 11 11 15 5-2 8-4 13-7 17-9 9 1 30-34l24-38c5-7 6-4 12-8h253c3 1 5 2 9 3 3 2 4 3 6 4 18 15 16 30 16 52zm-295 17c2-6 20-34 24-38l157-1c-1 4-23 38-24 38H601l-21 1z"/>
    <path fill="#fff" fill-rule="nonzero" d="M563 1050V805h80c30 0 49 1 59 3 14 4 25 12 35 24 9 13 14 29 14 48 0 15-3 28-8 38s-12 18-21 24c-8 6-17 10-25 12-12 2-29 3-52 3h-32v93h-50zm50-204v70h27c20 0 32-1 39-4s12-7 15-12c4-6 6-12 6-19 0-9-3-17-8-22-5-6-12-10-20-11-6-1-17-2-35-2h-24z"/>
    <path fill="#FFDB12" stroke="#FFDB12" stroke-width="10" d="M1393 659v489c0 16 1 26-6 36-3 4-7 8-11 10-7 5-12 4-16 6H976c-5-3-28-3-32-34-2-13-1-299-1-335 0-12-1-59 2-66 5-13 27-30 31-36-2-6-15-22-19-28-8-12-13-15-25-23-15-11-2-18 6-27 5-4 20-21 25-23 6-1 82-10 86-8 6 3 5 10 6 17 1 9-3 11-8 15-9 6-20 16-27 20 2 5 6 11 10 15 5-2 8-4 13-7 17-9 9 1 30-34l24-38c6-7 6-4 13-8h253c2 1 5 2 8 3 3 2 5 3 7 4 17 15 15 30 15 52zm-294 17c2-6 20-34 24-38l157-1c-2 4-23 38-25 38h-136l-20 1z"/>
    <path fill-rule="nonzero" d="M1073 805h90c21 0 36 1 47 4 14 4 27 12 37 23s18 24 23 40c6 15 8 35 8 58 0 20-2 37-7 52-6 18-15 32-26 43-9 9-21 15-35 20-11 3-26 5-44 5h-93V805zm50 41v163h37c13 0 23-1 29-3 8-2 15-5 20-10 6-5 10-13 13-24 4-11 5-26 5-45s-1-33-5-43c-3-11-8-18-14-24s-13-10-23-12c-6-1-20-2-40-2h-22z"/>
</svg>
