<svg xmlns="http://www.w3.org/2000/svg" xml:space="preserve" width="18mm" height="18mm" shape-rendering="geometricPrecision" text-rendering="geometricPrecision" image-rendering="optimizeQuality" fill-rule="evenodd" clip-rule="evenodd" viewBox="0 0 1800 1800">
    <path fill="none" d="M0 0h1800v1800H0z"/>
    <path fill="red" stroke="red" stroke-width="10" d="M1134 659v489c0 16 1 26-7 36-3 4-6 8-10 10-8 5-12 4-16 6H717c-5-3-28-3-32-34-2-13-1-299-1-335 0-12-1-59 1-66 6-13 28-30 32-36-2-6-15-22-19-28-9-12-13-15-25-23-15-11-2-18 6-27 5-4 20-21 25-23 5-1 82-10 86-8 5 3 5 10 6 17 1 9-3 11-9 15-8 6-19 16-27 20 3 5 7 11 11 15 5-2 8-4 13-7 17-9 9 1 30-34l24-38c5-7 6-4 12-8h254c2 1 5 2 8 3 3 2 4 3 7 4 17 15 15 30 15 52zm-294 17c2-6 19-34 23-38l157-1c-1 4-22 38-24 38H860l-20 1z"/>
    <path fill="#fff" fill-rule="nonzero" d="M823 1050V805h79c30 0 50 1 59 3 14 4 26 12 35 24 10 13 14 29 14 48 0 15-2 28-8 38-5 10-12 18-21 24-8 6-17 10-25 12-12 2-29 3-52 3h-32v93h-49zm49-204v70h27c20 0 33-1 39-4 7-3 12-7 16-12 3-6 5-12 5-19 0-9-2-17-8-22-5-6-11-10-19-11-6-1-18-2-36-2h-24z"/>
</svg>
