<svg xmlns="http://www.w3.org/2000/svg" xml:space="preserve" width="18mm" height="18mm" shape-rendering="geometricPrecision" text-rendering="geometricPrecision" image-rendering="optimizeQuality" fill-rule="evenodd" clip-rule="evenodd" viewBox="0 0 1800 1800">
    <path fill="#FFF212" stroke="#000" stroke-width="20" d="M1031 1159h104v53H659v-53h101V620c0-18 14-32 32-32h207c18 0 32 14 32 32v274c14 0 30 5 30 14 2 54 1 118 3 172 2 23 16 45 35 45 14 1 21-6 21-22 0-18-1-39-8-55-10-22-20-45-32-66-5-11-8-24-7-37l-3-145-25 1v-84l-14-11v-45l64 56v224c0 20 4 32 12 45 5 9 10 20 16 29 10 22 17 46 18 69 0 19-2 42-9 53-7 9-21 12-34 12-13-1-25-5-37-15-9-12-18-32-19-53 0-31-1-57-1-88-1-22 0-44-1-65h-8l-1 231z"/>
    <rect fill="#FC9" stroke="#000" stroke-width="20" x="798" y="634" width="196" height="149" rx="26" ry="26"/>
    <path fill-rule="nonzero" d="M829 1116V902h69c26 0 44 1 51 3 13 3 23 10 31 21 9 11 13 25 13 42 0 13-3 24-7 33-5 9-11 16-19 21-7 5-14 9-22 10-10 2-25 3-45 3h-28v81h-43zm43-178v61h24c17 0 28-1 34-3 6-3 10-6 13-11s5-10 5-17-2-14-7-19c-4-5-10-8-17-9-5-1-15-2-31-2h-21z"/>
    <path fill="none" d="M0 0h1800v1800H0z"/>
</svg>
