<svg xmlns="http://www.w3.org/2000/svg" xml:space="preserve" width="18mm" height="18mm" shape-rendering="geometricPrecision" text-rendering="geometricPrecision" image-rendering="optimizeQuality" fill-rule="evenodd" clip-rule="evenodd" viewBox="0 0 1800 1800">
    <path fill="none" d="M0 0h1800v1800H0z"/>
    <rect fill="#0C85CA" x="530" y="530" width="741" height="741" rx="109" ry="109"/>
    <path fill="#fff" d="M881 805c85-11 152 52 161 124 11 84-51 152-123 161-85 11-153-52-161-125-10-80 46-149 123-160zm-175 351c1 8 9 7 17 7h352c10 0 17 1 19-7 4-10-1-355 1-403H706v403z"/>
    <path d="M1095 753c-2 48 3 393-1 403-2 8-9 7-19 7H723c-8 0-16 1-17-7l-1-2c-1-4 0-193 0-200 0-22-1-184 0-202 7-1 184 0 196 0 4 0 189-2 194 1zm-410 406c-1 13 13 25 32 26h341c19 0 36 3 49-8 12-11 10-28 10-48V731c-143 0-291-1-433 0v215l1 213z"/>
    <path fill="#0C85CA" d="M797 915c-8 12-7 42-3 57 4 16 12 32 20 43 63 76 176 40 193-45 3-16 3-41-3-55-4 3-5 5-11 8-15 7-32 1-39-12-5 4-5 6-11 10-5 3-10 5-16 5-16 0-20-9-27-15-5 7-14 15-27 15-14 0-20-7-26-15-3 3-4 6-10 10-17 11-30 2-40-6z"/>
    <path fill="#FEFEFE" d="M797 915c10 8 23 17 40 6 6-4 7-7 10-10 6 8 12 15 26 15 13 0 22-8 27-15 7 6 11 15 27 15 6 0 11-2 16-5 6-4 6-6 11-10 7 13 24 19 39 12 6-3 7-5 11-8 6 14 6 39 3 55-17 85-130 121-193 45-8-11-16-27-20-43-4-15-5-45 3-57zm-19 32v1c0 66 54 121 123 121 66 0 121-53 121-124 0-64-55-119-124-119-65 0-120 56-120 121z"/>
    <path fill="#fff" d="M749 649c25-9 39 30 14 39s-40-29-14-39zm62 1c13-5 24 3 27 12 3 12-4 23-13 26-25 9-40-29-14-38zm284 49c1-9 0-23 0-33 0-36 5-29-67-29H772c-10 0-58-2-63 2-6 4-4 20-4 28 0 9-1 24 1 32h389z"/>
    <path d="M1095 699H706c-2-8-1-23-1-32 0-8-2-24 4-28 5-4 53-2 63-2h256c72 0 67-7 67 29 0 10 1 24 0 33zm22 22c1-11 1-71-1-81-6-30-37-25-55-25H738c-18 0-49-4-54 26l-1 80c17 1 38 0 55 0 36 0 370-2 379 0zM778 947c0-65 55-121 120-121 69 0 124 55 124 119 0 71-55 124-121 124-69 0-123-55-123-121v-1zm103-142c-77 11-133 80-123 160 8 73 76 136 161 125 72-9 134-77 123-161-9-72-76-135-161-124z"/>
    <path d="M749 649c-26 10-11 48 14 39s11-48-14-39zm62 1c-26 9-11 47 14 38 9-3 16-14 13-26-3-9-14-17-27-12z"/>
    <path fill="#fff" d="M706 1156V753h389c-5-3-190-1-194-1-12 0-189-1-196 0-1 18 0 180 0 202 0 7-1 196 0 200l1 2z"/>
    <path fill="#3E3E3E" d="m685 1159-1-213V731c142-1 290 0 433 0h-1l-216-1c-19 0-203-1-217 1-1 15 0 38 0 54 0 36-1 373 2 374z"/>
</svg>
