<svg xmlns="http://www.w3.org/2000/svg" xml:space="preserve" width="18mm" height="18mm" shape-rendering="geometricPrecision" text-rendering="geometricPrecision" image-rendering="optimizeQuality" fill-rule="evenodd" clip-rule="evenodd" viewBox="0 0 1800 1800">
    <path fill="none" d="M0 0h1800v1800H0z"/>
    <path fill="#0C85CA" d="M928 985c3-6 26-19 31-18 6 1 23 14 31 17v72c-8-4-59-32-62-38v-33zm-118-1c8-3 26-16 31-17s24 13 31 15v36c-3 6-54 34-62 38v-72zm174-98c4-5 17-12 24-16 13-8 11-6 24 2l46 27s0 1 1 1l-25 15c-36 21-31 24-47 14-28-16-23-7-23-43zm-263 14c2-1 1-1 3-3 1 0 3-1 4-2l18-10c36-21 31-24 47-14 12 7 22 10 22 18 0 33 5 24-23 41-13 8-11 6-24-2l-47-28zm207-118c3-6 54-34 62-38v72c-28 10-24 27-48 12-17-10-14 0-14-46zm-118-38c8 4 59 32 62 38v39c-10 3-22 16-32 12-9-4-20-13-30-17v-72zm237 274c7 3 62 34 65 39v62c0 17-5 46 12 49 5 1 27 1 32 0 10-1 12-7 13-17 1-20 0-42 0-62 6 1 32 17 39 22 22 12 24 4 34-13 11-19 15-25-6-37-11-6-27-16-38-21 10-13 60-29 63-44 1-7-12-30-16-35-9-13-25-1-35 5-9 5-63 38-68 39-6 1-58-31-66-36 7-8 41-25 50-30 16-9 39-16 39-39s-24-30-40-40c-8-4-16-9-25-14-3-2-9-5-12-7-2-1-10-4-11-7l-1-1c9-6 61-38 68-35 10 3 54 31 67 38 11 7 25 18 35 4 4-7 17-27 15-36-4-13-54-30-63-42 12-5 28-15 39-22 21-12 15-19 5-37-12-19-13-23-35-11-7 4-32 20-38 21 0-20 1-42 0-62-1-11-4-16-15-17-5-1-25-1-30 0-17 3-12 32-12 49v62c-3 5-58 36-65 39 0-16 3-91-5-102-24-37-82 21-114 34v-73c2-6 64-39 76-46 25-15 19-22 1-49-7-11-15-9-26-2-13 8-36 23-51 29 0-16 1-33 0-49 0-20-10-19-28-19-37 0-28 12-28 68-16-7-38-21-52-30-13-8-20-6-27 5-16 29-22 32 5 48 13 7 72 37 74 45v73c-31-13-92-72-115-33-7 11-4 85-4 101-7-3-62-34-65-39v-62c0-38 8-55-44-49-10 1-12 7-13 17-1 20 0 42 0 62-6-1-32-17-39-22-22-12-24-4-34 13-11 19-15 25 6 37 11 6 27 16 38 21-10 13-60 29-63 44-1 7 12 30 16 35 9 13 25 1 35-5 82-49 61-45 101-22 11 6 23 12 33 19l-3 3-10 6c-4 2-9 5-12 7-9 5-17 9-25 14-17 10-39 17-39 39 0 14 7 20 16 25 11 7 65 35 73 44-11 7-23 13-34 19-40 23-28 20-67-3-12-7-22-12-34-19-10-7-25-18-35-4-4 7-17 27-15 36 4 13 54 30 63 42-12 5-28 15-39 22-21 12-15 19-5 37 12 19 13 23 35 11 7-4 32-20 38-21 0 20-1 42 0 62 1 11 4 16 15 17 6 1 25 1 30 0 17-3 12-32 12-49v-62c3-5 58-36 65-39 0 16-3 91 5 102 24 37 82-21 114-34v73c-3 6-42 26-50 31-39 23-56 19-27 64 7 11 15 9 26 2 13-8 36-23 51-29 0 16-1 33 0 49 0 20 10 19 28 19 37 0 28-12 28-68 36 15 64 51 79 25 16-29 22-32-5-48-13-7-72-37-74-45v-73c31 13 92 72 115 33 7-11 4-85 4-101z"/>
</svg>
