<svg xmlns="http://www.w3.org/2000/svg" xml:space="preserve" width="18mm" height="18mm" shape-rendering="geometricPrecision" text-rendering="geometricPrecision" image-rendering="optimizeQuality" fill-rule="evenodd" clip-rule="evenodd" viewBox="0 0 1800 1800">
    <path fill="none" d="M0 0h1800v1800H0z"/>
    <path fill="#fff" d="M619 819c10-4 118-1 140-1h422c7 83 30 250-39 307-20 17-38 26-68 32-64 13-176 8-244 8-51 0-136-6-172-42-19-19-30-37-38-69-18-77-7-157-1-235zm23-273c-2 9-6 17-8 26-7 25-14 58-18 84-6 39-10 78-15 120l-10 124c-2 42-6 88-5 130 3 94 11 163 75 197 59 30 159 27 241 27 77 0 189 4 242-28 29-18 46-42 57-79 21-73 12-173 8-250l-10-123c-8-60-18-177-41-228H642z"/>
    <path fill="#0C85CA" d="M753 913c7-3 9-1 23 2l120 26c18 4 37 4 42 16 3 8-24 124-28 142-3 13-5 38-16 42-8 2-123-23-145-28-19-5-37-5-41-17-3-7 5-38 7-47 3-13 26-124 29-130s4-4 9-6zm198 71c8-38 0-47-35-55-15-3-36-5-35-12 2-12 20-14 31-16l158-36c15-1 17 14 20 28l27 117c7 35 20 54-9 60l-132 30c-23 6-38 12-51 4l26-120zM619 819c-6 78-17 158 1 235 8 32 19 50 38 69 36 36 121 42 172 42 68 0 180 5 244-8 30-6 48-15 68-32 69-57 46-224 39-307H759c-22 0-130-3-140 1z"/>
    <path fill="#fff" d="M753 913c-5 2-6 0-9 6s-26 117-29 130c-2 9-10 40-7 47 4 12 22 12 41 17 22 5 137 30 145 28 11-4 13-29 16-42 4-18 31-134 28-142-5-12-24-12-42-16l-120-26c-14-3-16-5-23-2z"/>
    <path fill="#00f" stroke="#0C85CA" stroke-width="25" d="M642 546h516c23 51 33 168 41 228l10 123c4 77 13 177-8 250-11 37-28 61-57 79-53 32-165 28-242 28-82 0-182 3-241-27-64-34-72-103-75-197-1-42 3-88 5-130l10-124c5-42 9-81 15-120 4-26 11-59 18-84 2-9 6-17 8-26zm544 33c0-1-1-2-1-1l-7-24c-3-8-6-14-9-23-12-3-236-1-268-1H632c-3 8-6 16-9 25-34 101-52 366-52 463 0 227 74 252 296 252 80 0 191 5 256-18 34-12 59-30 76-60 37-68 30-164 28-244-2-86-18-252-36-340-1-8-6-23-5-29z"/>
    <path fill="#fff" d="M925 1104c13 8 28 2 51-4l132-30c29-6 16-25 9-60l-27-117c-3-14-5-29-20-28l-158 36c-11 2-29 4-31 16-1 7 20 9 35 12 35 8 43 17 35 55l-26 120z"/>
</svg>
