/* XPM */
static char *shippity[] = {
/* columns rows colors chars-per-pixel */
"25 48 231 2",
"   c #1E6C00",
".  c #276C00",
"X  c #2D6F00",
"o  c #2A7500",
"O  c #3E7000",
"+  c #725500",
"@  c #417600",
"#  c #477900",
"$  c #497D00",
"%  c #777800",
"&  c #805600",
"*  c #8A5B00",
"=  c #AD5700",
"-  c #876800",
";  c #906B00",
":  c #9C6A00",
">  c #8A7200",
",  c #937700",
"<  c #9B7300",
"1  c #947C00",
"2  c #A26500",
"3  c #AF6600",
"4  c #A36E00",
"5  c #B26E00",
"6  c #BC6D00",
"7  c #A27400",
"8  c #AC7400",
"9  c #A67F00",
"0  c #AE7C00",
"q  c #B37200",
"w  c #BB7300",
"e  c #B57D00",
"r  c #BE7B00",
"t  c #D56100",
"y  c #C37700",
"u  c #CA7700",
"i  c #C47B00",
"p  c #CC7F00",
"a  c #D27E00",
"s  c #ED7700",
"d  c #1C8500",
"f  c #198C00",
"g  c #099700",
"h  c #099F00",
"j  c #00940A",
"k  c #009C0A",
"l  c #139200",
"z  c #2B8200",
"x  c #268800",
"c  c #299100",
"v  c #00A20A",
"b  c #478000",
"n  c #4A8600",
"m  c #4C9300",
"M  c #5D9B00",
"N  c #648E00",
"B  c #699400",
"V  c #5BA300",
"C  c #78B000",
"Z  c #2FDE00",
"A  c #01FF1F",
"S  c #54D100",
"D  c #7DD800",
"F  c #8E8200",
"G  c #968500",
"H  c #948E00",
"J  c #849700",
"K  c #859900",
"L  c #909300",
"P  c #9B9600",
"I  c #9A9B00",
"U  c #A38200",
"Y  c #AB8300",
"T  c #A58B00",
"R  c #AD8900",
"E  c #B28300",
"W  c #BD8400",
"Q  c #B48A00",
"!  c #BB8C00",
"~  c #AB9200",
"^  c #A79900",
"/  c #AD9E00",
"(  c #B39000",
")  c #BB9100",
"_  c #91A600",
"`  c #B7A300",
"'  c #BDA100",
"]  c #BEAE00",
"[  c #C58400",
"{  c #CC8600",
"}  c #C38B00",
"|  c #CB8D00",
" . c #D58400",
".. c #DA8300",
"X. c #D68B00",
"o. c #DC8C00",
"O. c #C39200",
"+. c #CC9200",
"@. c #C39900",
"#. c #CC9B00",
"$. c #D39400",
"%. c #DC9300",
"&. c #D49C00",
"*. c #DC9C00",
"=. c #E98500",
"-. c #E18C00",
";. c #EB8F00",
":. c #E39400",
">. c #E29C00",
",. c #EB9C00",
"<. c #F39500",
"1. c #FB9700",
"2. c #F09900",
"3. c #FF9C00",
"4. c #C1A500",
"5. c #CAA200",
"6. c #CDAA00",
"7. c #D6A300",
"8. c #DBA500",
"9. c #D7AD00",
"0. c #CEB100",
"q. c #D7B100",
"w. c #DBB500",
"e. c #E4A300",
"r. c #EBA200",
"t. c #E4AA00",
"y. c #ECAD00",
"u. c #F2A300",
"i. c #FBA302",
"p. c #F2AE00",
"a. c #FFA109",
"s. c #FFAD0D",
"d. c #E6B300",
"f. c #E9B300",
"g. c #E5BA00",
"h. c #EEBD00",
"j. c #F0B000",
"k. c #FDB303",
"l. c #F4BB00",
"z. c #FFB30C",
"x. c #FFB90E",
"c. c #FFAA12",
"v. c #FFA71B",
"b. c #FFB212",
"n. c #FFB91D",
"m. c #FF8824",
"M. c #FFBE2D",
"N. c #FFB835",
"B. c #FFBA3A",
"V. c #A5C300",
"C. c #82FF1D",
"Z. c #ACFE00",
"A. c #B0FF09",
"S. c #D6C400",
"D. c #DDC200",
"F. c #D2CE00",
"G. c #EBC200",
"H. c #EFCA00",
"J. c #F0C000",
"K. c #FEC403",
"L. c #F7C900",
"P. c #FECC01",
"I. c #FFC30C",
"U. c #FFCA09",
"Y. c #FFD303",
"T. c #FFD803",
"R. c #FFC013",
"E. c #FFC51C",
"W. c #FFCE1A",
"Q. c #FFD316",
"!. c #FFD31B",
"~. c #C9E700",
"^. c #CCF900",
"/. c #FFE607",
"(. c #FFED0D",
"). c #E1F000",
"_. c #FFFA00",
"`. c #FFE614",
"'. c #FFEE15",
"]. c #FFE61C",
"[. c #F0FF15",
"{. c #FFFA13",
"}. c #FFC423",
"|. c #FFCB23",
" X c #FFC42D",
".X c #FFCB2A",
"XX c #FFD124",
"oX c #FFD32A",
"OX c #FFDB2E",
"+X c #FFC437",
"@X c #FFCA33",
"#X c #FFC53C",
"$X c #FFCA3C",
"%X c #FFD832",
"&X c #FFD93D",
"*X c #DEFF2C",
"=X c #DDFF3A",
"-X c #FFE624",
";X c #FFE52B",
":X c #FFF225",
">X c #FFE23D",
",X c #FFB745",
"<X c #FFB941",
"1X c #FFAF68",
"2X c #9DFF4F",
"3X c #FFC441",
"4X c #FFCB47",
"5X c #FFD444",
"6X c #FFDA41",
"7X c #FFD14C",
"8X c #FFD952",
"9X c #FFD259",
"0X c #FFE14E",
"qX c #FFEE4E",
"wX c #FFF245",
"eX c #FFF14C",
"rX c #FFE553",
"tX c #F7FFD0",
"yX c #F0FFDE",
"uX c #DCF2FF",
"iX c #FDFFE7",
"pX c #FFF6ED",
"aX c #F1FFEC",
"sX c #E8EFFF",
"dX c #FFE9F2",
"fX c #EBF1FF",
"gX c #FFF1F1",
"hX c #FDFCF4",
"jX c #F4FFFC",
"kX c #FFFCFC",
"lX c None",
/* pixels */
"lXlXlXlXlXlXlXlXlXlXlXlXlXlXlXlXlXlXlXlXlXlXlXlXlX",
"lXlXlXlXlXlXlXlXlXlXlXlXlXlXlXlXlXlXlXlXlXlXlXlXlX",
"lXlXlXlXlXlXlXlXlXlXlXlX< lXlXlXlXlXlXlXlXlXlXlXlX",
"lXlXlXlXlXlXlXlXlXlXlX9 + , lXlXlXlXlXlXlXlXlXlXlX",
"lXlXlXlXlXlXlXlXlXlX( r 2 & 8 lXlXlXlXlXlXlXlXlXlX",
"lXlXlXlXlXlXlXlXlX_ U q q * : G lXlXlXlXlXlXlXlXlX",
"lXlXlXlXlXlXlXlXA I q.r.e e e T ~.lXlXlXlXlXlXlXlX",
"lXlXlXlXlXlXlXlXj F.g.>.e e e > J lXlXlXlXlXlXlXlX",
"lXlXlXlXlXlXlXY.Q K.d.&.W W [ e e S lXlXlXlXlXlXlX",
"lXlXlXlXlXlXlX, P.l.7.8.+.W [ [ [ X lXlXlXlXlXlXlX",
"lXlXlXlXlXlXM.} n.K.8.9.@.0 } *.>.4 Q.lXlXlXlXlXlX",
"lXlXlXlXlXlX: k.n.I.8.5.Q e +.*.*.e U lXlXlXlXlXlX",
"lXlXlXlXlXlXT W.W.L.6.' T U ) +.#.X.3 lXlXlXlXlXlX",
"lXlXlXlXlX{.H.XXK.G.w.0.~ U Q } #.X.6 lXlXlXlXlXlX",
"lXlXlXlXlX^ `.(.T.g.f.&.E ! @.E ) :.=.@ lXlXlXlXlX",
"lXlXlXlXlX/ ].'.T.L.l.t.! E ! ! 6.:.=.O lXlXlXlXlX",
"lXlXlXlXlX] ;X-XK.k.:.o.p | $.$.$.r.<.F lXlXlXlXlX",
"lXlXlXlXwXS.;X-XK.x.:.-.{ } +.&.&.r.<.F Z.lXlXlXlX",
"lXlXlXlX^.).;X@Xx.i. .o.i : 8 } $.>.,.Q D.lXlXlXlX",
"lXlXlXlXV.[.;X.Xx.a. .r 4 7 [ | >.>.,.) ` lXlXlXlX",
"lXlXlXlXx *X:X Xz.%.@.V m K T 7 W e.e.*.( lXlXlXlX",
"lXlXlXlX  =X:X Xb.{ 8XyXaXtXrX7.| e.*.*.R lXlXlXlX",
"lXlXlXlXd eX-XXX;.t kXsXsXfXjX$.e e.e.%.5 lXlXlXlX",
"lXlXlXlXf eX;X|.<.m.dXsXsXuXjX3X8 e.t.X.5 lXlXlXlX",
"lXlXlXlXg qX&X}.3.s gXhXpXhXiXo.[ e.y.{ q lXlXlXlX",
"lXlXlXlXh qX6X}.a.= 1XkXhXhXeXp { e.p.{ w lXlXlXlX",
"lXlXlXlXv eX5XM.c.3.2 q 2.9 ) [ +.e.j.{ r lXlXlXlX",
"lXlXlXlXk eX5X Xc.1.i X.* Y -  .u.e.y.X.r lXlXlXlX",
"lXlXlXlXl 0X$X+Xb.z.:.| 0 ; ) e.*.e.y.%.e lXlXlXlX",
"lXlXlXlXf 0X@X#Xz.,.,.%.< Y Y *.e.e.e.%.8 lXlXlXlX",
"lXlXlXlXn 5X4X}.E.l.y.&.Q U Q *.*.e.e.*.8 lXlXlXlX",
"lXlXlXlXb 8X4X}.R.l.y.&.Q U Q *.*.e.t.*.8 lXlXlXlX",
"lXlXlXlX# 9X3XXXK.l.d.&.Q Y R O.$.*.t.$.: lXlXlXlX",
"lXlXlXlX$ 7X#XoXK.l.d.&.Q Y R O.$.*.t.| : lXlXlXlX",
"lXlXlXlXM @XN..XK.h.f.*.! Y R O.+.*.e.[ q lXlXlXlX",
"lXlXlXlXD R.N.|.P.h.f.*.! Y R O.+.*.8.[ :.lXlXlXlX",
"lXlXlXlXC.p.B.E.P.h.f.>.} E Q | | &.&.[ v.lXlXlXlX",
"lXlXlXlX2Xe.<XE.P.h.f.>.} E Q | | &.&.{ ,XlXlXlXlX",
"lXlXlXlXlX4.!.OXK.J.f.#.Q E ! O.+.u.i.P lXlXlXlXlX",
"lXlXlXlXlX1 %XOXU.L.l.7.! E ! O.+.*.u.H lXlXlXlXlX",
"lXlXlXlXlXN :X/.Y.g.t.@.E 0 W } | r.,.% lXlXlXlXlX",
"lXlXlXlXlXB _.`.Q.h.t.#.E 0 ! O.+.| X.L lXlXlXlXlX",
"lXlXlXlXlXH.l.M.i.i.1...w w i p p [ U C lXlXlXlXlX",
"lXlXlXlXlX>X@.z.s.2.;. .y w u a a r U A.lXlXlXlXlX",
"lXlXlXlXlXlXZ c d z z o . . o o o U G.lXlXlXlXlXlX",
"lXlXlXlXlXlXlXlXlXlXlXlXlXlXlXlXlXlXlXlXlXlXlXlXlX",
"lXlXlXlXlXlXlXlXlXlXlXlXlXlXlXlXlXlXlXlXlXlXlXlXlX",
"lXlXlXlXlXlXlXlXlXlXlXlXlXlXlXlXlXlXlXlXlXlXlXlXlX"
};
