<svg xmlns="http://www.w3.org/2000/svg" viewBox="0 0 48 48"><rect width="40" height="40" x="4" y="4" ry="5.147" style="fill:#fff;fill-opacity:1;fill-rule:evenodd;stroke:#fff;stroke-width:8;stroke-linecap:butt;stroke-linejoin:miter;stroke-miterlimit:4;stroke-dasharray:none;stroke-opacity:1"/><path d="M4 32.328v6.526A5.135 5.135 0 0 0 9.146 44h29.708A5.135 5.135 0 0 0 44 38.854v-6.526z" style="fill:#000;fill-opacity:1;fill-rule:evenodd;stroke:none;stroke-width:1px;stroke-linecap:butt;stroke-linejoin:miter;stroke-opacity:1"/><rect width="32" height="32" x="8" y="8" ry="2.993" style="fill:#fff;fill-opacity:1;fill-rule:evenodd;stroke:none;stroke-width:1px;stroke-linecap:butt;stroke-linejoin:miter;stroke-opacity:1"/><path d="M24.019 9.9a2.615 2.438 0 0 0-2.622 2.444V23.2l-5.215-4.948a2.614 2.437 0 0 0-3.707-.029 2.614 2.437 0 0 0-.032 3.455l9.604 9.112a2.604 2.428 0 0 0 1.918.731 2.604 2.428 0 0 0 1.989-.727l9.604-9.111a2.616 2.44 0 0 0-.032-3.457 2.614 2.437 0 0 0-3.706.03l-5.179 4.912V12.343A2.616 2.44 0 0 0 24.02 9.9" style="fill:#000;stroke:none;stroke-width:2.6401"/></svg>