<?xml version="1.0" encoding="UTF-8" standalone="no"?>
<svg
   xmlns:dc="http://purl.org/dc/elements/1.1/"
   xmlns:cc="http://creativecommons.org/ns#"
   xmlns:rdf="http://www.w3.org/1999/02/22-rdf-syntax-ns#"
   xmlns:svg="http://www.w3.org/2000/svg"
   xmlns="http://www.w3.org/2000/svg"
   xmlns:xlink="http://www.w3.org/1999/xlink"
   version="1.0"
   id="svg10643"
   height="32"
   width="32">
  <defs
     id="defs10645">
    <linearGradient
       id="linearGradient10711">
      <stop
         id="stop10713"
         offset="0"
         style="stop-color:#ffffff;stop-opacity:1;" />
      <stop
         id="stop10715"
         offset="1"
         style="stop-color:#ffffff;stop-opacity:0;" />
    </linearGradient>
    <linearGradient
       id="linearGradient3349-4">
      <stop
         style="stop-color:#ff0000;stop-opacity:1;"
         offset="0"
         id="stop3351-8" />
      <stop
         style="stop-color:#000e00;stop-opacity:1"
         offset="1"
         id="stop3353-7" />
    </linearGradient>
    <linearGradient
       id="linearGradient4150-7">
      <stop
         id="stop4152-2"
         offset="0"
         style="stop-color:#ffbfbf;stop-opacity:1;" />
      <stop
         id="stop4154-7"
         offset="1"
         style="stop-color:#ffbfbf;stop-opacity:0;" />
    </linearGradient>
    <linearGradient
       y2="27.332016"
       x2="76.867836"
       y1="27.316193"
       x1="112.91203"
       gradientTransform="matrix(-0.18338451,-0.18292317,-0.19637967,0.1971317,39.995411,21.455871)"
       gradientUnits="userSpaceOnUse"
       id="linearGradient3718"
       xlink:href="#linearGradient4150-7" />
    <linearGradient
       y2="46.141598"
       x2="-26.434509"
       y1="46.015327"
       x1="-3.5798087"
       gradientTransform="matrix(0.56637043,0.5649456,-0.56457759,0.5667396,49.919077,-4.5063603)"
       gradientUnits="userSpaceOnUse"
       id="linearGradient3721"
       xlink:href="#linearGradient3349-4" />
    <linearGradient
       xlink:href="#f"
       id="E"
       gradientUnits="userSpaceOnUse"
       gradientTransform="matrix(1.03294,0,0,1.03294,-59.414,-1122.2035)"
       x1="73.009003"
       y1="1086.4139"
       x2="73.009003"
       y2="1055.434" />
    <linearGradient
       id="f">
      <stop
         id="stop4324"
         stop-color="#fff"
         offset="0" />
      <stop
         id="stop4326"
         stop-color="#939393"
         offset="1" />
    </linearGradient>
    <linearGradient
       xlink:href="#linearGradient10711"
       id="F"
       gradientUnits="userSpaceOnUse"
       gradientTransform="matrix(1.03294,0,0,1.03294,-59.414,-1090.2035)"
       x1="73.009003"
       y1="1086.4139"
       x2="73.009003"
       y2="1070.924" />
  </defs>
  <metadata
     id="metadata10648">
    <rdf:RDF>
      <cc:Work
         rdf:about="">
        <dc:format>image/svg+xml</dc:format>
        <dc:type
           rdf:resource="http://purl.org/dc/dcmitype/StillImage" />
        <dc:title />
      </cc:Work>
    </rdf:RDF>
  </metadata>
  <g
     id="layer1">
    <g
       transform="translate(-2.5001168e-4,-2.5001814e-4)"
       id="g58086"
       style="enable-background:new">
      <g
         id="g4276">
        <rect
           ry="3.878"
           y="-32.0005"
           height="32"
           width="32"
           transform="scale(1,-1)"
           id="rect4364"
           x="0"
           style="fill:url(#E);enable-background:new" />
        <rect
           ry="3.878"
           height="32"
           width="32"
           y="0.00050003629"
           id="rect4366"
           x="0"
           style="fill:url(#F);enable-background:new" />
        <rect
           ry="3.7550001"
           y="0.51050001"
           x="0.51099992"
           height="30.979"
           width="30.979"
           id="rect4426"
           style="fill:none;stroke:#939393;stroke-width:1.02100003;stroke-linecap:round;stroke-linejoin:round;enable-background:new" />
      </g>
    </g>
    <g
       id="g57410">
      <g
         id="g3710"
         transform="matrix(0.2944658,0,0,10,12.067221,-99)">
        <g
           id="g3707" />
      </g>
      <path
         style="fill:url(#linearGradient3721);fill-opacity:1;fill-rule:evenodd;stroke:none"
         d="m 27.787883,2.4344907 c -3.857495,0.1545304 -13.692276,2.430521 -25.25,19.6562503 -0.422669,0.820653 0.40625,1.3125 0.40625,1.3125 l 2.78125,2.8125 2.9375,2.9375 c 0,0 0.493726,0.800544 1.3125,0.375 21.072575,-14.254426 19.693327,-25.8614103 19.5,-27.0000003 l -0.03125,-0.03125 c -0.201198,-0.034241 -0.766059,-0.098161 -1.65625,-0.0625 z m -10.6875,9.3125003 c 0.672803,-0.06855 1.403146,0.09712 2,0.5625 1.156629,0.901855 1.437333,2.512975 0.65625,3.65625 l -0.0625,0.09375 c -0.859618,1.139976 -2.525042,1.337017 -3.71875,0.40625 -1.193708,-0.930767 -1.453368,-2.610024 -0.59375,-3.75 0.429809,-0.569988 1.045947,-0.900199 1.71875,-0.96875 z"
         id="path3391-2" />
      <path
         style="fill:url(#linearGradient3718);fill-opacity:1;fill-rule:evenodd;stroke:none"
         d="M 29.251169,2.5485446 C 28.040914,2.2781319 16.166773,0.5829413 2.550199,21.940739 2.156088,22.778122 3.05409,23.338274 3.05409,23.338274 L 5.864725,26.041908 29.251171,2.5485482 z"
         id="path3385-6" />
      <path
         style="fill:none;stroke:#333333;stroke-width:0.75464219;stroke-linecap:butt;stroke-linejoin:miter;stroke-miterlimit:4;stroke-opacity:1;stroke-dasharray:none"
         d="M 29.411683,2.4686489 C 28.338629,2.2860313 16.722764,0.8596632 2.497872,22.06056 c -0.42267,0.820654 0.401869,1.304334 0.401869,1.304334 l 2.78645,2.821104 2.937893,2.916584 c 0,0 0.48596,0.823556 1.304734,0.398011 C 31.001393,15.246168 29.629746,3.6319087 29.436419,2.4933192 l -0.02474,-0.024675 z"
         id="path3386-1" />
      <path
         style="fill:none;stroke:#333333;stroke-width:21.98171425;stroke-linecap:round;stroke-linejoin:round;stroke-miterlimit:4;stroke-opacity:1;stroke-dasharray:none"
         id="path3520-0-6"
         d="m 47.19728,291.61138 a 96,96 0 1 1 -0.639174,-4.1874"
         transform="matrix(0.02023403,0.02018313,-0.01898319,0.01905589,24.278441,9.5632467)" />
    </g>
  </g>
</svg>
