<?xml version="1.0" encoding="UTF-8" standalone="no"?>
<!-- Created with Inkscape (http://www.inkscape.org/) -->
<svg id="svg1877" xmlns:rdf="http://www.w3.org/1999/02/22-rdf-syntax-ns#" xmlns="http://www.w3.org/2000/svg" viewBox="0 0 32 32" version="1.0" xmlns:cc="http://creativecommons.org/ns#" xmlns:xlink="http://www.w3.org/1999/xlink" xmlns:dc="http://purl.org/dc/elements/1.1/">
 <defs id="defs1879">
  <linearGradient id="linearGradient5477">
   <stop id="stop5479" stop-color="#000" offset="0"/>
   <stop id="stop5481" stop-color="#FFF" offset="1"/>
  </linearGradient>
  <linearGradient id="linearGradient3837">
   <stop id="stop3839" stop-color="#000" offset="0"/>
   <stop id="stop3849" stop-color="#000" stop-opacity="0.59927797" offset="0.25"/>
   <stop id="stop3847" stop-color="#000" stop-opacity="0.27797833" offset="0.5"/>
   <stop id="stop3841" stop-color="#000" stop-opacity="0" offset="1"/>
  </linearGradient>
  <linearGradient id="linearGradient3804">
   <stop id="stop3806" stop-color="#FFF" offset="0"/>
   <stop id="stop3808" stop-color="#FFF" stop-opacity="0" offset="1"/>
  </linearGradient>
  <linearGradient id="linearGradient3548" y2="126.06" xlink:href="#linearGradient5477" gradientUnits="userSpaceOnUse" x2="108.06" y1="85.125" x1="74.062"/>
  <linearGradient id="linearGradient3550" y2="138.88" xlink:href="#linearGradient5477" gradientUnits="userSpaceOnUse" x2="45.312" gradientTransform="translate(0,-1)" y1="79.125" x1="39.812"/>
  <linearGradient id="linearGradient3552" y2="125.12" xlink:href="#linearGradient5477" gradientUnits="userSpaceOnUse" x2="44.062" gradientTransform="translate(0,-2)" y1="99.375" x1="34.562"/>
  <linearGradient id="linearGradient3554" y2="128.31" xlink:href="#linearGradient5477" gradientUnits="userSpaceOnUse" x2="36.312" gradientTransform="translate(0,0.7)" y1="61.875" x1="82.312"/>
  <linearGradient id="linearGradient3556" y2="133.31" xlink:href="#linearGradient5477" gradientUnits="userSpaceOnUse" x2="72.327" gradientTransform="translate(0,-3.3)" y1="61.875" x1="82.312"/>
  <linearGradient id="linearGradient3558" y2="133.31" xlink:href="#linearGradient5477" gradientUnits="userSpaceOnUse" x2="72.327" gradientTransform="translate(0,1.7)" y1="61.875" x1="82.312"/>
  <linearGradient id="linearGradient3614" y2="104.96" gradientUnits="userSpaceOnUse" x2="28.947" gradientTransform="matrix(0.25497052,0,0,0.25511901,40.181886,95.297896)" y1="125.9" x1="28.947">
   <stop id="stop2977" stop-color="#000" offset="0"/>
   <stop id="stop2979" stop-color="#000" stop-opacity="0" offset="1"/>
  </linearGradient>
  <linearGradient id="linearGradient3617" y2="49.39" gradientUnits="userSpaceOnUse" x2="113.22" gradientTransform="matrix(0.25476415,-0.02957268,-0.02955553,-0.25491259,39.921774,129.44854)" y1="68.39" x1="52.985">
   <stop id="stop2915" stop-color="#a4c0e4" offset="0"/>
   <stop id="stop2917" stop-color="#a4c0e4" stop-opacity="0" offset="1"/>
  </linearGradient>
  <linearGradient id="linearGradient3622" y2="36.866" xlink:href="#linearGradient3804" gradientUnits="userSpaceOnUse" x2="58.885" gradientTransform="matrix(0.71653429,-0.14115097,-0.14106881,-0.71695146,45.475008,133.55806)" y1="44.649" x1="4.9107"/>
  <linearGradient id="linearGradient3625" y2="86.634" gradientUnits="userSpaceOnUse" x2="70.711" gradientTransform="matrix(0.25497052,0,0,0.25511901,40.181886,95.297896)" y1="120.29" x1="68.236">
   <stop id="stop2089" stop-color="#4686d8" offset="0"/>
   <stop id="stop2091" stop-color="#4686d8" stop-opacity="0" offset="1"/>
  </linearGradient>
  <radialGradient id="radialGradient3631" gradientUnits="userSpaceOnUse" cy="75.225" cx="-36.858" gradientTransform="matrix(0.24142995,0.00448245,0.36520728,-27.541999,31.491388,2171.078)" r="0.97227">
   <stop id="stop3855" stop-color="#000" offset="0"/>
   <stop id="stop3857" stop-color="#000" stop-opacity="0" offset="1"/>
  </radialGradient>
  <linearGradient id="linearGradient3638" y2="214.47" gradientUnits="userSpaceOnUse" x2="59.409" gradientTransform="matrix(0.24588469,-0.0285416,-0.02852519,-0.24602782,41.495622,128.96991)" y1="-60.187" x1="92.146">
   <stop id="stop4094" stop-color="#80B3FF" offset="0.15"/>
   <stop id="stop4096" stop-color="#69A1F0" offset="0.316"/>
   <stop id="stop4098" stop-color="#4888DA" offset="0.6029"/>
   <stop id="stop4100" stop-color="#3378CC" offset="0.8412"/>
   <stop id="stop4102" stop-color="#2C72C7" offset="1"/>
  </linearGradient>
  <linearGradient id="linearGradient3641" y2="16.438" xlink:href="#linearGradient3837" gradientUnits="userSpaceOnUse" x2="14.044" gradientTransform="matrix(0.68039029,-0.1340306,-0.13395259,-0.68078652,45.771951,138.31644)" y1="54.213" x1="20.607"/>
  <linearGradient id="linearGradient3644" y2="35.764" xlink:href="#linearGradient3804" gradientUnits="userSpaceOnUse" x2="14.312" gradientTransform="matrix(0.68039029,-0.1340306,-0.13395259,-0.68078652,45.771951,138.31644)" y1="35.764" x1="6.2812"/>
  <linearGradient id="linearGradient3647" y2="54.984" xlink:href="#linearGradient3804" gradientUnits="userSpaceOnUse" x2="16.25" gradientTransform="matrix(0.68039029,-0.1340306,-0.13395259,-0.68078652,45.771951,138.31644)" y1="55.63" x1="5.324"/>
  <linearGradient id="linearGradient3650" y2="55.438" xlink:href="#linearGradient3804" gradientUnits="userSpaceOnUse" x2="16.753" gradientTransform="matrix(0.68039029,-0.1340306,-0.13395259,-0.68078652,45.771951,138.31644)" y1="48.891" x1="15.688"/>
  <linearGradient id="linearGradient3653" y2="54.984" xlink:href="#linearGradient3804" gradientUnits="userSpaceOnUse" x2="16.25" gradientTransform="matrix(0.68039029,-0.1340306,-0.13395259,-0.68078652,45.771951,138.31644)" y1="48.891" x1="15.688"/>
  <linearGradient id="linearGradient3656" y2="56.033" gradientUnits="userSpaceOnUse" x2="14.702" gradientTransform="matrix(0.68039029,-0.1340306,-0.13395259,-0.68078652,45.771951,138.31644)" y1="58.94" x1="15.214">
   <stop id="stop3758" stop-color="#000" offset="0"/>
   <stop id="stop3760" stop-color="#000" stop-opacity="0" offset="1"/>
  </linearGradient>
  <linearGradient id="linearGradient3667" y2="36.866" xlink:href="#linearGradient3804" gradientUnits="userSpaceOnUse" x2="58.885" gradientTransform="matrix(0.71653429,-0.14115097,-0.14106881,-0.71695146,45.070109,131.26783)" y1="44.649" x1="4.9107"/>
  <linearGradient id="linearGradient3670" y2="36.866" xlink:href="#linearGradient3804" gradientUnits="userSpaceOnUse" x2="58.885" gradientTransform="matrix(0.71653429,-0.14115097,-0.14106881,-0.71695146,45.070109,131.29336)" y1="44.649" x1="4.9107"/>
  <linearGradient id="linearGradient3674" y2="42.763" gradientUnits="userSpaceOnUse" x2="33.05" gradientTransform="matrix(0.71653429,-0.14115097,-0.14106881,-0.71695146,45.475008,133.55806)" y1="40" x1="32.439">
   <stop id="stop3697" stop-color="#626262" offset="0"/>
   <stop id="stop3699" stop-color="#efefef" offset="1"/>
  </linearGradient>
  <linearGradient id="linearGradient3677" y2="38.016" gradientUnits="userSpaceOnUse" x2="18.827" gradientTransform="matrix(0.68039029,-0.1340306,-0.13395259,-0.68078652,45.771951,138.31644)" y1="41.237" x1="4.5182">
   <stop id="stop3816" stop-color="#FFF" stop-opacity="0" offset="0"/>
   <stop id="stop3824" stop-color="#FFF" stop-opacity="0" offset="0.18532"/>
   <stop id="stop3822" stop-color="#FFF" stop-opacity="0.33574006" offset="0.28107"/>
   <stop id="stop3829" stop-color="#FFF" stop-opacity="0.1696751" offset="0.45127"/>
   <stop id="stop3831" stop-color="#FFF" stop-opacity="0" offset="0.4794"/>
   <stop id="stop3833" stop-color="#FFF" stop-opacity="0.3068592" offset="0.6561"/>
   <stop id="stop3818" stop-color="#FFF" stop-opacity="0" offset="1"/>
  </linearGradient>
  <linearGradient id="linearGradient3681" y2="39.759" xlink:href="#linearGradient3837" gradientUnits="userSpaceOnUse" x2="38.914" gradientTransform="matrix(0.71653429,-0.14115097,-0.14106881,-0.71695146,45.475008,133.55806)" y1="42.161" x1="36.992"/>
  <linearGradient id="E" y2="1055.4" gradientUnits="userSpaceOnUse" y1="1086.4" gradientTransform="matrix(1.03294,0,0,1.03294,-59.414,-1122.2035)" x2="73.009" x1="73.009">
   <stop id="stop4324" stop-color="#fff" offset="0"/>
   <stop id="stop4326" stop-color="#939393" offset="1"/>
  </linearGradient>
  <linearGradient id="F" y2="1070.9" xlink:href="#linearGradient3804" gradientUnits="userSpaceOnUse" y1="1086.4" gradientTransform="matrix(1.03294,0,0,1.03294,-59.414,-1090.2035)" x2="73.009" x1="73.009"/>
 </defs>
 <metadata id="metadata1882">
  <rdf:RDF>
   <cc:Work rdf:about="">
    <dc:format>image/svg+xml</dc:format>
    <dc:type rdf:resource="http://purl.org/dc/dcmitype/StillImage"/>
    <dc:title/>
   </cc:Work>
  </rdf:RDF>
 </metadata>
 <g id="layer1" transform="translate(0,-96)">
  <g id="g47103" style="enable-background:new;" transform="translate(-2.5001168e-4,95.99975)">
   <g id="g4276">
    <rect id="rect4364" ry="3.878" style="enable-background:new;" transform="scale(1,-1)" height="32" width="32" y="-32" x="0" fill="url(#E)"/>
    <rect id="rect4366" style="enable-background:new;" ry="3.878" height="32" width="32" y="0.00050004" x="0" fill="url(#F)"/>
    <rect id="rect4426" stroke-linejoin="round" style="enable-background:new;" ry="3.755" height="30.979" width="30.979" stroke="#939393" stroke-linecap="round" y="0.5105" x="0.511" stroke-width="1.021" fill="none"/>
   </g>
  </g>
  <g id="g3685" transform="matrix(0.96342833,0,0,0.96342833,-38.363274,4.5779014)">
   <path id="path2792" d="m49.738,123.86-0.10399-26.831,17.282,0.09897c0.51227-0.002,0.9145,0.42011,0.91649,0.93268l-0.69534,25.856c0.0019,0.51257-0.39705,0.91495-0.90932,0.91693l-16.49-0.97415z" fill-rule="nonzero" fill="#2560a8"/>
   <path id="path3740" d="m66.649,97.706c1.2417,1.3492,1.1205,1.4106,1.0728,2.2213l-2.077,0.31042,1.0042-2.5318z" fill-rule="evenodd" fill="url(#linearGradient3681)"/>
   <path id="rect2790" d="m50.045,125.98-1.7212,0.0192-0.29436-0.0721-0.24411,0.0781-1.9073,0.0213c-0.36515,0.001-0.66348-0.29495-0.66489-0.66031l-0.42321-2.1508-0.03602-25.126c0.04235-0.62767,0.43213-1.1598,0.9673-1.1236l3.9258,0.0629,0.52326,2.1624c0.24728,0.09412,0.42225,0.33344,0.42334,0.6148l0.08898,25.513c0.0015,0.36536-0.27238,0.65945-0.63753,0.66087z" fill-rule="nonzero" fill="#000"/>
   <path id="path3812" d="m50.161,125.83-1.7212,0.008-0.30152-0.0732-0.24677,0.0928-1.8955,0.0198c-0.36515,0.001-0.68084-0.29581-0.68225-0.66117l-0.42279-2.1487-0.0924-24.424c0.04817,0.37566,0.83188,1.2311,1.284,1.2498l4.3561,0.02585c-0.521,8.438-0.316,17.118-0.278,25.908z" fill-rule="nonzero" fill="url(#linearGradient3677)"/>
   <path id="path2797" d="M66.98,99.252,66.681,97.707,45.899,97.55c-0.82777-0.05591-0.67324,1.6364,0.26249,1.6278l20.818,0.07474z" fill-rule="evenodd" fill="url(#linearGradient3674)"/>
   <path id="path3724" d="m49.649,97.051,17.252,0.07202c0.48862-0.0019,0.87837,0.3868,0.91491,0.86706-0.1219-0.36768-0.46298-0.6446-0.87083-0.64301l-17.294-0.07831-0.0022-0.21776z" fill-opacity="0.47560975" fill-rule="nonzero" fill="#000"/>
   <path id="path3726" opacity="0.49180328" d="m49.662,97.095,17.264,0.11085c0.48862-0.0019,0.87837,0.38679,0.91492,0.86706-0.1219-0.36768-0.46298-0.6446-0.87082-0.64301l-17.244-0.06553-0.0646-0.26936z" fill-rule="nonzero" fill="url(#linearGradient3670)"/>
   <path id="path3728" opacity="0.34426228" d="m49.661,97.097,17.265,0.08402c0.48862-0.0019,0.87837,0.38679,0.91492,0.86706-0.1219-0.36768-0.49053-0.78463-0.89838-0.78304l-17.244-0.0064-0.03767-0.16161z" fill-rule="nonzero" fill="url(#linearGradient3667)"/>
   <g id="g5505" opacity="0.397541" stroke-linejoin="miter" transform="matrix(0.25476415,-0.02957268,-0.02955553,-0.25491259,40.939128,129.41459)" stroke-linecap="butt" stroke-dasharray="none" stroke-miterlimit="4" stroke-width="0.1" fill="none">
    <path id="path5475" d="m30.625,118.75c2,0,83.492-10.162,83.492-10.162" stroke="url(#linearGradient3548)"/>
    <path id="path5485" d="m31.067,117.62c2,0,83.183-10.117,83.183-10.117" stroke="url(#linearGradient3550)"/>
    <path id="path5489" d="m31.465,116.79c2,0,82.785-10.294,82.785-10.294" stroke="url(#linearGradient3552)"/>
    <path id="path5493" d="m31.332,119.82c2,0,82.697-10.117,82.697-10.117" stroke="url(#linearGradient3554)"/>
    <path id="path5497" d="m31.907,115.82c2,0,82.122-10.117,82.122-10.117" stroke="url(#linearGradient3556)"/>
    <path id="path5501" d="m32.039,120.91c2,0,81.99-10.206,81.99-10.206" stroke="url(#linearGradient3558)"/>
   </g>
   <path id="path3732" opacity="0.68999999" d="m49.649,97.051,17.252,0.07202c0.48862-0.0019,0.87837,0.3868,0.91491,0.86706-0.13486-0.52222-0.49843-0.76562-0.90627-0.76403l-17.245-0.0752-0.01596-0.09985z" fill-rule="nonzero" fill-opacity="0.47560975" fill="#000"/>
   <path id="path3754" d="M66.98,99.252,66.681,97.707,45.899,97.55c-0.82777-0.05591-0.67324,1.6364,0.26249,1.6278l20.818,0.07474z" fill-rule="evenodd" fill="url(#linearGradient3656)"/>
   <path id="path3781" opacity="0.42213117" d="m45.219,98.802c0.04272,0.18088,0.41846,0.54617,0.53375,0.57993,1.4266-0.0085,2.8532-0.01693,4.2798-0.0254,0.004,0.09498,0.0079,0.18996,0.01189,0.28494-1.4492,0.0056-2.8985,0.01113-4.3477,0.0167-0.17064,0.01377-0.42357-0.58914-0.47767-0.85617z" fill-rule="evenodd" fill="url(#linearGradient3653)"/>
   <path id="path3791" opacity="0.42213117" d="m45.219,98.802c0.04272,0.18088,0.54158,0.57661,0.65687,0.61037,1.4266-0.0085,2.6518-0.0085,4.0784-0.01699,0.004,0.09498-0.01572,0.13267-0.01177,0.22766-1.4492,0.0056-2.4374-0.02843-4.0044-0.01375-0.43302,0.0041-0.66494-0.54025-0.71904-0.80728z" fill-rule="evenodd" fill="url(#linearGradient3650)"/>
   <path id="path3793" opacity="0.42213117" d="m45.219,98.802c0.03345-0.0077,0.06795,0.0973,0.11485,0.16626,0.13558,0.19939,0.37093,0.45328,0.60968,0.43079,1.4266-0.0085,2.5841,0.0048,4.0107-0.0037,0.004,0.09498-0.03682,0.08159-0.03286,0.17656-1.4492,0.0056-2.5437-0.05095-3.9929-0.04538-0.29985-0.01081-0.5434-0.285-0.65632-0.52973-0.03279-0.07107-0.07426-0.19172-0.05314-0.19484z" fill-rule="evenodd" fill="url(#linearGradient3647)"/>
   <path id="path3799" opacity="0.36885244" d="m47.795,125.87,0.19379-26.642,0.31023,0.0052-0.25942,26.561-0.2446,0.0758z" fill-rule="nonzero" fill="url(#linearGradient3644)"/>
   <path id="path3835" d="m50.147,124.81-1.7212,0.008-0.30152-0.0732-0.24678,0.0928-1.8955,0.0198c-0.36515,0.001-0.68083-0.29582-0.68225-0.66118l-0.42279-2.1487-0.07756-23.41c0.04817,0.37566,0.64098,1.2531,1.284,1.2498l4.3561,0.02585c-0.52114,8.4391-0.33086,16.107-0.2924,24.898z" fill-rule="nonzero" fill="url(#linearGradient3641)"/>
   <path id="rect1887" d="m49.985,125.99,0.07149-26.804,17.244,0.07352c0.51226-0.002,0.9145,0.42012,0.91649,0.93267l-0.60583,24.836c0.0019,0.51256-0.39704,0.91494-0.90931,0.91692l-16.717,0.0453z" fill-rule="nonzero" fill="url(#linearGradient3638)"/>
   <path id="path3703" d="m50.054,99.188,17.252,0.07203c0.48862-0.0019,0.87836,0.38679,0.91491,0.86706-0.12189-0.36768-0.46298-0.64459-0.87083-0.64301l-17.294-0.07831-0.0022-0.21776z" fill-opacity="0.47560975" fill-rule="nonzero" fill="#000"/>
   <path id="path3718" opacity="0.49180328" d="m50.067,99.36,17.264,0.11085c0.48862-0.0019,0.87837,0.3868,0.91491,0.86706-0.12189-0.36768-0.46298-0.6446-0.87083-0.64302l-17.318,0.01266,0.0093-0.34756z" fill-rule="nonzero" fill="url(#linearGradient3622)"/>
   <path id="path3851" fill-rule="nonzero" fill="url(#radialGradient3631)" d="m50.035,125.83c-0.27102-0.004-0.48838-11.9-0.46947-26.592l0.99867,0.01339c-0.02286,14.692-0.25818,26.582-0.5292,26.579z"/>
   <path id="path3708" opacity="0.34426228" d="m50.006,99.423,17.326,0.048c0.48862-0.0019,0.87837,0.3868,0.91491,0.86707-0.12189-0.36769-0.49054-0.78463-0.89838-0.78305l-17.349,0.01764,0.0071-0.14966z" fill-rule="nonzero" fill="url(#linearGradient3622)"/>
   <path id="path2084" d="m49.985,125.99,0.07149-26.804,17.244,0.07352c0.51226-0.002,0.9145,0.42012,0.91649,0.93267l-0.60583,24.836c0.0019,0.51256-0.39704,0.91494-0.90931,0.91692l-16.717,0.0453z" fill-rule="nonzero" fill="url(#linearGradient3625)"/>
   <path id="path3720" opacity="0.34426228" d="m50.101,99.39,17.23,0.08109c0.48862-0.0019,0.87837,0.3868,0.91491,0.86707-0.12189-0.36769-0.4673-0.69612-0.87515-0.69453l-17.27-0.0232-0.000484-0.23043z" fill-rule="nonzero" fill="url(#linearGradient3622)"/>
   <path id="path3722" d="m50.054,99.188,17.252,0.07203c0.48862-0.0019,0.87836,0.38679,0.91491,0.86706-0.13486-0.52222-0.49842-0.76562-0.90626-0.76403l-17.245-0.07521-0.01594-0.09985z" fill-opacity="0.47560975" fill-rule="nonzero" fill="#000"/>
   <path id="path3769" opacity="0.34836067" d="m66.877,125.94c-0.05993,0.0122-0.13151,0.0162-0.19555,0.0164l-16.699,0.0376-0.01126-0.14143,16.685-0.0239c0.51226-0.002,0.92278-0.42019,0.92079-0.93276l0.0293,0.14893c0.0017,0.44849-0.30989,0.8097-0.72942,0.89506z" fill-rule="nonzero" fill="#000"/>
   <path id="path2012" fill-rule="nonzero" fill="url(#linearGradient3617)" d="m65.823,119.75c-0.8345-0.78177-1.6652-1.5678-2.4578-2.3925-2.1604-2.3504-4.1459-4.8512-5.7973-7.5917-0.8989-1.4928-1.7341-3.0198-2.5668-4.5478-1.4277-1.6729-2.8689-3.334-4.3261-4.9818-0.17814-0.20442-0.35429-0.41205-0.53158-0.61889l0.53755,0.0033c0.22094,0.27428,0.44228,0.54792,0.66412,0.82082,1.0154,1.2272,2.0351,2.4512,3.0547,3.6749-0.59413-1.0866-1.1948-2.1704-1.8228-3.2391-0.17808-0.27517-0.69041-0.85986-0.9484-1.2532l0.77697,0.0031c0.35954,0.37126,0.5533,0.86901,0.9056,1.4872,0.743,1.469,1.4817,2.9377,2.2468,4.392,1.0333,1.2392,2.0664,2.478,3.0979,3.7186,2.2565,2.7476,4.5801,5.4443,7.3249,7.6995l-0.01511,0.26254c-2.9017-2.3458-5.3071-5.2037-7.6811-8.0759-0.73258-0.87799-1.4675-1.7538-2.2063-2.6263,0.62242,1.1566,1.2659,2.3024,1.9476,3.4292,1.6914,2.7649,3.7311,5.2773,5.9519,7.6278,0.59906,0.62243,1.2272,1.2146,1.8681,1.7931l-0.02286,0.41504zm0.3511-6.3018c-0.48101-1.3234-1.0222-2.6242-1.6536-3.8905-1.4165-2.9804-2.8454-5.9648-4.5488-8.7946-0.22077-0.34851-0.7207-0.86558-0.84669-1.1071l0.41028,0.0022c0.11623,0.05581,0.25764,0.12957,0.43088,0.22561l-0.4002-0.226,0.20351,0.000751c0.47896,0.27627,0.59543,0.64855,0.98506,1.3592,1.4944,2.8284,2.813,5.7458,4.1265,8.6613,0.50848,1.0516,0.94054,2.1314,1.3227,3.2293l-0.02958,0.53985z"/>
   <path id="path2973" fill-rule="evenodd" fill="url(#linearGradient3614)" d="m44.836,119.87,0.02252,3.3712,0.46199,2.2775,0.22536,0.30442,0.54088,0.11274,1.8029-0.0113,0.13522-0.0564,1.9043,0.0564,0.0338-5.9982-5.127-0.0564z"/>
   <path id="path2983" opacity="0.34836067" d="m66.877,125.94c-0.05993,0.0122-0.13151,0.0162-0.19555,0.0164l-16.699,0.0376-0.01126-0.26899,16.685-0.0239c0.51226-0.002,0.92278-0.29263,0.92079-0.8052l0.0293,0.14893c0.0017,0.44849-0.30989,0.8097-0.72942,0.89506z" fill-rule="nonzero" fill="#000"/>
   <path id="path4088" opacity="0.86000001" fill="#FFF" d="m64.184,107.24c-0.00001,1.2926-0.90941,2.6571-2.7282,4.0933-1.6465,1.2448-2.5128,3.0592-2.599,5.4434h-0.70359c-0.13402-2.5182,0.57435-4.6008,2.1251-6.2477,1.1774-1.3022,1.7566-2.3985,1.7374-3.289-0.000009-1.149-0.44514-2.049-1.3354-2.7001-0.62223-0.45001-1.3354-0.67502-2.1395-0.67504-1.0817,0.11492-1.8667,0.44525-2.3549,0.99101-0.57436,0.60324-0.71317,1.0964-0.41641,1.4793,0.33504,0.32556,0.50256,0.66547,0.50256,1.0197-0.01916,0.47877-0.18667,0.86177-0.50256,1.149-0.38291,0.27769-0.75146,0.41653-1.1056,0.41651-0.69881,0.00002-1.1918-0.40692-1.479-1.2208-0.09573-0.27766-0.14359-0.51703-0.14359-0.71812,0-1.0724,0.50735-1.9868,1.5221-2.7432,1.0626-0.78513,2.3884-1.1777,3.9774-1.1777,1.7805,0.00002,3.2164,0.47398,4.3077,1.4219,0.89025,0.78516,1.3354,1.7044,1.3354,2.7576m-3.9344,13.113c-0.0383,0.82345-0.37813,1.3644-1.0195,1.623-0.22975,0.0957-0.47864,0.14363-0.74667,0.14363-0.82326,0-1.3689-0.35906-1.6369-1.0772-0.08616-0.22022-0.12923-0.45002-0.12923-0.6894-0.000005-0.73727,0.27282-1.2447,0.81846-1.5224,0.26803-0.13405,0.58393-0.20107,0.9477-0.20107,1.0147,0,1.5938,0.47396,1.7374,1.4219,0.0096,0.0957,0.01913,0.19629,0.02872,0.30161"/>
  </g>
 </g>
</svg>
