<?xml version="1.0" encoding="UTF-8" standalone="no"?>
<svg
   xmlns:dc="http://purl.org/dc/elements/1.1/"
   xmlns:cc="http://creativecommons.org/ns#"
   xmlns:rdf="http://www.w3.org/1999/02/22-rdf-syntax-ns#"
   xmlns:svg="http://www.w3.org/2000/svg"
   xmlns="http://www.w3.org/2000/svg"
   xmlns:xlink="http://www.w3.org/1999/xlink"
   version="1.0"
   id="svg2606"
   height="32"
   width="32">
  <defs
     id="defs2608">
    <linearGradient
       id="linearGradient3800">
      <stop
         id="stop3802"
         offset="0"
         style="stop-color:#64d7eb;stop-opacity:1;" />
      <stop
         id="stop3804"
         offset="1"
         style="stop-color:#64d7eb;stop-opacity:0;" />
    </linearGradient>
    <linearGradient
       id="linearGradient3021">
      <stop
         id="stop3023"
         offset="0"
         style="stop-color:#2e6ac4;stop-opacity:1;" />
      <stop
         id="stop3025"
         offset="1"
         style="stop-color:#2e6ac4;stop-opacity:0;" />
    </linearGradient>
    <linearGradient
       id="linearGradient3449">
      <stop
         id="stop3451"
         offset="0"
         style="stop-color:#000000;stop-opacity:1;" />
      <stop
         id="stop3453"
         offset="1"
         style="stop-color:#000000;stop-opacity:0;" />
    </linearGradient>
    <linearGradient
       id="linearGradient3295">
      <stop
         id="stop3297"
         offset="0"
         style="stop-color:#63e9ff;stop-opacity:1;" />
      <stop
         id="stop3299"
         offset="1"
         style="stop-color:#ffffff;stop-opacity:0;" />
    </linearGradient>
    <linearGradient
       id="linearGradient3260">
      <stop
         id="stop3262"
         offset="0"
         style="stop-color:#ffffff;stop-opacity:1;" />
      <stop
         id="stop3264"
         offset="1"
         style="stop-color:#ffffff;stop-opacity:0;" />
    </linearGradient>
    <linearGradient
       id="linearGradient3202">
      <stop
         id="stop3204"
         offset="0"
         style="stop-color:#cdeeff;stop-opacity:1;" />
      <stop
         id="stop3206"
         offset="1"
         style="stop-color:#d2e8ed;stop-opacity:0;" />
    </linearGradient>
    <filter
       color-interpolation-filters="sRGB"
       id="filter3387"
       height="1.249912"
       y="-0.12495601"
       width="1.2041403"
       x="-0.10207015">
      <feGaussianBlur
         id="feGaussianBlur3389"
         stdDeviation="0.44655691" />
    </filter>
    <filter
       color-interpolation-filters="sRGB"
       id="filter3443"
       height="1.2550792"
       y="-0.12753956"
       width="1.2314607"
       x="-0.11573034">
      <feGaussianBlur
         id="feGaussianBlur3445"
         stdDeviation="0.32549158" />
    </filter>
    <linearGradient
       id="linearGradient6404">
      <stop
         style="stop-color:#081e3e;stop-opacity:1;"
         offset="0"
         id="stop6406" />
      <stop
         style="stop-color:#387de4;stop-opacity:1;"
         offset="1"
         id="stop6408" />
    </linearGradient>
    <linearGradient
       id="linearGradient6446">
      <stop
         style="stop-color:#ffffff;stop-opacity:1;"
         offset="0"
         id="stop6448" />
      <stop
         style="stop-color:#ffffff;stop-opacity:0;"
         offset="1"
         id="stop6450" />
    </linearGradient>
    <linearGradient
       id="linearGradient6666">
      <stop
         id="stop6668"
         offset="0"
         style="stop-color:#9fc1f2;stop-opacity:1;" />
      <stop
         style="stop-color:#587eb5;stop-opacity:1;"
         offset="0.5"
         id="stop3183" />
      <stop
         id="stop6670"
         offset="1"
         style="stop-color:#0c2a58;stop-opacity:1;" />
    </linearGradient>
    <filter
       color-interpolation-filters="sRGB"
       height="1.1536309"
       y="-0.076815471"
       width="1.2011111"
       x="-0.10055555"
       id="filter3084">
      <feGaussianBlur
         id="feGaussianBlur3086"
         stdDeviation="0.1991477" />
    </filter>
    <filter
       color-interpolation-filters="sRGB"
       id="filter3488">
      <feGaussianBlur
         stdDeviation="0.27712813"
         id="feGaussianBlur3490" />
    </filter>
    <linearGradient
       id="linearGradient3260-778">
      <stop
         offset="0"
         id="stop2489"
         style="stop-color:#ffffff;stop-opacity:1;" />
      <stop
         offset="1"
         id="stop2491"
         style="stop-color:#ffffff;stop-opacity:0;" />
    </linearGradient>
    <linearGradient
       id="linearGradient3449-929">
      <stop
         offset="0"
         id="stop2429"
         style="stop-color:#000000;stop-opacity:1;" />
      <stop
         offset="1"
         id="stop2431"
         style="stop-color:#000000;stop-opacity:0;" />
    </linearGradient>
    <linearGradient
       id="linearGradient3459">
      <stop
         style="stop-color:#ffffff;stop-opacity:1;"
         offset="0"
         id="stop3461" />
      <stop
         style="stop-color:#ffffff;stop-opacity:0;"
         offset="1"
         id="stop3463" />
    </linearGradient>
    <filter
       color-interpolation-filters="sRGB"
       id="filter3790">
      <feGaussianBlur
         id="feGaussianBlur3792"
         stdDeviation="0.10782016" />
    </filter>
    <filter
       color-interpolation-filters="sRGB"
       id="filter3828">
      <feGaussianBlur
         id="feGaussianBlur3830"
         stdDeviation="0.16761782" />
    </filter>
    <linearGradient
       y2="91.35981"
       x2="242.85478"
       y1="89.889786"
       x1="186.92596"
       gradientTransform="matrix(0,-1,-0.8610463,0,129.39927,204.01574)"
       gradientUnits="userSpaceOnUse"
       id="linearGradient3403"
       xlink:href="#linearGradient6404" />
    <radialGradient
       r="60"
       fy="88.271393"
       fx="68.020187"
       cy="88.271393"
       cx="68.020187"
       gradientTransform="matrix(0.04808449,-0.579907,-1.1490691,-0.09527807,175.27772,88.77797)"
       gradientUnits="userSpaceOnUse"
       id="radialGradient3406"
       xlink:href="#linearGradient3449" />
    <linearGradient
       y2="16.750759"
       x2="78.939339"
       y1="15.336544"
       x1="73.742638"
       spreadMethod="reflect"
       gradientTransform="translate(4,0)"
       gradientUnits="userSpaceOnUse"
       id="linearGradient3408"
       xlink:href="#linearGradient3260" />
    <linearGradient
       y2="57.279232"
       x2="226.659"
       y1="53.784153"
       x1="223.32712"
       spreadMethod="reflect"
       gradientTransform="matrix(1,0,0,0.8610463,-108.16138,-1.4361867)"
       gradientUnits="userSpaceOnUse"
       id="linearGradient3410"
       xlink:href="#linearGradient6446" />
    <radialGradient
       r="60"
       fy="61.877266"
       fx="-23.234318"
       cy="61.877266"
       cx="-23.234318"
       gradientTransform="matrix(-0.01767767,-0.5816285,-0.8878982,0.02698625,122.02118,64.093894)"
       gradientUnits="userSpaceOnUse"
       id="radialGradient3412"
       xlink:href="#linearGradient3449" />
    <linearGradient
       y2="16.750759"
       x2="78.939339"
       y1="14.275884"
       x1="74.75"
       spreadMethod="reflect"
       gradientUnits="userSpaceOnUse"
       id="linearGradient3414"
       xlink:href="#linearGradient3260" />
    <linearGradient
       y2="57.279232"
       x2="226.659"
       y1="53.784153"
       x1="223.32712"
       spreadMethod="reflect"
       gradientTransform="matrix(1,0,0,0.8610463,-108.16138,-1.4361867)"
       gradientUnits="userSpaceOnUse"
       id="linearGradient3416"
       xlink:href="#linearGradient6446" />
    <linearGradient
       y2="7.5667677"
       x2="66.207115"
       y1="7.5667677"
       x1="63.933056"
       spreadMethod="reflect"
       gradientUnits="userSpaceOnUse"
       id="linearGradient3419"
       xlink:href="#linearGradient3295" />
    <radialGradient
       r="53.298492"
       fy="46.527523"
       fx="64"
       cy="46.527523"
       cx="64"
       gradientTransform="matrix(2.4136387,0.02463228,-0.00298504,0.2924948,-90.33399,-2.377065)"
       gradientUnits="userSpaceOnUse"
       id="radialGradient3421"
       xlink:href="#linearGradient3021" />
    <radialGradient
       r="56"
       fy="76.109528"
       fx="136.61409"
       cy="76.109528"
       cx="136.61409"
       gradientTransform="matrix(1,0,0,1.1383929,0,-10.517857)"
       gradientUnits="userSpaceOnUse"
       id="radialGradient3423"
       xlink:href="#linearGradient6666" />
    <radialGradient
       r="56"
       fy="95.705101"
       fx="180.33144"
       cy="95.705101"
       cx="180.33144"
       gradientTransform="matrix(1,0,0,1.1383929,0,-10.517857)"
       gradientUnits="userSpaceOnUse"
       id="radialGradient3425"
       xlink:href="#linearGradient6666" />
    <linearGradient
       y2="75.104279"
       x2="112"
       y1="2.803019"
       x1="111.812"
       gradientTransform="translate(0,-32)"
       gradientUnits="userSpaceOnUse"
       id="linearGradient3427"
       xlink:href="#linearGradient3202" />
    <linearGradient
       y2="75.104279"
       x2="112"
       y1="2.803019"
       x1="111.812"
       gradientTransform="translate(-141.92469,0)"
       gradientUnits="userSpaceOnUse"
       id="linearGradient3429"
       xlink:href="#linearGradient3260" />
    <linearGradient
       y2="22.886703"
       x2="50.945606"
       y1="82.602188"
       x1="79.738411"
       gradientTransform="translate(-141.92552,0)"
       gradientUnits="userSpaceOnUse"
       id="linearGradient3431"
       xlink:href="#linearGradient6446" />
    <linearGradient
       y2="48.314568"
       x2="18"
       y1="72"
       x1="18"
       gradientUnits="userSpaceOnUse"
       id="linearGradient3433"
       xlink:href="#linearGradient6404" />
    <radialGradient
       r="6"
       fy="57.248905"
       fx="17.6639"
       cy="59.026684"
       cx="17.6639"
       gradientTransform="matrix(0.3723975,0,0,0.3956041,11.422008,34.017713)"
       gradientUnits="userSpaceOnUse"
       id="radialGradient3435"
       xlink:href="#linearGradient3459" />
    <linearGradient
       y2="63.999199"
       x2="21.795919"
       y1="73.846161"
       x1="21.795919"
       gradientUnits="userSpaceOnUse"
       id="linearGradient3437"
       xlink:href="#linearGradient3449-929" />
    <radialGradient
       r="6"
       fy="58.085598"
       fx="17.314354"
       cy="58.085598"
       cx="17.314354"
       gradientTransform="matrix(0.1242527,1.8509925e-7,-1.1212016e-6,1.3333333,15.84871,-21.333337)"
       gradientUnits="userSpaceOnUse"
       id="radialGradient3439"
       xlink:href="#linearGradient3800" />
    <radialGradient
       r="6"
       fy="61.159737"
       fx="18"
       cy="61.159737"
       cx="18"
       gradientTransform="matrix(1,0,0,1.3333333,0,-21.333333)"
       gradientUnits="userSpaceOnUse"
       id="radialGradient3441"
       xlink:href="#linearGradient6666" />
    <linearGradient
       y2="58.871792"
       x2="21.977039"
       y1="77.295662"
       x1="20.866562"
       gradientTransform="matrix(2.0000001,0,0,-1.4999997,28.000001,207.97171)"
       gradientUnits="userSpaceOnUse"
       id="linearGradient3443"
       xlink:href="#linearGradient3202" />
    <linearGradient
       y2="58.871792"
       x2="21.977039"
       y1="77.295662"
       x1="20.866562"
       gradientTransform="matrix(2,0,0,-1.4999998,28.000001,207.97172)"
       gradientUnits="userSpaceOnUse"
       id="linearGradient3445"
       xlink:href="#linearGradient3260-778" />
    <linearGradient
       y2="66.039818"
       x2="21.271065"
       y1="55.799999"
       x1="21.271065"
       gradientUnits="userSpaceOnUse"
       id="linearGradient3447"
       xlink:href="#linearGradient3295" />
    <radialGradient
       r="6"
       fy="70.369736"
       fx="17.314465"
       cy="70.369736"
       cx="17.314465"
       gradientTransform="matrix(0.5405358,1.1657396e-7,-1.600384e-7,1.2019727,8.6409226,-12.089524)"
       gradientUnits="userSpaceOnUse"
       id="radialGradient3449"
       xlink:href="#linearGradient3800" />
    <linearGradient
       id="D">
      <stop
         id="stop4146"
         stop-color="#82e6fb"
         offset="0" />
      <stop
         id="stop4148"
         stop-opacity="0"
         stop-color="#82e6fb"
         offset="1" />
    </linearGradient>
    <radialGradient
       xlink:href="#D"
       id="radialGradient4286"
       cx="16"
       cy="16.0005"
       fx="16"
       fy="16.0005"
       r="16"
       gradientUnits="userSpaceOnUse"
       gradientTransform="matrix(1.711808,-0.02277183,0.01837532,1.3813129,-11.682944,-5.736848)" />
  </defs>
  <metadata
     id="metadata2611">
    <rdf:RDF>
      <cc:Work
         rdf:about="">
        <dc:format>image/svg+xml</dc:format>
        <dc:type
           rdf:resource="http://purl.org/dc/dcmitype/StillImage" />
        <dc:title />
      </cc:Work>
    </rdf:RDF>
  </metadata>
  <g
     transform="translate(0,-96)"
     id="layer1">
    <g
       transform="translate(-2.5004148e-4,95.99975)"
       id="g41533"
       style="enable-background:new">
      <rect
         style="fill:#ffffff;enable-background:new"
         x="0"
         id="rect4364"
         transform="scale(1,-1)"
         width="32"
         height="32"
         y="-32.0005"
         ry="3.878" />
      <rect
         style="fill:url(#radialGradient4286);fill-opacity:1;enable-background:new"
         x="0"
         id="rect4366"
         y="0.00049972534"
         width="32"
         height="32"
         ry="3.878" />
      <rect
         style="fill:none;stroke:#939393;stroke-width:1.02100003;stroke-linecap:round;stroke-linejoin:round;enable-background:new"
         id="rect4426"
         width="30.979"
         height="30.979"
         x="0.51099998"
         y="0.51050001"
         ry="3.7550001" />
    </g>
    <g
       transform="matrix(0.96851581,0,0,0.96850228,-38.212062,3.1790864)"
       id="g3376">
      <g
         id="g3190"
         transform="matrix(0.22365184,0,0,0.22365184,41.756596,97.793556)">
        <path
           style="fill:url(#linearGradient3403);fill-opacity:1;fill-rule:evenodd;stroke:none"
           d="M 115.79764,22.79699 66.815298,90.4638 c -0.705268,0.98334 -1.750262,1.55194 -2.852216,1.55194 -1.101954,0 -2.146948,-0.5686 -2.852216,-1.55194 L 12.137772,22.10949 C 9.5073815,17.96637 9.1346616,12.01574 14.963082,12.01574 l 24.999996,0 0,-7.999996 c -6.54e-4,-2.38204 1.948953,-4.00076 4.000004,-4 l 40,0 c 2.05105,-7.6e-4 4.000656,1.61796 4,4 l 0,7.999996 24.000008,0 c 3.89113,0 6.55329,7.02052 3.83455,10.78125 z"
           id="path2488" />
        <path
           style="opacity:0.25468164;fill:url(#radialGradient3406);fill-opacity:1;fill-rule:evenodd;stroke:none"
           d="M 115.79764,22.79699 66.815298,90.4638 c -0.705268,0.98334 -1.750262,1.55194 -2.852216,1.55194 -1.101954,0 -2.146948,-0.5686 -2.852216,-1.55194 L 12.137772,22.10949 C 9.5073815,17.96637 9.1346616,12.01574 14.963082,12.01574 l 24.999996,0 0,-7.999996 c -6.54e-4,-2.38204 1.948953,-4.00076 4.000004,-4 l 40,0 c 2.05105,-7.6e-4 4.000656,1.61796 4,4 l 0,7.999996 24.000008,0 c 3.89113,0 6.55329,7.02052 3.83455,10.78125 z"
           id="path3532" />
        <path
           transform="matrix(0,-1,-1,0,127.96309,96.01574)"
           id="path3272"
           d="M 76.5,11.0625 C 75.422912,11.12778 74.386099,11.439286 73.5,12 L 75.875,19.625 84,16.46875 84,16 c 0,-2.918352 -3.938921,-5.15334 -7.5,-4.9375 z"
           style="fill:url(#linearGradient3408);fill-opacity:1;fill-rule:evenodd;stroke:none;filter:url(#filter3387)" />
        <path
           transform="matrix(0,-1,1,0,-0.1619184,120.01574)"
           style="fill:url(#linearGradient3410);fill-opacity:1;fill-rule:evenodd;stroke:none;filter:url(#filter3443)"
           d="m 115.65112,40 c -0.33944,1.154561 -2.5625,6.125 -2.5625,6.125 l 6.75,-0.03125 0,-2.09375 c 7.6e-4,-2.05105 -1.61796,-4.000656 -4,-4 l -0.1875,0 z"
           id="path3519" />
        <path
           id="path3447"
           d="M 115.79764,22.79699 66.815298,90.4638 c -0.705268,0.98334 -1.750262,1.55194 -2.852216,1.55194 -1.101954,0 -2.146948,-0.5686 -2.852216,-1.55194 L 12.137772,22.10949 C 9.5073815,17.96637 9.1346616,12.01574 14.963082,12.01574 l 24.999996,0 0,-7.999996 c -6.54e-4,-2.38204 1.948953,-4.00076 4.000004,-4 l 40,0 c 2.05105,-7.6e-4 4.000656,1.61796 4,4 l 0,7.999996 24.000008,0 c 3.89113,0 6.55329,7.02052 3.83455,10.78125 z"
           style="fill:url(#radialGradient3412);fill-opacity:1;fill-rule:evenodd;stroke:none" />
        <path
           transform="matrix(0,-0.8316412,1,0,-0.8210684,78.54704)"
           style="opacity:0.70411987;fill:url(#linearGradient3414);fill-opacity:1;fill-rule:evenodd;stroke:none;filter:url(#filter3387)"
           d="M 72.5,11.0625 C 71.422912,11.12778 70.386099,11.439286 69.5,12 L 71.875,19.625 80,16.46875 80,16 c 0,-2.918352 -3.938921,-5.15334 -7.5,-4.9375 z"
           id="path3391" />
        <path
           id="path3528"
           d="m 115.65112,40 c -0.33944,1.154561 -2.5625,6.125 -2.5625,6.125 l 6.75,-0.03125 0,-2.09375 c 7.6e-4,-2.05105 -1.61796,-4.000656 -4,-4 l -0.1875,0 z"
           style="fill:url(#linearGradient3416);fill-opacity:1;fill-rule:evenodd;stroke:none;filter:url(#filter3443)"
           transform="matrix(0.9995972,0.02838214,-0.02838214,0.9995972,-30.523448,-43.102306)" />
        <path
           transform="matrix(1,0,0,-1,0,96.03148)"
           id="path3012"
           d="m 61.556485,5.2217571 c 1.68914,-1.4588975 3.241258,-1.0679895 4.753139,-0.1338913 L 64.066946,10.476987 61.556485,5.2217571 Z"
           style="fill:url(#linearGradient3419);fill-opacity:1;fill-rule:evenodd;stroke:none;filter:url(#filter3084)" />
        <path
           id="path3019"
           d="M 115.79764,22.79699 66.815298,90.4638 c -0.705268,0.98334 -1.750262,1.55194 -2.852216,1.55194 -1.101954,0 -2.146948,-0.5686 -2.852216,-1.55194 L 12.137772,22.10949 C 9.5073815,17.96637 9.1346616,12.01574 14.963082,12.01574 l 24.999996,0 0,-7.999996 c -6.54e-4,-2.38204 1.948953,-4.00076 4.000004,-4 l 40,0 c 2.05105,-7.6e-4 4.000656,1.61796 4,4 l 0,7.999996 24.000008,0 c 3.89113,0 6.55329,7.02052 3.83455,10.78125 z"
           style="fill:url(#radialGradient3421);fill-opacity:1;fill-rule:evenodd;stroke:none" />
        <g
           id="g3472"
           transform="matrix(0,-1,-0.8609865,0,129.39806,204.01574)"
           style="fill:url(#radialGradient3425);fill-opacity:1;stroke:none">
          <path
             style="fill:url(#radialGradient3423);fill-opacity:1;fill-rule:evenodd;stroke:none"
             d="m 181.55044,21.46494 -62.64497,52.109727 c -1.3858,1.609542 -1.16397,3.021178 -0.10244,4.254102 L 180,129.07866 c 4,3.58214 8,3.77323 8,0 l 0,-29.849488 12,0 0,-46.458336 -12,0 0,-28.841604 c 0,-3.190873 -3.15287,-4.674949 -6.44956,-2.464292 z"
             id="path3474" />
        </g>
        <path
           id="path3029"
           d="m 43.96875,4.03125 0,12 -25.71875,0 c -3.2487,0 -3.084175,4.000001 0,8 l 9.15625,13.0625 c 5.054126,0.340151 10.204517,0.53125 15.4375,0.53125 23.711826,0 45.789784,-3.610949 64.3125,-9.8125 l 3.75,-5.34375 c 1.90334,-3.29669 0.6223,-6.437499 -2.125,-6.4375 l -24.8125,0 0,-12 -40,0 z"
           style="fill:url(#linearGradient3427);fill-opacity:1;stroke:none" />
        <g
           transform="translate(142.18711,-32)"
           id="g3074">
          <path
             style="fill:url(#linearGradient3429);fill-opacity:1;stroke:none"
             d="m -97.96875,36.03125 0,1 40,0 0,-1 -40,0 z m -25.71875,12 c -1.76286,0 -2.5121,1.189739 -2.34375,2.90625 0.17363,-1.161858 0.94633,-1.90625 2.34375,-1.90625 l 25.71875,0 0,-1 -25.71875,0 z m 65.71875,0 0,1 24.8125,0 c 1.684017,10e-7 2.813539,1.171003 3,2.84375 0.222299,-2.182902 -0.996584,-3.843749 -3,-3.84375 l -24.8125,0 z"
             id="path3051" />
          <path
             style="fill:url(#linearGradient3431);fill-opacity:1;stroke:none"
             d="m -58.557057,36.03125 0,10.5625 0.59375,0 0,-10.5625 -0.59375,0 z m 27.84375,13.25 c 0.0051,0.948303 0.22341,2.220332 -0.40625,3.325 l -4.05,5.6375 c -18.52272,6.61516 -40.80066,10.320519 -64.5125,10.85 -5.071953,0.113255 -10.064393,0.05499 -14.968743,-0.15625 l 0.125,0.15625 c 5.05413,0.340151 10.20452,0.53125 15.437493,0.53125 23.71183,0 45.78978,-3.610949 64.3125,-9.8125 l 3.75,-5.34375 c 1.16151,-2.011794 1.13227,-3.97015 0.3125,-5.1875 z"
             id="path3055" />
        </g>
        <ellipse
           ry="8"
           rx="6"
           cy="64"
           cx="18"
           style="fill:url(#linearGradient3433);fill-opacity:1;stroke:none"
           id="path3432"
           transform="matrix(2.6666666,0,0,1.9999994,16.000001,-16.028226)" />
        <ellipse
           ry="8"
           rx="6"
           cy="64"
           cx="18"
           style="fill:url(#radialGradient3435);fill-opacity:1;stroke:none;filter:url(#filter3488)"
           id="path3457"
           transform="matrix(2.5661956,0,0,1.9246462,17.808481,-11.205616)" />
        <ellipse
           ry="8"
           rx="6"
           cy="64"
           cx="18"
           transform="matrix(2.6666666,0,0,1.9999994,16.000001,-16.028226)"
           id="path3453"
           style="opacity:0.625;fill:url(#linearGradient3437);fill-opacity:1;stroke:none" />
        <ellipse
           ry="8"
           rx="6"
           cy="64"
           cx="18"
           style="opacity:0.625;fill:url(#radialGradient3439);fill-opacity:1;stroke:none"
           id="path3798"
           transform="matrix(2.6666666,0,0,1.9999994,16.000001,-16.228226)" />
        <ellipse
           ry="8"
           rx="6"
           cy="64"
           cx="18"
           transform="matrix(2.0000001,0,0,-1.4999997,28.000001,207.97172)"
           id="path3436"
           style="fill:url(#radialGradient3441);fill-opacity:1;stroke:none" />
        <path
           style="fill:url(#linearGradient3443);fill-opacity:1;stroke:none"
           d="m 64.000004,99.97173 c -6.54989,0 -11.88156,5.25949 -12,11.78125 4.54784,1.12339 9.89754,1.78125 15.625,1.78125 2.89121,0 5.66759,-0.19193 8.3125,-0.5 0.03128,-0.35298 0.0625,-0.70144 0.0625,-1.0625 0,-6.624 -5.376,-12 -12,-12 z"
           id="path3468" />
        <path
           style="fill:url(#linearGradient3445);fill-opacity:1;stroke:none"
           d="m 64.000004,99.97173 c -6.14052,0 -11.19892,4.61091 -11.90625,10.5625 0.73776,-5.54369 5.71369,-9.84375 11.71875,-9.84375 6.51308,0 11.78125,5.03134 11.78125,11.25 0,0.33897 -0.03175,0.66862 -0.0625,1 -2.60063,0.28921 -5.31346,0.46875 -8.15625,0.46875 -5.63155,0 -10.90331,-0.6016 -15.375,-1.65625 4.54784,1.12339 9.89754,1.78125 15.625,1.78125 2.89121,0 5.66759,-0.19193 8.3125,-0.5 0.03128,-0.35298 0.0625,-0.70144 0.0625,-1.0625 0,-6.624 -5.376,-12 -12,-12 z"
           id="path3479" />
        <ellipse
           ry="8"
           rx="6"
           cy="64"
           cx="18"
           style="fill:none;stroke:url(#linearGradient3447);stroke-width:0.51961529;stroke-linecap:round;stroke-linejoin:round;stroke-miterlimit:4;stroke-dasharray:none;stroke-dashoffset:0;stroke-opacity:1;filter:url(#filter3790)"
           id="path3510"
           transform="matrix(2.0000001,0,0,-1.4999997,28.000001,207.97172)" />
        <ellipse
           ry="8"
           rx="6"
           cy="64"
           cx="18"
           transform="matrix(2.6666666,0,0,1.9999994,16.000001,-16.228226)"
           id="path3808"
           style="opacity:0.41304351;fill:url(#radialGradient3449);fill-opacity:1;stroke:none;filter:url(#filter3828)" />
      </g>
    </g>
  </g>
</svg>
