<?xml version="1.0" encoding="UTF-8" standalone="no"?>
<svg
   xmlns:dc="http://purl.org/dc/elements/1.1/"
   xmlns:cc="http://creativecommons.org/ns#"
   xmlns:rdf="http://www.w3.org/1999/02/22-rdf-syntax-ns#"
   xmlns:svg="http://www.w3.org/2000/svg"
   xmlns="http://www.w3.org/2000/svg"
   height="32.120998"
   width="32.120998"
   xml:space="preserve"
   viewBox="0 0 32.120998 32.120998"
   y="0px"
   x="0px"
   id="svg2606"
   version="1.1"><metadata
     id="metadata28551"><rdf:RDF><cc:Work
         rdf:about=""><dc:format>image/svg+xml</dc:format><dc:type
           rdf:resource="http://purl.org/dc/dcmitype/StillImage" /><dc:title></dc:title></cc:Work></rdf:RDF></metadata><defs
     id="defs28549" /><style
     id="style28393"
     type="text/css">
	.st0{enable-background:new    ;}
	.st1{fill:url(#rect4364_1_);}
	.st2{fill:url(#rect4366_1_);}
	.st3{fill:none;stroke:#939393;stroke-width:1.021;stroke-linecap:round;stroke-linejoin:round;}
	.st4{fill:url(#path2488_1_);}
	.st5{opacity:0.2547;fill:url(#path3532_1_);enable-background:new    ;}
	.st6{fill:url(#path3272_1_);}
	.st7{fill:url(#path3519_1_);}
	.st8{fill:url(#path3447_1_);}
	.st9{opacity:0.7041;fill:url(#path3391_1_);enable-background:new    ;}
	.st10{fill:url(#path3528_1_);}
	.st11{fill:url(#path3012_1_);}
	.st12{fill:url(#path3019_1_);}
	.st13{fill:url(#path3474_1_);}
	.st14{fill:url(#path3029_1_);}
	.st15{fill:url(#path3051_1_);}
	.st16{fill:url(#path3055_1_);}
	.st17{fill:url(#path3432_1_);}
	.st18{fill:url(#path3457_1_);}
	.st19{opacity:0.625;fill:url(#path3453_1_);enable-background:new    ;}
	.st20{opacity:0.625;fill:url(#path3798_1_);enable-background:new    ;}
	.st21{fill:url(#path3436_1_);}
	.st22{fill:url(#path3468_1_);}
	.st23{fill:url(#path3479_1_);}
	.st24{fill:none;stroke:url(#path3510_1_);stroke-width:0.1949;stroke-linecap:round;stroke-linejoin:round;}
	.st25{opacity:0.413;fill:url(#path3808_1_);enable-background:new    ;}
</style><g
     style="enable-background:new"
     class="st0"
     transform="translate(0.01050001,0.01050001)"
     id="g52015"><g
       id="g4276"><linearGradient
         gradientTransform="matrix(1.0329,0,0,1.0329,-49.8946,316.599)"
         y2="-275.5228"
         x2="63.793201"
         y1="-306.50229"
         x1="63.793201"
         gradientUnits="userSpaceOnUse"
         id="rect4364_1_"><stop
           id="stop28399"
           style="stop-color:#FFFFFF"
           offset="0" /><stop
           id="stop28401"
           style="stop-color:#939393"
           offset="1" /></linearGradient><path
         style="fill:url(#rect4364_1_)"
         d="m 3.9,32 24.2,0 C 30.2,32 32,30.3 32,28.1 L 32,3.9 C 32,1.7 30.3,0 28.1,0 L 3.9,0 C 1.7,0 0,1.7 0,3.9 L 0,28.1 C 0,30.3 1.7,32 3.9,32 Z"
         class="st1"
         id="rect4364" /><linearGradient
         gradientTransform="matrix(1.0329,0,0,-1.0329,-49.8946,-1042.599)"
         y2="-1024.8409"
         x2="63.793201"
         y1="-1040.3309"
         x1="63.793201"
         gradientUnits="userSpaceOnUse"
         id="rect4366_1_"><stop
           id="stop28405"
           style="stop-color:#FFFFFF"
           offset="0" /><stop
           id="stop28407"
           style="stop-color:#FFFFFF;stop-opacity:0"
           offset="1" /></linearGradient><path
         style="fill:url(#rect4366_1_)"
         d="M 3.9,0 28.1,0 C 30.3,0 32,1.7 32,3.9 l 0,24.2 C 32,30.2 30.3,32 28.1,32 L 3.9,32 C 1.7,32 0,30.3 0,28.1 L 0,3.9 C 0,1.7 1.7,0 3.9,0 Z"
         class="st2"
         id="rect4366" /><path
         style="fill:none;stroke:#939393;stroke-width:1.02100003;stroke-linecap:round;stroke-linejoin:round"
         d="m 4.3,0.5 23.5,0 c 2.1,0 3.8,1.7 3.8,3.8 l 0,23.5 c 0,2.1 -1.7,3.8 -3.8,3.8 l -23.5,0 C 2.2,31.6 0.5,29.9 0.5,27.8 L 0.5,4.3 C 0.5,2.2 2.2,0.5 4.3,0.5 Z"
         class="st3"
         id="rect4426" /></g></g><linearGradient
     gradientTransform="matrix(0,0.2166,0.1865,0,-335.75945,-330.47345)"
     y2="1884.5979"
     x2="1703.9185"
     y1="1886.0679"
     x1="1647.9896"
     gradientUnits="userSpaceOnUse"
     id="path2488_1_"><stop
       id="stop28412"
       style="stop-color:#494949"
       offset="0" /><stop
       id="stop28414"
       style="stop-color:#909090"
       offset="1" /></linearGradient><path
     style="fill:url(#path2488_1_)"
     d="m 27.31075,25.21075 -10.6,-14.7 c -0.2,-0.2 -0.4,-0.3 -0.6,-0.3 -0.2,0 -0.5,0.1 -0.6,0.3 l -10.6,14.8 c -0.6,0.9 -0.7,2.2 0.6,2.2 l 5.4,0 0,1.7 c 0,0.5 0.4,0.9 0.9,0.9 l 8.7,0 c 0.4,0 0.9,-0.4 0.9,-0.9 l 0,-1.7 5.2,0 c 0.7,0 1.3,-1.5 0.7,-2.3 z"
     class="st4"
     id="path2488" /><radialGradient
     gradientUnits="userSpaceOnUse"
     gradientTransform="matrix(0.0104156,0.1256,0.2489,-0.02063793,-348.57815,-323.28625)"
     r="60"
     cy="1352.5098"
     cx="2965.1089"
     id="path3532_1_"><stop
       id="stop28418"
       style="stop-color:#333333"
       offset="0" /><stop
       id="stop28420"
       style="stop-color:#333333;stop-opacity:0"
       offset="1" /></radialGradient><path
     style="opacity:0.25470001;fill:url(#path3532_1_);enable-background:new"
     d="m 27.31075,25.21075 -10.6,-14.7 c -0.2,-0.2 -0.4,-0.3 -0.6,-0.3 -0.2,0 -0.5,0.1 -0.6,0.3 l -10.6,14.8 c -0.6,0.9 -0.7,2.2 0.6,2.2 l 5.4,0 0,1.7 c 0,0.5 0.4,0.9 0.9,0.9 l 8.7,0 c 0.4,0 0.9,-0.4 0.9,-0.9 l 0,-1.7 5.2,0 c 0.7,0 1.3,-1.5 0.7,-2.3 z"
     class="st5"
     id="path3532" /><linearGradient
     gradientTransform="matrix(0,0.2166,0.2166,0,-348.50135,-306.21345)"
     y2="1730.2549"
     x2="1539.5984"
     y1="1731.6692"
     x1="1534.4017"
     gradientUnits="userSpaceOnUse"
     id="path3272_1_"><stop
       id="stop28424"
       style="stop-color:#FFFFFF"
       offset="0" /><stop
       id="stop28426"
       style="stop-color:#FFFFFF;stop-opacity:0"
       offset="1" /></linearGradient><path
     style="fill:url(#path3272_1_)"
     d="m 27.61075,25.91075 c 0,-0.2 -0.1,-0.5 -0.2,-0.6 l -1.7,0.5 0.7,1.8 0.1,0 c 0.6,-0.1 1.1,-0.9 1.1,-1.7 z"
     class="st6"
     id="path3272" /><linearGradient
     gradientTransform="matrix(0,0.2166,-0.1865,0,-210.07625,-335.70695)"
     y2="-1192.7429"
     x2="1688.4583"
     y1="-1189.2479"
     x1="1685.1263"
     gradientUnits="userSpaceOnUse"
     id="path3519_1_"><stop
       id="stop28430"
       style="stop-color:#FFFFFF"
       offset="0" /><stop
       id="stop28432"
       style="stop-color:#FFFFFF;stop-opacity:0"
       offset="1" /></linearGradient><path
     style="fill:url(#path3519_1_)"
     d="m 10.91075,29.21075 c 0.3,-0.1 1.3,-0.6 1.3,-0.6 l 0,1.5 -0.5,0 c -0.4,0 -0.8,-0.4 -0.8,-0.9 l 0,0 0,0 z"
     class="st7"
     id="path3519" /><radialGradient
     gradientUnits="userSpaceOnUse"
     gradientTransform="matrix(-0.00382917,0.126,0.1923,0.00584542,-340.86645,-328.76935)"
     r="60"
     cy="1912.2164"
     cx="2623.6292"
     id="path3447_1_"><stop
       id="stop28436"
       style="stop-color:#333333"
       offset="0" /><stop
       id="stop28438"
       style="stop-color:#333333;stop-opacity:0"
       offset="1" /></radialGradient><path
     style="fill:url(#path3447_1_)"
     d="m 27.31075,25.21075 -10.6,-14.7 c -0.2,-0.2 -0.4,-0.3 -0.6,-0.3 -0.2,0 -0.5,0.1 -0.6,0.3 l -10.6,14.8 c -0.6,0.9 -0.7,2.2 0.6,2.2 l 5.4,0 0,1.7 c 0,0.5 0.4,0.9 0.9,0.9 l 8.7,0 c 0.4,0 0.9,-0.4 0.9,-0.9 l 0,-1.7 5.2,0 c 0.7,0 1.3,-1.5 0.7,-2.3 z"
     class="st8"
     id="path3447" /><linearGradient
     gradientTransform="matrix(0,0.1801,-0.2166,0,-197.47715,-313.83515)"
     y2="-939.22229"
     x2="1893.1083"
     y1="-936.74738"
     x1="1888.9188"
     gradientUnits="userSpaceOnUse"
     id="path3391_1_"><stop
       id="stop28442"
       style="stop-color:#FFFFFF"
       offset="0" /><stop
       id="stop28444"
       style="stop-color:#FFFFFF;stop-opacity:0"
       offset="1" /></linearGradient><path
     style="opacity:0.70410001;fill:url(#path3391_1_);enable-background:new"
     d="m 4.41075,26.21075 c 0,-0.2 0.1,-0.4 0.2,-0.5 l 1.7,0.3 -0.7,1.5 -0.1,0 c -0.6,0 -1.1,-0.7 -1.1,-1.3 z"
     class="st9"
     id="path3391" /><linearGradient
     gradientTransform="matrix(0.2165,-0.00614778,0.00529359,0.1864,-256.39275,-417.34325)"
     y2="2431.9927"
     x2="1222.743"
     y1="2435.4878"
     x1="1219.4111"
     gradientUnits="userSpaceOnUse"
     id="path3528_1_"><stop
       id="stop28448"
       style="stop-color:#FFFFFF"
       offset="0" /><stop
       id="stop28450"
       style="stop-color:#FFFFFF;stop-opacity:0"
       offset="1" /></linearGradient><path
     style="fill:url(#path3528_1_)"
     d="m 20.41075,30.11075 c -0.1,-0.2 -0.6,-1.3 -0.6,-1.3 l 1.5,0 0,0.5 c 0,0.3 -0.3,0.8 -0.9,0.8 l 0,0 0,0 z"
     class="st10"
     id="path3528" /><linearGradient
     gradientTransform="matrix(0.2166,0,0,-0.2166,-224.15905,-280.22395)"
     y2="-1344.076"
     x2="1111.4001"
     y1="-1344.076"
     x1="1109.1261"
     gradientUnits="userSpaceOnUse"
     id="path3012_1_"><stop
       id="stop28454"
       style="stop-color:#CFCFCF"
       offset="0" /><stop
       id="stop28456"
       style="stop-color:#FFFFFF;stop-opacity:0"
       offset="1" /></linearGradient><path
     style="fill:url(#path3012_1_)"
     d="m 15.61075,10.41075 c 0.4,-0.3 0.7,-0.2 1,0 l -0.5,1.2 c 0,0 -0.5,-1.2 -0.5,-1.2 z"
     class="st11"
     id="path3012" /><radialGradient
     gradientUnits="userSpaceOnUse"
     gradientTransform="matrix(0.5228,-0.00533553,6.465905e-4,0.06335651,-155.49895,-376.07495)"
     r="53.2985"
     cy="6394.4175"
     cx="320.3175"
     id="path3019_1_"><stop
       id="stop28460"
       style="stop-color:#818181"
       offset="0" /><stop
       id="stop28462"
       style="stop-color:#818181;stop-opacity:0"
       offset="1" /></radialGradient><path
     style="fill:url(#path3019_1_)"
     d="m 27.31075,25.21075 -10.6,-14.7 c -0.2,-0.2 -0.4,-0.3 -0.6,-0.3 -0.2,0 -0.5,0.1 -0.6,0.3 l -10.6,14.8 c -0.6,0.9 -0.7,2.2 0.6,2.2 l 5.4,0 0,1.7 c 0,0.5 0.4,0.9 0.9,0.9 l 8.7,0 c 0.4,0 0.9,-0.4 0.9,-0.9 l 0,-1.7 5.2,0 c 0.7,0 1.3,-1.5 0.7,-2.3 z"
     class="st12"
     id="path3019" /><g
     transform="matrix(0,0.21660732,-0.18649858,0,30.269569,-14.072923)"
     id="g3472"><radialGradient
       gradientUnits="userSpaceOnUse"
       gradientTransform="matrix(0,-0.2466,-0.1865,0,-1430.4534,2025.2762)"
       r="56"
       cy="-8402.54"
       cx="7904.6372"
       id="path3474_1_"><stop
         id="stop28467"
         style="stop-color:#CACACA"
         offset="0" /><stop
         id="stop28469"
         style="stop-color:#949494"
         offset="0.5" /><stop
         id="stop28471"
         style="stop-color:#515151"
         offset="1" /></radialGradient><path
       style="fill:url(#path3474_1_)"
       d="M 181.6,21.5 119,73.6 c -1.4,1.6 -1.2,3 -0.1,4.3 l 61.2,51.2 c 4,3.6 8,3.8 8,0 l 0,-29.9 12,0 0,-46.4 -12,0 0,-28.9 c -0.1,-3.2 -3.3,-4.6 -6.5,-2.4 z"
       class="st13"
       id="path3474" /></g><linearGradient
     gradientTransform="matrix(0.2166,0,0,0.2166,-224.15905,-431.40905)"
     y2="2087.4807"
     x2="1109.0996"
     y1="2159.782"
     x1="1108.9115"
     gradientUnits="userSpaceOnUse"
     id="path3029_1_"><stop
       id="stop28475"
       style="stop-color:#EBEBEB"
       offset="0" /><stop
       id="stop28477"
       style="stop-color:#E5E5E5;stop-opacity:0"
       offset="1" /></linearGradient><path
     style="fill:url(#path3029_1_)"
     d="m 11.81075,29.21075 0,-2.6 -5.6,0 c -0.7,0 -0.7,-0.9 0,-1.7 l 2,-2.8 c 1.1,-0.1 2.2,-0.1 3.3,-0.1 5.1,0 9.9,0.8 13.9,2.1 l 0.8,1.2 c 0.4,0.7 0.1,1.4 -0.5,1.4 l -5.4,0 0,2.6 -8.5,0 z"
     class="st14"
     id="path3029" /><g
     transform="matrix(0.21661034,0,0,-0.21660732,33.03981,37.049814)"
     id="g3074"><linearGradient
       gradientTransform="matrix(0.2166,0,0,0.2166,-1154.0905,2125.6741)"
       y2="-9727.6719"
       x2="4967.0479"
       y1="-9799.9736"
       x1="4966.8599"
       gradientUnits="userSpaceOnUse"
       id="path3051_1_"><stop
         id="stop28482"
         style="stop-color:#FFFFFF"
         offset="0" /><stop
         id="stop28484"
         style="stop-color:#FFFFFF;stop-opacity:0"
         offset="1" /></linearGradient><path
       style="fill:url(#path3051_1_)"
       d="m -98,36 0,1 40,0 0,-1 -40,0 z m -25.7,12 c -1.8,0 -2.5,1.2 -2.3,2.9 0.2,-1.2 0.9,-1.9 2.3,-1.9 l 25.7,0 0,-1 -25.7,0 z m 65.7,0 0,1 24.8,0 c 1.7,0 2.8,1.2 3,2.8 0.2,-2.2 -1,-3.8 -3,-3.8 L -58,48 Z"
       class="st15"
       id="path3051" /><linearGradient
       gradientTransform="matrix(0.2166,0,0,0.2166,-1154.0913,2125.6741)"
       y2="-9493.3965"
       x2="5015.2593"
       y1="-9433.6816"
       x1="5044.0522"
       gradientUnits="userSpaceOnUse"
       id="path3055_1_"><stop
         id="stop28488"
         style="stop-color:#FFFFFF"
         offset="0" /><stop
         id="stop28490"
         style="stop-color:#FFFFFF;stop-opacity:0"
         offset="1" /></linearGradient><path
       style="fill:url(#path3055_1_)"
       d="m -58.6,36 0,10.6 0.6,0 0,-10.6 -0.6,0 z m 27.9,13.3 c 0,0.9 0.2,2.2 -0.4,3.3 l -4.1,5.6 c -18.5,6.7 -40.8,10.4 -64.5,10.9 -5.1,0.1 -10.1,0.1 -15,-0.2 l 0.1,0.2 c 5.1,0.3 10.2,0.5 15.4,0.5 23.7,0 45.8,-3.6 64.3,-9.8 l 3.8,-5.3 c 1.2,-2 1.2,-4 0.4,-5.2 z"
       class="st16"
       id="path3055" /></g><linearGradient
     gradientTransform="matrix(0.5776,0,0,0.4332,-116.35925,-524.32735)"
     y2="1239.5406"
     x2="229.3224"
     y1="1215.8552"
     x1="229.3224"
     gradientUnits="userSpaceOnUse"
     id="path3432_1_"><stop
       id="stop28494"
       style="stop-color:#494949"
       offset="0" /><stop
       id="stop28496"
       style="stop-color:#909090"
       offset="1" /></linearGradient><circle
     style="fill:url(#path3432_1_)"
     r="3.5"
     cy="5.9107499"
     cx="16.11075"
     class="st17"
     id="path3432" /><radialGradient
     gradientUnits="userSpaceOnUse"
     gradientTransform="matrix(0.207,0,0,0.1649,-216.72905,-428.74995)"
     fy="2650.2185"
     fx="1124.782"
     r="6"
     cy="2651.9963"
     cx="1124.782"
     id="path3457_1_"><stop
       id="stop28500"
       style="stop-color:#FFFFFF"
       offset="0" /><stop
       id="stop28502"
       style="stop-color:#FFFFFF;stop-opacity:0"
       offset="1" /></radialGradient><circle
     style="fill:url(#path3457_1_)"
     r="3.3"
     cy="5.9107499"
     cx="16.11075"
     class="st18"
     id="path3457" /><linearGradient
     gradientTransform="matrix(0.5776,0,0,0.4332,-116.35925,-524.32735)"
     y2="1223.8561"
     x2="229.3224"
     y1="1214.0092"
     x1="229.3224"
     gradientUnits="userSpaceOnUse"
     id="path3453_1_"><stop
       id="stop28506"
       style="stop-color:#333333"
       offset="0" /><stop
       id="stop28508"
       style="stop-color:#333333;stop-opacity:0"
       offset="1" /></linearGradient><circle
     style="opacity:0.625;fill:url(#path3453_1_);enable-background:new"
     r="3.5"
     cy="5.9107499"
     cx="16.11075"
     class="st19"
     id="path3453" /><radialGradient
     gradientUnits="userSpaceOnUse"
     gradientTransform="matrix(0.07177178,0,0,0.5776,-253.39695,-574.68135)"
     r="6.0001001"
     cy="1011.0559"
     cx="3754.9663"
     id="path3798_1_"><stop
       id="stop28512"
       style="stop-color:#C5C5C5"
       offset="0" /><stop
       id="stop28514"
       style="stop-color:#C5C5C5;stop-opacity:0"
       offset="1" /></radialGradient><circle
     style="opacity:0.625;fill:url(#path3798_1_);enable-background:new"
     r="3.5"
     cy="5.9107499"
     cx="16.11075"
     class="st20"
     id="path3798" /><radialGradient
     gradientUnits="userSpaceOnUse"
     gradientTransform="matrix(0.4332,0,0,-0.4332,-155.49355,-221.94365)"
     r="6"
     cy="-523.01501"
     cx="396.09641"
     id="path3436_1_"><stop
       id="stop28518"
       style="stop-color:#CACACA"
       offset="0" /><stop
       id="stop28520"
       style="stop-color:#949494"
       offset="0.5" /><stop
       id="stop28522"
       style="stop-color:#515151"
       offset="1" /></radialGradient><circle
     style="fill:url(#path3436_1_)"
     r="2.5999999"
     cy="5.9107499"
     cx="16.11075"
     class="st21"
     id="path3436" /><linearGradient
     gradientTransform="matrix(0.4332,0,0,-0.3249,-155.49355,-259.74155)"
     y2="-812.12598"
     x2="396.43301"
     y1="-830.54993"
     x1="395.32251"
     gradientUnits="userSpaceOnUse"
     id="path3468_1_"><stop
       id="stop28526"
       style="stop-color:#EBEBEB"
       offset="0" /><stop
       id="stop28528"
       style="stop-color:#E8E8E8;stop-opacity:0"
       offset="1" /></linearGradient><path
     style="fill:url(#path3468_1_)"
     d="m 16.11075,8.51075 c -1.4,0 -2.6,-1.1 -2.6,-2.6 1,-0.2 2.1,-0.4 3.4,-0.4 0.6,0 1.2,0 1.8,0.1 0,0.1 0,0.2 0,0.2 0,1.5 -1.2,2.7 -2.6,2.7 z"
     class="st22"
     id="path3468" /><linearGradient
     gradientTransform="matrix(0.4332,0,0,-0.3249,-155.49355,-259.74155)"
     y2="-812.12592"
     x2="396.43301"
     y1="-830.54968"
     x1="395.32251"
     gradientUnits="userSpaceOnUse"
     id="path3479_1_"><stop
       id="stop28532"
       style="stop-color:#FFFFFF"
       offset="0" /><stop
       id="stop28534"
       style="stop-color:#FFFFFF;stop-opacity:0"
       offset="1" /></linearGradient><path
     style="fill:url(#path3479_1_)"
     d="m 16.11075,8.51075 c -1.3,0 -2.4,-1 -2.6,-2.3 0.2,1.2 1.2,2.1 2.5,2.1 1.4,0 2.6,-1.1 2.6,-2.4 0,-0.1 0,-0.1 0,-0.2 -0.6,-0.1 -1.2,-0.1 -1.8,-0.1 -1.2,0 -2.4,0.1 -3.3,0.4 1,-0.2 2.1,-0.4 3.4,-0.4 0.6,0 1.2,0 1.8,0.1 0,0.1 0,0.2 0,0.2 0,1.4 -1.2,2.6 -2.6,2.6 z"
     class="st23"
     id="path3479" /><linearGradient
     gradientTransform="matrix(0.4332,0,0,-0.3249,-155.49355,-259.74155)"
     y2="-819.51343"
     x2="396.09641"
     y1="-809.27362"
     x1="396.09641"
     gradientUnits="userSpaceOnUse"
     id="path3510_1_"><stop
       id="stop28538"
       style="stop-color:#CFCFCF"
       offset="0" /><stop
       id="stop28540"
       style="stop-color:#FFFFFF;stop-opacity:0"
       offset="1" /></linearGradient><circle
     style="fill:none;stroke:url(#path3510_1_);stroke-width:0.19490001;stroke-linecap:round;stroke-linejoin:round"
     r="2.5999999"
     cy="5.9107499"
     cx="16.11075"
     class="st24"
     id="path3510" /><radialGradient
     gradientUnits="userSpaceOnUse"
     gradientTransform="matrix(0.3122,0,0,0.5207,-188.06835,-555.18315)"
     r="6"
     cy="1070.4799"
     cx="653.91888"
     id="path3808_1_"><stop
       id="stop28544"
       style="stop-color:#C5C5C5"
       offset="0" /><stop
       id="stop28546"
       style="stop-color:#C5C5C5;stop-opacity:0"
       offset="1" /></radialGradient><circle
     style="opacity:0.41300001;fill:url(#path3808_1_);enable-background:new"
     r="3.5"
     cy="5.9107499"
     cx="16.11075"
     class="st25"
     id="path3808" /></svg>