<?xml version="1.0" encoding="UTF-8" standalone="no"?>
<svg
   xmlns:dc="http://purl.org/dc/elements/1.1/"
   xmlns:cc="http://creativecommons.org/ns#"
   xmlns:rdf="http://www.w3.org/1999/02/22-rdf-syntax-ns#"
   xmlns:svg="http://www.w3.org/2000/svg"
   xmlns="http://www.w3.org/2000/svg"
   xmlns:xlink="http://www.w3.org/1999/xlink"
   version="1.0"
   id="svg1307"
   height="32"
   width="32">
  <defs
     id="defs1309">
    <linearGradient
       id="linearGradient6184">
      <stop
         id="stop6186"
         offset="0"
         style="stop-color:#ffffff;stop-opacity:1;" />
      <stop
         id="stop6188"
         offset="1"
         style="stop-color:#ffffff;stop-opacity:0;" />
    </linearGradient>
    <linearGradient
       id="linearGradient2648">
      <stop
         id="stop2650"
         offset="0"
         style="stop-color:#ffffff;stop-opacity:1;" />
      <stop
         id="stop2652"
         offset="1"
         style="stop-color:#ffffff;stop-opacity:0;" />
    </linearGradient>
    <linearGradient
       id="linearGradient34264">
      <stop
         id="stop34266"
         offset="0"
         style="stop-color:#ffffff;stop-opacity:1;" />
      <stop
         id="stop34268"
         offset="1"
         style="stop-color:#ffffff;stop-opacity:0;" />
    </linearGradient>
    <linearGradient
       id="linearGradient26369">
      <stop
         id="stop26371"
         offset="0"
         style="stop-color:#000000;stop-opacity:1;" />
      <stop
         id="stop26373"
         offset="1"
         style="stop-color:#000000;stop-opacity:0;" />
    </linearGradient>
    <linearGradient
       id="linearGradient25485">
      <stop
         id="stop25487"
         offset="0"
         style="stop-color:#000000;stop-opacity:1;" />
      <stop
         id="stop25489"
         offset="1"
         style="stop-color:#000000;stop-opacity:0;" />
    </linearGradient>
    <linearGradient
       id="linearGradient23722">
      <stop
         id="stop23724"
         offset="0"
         style="stop-color:#000000;stop-opacity:1;" />
      <stop
         id="stop23726"
         offset="1"
         style="stop-color:#000000;stop-opacity:0;" />
    </linearGradient>
    <linearGradient
       id="linearGradient22831">
      <stop
         id="stop22833"
         offset="0"
         style="stop-color:#ffffff;stop-opacity:1;" />
      <stop
         id="stop22835"
         offset="1"
         style="stop-color:#888a85;stop-opacity:0;" />
    </linearGradient>
    <linearGradient
       id="linearGradient17579">
      <stop
         id="stop17581"
         offset="0"
         style="stop-color:#ffffff;stop-opacity:1;" />
      <stop
         id="stop17583"
         offset="1"
         style="stop-color:#000000;stop-opacity:0;" />
    </linearGradient>
    <linearGradient
       id="linearGradient15825">
      <stop
         id="stop15827"
         offset="0"
         style="stop-color:#ffffff;stop-opacity:1;" />
      <stop
         id="stop15829"
         offset="1"
         style="stop-color:#555753;stop-opacity:0;" />
    </linearGradient>
    <linearGradient
       id="linearGradient13184">
      <stop
         id="stop13186"
         offset="0"
         style="stop-color:#000000;stop-opacity:0.66666669;" />
      <stop
         id="stop13188"
         offset="1"
         style="stop-color:#000000;stop-opacity:0;" />
    </linearGradient>
    <linearGradient
       id="linearGradient11428">
      <stop
         id="stop11430"
         offset="0"
         style="stop-color:#ffffff;stop-opacity:1;" />
      <stop
         id="stop11432"
         offset="1"
         style="stop-color:#ffffff;stop-opacity:0;" />
    </linearGradient>
    <linearGradient
       id="linearGradient10539">
      <stop
         id="stop10541"
         offset="0"
         style="stop-color:#ffffff;stop-opacity:1;" />
      <stop
         id="stop10543"
         offset="1"
         style="stop-color:#888a85;stop-opacity:0;" />
    </linearGradient>
    <linearGradient
       id="linearGradient6818">
      <stop
         id="stop6820"
         offset="0"
         style="stop-color:#ffffff;stop-opacity:1;" />
      <stop
         id="stop6822"
         offset="1"
         style="stop-color:#3e3e3e;stop-opacity:0;" />
    </linearGradient>
    <linearGradient
       id="linearGradient5928">
      <stop
         id="stop5930"
         offset="0"
         style="stop-color:#000000;stop-opacity:1;" />
      <stop
         id="stop5932"
         offset="1"
         style="stop-color:#000000;stop-opacity:0;" />
    </linearGradient>
    <linearGradient
       id="linearGradient4174">
      <stop
         id="stop4176"
         offset="0"
         style="stop-color:#ffffff;stop-opacity:1;" />
      <stop
         id="stop4178"
         offset="1"
         style="stop-color:#3e3e3e;stop-opacity:0;" />
    </linearGradient>
    <filter
       color-interpolation-filters="sRGB"
       id="filter3737">
      <feGaussianBlur
         id="feGaussianBlur3739"
         stdDeviation="0.30086486" />
    </filter>
    <filter
       color-interpolation-filters="sRGB"
       id="filter3933">
      <feGaussianBlur
         id="feGaussianBlur3935"
         stdDeviation="1.4820941" />
    </filter>
    <filter
       color-interpolation-filters="sRGB"
       id="filter3985">
      <feGaussianBlur
         id="feGaussianBlur3987"
         stdDeviation="0.18706947" />
    </filter>
    <filter
       color-interpolation-filters="sRGB"
       id="filter3989">
      <feGaussianBlur
         id="feGaussianBlur3991"
         stdDeviation="0.086425096" />
    </filter>
    <filter
       color-interpolation-filters="sRGB"
       id="filter3995">
      <feGaussianBlur
         id="feGaussianBlur3997"
         stdDeviation="0.17395735" />
    </filter>
    <radialGradient
       r="11.547417"
       fy="33.309246"
       fx="154.17799"
       cy="33.309246"
       cx="154.17799"
       gradientTransform="matrix(0.9702732,-0.06291178,0.06430445,0.8808136,-50.713809,19.652164)"
       gradientUnits="userSpaceOnUse"
       id="radialGradient3390"
       xlink:href="#linearGradient5928" />
    <radialGradient
       r="11.547417"
       fy="33.309246"
       fx="154.17799"
       cy="33.309246"
       cx="154.17799"
       gradientTransform="matrix(1,0,0,0.931884,3.581214,-10.16833)"
       gradientUnits="userSpaceOnUse"
       id="radialGradient3392"
       xlink:href="#linearGradient5928" />
    <radialGradient
       r="7.125"
       fy="29.473955"
       fx="173.35292"
       cy="29.473955"
       cx="173.35292"
       gradientTransform="matrix(5.093182,0.03710751,-0.03342812,4.588167,-711.6483,-118.8231)"
       gradientUnits="userSpaceOnUse"
       id="radialGradient3394"
       xlink:href="#linearGradient4174" />
    <radialGradient
       r="4.6959705"
       fy="56.316689"
       fx="150.17821"
       cy="56.316689"
       cx="150.17821"
       gradientTransform="matrix(7.899763,-0.133352,0.10295,6.09874,-1031.154,-297.761)"
       gradientUnits="userSpaceOnUse"
       id="radialGradient3396"
       xlink:href="#linearGradient6818" />
    <radialGradient
       r="59.069851"
       fy="47.896503"
       fx="78.344902"
       cy="47.896503"
       cx="78.344902"
       gradientTransform="matrix(1.0280267,-0.1270725,0.1309176,0.9349125,-10.479426,16.042145)"
       gradientUnits="userSpaceOnUse"
       id="radialGradient3398"
       xlink:href="#linearGradient22831" />
    <radialGradient
       r="16.390625"
       fy="1.2351388"
       fx="222.09877"
       cy="1.2351388"
       cx="222.09877"
       gradientTransform="matrix(2.3781044,-0.3075006,1.0402511,6.8677766,-436.02391,108.90546)"
       gradientUnits="userSpaceOnUse"
       id="radialGradient3400"
       xlink:href="#linearGradient10539" />
    <radialGradient
       r="59.073311"
       fy="-10.284327"
       fx="302.08856"
       cy="-10.284327"
       cx="302.08856"
       gradientTransform="matrix(0.2857021,-0.09693699,0.3403616,0.8738542,19.958746,76.364594)"
       gradientUnits="userSpaceOnUse"
       id="radialGradient3402"
       xlink:href="#linearGradient25485" />
    <radialGradient
       r="59.073311"
       fy="-10.284327"
       fx="302.08856"
       cy="-10.284327"
       cx="302.08856"
       gradientTransform="matrix(0.2857021,-0.09693699,0.3403616,0.8738542,20.206674,76.333938)"
       gradientUnits="userSpaceOnUse"
       id="radialGradient3404"
       xlink:href="#linearGradient25485" />
    <radialGradient
       r="8.0720015"
       fy="72.25351"
       fx="64.035408"
       cy="72.25351"
       cx="64.035408"
       gradientTransform="matrix(0.35411,-4.17141,5.032558,-1.51988,-331.3648,448.8406)"
       gradientUnits="userSpaceOnUse"
       id="radialGradient3406"
       xlink:href="#linearGradient17579" />
    <radialGradient
       r="4.1422901"
       fy="64.803642"
       fx="77.371063"
       cy="64.803642"
       cx="77.371063"
       gradientTransform="matrix(0.71884,0.05195072,0.124003,10.14631,11.77238,-600.3243)"
       gradientUnits="userSpaceOnUse"
       id="radialGradient3408"
       xlink:href="#linearGradient15825" />
    <radialGradient
       r="6.8733773"
       fy="38.927982"
       fx="94.138443"
       cy="38.927982"
       cx="94.138443"
       gradientTransform="matrix(0.581247,0.00581712,-0.07455762,9.383173,36.03053,-309.6658)"
       gradientUnits="userSpaceOnUse"
       id="radialGradient3410"
       xlink:href="#linearGradient11428" />
    <linearGradient
       y2="48.538784"
       x2="95"
       y1="48.538784"
       x1="79.735275"
       gradientTransform="matrix(0.737301,-6.658052e-7,1.272726e-7,1.016243,23.72264,1.031887)"
       gradientUnits="userSpaceOnUse"
       id="linearGradient3412"
       xlink:href="#linearGradient13184" />
    <radialGradient
       r="6.8733773"
       fy="38.927982"
       fx="94.138443"
       cy="38.927982"
       cx="94.138443"
       gradientTransform="matrix(0.566041,0.00497625,-0.07260836,8.025401,38.46269,-251.3652)"
       gradientUnits="userSpaceOnUse"
       id="radialGradient3414"
       xlink:href="#linearGradient11428" />
    <linearGradient
       y2="48.538784"
       x2="95"
       y1="48.538784"
       x1="79.735275"
       gradientTransform="matrix(0.718011,5.475357e-7,-1.861064e-8,0.869189,26.47674,14.37374)"
       gradientUnits="userSpaceOnUse"
       id="linearGradient3416"
       xlink:href="#linearGradient13184" />
    <radialGradient
       r="6.8733773"
       fy="38.927982"
       fx="94.138443"
       cy="38.927982"
       cx="94.138443"
       gradientTransform="matrix(0.602777,0.00495854,-0.07732142,7.998709,33.70512,-255.1298)"
       gradientUnits="userSpaceOnUse"
       id="radialGradient3418"
       xlink:href="#linearGradient11428" />
    <linearGradient
       y2="48.538784"
       x2="95"
       y1="48.538784"
       x1="79.735275"
       gradientTransform="matrix(0.764612,-9.213433e-7,-8.9154829e-8,0.866298,20.94123,9.725384)"
       gradientUnits="userSpaceOnUse"
       id="linearGradient3420"
       xlink:href="#linearGradient13184" />
    <linearGradient
       y2="11.270861"
       x2="120.06922"
       y1="11.270861"
       x1="105.58075"
       gradientTransform="matrix(1.0692341,-0.1321662,0.1338966,0.9561867,-15.573128,15.396338)"
       gradientUnits="userSpaceOnUse"
       id="linearGradient3422"
       xlink:href="#linearGradient23722" />
    <linearGradient
       y2="13.184787"
       x2="141.67282"
       y1="51.131916"
       x1="114.74419"
       gradientTransform="matrix(1.0280267,-0.1270725,0.1338966,0.9561867,-10.625435,14.784763)"
       gradientUnits="userSpaceOnUse"
       id="linearGradient3424"
       xlink:href="#linearGradient26369" />
    <radialGradient
       r="16.390625"
       fy="-4.2258649"
       fx="224.46358"
       cy="-4.2258649"
       cx="224.46358"
       gradientTransform="matrix(2.3781044,-0.3075006,1.0402511,6.8677766,-437.14482,108.10564)"
       gradientUnits="userSpaceOnUse"
       id="radialGradient3426"
       xlink:href="#linearGradient10539" />
    <radialGradient
       r="4.6031747"
       fy="99.120926"
       fx="19.006332"
       cy="99.120926"
       cx="19.006332"
       gradientTransform="matrix(-1.0334476,0.07897266,-0.1160692,-1.3576785,44.296126,247.80777)"
       gradientUnits="userSpaceOnUse"
       id="radialGradient3428"
       xlink:href="#linearGradient34264" />
    <radialGradient
       r="7.125"
       fy="28.159636"
       fx="174.07651"
       cy="28.159636"
       cx="174.07651"
       gradientTransform="matrix(4.9443389,-0.2853475,0.2841705,4.3388229,-752.28517,-40.172841)"
       gradientUnits="userSpaceOnUse"
       id="radialGradient3430"
       xlink:href="#linearGradient4174" />
    <radialGradient
       r="54.613575"
       fy="118.94362"
       fx="27.96059"
       cy="118.94362"
       cx="27.96059"
       gradientTransform="matrix(0.218502,-0.0681785,0.7665978,2.4568331,-46.677697,-138.76422)"
       gradientUnits="userSpaceOnUse"
       id="radialGradient3432"
       xlink:href="#linearGradient11428" />
    <radialGradient
       r="33.8983"
       fy="65.784782"
       fx="56.312855"
       cy="77.167572"
       cx="62.261757"
       gradientTransform="matrix(0.4649621,1.0036473,-0.2853745,0.1958414,69.723794,-13.486394)"
       gradientUnits="userSpaceOnUse"
       id="radialGradient3434"
       xlink:href="#linearGradient2648" />
    <radialGradient
       r="33.8983"
       fy="66.948593"
       fx="22.596113"
       cy="66.948593"
       cx="22.596113"
       gradientTransform="matrix(1.0280267,-0.1270725,0.1208309,0.8628811,4.8158744,36.952411)"
       gradientUnits="userSpaceOnUse"
       id="radialGradient3436"
       xlink:href="#linearGradient2648" />
    <radialGradient
       r="4.9090157"
       fy="99.099472"
       fx="18.988297"
       cy="99.099472"
       cx="18.988297"
       gradientTransform="matrix(1.0280267,-0.1270725,0.1779489,1.2707731,-14.990972,-16.390537)"
       gradientUnits="userSpaceOnUse"
       id="radialGradient3438"
       xlink:href="#linearGradient6184" />
    <radialGradient
       r="4.9090157"
       fy="99.099472"
       fx="18.988297"
       cy="99.099472"
       cx="18.988297"
       gradientTransform="matrix(1.0280267,-0.1270725,0.1779489,1.2707731,-14.990972,-16.390537)"
       gradientUnits="userSpaceOnUse"
       id="radialGradient3440"
       xlink:href="#linearGradient6184" />
    <linearGradient
       xlink:href="#f"
       id="E"
       gradientUnits="userSpaceOnUse"
       gradientTransform="matrix(1.03294,0,0,1.03294,-59.414,-1122.2035)"
       x1="73.009003"
       y1="1086.4139"
       x2="73.009003"
       y2="1055.434" />
    <linearGradient
       id="f">
      <stop
         id="stop4324"
         stop-color="#fff"
         offset="0" />
      <stop
         id="stop4326"
         stop-color="#939393"
         offset="1" />
    </linearGradient>
    <linearGradient
       xlink:href="#linearGradient6184"
       id="F"
       gradientUnits="userSpaceOnUse"
       gradientTransform="matrix(1.03294,0,0,1.03294,-59.414,-1090.2035)"
       x1="73.009003"
       y1="1086.4139"
       x2="73.009003"
       y2="1070.924" />
  </defs>
  <metadata
     id="metadata1312">
    <rdf:RDF>
      <cc:Work
         rdf:about="">
        <dc:format>image/svg+xml</dc:format>
        <dc:type
           rdf:resource="http://purl.org/dc/dcmitype/StillImage" />
        <dc:title />
      </cc:Work>
    </rdf:RDF>
  </metadata>
  <g
     transform="translate(0,-96)"
     id="layer1">
    <g
       transform="translate(-2.5001168e-4,95.99975)"
       id="g46412"
       style="enable-background:new">
      <g
         id="g4276">
        <rect
           ry="3.878"
           y="-32.0005"
           height="32"
           width="32"
           transform="scale(1,-1)"
           id="rect4364"
           x="0"
           style="fill:url(#E);enable-background:new" />
        <rect
           ry="3.878"
           height="32"
           width="32"
           y="0.00050003629"
           id="rect4366"
           x="0"
           style="fill:url(#F);enable-background:new" />
        <rect
           ry="3.7550001"
           y="0.51050001"
           x="0.51099992"
           height="30.979"
           width="30.979"
           id="rect4426"
           style="fill:none;stroke:#939393;stroke-width:1.02100003;stroke-linecap:round;stroke-linejoin:round;enable-background:new" />
      </g>
    </g>
    <path
       style="fill:#ffffff;fill-opacity:0.75688076;fill-rule:nonzero;stroke:none"
       d="m -228.9185,-67.271774 0,-2.794709 0,2.794709 z"
       id="path2276" />
    <path
       style="fill:#ffffff;fill-opacity:0.75688076;fill-rule:nonzero;stroke:none"
       d="m 65.6909,-129.46266 0,-2.79471 0,2.79471 z"
       id="path2191" />
    <path
       id="path2860"
       d="m -52.477129,-94.134134 c -5.3396,0 -9.65625,4.316653 -9.65625,9.65625 l 0,8.375 -48.250001,0 c -5.3396,0 -9.65625,4.285407 -9.65625,9.625 l 0,40.750008 c 0,5.33959 4.31665,9.625 9.65625,9.625 l 57.906251,0 37.562499,0 1.0625,0 c 5.3396,0 9.625,-4.2854 9.625,-9.625 l 0,-58.750008 c 0,-5.339595 -4.28541,-9.65625 -9.625,-9.65625 l -38.624999,0 z"
       style="opacity:0.06147539;fill:none;stroke:none" />
    <path
       style="fill:#ffffff;fill-opacity:0.75688076;fill-rule:nonzero;stroke:none"
       d="m -91.3174,-199.09776 0,-2.79471 0,2.79471 z"
       id="path2985" />
    <path
       style="fill:#ffffff;fill-opacity:0.75688076;fill-rule:nonzero;stroke:none"
       d="m -210.8196,-285.72801 0,-2.79471 0,2.79471 z"
       id="path3206" />
    <g
       transform="translate(-27.868,-141.1464)"
       style="display:inline"
       id="layer4" />
    <g
       transform="translate(-27.868,-141.1464)"
       style="display:inline"
       id="layer5" />
    <path
       style="fill:#ffffff;fill-opacity:0.75688076;fill-rule:nonzero;stroke:none"
       d="m 35.7718,-219.97274 0,-2.79471 0,2.79471 z"
       id="path3946" />
    <path
       style="fill:#ffffff;fill-opacity:0.75688076;fill-rule:nonzero;stroke:none"
       d="m -56.852646,-146.07906 0,-1.52674 0,1.52674 z"
       id="path1561" />
    <rect
       y="-202.67905"
       x="-114.33738"
       height="0"
       width="1"
       id="rect1327"
       style="opacity:0.57786889;fill:#ffffff;fill-opacity:1;fill-rule:nonzero;stroke:none" />
    <rect
       y="-230.20667"
       x="-149.4642"
       height="0"
       width="1"
       id="rect2482"
       style="opacity:0.57786889;fill:#ffffff;fill-opacity:1;fill-rule:nonzero;stroke:none" />
    <path
       style="fill:#ffffff;fill-opacity:0.75688076;fill-rule:nonzero;stroke:none"
       d="m -308.40162,-303.42273 0,-2.79471 0,2.79471 z"
       id="path2494" />
    <g
       id="g4640"
       transform="matrix(-0.782995,0,0,0.650879,-2631.26,383.0949)"
       style="opacity:0.40163933" />
    <g
       style="opacity:0.40163933"
       transform="matrix(-0.782995,0,0,0.650879,-2631.26,383.0949)"
       id="g4646" />
    <g
       style="opacity:0.40163933"
       transform="matrix(1,0,0,0.650879,569.7028,390.4227)"
       id="g4730" />
    <g
       id="g4748"
       transform="matrix(1,0,0,0.650879,569.7028,390.4227)"
       style="opacity:0.40163933" />
    <g
       transform="matrix(0.2198873,0,0,0.21351391,1.8456002,98.098122)"
       id="g3353">
      <path
         style="fill:#000000;fill-opacity:1;fill-rule:evenodd;stroke:url(#radialGradient3390);stroke-width:1.57810318;stroke-linecap:round;stroke-linejoin:round;stroke-miterlimit:4;stroke-opacity:1;stroke-dasharray:none;filter:url(#filter3933)"
         d="m 99.787,3.875 c -0.38761,0.00147 -0.76398,0.010712 -1.156249,0.03125 -0.04111,0.00215 -0.08396,-0.00236 -0.125,0 -0.22868,0.013135 -1.083675,0.054918 -1.15625,0.0625 -0.06299,0.00658 -0.152795,-0.00489 -0.21875,0 -0.07118,0.00809 -0.14783,0.022534 -0.21875,0.03125 -0.641049,0.078775 -1.28857,0.184325 -1.90625,0.3125 -7.767306,1.4321718 -13.665922,6.636729 -14.84375,12.90625 -0.05158,0.265453 -0.09061,0.543458 -0.125,0.8125 -0.02137,0.176806 -0.0487,0.353035 -0.0625,0.53125 -0.0051,0.03258 -0.02643,0.09238 -0.03125,0.125 0,0 -3.381331,20.709517 -7.375,26.28125 -0.09795,0.136657 -0.232109,0.331624 -0.4375,0.5625 -1.440155,1.508485 -4.713324,4.672076 -8.78125,8.59375 -15.886657,15.088469 -47.18285,43.76734 -54.90625,52 -0.09039,0.0848 -1.0625,1 -1.0625,1 l 0.40625,-0.28125 c -0.52975,0.58685 -0.92924,1.04236 -1.09375,1.3125 -0.74532,1.2239 -1.2252,2.50943 -1.46875,3.8125 -0.00384,0.02 0.00373,0.0425 0,0.0625 -0.05528,0.3052 -0.095,0.60027 -0.125,0.90625 -0.00319,0.0302 0.00295,0.0636 0,0.0937 -0.02759,0.30674 -0.05941,0.63142 -0.0625,0.9375 -1.6e-4,0.0105 1.3e-4,0.0208 0,0.0312 -0.00226,0.30496 0.01003,0.6033 0.03125,0.90625 0.00136,0.0209 -0.00147,0.0416 0,0.0625 0.02281,0.30294 0.04832,0.60673 0.09375,0.90625 0.00301,0.0205 -0.00311,0.0421 0,0.0625 0.04694,0.29918 0.11882,0.58064 0.1875,0.875 0.05119,0.22628 0.12388,0.43341 0.1875,0.65625 0.02678,0.0919 0.03365,0.19003 0.0625,0.28125 0.00696,0.0224 0.02417,0.0401 0.03125,0.0625 0.01717,0.0533 0.04463,0.10322 0.0625,0.15625 0.17386,0.52494 0.35425,1.06545 0.59375,1.5625 0.00986,0.0202 0.02128,0.0423 0.03125,0.0625 2.01346,4.12141 6.21584,7.11428 11.125,6.6875 0.2621,-0.0174 0.54635,-0.0564 0.8125,-0.0937 0.0099,-0.002 0.02138,0.002 0.03125,0 0.07192,-0.0103 0.14655,-0.0195 0.21875,-0.0312 1.12838,-0.18406 2.29152,-0.58032 3.46875,-1.15625 0.728,-0.33876 1.4502,-0.7455 2.1875,-1.25 7.777258,-5.32167 54.751551,-63.992351 61.09375,-68.09375 0.1357,-0.08776 0.329542,-0.189751 0.5,-0.28125 7.345999,-3.210548 14.400649,-3.647728 21.781249,-6.1875 2.38889,-0.54638 4,-0.90625 4,-0.90625 0.005,0.0011 0.0265,-5.44e-4 0.0312,0 0.004,-5e-5 0.0272,6.35e-4 0.0312,0 0.003,-0.0018 0.0283,-0.02887 0.0312,-0.03125 0.002,-0.0041 0.0297,-0.02661 0.0312,-0.03125 0.001,-0.0052 -8.9e-4,-0.0255 0,-0.03125 5e-4,-0.0057 0.001,-0.02191 0,-0.03125 0.003,-7.45e-4 0.125,-0.03125 0.125,-0.03125 0.16232,0.03646 0.13926,-0.207499 -0.0312,-0.71875 4.28901,-2.22562 9.82067,-8.273651 11.90625,-17.03125 0.10101,-0.424119 -0.19444,-3.348789 -0.3125,-3.53125 0.0146,-0.06414 0.0481,-0.123214 0.0625,-0.1875 l -13.3125,6.28125 -8.21875,-5.46875 c -0.88732,-1.738808 -1.71153,-3.319499 -2.21875,-4.40625 4e-5,-4.127866 -0.0033,-4.478058 0.375,-8.21875 5.07467,-1.997762 14.03125,-5.4375 14.03125,-5.4375 -0.0105,-0.010082 -0.0208,-0.021191 -0.0312,-0.03125 0.0126,-0.00482 0.28125,-0.09375 0.28125,-0.09375 C 110.85113,5.9411151 105.6011,3.8529483 99.787,3.875 z M 16.943251,106.71875 c 2.45674,-0.0582 4.83751,1.56017 6.15625,3.90625 0.10908,0.19885 0.21919,0.38518 0.3125,0.59375 0.0099,0.0216 0.02152,0.0408 0.03125,0.0625 0.09209,0.21044 0.175131,0.43724 0.25,0.65625 0.0076,0.0216 0.02382,0.0408 0.03125,0.0625 0.121128,0.36439 0.21215,0.74151 0.28125,1.125 0.03177,0.16659 0.04132,0.33035 0.0625,0.5 0.02294,0.19692 0.05445,0.3935 0.0625,0.59375 0.127034,3.16042 -2.7388,6.43578 -6,7.15625 -0.16457,0.0225 -0.3344,0.0226 -0.5,0.0312 -3.65242,0.19122 -7.36535,-3.46519 -7.59375,-7.28125 -0.15736,-2.62913 1.26481,-5.26077 3.78125,-6.625 0.61117,-0.30037 1.30564,-0.54914 2.03125,-0.6875 0.06063,-0.009 0.12592,0.007 0.1875,0 0.29518,-0.0452 0.59518,-0.0769 0.90625,-0.0937 z"
         id="path3762" />
      <g
         id="g8758"
         transform="matrix(0.9702732,-0.06291178,0.06900478,0.9451966,-53.4637,27.488536)">
        <path
           id="path3285"
           d="m 181.67604,9.099418 -14.13212,5.699466 -8.155,-6.393046 c -1.0714,1.417425 -1.8863,21.693357 3.10193,21.520607 9.13195,-0.316254 15.80573,-9.325742 19.18519,-20.827027 z"
           style="fill:#888a85;fill-opacity:1;fill-rule:evenodd;stroke:url(#radialGradient3392);stroke-width:1.64400005;stroke-linecap:round;stroke-linejoin:round;stroke-miterlimit:4;stroke-opacity:1;stroke-dasharray:none" />
        <path
           id="path3293"
           d="m 181.16095,9.7597789 -13.40625,5.4062501 -0.84375,9.4375 1.53125,4.15625 c 5.84622,-3.223357 10.19566,-10.413188 12.71875,-19.0000001 z"
           style="opacity:0.51376145;fill:url(#radialGradient3394);fill-opacity:1;fill-rule:evenodd;stroke:none" />
        <path
           id="path5936"
           d="m 159.31603,8.5972985 c -0.004,0.00554 -0.0271,0.02514 -0.0312,0.03125 -0.008,0.013357 -0.023,0.046897 -0.0312,0.0625 -1.03857,2.0973105 -1.73455,21.6068755 3.15625,21.4374995 1.08085,-0.03743 2.14566,-0.198035 3.15625,-0.46875 l 0.6875,-15.59375 -6.9375,-5.4687495 z"
           style="opacity:0.51376145;fill:url(#radialGradient3396);fill-opacity:1;fill-rule:evenodd;stroke:none" />
      </g>
      <path
         style="fill:#888a85;fill-opacity:1;fill-rule:evenodd;stroke:none"
         d="m 96.407112,2.0934337 c -9.006677,1.10679 -15.853729,7.2281576 -16.414062,14.4622933 -0.0051,0.03257 -0.02046,0.102065 -0.02528,0.134682 0,0 -3.372795,20.719473 -7.366464,26.291206 -3.134494,4.373038 -63.0566574,58.537925 -65.879723,63.173695 -5.96259731,9.79119 5.156855,23.75388 16.953634,15.68182 7.777263,-5.32168 54.734833,-63.975733 61.077032,-68.077132 4.286904,-2.772282 26.554971,-7.518913 26.554971,-7.518913 1.29851,0.291691 -9.27869,-18.990813 -12.124836,-25.088868 4e-5,-4.141922 -0.009,-4.477931 0.37325,-8.254629 5.027286,-1.981773 14.280846,-5.5153873 14.280846,-5.5153873 -3.69826,-3.562812 -9.42386,-5.707913 -15.700166,-5.3793021 -0.04111,0.00215 -0.09195,0.0046 -0.13299,0.00696 -0.22868,0.013135 -1.05808,0.051617 -1.130654,0.059198 -0.06299,0.00658 -0.166822,0.00729 -0.232778,0.012188 -0.07118,0.00809 -0.161856,0.00347 -0.232776,0.012187 z M 16.792733,104.64842 c 3.652459,-0.19123 7.185809,3.35542 7.35492,7.56267 0.139905,3.48066 -3.3408,7.10973 -6.993246,7.30096 -3.652434,0.19123 -7.3745654,-3.4804 -7.6029684,-7.29645 -0.219475,-3.66701 2.6251024,-7.32549 7.2412944,-7.56718 z"
         id="path2388" />
      <path
         id="path21956"
         d="M 96.920143,1.9928089 C 87.913471,3.0995969 81.066421,9.2209652 80.506086,16.4551 c -0.0051,0.03257 -0.02046,0.102066 -0.02528,0.134683 0,0 -3.372795,20.719472 -7.366464,26.291206 -3.134498,4.373038 -63.056651,58.537921 -65.8797225,63.173691 -5.9625973,9.79118 5.1568545,23.75387 16.9536345,15.68181 7.777255,-5.32167 54.734831,-63.97572 61.07703,-68.077119 4.286905,-2.772282 26.554966,-7.518911 26.554966,-7.518911 1.29851,0.29169 -9.27869,-18.990813 -12.124837,-25.088868 4e-5,-4.141922 -0.009,-4.477932 0.373247,-8.254629 5.02729,-1.981773 14.28085,-5.5153879 14.28085,-5.5153879 -3.69826,-3.5628105 -9.42386,-5.7079123 -15.700167,-5.3793014 -0.04111,0.00215 -0.09195,0.0046 -0.13299,0.00696 -0.22868,0.013135 -1.058079,0.051615 -1.130654,0.059197 -0.06299,0.00658 -0.166822,0.00729 -0.232777,0.012188 -0.07118,0.00809 -0.161856,0.00347 -0.232776,0.012188 z M 17.30577,104.5478 c 3.652452,-0.19123 7.185815,3.3554 7.35492,7.56265 0.139906,3.48066 -3.340799,7.10973 -6.993253,7.30097 -3.652427,0.19122 -7.374564,-3.4804 -7.60296,-7.29646 -0.2194764,-3.667 2.625107,-7.32547 7.241293,-7.56716 z"
         style="fill:url(#radialGradient3398);fill-opacity:1;fill-rule:evenodd;stroke:none" />
      <path
         style="fill:url(#radialGradient3400);fill-opacity:1;fill-rule:evenodd;stroke:none"
         d="m 82.022813,17.158216 7.476733,16.244342 3.18391,-1.357171 5.282584,11.829504 -2.618444,1.242964 3.598414,4.701128 c 5.94399,-1.490277 12.35515,-4.03493 12.35515,-4.03493 0.005,5.49e-4 0.0281,-0.0016 0.0324,-0.0017 0.004,-6.32e-4 0.0288,-4.66e-4 0.0324,-0.0017 0.003,-0.0029 0.0283,-0.0289 0.0306,-0.03242 0.002,-0.0046 -0.003,-0.02554 -0.002,-0.03073 0.002,-0.01149 0.0283,-0.04947 0.0287,-0.06315 -0.0255,-1.778824 -9.5371,-19.209589 -12.20663,-24.951553 -0.003,-4.141547 0.0036,-4.474387 0.38103,-8.250493 4.99941,-1.978326 14.22909,-5.1079947 14.22909,-5.1079947 C 110.14548,3.7794616 102.58604,2.2249011 96.949357,3.270741 88.095754,4.9134527 82.839455,10.203925 82.022813,17.158216 z"
         id="path9661" />
      <path
         style="fill:url(#radialGradient3402);fill-opacity:1;fill-rule:evenodd;stroke:none"
         d="M 95.37965,2.3079607 C 86.892997,3.7422551 80.538502,9.6902535 80.000071,16.641803 c -0.0051,0.03257 -0.01056,0.09088 -0.01539,0.123494 -1.1e-5,3e-6 -3.370986,20.720966 -7.364666,26.2927 -3.134487,4.373037 -63.0751704,58.530253 -65.8982471,63.166023 -5.96259731,9.79118 5.1719001,23.75744 16.9686721,15.68539 7.777263,-5.32168 54.750843,-63.972709 61.093043,-68.074108 4.286893,-2.77228 26.528407,-7.534856 26.528407,-7.534856 0.005,0.0011 0.0316,0.02537 0.0363,0.02591 0.004,-4.8e-5 0.0281,-0.0033 0.0321,-0.004 0.003,-0.0018 0.025,-0.03148 0.0279,-0.03385 0.002,-0.0041 0.0264,-0.02921 0.0279,-0.03385 0.001,-0.0052 -0.005,-0.02413 -0.004,-0.02988 0.002,-0.01889 -0.0113,-0.06589 -0.0126,-0.08964 -0.1795,-2.019876 -9.55658,-19.213077 -12.213732,-24.906183 3e-5,-4.141921 -0.0021,-4.477765 0.38017,-8.254463 5.027292,-1.98177 14.259032,-5.5318912 14.259032,-5.5318912 -3.69826,-3.5628119 -9.40943,-5.6852545 -15.685732,-5.3566443 -0.04111,0.00215 -0.09165,-0.016355 -0.13269,-0.013997 -0.22868,0.013135 -1.060197,0.071643 -1.132772,0.079224 -0.063,0.00658 -0.16311,-0.00698 -0.229065,-0.00208 -0.06229,0.00708 -0.159045,0.022733 -0.22488,0.027797 -0.351826,0.043235 -0.715165,0.072739 -1.060153,0.1310439 z m 1.356026,1.0483056 c 5.604764,-0.9619721 12.944854,0.2183998 16.568794,3.7275876 0,0 -9.16323,3.5416501 -14.16265,5.5199791 -0.37744,3.776106 -0.38317,4.112916 -0.38017,8.254463 2.64868,5.697105 12.01022,22.904231 12.18161,24.910153 3.9e-4,0.0074 0.004,0.02293 0.004,0.02988 -0.005,0.01133 -0.0183,0.05295 -0.0238,0.06373 2.4e-4,0.0028 0.004,0.02665 0.004,0.02988 -0.007,0.0073 -0.0267,0.03238 -0.0279,0.03385 -0.007,1.9e-4 -0.0301,0.0037 -0.0321,0.004 -0.003,2.43e-4 -0.0292,0.0038 -0.0321,0.004 0,0 -7.10909,1.217519 -13.05309,2.707798 L 96.000978,46.055871 99.49838,43.760695 93.103661,31.367651 88.691484,32.898992 81.562893,17.299771 c 0.816633,-6.95429 6.066367,-12.2391452 14.919961,-13.8818563 0.08807,-0.01634 0.163859,-0.046379 0.252822,-0.061648 z M 15.64722,104.84718 c 0.369716,-0.0691 0.764014,-0.0923 1.160711,-0.11307 3.652448,-0.19123 7.194398,3.33321 7.363513,7.54046 0.139907,3.48066 -3.363433,7.12037 -7.015889,7.31161 -3.652441,0.19123 -7.3628234,-3.48348 -7.5912294,-7.29954 -0.200604,-3.35187 2.1504664,-6.70476 6.0828944,-7.43946 z"
         id="path23730" />
      <path
         id="path27250"
         d="M 95.627579,2.2773147 C 87.140931,3.7116079 80.786436,9.6596062 80.248005,16.611157 c -0.0051,0.03257 -0.01056,0.09088 -0.01539,0.123493 -1.1e-5,4e-6 -3.37099,20.720967 -7.36467,26.292701 C 69.733461,47.400388 9.7927726,101.5576 6.9696971,106.19338 1.0070949,115.98455 12.1416,129.9508 23.938372,121.87875 31.715635,116.55707 78.689216,57.906055 85.031418,53.804656 89.318313,51.032375 111.55982,46.2698 111.55982,46.2698 c 0.005,0.0011 0.0316,0.02537 0.0363,0.02591 0.004,-4.8e-5 0.0281,-0.0033 0.0321,-0.004 0.003,-0.0018 0.025,-0.03148 0.0279,-0.03385 0.002,-0.0041 0.0264,-0.02921 0.0279,-0.03385 10e-4,-0.0052 -0.005,-0.02413 -0.004,-0.02988 0.002,-0.01889 -0.0113,-0.06589 -0.0126,-0.08964 -0.1795,-2.019876 -9.55658,-19.213077 -12.21373,-24.906182 3e-5,-4.141921 -0.0021,-4.477766 0.38016,-8.254464 5.02729,-1.981771 14.25904,-5.5318912 14.25904,-5.5318912 -3.69826,-3.5628127 -9.40943,-5.6852552 -15.68573,-5.356645 -0.04112,0.00215 -0.09165,-0.016355 -0.13269,-0.013996 -0.22868,0.013134 -1.060198,0.071643 -1.132773,0.079223 -0.063,0.00658 -0.163111,-0.00698 -0.229065,-0.00208 -0.06229,0.00708 -0.159043,0.022734 -0.224881,0.027798 -0.351826,0.043235 -0.715163,0.072739 -1.060152,0.1310439 z m 1.356026,1.0483049 c 5.604765,-0.9619728 12.944855,0.2184005 16.568795,3.727589 0,0 -9.16324,3.5416504 -14.16266,5.5199774 -0.37743,3.776107 -0.38316,4.112917 -0.38016,8.254464 2.64867,5.697105 12.01022,22.904231 12.18161,24.910153 3.9e-4,0.0074 0.004,0.02293 0.004,0.02988 -0.005,0.01133 -0.0183,0.05295 -0.0237,0.06373 2.4e-4,0.0028 0.004,0.02666 0.004,0.02988 -0.007,0.0073 -0.0266,0.03238 -0.0279,0.03385 -0.007,1.91e-4 -0.0301,0.0037 -0.0321,0.004 -0.003,2.43e-4 -0.0292,0.0038 -0.0321,0.004 0,0 -7.10909,1.217519 -13.05309,2.707797 L 96.152029,45.33341 99.92966,43.238192 94.063095,31.014461 89.090472,32.145885 81.810827,17.269124 c 0.816634,-6.95429 6.066367,-12.2391454 14.919956,-13.8818553 0.08807,-0.016341 0.16386,-0.04638 0.252822,-0.061649 z M 15.895147,104.81653 c 0.369723,-0.0691 0.764013,-0.0923 1.160717,-0.11308 3.652444,-0.19122 7.194395,3.33322 7.363509,7.54046 0.139908,3.48066 -3.363432,7.12037 -7.015889,7.31161 -3.65244,0.19124 -7.362822,-3.48348 -7.5912284,-7.29953 -0.200602,-3.35187 2.1504634,-6.70475 6.0828914,-7.43946 z"
         style="fill:url(#radialGradient3404);fill-opacity:1;fill-rule:evenodd;stroke:none" />
      <g
         id="g22839"
         transform="matrix(1.0280267,-0.1270725,0.1338966,0.9561867,-10.625435,14.784763)">
        <rect
           transform="matrix(0.956291,-0.292417,0.309707,0.950832,0,0)"
           y="58"
           x="68.625313"
           height="13.094864"
           width="13.399776"
           id="rect10551"
           style="fill:#2e3436;fill-opacity:1;fill-rule:evenodd;stroke:url(#radialGradient3406);stroke-width:1.54412687;stroke-linecap:round;stroke-linejoin:round;stroke-miterlimit:4;stroke-opacity:1;stroke-dasharray:none" />
        <rect
           style="fill:url(#radialGradient3408);fill-opacity:1;fill-rule:evenodd;stroke:none"
           id="rect14950"
           width="7.7254124"
           height="11.043238"
           x="71.562981"
           y="55.691086"
           transform="matrix(0.967683,-0.25217,0.307423,0.951573,0,0)" />
        <rect
           transform="matrix(0.98605,-0.16645,0.08671967,0.996233,0,0)"
           ry="0"
           y="49.742821"
           x="82.51152"
           height="1.2325668"
           width="11.254695"
           id="rect10553"
           style="fill:url(#radialGradient3410);fill-opacity:1;fill-rule:evenodd;stroke:url(#linearGradient3412);stroke-width:0.38432986;stroke-linecap:round;stroke-linejoin:round;stroke-miterlimit:4;stroke-opacity:1;stroke-dasharray:none" />
        <rect
           style="fill:url(#radialGradient3414);fill-opacity:1;fill-rule:evenodd;stroke:url(#linearGradient3416);stroke-width:0.35075644;stroke-linecap:round;stroke-linejoin:round;stroke-miterlimit:4;stroke-opacity:1;stroke-dasharray:none"
           id="rect14938"
           width="10.960242"
           height="1.0542099"
           x="83.72757"
           y="56.036003"
           ry="0"
           transform="matrix(0.989282,-0.14602,0.09906172,0.995081,0,0)" />
        <rect
           transform="matrix(0.990631,-0.136567,0.105988,0.994367,0,0)"
           ry="0"
           y="51.249149"
           x="81.907768"
           height="1.0507048"
           width="11.671585"
           id="rect14944"
           style="fill:url(#radialGradient3418);fill-opacity:1;fill-rule:evenodd;stroke:url(#linearGradient3420);stroke-width:0.36135769;stroke-linecap:round;stroke-linejoin:round;stroke-miterlimit:4;stroke-opacity:1;stroke-dasharray:none" />
      </g>
      <path
         style="fill:url(#linearGradient3422);fill-opacity:1;fill-rule:evenodd;stroke:none;filter:url(#filter3737)"
         d="m 99.2677,12.983285 14.24754,-5.499896 0.64447,1.6900843 -14.93125,5.9161787 0.03924,-2.106367 z"
         id="rect22846" />
      <path
         style="fill:url(#linearGradient3424);fill-opacity:1;fill-rule:evenodd;stroke:none"
         d="m 110.6256,44.083197 c 4.16016,-0.788867 10.66003,-9.472209 12.73946,-19.223901 0.0925,-0.433768 0.42564,3.057917 0.31495,3.522705 -2.1447,9.005862 -7.92928,15.152605 -12.2638,17.217183 -0.2564,0.122122 0.0298,1.726102 -0.79061,-1.515987 z"
         id="rect25493" />
      <path
         id="path27254"
         d="m 82.637435,16.143859 6.549595,16.828136 4.024578,-0.757297 5.498222,11.568254 -3.265358,2.026717 2.380648,3.20948 c 5.94399,-1.490278 12.35515,-4.034931 12.35515,-4.034931 0.005,5.5e-4 0.0281,-0.0016 0.0324,-0.0017 0.004,-6.33e-4 0.0288,-4.67e-4 0.0324,-0.0017 0.003,-0.0029 0.0284,-0.0289 0.0306,-0.03242 0.002,-0.0046 -0.003,-0.02554 -0.002,-0.03073 0.002,-0.01149 0.0283,-0.04947 0.0287,-0.06314 -0.0255,-1.778825 -9.53709,-19.20959 -12.20662,-24.951553 -0.003,-4.141547 0.0036,-4.474388 0.38103,-8.250494 4.99941,-1.9783252 13.18461,-5.3923853 13.18461,-5.3923853 C 107.98012,2.6952353 101.65891,2.8086948 96.022224,3.8545354 87.168617,5.4972474 83.454078,9.1895676 82.637435,16.143859 z"
         style="fill:url(#radialGradient3426);fill-opacity:1;fill-rule:evenodd;stroke:none;filter:url(#filter3985)" />
      <path
         style="opacity:0.3853211;fill:#000000;fill-opacity:1;fill-rule:evenodd;stroke:none"
         d="m 7.3940916,105.13388 c 0,0 61.6058644,-57.798833 65.5952104,-62.509902 3.830719,-4.523743 7.179199,-25.083938 7.179199,-25.083938 0,0 2.099396,-1.422428 1.698281,-0.189078 -0.549591,1.689879 -5.892888,22.437267 -7.204412,24.451878 -2.987804,4.589519 -19.946203,19.731389 -19.946203,19.731389 l -41.434443,39.364041 -5.8876324,4.23561 z"
         id="rect30766" />
      <path
         style="opacity:0.89449541;fill:url(#radialGradient3428);fill-opacity:1;fill-rule:evenodd;stroke:none"
         d="m 17.910823,120.66107 c 0,0 -4.758812,0.0749 -7.265533,-3.07512 -2.5067274,-3.15 -2.7163134,-7.96065 -2.7163134,-7.96065 l 0.550378,-0.82443 c 0,0 0.495154,4.82614 2.7533634,7.8753 2.301478,3.10756 7.238333,3.28453 7.161393,3.41309 l -0.483288,0.57181 z"
         id="path34274" />
      <path
         style="fill:#000000;fill-opacity:1;fill-rule:evenodd;stroke:none"
         d="m 109.06927,30.29602 c -0.0834,0.269367 0.2624,8.336725 0.31254,8.621859 0.1201,4.429678 1.17074,4.697551 1.28619,5.491562 0.8564,-0.325814 0.2753,0.08044 1.04576,-0.396065 -0.0737,-0.387297 -1.16364,-3.087824 -1.61383,-4.056245 0.0386,-2.203134 0.0457,-8.382588 0.0548,-8.968831 -0.41562,-0.278109 -0.57522,-0.389031 -1.08548,-0.69228 z"
         id="path34280" />
      <path
         style="opacity:0.51376145;fill:url(#radialGradient3430);fill-opacity:1;fill-rule:evenodd;stroke:none"
         d="m 122.85659,25.194942 -12.63467,5.953381 -0.16743,8.973375 1.77253,3.83214 c 5.45,-3.414502 9.17402,-10.483938 11.02957,-18.758896 z"
         id="path34301" />
      <path
         style="fill:url(#radialGradient3432);fill-opacity:1;fill-rule:evenodd;stroke:none"
         d="M 95.627579,2.2773147 C 87.140931,3.7116079 80.786436,9.6596062 80.248005,16.611157 c -0.0051,0.03257 -0.01056,0.09088 -0.01539,0.123493 -1.1e-5,4e-6 -3.37099,20.720967 -7.36467,26.292701 C 69.733461,47.400388 9.7927726,101.5576 6.9696971,106.19338 1.0070949,115.98455 12.1416,129.9508 23.938372,121.87875 31.715635,116.55707 78.689216,57.906055 85.031418,53.804656 89.318313,51.032375 111.55982,46.2698 111.55982,46.2698 c 0.005,0.0011 0.0316,0.02537 0.0363,0.02591 0.004,-4.8e-5 0.0281,-0.0033 0.0321,-0.004 0.003,-0.0018 0.025,-0.03148 0.0279,-0.03385 0.002,-0.0041 0.0264,-0.02921 0.0279,-0.03385 10e-4,-0.0052 -0.005,-0.02413 -0.004,-0.02988 0.002,-0.01889 -0.0113,-0.06589 -0.0126,-0.08964 -0.1795,-2.019876 -9.55658,-19.213077 -12.21373,-24.906182 3e-5,-4.141921 -0.0021,-4.477766 0.38016,-8.254464 5.02729,-1.981771 14.25904,-5.5318912 14.25904,-5.5318912 -3.69826,-3.5628127 -9.40943,-5.6852552 -15.68573,-5.356645 -0.04112,0.00215 -0.09165,-0.016355 -0.13269,-0.013996 -0.22868,0.013134 -1.060198,0.071643 -1.132773,0.079223 -0.063,0.00658 -0.163111,-0.00698 -0.229065,-0.00208 -0.06229,0.00708 -0.159043,0.022734 -0.224881,0.027798 -0.351826,0.043235 -0.715163,0.072739 -1.060152,0.1310439 z m 1.356026,1.0483049 c 5.604765,-0.9619728 12.944855,0.2184005 16.568795,3.727589 0,0 -9.16324,3.5416504 -14.16266,5.5199774 -0.37743,3.776107 -0.38316,4.112917 -0.38016,8.254464 2.64867,5.697105 12.01022,22.904231 12.18161,24.910153 3.9e-4,0.0074 0.004,0.02293 0.004,0.02988 -0.005,0.01133 -0.0183,0.05295 -0.0237,0.06373 2.4e-4,0.0028 0.004,0.02666 0.004,0.02988 -0.007,0.0073 -0.0266,0.03238 -0.0279,0.03385 -0.007,1.91e-4 -0.0301,0.0037 -0.0321,0.004 -0.003,2.43e-4 -0.0292,0.0038 -0.0321,0.004 0,0 -7.10909,1.217519 -13.05309,2.707797 L 96.152029,45.33341 99.92966,43.238192 94.063095,31.014461 89.090472,32.145885 81.810827,17.269124 c 0.816634,-6.95429 6.066367,-12.2391454 14.919956,-13.8818553 0.08807,-0.016341 0.16386,-0.04638 0.252822,-0.061649 z M 15.895147,104.81653 c 0.369723,-0.0691 0.764013,-0.0923 1.160717,-0.11308 3.652444,-0.19122 7.194395,3.33322 7.363509,7.54046 0.139908,3.48066 -3.363432,7.12037 -7.015889,7.31161 -3.65244,0.19124 -7.362822,-3.48348 -7.5912284,-7.29953 -0.200602,-3.35187 2.1504634,-6.70475 6.0828914,-7.43946 z"
         id="path3752" />
      <path
         style="fill:#888a85;fill-opacity:1;fill-rule:evenodd;stroke:none"
         d="m 16.232154,102.01072 c 5.542991,-1.30497 11.850216,4.9107 10.634504,10.77082 4.148589,-3.435 51.888934,-56.678298 52.878909,-59.240393 1.515966,-3.923382 -2.578082,-7.468416 -6.472096,-5.79737 -2.716058,1.165545 -57.402108,54.351883 -57.041317,54.266943 z"
         id="path30758" />
      <path
         style="opacity:0.8;fill:#000000;fill-opacity:1;fill-rule:evenodd;stroke:none"
         d="m 16.232154,102.01072 c 5.542991,-1.30497 11.850216,4.9107 10.634504,10.77082 4.148589,-3.435 51.888934,-56.678298 52.878909,-59.240393 1.515966,-3.923382 -2.578082,-7.468416 -6.472096,-5.79737 -2.716058,1.165545 -57.402108,54.351883 -57.041317,54.266943 z"
         id="path7295" />
      <path
         style="opacity:0.27722772;fill:url(#radialGradient3434);fill-opacity:1;fill-rule:evenodd;stroke:none"
         d="m 16.232154,102.01072 c 5.542991,-1.30497 11.850216,4.9107 10.634504,10.77082 4.148589,-3.435 51.888934,-56.678298 52.878909,-59.240393 1.515966,-3.923382 -2.578082,-7.468416 -6.472096,-5.79737 -2.716058,1.165545 -57.402108,54.351883 -57.041317,54.266943 z"
         id="path4003" />
      <path
         id="path1773"
         d="m 16.232154,102.01072 c 5.542991,-1.30497 11.850216,4.9107 10.634504,10.77082 4.148589,-3.435 51.888934,-56.678298 52.878909,-59.240393 1.515966,-3.923382 -2.578082,-7.468416 -6.472096,-5.79737 -2.716058,1.165545 -57.402108,54.351883 -57.041317,54.266943 z"
         style="opacity:0.5;fill:url(#radialGradient3436);fill-opacity:1;fill-rule:evenodd;stroke:none" />
      <path
         style="opacity:0.40366971;fill:#2e3436;fill-opacity:1;fill-rule:evenodd;stroke:none"
         d="m 73.187648,47.861864 c 0.304157,-0.187382 2.875741,-1.470035 5.250175,0.619594 2.026842,1.783732 1.75363,3.629711 1.188913,5.291315 -0.272716,0.80243 -22.190145,25.654653 -26.124661,30.176498 -1.934704,2.223509 -8.555253,9.46003 -14.629769,16.144579 -6.128605,6.74407 -11.883964,12.59402 -11.883964,12.59402 0,0 51.929323,-57.887948 52.242985,-59.467212 0.459811,-2.315109 -0.488446,-3.051963 -1.269992,-3.791501 -0.796519,-0.753703 -2.198023,-1.596044 -4.105583,-1.208905 -2.63055,0.533867 -56.501715,53.331948 -57.521095,53.719358 0,0 12.936333,-12.809079 26.5886,-25.982915 C 56.575524,62.78286 70.943728,49.244268 73.187648,47.861864 z"
         id="path2271" />
      <path
         id="path2660"
         d="m 16.748453,101.47356 c 0,0 4.295757,-1.03111 7.966389,2.40881 4.014319,3.762 2.793249,8.2417 2.793249,8.2417 l -0.645563,0.77086 c 0,0 0.353049,-1.71439 -0.06429,-3.39624 -0.417342,-1.68186 -1.30398,-3.40987 -2.815054,-4.80097 -1.489067,-1.37084 -2.900596,-2.25341 -4.434227,-2.5817 -1.533631,-0.32828 -3.277011,-0.0915 -3.242053,-0.15744 l 0.441553,-0.48502 z"
         style="fill:url(#radialGradient3438);fill-opacity:1;fill-rule:evenodd;stroke:none" />
      <path
         style="fill:url(#radialGradient3440);fill-opacity:1;fill-rule:evenodd;stroke:none"
         d="m 16.748453,101.47356 c 0,0 4.295757,-1.03111 7.966389,2.40881 4.014319,3.762 2.793249,8.2417 2.793249,8.2417 l -0.645563,0.77086 c 0,0 0.353049,-1.71439 -0.06429,-3.39624 -0.417342,-1.68186 -1.30398,-3.40987 -2.815054,-4.80097 -1.489067,-1.37084 -2.900596,-2.25341 -4.434227,-2.5817 -1.533631,-0.32828 -3.277011,-0.0915 -3.242053,-0.15744 l 0.441553,-0.48502 z"
         id="path6192" />
      <path
         style="fill:#ffffff;fill-opacity:1;fill-rule:evenodd;stroke:none;filter:url(#filter3989)"
         d="M 104.608,3.1939149 C 92.616145,2.2045921 83.866393,6.3602734 82.450397,15.463498 84.09662,8.5060072 91.399094,2.8573689 104.608,3.1939149 z"
         id="path3939" />
      <path
         id="path3993"
         d="M 104.608,3.1939149 C 92.465413,1.4810786 82.871562,5.8477846 82.450397,15.463498 84.759841,8.6265928 91.399094,3.1286865 104.608,3.1939149 z"
         style="opacity:0.77722772;fill:#ffffff;fill-opacity:1;fill-rule:evenodd;stroke:none;filter:url(#filter3995)" />
      <path
         style="opacity:0.77722772;fill:#ffffff;fill-opacity:1;fill-rule:evenodd;stroke:none;filter:url(#filter3995)"
         id="path4001"
         d="m 99.8125,3.15625 c -4.781941,-0.02921 -8.938841,0.9715016 -11.9375,3 -2.554741,1.7282017 -4.286688,4.178924 -4.90625,7.3125 2.490754,-5.1802206 7.770488,-9.2919522 16.84375,-10.3125 z" />
      <path
         style="opacity:0.5;fill:#000000;fill-opacity:1;fill-rule:evenodd;stroke:none"
         d="m 75.434671,47.3125 c -0.705894,-0.02155 -1.426122,0.124179 -2.15625,0.4375 -2.716058,1.165544 -57.392041,54.33494 -57.03125,54.25 0.377005,-0.0888 0.743532,-0.1346 1.125,-0.15625 5.831453,-5.884125 53.363515,-52.002584 55.90625,-53.09375 3.117022,-1.337614 6.356572,0.665759 6.75,3.53125 0.257477,-2.663561 -1.943805,-4.887869 -4.59375,-4.96875 z m -48.4375,64.375 c -0.01923,0.36711 -0.04902,0.72749 -0.125,1.09375 0.02334,-0.0193 0.09892,-0.0713 0.125,-0.0937 5.49e-4,-0.0105 -5.05e-4,-0.0208 0,-0.0312 0.01565,-0.32513 0.02578,-0.64588 0,-0.96875 z"
         id="path3741" />
    </g>
  </g>
</svg>
