<?xml version="1.0" encoding="UTF-8" standalone="no"?>
<svg
   xmlns:dc="http://purl.org/dc/elements/1.1/"
   xmlns:cc="http://creativecommons.org/ns#"
   xmlns:rdf="http://www.w3.org/1999/02/22-rdf-syntax-ns#"
   xmlns:svg="http://www.w3.org/2000/svg"
   xmlns="http://www.w3.org/2000/svg"
   xmlns:xlink="http://www.w3.org/1999/xlink"
   version="1.0"
   id="svg2"
   height="128"
   width="128">
  <defs
     id="defs4">
    <linearGradient
       id="linearGradient3327">
      <stop
         id="stop3329"
         offset="0"
         style="stop-color:#ffffff;stop-opacity:1;" />
      <stop
         id="stop3331"
         offset="1"
         style="stop-color:#ffffff;stop-opacity:0;" />
    </linearGradient>
    <linearGradient
       id="linearGradient4150">
      <stop
         id="stop4152"
         offset="0"
         style="stop-color:#bfffbf;stop-opacity:1;" />
      <stop
         id="stop4154"
         offset="1"
         style="stop-color:#bfffbf;stop-opacity:0;" />
    </linearGradient>
    <linearGradient
       id="linearGradient3355">
      <stop
         style="stop-color:#e0ffe0;stop-opacity:1"
         offset="0"
         id="stop3357" />
      <stop
         style="stop-color:#bfffbf;stop-opacity:0"
         offset="1"
         id="stop3359" />
    </linearGradient>
    <linearGradient
       id="linearGradient3349">
      <stop
         style="stop-color:#00dd00;stop-opacity:1"
         offset="0"
         id="stop3351" />
      <stop
         style="stop-color:#000e00;stop-opacity:1"
         offset="1"
         id="stop3353" />
    </linearGradient>
    <linearGradient
       id="linearGradient3342">
      <stop
         id="stop3344"
         offset="0"
         style="stop-color:#00ff00;stop-opacity:1" />
      <stop
         id="stop3346"
         offset="1"
         style="stop-color:#004d00;stop-opacity:1" />
    </linearGradient>
    <linearGradient
       id="linearGradient3710">
      <stop
         id="stop3712"
         offset="0"
         style="stop-color:#ffffff;stop-opacity:1;" />
      <stop
         id="stop3714"
         offset="1"
         style="stop-color:#ffffff;stop-opacity:0;" />
    </linearGradient>
    <linearGradient
       id="linearGradient3689">
      <stop
         style="stop-color:#f0ff80;stop-opacity:1"
         offset="0"
         id="stop3691" />
      <stop
         style="stop-color:#f0ff80;stop-opacity:0"
         offset="1"
         id="stop3693" />
    </linearGradient>
    <linearGradient
       id="linearGradient3669">
      <stop
         id="stop3671"
         offset="0"
         style="stop-color:#ffffff;stop-opacity:1;" />
      <stop
         id="stop3673"
         offset="1"
         style="stop-color:#ffffff;stop-opacity:0;" />
    </linearGradient>
    <linearGradient
       id="linearGradient3511">
      <stop
         id="stop3513"
         offset="0"
         style="stop-color:#002a0d;stop-opacity:1;" />
      <stop
         id="stop3515"
         offset="1"
         style="stop-color:#002a0d;stop-opacity:0;" />
    </linearGradient>
    <filter
       id="filter3681"
       height="1.1579429"
       y="-0.078971461"
       width="1.2447821"
       x="-0.12239107">
      <feGaussianBlur
         id="feGaussianBlur3683"
         stdDeviation="0.321914" />
    </filter>
    <filter
       id="filter3722"
       height="1.5982659"
       y="-0.29913295"
       width="1.9039301"
       x="-0.45196507">
      <feGaussianBlur
         id="feGaussianBlur3724"
         stdDeviation="1.3476562" />
    </filter>
    <filter
       id="filter3435">
      <feGaussianBlur
         id="feGaussianBlur3437"
         stdDeviation="0.395" />
    </filter>
    <filter
       id="filter3467">
      <feGaussianBlur
         id="feGaussianBlur3469"
         stdDeviation="0.4349886" />
    </filter>
    <radialGradient
       r="3.15625"
       fy="16.0865"
       fx="71.775223"
       cy="16.0865"
       cx="71.775223"
       gradientTransform="matrix(0.9650814,0.2619502,-0.9201984,3.3902106,17.309062,-57.693239)"
       gradientUnits="userSpaceOnUse"
       id="radialGradient4035"
       xlink:href="#linearGradient3689" />
    <radialGradient
       r="3.578125"
       fy="64.53125"
       fx="11.578125"
       cy="64.53125"
       cx="11.578125"
       gradientTransform="matrix(6.5079869,0,0,1.510917,-63.772161,-32.970115)"
       gradientUnits="userSpaceOnUse"
       id="radialGradient4037"
       xlink:href="#linearGradient3710" />
    <radialGradient
       r="3.15625"
       fy="16.0865"
       fx="71.775223"
       cy="16.0865"
       cx="71.775223"
       gradientTransform="matrix(0.9650814,0.2619502,-0.9201984,3.3902106,9.309062,-57.693239)"
       gradientUnits="userSpaceOnUse"
       id="radialGradient4088"
       xlink:href="#linearGradient3669" />
    <linearGradient
       y2="46.089832"
       x2="96.373123"
       y1="120.42788"
       x1="96.373123"
       gradientTransform="translate(24,0)"
       gradientUnits="userSpaceOnUse"
       id="linearGradient3296"
       xlink:href="#linearGradient3511" />
    <linearGradient
       y2="28.942928"
       x2="46.225941"
       y1="123.73875"
       x1="71.626404"
       gradientTransform="translate(20,0)"
       gradientUnits="userSpaceOnUse"
       id="linearGradient3310"
       xlink:href="#linearGradient3342" />
    <radialGradient
       r="50"
       fy="84.389229"
       fx="48.230755"
       cy="77.572655"
       cx="47.934944"
       gradientTransform="matrix(1.4429896,7.9739349e-8,-7.654978e-8,1.3852701,-6.365246,-31.441692)"
       gradientUnits="userSpaceOnUse"
       id="radialGradient3312"
       xlink:href="#linearGradient3349" />
    <linearGradient
       y2="44.287056"
       x2="91.992706"
       y1="112.5"
       x1="91.785248"
       gradientTransform="translate(24,0)"
       gradientUnits="userSpaceOnUse"
       id="linearGradient3314"
       xlink:href="#linearGradient3355" />
    <linearGradient
       y2="70.827744"
       x2="46.758774"
       y1="11.479795"
       x1="35.629562"
       gradientTransform="translate(8,0)"
       gradientUnits="userSpaceOnUse"
       id="linearGradient3316"
       xlink:href="#linearGradient4150" />
    <linearGradient
       y2="40.171875"
       x2="34.345421"
       y1="67.238144"
       x1="56"
       gradientTransform="translate(28,0)"
       gradientUnits="userSpaceOnUse"
       id="linearGradient3344"
       xlink:href="#linearGradient3327" />
    <linearGradient
       y2="70.827744"
       x2="46.758774"
       y1="13.921767"
       x1="42.548481"
       gradientTransform="translate(28,0)"
       gradientUnits="userSpaceOnUse"
       id="linearGradient3356"
       xlink:href="#linearGradient3327" />
  </defs>
  <metadata
     id="metadata7">
    <rdf:RDF>
      <cc:Work
         rdf:about="">
        <dc:format>image/svg+xml</dc:format>
        <dc:type
           rdf:resource="http://purl.org/dc/dcmitype/StillImage" />
        <dc:title />
      </cc:Work>
    </rdf:RDF>
  </metadata>
  <g
     id="layer1">
    <g
       transform="matrix(0,1,-1,0,125.99577,29.995769)"
       id="g3936">
      <path
         id="path3987"
         d="M 63.875,12 C 63.009497,12.02693 62.176101,12.33398 61.5,12.875 L 1.5,60.875 C 0.550144,61.63413 0,62.78406 0,64 C 0,65.21594 0.550144,66.36587 1.5,67.125 L 61.5,115.125 C 62.700963,116.08613 64.332437,116.26025 65.71875,115.59375 C 67.105067,114.92725 68.000642,113.53821 68,112 L 68,94.71875 L 68,33.28125 L 68,16 C 68.000417,14.91715 67.558627,13.87882 66.78125,13.125 C 66.003873,12.37118 64.957323,11.96627 63.875,12 z"
         style="opacity:0.53694584;fill:#004d00;fill-opacity:1;fill-rule:evenodd;stroke:#004d00;stroke-width:1;stroke-linecap:butt;stroke-linejoin:round;stroke-miterlimit:4;stroke-dasharray:none;stroke-opacity:1;filter:url(#filter3467)" />
      <path
         id="path3989"
         d="M 63.875,12 C 63.009497,12.02693 62.176101,12.33398 61.5,12.875 L 1.5,60.875 C 0.550144,61.63413 0,62.78406 0,64 C 0,65.21594 0.550144,66.36587 1.5,67.125 L 61.5,115.125 C 62.700963,116.08613 64.332437,116.26025 65.71875,115.59375 C 67.105067,114.92725 68.000642,113.53821 68,112 L 68,94.71875 L 68,84.46875 L 68,83.875 L 68,78.0625 L 68,49.9375 L 68,45 L 68,43.53125 L 68,33.28125 L 68,16 C 68.000417,14.91715 67.558627,13.87882 66.78125,13.125 C 66.003873,12.37118 64.957323,11.96627 63.875,12 z M 60,24.3125 L 60,39.6875 L 54.59375,44 L 45,44 C 44.446,44 44,44.446 44,45 L 44,52.46875 L 33.5,60.875 C 32.550144,61.63413 32,62.78406 32,64 C 32,65.21594 32.550144,66.36587 33.5,67.125 L 44,75.53125 L 44,83.875 C 44,84.429 44.446,84.875 45,84.875 L 55.6875,84.875 L 60,88.3125 L 60,103.6875 L 10.40625,64 L 60,24.3125 z M 44,62.71875 L 44,65.28125 L 42.40625,64 L 44,62.71875 z"
         style="fill:url(#linearGradient3310);fill-opacity:1;fill-rule:evenodd;stroke:none;stroke-width:8;stroke-linecap:butt;stroke-linejoin:round;stroke-miterlimit:4;stroke-dasharray:none;stroke-opacity:1" />
      <path
         id="path3993"
         d="M 63.875,12 C 63.009497,12.02693 62.176101,12.33398 61.5,12.875 L 1.5,60.875 C 0.550144,61.63413 0,62.78406 0,64 C 0,65.21594 0.550144,66.36587 1.5,67.125 L 61.5,115.125 C 62.700963,116.08613 64.332437,116.26025 65.71875,115.59375 C 67.105067,114.92725 68.000642,113.53821 68,112 L 68,94.71875 L 68,84.46875 L 68,83.875 L 68,83.1875 L 68,78.0625 L 68,49.9375 L 68,45 L 68,44.8125 L 68,43.53125 L 68,33.28125 L 68,16 C 68.000417,14.91715 67.558627,13.87882 66.78125,13.125 C 66.003873,12.37118 64.957323,11.96627 63.875,12 z M 60,24.3125 L 60,39.6875 L 54.59375,44 L 45,44 C 44.446,44 44,44.446 44,45 L 44,52.46875 L 33.5,60.875 C 32.550144,61.63413 32,62.78406 32,64 C 32,65.21594 32.550144,66.36587 33.5,67.125 L 44,75.53125 L 44,83.875 C 44,84.429 44.446,84.875 45,84.875 L 55.6875,84.875 L 60,88.3125 L 60,103.6875 L 10.40625,64 L 60,24.3125 z M 44,62.71875 L 44,65.28125 L 42.40625,64 L 44,62.71875 z"
         style="opacity:0.53694584;fill:url(#linearGradient3296);fill-opacity:1;fill-rule:evenodd;stroke:none;stroke-width:8;stroke-linecap:butt;stroke-linejoin:round;stroke-miterlimit:4;stroke-dasharray:none;stroke-opacity:1" />
      <path
         id="path3999"
         d="M 64,16 L 4,64 L 64,112 L 64,86.40625 L 64,41.59375 L 64,16 z"
         style="fill:url(#radialGradient3312);fill-opacity:1;fill-rule:evenodd;stroke:none;stroke-width:1px;stroke-linecap:butt;stroke-linejoin:miter;stroke-opacity:1" />
      <path
         id="path4001"
         d="M 64,16 L 4,64 L 64,112 L 64,86.40625 L 64,41.59375 L 64,16 z"
         style="fill:none;fill-opacity:1;fill-rule:evenodd;stroke:url(#linearGradient3314);stroke-width:0.5;stroke-linecap:butt;stroke-linejoin:miter;stroke-miterlimit:4;stroke-dasharray:none;stroke-opacity:1;filter:url(#filter3435)" />
      <path
         style="opacity:0.85;fill:url(#radialGradient4088);fill-opacity:1;fill-rule:evenodd;stroke:none;stroke-width:8;stroke-linecap:butt;stroke-linejoin:round;stroke-miterlimit:4;stroke-dasharray:none;stroke-opacity:1;filter:url(#filter3681)"
         d="M 63.875,12 C 63.075959,12.024867 62.302054,12.283948 61.65625,12.75 L 62.625,21.78125 L 67.96875,15.625 C 67.880958,14.678789 67.469257,13.792159 66.78125,13.125 C 66.003873,12.37118 64.957323,11.966273 63.875,12 z"
         id="path3651" />
      <path
         id="path3685"
         d="M 71.875,12 C 71.075959,12.024867 70.302054,12.283948 69.65625,12.75 L 70.625,21.78125 L 75.96875,15.625 C 75.880958,14.678789 75.469257,13.792159 74.78125,13.125 C 74.003873,12.37118 72.957323,11.966273 71.875,12 z"
         style="opacity:0.35;fill:url(#radialGradient4035);fill-opacity:1;fill-rule:evenodd;stroke:none;stroke-width:8;stroke-linecap:butt;stroke-linejoin:round;stroke-miterlimit:4;stroke-dasharray:none;stroke-opacity:1;filter:url(#filter3681)"
         transform="matrix(1,0,0,-1,-8,127.7793)" />
      <path
         style="opacity:0.5;fill:url(#radialGradient4037);fill-opacity:1;fill-rule:evenodd;stroke:none;stroke-width:8;stroke-linecap:butt;stroke-linejoin:round;stroke-miterlimit:4;stroke-dasharray:none;stroke-opacity:1;filter:url(#filter3722)"
         d="M 11.6875,59.125 L 9.5,60.875 C 8.5501441,61.634129 8,62.784063 8,64 C 8.0000001,65.215937 8.5501441,66.365871 9.5,67.125 L 13.03125,69.9375 L 15.15625,64.3125 L 11.6875,59.125 z"
         id="path3705"
         transform="matrix(1,0,0,-1,-8,128.5625)" />
      <path
         id="path4143"
         d="M 64,16 L 4.1875,63.84375 C 12.238841,64.168797 20.513445,64.34375 28.90625,64.34375 C 40.962046,64.34375 52.698537,63.975426 64,63.3125 L 64,41.59375 L 64,16 z"
         style="fill:url(#linearGradient3316);fill-opacity:1;fill-rule:evenodd;stroke:none;stroke-width:1px;stroke-linecap:butt;stroke-linejoin:miter;stroke-opacity:1" />
      <path
         id="path3335"
         transform="translate(-20,0)"
         d="M 84,16 L 83.65625,16.28125 L 83.65625,41.375 L 83.65625,62.90625 C 72.417269,63.563595 60.770394,63.937499 48.78125,63.9375 C 40.607993,63.9375 32.537203,63.778318 24.6875,63.46875 L 24.1875,63.84375 C 32.238841,64.168797 40.513445,64.34375 48.90625,64.34375 C 60.962046,64.34375 72.698537,63.975426 84,63.3125 L 84,41.59375 L 84,16 z"
         style="fill:url(#linearGradient3344);fill-opacity:1;fill-rule:evenodd;stroke:none;stroke-width:1px;stroke-linecap:butt;stroke-linejoin:miter;stroke-opacity:1" />
      <path
         id="path3347"
         transform="translate(-20,0)"
         d="M 84,16 L 24.1875,63.84375 L 83.75,16.90625 L 83.75,42.03125 L 83.75,63.3125 C 83.832324,63.307705 83.917722,63.317326 84,63.3125 L 84,41.59375 L 84,16 z"
         style="fill:url(#linearGradient3356);fill-opacity:1;fill-rule:evenodd;stroke:none;stroke-width:1px;stroke-linecap:butt;stroke-linejoin:miter;stroke-opacity:1" />
    </g>
  </g>
</svg>
