/* XPM */
static const char *opencpn[] = {
/* columns rows colors chars-per-pixel */
"32 32 173 2",
"   c #010101",
".  c #0B0B0B",
"X  c #111111",
"o  c gray12",
"O  c #202020",
"+  c #2F2F2F",
"@  c #3A3A3A",
"#  c #6C643B",
"$  c #454545",
"%  c #4B4B4B",
"&  c #515151",
"*  c #5D5D5D",
"=  c #7C7447",
"-  c #7B764A",
";  c #626561",
":  c #7C786A",
">  c gray46",
",  c #7C7C7C",
"<  c #8D7D45",
"1  c #837B4B",
"2  c #887E4D",
"3  c #8B814E",
"4  c #918147",
"5  c #97874B",
"6  c #9D8C4D",
"7  c #818057",
"8  c #8E8550",
"9  c #998D53",
"0  c #9F9052",
"q  c #A08F4F",
"w  c #A1904F",
"e  c #A49352",
"r  c #A99754",
"t  c #AD9A55",
"y  c #A4965B",
"u  c #A69A5D",
"i  c #AD9C59",
"p  c #B19E57",
"a  c #B29F58",
"s  c #AFA05B",
"d  c #B5A25A",
"f  c #B9A55C",
"g  c #BDA95D",
"h  c #84827B",
"j  c #9C957A",
"k  c #A69E62",
"l  c #A99F66",
"z  c #A38A71",
"x  c #A89F7F",
"c  c #A6A067",
"v  c #ADA262",
"b  c #ACA66B",
"n  c #AEA86C",
"m  c #B4A160",
"M  c #B4A769",
"N  c #B1AA6C",
"B  c #A9A775",
"V  c #ABA872",
"C  c #AEAB7E",
"Z  c #B2AE72",
"A  c #B0AE7E",
"S  c #B3B175",
"D  c #B5B47C",
"F  c #C0AC5F",
"G  c #C3AE60",
"H  c #C6B162",
"J  c #CAB564",
"K  c #CEB866",
"L  c #C8B674",
"P  c #D0BD77",
"I  c #848484",
"U  c gray55",
"Y  c #85908C",
"T  c gray59",
"R  c #9C9C9C",
"E  c #AC898C",
"W  c #A79580",
"Q  c #A49E86",
"!  c #A6A08B",
"~  c #ADA58A",
"^  c #AFA88F",
"/  c #B5B682",
"(  c #BEB187",
")  c #B6B886",
"_  c #B6B98D",
"`  c #AEA894",
"'  c #B0AA94",
"]  c #B0AB9C",
"[  c #B7BD9C",
"{  c #8698AC",
"}  c #889AAD",
"|  c #B197A3",
" . c #97A3B0",
".. c #A7A7A7",
"X. c gray67",
"o. c #B3B0A7",
"O. c #B6BCA2",
"+. c #B6B4AE",
"@. c #A8AEB3",
"#. c #B6B6B5",
"$. c gray73",
"%. c #E3B69C",
"&. c #E8BCAF",
"*. c #EDB9BE",
"=. c #B7C1A8",
"-. c #B8C4B4",
";. c #B8C6BA",
":. c #D9C681",
">. c #DEC887",
",. c #D7C78D",
"<. c #DFCA8D",
"1. c #D5C799",
"2. c #E2D29B",
"3. c #D9CEA5",
"4. c #D5CCA9",
"5. c #E7C3AB",
"6. c #E4D6A2",
"7. c #E6D8A5",
"8. c #E1D6AE",
"9. c #EBDCAC",
"0. c #E5DCBD",
"q. c #EADFBA",
"w. c #EBE0B7",
"e. c #EEE3BE",
"r. c #F0E4BD",
"t. c #B9C9C5",
"y. c #B7C8CD",
"u. c #B9CACD",
"i. c #BACDD5",
"p. c #B9CFDE",
"a. c #BACFE1",
"s. c #BAD1E5",
"d. c #BBD3EC",
"f. c #BBD4F0",
"g. c #C3C3C3",
"h. c #CBCBCB",
"j. c gray82",
"k. c gray86",
"l. c #EFC2C8",
"z. c #F4D8CF",
"x. c #E7E0C3",
"c. c #EBE3C6",
"v. c #EDE5CA",
"b. c #F4E9C5",
"n. c #F6ECCC",
"m. c #F7EED1",
"M. c #F8EED4",
"N. c #F7E2D8",
"B. c #F8E6DE",
"V. c #F4EFD9",
"C. c #F8F1D5",
"Z. c #F9F3DB",
"A. c #C0D7F1",
"S. c #C5DAF2",
"D. c #CADDF3",
"F. c #CEE0F4",
"G. c #D4E4F5",
"H. c #D8E7F6",
"J. c #DBE8F7",
"K. c #DEEAF8",
"L. c #E4E4E4",
"P. c #EBEBEB",
"I. c #F9E5EB",
"U. c #FAF6E3",
"Y. c #FBF6E9",
"T. c #FCF9EB",
"R. c #E4EEF9",
"E. c #EAF2FA",
"W. c #F4F4F4",
"Q. c #FDFBF3",
"!. c #F1F6FC",
"~. c #F5F9FD",
"^. c #FFFFFF",
/* pixels */
"h o.` x z E ' ^ ~ ~ x 8 8 3 3 3 3 3 2 2 1 1 1 1 1 1 7 - = = = ; ",
"o.m.w.2.%.z.m.n.b.b.:.K J J H H G F g g f f d d a O./ r r e C } ",
"] e.6.>.*.M.m.n.b.9.K J J H G G F g f f d d a p / d.S r e l d.} ",
"~ 7.<.&.N.C.m.n.b.:.J H H G F g g f f d d p t N s.i.Z e y p.f.} ",
"W 5.l.B.Z.C.m.n.r.J H H G F g g f f d d d s v -.f.t.n u y.f.f.@.",
"| I.Y.U.Z.C.m.n.2.H G G F g f f d d S [ -.;.t.s.f.-._ a.f.S.~.#.",
"#.Q.T.U.Z.C.n.n.P G F g g f f d d p S s.f.f.f.f.f.s.d.f.G.^.^.#.",
"#.Q.T.U.Z.C.n.r.G F g g f d d a p t N u.f.f.f.f.f.f.f.R.^.^.^.#.",
"#.Q.T.U.Z.C.n.6.g g f f d d a p t v ) s.f.f.f.f.f.S.!.^.^.^.^.#.",
"#.Q.T.U.Z.C.n.,.g f f d d p t t N _ p.f.f.f.f.f.K.^.^.^.^.^.^.#.",
"#.Q.T.U.Z.C.n.L f d d a p i N ) ;.d.f.f.f.f.F.~.^.^.^.^.^.^.^.#.",
"#.Q.T.U.Z.C.n.f d d p i N _ t.d.f.f.f.f.D.E.^.^.^.^.^.^.^.^.^.#.",
"#.Q.T.U.Z.C.e.d d p d D ;.d.f.f.S.H.R.~.^.^.^.^.^.^.^.^.^.^.^.#.",
"#.Q.T.U.Z.M.b.a p t N -.f.f.f.J.^.^.^.^.^.^.^.^.^.^.^.^.^.^.^.#.",
"#.Q.Y.U.Z.m.n.p t r v t.f.f.A.^.^.^.^.^.^.^.^.^.^.^.^.^.^.^.^.#.",
"#.Q.Y.U.Z.m.n.m r r e A d.f.G.^.^.^.^.^.^.^.^.^.^.^.^.^.^.^.^.#.",
"#.Q.Y.U.Z.m.n.M r e e y -.f.R.^.^.^.^.^.^.^.^.^.^.^.^.^.^.^.^.#.",
"#.Q.Y.U.C.m.b.t e w 6 u [ f.~.^.^.^.^.^.^.^.^.k.X.I R j.^.^.^.#.",
"#.T.Y.Z.C.m.1.e q 6 0 S t.D.^.^.^.^.^.^.^.h.$           , ^.^.#.",
"#.T.U.Z.C.q.e q 6 y S =.f.K.^.^.^.^.^.^.,   . > #...@     j.^.#.",
"#.T.U.Z.8.r 6 e b D ;.f.f.!.^.^.^.^.^.,   @ L.^.^.^.L.    #.^.#.",
"#.T.U.3.q y n / -.s.f.f.H.^.^.^.^.^.T   + W.^.^.^.^.^.    #.^.#.",
"#.T.v.q u D -.d.f.S.J.!.^.^.^.^.^.P.X . k.^.^.^.^.^.k.  . W.^.#.",
"#.T.0.6 c ;.f.f.A.^.^.^.^.^.^.^.^.;   > ^.^.^.^.^.^.I   & ^.^.#.",
"+.T.x.5 k t.f.f.H.^.^.^.^.^.^.^.P.    P.^.^.^.^.^.W.o   g.^.^.#.",
"+.T.V.5 9 -.f.f.J.^.^.^.^.^.^.^.R   $ ^.^.^.^.^.^.I   * ^.^.^.#.",
"+.T.U.y 4 B d.f.K.^.^.^.^.^.^.^.%   > ^.^.^.^.^.$.. X L.^.^.^.#.",
"+.T.U.( < 9 u.f.J.^.^.^.^.^.^.^.$   * ^.^.^.^.#.. X h.^.^.^.^.#.",
"+.Y.U.4.< < [ f.D.^.^.^.^.^.^.^.*     U h...&   X h.^.^.^.^.^.#.",
"+.Y.U.0.< < V d.f.~.^.^.^.^.^.^.L.O         . > P.^.^.^.^.^.^.#.",
"+.Y.U.c.< < c i.f.R.^.^.^.^.^.^.^.P.#.I U $.P.^.^.^.^.^.^.^.^.#.",
": ! Q j # # - Y {  .#.#.#.#.#.#.#.#.#.#.#.#.#.#.#.#.#.#.#.#.#.I "
};
