<?xml version="1.0" encoding="UTF-8" standalone="no"?>
<svg
   xmlns:dc="http://purl.org/dc/elements/1.1/"
   xmlns:cc="http://creativecommons.org/ns#"
   xmlns:rdf="http://www.w3.org/1999/02/22-rdf-syntax-ns#"
   xmlns:svg="http://www.w3.org/2000/svg"
   xmlns="http://www.w3.org/2000/svg"
   xmlns:sodipodi="http://sodipodi.sourceforge.net/DTD/sodipodi-0.dtd"
   xmlns:inkscape="http://www.inkscape.org/namespaces/inkscape"
   width="24"
   height="24"
   viewBox="0 0 24 24"
   fill="none"
   stroke="currentColor"
   stroke-width="2"
   stroke-linecap="round"
   stroke-linejoin="round"
   id="svg2"
   version="1.1"
   inkscape:version="0.48.3.1 r9886"
   sodipodi:docname="MUI_help.svg">
  <metadata
     id="metadata14">
    <rdf:RDF>
      <cc:Work
         rdf:about="">
        <dc:format>image/svg+xml</dc:format>
        <dc:type
           rdf:resource="http://purl.org/dc/dcmitype/StillImage" />
        <dc:title></dc:title>
      </cc:Work>
    </rdf:RDF>
  </metadata>
  <defs
     id="defs12" />
  <sodipodi:namedview
     pagecolor="#ffffff"
     bordercolor="#666666"
     borderopacity="1"
     objecttolerance="10"
     gridtolerance="10"
     guidetolerance="10"
     inkscape:pageopacity="0"
     inkscape:pageshadow="2"
     inkscape:window-width="1281"
     inkscape:window-height="725"
     id="namedview10"
     showgrid="false"
     inkscape:zoom="9.8333333"
     inkscape:cx="6.8749879"
     inkscape:cy="12"
     inkscape:window-x="0"
     inkscape:window-y="0"
     inkscape:window-maximized="0"
     inkscape:current-layer="svg2" />
  <path
     inkscape:connector-curvature="0"
     d="m 11.298637,21.53551 c -2.196739,0 -4.261965,-0.855448 -5.815192,-2.408797 -1.553349,-1.553227 -2.408797,-3.61845 -2.408797,-5.81519 0,-3.5122398 2.230594,-6.6384928 5.550575,-7.7792138 0.126746,-0.04351 0.26706,-0.0016 0.349073,0.10438 0.08202,0.105846 0.08752,0.252271 0.01368,0.363984 -0.750213,1.135465 -1.146709,2.457443 -1.146709,3.823299 0,3.8294118 3.115498,6.9449128 6.94491,6.9449128 1.365857,0 2.687957,-0.396496 3.823178,-1.146709 0.111835,-0.07383 0.258259,-0.06844 0.364105,0.01368 0.105969,0.08201 0.147892,0.222325 0.10438,0.349071 -1.140721,3.319979 -4.266975,5.550574 -7.779213,5.550574 z M 8.000411,6.4642702 c -2.604233,1.253778 -4.299974,3.9038458 -4.299974,6.8472528 0,4.189607 3.408593,7.598199 7.5982,7.598199 2.943406,0 5.593475,-1.69574 6.847252,-4.299974 -1.039274,0.515542 -2.184638,0.784925 -3.359703,0.784925 -2.022203,0 -3.923401,-0.787494 -5.353304,-2.217395 -1.429903,-1.429902 -2.217396,-3.331102 -2.217396,-5.3533058 0,-1.175063 0.269261,-2.320428 0.784925,-3.359702 z m 0,0"
     id="path4"
     style="fill:#b4b4b4;fill-opacity:1;stroke:#b4b4b4;stroke-width:0.75;stroke-opacity:1;stroke-miterlimit:4;stroke-dasharray:none" />
  <path
     inkscape:connector-curvature="0"
     d="m 12.698414,12.991943 c -0.07212,0 -0.143813,-0.02243 -0.204253,-0.06641 -0.107144,-0.07767 -0.160793,-0.209541 -0.138516,-0.339909 l 0.413797,-2.415968 -1.755685,-1.7104638 c -0.09479,-0.092216 -0.12888,-0.2304595 -0.088,-0.3563472 0.04087,-0.1259038 0.149654,-0.2175666 0.280574,-0.2367145 l 2.425477,-0.3530947 1.084257,-2.1981303 c 0.05854,-0.1187026 0.17926,-0.1939334 0.311673,-0.1939334 0.132414,0 0.253147,0.075099 0.311813,0.1936517 l 1.08535,2.1977265 2.425609,0.351883 c 0.131053,0.018867 0.239834,0.1106779 0.280707,0.2364328 0.04102,0.1258824 0.0068,0.264004 -0.08787,0.3564907 l -1.754732,1.7112722 0.415023,2.415697 c 0.02242,0.130511 -0.03125,0.262372 -0.138243,0.340058 -0.107022,0.07781 -0.248933,0.08813 -0.366132,0.02657 l -2.16989,-1.139951 -2.169214,1.141174 c -0.05081,0.02679 -0.10647,0.03991 -0.161745,0.03991 z m -0.694917,-4.5391382 1.381959,1.3463686 c 0.08203,0.079844 0.119506,0.1948741 0.100086,0.3077306 l -0.325667,1.901672 1.707621,-0.89821 c 0.101308,-0.05324 0.222307,-0.05337 0.323616,-1.49e-4 l 1.70802,0.897402 -0.326751,-1.901544 c -0.01929,-0.1128512 0.01802,-0.2278816 0.09995,-0.3077306 L 18.053605,8.4511626 16.144191,8.1742499 C 16.030925,8.1577749 15.933017,8.0866579 15.882355,7.984127 l -0.85435,-1.7300212 -0.853526,1.730425 c -0.05054,0.1025363 -0.148442,0.1738398 -0.261697,0.1902613 z m 0,0"
     id="path6-3"
     style="fill:#b4b4b4;fill-opacity:1;stroke:#b4b4b4;stroke-width:0.456;stroke-opacity:1;stroke-miterlimit:4;stroke-dasharray:none" />
</svg>
