<?xml version="1.0" encoding="UTF-8" standalone="no"?>
<!-- Generator: Adobe Illustrator 19.0.0, SVG Export Plug-In . SVG Version: 6.00 Build 0)  -->

<svg
   xmlns:osb="http://www.openswatchbook.org/uri/2009/osb"
   xmlns:dc="http://purl.org/dc/elements/1.1/"
   xmlns:cc="http://creativecommons.org/ns#"
   xmlns:rdf="http://www.w3.org/1999/02/22-rdf-syntax-ns#"
   xmlns:svg="http://www.w3.org/2000/svg"
   xmlns="http://www.w3.org/2000/svg"
   xmlns:sodipodi="http://sodipodi.sourceforge.net/DTD/sodipodi-0.dtd"
   xmlns:inkscape="http://www.inkscape.org/namespaces/inkscape"
   version="1.1"
   id="Capa_1"
   x="0px"
   y="0px"
   viewBox="0 0 34.861 34.861"
   style="enable-background:new 0 0 34.861 34.861;"
   xml:space="preserve"
   inkscape:version="0.48.3.1 r9886"
   width="100%"
   height="100%"
   sodipodi:docname="DragHandle.svg"><metadata
   id="metadata55"><rdf:RDF><cc:Work
       rdf:about=""><dc:format>image/svg+xml</dc:format><dc:type
         rdf:resource="http://purl.org/dc/dcmitype/StillImage" /></cc:Work></rdf:RDF></metadata><defs
   id="defs53"><linearGradient
     id="linearGradient5263"><stop
       style="stop-color:#ffcc00;stop-opacity:0.49803922;"
       offset="0"
       id="stop5267" /><stop
       id="stop5271"
       offset="1"
       style="stop-color:#ffcc00;stop-opacity:0;" /></linearGradient><linearGradient
     id="linearGradient5251"><stop
       style="stop-color:#ffcc00;stop-opacity:1;"
       offset="0"
       id="stop5253" /><stop
       id="stop5259"
       offset="0.5"
       style="stop-color:#ffcc00;stop-opacity:0.49803922;" /><stop
       style="stop-color:#ffcc00;stop-opacity:0.24705882;"
       offset="0.75"
       id="stop5261" /><stop
       style="stop-color:#ffcc00;stop-opacity:0;"
       offset="1"
       id="stop5255" /></linearGradient><linearGradient
     inkscape:collect="always"
     id="linearGradient3802"
     osb:paint="gradient"><stop
       style="stop-color:#ffcc00;stop-opacity:1;"
       offset="0"
       id="stop3804" /><stop
       style="stop-color:#ffcc00;stop-opacity:0;"
       offset="1"
       id="stop3806" /></linearGradient></defs><sodipodi:namedview
   pagecolor="#ffffff"
   bordercolor="#666666"
   borderopacity="1"
   objecttolerance="10"
   gridtolerance="10"
   guidetolerance="10"
   inkscape:pageopacity="0"
   inkscape:pageshadow="2"
   inkscape:window-width="1301"
   inkscape:window-height="736"
   id="namedview51"
   showgrid="false"
   inkscape:zoom="6.7697427"
   inkscape:cx="-7.311947"
   inkscape:cy="17.4305"
   inkscape:window-x="0"
   inkscape:window-y="0"
   inkscape:window-maximized="0"
   inkscape:current-layer="Capa_1" />
<g
   id="g3">
    <g
   id="g5">
        <path
   d="M9.575,24.769c-0.276,0-0.5-0.224-0.5-0.5V7.908c0-1.93,1.481-3.5,3.303-3.5s3.303,1.57,3.303,3.5v10.637    c0,0.276-0.224,0.5-0.5,0.5s-0.5-0.224-0.5-0.5V7.908c0-1.378-1.033-2.5-2.303-2.5s-2.303,1.122-2.303,2.5v16.361    C10.075,24.545,9.851,24.769,9.575,24.769z"
   id="path7" />
        <path
   d="M11.74,34.861c-0.128,0-0.256-0.049-0.354-0.146l-7.412-7.412c-1.755-1.754-2.135-4.229-0.847-5.517    c1.288-1.289,3.416-1.255,4.745,0.074l2.056,2.056c0.195,0.195,0.195,0.512,0,0.707s-0.512,0.195-0.707,0l-2.056-2.056    c-0.939-0.938-2.433-0.972-3.331-0.074c-0.883,0.883-0.495,2.762,0.847,4.103l7.412,7.412c0.195,0.195,0.195,0.512,0,0.707    C11.996,34.812,11.868,34.861,11.74,34.861z"
   id="path9" />
        <path
   d="M20.787,19.617c-0.276,0-0.5-0.224-0.5-0.5v-2.521c0-1.115-1.033-2.021-2.303-2.021c-1.271,0-2.304,0.907-2.304,2.021    v2.521c0,0.276-0.224,0.5-0.5,0.5s-0.5-0.224-0.5-0.5v-2.521c0-1.666,1.482-3.021,3.304-3.021s3.303,1.355,3.303,3.021v2.521    C21.287,19.393,21.063,19.617,20.787,19.617z"
   id="path11" />
        <path
   d="M26.391,19.617c-0.276,0-0.5-0.224-0.5-0.5v-2.104c0-0.87-1.054-1.604-2.302-1.604s-2.303,0.735-2.303,1.604v2.104    c0,0.276-0.224,0.5-0.5,0.5s-0.5-0.224-0.5-0.5v-2.104c0-1.436,1.481-2.604,3.303-2.604c1.82,0,3.302,1.168,3.302,2.604v2.104    C26.891,19.393,26.668,19.617,26.391,19.617z"
   id="path13" />
        <path
   d="M31.997,26.035c-0.276,0-0.5-0.224-0.5-0.5v-6.877c0-1.378-1.033-2.5-2.303-2.5c-1.357,0-2.303,0.648-2.303,1.229v1.729    c0,0.276-0.224,0.5-0.5,0.5s-0.5-0.224-0.5-0.5v-1.729c0-1.25,1.451-2.229,3.303-2.229c1.821,0,3.303,1.57,3.303,3.5v6.877    C32.497,25.811,32.273,26.035,31.997,26.035z"
   id="path15" />
        <path
   d="M27.997,34.857H11.779c-0.276,0-0.519-0.224-0.519-0.5s0.206-0.5,0.482-0.5h16.254c1.93,0,3.5-1.57,3.5-3.5V24.96    c0-0.276,0.224-0.5,0.5-0.5c0.276,0,0.5,0.224,0.5,0.5v5.396C32.497,32.838,30.478,34.857,27.997,34.857z"
   id="path17" />
    </g>
    <path
   d="M19.128,8.347c-0.276,0-0.5-0.224-0.5-0.5V7.25c0-3.446-2.804-6.25-6.25-6.25s-6.25,2.804-6.25,6.25v0.597   c0,0.276-0.224,0.5-0.5,0.5s-0.5-0.224-0.5-0.5V7.25C5.128,3.252,8.38,0,12.378,0s7.25,3.252,7.25,7.25v0.597   C19.628,8.124,19.404,8.347,19.128,8.347z"
   id="path19" />
</g>
<g
   id="g21">
</g>
<g
   id="g23">
</g>
<g
   id="g25">
</g>
<g
   id="g27">
</g>
<g
   id="g29">
</g>
<g
   id="g31">
</g>
<g
   id="g33">
</g>
<g
   id="g35">
</g>
<g
   id="g37">
</g>
<g
   id="g39">
</g>
<g
   id="g41">
</g>
<g
   id="g43">
</g>
<g
   id="g45">
</g>
<g
   id="g47">
</g>
<g
   id="g49">
</g>
<path
   style="fill:#f4e52e;fill-opacity:1;stroke:#000000;stroke-width:0.01477161000000000;stroke-miterlimit:4;stroke-opacity:1;stroke-dasharray:none;opacity:0.90086207"
   d="M 8.1040513,29.943128 C 5.0132747,26.832129 4.1592216,25.886845 3.8616107,25.247503 3.0125538,23.423522 3.7521182,21.946831 5.5014273,21.973277 c 0.83709,0.01266 1.1136064,0.186059 2.5859686,1.62167 0.9868516,0.96222 1.3567131,1.234607 1.6248771,1.196647 l 0.347194,-0.04915 0.07386,-8.800043 0.07386,-8.8000441 0.393037,-0.5937717 c 0.923504,-1.3951612 2.540946,-1.3917202 3.58617,0.00763 0.29451,0.3942898 0.305936,0.6105905 0.346257,6.5548498 0.02919,4.302823 0.09187,6.20756 0.20893,6.348608 0.09198,0.110826 0.339103,0.181524 0.549167,0.157106 l 0.381934,-0.0444 0.07386,-1.779694 c 0.08527,-2.054792 0.248251,-2.436672 1.230174,-2.882496 0.777587,-0.35305 1.195281,-0.352251 1.9796,0.0038 0.997541,0.452831 1.220501,0.967587 1.221157,2.819336 5.91e-4,1.646142 0.09528,1.912923 0.679014,1.912923 0.430362,1e-6 0.503267,-0.243075 0.503267,-1.677948 0,-1.413723 0.172949,-1.75873 1.090514,-2.175411 1.096487,-0.497932 2.394647,-0.264174 3.03189,0.545948 0.259618,0.330051 0.309079,0.597763 0.309079,1.672912 0,1.355979 0.11561,1.6345 0.678462,1.6345 0.417991,0 0.503267,-0.247985 0.503267,-1.463494 0,-1.116765 0.219128,-1.448375 1.166842,-1.765799 1.15198,-0.385839 2.154159,-0.06818 2.881768,0.913433 0.30095,0.406007 0.310096,0.586358 0.35042,6.910248 0.0276,4.328547 -0.01198,6.691631 -0.118734,7.088076 -0.194299,0.721567 -1.018042,1.666589 -1.832904,2.10276 -0.59424,0.318077 -0.694861,0.322137 -9.023713,0.364231 l -8.422772,0.04257 -3.8698157,-3.895134 0,0 z"
   id="path3032"
   inkscape:connector-curvature="0" /></svg>