<?xml version="1.0" encoding="UTF-8" standalone="no"?>
<!-- Created with Inkscape (http://www.inkscape.org/) -->

<svg
   xmlns:osb="http://www.openswatchbook.org/uri/2009/osb"
   xmlns:dc="http://purl.org/dc/elements/1.1/"
   xmlns:cc="http://creativecommons.org/ns#"
   xmlns:rdf="http://www.w3.org/1999/02/22-rdf-syntax-ns#"
   xmlns:svg="http://www.w3.org/2000/svg"
   xmlns="http://www.w3.org/2000/svg"
   xmlns:xlink="http://www.w3.org/1999/xlink"
   xmlns:sodipodi="http://sodipodi.sourceforge.net/DTD/sodipodi-0.dtd"
   xmlns:inkscape="http://www.inkscape.org/namespaces/inkscape"
   width="96"
   height="32"
   viewBox="0 0 96.000003 31.999998"
   id="svg2"
   version="1.1"
   inkscape:version="0.91 r13725"
   sodipodi:docname="iENC_Minimum.svg">
  <defs
     id="defs4">
    <linearGradient
       id="linearGradient5592"
       osb:paint="solid">
      <stop
         style="stop-color:#000000;stop-opacity:1;"
         offset="0"
         id="stop5594" />
    </linearGradient>
    <linearGradient
       inkscape:collect="always"
       xlink:href="#linearGradient5592"
       id="linearGradient5596"
       x1="372.31302"
       y1="514.92493"
       x2="488.25058"
       y2="514.92493"
       gradientUnits="userSpaceOnUse" />
  </defs>
  <sodipodi:namedview
     id="base"
     pagecolor="#ffffff"
     bordercolor="#666666"
     borderopacity="1.0"
     inkscape:pageopacity="0.0"
     inkscape:pageshadow="2"
     inkscape:zoom="5.6"
     inkscape:cx="82.779434"
     inkscape:cy="44.986048"
     inkscape:document-units="px"
     inkscape:current-layer="layer1"
     showgrid="false"
     inkscape:window-width="1590"
     inkscape:window-height="811"
     inkscape:window-x="212"
     inkscape:window-y="71"
     inkscape:window-maximized="0"
     units="px"
     inkscape:snap-text-baseline="true" />
  <metadata
     id="metadata7">
    <rdf:RDF>
      <cc:Work
         rdf:about="">
        <dc:format>image/svg+xml</dc:format>
        <dc:type
           rdf:resource="http://purl.org/dc/dcmitype/StillImage" />
        <dc:title></dc:title>
      </cc:Work>
    </rdf:RDF>
  </metadata>
  <g
     inkscape:label="Layer 1"
     inkscape:groupmode="layer"
     id="layer1"
     transform="translate(0,-1020.3622)">
    <ellipse
       style="fill:none;fill-opacity:1;stroke:none;stroke-opacity:1"
       id="path4136"
       cx="238.57143"
       cy="489.50507"
       rx="207.14285"
       ry="108.57143" />
    <rect
       style="fill:none;fill-opacity:1;stroke:#000000;stroke-width:2;stroke-linejoin:bevel;stroke-miterlimit:4;stroke-dasharray:none;stroke-opacity:0.99607843"
       id="rect4140"
       width="93.654793"
       height="29.859505"
       x="1.2061712"
       y="1021.6595"
       ry="7.9905682" />
    <g
       style="font-style:normal;font-weight:normal;font-size:23.49725723px;line-height:125%;font-family:sans-serif;letter-spacing:0px;word-spacing:0px;fill:#000000;fill-opacity:1;stroke:none;stroke-width:1px;stroke-linecap:butt;stroke-linejoin:miter;stroke-opacity:1"
       id="text4142">
      <path
         d="m 11.011114,1029.8115 0,13.3204 2.799478,0 q 3.54524,0 5.185918,-1.6062 1.652151,-1.6063 1.652151,-5.0712 0,-3.442 -1.652151,-5.0368 -1.640678,-1.6062 -5.185918,-1.6062 l -2.799478,0 z m -2.3176009,-1.9046 4.7614069,0 q 4.979399,0 7.308473,2.0767 2.329074,2.0652 2.329074,6.4709 0,4.4287 -2.340547,6.5053 -2.340547,2.0767 -7.297,2.0767 l -4.7614069,0 0,-17.1296 z"
         style=""
         id="path4188" />
    </g>
    <g
       mask="none"
       inkscape:transform-center-x="-0.5357143"
       inkscape:transform-center-y="5.7142859"
       style="font-style:normal;font-variant:normal;font-weight:normal;font-stretch:normal;font-size:13.26375008px;line-height:125%;font-family:Ubuntu;-inkscape-font-specification:'Ubuntu, Normal';text-align:start;letter-spacing:0px;word-spacing:0px;writing-mode:lr-tb;text-anchor:start;fill:#c80000;fill-opacity:1;stroke:#ff0000;stroke-width:0;stroke-linecap:butt;stroke-linejoin:miter;stroke-miterlimit:4;stroke-dasharray:none;stroke-opacity:0.99607843;image-rendering:optimizeQuality"
       id="text4173"
       transform="translate(79.285715,-70.000001)">
      <path
         d="m 45.76147,1076.1803 q -0.225483,-0.5969 -0.42444,-1.1672 -0.198956,-0.5836 -0.411176,-1.1805 l -4.164818,0 -0.835616,2.3477 -1.339639,0 q 0.53055,-1.459 0.994782,-2.6925 0.464231,-1.2468 0.901935,-2.361 0.450967,-1.1141 0.888671,-2.1222 0.437704,-1.0213 0.915199,-2.0161 l 1.180474,0 q 0.477495,0.9948 0.915198,2.0161 0.437704,1.0081 0.875408,2.1222 0.450967,1.1142 0.915199,2.361 0.464231,1.2335 0.994781,2.6925 l -1.405958,0 z m -1.207001,-3.4088 q -0.42444,-1.1539 -0.84888,-2.2283 -0.411176,-1.0876 -0.862144,-2.0824 -0.464231,0.9948 -0.888671,2.0824 -0.411176,1.0744 -0.822353,2.2283 l 3.422048,0 z"
         style="font-style:normal;font-variant:normal;font-weight:normal;font-stretch:normal;font-size:13.26375008px;line-height:125%;font-family:Ubuntu;-inkscape-font-specification:'Ubuntu, Normal';text-align:start;writing-mode:lr-tb;text-anchor:start;fill:#c80000;fill-opacity:1;stroke:#ff0000;stroke-width:0;stroke-miterlimit:4;stroke-dasharray:none;stroke-opacity:0.99607843"
         id="path4178"
         inkscape:connector-curvature="0" />
      <path
         d="m 53.933391,1075.0661 0,1.1142 -5.530984,0 0,-9.1918 1.286584,0 0,8.0776 4.2444,0 z"
         style="font-style:normal;font-variant:normal;font-weight:normal;font-stretch:normal;font-size:13.26375008px;line-height:125%;font-family:Ubuntu;-inkscape-font-specification:'Ubuntu, Normal';text-align:start;writing-mode:lr-tb;text-anchor:start;fill:#c80000;fill-opacity:1;stroke:#ff0000;stroke-width:0;stroke-miterlimit:4;stroke-dasharray:none;stroke-opacity:0.99607843"
         id="path4180"
         inkscape:connector-curvature="0" />
      <path
         d="m 60.824323,1075.0661 0,1.1142 -5.530984,0 0,-9.1918 1.286584,0 0,8.0776 4.2444,0 z"
         style="font-style:normal;font-variant:normal;font-weight:normal;font-stretch:normal;font-size:13.26375008px;line-height:125%;font-family:Ubuntu;-inkscape-font-specification:'Ubuntu, Normal';text-align:start;writing-mode:lr-tb;text-anchor:start;fill:#c80000;fill-opacity:1;stroke:#ff0000;stroke-width:0;stroke-miterlimit:4;stroke-dasharray:none;stroke-opacity:0.99607843"
         id="path4182"
         inkscape:connector-curvature="0" />
    </g>
    <g
       style="font-style:normal;font-variant:normal;font-weight:normal;font-stretch:normal;font-size:15px;line-height:100%;font-family:Ubuntu;-inkscape-font-specification:'Ubuntu, Normal';text-align:start;letter-spacing:0px;word-spacing:0px;writing-mode:lr-tb;text-anchor:start;fill:#a10000;fill-opacity:1;stroke:none;stroke-width:1px;stroke-linecap:butt;stroke-linejoin:miter;stroke-opacity:1"
       id="text4190"
       transform="translate(72.857143,33.75)">
      <path
         d="m 54.485,995.75507 q -0.255,-0.675 -0.48,-1.32 -0.225,-0.66 -0.465,-1.335 l -4.71,0 -0.945,2.655 -1.515,0 q 0.6,-1.65 1.125,-3.045 0.525,-1.41 1.02,-2.67 0.51,-1.26 1.005,-2.4 0.495,-1.155 1.035,-2.28 l 1.335,0 q 0.54,1.125 1.035,2.28 0.495,1.14 0.99,2.4 0.51,1.26 1.035,2.67 0.525,1.395 1.125,3.045 l -1.59,0 z m -1.365,-3.855 q -0.48,-1.305 -0.96,-2.52 -0.465,-1.23 -0.975,-2.355 -0.525,1.125 -1.005,2.355 -0.465,1.215 -0.93,2.52 l 3.87,0 z"
         id="path4195"
         inkscape:connector-curvature="0"
         style="fill:#a10000;fill-opacity:1" />
      <path
         d="m 63.726641,994.49507 0,1.26 -6.255,0 0,-10.395 1.455,0 0,9.135 4.8,0 z"
         id="path4197"
         inkscape:connector-curvature="0"
         style="fill:#a10000;fill-opacity:1" />
      <path
         d="m 71.519609,994.49507 0,1.26 -6.255,0 0,-10.395 1.455,0 0,9.135 4.8,0 z"
         id="path4199"
         inkscape:connector-curvature="0"
         style="fill:#a10000;fill-opacity:1" />
    </g>
    <g
       style="font-style:normal;font-variant:normal;font-weight:normal;font-stretch:normal;font-size:15px;line-height:100%;font-family:FreeSans;-inkscape-font-specification:'FreeSans, Normal';text-align:start;letter-spacing:0px;word-spacing:0px;writing-mode:lr-tb;text-anchor:start;fill:#a00000;fill-opacity:1;stroke:none;stroke-width:1px;stroke-linecap:butt;stroke-linejoin:miter;stroke-opacity:1"
       id="text4216"
       transform="translate(73.392857,57.321428)">
      <path
         d="m 34.415713,994.3343 q 0.84,0 1.425,-0.195 0.585,-0.195 0.855,-0.51 0.285,-0.315 0.39,-0.615 0.12,-0.315 0.12,-0.66 0,-1.245 -2.01,-1.77 l -2.715,-0.72 q -2.145,-0.555 -2.145,-2.55 0,-1.485 1.035,-2.34 1.05,-0.87 2.85,-0.87 1.89,0 2.94,0.9 1.05,0.885 1.065,2.49 l -1.32,0 q -0.015,-1.065 -0.72,-1.635 -0.705,-0.585 -2.01,-0.585 -1.11,0 -1.785,0.51 -0.66,0.51 -0.66,1.335 0,0.63 0.405,0.99 0.405,0.36 1.395,0.63 l 2.745,0.735 q 1.11,0.3 1.71,1.02 0.615,0.72 0.615,1.725 0,0.435 -0.12,0.87 -0.105,0.42 -0.405,0.885 -0.3,0.45 -0.765,0.795 -0.465,0.345 -1.245,0.57 -0.765,0.225 -1.74,0.225 -0.615,0 -1.185,-0.105 -0.555,-0.09 -1.14,-0.345 -0.585,-0.27 -1.005,-0.675 -0.42,-0.42 -0.705,-1.11 -0.27,-0.69 -0.285,-1.59 l 1.32,0 0,0.075 q 0,0.465 0.135,0.87 0.15,0.405 0.465,0.795 0.33,0.39 0.96,0.63 0.645,0.225 1.53,0.225 z"
         style="fill:#a00000;fill-opacity:1"
         id="path4221"
         inkscape:connector-curvature="0" />
      <path
         d="m 43.205244,987.3593 0,1.02 -1.29,0 0,5.385 q 0,0.42 0.135,0.57 0.15,0.135 0.555,0.135 0.375,0 0.6,-0.06 l 0,1.05 q -0.585,0.105 -1.02,0.105 -0.735,0 -1.125,-0.33 -0.39,-0.315 -0.39,-0.915 l 0,-5.94 -1.065,0 0,-1.02 1.065,0 0,-2.16 1.245,0 0,2.16 1.29,0 z"
         style="fill:#a00000;fill-opacity:1"
         id="path4223"
         inkscape:connector-curvature="0" />
      <path
         d="m 44.289698,989.6843 q 0.09,-2.55 3.15,-2.55 1.455,0 2.205,0.555 0.75,0.54 0.75,1.59 l 0,4.62 q 0,0.615 0.675,0.615 0.135,0 0.27,-0.03 l 0,0.945 q -0.525,0.135 -0.855,0.135 -0.6,0 -0.915,-0.285 -0.3,-0.27 -0.375,-0.87 -1.26,1.155 -2.67,1.155 -1.185,0 -1.89,-0.63 -0.69,-0.63 -0.69,-1.695 0,-0.345 0.06,-0.63 0.075,-0.285 0.15,-0.495 0.09,-0.225 0.3,-0.405 0.21,-0.195 0.345,-0.315 0.15,-0.12 0.48,-0.225 0.345,-0.12 0.525,-0.165 0.18,-0.06 0.63,-0.135 0.45,-0.075 0.66,-0.105 0.21,-0.03 0.75,-0.105 0.735,-0.09 1.02,-0.285 0.285,-0.195 0.285,-0.585 l 0,-0.33 q 0,-0.57 -0.465,-0.87 -0.45,-0.3 -1.29,-0.3 -0.87,0 -1.32,0.345 -0.45,0.33 -0.525,1.05 l -1.26,0 z m 2.505,4.785 q 1.035,0 1.695,-0.54 0.66,-0.555 0.66,-1.185 l 0,-1.41 q -0.375,0.18 -1.14,0.3 -0.75,0.12 -1.305,0.21 -0.555,0.09 -1.005,0.435 -0.45,0.33 -0.45,0.93 0,0.6 0.405,0.93 0.405,0.33 1.14,0.33 z"
         style="fill:#a00000;fill-opacity:1"
         id="path4225"
         inkscape:connector-curvature="0" />
      <path
         d="m 52.539229,987.3593 1.155,0 0,1.32 q 0.525,-0.825 1.125,-1.185 0.615,-0.36 1.485,-0.36 1.14,0 1.815,0.585 0.675,0.585 0.675,1.56 l 0,5.94 -1.245,0 0,-5.445 q 0,-0.705 -0.435,-1.125 -0.435,-0.42 -1.185,-0.42 -0.96,0 -1.545,0.735 -0.585,0.72 -0.585,1.92 l 0,4.335 -1.26,0 0,-7.86 z"
         style="fill:#a00000;fill-opacity:1"
         id="path4227"
         inkscape:connector-curvature="0" />
      <path
         d="m 67.180869,984.2843 0,10.935 -1.11,0 0,-1.035 q -0.51,0.735 -1.11,1.05 -0.585,0.33 -1.395,0.33 -1.59,0 -2.505,-1.14 -0.915,-1.155 -0.915,-3.15 0,-1.875 0.915,-3 0.93,-1.14 2.46,-1.14 1.62,0 2.415,1.215 l 0,-4.065 1.245,0 z m -3.45,4.02 q -1.02,0 -1.65,0.84 -0.63,0.84 -0.63,2.205 0,1.38 0.63,2.22 0.63,0.825 1.665,0.825 0.99,0 1.59,-0.825 0.6,-0.825 0.6,-2.19 0,-1.41 -0.6,-2.235 -0.6,-0.84 -1.605,-0.84 z"
         style="fill:#a00000;fill-opacity:1"
         id="path4229"
         inkscape:connector-curvature="0" />
      <path
         d="m 68.869776,989.6843 q 0.09,-2.55 3.15,-2.55 1.455,0 2.205,0.555 0.75,0.54 0.75,1.59 l 0,4.62 q 0,0.615 0.675,0.615 0.135,0 0.27,-0.03 l 0,0.945 q -0.525,0.135 -0.855,0.135 -0.6,0 -0.915,-0.285 -0.3,-0.27 -0.375,-0.87 -1.26,1.155 -2.67,1.155 -1.185,0 -1.89,-0.63 -0.69,-0.63 -0.69,-1.695 0,-0.345 0.06,-0.63 0.075,-0.285 0.15,-0.495 0.09,-0.225 0.3,-0.405 0.21,-0.195 0.345,-0.315 0.15,-0.12 0.48,-0.225 0.345,-0.12 0.525,-0.165 0.18,-0.06 0.63,-0.135 0.45,-0.075 0.66,-0.105 0.21,-0.03 0.75,-0.105 0.735,-0.09 1.02,-0.285 0.285,-0.195 0.285,-0.585 l 0,-0.33 q 0,-0.57 -0.465,-0.87 -0.45,-0.3 -1.29,-0.3 -0.87,0 -1.32,0.345 -0.45,0.33 -0.525,1.05 l -1.26,0 z m 2.505,4.785 q 1.035,0 1.695,-0.54 0.66,-0.555 0.66,-1.185 l 0,-1.41 q -0.375,0.18 -1.14,0.3 -0.75,0.12 -1.305,0.21 -0.555,0.09 -1.005,0.435 -0.45,0.33 -0.45,0.93 0,0.6 0.405,0.93 0.405,0.33 1.14,0.33 z"
         style="fill:#a00000;fill-opacity:1"
         id="path4231"
         inkscape:connector-curvature="0" />
      <path
         d="m 80.899307,988.4543 q -1.26,0.03 -1.89,0.585 -0.63,0.555 -0.63,2.1 l 0,4.08 -1.26,0 0,-7.86 1.155,0 0,1.425 q 0.54,-0.885 1.035,-1.26 0.51,-0.39 1.11,-0.39 0.165,0 0.48,0.045 l 0,1.275 z"
         style="fill:#a00000;fill-opacity:1"
         id="path4233"
         inkscape:connector-curvature="0" />
      <path
         d="m 88.684776,984.2843 0,10.935 -1.11,0 0,-1.035 q -0.51,0.735 -1.11,1.05 -0.585,0.33 -1.395,0.33 -1.59,0 -2.505,-1.14 -0.915,-1.155 -0.915,-3.15 0,-1.875 0.915,-3 0.93,-1.14 2.46,-1.14 1.62,0 2.415,1.215 l 0,-4.065 1.245,0 z m -3.45,4.02 q -1.02,0 -1.65,0.84 -0.63,0.84 -0.63,2.205 0,1.38 0.63,2.22 0.63,0.825 1.665,0.825 0.99,0 1.59,-0.825 0.6,-0.825 0.6,-2.19 0,-1.41 -0.6,-2.235 -0.6,-0.84 -1.605,-0.84 z"
         style="fill:#a00000;fill-opacity:1"
         id="path4235"
         inkscape:connector-curvature="0" />
    </g>
    <g
       style="font-style:normal;font-variant:normal;font-weight:normal;font-stretch:normal;font-size:15px;line-height:100%;font-family:FreeSans;-inkscape-font-specification:'FreeSans, Normal';text-align:start;letter-spacing:0px;word-spacing:0px;writing-mode:lr-tb;text-anchor:start;fill:#a00000;fill-opacity:1;stroke:none;stroke-width:1px;stroke-linecap:butt;stroke-linejoin:miter;stroke-opacity:1"
       id="text4256"
       transform="translate(-5.9642857,68.75)">
      <path
         d="m 40.845,973.43365 -1.47,0 -3.105,-9.165 0,9.165 -1.32,0 0,-10.935 1.935,0 3.24,9.525 3.18,-9.525 1.935,0 0,10.935 -1.32,0 0,-9.165 -3.075,9.165 z"
         style="fill:#a00000;fill-opacity:1"
         id="path4261"
         inkscape:connector-curvature="0" />
      <path
         d="m 48.685547,965.57365 0,7.86 -1.245,0 0,-7.86 1.245,0 z m 0,-3.075 0,1.575 -1.26,0 0,-1.575 1.26,0 z"
         style="fill:#a00000;fill-opacity:1"
         id="path4263"
         inkscape:connector-curvature="0" />
      <path
         d="m 50.675391,965.57365 1.155,0 0,1.32 q 0.525,-0.825 1.125,-1.185 0.615,-0.36 1.485,-0.36 1.14,0 1.815,0.585 0.675,0.585 0.675,1.56 l 0,5.94 -1.245,0 0,-5.445 q 0,-0.705 -0.435,-1.125 -0.435,-0.42 -1.185,-0.42 -0.96,0 -1.545,0.735 -0.585,0.72 -0.585,1.92 l 0,4.335 -1.26,0 0,-7.86 z"
         style="fill:#a00000;fill-opacity:1"
         id="path4265"
         inkscape:connector-curvature="0" />
      <path
         d="m 60.082031,965.57365 0,7.86 -1.245,0 0,-7.86 1.245,0 z m 0,-3.075 0,1.575 -1.26,0 0,-1.575 1.26,0 z"
         style="fill:#a00000;fill-opacity:1"
         id="path4267"
         inkscape:connector-curvature="0" />
      <path
         d="m 62.071875,965.57365 1.155,0 0,1.11 q 0.51,-0.705 1.065,-1.02 0.57,-0.315 1.35,-0.315 1.455,0 2.115,1.2 0.555,-0.66 1.095,-0.93 0.54,-0.27 1.32,-0.27 1.095,0 1.68,0.57 0.6,0.555 0.6,1.62 l 0,5.895 -1.26,0 0,-5.415 q 0,-0.75 -0.39,-1.155 -0.375,-0.42 -1.065,-0.42 -0.765,0 -1.305,0.6 -0.54,0.6 -0.54,1.455 l 0,4.935 -1.26,0 0,-5.415 q 0,-0.75 -0.39,-1.155 -0.375,-0.42 -1.065,-0.42 -0.765,0 -1.305,0.6 -0.54,0.6 -0.54,1.455 l 0,4.935 -1.26,0 0,-7.86 z"
         style="fill:#a00000;fill-opacity:1"
         id="path4269"
         inkscape:connector-curvature="0" />
      <path
         d="m 80.514375,973.43365 -1.125,0 0,-1.095 q -0.555,0.78 -1.155,1.11 -0.6,0.33 -1.47,0.33 -1.14,0 -1.83,-0.585 -0.675,-0.585 -0.675,-1.56 l 0,-6.06 1.245,0 0,5.565 q 0,0.705 0.435,1.125 0.435,0.42 1.185,0.42 0.975,0 1.56,-0.72 0.585,-0.735 0.585,-1.935 l 0,-4.455 1.245,0 0,7.86 z"
         style="fill:#a00000;fill-opacity:1"
         id="path4271"
         inkscape:connector-curvature="0" />
      <path
         d="m 82.316016,965.57365 1.155,0 0,1.11 q 0.51,-0.705 1.065,-1.02 0.57,-0.315 1.35,-0.315 1.455,0 2.115,1.2 0.555,-0.66 1.095,-0.93 0.54,-0.27 1.32,-0.27 1.095,0 1.68,0.57 0.6,0.555 0.6,1.62 l 0,5.895 -1.26,0 0,-5.415 q 0,-0.75 -0.39,-1.155 -0.375,-0.42 -1.065,-0.42 -0.765,0 -1.305,0.6 -0.54,0.6 -0.54,1.455 l 0,4.935 -1.26,0 0,-5.415 q 0,-0.75 -0.39,-1.155 -0.375,-0.42 -1.065,-0.42 -0.765,0 -1.305,0.6 -0.54,0.6 -0.54,1.455 l 0,4.935 -1.26,0 0,-7.86 z"
         style="fill:#a00000;fill-opacity:1"
         id="path4273"
         inkscape:connector-curvature="0" />
    </g>
  </g>
</svg>
