<?xml version="1.0" ?><!DOCTYPE svg  PUBLIC '-//W3C//DTD SVG 1.1//EN'  'http://www.w3.org/Graphics/SVG/1.1/DTD/svg11.dtd'><svg height="16px" id="Layer_1" style="enable-background:new 0 0 16 16;" version="1.1" viewBox="0 0 16 16" width="16px" xml:space="preserve" xmlns="http://www.w3.org/2000/svg" xmlns:xlink="http://www.w3.org/1999/xlink"><path d="M15,6h-5V1c0-0.55-0.45-1-1-1H7C6.45,0,6,0.45,6,1v5H1C0.45,6,0,6.45,0,7v2c0,0.55,0.45,1,1,1h5v5c0,0.55,0.45,1,1,1h2  c0.55,0,1-0.45,1-1v-5h5c0.55,0,1-0.45,1-1V7C16,6.45,15.55,6,15,6z"/></svg>