/* XPM */
static const char *current[]={
"32 32 3 1",
". c None",
"a c #fd933a",
"# c #ff8000",
"................................",
"................................",
".................#########......",
"................###########.....",
".................##########.....",
"......................####......",
".....................####.......",
"....................####........",
"...........########..#..........",
".........###########............",
"........############............",
".......########a#####...........",
"......#######...#####...........",
".....#######....#####...........",
".....#######.....###............",
"....########................##..",
"....########...............####.",
"....########.....###......#####.",
"....########....####.....######.",
"....########...#####....#######.",
"....#########..#####...####.###.",
"....################..####..###.",
".....##############..####...###.",
"....#.############..####....###.",
"...###..########...####......#..",
"..####............####..........",
".####............####...........",
"..#.............####............",
"...............####.............",
"..............####..............",
"...............#................",
"................................"};
