/* XPM */
static const char *exitt[]={
"32 32 199 2",
"Qt c None",
".d c #000000",
".m c #000001",
".E c #000002",
".j c #000004",
"#U c #000006",
".M c #000007",
"au c #000009",
"b. c #00000c",
".2 c #000100",
".h c #000103",
".x c #000104",
"aJ c #000107",
"ah c #000200",
"aR c #000300",
".a c #000313",
"#B c #000700",
"aI c #000800",
"at c #00080a",
"bc c #000b10",
".F c #000c00",
".e c #001000",
"aK c #001003",
"aQ c #001505",
".4 c #010000",
".S c #01000c",
".y c #010100",
"af c #010500",
"am c #020000",
"b# c #02010c",
"#r c #03000f",
".n c #030100",
"#5 c #030406",
"#C c #040000",
"#6 c #040300",
".s c #040305",
"aY c #040c00",
".l c #050000",
".f c #050200",
".3 c #050407",
".r c #060005",
"#f c #060d06",
".# c #070000",
"#4 c #070004",
"#E c #070005",
"#e c #080003",
"aA c #08000e",
"an c #0a0000",
"be c #0a1005",
"#N c #0b0401",
".b c #0c0000",
"ag c #0c0600",
".V c #0d0601",
"a2 c #0e0001",
"#. c #0e100a",
".L c #0f0003",
"a8 c #100000",
".1 c #100803",
"#q c #110313",
"a7 c #110d00",
"#s c #120801",
"a3 c #3f5252",
"bd c #463b49",
"ba c #464557",
".i c #485551",
".t c #494d4d",
".G c #4b444e",
"aS c #4c4e48",
"aB c #576b4f",
".c c #5b5751",
"#V c #5e7657",
"#D c #5f5055",
"#M c #61696a",
".T c #626951",
"#L c #635c58",
"aC c #666b74",
".U c #685f70",
"#g c #7b0022",
"aT c #88062e",
"aZ c #890038",
".K c #89043d",
".N c #89053e",
"al c #8c0836",
"#F c #8e0a32",
".5 c #8f0031",
"aD c #8f062c",
"bb c #910027",
"aa c #930030",
"aP c #930036",
"a1 c #94082c",
"#t c #960a46",
"a4 c #960e32",
"az c #970035",
".0 c #98033e",
"a# c #981b35",
"a9 c #9a041b",
"#p c #9a0729",
"ao c #9b003d",
"#d c #9d1537",
"#K c #a1003c",
"a6 c #a30042",
"#A c #a40739",
"#h c #c90536",
"#w c #cb004a",
"#b c #cc0645",
"#G c #cf0337",
"#Z c #cf044a",
"#z c #d0003c",
"#S c #d00c41",
".8 c #d10f52",
"#a c #d2003e",
"ap c #d2004b",
"aw c #d20051",
"#9 c #d20541",
".B c #d30454",
"#R c #d40052",
"ab c #d50048",
"aX c #d5005e",
".Y c #d5044e",
"aW c #d5082c",
"#y c #d60049",
"#m c #d60952",
"aF c #d80647",
".P c #d80b57",
".Z c #d9003d",
"aV c #d90051",
"ak c #da0054",
"aj c #da0344",
".p c #da0645",
"aM c #da095b",
"#0 c #db003f",
"aO c #db0046",
".Q c #db004f",
"a0 c #db0062",
"#u c #db023f",
"#2 c #db0542",
".v c #db0657",
".O c #dd003e",
"ad c #dd0046",
"#c c #dd0054",
"ar c #dd0750",
"#n c #dd0f5a",
"ax c #dd0f5b",
"#J c #de003d",
".J c #de0051",
"aq c #de0749",
".I c #df003c",
"aG c #df0040",
"a5 c #df004d",
"#H c #df015f",
"#Y c #df084a",
"#X c #e10250",
".C c #e2003b",
"#v c #e20048",
"#P c #e30052",
"ay c #e31832",
"aL c #e50032",
"aU c #e50043",
"aE c #e50052",
"#1 c #e50956",
"#o c #e60041",
"#j c #e60a54",
"ac c #e60b49",
"a. c #e70048",
".7 c #e8003d",
"#Q c #e80042",
".A c #e80048",
"#I c #e80d45",
"#x c #ea003e",
".6 c #ea1658",
"#i c #eb0054",
"#8 c #eb0058",
"aN c #eb0931",
".X c #ee0748",
"ae c #ee688e",
"#7 c #f2708b",
".W c #f47c94",
"#O c #f85c89",
"#k c #f85d80",
".9 c #f86481",
".D c #fc7190",
".q c #fd668d",
".H c #fd719a",
"aH c #fe649c",
"#T c #ff5b89",
"## c #ff5f7d",
".k c #ff5f84",
".g c #ff6186",
"av c #ff6682",
".u c #ff6785",
"ai c #ff679f",
"#W c #ff6989",
".R c #ff698b",
".z c #ff6997",
".o c #ff6a9c",
".w c #ff6c8e",
"#3 c #ff7390",
"as c #ff7395",
"#l c #ff76a5",
"QtQtQtQtQtQtQtQtQtQtQtQtQtQtQtQtQtQtQtQtQtQtQtQtQtQtQtQtQtQtQtQt",
"QtQtQtQtQtQtQtQtQtQtQtQtQtQtQtQtQtQtQtQtQtQtQtQtQtQtQtQtQtQtQtQt",
"QtQtQtQtQtQtQtQtQtQtQtQtQtQtQtQtQtQtQtQtQtQtQtQtQtQtQtQtQtQtQtQt",
"QtQtQtQtQtQtQtQtQtQtQtQtQtQtQtQtQtQtQtQtQtQtQtQtQtQtQtQtQtQtQtQt",
"QtQtQtQtQtQtQtQtQtQtQtQtQtQtQtQtQtQtQtQtQtQtQtQtQtQtQtQtQtQtQtQt",
"QtQtQtQtQtQtQtQtQtQtQtQtQtQtQtQtQtQtQtQtQtQtQtQtQtQtQtQtQtQtQtQt",
"QtQtQtQtQtQtQtQtQt.#.a.bQtQtQtQtQtQtQtQt.c.d.eQtQtQtQtQtQtQtQtQt",
"QtQtQtQtQtQtQtQt.f.d.g.h.dQtQtQtQtQtQt.i.j.k.l.dQtQtQtQtQtQtQtQt",
"QtQtQtQtQtQtQt.m.n.o.p.q.r.sQtQtQtQt.t.l.u.v.w.x.dQtQtQtQtQtQtQt",
"QtQtQtQtQtQtQt.y.z.A.B.C.D.E.FQtQt.G.d.H.I.J.C.K.LQtQtQtQtQtQtQt",
"QtQtQtQtQtQtQt.M.#.N.O.P.Q.R.S.T.U.V.W.X.Y.Z.0.1.2QtQtQtQtQtQtQt",
"QtQtQtQtQtQtQtQt.3.4.5.6.7.8.9#..d###a#b#c#d.d.dQtQtQtQtQtQtQtQt",
"QtQtQtQtQtQtQtQtQt#e#f#g#h#i#j#k#l#m#n#o#p.m#qQtQtQtQtQtQtQtQtQt",
"QtQtQtQtQtQtQtQtQtQt#r#s#t#u#v#w#x#y#z#A#B#CQtQtQtQtQtQtQtQtQtQt",
"QtQtQtQtQtQtQtQtQtQtQt#D#E#F#G#H#I#J#K.2#LQtQtQtQtQtQtQtQtQtQtQt",
"QtQtQtQtQtQtQtQtQtQtQt#M#N#O#P#Q#R#S#T#U#VQtQtQtQtQtQtQtQtQtQtQt",
"QtQtQtQtQtQtQtQtQtQt.r.d#W#X#Y#Z#0#1#2#3#4.dQtQtQtQtQtQtQtQtQtQt",
"QtQtQtQtQtQtQtQtQt#5#6#7#8#9a.a#aaabacadae.fafQtQtQtQtQtQtQtQtQt",
"QtQtQtQtQtQtQtQtagahai#zajakalamanaoapaqarasat.dQtQtQtQtQtQtQtQt",
"QtQtQtQtQtQtQtanauavawaxayazaAaBaCamaDaEaFaGaHaIaJQtQtQtQtQtQtQt",
"QtQtQtQtQtQtQtaKaLaMaNaOaPaQaRQtQtaS#4aTaUaVaWaXaIQtQtQtQtQtQtQt",
"QtQtQtQtQtQtQt.4aYaZa0a1.da2QtQtQtQta3.la4a5a6a7.dQtQtQtQtQtQtQt",
"QtQtQtQtQtQtQtQtaIa8a9b.b#QtQtQtQtQtQtbaahbb.dahQtQtQtQtQtQtQtQt",
"QtQtQtQtQtQtQtQtQt.mbc.4QtQtQtQtQtQtQtQtbdbe.#QtQtQtQtQtQtQtQtQt",
"QtQtQtQtQtQtQtQtQtQtQtQtQtQtQtQtQtQtQtQtQtQtQtQtQtQtQtQtQtQtQtQt",
"QtQtQtQtQtQtQtQtQtQtQtQtQtQtQtQtQtQtQtQtQtQtQtQtQtQtQtQtQtQtQtQt",
"QtQtQtQtQtQtQtQtQtQtQtQtQtQtQtQtQtQtQtQtQtQtQtQtQtQtQtQtQtQtQtQt",
"QtQtQtQtQtQtQtQtQtQtQtQtQtQtQtQtQtQtQtQtQtQtQtQtQtQtQtQtQtQtQtQt",
"QtQtQtQtQtQtQtQtQtQtQtQtQtQtQtQtQtQtQtQtQtQtQtQtQtQtQtQtQtQtQtQt",
"QtQtQtQtQtQtQtQtQtQtQtQtQtQtQtQtQtQtQtQtQtQtQtQtQtQtQtQtQtQtQtQt",
"QtQtQtQtQtQtQtQtQtQtQtQtQtQtQtQtQtQtQtQtQtQtQtQtQtQtQtQtQtQtQtQt",
"QtQtQtQtQtQtQtQtQtQtQtQtQtQtQtQtQtQtQtQtQtQtQtQtQtQtQtQtQtQtQtQt"};
