/* XPM */
static const char *gpx_export[]={
"32 32 93 2",
"Qt c None",
".f c #000000",
".E c #010101",
".R c #020202",
"#a c #030303",
".O c #040404",
"#g c #050505",
".c c #060606",
".y c #0b0b0b",
".p c #0c0c0c",
".6 c #111111",
".V c #121212",
".g c #131313",
"#r c #141414",
"#. c #161616",
"#l c #171717",
"#j c #181818",
".T c #191919",
".J c #1a1a1a",
".x c #1c1c1c",
".d c #1d1d1d",
".o c #232323",
".b c #252525",
"#z c #272727",
"#b c #292929",
".M c #3a3a3a",
".H c #3c3c3c",
".F c #3d3d3d",
".e c #474747",
".3 c #515151",
".2 c #525252",
"#c c #555555",
".Y c #575757",
".j c #585858",
".m c #595959",
".w c #5a5a5a",
".Z c #5e5e5e",
"#m c #5f5f5f",
"#f c #606060",
".W c #616161",
".h c #626262",
"## c #636363",
".C c #686868",
"#v c #6d6d6d",
"#x c #6f6f6f",
"#w c #707070",
".L c #717171",
".N c #727272",
".a c #747474",
".v c #7a7a7a",
"#y c #808080",
"#A c #828282",
".l c #949494",
".k c #959595",
".0 c #9b9b9b",
"#o c #a1a1a1",
"#n c #a2a2a2",
"#d c #a3a3a3",
".q c #a4a4a4",
".1 c #acacac",
".4 c #adadad",
".7 c #b1b1b1",
".t c #b7b7b7",
".D c #bcbcbc",
".I c #bdbdbd",
"#k c #c1c1c1",
"#t c #c2c2c2",
".A c #dcdcdc",
".z c #dddddd",
"#s c #dfdfdf",
"#i c #e0e0e0",
"#e c #e1e1e1",
"#h c #e2e2e2",
".5 c #e3e3e3",
".Q c #e4e4e4",
".S c #e5e5e5",
".K c #e7e7e7",
".U c #e8e8e8",
"#p c #e9e9e9",
".n c #eaeaea",
".9 c #ebebeb",
"#q c #ededed",
".# c #eeeeee",
".B c #efefef",
".X c #f0f0f0",
".i c #f1f1f1",
".s c #f2f2f2",
".r c #f3f3f3",
".8 c #f8f8f8",
"#u c #f9f9f9",
".u c #fafafa",
".G c #fbfbfb",
".P c #fcfcfc",
"QtQtQtQtQtQtQtQtQtQtQtQtQtQtQtQtQtQtQtQtQtQtQtQtQtQtQtQtQtQtQtQt",
"QtQtQtQtQtQtQtQtQtQtQtQtQtQtQtQtQtQtQtQtQtQtQtQtQtQtQtQtQtQtQtQt",
"QtQtQtQtQtQtQtQtQtQtQtQtQtQtQtQtQtQtQtQtQtQtQtQtQtQtQtQtQtQtQtQt",
"QtQtQtQt.#.a.b.c.c.d.eQtQt.f.f.f.f.g.h.iQt.j.f.kQtQtQt.l.f.mQtQt",
"QtQtQt.n.o.p.q.r.s.t.eQtQt.f.fQt.u.v.f.wQt.#.x.y.zQt.A.y.x.BQtQt",
"QtQtQt.C.f.kQtQtQtQtQtQtQt.f.fQtQt.B.f.pQtQt.D.E.F.G.H.E.IQtQtQt",
"QtQtQt.J.f.KQtQtQtQtQtQtQt.f.fQtQt.#.f.pQtQtQt.L.f.M.f.NQtQtQtQt",
"QtQtQt.O.f.PQtQt.f.f.fQtQt.f.fQt.u.v.f.mQtQtQt.Q.R.f.R.SQtQtQtQt",
"QtQtQt.T.f.UQtQtQt.f.fQtQt.f.f.f.f.V.W.XQtQtQt.Y.f.Z.f.jQtQtQtQt",
"QtQtQt.h.f.0QtQtQt.f.fQtQt.f.fQtQtQtQtQtQtQt.1.f.2Qt.3.f.4QtQtQt",
"QtQtQt.5.T.6.7.8.Q.f.fQtQt.f.fQtQtQtQtQtQt.9#..V.UQt.K.V#..9QtQt",
"QtQtQtQt.Q##.J#a.y#b.ZQtQt.f.fQtQtQtQtQtQt#c.f#dQtQtQt#d.f#cQtQt",
"QtQtQtQtQtQtQtQtQtQtQtQtQtQtQtQtQtQtQtQtQtQtQtQtQtQtQtQtQtQtQtQt",
"QtQtQtQtQtQtQtQtQtQtQtQtQtQtQtQtQtQtQtQtQtQtQtQtQtQtQtQtQtQtQtQt",
"QtQtQtQtQtQtQtQtQtQtQtQtQtQtQtQtQtQtQtQtQtQtQtQtQtQtQtQtQtQtQtQt",
"QtQtQtQtQtQtQtQtQtQtQtQtQtQtQtQtQtQtQtQtQtQtQtQtQtQtQtQtQtQtQtQt",
"QtQtQtQtQtQtQtQtQtQtQtQtQtQtQtQtQtQtQtQtQtQtQtQtQtQtQtQtQtQtQtQt",
"QtQtQtQt#e#f.T#g.J#f#hQtQtQt.f.fQtQtQtQt.f.fQt.f.f.f.f.f.f.f.fQt",
"QtQtQt#i#.#j#k.8#k#l#l#hQtQt.f.fQtQtQtQt.f.fQtQtQtQt.f.fQtQtQtQt",
"QtQtQt#m.f#nQtQtQt#o.f#fQtQt.f.fQtQtQtQt.f.fQtQtQtQt.f.fQtQtQtQt",
"QtQtQt#j.f.nQtQtQt#p.f.JQtQt.f.fQtQtQtQt.f.fQtQtQtQt.f.fQtQtQtQt",
"QtQtQt.O.f.PQtQtQt.G.f#gQtQt.f.fQtQtQtQt.f.fQtQtQtQt.f.fQtQtQtQt",
"QtQtQt#j.f.nQtQtQt#p.f.TQtQt.f.fQtQtQtQt.f.fQtQtQtQt.f.fQtQtQtQt",
"QtQtQt.Z.f#dQtQtQt#n.f#fQtQt.g.f.#QtQt#q.f#rQtQtQtQt.f.fQtQtQtQt",
"QtQtQt#s#r#j#t#u#k#j#.#eQtQt#v.f#w.s.s#x.f#wQtQtQtQt.f.fQtQtQtQt",
"QtQtQtQt#s.Z#j.O#j#m#iQtQtQt#u#y#z.c.c#z#A.uQtQtQtQt.f.fQtQtQtQt",
"QtQtQtQtQtQtQtQtQtQtQtQtQtQtQtQtQtQtQtQtQtQtQtQtQtQtQtQtQtQtQtQt",
"QtQtQtQtQtQtQtQtQtQtQtQtQtQtQtQtQtQtQtQtQtQtQtQtQtQtQtQtQtQtQtQt",
"QtQtQtQtQtQtQtQtQtQtQtQtQtQtQtQtQtQtQtQtQtQtQtQtQtQtQtQtQtQtQtQt",
"QtQtQtQtQtQtQtQtQtQtQtQtQtQtQtQtQtQtQtQtQtQtQtQtQtQtQtQtQtQtQtQt",
"QtQtQtQtQtQtQtQtQtQtQtQtQtQtQtQtQtQtQtQtQtQtQtQtQtQtQtQtQtQtQtQt",
"QtQtQtQtQtQtQtQtQtQtQtQtQtQtQtQtQtQtQtQtQtQtQtQtQtQtQtQtQtQtQtQt"};
