/* XPM */
static const char *gpx_import[]={
"32 32 79 2",
"Qt c None",
".f c #000000",
".E c #010101",
".R c #020202",
"#a c #030303",
".O c #040404",
".c c #060606",
".y c #0b0b0b",
".p c #0c0c0c",
".6 c #111111",
".V c #121212",
".g c #131313",
"#. c #161616",
".T c #191919",
".J c #1a1a1a",
".x c #1c1c1c",
".d c #1d1d1d",
".o c #232323",
".b c #252525",
"#b c #292929",
"#l c #2f2f2f",
"#i c #313131",
"#g c #333333",
"#e c #343434",
".M c #3a3a3a",
".H c #3c3c3c",
".F c #3d3d3d",
".e c #474747",
".3 c #515151",
".2 c #525252",
"#c c #555555",
".Y c #575757",
".j c #585858",
".m c #595959",
".w c #5a5a5a",
".Z c #5e5e5e",
".W c #616161",
".h c #626262",
"## c #636363",
".C c #686868",
".L c #717171",
".N c #727272",
".a c #747474",
".v c #7a7a7a",
".l c #949494",
".k c #959595",
".0 c #9b9b9b",
"#d c #a3a3a3",
".q c #a4a4a4",
".1 c #acacac",
".4 c #adadad",
"#k c #afafaf",
".7 c #b1b1b1",
"#f c #b3b3b3",
".t c #b7b7b7",
"#h c #b8b8b8",
".D c #bcbcbc",
".I c #bdbdbd",
"#j c #c2c2c2",
"#m c #cbcbcb",
".A c #dcdcdc",
".z c #dddddd",
".5 c #e3e3e3",
".Q c #e4e4e4",
".S c #e5e5e5",
".K c #e7e7e7",
".U c #e8e8e8",
".n c #eaeaea",
".9 c #ebebeb",
".# c #eeeeee",
".B c #efefef",
".X c #f0f0f0",
".i c #f1f1f1",
".s c #f2f2f2",
".r c #f3f3f3",
".8 c #f8f8f8",
".u c #fafafa",
".G c #fbfbfb",
".P c #fcfcfc",
"QtQtQtQtQtQtQtQtQtQtQtQtQtQtQtQtQtQtQtQtQtQtQtQtQtQtQtQtQtQtQtQt",
"QtQtQtQtQtQtQtQtQtQtQtQtQtQtQtQtQtQtQtQtQtQtQtQtQtQtQtQtQtQtQtQt",
"QtQtQtQtQtQtQtQtQtQtQtQtQtQtQtQtQtQtQtQtQtQtQtQtQtQtQtQtQtQtQtQt",
"QtQtQtQt.#.a.b.c.c.d.eQtQt.f.f.f.f.g.h.iQt.j.f.kQtQtQt.l.f.mQtQt",
"QtQtQt.n.o.p.q.r.s.t.eQtQt.f.fQt.u.v.f.wQt.#.x.y.zQt.A.y.x.BQtQt",
"QtQtQt.C.f.kQtQtQtQtQtQtQt.f.fQtQt.B.f.pQtQt.D.E.F.G.H.E.IQtQtQt",
"QtQtQt.J.f.KQtQtQtQtQtQtQt.f.fQtQt.#.f.pQtQtQt.L.f.M.f.NQtQtQtQt",
"QtQtQt.O.f.PQtQt.f.f.fQtQt.f.fQt.u.v.f.mQtQtQt.Q.R.f.R.SQtQtQtQt",
"QtQtQt.T.f.UQtQtQt.f.fQtQt.f.f.f.f.V.W.XQtQtQt.Y.f.Z.f.jQtQtQtQt",
"QtQtQt.h.f.0QtQtQt.f.fQtQt.f.fQtQtQtQtQtQtQt.1.f.2Qt.3.f.4QtQtQt",
"QtQtQt.5.T.6.7.8.Q.f.fQtQt.f.fQtQtQtQtQtQt.9#..V.UQt.K.V#..9QtQt",
"QtQtQtQt.Q##.J#a.y#b.ZQtQt.f.fQtQtQtQtQtQt#c.f#dQtQtQt#d.f#cQtQt",
"QtQtQtQtQtQtQtQtQtQtQtQtQtQtQtQtQtQtQtQtQtQtQtQtQtQtQtQtQtQtQtQt",
"QtQtQtQtQtQtQtQtQtQtQtQtQtQtQtQtQtQtQtQtQtQtQtQtQtQtQtQtQtQtQtQt",
"QtQtQtQtQtQtQtQtQtQtQtQtQtQtQtQtQtQtQtQtQtQtQtQtQtQtQtQtQtQtQtQt",
"QtQtQtQtQtQtQtQtQtQtQtQtQtQtQtQtQtQtQtQtQtQtQtQtQtQtQtQtQtQtQtQt",
"QtQtQtQtQtQtQtQtQtQtQtQtQtQtQtQtQtQtQtQtQtQtQtQtQtQtQtQtQtQtQtQt",
"QtQtQtQtQtQtQtQtQtQtQt.f.fQtQt.f.f#eQtQtQt.f.fQtQtQtQtQtQtQtQtQt",
"QtQtQtQtQtQtQtQtQtQtQt.f.fQtQt.f.f.f#fQtQt.f.fQtQtQtQtQtQtQtQtQt",
"QtQtQtQtQtQtQtQtQtQtQt.f.fQtQt.f.f#e#gQtQt.f.fQtQtQtQtQtQtQtQtQt",
"QtQtQtQtQtQtQtQtQtQtQt.f.fQtQt.f.f#h.f.7Qt.f.fQtQtQtQtQtQtQtQtQt",
"QtQtQtQtQtQtQtQtQtQtQt.f.fQtQt.f.fQt.F#iQt.f.fQtQtQtQtQtQtQtQtQt",
"QtQtQtQtQtQtQtQtQtQtQt.f.fQtQt.f.fQt#j.f#k.f.fQtQtQtQtQtQtQtQtQt",
"QtQtQtQtQtQtQtQtQtQtQt.f.fQtQt.f.fQtQt.e#l.f.fQtQtQtQtQtQtQtQtQt",
"QtQtQtQtQtQtQtQtQtQtQt.f.fQtQt.f.fQtQt#m.f.f.fQtQtQtQtQtQtQtQtQt",
"QtQtQtQtQtQtQtQtQtQtQt.f.fQtQt.f.fQtQtQt.3.f.fQtQtQtQtQtQtQtQtQt",
"QtQtQtQtQtQtQtQtQtQtQtQtQtQtQtQtQtQtQtQtQtQtQtQtQtQtQtQtQtQtQtQt",
"QtQtQtQtQtQtQtQtQtQtQtQtQtQtQtQtQtQtQtQtQtQtQtQtQtQtQtQtQtQtQtQt",
"QtQtQtQtQtQtQtQtQtQtQtQtQtQtQtQtQtQtQtQtQtQtQtQtQtQtQtQtQtQtQtQt",
"QtQtQtQtQtQtQtQtQtQtQtQtQtQtQtQtQtQtQtQtQtQtQtQtQtQtQtQtQtQtQtQt",
"QtQtQtQtQtQtQtQtQtQtQtQtQtQtQtQtQtQtQtQtQtQtQtQtQtQtQtQtQtQtQtQt",
"QtQtQtQtQtQtQtQtQtQtQtQtQtQtQtQtQtQtQtQtQtQtQtQtQtQtQtQtQtQtQtQt"};
