/* XPM */
static const char *help[]={
"32 32 20 1",
". c None",
"# c #0000ff",
"h c #0101ff",
"c c #0202ff",
"m c #0303ff",
"f c #0404ff",
"p c #0505ff",
"d c #0909ff",
"l c #0a0aff",
"b c #1010ff",
"r c #1111ff",
"q c #1616ff",
"n c #1717ff",
"k c #1818ff",
"e c #2121ff",
"g c #2828ff",
"i c #2a2aff",
"j c #2d2dff",
"o c #2e2eff",
"a c #3737ff",
"................................",
"................................",
"................................",
"................................",
"................................",
"................................",
"................................",
"............#######.............",
"...........##abcde##............",
"..........#f########g...........",
".........###h####i##hj..........",
".........k##h....#####..........",
".........l##c.....####..........",
".........####....###hm..........",
"..........##....#n##h...........",
"...............#dh##............",
"...............j###.............",
"...............mh##.............",
"...............###..............",
"................................",
"...............hho..............",
"..............#####.............",
"..............ph###.............",
"...............qr#..............",
"................................",
"................................",
"................................",
"................................",
"................................",
"................................",
"................................",
"................................"};
