/* XPM */
static const char *mob[]={
"16 16 6 1",
". c None",
"c c #7f0000",
"# c #7f7f7f",
"d c #bfbfbf",
"a c #ff0000",
"b c #ffffff",
"................",
".....#a#a#a.....",
"...aababbabaa...",
"..#abbacaabbaa..",
".aaabacccaabaaa.",
".aacccc....aaaa.",
"##cacc.....#aaca",
"aaacc......a#aac",
"##cc#......daacc",
"aaacc......a#aca",
".aac#.....daacc.",
".aaaaa.dda#acac.",
"..aaa.aaaa.aac..",
"...a..abba..c...",
"......acac......",
"................"};
