/* XPM */
static const char *print[]={
"32 32 166 2",
"Qt c None",
".a c #000000",
"#O c #094bd7",
"#x c #0d51d9",
".z c #0e0e0e",
"#N c #0f55da",
"#w c #1056db",
"#e c #155dde",
"#v c #155ede",
"#b c #1861df",
".Z c #1959d8",
"#3 c #1963e0",
".Y c #1b59cb",
"#a c #1b66e1",
"#y c #1b66e2",
".K c #1c1c1c",
".B c #1d1d1d",
"#c c #1d69e3",
".G c #1e52b7",
"## c #206de5",
"aF c #212121",
"#u c #216de4",
"#2 c #216ee5",
"#d c #216fe5",
"#1 c #2876e7",
"av c #2b2b2b",
"#0 c #2e7eea",
"#M c #2f83ed",
"#7 c #329a30",
"#Z c #3585ed",
"#W c #358df2",
"#4 c #3668d0",
"aI c #373737",
".1 c #383838",
".# c #3a3a3a",
".l c #3b3b3b",
"#Y c #3b8cef",
".g c #3c3c3c",
"#X c #3c8ff1",
"aE c #3e3e3e",
"#L c #449cf6",
"#t c #4695f0",
".f c #484848",
"#D c #4ca1f7",
"#. c #4e99f1",
"#8 c #4f984d",
"aj c #4f994d",
"#K c #51a5f7",
"#5 c #5377c8",
"aG c #545454",
".2 c #575757",
"#V c #59a3f1",
"#l c #59abf8",
"#z c #5c7cc4",
".M c #5cacf8",
"#J c #5eaef8",
".H c #6283c9",
"#h c #656565",
"#U c #65a9f0",
".p c #666666",
"#E c #67b4f9",
".X c #68799a",
"#I c #6ab5f9",
"#s c #6cb7f9",
".V c #6e93d1",
".U c #7097d3",
"#P c #7289c0",
".k c #737373",
".T c #739ad4",
"#H c #73bbfa",
".W c #7595cd",
".S c #759ed6",
"#g c #797979",
"#r c #79c0fa",
"#F c #7ac0fa",
".P c #7ba8da",
".E c #7cb8f2",
"#G c #7cc1fa",
"#f c #7e92bf",
".N c #7eb1e2",
".C c #7f7f7f",
".3 c #808080",
"#m c #80c4fb",
".9 c #81c4fa",
"aJ c #828282",
"#q c #84c7fb",
"ak c #88ae88",
".5 c #88c9fb",
"#n c #89cafb",
"#p c #8bccfb",
"#o c #8dcdfb",
"#T c #8ebbeb",
"#C c #8ebceb",
".J c #909090",
".t c #929292",
".R c #93b7db",
".O c #94b1cf",
".8 c #94d1fc",
".F c #95bde6",
".6 c #95d2fc",
".Q c #97badc",
"aH c #999999",
"au c #9b9b9b",
".7 c #9dd8fd",
"ah c #9e9e9e",
".u c #9f9f9f",
".I c #a0a0a0",
"#A c #a1a1a1",
"at c #a3a3a3",
"#Q c #a6a6a6",
"as c #a7a7a7",
"ag c #a9a9a9",
"#6 c #a9adb6",
"ar c #ababab",
".0 c #abafb8",
".x c #acacac",
".A c #adadad",
"aq c #afafaf",
".o c #b2b2b2",
"af c #b3b3b3",
".j c #b5b5b5",
"aD c #b6b6b6",
".e c #b7b7b7",
"aC c #b8b8b8",
".c c #bababa",
"#k c #bad1e9",
"ap c #bbbbbb",
"ae c #bcbcbc",
"aB c #bdbdbd",
".w c #bfbfbf",
".h c #c0c0c0",
"aA c #c1c1c1",
"ao c #c3c3c3",
"ad c #c4c4c4",
".i c #c5c5c5",
"az c #c6c6c6",
"am c #c78181",
"an c #c7c7c7",
"ac c #c8c8c8",
"ay c #c9c9c9",
"#i c #cacaca",
"#S c #cad5e1",
"ab c #cbcbcb",
"ax c #cdcdcd",
"aw c #cecece",
"al c #cf4141",
"aa c #cfcfcf",
"a. c #d14444",
"a# c #d3d3d3",
".s c #d6d6d6",
".r c #d7d7d7",
".n c #d8d8d8",
".4 c #dce2e8",
".v c #dddddd",
"ai c #dfdfdf",
".L c #e2e2e2",
"#j c #e3e3e3",
"#R c #e4e4e4",
".D c #e5e5e5",
".y c #e7e7e7",
"#9 c #e82929",
"#B c #e8e8e8",
".m c #e9e9e9",
".q c #ebebeb",
".d c #f5f5f5",
".b c #f8f8f8",
"QtQtQtQtQtQtQtQtQtQtQtQtQtQtQtQtQtQtQtQtQtQtQtQtQtQtQtQtQtQtQtQt",
"QtQtQtQtQtQtQtQtQtQtQtQtQtQtQtQtQtQtQtQtQtQtQtQtQtQtQtQtQtQtQtQt",
"QtQtQtQtQtQtQtQtQtQtQtQtQtQtQtQtQtQtQtQtQtQtQtQtQtQtQtQtQtQtQtQt",
"QtQtQtQtQtQtQtQtQtQtQtQtQtQtQtQtQtQtQtQtQtQtQtQtQtQtQtQtQtQtQtQt",
"QtQtQtQtQtQtQtQtQtQtQtQtQtQtQtQtQtQtQtQtQtQtQtQtQtQtQtQtQtQtQtQt",
"QtQtQtQtQtQtQtQtQtQtQtQtQtQtQtQtQtQtQtQtQtQtQtQtQtQtQtQtQtQtQtQt",
"QtQtQtQtQtQtQtQtQtQtQtQtQtQtQtQtQtQtQtQtQtQtQtQtQtQtQtQtQtQtQtQt",
"QtQtQtQtQtQtQtQtQtQt.#.a.a.a.a.a.a.a.a.a.a.#QtQtQtQtQtQtQtQtQtQt",
"QtQtQtQtQtQtQtQtQtQt.#.b.b.b.b.b.b.b.b.b.c.#QtQtQtQtQtQtQtQtQtQt",
"QtQtQtQtQtQtQtQtQtQt.#.d.d.d.d.d.d.d.d.d.e.fQtQtQtQtQtQtQtQtQtQt",
"QtQtQtQtQtQtQtQtQtQt.g.h.i.i.i.i.i.i.i.h.j.kQtQtQtQtQtQtQtQtQtQt",
"QtQtQtQtQtQtQtQtQtQt.l.m.n.n.n.n.n.n.n.m.o.kQtQtQtQtQtQtQtQtQtQt",
"QtQtQtQtQtQtQtQtQtQt.p.q.r.s.s.s.q.q.q.q.t.kQtQtQtQtQtQtQtQtQtQt",
"QtQtQtQtQtQt.u.a.a.a.k.v.w.w.w.c.x.x.w.y.k.z.a.a.AQtQtQtQtQtQtQt",
"QtQtQtQtQtQt.B.C.D.E.F.n.r.r.r.r.r.r.r.r.t.G.H.I.BQtQtQtQtQtQtQt",
"QtQtQtQtQt.J.K.L.y.M.N.O.P.Q.R.S.T.U.V.W.X.Y.Z.0.1.AQtQtQtQtQtQt",
"QtQtQtQtQt.2.3.L.4.M.5.6.7.7.8.9#.###a#b#c#d#e#f#g#hQtQtQtQtQtQt",
"QtQtQtQtQt.B#i#j#k#l#m#n#o#p#q#r#s#t#u#v#w#x#y#z#A.#QtQtQtQtQtQt",
"QtQtQtQtQt.a#B#j#C#D#E#F#G#r#H#I#J#K#L#M#y#N#O#P#Q.aQtQtQtQtQtQt",
"QtQtQtQtQt.l#B#R#S#T#U#V#W#X#Y#Z#0#1#2#3.Z#4#5#6#A.aQtQtQtQtQtQt",
"QtQtQtQtQt.#.y#j#7#8#9a..n.sa#aaabacad.hae.eafagah.aQtQtQtQtQtQt",
"QtQtQtQtQt.z#jaiajakalamabanao.wap.eafaqarasat.uau.zQtQtQtQtQtQt",
"QtQtQtQtQtav.v.baaawaxabayacazadaoaA.waBae.caCaD.u.#QtQtQtQtQtQt",
"QtQtQtQtQt.uaEa#.o.o.o.o.o.o.o.o.o.o.o.o.o.o.o.oaF.AQtQtQtQtQtQt",
"QtQtQtQtQtQt.2aGauaHaHaHaHaHaHaHaHaHaHaHaHaH#gaI#hQtQtQtQtQtQtQt",
"QtQtQtQtQtQt.n.a.a.a.a.a.a.a.a.a.a.a.a.a.a.aavaJQtQtQtQtQtQtQtQt",
"QtQtQtQtQtQtQtQtQtQtQtQtQtQtQtQtQtQtQtQtQtQtQtQtQtQtQtQtQtQtQtQt",
"QtQtQtQtQtQtQtQtQtQtQtQtQtQtQtQtQtQtQtQtQtQtQtQtQtQtQtQtQtQtQtQt",
"QtQtQtQtQtQtQtQtQtQtQtQtQtQtQtQtQtQtQtQtQtQtQtQtQtQtQtQtQtQtQtQt",
"QtQtQtQtQtQtQtQtQtQtQtQtQtQtQtQtQtQtQtQtQtQtQtQtQtQtQtQtQtQtQtQt",
"QtQtQtQtQtQtQtQtQtQtQtQtQtQtQtQtQtQtQtQtQtQtQtQtQtQtQtQtQtQtQtQt",
"QtQtQtQtQtQtQtQtQtQtQtQtQtQtQtQtQtQtQtQtQtQtQtQtQtQtQtQtQtQtQtQt"};
