/* XPM */
static const char *settings[]={
"32 32 111 2",
"Qt c None",
"#z c #393110",
"#c c #423110",
"#s c #423910",
".x c #423929",
"#u c #424231",
"#l c #424239",
"#M c #4a3910",
".e c #4a4221",
"#v c #4a4239",
".u c #4a4a42",
".o c #4a4a4a",
"#O c #524a29",
".l c #52524a",
"#R c #5a5242",
".M c #5a5252",
"#w c #5a5a52",
"#i c #5a5a5a",
".z c #635229",
".k c #635a18",
".# c #635a42",
".p c #635a4a",
".S c #63635a",
".D c #636363",
"#h c #6b5a10",
"#x c #6b6339",
"#J c #6b6342",
".U c #6b6b5a",
".F c #6b6b63",
"#I c #6b6b6b",
".R c #735a10",
".3 c #736310",
".t c #736321",
"#m c #736331",
".m c #736b31",
"#F c #736b42",
".y c #737363",
".I c #73736b",
"#E c #737373",
".f c #7b6b31",
"#C c #7b7b7b",
"#A c #7b7b84",
".v c #847331",
".4 c #847339",
"#S c #848484",
"#r c #8c7318",
".C c #947b29",
".a c #947b31",
".T c #949494",
".6 c #a58418",
".d c #a58c21",
".W c #a58c29",
".J c #a58c42",
".H c #a59439",
"#P c #a59442",
".N c #ad9431",
".A c #ad9c42",
"#Q c #ada563",
".0 c #b59c29",
".E c #b59c42",
"#p c #b5a531",
".L c #b5a539",
".w c #b5a54a",
".G c #bda54a",
"#t c #bdb573",
".X c #c6a529",
".b c #c6ad4a",
"#q c #c6bd42",
"#y c #c6bd7b",
"#K c #cead29",
"#G c #cead31",
"#D c #ceb54a",
"#B c #cebd4a",
"#o c #cec68c",
".c c #d6bd52",
"#b c #d6c64a",
".7 c #d6c65a",
"#H c #d6ce9c",
"#L c #dec64a",
".5 c #dec663",
"#j c #dec66b",
"#k c #dece4a",
"#n c #dece63",
"#N c #ded6a5",
"#d c #e7ce6b",
".8 c #e7d66b",
".q c #e7d67b",
".9 c #efde63",
".g c #efde84",
".Z c #efe76b",
".Q c #efe77b",
".j c #efe78c",
"#g c #f7e75a",
".Y c #f7ef7b",
".s c #f7ef9c",
".1 c #ffef73",
".n c #ffefad",
".2 c #fff763",
"#a c #fff76b",
".V c #ffff73",
"#f c #ffff7b",
"## c #ffff84",
".h c #ffff8c",
"#. c #ffff94",
".K c #ffff9c",
".P c #ffffa5",
".O c #ffffad",
".B c #ffffb5",
".i c #ffffbd",
".r c #ffffc6",
"#e c #ffffd6",
"QtQtQtQtQtQtQtQtQtQtQtQtQtQtQtQtQtQtQtQtQtQtQtQtQtQtQtQtQtQtQtQt",
"QtQtQtQtQtQtQtQtQtQtQtQtQtQtQtQtQtQtQtQtQtQtQtQtQtQtQtQtQtQtQtQt",
"QtQtQtQtQtQtQtQtQtQtQtQtQtQtQtQtQtQtQtQtQtQtQtQtQtQtQtQtQtQtQtQt",
"QtQtQtQtQtQtQtQtQtQtQtQtQtQtQtQtQtQtQtQtQtQtQtQtQtQtQtQtQtQtQtQt",
"QtQtQtQtQtQtQtQtQtQtQtQtQtQtQtQtQtQtQtQtQtQtQtQtQtQtQtQtQtQtQtQt",
"QtQtQtQtQtQtQtQtQtQtQtQtQtQtQtQt.#.a.b.c.d.eQtQtQtQtQtQtQtQtQtQt",
"QtQtQtQtQtQtQtQtQtQtQtQtQtQtQt.f.g.h.i.j.k.lQtQtQtQtQtQtQtQtQtQt",
"QtQtQtQtQtQtQtQtQtQtQtQtQtQt.m.n.h.i.j.k.oQtQtQtQtQtQtQtQtQtQtQt",
"QtQtQtQtQtQtQtQtQtQtQtQtQt.p.q.h.r.s.t.uQtQtQtQtQtQtQtQtQtQtQtQt",
"QtQtQtQtQtQtQtQtQtQtQtQtQt.v.h.r.i.w.xQtQtQtQtQt.y.zQtQtQtQtQtQt",
"QtQtQtQtQtQtQtQtQtQtQtQtQt.A.h.i.B.C.DQtQtQtQt.y.A.E.FQtQtQtQtQt",
"QtQtQtQtQtQtQtQtQtQtQtQtQt.G.h.B.B.H.lQtQtQt.I.J.K.L.MQtQtQtQtQt",
"QtQtQtQtQtQtQtQtQtQtQtQtQt.N.h.O.P.Q.R.S.T.U.J.K.V.W.SQtQtQtQtQt",
"QtQtQtQtQtQtQtQtQtQtQtQtQt.w.q.d.X.Y.Z.0.W.c.K.1.2.3.SQtQtQtQtQt",
"QtQtQtQtQtQtQtQtQtQtQtQt.4.5.6.7.8.9#.#######a#a#b#cQtQtQtQtQtQt",
"QtQtQtQtQtQtQtQtQtQtQt.v#d.d.8.P#.#e.O#f#f#a.V#g#h#iQtQtQtQtQtQt",
"QtQtQtQtQtQtQtQtQtQt.f#j.d.8.P.h.B.h.P#f#f#a#k.R#lQtQtQtQtQtQtQt",
"QtQtQtQtQtQtQtQtQt#m#d.d#n.K.h.O.h#o#p#q.L#r#s.lQtQtQtQtQtQtQtQt",
"QtQtQtQtQtQtQtQt#m#n.d.7.K.h.P.h#t#c.u#u#v#wQtQtQtQtQtQtQtQtQtQt",
"QtQtQtQtQtQtQt#x.5.d.7.K##.P.h#y#z#AQtQtQtQtQtQtQtQtQtQtQtQtQtQt",
"QtQtQtQtQtQt#x.5.W#B#.##.K.h#o#z#CQtQtQtQtQtQtQtQtQtQtQtQtQtQtQt",
"QtQtQtQtQt.y#D.W#B.h##.K.h#o#s#EQtQtQtQtQtQtQtQtQtQtQtQtQtQtQtQt",
"QtQtQtQtQt#F#G#p.h#f.h.h#H#s#IQtQtQtQtQtQtQtQtQtQtQtQtQtQtQtQtQt",
"QtQtQtQtQt#J#K#L##.h.h#H#M.FQtQtQtQtQtQtQtQtQtQtQtQtQtQtQtQtQtQt",
"QtQtQtQtQt.F.0.1.h.h#N#M.DQtQtQtQtQtQtQtQtQtQtQtQtQtQtQtQtQtQtQt",
"QtQtQtQtQtQt#O#P#o#Q#M.SQtQtQtQtQtQtQtQtQtQtQtQtQtQtQtQtQtQtQtQt",
"QtQtQtQtQtQtQt.F#R#w#SQtQtQtQtQtQtQtQtQtQtQtQtQtQtQtQtQtQtQtQtQt",
"QtQtQtQtQtQtQtQtQtQtQtQtQtQtQtQtQtQtQtQtQtQtQtQtQtQtQtQtQtQtQtQt",
"QtQtQtQtQtQtQtQtQtQtQtQtQtQtQtQtQtQtQtQtQtQtQtQtQtQtQtQtQtQtQtQt",
"QtQtQtQtQtQtQtQtQtQtQtQtQtQtQtQtQtQtQtQtQtQtQtQtQtQtQtQtQtQtQtQt",
"QtQtQtQtQtQtQtQtQtQtQtQtQtQtQtQtQtQtQtQtQtQtQtQtQtQtQtQtQtQtQtQt",
"QtQtQtQtQtQtQtQtQtQtQtQtQtQtQtQtQtQtQtQtQtQtQtQtQtQtQtQtQtQtQtQt"};
