/* XPM */
static const char *tide[]={
"32 32 20 1",
". c None",
"a c #000000",
"k c #008000",
"# c #00ff00",
"b c #010101",
"q c #030303",
"c c #040404",
"l c #0b0b0b",
"p c #0c0c0c",
"i c #181818",
"e c #191919",
"g c #242424",
"f c #252525",
"n c #282828",
"j c #292929",
"r c #444444",
"d c #494949",
"m c #525252",
"h c #545454",
"o c #626262",
"................................",
".......................######...",
".......................######...",
".......................#...##...",
".......................#...##...",
".......................#...##...",
".......................######...",
".......................######...",
".......abaaaaaaaaaa....#...##...",
".......aaaaaaaaaaaa....#...##...",
"......abc..dbaa..ebf...#..###...",
"......gb...hbaa...ib...#...##...",
"......ja.kkhbaa....l...#...##...",
".......kkk.haaak.......######...",
"......kk...haaakk......######...",
".....kk....hbaa.kk.....#...##...",
"....kk.....hbaa..kk....#...##...",
"...kk......hbaa...k....#..###...",
"..kk.......hbaa....k...#...##...",
".kk........mbaa....kk..#...##..k",
"...........nbaa.....kk.######.kk",
".........opaaaaqf....kk######kk.",
".........rbaaaaaa.....k#...##k..",
".......................#...##...",
".......................#...##...",
".......................#..###...",
".......................#...##...",
".......................#...##...",
".......................######...",
".......................######...",
"................................",
"................................"};
