/* XPM */
static const char *tidesml[]={
"16 16 9 1",
"f c #018001",
"g c #008000",
"e c #002b00",
"a c #008000",
"c c #0e380e",
"d c #386338",
"b c #000000",
". c #386338",
"# c #ffffff",
"................",
".##########aaa#.",
".##########a#a#.",
".##bbbbbbbbaaa#.",
".##bbbbbbbba#a#.",
".#####bb###a#a#.",
".##cadbe###aaa#.",
".#fa##bea##aaa#.",
".fa###bbfg#a#a#.",
".a####bb#gfa#aa.",
".#####bb##aaaa#.",
".##########a#a#.",
".##########a#a#.",
".##########a#a#.",
".##########aaa#.",
"................"};
