/* XPM */
static const char *trackon[]={
"32 32 5 1",
"b c None",
". c None",
"a c #000000",
"c c #ff0000",
"# c #ff00ff",
"................................",
"................................",
"................................",
"................................",
"..........................###...",
".......................######...",
"..............##......##..#.#...",
".........a...####........#..#...",
".........a..##..#...aa..#aa.#...",
"..........a.#.aa##....a#a...#...",
"..........a#aa...##..##a........",
"...........a......####a.a.......",
".........aaa.........a...a......",
"........a.#.a.......a.....a.....",
".......a.##.a...................",
".........#...a..................",
"........##......................",
"........#.......................",
".......##..aaaaa...........a....",
"......##.....a.............a....",
"......#......a.............a.a..",
".a...##......a..a.a.aa..aa.aaa..",
"..a..#aa.....a..aa.aba.a...aa...",
"...aaa.......a..a..aba.a.a.aaa..",
"..aa#........a..a...aa..aa.a.a..",
".a##a...........................",
"a##..a....................aaa...",
".....a...................accca..",
".........................accca..",
".........................accca..",
"..........................aaa...",
"................................"};
