/* XPM */
static const char *zoomin[]={
"32 32 7 1",
". c None",
"a c #000000",
"e c #000080",
"c c #0000ff",
"# c #808080",
"d c #c0c0c0",
"b c #ffffff",
"................................",
"......#aaaaa#...................",
".....a#....#aa..................",
"....a.........a.................",
"...a....aa.....a................",
"..##....aa.....a#...............",
"..a.....aa......a#..............",
"..a..aaaaaaaa..ba#..............",
"..a..aaaaaaaa..ba#..............",
"..a.....aa....bba#..............",
"..a.....aa....bba#..............",
"..#a....aa...bba#...............",
"...a........bbaa#...............",
"....a.....bbbaaa##..............",
".....aa..bbbaa##a#..............",
".......aaaaa#####ca#............",
"........########dcca#...........",
"...............ecdcca#..........",
"...............eecdcca#.........",
"................eecdcca#........",
".................eecdcca#.......",
"..................eecdcca#......",
"...................eecdcc#......",
"....................eecdc#......",
".....................eeee.......",
"................................",
"....aaa.aaa.aaa.a.a..a.a.a......",
"......a.a.a.a.a.a.a..a.a.a......",
".....a..a.a.a.a.aaa..a.aaa......",
"....a...a.a.a.a.a.a..a.a.a......",
"....aaa.aaa.aaa.a.a..a.a.a......",
"................................"};
