/* XPM */
static const char *zoomout[]={
"32 32 7 1",
". c None",
"a c #000000",
"e c #000080",
"c c #0000ff",
"# c #808080",
"d c #c0c0c0",
"b c #ffffff",
"................................",
".................#aaaaa#........",
"................aa#....#a.......",
"...............a.........a......",
"..............a...........a.....",
".............#a...........##....",
".............a.............a#...",
".............a...aaaaaaaa..a#...",
".............a...aaaaaaaa.ba#...",
".............a............ba#...",
".............a...........bba#...",
".............#a.........bba#....",
"..............a........bbba#....",
"..............aa......bbba#.....",
".............a#baa..bbbaa#......",
"...........ac#d###aaaaa##.......",
"..........acdc##..#####.........",
".........acdcce#................",
"........acdccee#................",
".......acdccee#.................",
"......acdccee#..................",
".....acdccee#...................",
".....cdccee#....................",
"......ccee#.....................",
".....eeee#......................",
"................................",
"...aaa.aaa.aaa.a.a..aaa.a.aaaa..",
".....a.a.a.a.a.a.a..a.a.a.a.a...",
"....a..a.a.a.a.aaa..a.a.a.a.a...",
"...a...a.a.a.a.a.a..a.a.a.a.a...",
"...aaa.aaa.aaa.a.a..aaa.aaa.a...",
"................................"};
