<svg xmlns="http://www.w3.org/2000/svg" xmlns:xlink="http://www.w3.org/1999/xlink" shape-rendering="crispEdges" viewBox="0 0 32 32" height="32" width="32"><defs><linearGradient id="q"><stop offset="0" stop-color="#d5d5d3"/><stop offset="1" stop-color="#d6d6d2" stop-opacity="0"/></linearGradient><linearGradient id="f"><stop offset="0"/><stop offset="1" stop-color="#4a4a4a"/></linearGradient><linearGradient id="g"><stop offset="0" stop-color="#fff"/><stop offset="1" stop-color="#fff" stop-opacity="0"/></linearGradient><linearGradient id="h"><stop offset="0" stop-color="#fff" stop-opacity="0"/><stop offset=".883" stop-color="#fff" stop-opacity="0"/><stop offset="1" stop-color="#fff"/></linearGradient><linearGradient id="i"><stop offset="0" stop-color="#fffd33"/><stop offset=".456" stop-color="#fae926"/><stop offset=".668" stop-color="#f5d619"/><stop offset=".871" stop-color="#ebb000"/><stop offset="1" stop-color="#db6700"/></linearGradient><linearGradient id="j"><stop offset="0" stop-color="#fffec3"/><stop offset="1" stop-color="#fffec3" stop-opacity="0"/></linearGradient><linearGradient id="w"><stop offset="0" stop-color="#fff"/><stop offset="1" stop-color="#939393"/></linearGradient><linearGradient y2="1055.434" x2="73.009" y1="1086.414" x1="73.009" gradientTransform="translate(-59.414 -1122.204) scale(1.03294)" gradientUnits="userSpaceOnUse" id="x" xlink:href="#w"/><linearGradient id="k"><stop offset="0" stop-color="#dffaff"/><stop offset=".5" stop-color="#c6f5ff" stop-opacity=".813"/><stop offset="1" stop-color="#aef0ff" stop-opacity="0"/></linearGradient><linearGradient xlink:href="#d" id="e" gradientUnits="userSpaceOnUse" gradientTransform="translate(1.164 569.018)" x1="-1573.223" y1="95.709" x2="-1573.223" y2="358.388"/><linearGradient id="l"><stop offset="0" stop-color="#fff"/><stop offset="1" stop-color="#bebebe"/></linearGradient><linearGradient id="r"><stop offset="0" stop-color="#4e4e4e"/><stop offset="1" stop-color="#1b1b1b" stop-opacity=".38"/></linearGradient><linearGradient id="d"><stop offset="0" stop-color="#f3f1ef"/><stop offset="1" stop-color="#b0b5bc"/></linearGradient><linearGradient id="n"><stop offset="0" stop-color="#f1f0ee"/><stop offset="1" stop-color="#c6c6c6"/></linearGradient><linearGradient id="v"><stop offset="0" stop-color="#ff1010"/><stop offset="1" stop-color="#920101"/></linearGradient><linearGradient id="p"><stop offset="0" stop-color="#fff"/><stop offset="1" stop-color="#e4e1dc" stop-opacity="0"/></linearGradient><linearGradient id="o"><stop offset="0" stop-color="#d7d7d7"/><stop offset="1" stop-color="#d9d8d4" stop-opacity="0"/></linearGradient><linearGradient id="t"><stop offset="0" stop-color="#f7f6f4"/><stop offset="1" stop-color="#f7f6f4" stop-opacity="0"/></linearGradient><linearGradient id="m"><stop offset="0" stop-color="#f1f0ef" stop-opacity=".924"/><stop offset="1" stop-color="#b0b5bc"/></linearGradient><linearGradient id="s"><stop offset="0" stop-color="#37414d"/><stop offset="1" stop-color="#737373" stop-opacity="0"/></linearGradient><linearGradient id="u"><stop offset="0" stop-color="#b6babc"/><stop offset="1" stop-color="#b6babc" stop-opacity="0"/></linearGradient><linearGradient id="a"><stop offset="0" stop-color="#6de4ff"/><stop offset=".662" stop-color="#578bcf"/><stop offset="1" stop-color="#0027a0"/></linearGradient><linearGradient y2="1070.924" x2="73.009" y1="1086.414" x1="73.009" gradientTransform="translate(-59.414 -1090.204) scale(1.03294)" gradientUnits="userSpaceOnUse" id="y" xlink:href="#g"/><radialGradient r="4.436" fy="162.255" fx="70.182" cy="162.255" cx="70.182" gradientTransform="matrix(1 0 0 .54098 0 74.477)" gradientUnits="userSpaceOnUse" id="z" xlink:href="#g"/><radialGradient r="4.436" fy="162.255" fx="70.182" cy="162.255" cx="70.182" gradientTransform="matrix(1 0 0 .54098 0 74.477)" gradientUnits="userSpaceOnUse" id="B" xlink:href="#g"/><radialGradient r="4.436" fy="162.255" fx="70.182" cy="162.255" cx="70.182" gradientTransform="matrix(1 0 0 .54098 0 74.477)" gradientUnits="userSpaceOnUse" id="C" xlink:href="#g"/><radialGradient xlink:href="#a" id="c" gradientUnits="userSpaceOnUse" gradientTransform="matrix(1 0 0 2.2083 30.255 -267.71)" cx="-104.095" cy="223.006" fx="-105.841" fy="224.059" r="5.334"/><radialGradient xlink:href="#a" id="b" gradientUnits="userSpaceOnUse" gradientTransform="matrix(.7002 .07348 -.1479 1.40926 62.16 -92.81)" cx="-105.621" cy="224.09" fx="-107.366" fy="225.144" r="5.334"/><filter id="A" x="-.517" width="2.034" y="-.956" height="2.912" color-interpolation-filters="sRGB"><feGaussianBlur stdDeviation="1.912"/></filter></defs><g transform="translate(.243 -.056)"><rect transform="scale(1 -1)" width="32" height="32" y="-32.001" ry="3.878" fill="url(#x)" enable-background="new"/><rect y=".001" width="32" height="32" ry="3.878" fill="url(#y)" enable-background="new"/><rect width="30.979" height="30.979" x=".511" y=".511" ry="3.755" fill="none" stroke="#939393" stroke-width="1.021" stroke-linecap="round" stroke-linejoin="round" enable-background="new"/></g><path transform="matrix(.37268 .12615 1.12966 -.05634 -189.69 16.878)" d="M71.127 159.855l-3.49.436-1.6 1.746-.292 1.02.728 1.6 3.49-1.165 2.91-.58 1.454.145.29-2.328-3.49-.872z" opacity=".306" fill="url(#z)" fill-rule="evenodd" filter="url(#A)"/><path d="M71.127 159.855l-3.49.436-1.6 1.746-.292 1.02.728 1.6 3.49-1.165 2.91-.58 1.454.145.29-2.328-3.49-.872z" transform="matrix(-.04842 .12615 -.14678 -.05634 53.795 22.634)" opacity=".306" fill="url(#B)" fill-rule="evenodd" filter="url(#A)"/><path transform="matrix(-.05836 .15205 -.1769 -.0679 70.866 22.17)" d="M71.127 159.855l-3.49.436-1.6 1.746-.292 1.02.728 1.6 3.49-1.165 2.91-.58 1.454.145.29-2.328-3.49-.872z" opacity=".306" fill="url(#C)" fill-rule="evenodd" filter="url(#A)"/><path d="M.224 16.155V.182h31.82v31.946H.224V16.155zm19.95 10.732c.382-.118.765-.272.851-.342.333-.272 1.044-1.898 1.493-3.414.394-1.327.52-1.609.78-1.727.573-.261 1.168-.794 1.747-1.563 1.13-1.505 1.44-2.654 1.533-5.707.08-2.577-.01-3.21-.63-4.473-.783-1.592-2.57-2.987-4.454-3.478-1.044-.272-5.26-.271-6.305.001-2.49.649-4.533 2.056-5.857 4.036-2.408 3.599-2.876 10.622-.913 13.68.97 1.514 2.582 2.619 4.547 3.12 1.04.264 6.234.169 7.208-.133z" fill="none"/><path d="M3.4 21.015c7.875-10.86.457-2.652 8.254-2.652 6.276 0 1.577 1.768 7.04-1.642 5.725-3.573 2.391-8.021 7.213-3.156L29.41 17.1" fill="#9f6" fill-rule="evenodd" stroke="#000"/><g style="line-height:125%" font-weight="400" font-size="7.674" font-family="sans-serif" letter-spacing="0" word-spacing="0"><path d="M5.208 28.714v-1.61H4.055v-.668h1.852v2.576q-.41.333-.902.506-.493.169-1.052.169-1.223 0-1.915-.82-.688-.824-.688-2.29 0-1.47.688-2.29.692-.824 1.915-.824.51 0 .968.144.462.145.85.426v.864q-.392-.382-.832-.574-.44-.193-.926-.193-.958 0-1.44.615-.479.614-.479 1.832 0 1.213.48 1.828.481.615 1.439.615.374 0 .667-.073.294-.076.528-.233zM10.52 27.135v.362H7.562q.042.763.398 1.165.36.398 1 .398.37 0 .716-.104.35-.105.692-.314v.7q-.346.168-.71.257-.363.088-.737.088-.936 0-1.485-.627-.545-.627-.545-1.696 0-1.105.517-1.752.52-.65 1.402-.65.79 0 1.247.586.461.583.461 1.587zm-.644-.217q-.007-.606-.297-.968-.286-.362-.761-.362-.539 0-.864.35-.321.35-.37.984l2.292-.004zm-.618-3.93h.695L8.814 24.5h-.535l.979-1.51zM13.091 25.588q-.517 0-.818.466-.3.463-.3 1.27 0 .808.297 1.274.3.462.821.462.514 0 .814-.466.3-.466.3-1.27 0-.8-.3-1.266-.3-.47-.814-.47zm0-.626q.839 0 1.317.626.48.627.48 1.736 0 1.105-.48 1.736-.478.627-1.317.627-.842 0-1.32-.627-.476-.63-.476-1.736 0-1.109.475-1.736.479-.626 1.321-.626zM18.85 28.895v2.387h-.647V25.07h.647v.683q.202-.402.51-.595.311-.196.74-.196.714 0 1.157.65.448.651.448 1.712t-.448 1.712q-.443.65-1.156.65-.43 0-.741-.192-.308-.197-.51-.599zm2.187-1.57q0-.816-.293-1.279-.29-.466-.8-.466t-.804.466q-.29.463-.29 1.278 0 .816.29 1.282.293.462.804.462.51 0 .8-.462.293-.466.293-1.282zM24.287 25.588q-.517 0-.818.466-.3.463-.3 1.27 0 .808.297 1.274.3.462.821.462.514 0 .814-.466.3-.466.3-1.27 0-.8-.3-1.266-.3-.47-.814-.47zm0-.626q.839 0 1.317.626.48.627.48 1.736 0 1.105-.48 1.736-.478.627-1.317.627-.842 0-1.32-.627-.476-.63-.476-1.736 0-1.109.475-1.736.479-.626 1.321-.626zM27.781 23.792v1.278h1.325v.575H27.78v2.443q0 .55.13.707.132.157.534.157h.66v.618h-.66q-.744 0-1.027-.317-.283-.322-.283-1.165v-2.443h-.472v-.575h.472v-1.278h.646zM30.046 28.55h.737v1.02h-.737v-1.02z"/></g><path d="M7.829 5.105c-3.915 8.965-4.799 9.47-3.915 8.965l.884-.505 18.94-5.43 3.41-5.303h0" fill="#deffff" fill-rule="evenodd" stroke="#000"/><g style="line-height:125%" font-weight="400" font-size="3.102" font-family="sans-serif" letter-spacing="0" word-spacing="0" fill="#039"><path d="M8.733 6.171h1.14v.272h-.874v.584q.063-.024.126-.035.064-.013.127-.013.36 0 .57.218.21.219.21.592 0 .385-.217.599-.215.212-.608.212-.135 0-.276-.026-.14-.025-.289-.076v-.324q.13.078.268.116.138.039.292.039.248 0 .394-.146.145-.145.145-.394 0-.249-.145-.394-.146-.145-.394-.145-.117 0-.233.029-.115.029-.236.09V6.171zM11.226 6.384q-.225 0-.338.245-.112.245-.112.736 0 .49.112.735.113.245.338.245.225 0 .338-.245.113-.245.113-.735 0-.491-.113-.736t-.338-.245zm0-.256q.36 0 .55.318.191.316.191.919 0 .601-.19.919-.19.316-.551.316-.361 0-.552-.316-.19-.318-.19-.92 0-.602.19-.918.19-.318.552-.318zM13.1 6.384q-.224 0-.338.245-.112.245-.112.736 0 .49.112.735.114.245.338.245.226 0 .338-.245.114-.245.114-.735 0-.491-.114-.736-.112-.245-.338-.245zm0-.256q.361 0 .55.318.192.316.192.919 0 .601-.191.919-.19.316-.55.316-.362 0-.553-.316-.19-.318-.19-.92 0-.602.19-.918.191-.318.552-.318zM16.507 7.11q.1-.198.237-.292.138-.095.325-.095.252 0 .388.197.137.194.137.555v1.079h-.266v-1.07q0-.256-.082-.38-.082-.125-.25-.125-.206 0-.325.151-.12.152-.12.414v1.01h-.265v-1.07q0-.258-.082-.38-.082-.125-.253-.125-.203 0-.322.153-.12.152-.12.412v1.01h-.265V6.767h.266v.277q.09-.164.217-.242.126-.079.3-.079.176 0 .298.1.123.098.182.287z"/></g></svg>