<?xml version="1.0" encoding="UTF-8" standalone="no"?>
<!-- Created with Inkscape (http://www.inkscape.org/) -->
<svg id="svg2" xmlns:rdf="http://www.w3.org/1999/02/22-rdf-syntax-ns#" xmlns="http://www.w3.org/2000/svg" shape-rendering="crispEdges" viewBox="0 0 32 32" version="1.1" xmlns:cc="http://creativecommons.org/ns#" xmlns:xlink="http://www.w3.org/1999/xlink" xmlns:dc="http://purl.org/dc/elements/1.1/">
 <title id="title4176">OpenCPN_Grib_Icone_grib</title>
 <defs id="defs4">
  <linearGradient id="g">
   <stop id="stop53785" stop-color="#fff" offset="0"/>
   <stop id="stop53787" stop-color="#fff" stop-opacity="0" offset="1"/>
  </linearGradient>
  <filter id="dc" style="color-interpolation-filters:sRGB;" height="2.9119999" width="2.0339999" y="-0.95599997" x="-0.51700002">
   <feGaussianBlur id="feGaussianBlur53842" stdDeviation="1.912"/>
  </filter>
  <radialGradient id="dU" gradientUnits="userSpaceOnUse" xlink:href="#g" cx="70.182" cy="162.26" r="4.436" gradientTransform="matrix(1,0,0,0.54098,0,74.477)"/>
  <linearGradient id="E-8" y2="1055.4" gradientUnits="userSpaceOnUse" y1="1086.4" gradientTransform="matrix(1.03294,0,0,1.03294,-59.414,-1122.2035)" x2="73.009" x1="73.009">
   <stop id="stop4324" stop-color="#fff" offset="0"/>
   <stop id="stop4326" stop-color="#939393" offset="1"/>
  </linearGradient>
  <linearGradient id="F-9" y2="1070.9" xlink:href="#g" gradientUnits="userSpaceOnUse" y1="1086.4" gradientTransform="matrix(1.03294,0,0,1.03294,-59.414,-1090.2035)" x2="73.009" x1="73.009"/>
 </defs>
 <metadata id="metadata7">
  <rdf:RDF>
   <cc:Work rdf:about="">
    <dc:format>image/svg+xml</dc:format>
    <dc:type rdf:resource="http://purl.org/dc/dcmitype/StillImage"/>
    <dc:title>OpenCPN_Grib_Icone_grib</dc:title>
    <dc:creator>
     <cc:Agent>
      <dc:title>Gilletarom</dc:title>
     </cc:Agent>
    </dc:creator>
   </cc:Work>
  </rdf:RDF>
 </metadata>
 <g id="layer1" transform="translate(0,-1020.3622)">
  <g id="g3880" transform="translate(0.24324437,1020.3068)">
   <g id="g61054" style="enable-background:new;" transform="translate(-2.5001168e-4,-2.4811079e-4)">
    <g id="g4276">
     <rect id="rect4364" ry="3.878" style="enable-background:new;" transform="scale(1,-1)" height="32" width="32" y="-32" x="0" fill="url(#E-8)"/>
     <rect id="rect4366" style="enable-background:new;" ry="3.878" height="32" width="32" y="0.00050004" x="0" fill="url(#F-9)"/>
     <rect id="rect4426" stroke-linejoin="round" style="enable-background:new;" ry="3.755" height="30.979" width="30.979" stroke="#939393" stroke-linecap="round" y="0.5105" x="0.511" stroke-width="1.021" fill="none"/>
    </g>
   </g>
   <path id="path55012" opacity="0.306" d="m71.127,159.86-3.49,0.436-1.6,1.746-0.292,1.02,0.728,1.6,3.49-1.165,2.91-0.58,1.454,0.145,0.29-2.328-3.49-0.872z" fill-rule="evenodd" transform="matrix(0.37268,0.12615,1.12966,-0.05634,-189.93275,16.933079)" filter="url(#dc)" fill="url(#dU)"/>
   <path id="path55024" opacity="0.306" d="m71.127,159.86-3.49,0.436-1.6,1.746-0.292,1.02,0.728,1.6,3.49-1.165,2.91-0.58,1.454,0.145,0.29-2.328-3.49-0.872z" fill-rule="evenodd" transform="matrix(-0.04842,0.12615,-0.14678,-0.05634,53.552248,22.689079)" filter="url(#dc)" fill="url(#dU)"/>
   <path id="path55164" opacity="0.306" d="m71.127,159.86-3.49,0.436-1.6,1.746-0.292,1.02,0.728,1.6,3.49-1.165,2.91-0.58,1.454,0.145,0.29-2.328-3.49-0.872z" fill-rule="evenodd" transform="matrix(-0.05836,0.15205,-0.1769,-0.0679,70.622652,22.22546)" filter="url(#dc)" fill="url(#dU)"/>
  </g>
  <path id="path4158" d="m0.22387,16.155,0-15.973,15.91,0,15.91,0,0,15.973,0,15.973-15.91,0-15.91,0,0-15.973zm19.95,10.732c0.38196-0.11817,0.76495-0.27238,0.85109-0.34269,0.3327-0.27156,1.0437-1.8974,1.493-3.4139,0.39306-1.3267,0.52023-1.6084,0.77954-1.7265,0.57312-0.26113,1.1685-0.79398,1.747-1.5636,1.1307-1.5041,1.4395-2.6536,1.5333-5.707,0.07917-2.5761-0.01017-3.2095-0.63091-4.4728-0.782-1.5909-2.568-2.9862-4.453-3.4772-1.044-0.2718-5.26-0.2711-6.305,0.001-2.491,0.6489-4.533,2.0561-5.8575,4.036-2.4071,3.599-2.8757,10.622-0.9129,13.68,0.9713,1.5136,2.5823,2.6185,4.5479,3.1191,1.0386,0.26451,6.2337,0.16927,7.2079-0.13213z" transform="translate(0,1020.3622)" stroke-dasharray="none" stroke-miterlimit="4" stroke-width="1.20000005" fill="none"/>
  <path id="path3347" stroke-linejoin="miter" d="m3.3992,1041.4c7.8762-10.859,0.45787-2.6517,8.255-2.6517,6.2763,0,1.5767,1.7678,7.0395-1.6415,5.7252-3.5731,2.3917-8.0218,7.2132-3.1567l3.5039,3.5355" fill-rule="evenodd" stroke="#000" stroke-linecap="butt" stroke-width="1px" fill="#9F6"/>
  <g id="text3351" style="letter-spacing:0px;word-spacing:0px;" font-weight="normal" transform="scale(0.93254381,1.0723357)" font-size="7.67410994px" font-style="normal" font-family="sans-serif" line-height="125%" fill="#000">
   <path id="path3606" style="" d="m5.5845,978.31,0-1.5026-1.2366,0,0-0.62202,1.986,0,0,2.4019q-0.43841,0.31101-0.96676,0.47214-0.52834,0.15738-1.1279,0.15738-1.3115,0-2.0534-0.76441-0.73818-0.76816-0.73818-2.1359,0-1.3714,0.73818-2.1359,0.74193-0.76817,2.0534-0.76817,0.54708,0,1.038,0.1349,0.49462,0.1349,0.91055,0.3972v0.80563q-0.41968-0.35598-0.89182-0.53584t-0.99299-0.17986q-1.0267,0-1.5438,0.57331-0.51336,0.57331-0.51336,1.7087,0,1.1316,0.51336,1.7049,0.5171,0.57331,1.5438,0.57331,0.40094,0,0.7157-0.0675,0.31476-0.0712,0.56582-0.21733z"/>
   <path id="path3608" style="" d="m11.28,976.84,0,0.33724-3.1701,0q0.044965,0.71195,0.42717,1.0867,0.38595,0.37097,1.0717,0.37097,0.39719,0,0.76816-0.0974,0.37471-0.0974,0.74193-0.29227v0.652q-0.37096,0.15738-0.76067,0.23981-0.3897,0.0824-0.79064,0.0824-1.0042,0-1.5925-0.58455-0.58455-0.58455-0.58455-1.5813,0-1.0305,0.55457-1.6337,0.55832-0.60704,1.5026-0.60704,0.84685,0,1.3377,0.54708,0.49462,0.54334,0.49462,1.4801zm-0.68947-0.20235q-0.0075-0.56581-0.31851-0.90306-0.30726-0.33724-0.81687-0.33724-0.57706,0-0.92554,0.326-0.34474,0.326-0.3972,0.91805l2.4581-0.004zm-0.66324-3.6647,0.74568,0-1.2216,1.4089-0.57331,0,1.0492-1.4089z"/>
   <path id="path3610" style="" d="m14.038,975.39q-0.55458,0-0.87683,0.43467-0.32225,0.43092-0.32225,1.1841,0,0.75317,0.31851,1.1878,0.32225,0.43092,0.88057,0.43092,0.55083,0,0.87308-0.43467,0.32225-0.43466,0.32225-1.1841,0-0.74568-0.32225-1.1803-0.32225-0.43842-0.87308-0.43842zm0-0.58455q0.89931,0,1.4127,0.58455,0.51336,0.58455,0.51336,1.6188,0,1.0305-0.51336,1.6188-0.51336,0.58455-1.4127,0.58455-0.90306,0-1.4164-0.58455-0.50961-0.5883-0.50961-1.6188,0-1.0342,0.50961-1.6188,0.51336-0.58455,1.4164-0.58455z"/>
   <path id="path3612" style="" d="m20.213,978.48,0,2.2258-0.69322,0,0-5.7931,0.69322,0,0,0.63702q0.21733-0.37472,0.54708-0.55458,0.33349-0.18361,0.79439-0.18361,0.76441,0,1.2403,0.60704,0.47963,0.60703,0.47963,1.5963,0,0.98924-0.47963,1.5963-0.47588,0.60703-1.2403,0.60703-0.4609,0-0.79439-0.17986-0.32975-0.18361-0.54708-0.55832zm2.3457-1.4651q0-0.76067-0.31476-1.1916-0.31101-0.43467-0.85809-0.43467t-0.86184,0.43467q-0.31101,0.43091-0.31101,1.1916,0,0.76067,0.31101,1.1953,0.31476,0.43092,0.86184,0.43092t0.85809-0.43092q0.31476-0.43466,0.31476-1.1953z"/>
   <path id="path3614" style="" d="m26.044,975.39q-0.55457,0-0.87683,0.43467-0.32225,0.43092-0.32225,1.1841,0,0.75317,0.31851,1.1878,0.32225,0.43092,0.88057,0.43092,0.55083,0,0.87308-0.43467,0.32225-0.43466,0.32225-1.1841,0-0.74568-0.32225-1.1803-0.32225-0.43842-0.87308-0.43842zm0-0.58455q0.89931,0,1.4127,0.58455,0.51336,0.58455,0.51336,1.6188,0,1.0305-0.51336,1.6188-0.51336,0.58455-1.4127,0.58455-0.90306,0-1.4164-0.58455-0.50961-0.5883-0.50961-1.6188,0-1.0342,0.50961-1.6188,0.51336-0.58455,1.4164-0.58455z"/>
   <path id="path3616" style="" d="m29.791,973.72,0,1.1916,1.4202,0,0,0.53584-1.4202,0,0,2.2782q0,0.51336,0.13864,0.6595,0.14239,0.14614,0.57331,0.14614h0.70821v0.57705h-0.70821q-0.79814,0-1.1017-0.29602-0.30352-0.29977-0.30352-1.0867v-2.2782h-0.50586v-0.53584h0.50586v-1.1916h0.69322z"/>
   <path id="path3618" style="" d="m32.219,978.16,0.79064,0,0,0.95177-0.79064,0,0-0.95177z"/>
  </g>
  <path id="path3359" stroke-linejoin="miter" d="m7.8287,1025.5c-3.9143,8.9651-4.7982,9.4702-3.9143,8.9651,0.88388-0.5051,0.88388-0.5051,0.88388-0.5051l18.94-5.4296,3.4093-5.3033" fill-rule="evenodd" stroke="#000" stroke-linecap="butt" stroke-width="1px" fill="#deffff"/>
  <g id="text3365" style="letter-spacing:0px;word-spacing:0px;" font-weight="normal" transform="scale(0.94920309,1.0535153)" font-size="3.10166264px" font-style="normal" font-family="sans-serif" line-height="125%" fill="#039">
   <path id="path3621" style="" d="m9.2003,974.39,1.201,0,0,0.25746-0.92081,0,0,0.5543q0.066637-0.0227,0.13327-0.0333,0.066637-0.0121,0.13327-0.0121,0.37862,0,0.59974,0.20748,0.22112,0.20749,0.22112,0.56188,0,0.36499-0.22717,0.56793-0.22717,0.20143-0.64063,0.20143-0.14236,0-0.29078-0.0242-0.1469-0.0242-0.30441-0.0727v-0.30744q0.1363,0.0742,0.28169,0.11056,0.14539,0.0363,0.30744,0.0363,0.26201,0,0.41497-0.13781,0.15296-0.13782,0.15296-0.37408t-0.15296-0.37408-0.41497-0.13782q-0.12267,0-0.24535,0.0273-0.12116,0.0273-0.24838,0.0848v-1.1359z"/>
   <path id="path3623" style="" d="m11.826,974.59q-0.23626,0-0.3559,0.23323-0.11813,0.23171-0.11813,0.69818,0,0.46494,0.11813,0.69817,0.11964,0.23172,0.3559,0.23172,0.23777,0,0.3559-0.23172,0.11964-0.23323,0.11964-0.69817,0-0.46647-0.11964-0.69818-0.11813-0.23323-0.3559-0.23323zm0-0.24232q0.38014,0,0.58005,0.30138,0.20143,0.29987,0.20143,0.87235,0,0.57096-0.20143,0.87234-0.19991,0.29987-0.58005,0.29987t-0.58156-0.29987q-0.19991-0.30138-0.19991-0.87234,0-0.57248,0.19991-0.87235,0.20143-0.30138,0.58156-0.30138z"/>
   <path id="path3625" style="" d="m13.801,974.59q-0.23626,0-0.3559,0.23323-0.11813,0.23171-0.11813,0.69818,0,0.46494,0.11813,0.69817,0.11964,0.23172,0.3559,0.23172,0.23777,0,0.3559-0.23172,0.11964-0.23323,0.11964-0.69817,0-0.46647-0.11964-0.69818-0.11813-0.23323-0.3559-0.23323zm0-0.24232q0.38014,0,0.58005,0.30138,0.20143,0.29987,0.20143,0.87235,0,0.57096-0.20143,0.87234-0.19991,0.29987-0.58005,0.29987t-0.58156-0.29987q-0.19991-0.30138-0.19991-0.87234,0-0.57248,0.19991-0.87235,0.20143-0.30138,0.58156-0.30138z"/>
   <path id="path3627" style="" d="m17.391,975.28q0.1045-0.1878,0.24989-0.27715,0.14539-0.0894,0.34227-0.0894,0.26504,0,0.40891,0.18628,0.14388,0.18477,0.14388,0.52704v1.0238h-0.28018v-1.0147q0-0.24383-0.08633-0.36196t-0.26352-0.11813q-0.21657,0-0.34227,0.14388-0.1257,0.14387-0.1257,0.39225v0.95867h-0.28018v-1.0147q0-0.24534-0.08633-0.36196-0.08633-0.11813-0.26655-0.11813-0.21354,0-0.33924,0.14539-0.1257,0.14388-0.1257,0.39074v0.95867h-0.28018v-1.6962h0.28018v0.26352q0.09541-0.15599,0.22869-0.2302,0.13328-0.0742,0.31653-0.0742,0.18477,0,0.3135,0.0939,0.13025,0.0939,0.19234,0.27261z"/>
  </g>
 </g>
</svg>
