<?xml version="1.0" encoding="UTF-8" standalone="no"?>
<!-- Created with Inkscape (http://www.inkscape.org/) -->
<svg id="svg2" xmlns:rdf="http://www.w3.org/1999/02/22-rdf-syntax-ns#" xmlns="http://www.w3.org/2000/svg" shape-rendering="crispEdges" viewBox="0 0 32 32" version="1.1" xmlns:cc="http://creativecommons.org/ns#" xmlns:xlink="http://www.w3.org/1999/xlink" xmlns:dc="http://purl.org/dc/elements/1.1/">
 <title id="title4176">OpenCPN_Grib_Icone_grib</title>
 <defs id="defs4">
  <linearGradient id="g">
   <stop id="stop53785" stop-color="#fff" offset="0"/>
   <stop id="stop53787" stop-color="#fff" stop-opacity="0" offset="1"/>
  </linearGradient>
  <filter id="dc" style="color-interpolation-filters:sRGB;" height="2.9119999" width="2.0339999" y="-0.95599997" x="-0.51700002">
   <feGaussianBlur id="feGaussianBlur53842" stdDeviation="1.912"/>
  </filter>
  <radialGradient id="dU" gradientUnits="userSpaceOnUse" xlink:href="#g" cx="70.182" cy="162.26" r="4.436" gradientTransform="matrix(1,0,0,0.54098,0,74.477)"/>
  <linearGradient id="E-8" y2="1055.4" gradientUnits="userSpaceOnUse" y1="1086.4" gradientTransform="matrix(1.03294,0,0,1.03294,-59.414,-1122.2035)" x2="73.009" x1="73.009">
   <stop id="stop4324" stop-color="#fff" offset="0"/>
   <stop id="stop4326" stop-color="#939393" offset="1"/>
  </linearGradient>
  <linearGradient id="F-9" y2="1070.9" xlink:href="#g" gradientUnits="userSpaceOnUse" y1="1086.4" gradientTransform="matrix(1.03294,0,0,1.03294,-59.414,-1090.2035)" x2="73.009" x1="73.009"/>
 </defs>
 <metadata id="metadata7">
  <rdf:RDF>
   <cc:Work rdf:about="">
    <dc:format>image/svg+xml</dc:format>
    <dc:type rdf:resource="http://purl.org/dc/dcmitype/StillImage"/>
    <dc:title>OpenCPN_Grib_Icone_grib</dc:title>
    <dc:creator>
     <cc:Agent>
      <dc:title>Gilletarom</dc:title>
     </cc:Agent>
    </dc:creator>
   </cc:Work>
  </rdf:RDF>
 </metadata>
 <g id="layer1" transform="translate(0,-1020.3622)">
  <g id="g61054" style="enable-background:new;" transform="translate(0.19578083,1020.3014)">
   <g id="g4276">
    <rect id="rect4364" style="enable-background:new;" transform="scale(1,-1)" ry="3.878" width="32" y="-32" x="0" height="32" fill="url(#E-8)"/>
    <rect id="rect4366" style="enable-background:new;" ry="3.878" height="32" width="32" y="0.00050004" x="0" fill="url(#F-9)"/>
    <rect id="rect4426" stroke-linejoin="round" style="enable-background:new;" ry="3.755" height="30.979" width="30.979" stroke="#939393" stroke-linecap="round" y="0.5105" x="0.511" stroke-width="1.021" fill="none"/>
   </g>
  </g>
  <path id="path55012" opacity="0.306" d="m71.127,159.86-3.49,0.436-1.6,1.746-0.292,1.02,0.728,1.6,3.49-1.165,2.91-0.58,1.454,0.145,0.29-2.328-3.49-0.872z" fill-rule="evenodd" transform="matrix(0.37268,0.12615,1.12966,-0.05634,-189.73672,1037.2347)" filter="url(#dc)" fill="url(#dU)"/>
  <path id="path55024" opacity="0.306" d="m71.127,159.86-3.49,0.436-1.6,1.746-0.292,1.02,0.728,1.6,3.49-1.165,2.91-0.58,1.454,0.145,0.29-2.328-3.49-0.872z" fill-rule="evenodd" transform="matrix(-0.04842,0.12615,-0.14678,-0.05634,53.748279,1042.9907)" filter="url(#dc)" fill="url(#dU)"/>
  <path id="path55164" opacity="0.306" d="m71.127,159.86-3.49,0.436-1.6,1.746-0.292,1.02,0.728,1.6,3.49-1.165,2.91-0.58,1.454,0.145,0.29-2.328-3.49-0.872z" fill-rule="evenodd" transform="matrix(-0.05836,0.15205,-0.1769,-0.0679,70.818683,1042.5271)" filter="url(#dc)" fill="url(#dU)"/>
  <path id="path4158" d="m0.22387,16.155,0-15.973,15.91,0,15.91,0,0,15.973,0,15.973-15.91,0-15.91,0,0-15.973zm19.95,10.732c0.38196-0.11817,0.76495-0.27238,0.85109-0.34269,0.3327-0.27156,1.0437-1.8974,1.493-3.4139,0.39306-1.3267,0.52023-1.6084,0.77954-1.7265,0.57312-0.26113,1.1685-0.79398,1.747-1.5636,1.1307-1.5041,1.4395-2.6536,1.5333-5.707,0.07917-2.5761-0.01017-3.2095-0.63091-4.4728-0.782-1.5909-2.568-2.9862-4.453-3.4772-1.044-0.2718-5.26-0.2711-6.305,0.001-2.491,0.6489-4.533,2.0561-5.8575,4.036-2.4071,3.599-2.8757,10.622-0.9129,13.68,0.9713,1.5136,2.5823,2.6185,4.5479,3.1191,1.0386,0.26451,6.2337,0.16927,7.2079-0.13213z" transform="translate(0,1020.3622)" stroke-dasharray="none" stroke-miterlimit="4" stroke-width="1.20000005" fill="none"/>
  <path id="path3362" d="m66.418-1010.7-10.63-3.6317-10.669-3.5164,8.4604-7.3903,8.3798-7.4816,2.17,11.022z" transform="matrix(-0.85298844,0.04453902,-0.0439002,-0.86540064,25.306148,155.00042)" stroke-dasharray="none" stroke-miterlimit="4" stroke-width="1.20000005" fill="#ff8c00"/>
  <text id="text3350" style="letter-spacing:0px;word-spacing:0px;" xml:space="preserve" font-size="20px" line-height="125%" font-style="normal" font-weight="normal" fill="#000000"><tspan id="tspan3352" style="letter-spacing:0px;word-spacing:0px;" font-weight="normal" xml:space="preserve" font-size="10.25208759px" line-height="125%" font-style="normal" y="0" x="0" font-family="sans-serif" fill="#000000"><tspan id="tspan3354" xml:space="preserve">1 2 3</tspan></tspan></text>
 </g>
 <g id="layer5">
  <g id="text3364" style="letter-spacing:0px;word-spacing:0px;" font-weight="normal" transform="matrix(0.7813064,0,0,1.2799076,0,-1020.3622)" font-size="10.25208759px" font-style="normal" font-family="sans-serif" line-height="125%" fill="#000">
   <path id="path7546" style="" d="m2.2143,805.68,1.6519,0,0-5.7017-1.7971,0.36042,0-0.92108,1.7871-0.36043,1.0112,0,0,6.6228,1.6519,0,0,0.851-4.3051,0,0-0.851z"/>
   <path id="path7548" style="" d="m12.702,805.68,3.5292,0,0,0.851-4.7456,0,0-0.851q0.57568-0.5957,1.5668-1.5969,0.99617-1.0062,1.2515-1.2965,0.48557-0.54565,0.6758-0.92109,0.19523-0.38045,0.19523-0.74588,0-0.5957-0.4205-0.97114-0.41549-0.37545-1.0863-0.37545-0.47556,0-1.0062,0.1652-0.52562,0.16519-1.1263,0.50059v-1.0212q0.61072-0.24529,1.1413-0.37044,0.53063-0.12515,0.97114-0.12515,1.1614,0,1.8522,0.58069,0.69081,0.58068,0.69081,1.5518,0,0.46054-0.17521,0.87603-0.1702,0.41048-0.62574,0.97114-0.12515,0.14517-0.79594,0.841-0.67079,0.69081-1.8922,1.9373z"/>
   <path id="path7550" style="" d="m24.686,802.5q0.72586,0.15518,1.1313,0.64576,0.41048,0.49058,0.41048,1.2114,0,1.1063-0.7609,1.712-0.7609,0.60571-2.1626,0.60571-0.47055,0-0.97114-0.0951-0.49558-0.0901-1.0262-0.27532v-0.97615q0.4205,0.24529,0.92109,0.37043,0.50059,0.12515,1.0462,0.12515,0.95112,0,1.4467-0.37544,0.50059-0.37544,0.50059-1.0913,0-0.66078-0.46555-1.0312-0.46054-0.37545-1.2865-0.37545h-0.87103v-0.83098h0.91107q0.74588,0,1.1413-0.29535,0.39547-0.30035,0.39547-0.86101,0-0.57568-0.41048-0.88104-0.40548-0.31037-1.1664-0.31037-0.41549,0-0.89105,0.0901t-1.0462,0.28033v-0.90106q0.57568-0.16019,1.0763-0.24028,0.5056-0.0801,0.95112-0.0801,1.1514,0,1.8221,0.52562,0.67079,0.52062,0.67079,1.4117,0,0.62073-0.35542,1.0512-0.35542,0.4255-1.0112,0.59069z"/>
  </g>
 </g>
</svg>
