<svg xmlns="http://www.w3.org/2000/svg" xmlns:xlink="http://www.w3.org/1999/xlink" shape-rendering="crispEdges" height="32" width="32"><defs><linearGradient id="c"><stop offset="0" stop-color="#fff"/><stop offset="1" stop-color="#fff" stop-opacity="0"/></linearGradient><linearGradient id="a"><stop offset="0" stop-color="#fff"/><stop offset="1" stop-color="#939393"/></linearGradient><linearGradient y2="1055.434" x2="73.009" y1="1086.414" x1="73.009" gradientTransform="translate(-59.414 -1122.204) scale(1.03294)" gradientUnits="userSpaceOnUse" id="e" xlink:href="#a"/><linearGradient id="b"><stop offset="0" stop-color="#f3f1ef"/><stop offset="1" stop-color="#b0b5bc"/></linearGradient><linearGradient id="d"><stop offset="0" stop-color="#6de4ff"/><stop offset=".662" stop-color="#578bcf"/><stop offset="1" stop-color="#0027a0"/></linearGradient><linearGradient y2="1070.924" x2="73.009" y1="1086.414" x1="73.009" gradientTransform="translate(-59.414 -1090.204) scale(1.03294)" gradientUnits="userSpaceOnUse" id="f" xlink:href="#c"/><radialGradient r="4.436" fy="162.255" fx="70.182" cy="162.255" cx="70.182" gradientTransform="matrix(1 0 0 .54098 0 74.477)" gradientUnits="userSpaceOnUse" id="g" xlink:href="#c"/><radialGradient r="4.436" fy="162.255" fx="70.182" cy="162.255" cx="70.182" gradientTransform="matrix(1 0 0 .54098 0 74.477)" gradientUnits="userSpaceOnUse" id="i" xlink:href="#c"/><radialGradient r="4.436" fy="162.255" fx="70.182" cy="162.255" cx="70.182" gradientTransform="matrix(1 0 0 .54098 0 74.477)" gradientUnits="userSpaceOnUse" id="j" xlink:href="#c"/><filter id="h" x="-.517" width="2.034" y="-.956" height="2.912" color-interpolation-filters="sRGB"><feGaussianBlur stdDeviation="1.912"/></filter></defs><g transform="translate(.196 -.06)"><rect ry="3.878" y="-32.001" height="32" width="32" transform="scale(1 -1)" fill="url(#e)" enable-background="new"/><rect ry="3.878" height="32" width="32" y=".001" fill="url(#f)" enable-background="new"/><rect ry="3.755" y=".511" x=".511" height="30.979" width="30.979" fill="none" stroke="#939393" stroke-width="1.021" stroke-linecap="round" stroke-linejoin="round" enable-background="new"/></g><path d="M71.127 159.855l-3.49.436-1.6 1.746-.292 1.02.728 1.6 3.49-1.165 2.91-.58 1.454.145.29-2.328-3.49-.872z" transform="matrix(.37268 .12615 1.12966 -.05634 -189.737 16.872)" opacity=".306" fill="url(#g)" fill-rule="evenodd" filter="url(#h)"/><path transform="matrix(-.04842 .12615 -.14678 -.05634 53.748 22.629)" d="M71.127 159.855l-3.49.436-1.6 1.746-.292 1.02.728 1.6 3.49-1.165 2.91-.58 1.454.145.29-2.328-3.49-.872z" opacity=".306" fill="url(#i)" fill-rule="evenodd" filter="url(#h)"/><path d="M71.127 159.855l-3.49.436-1.6 1.746-.292 1.02.728 1.6 3.49-1.165 2.91-.58 1.454.145.29-2.328-3.49-.872z" transform="matrix(-.05836 .15205 -.1769 -.0679 70.819 22.165)" opacity=".306" fill="url(#j)" fill-rule="evenodd" filter="url(#h)"/><path d="M.224 16.155V.182h31.82v31.946H.224V16.155zm19.95 10.732c.382-.118.765-.272.851-.342.333-.272 1.044-1.898 1.493-3.414.394-1.327.52-1.609.78-1.727.573-.261 1.168-.794 1.747-1.563 1.13-1.505 1.44-2.654 1.533-5.707.08-2.577-.01-3.21-.63-4.473-.783-1.592-2.57-2.987-4.454-3.478-1.044-.272-5.26-.271-6.305.001-2.49.649-4.533 2.056-5.857 4.036-2.408 3.599-2.876 10.622-.913 13.68.97 1.514 2.582 2.619 4.547 3.12 1.04.264 6.234.169 7.208-.133z" fill="none"/><path d="M13.022 12.251l9.227 2.67 9.255 2.567-6.892 6.773-6.82 6.848-2.334-9.442z" fill="#ff8c00"/><text style="line-height:125%" font-weight="400" font-size="20" letter-spacing="0" word-spacing="0" transform="translate(0 -1020.362)"><tspan style="line-height:125%" x="0" y="0" font-size="10.252" font-family="sans-serif"><tspan>1 2 3</tspan></tspan></text><path d="M1.73 10.836h1.29V3.538L1.618 4V2.821l1.396-.462h.79v8.477h1.29v1.089H1.73v-1.09zm8.194 0h2.757v1.089H8.973v-1.09q.45-.762 1.225-2.043.778-1.288.977-1.66.38-.698.528-1.178.153-.487.153-.955 0-.763-.329-1.243-.324-.48-.848-.48-.372 0-.786.21-.411.212-.88.642V2.82q.477-.314.891-.475.415-.16.76-.16.906 0 1.446.743.54.744.54 1.987 0 .59-.137 1.12-.133.526-.489 1.244-.098.186-.622 1.076-.524.884-1.478 2.48zm9.363-4.069q.567.199.884.827.32.628.32 1.55 0 1.416-.594 2.192-.594.775-1.69.775-.367 0-.758-.122-.387-.115-.802-.352v-1.25q.329.314.72.474.39.16.817.16.743 0 1.13-.48.392-.48.392-1.397 0-.845-.364-1.32-.36-.48-1.005-.48h-.68V6.28h.711q.583 0 .892-.378.309-.384.309-1.102 0-.736-.321-1.127-.317-.398-.911-.398-.325 0-.696.116-.372.115-.818.359V2.596q.45-.205.841-.307.395-.103.743-.103.9 0 1.424.673.524.666.524 1.807 0 .794-.278 1.345-.277.545-.79.756z" font-weight="400" font-size="10.252" font-family="sans-serif" letter-spacing="0" word-spacing="0"/></svg>