<svg xmlns:osb="http://www.openswatchbook.org/uri/2009/osb" xmlns="http://www.w3.org/2000/svg" xmlns:xlink="http://www.w3.org/1999/xlink" shape-rendering="crispEdges" height="32" width="32"><defs><linearGradient id="q"><stop offset="0" stop-color="#d5d5d3"/><stop offset="1" stop-color="#d6d6d2" stop-opacity="0"/></linearGradient><linearGradient id="x" osb:paint="solid"><stop offset="0" stop-color="#ff8c00"/></linearGradient><linearGradient id="v"><stop offset="0" stop-color="#ff1010"/><stop offset="1" stop-color="#920101"/></linearGradient><linearGradient id="g"><stop offset="0" stop-color="#fff"/><stop offset="1" stop-color="#fff" stop-opacity="0"/></linearGradient><linearGradient id="h"><stop offset="0" stop-color="#fff" stop-opacity="0"/><stop offset=".883" stop-color="#fff" stop-opacity="0"/><stop offset="1" stop-color="#fff"/></linearGradient><linearGradient id="i"><stop offset="0" stop-color="#fffd33"/><stop offset=".456" stop-color="#fae926"/><stop offset=".668" stop-color="#f5d619"/><stop offset=".871" stop-color="#ebb000"/><stop offset="1" stop-color="#db6700"/></linearGradient><linearGradient id="j"><stop offset="0" stop-color="#fffec3"/><stop offset="1" stop-color="#fffec3" stop-opacity="0"/></linearGradient><linearGradient y2="1070.924" x2="73.009" y1="1086.414" x1="73.009" gradientTransform="translate(-59.414 -1090.204) scale(1.03294)" gradientUnits="userSpaceOnUse" id="z" xlink:href="#g"/><linearGradient id="w"><stop offset="0" stop-color="#fff"/><stop offset="1" stop-color="#939393"/></linearGradient><linearGradient y2="1055.434" x2="73.009" y1="1086.414" x1="73.009" gradientTransform="translate(-59.414 -1122.204) scale(1.03294)" gradientUnits="userSpaceOnUse" id="y" xlink:href="#w"/><linearGradient xlink:href="#d" id="e" gradientUnits="userSpaceOnUse" gradientTransform="translate(1.164 569.018)" x1="-1573.223" y1="95.709" x2="-1573.223" y2="358.388"/><linearGradient id="l"><stop offset="0" stop-color="#fff"/><stop offset="1" stop-color="#bebebe"/></linearGradient><linearGradient id="r"><stop offset="0" stop-color="#4e4e4e"/><stop offset="1" stop-color="#1b1b1b" stop-opacity=".38"/></linearGradient><linearGradient id="d"><stop offset="0" stop-color="#f3f1ef"/><stop offset="1" stop-color="#b0b5bc"/></linearGradient><linearGradient id="n"><stop offset="0" stop-color="#f1f0ee"/><stop offset="1" stop-color="#c6c6c6"/></linearGradient><linearGradient id="f"><stop offset="0"/><stop offset="1" stop-color="#4a4a4a"/></linearGradient><linearGradient id="p"><stop offset="0" stop-color="#fff"/><stop offset="1" stop-color="#e4e1dc" stop-opacity="0"/></linearGradient><linearGradient id="o"><stop offset="0" stop-color="#d7d7d7"/><stop offset="1" stop-color="#d9d8d4" stop-opacity="0"/></linearGradient><linearGradient id="t"><stop offset="0" stop-color="#f7f6f4"/><stop offset="1" stop-color="#f7f6f4" stop-opacity="0"/></linearGradient><linearGradient id="m"><stop offset="0" stop-color="#f1f0ef" stop-opacity=".924"/><stop offset="1" stop-color="#b0b5bc"/></linearGradient><linearGradient id="s"><stop offset="0" stop-color="#37414d"/><stop offset="1" stop-color="#737373" stop-opacity="0"/></linearGradient><linearGradient id="u"><stop offset="0" stop-color="#b6babc"/><stop offset="1" stop-color="#b6babc" stop-opacity="0"/></linearGradient><linearGradient id="a"><stop offset="0" stop-color="#6de4ff"/><stop offset=".662" stop-color="#578bcf"/><stop offset="1" stop-color="#0027a0"/></linearGradient><linearGradient id="k"><stop offset="0" stop-color="#dffaff"/><stop offset=".5" stop-color="#c6f5ff" stop-opacity=".813"/><stop offset="1" stop-color="#aef0ff" stop-opacity="0"/></linearGradient><linearGradient xlink:href="#x" id="E" x1="45.118" y1="-1021.703" x2="66.418" y2="-1021.703" gradientUnits="userSpaceOnUse"/><radialGradient r="4.436" fy="162.255" fx="70.182" cy="162.255" cx="70.182" gradientTransform="matrix(1 0 0 .54098 0 74.477)" gradientUnits="userSpaceOnUse" id="A" xlink:href="#g"/><radialGradient r="4.436" fy="162.255" fx="70.182" cy="162.255" cx="70.182" gradientTransform="matrix(1 0 0 .54098 0 74.477)" gradientUnits="userSpaceOnUse" id="C" xlink:href="#g"/><radialGradient r="4.436" fy="162.255" fx="70.182" cy="162.255" cx="70.182" gradientTransform="matrix(1 0 0 .54098 0 74.477)" gradientUnits="userSpaceOnUse" id="D" xlink:href="#g"/><radialGradient xlink:href="#a" id="c" gradientUnits="userSpaceOnUse" gradientTransform="matrix(1 0 0 2.2083 30.255 -267.71)" cx="-104.095" cy="223.006" fx="-105.841" fy="224.059" r="5.334"/><radialGradient xlink:href="#a" id="b" gradientUnits="userSpaceOnUse" gradientTransform="matrix(.7002 .07348 -.1479 1.40926 62.16 -92.81)" cx="-105.621" cy="224.09" fx="-107.366" fy="225.144" r="5.334"/><filter id="B" x="-.517" width="2.034" y="-.956" height="2.912" color-interpolation-filters="sRGB"><feGaussianBlur stdDeviation="1.912"/></filter></defs><g transform="translate(.283 -.036)"><rect transform="scale(1 -1)" width="32" height="32" y="-32.001" ry="3.878" fill="url(#y)" enable-background="new"/><rect y=".001" width="32" height="32" ry="3.878" fill="url(#z)" enable-background="new"/><rect width="30.979" height="30.979" x=".511" y=".511" ry="3.755" fill="none" stroke="#939393" stroke-width="1.021" stroke-linecap="round" stroke-linejoin="round" enable-background="new"/></g><path transform="matrix(.37268 .12615 1.12966 -.05634 -189.65 16.897)" d="M71.127 159.855l-3.49.436-1.6 1.746-.292 1.02.728 1.6 3.49-1.165 2.91-.58 1.454.145.29-2.328-3.49-.872z" opacity=".306" fill="url(#A)" fill-rule="evenodd" filter="url(#B)"/><path d="M71.127 159.855l-3.49.436-1.6 1.746-.292 1.02.728 1.6 3.49-1.165 2.91-.58 1.454.145.29-2.328-3.49-.872z" transform="matrix(-.04842 .12615 -.14678 -.05634 53.836 22.653)" opacity=".306" fill="url(#C)" fill-rule="evenodd" filter="url(#B)"/><path transform="matrix(-.05836 .15205 -.1769 -.0679 70.906 22.19)" d="M71.127 159.855l-3.49.436-1.6 1.746-.292 1.02.728 1.6 3.49-1.165 2.91-.58 1.454.145.29-2.328-3.49-.872z" opacity=".306" fill="url(#D)" fill-rule="evenodd" filter="url(#B)"/><path d="M.224 16.155V.182h31.82v31.946H.224V16.155zm19.95 10.732c.382-.118.765-.272.851-.342.333-.272 1.044-1.898 1.493-3.414.394-1.327.52-1.609.78-1.727.573-.261 1.168-.794 1.747-1.563 1.13-1.505 1.44-2.654 1.533-5.707.08-2.577-.01-3.21-.63-4.473-.783-1.592-2.57-2.987-4.454-3.478-1.044-.272-5.26-.271-6.305.001-2.49.649-4.533 2.056-5.857 4.036-2.408 3.599-2.876 10.622-.913 13.68.97 1.514 2.582 2.619 4.547 3.12 1.04.264 6.234.169 7.208-.133z" fill="none"/><g fill="silver"><path transform="matrix(-.85299 .04454 -.0439 -.8654 25.18 -864.604)" d="M66.418-1010.693l-10.63-3.632-10.67-3.516 8.46-7.39 8.38-7.482 2.17 11.022z" fill="url(#E)"/><g style="line-height:125%" font-weight="400" font-size="10.252" font-family="sans-serif" letter-spacing="0" word-spacing="0" fill="#000"><path d="M1.477 11.088h1.291V3.791l-1.404.461V3.073l1.396-.461h.79v8.476h1.291v1.09H1.477v-1.09zM9.671 11.088h2.758v1.09H8.72v-1.09q.45-.762 1.224-2.044.778-1.287.978-1.659.38-.698.528-1.179.152-.487.152-.955 0-.762-.328-1.243-.325-.48-.849-.48-.371 0-.786.211-.41.212-.88.641V3.073q.477-.314.892-.474.414-.16.759-.16.907 0 1.447.743t.54 1.986q0 .59-.137 1.121-.133.526-.49 1.243-.097.186-.621 1.077-.524.884-1.479 2.48zM19.035 7.02q.567.198.884.826.32.628.32 1.55 0 1.417-.594 2.192-.595.775-1.69.775-.368 0-.759-.121-.387-.116-.801-.353v-1.25q.328.315.72.475.39.16.817.16.743 0 1.13-.48.391-.48.391-1.397 0-.846-.364-1.32-.36-.48-1.005-.48h-.68V6.532h.712q.582 0 .891-.378.31-.385.31-1.102 0-.737-.321-1.128-.317-.397-.912-.397-.324 0-.696.115-.372.116-.817.36V2.848q.45-.205.84-.308.396-.102.744-.102.9 0 1.423.672.524.667.524 1.807 0 .795-.277 1.346-.278.544-.79.756z"/></g></g><path d="M2.013 30.055c-.21-.232-.132-.315 6.687-7.122 3.794-3.788 6.899-6.935 6.899-6.994 0-.059-3.055-3.152-6.79-6.874L2.02 2.298l.26-.259.26-.259 6.819 6.795 6.819 6.795 6.992-6.968 6.992-6.967.252.25.252.252-6.949 7.005-6.948 7.004 6.956 6.94 6.957 6.939-.26.259-.26.259-6.964-6.94-6.963-6.938-6.935 6.912c-3.815 3.801-6.966 6.912-7.004 6.912-.038 0-.165-.106-.282-.234z" fill="#f30"/><path d="M2.013 30.055c-.21-.232-.132-.315 6.687-7.122 3.794-3.788 6.899-6.935 6.899-6.994 0-.059-3.055-3.152-6.79-6.874L2.02 2.298l.26-.259.26-.259 6.819 6.795 6.819 6.795 6.992-6.968 6.992-6.967.252.25.252.252-6.949 7.005-6.948 7.004 6.956 6.94 6.957 6.939-.26.259-.26.259-6.964-6.94-6.963-6.938-6.935 6.912c-3.815 3.801-6.966 6.912-7.004 6.912-.038 0-.165-.106-.282-.234z" fill="#f30"/></svg>