<?xml version="1.0" encoding="UTF-8" standalone="no"?>
<!-- Created with Inkscape (http://www.inkscape.org/) -->
<svg id="svg2" xmlns:rdf="http://www.w3.org/1999/02/22-rdf-syntax-ns#" xmlns="http://www.w3.org/2000/svg" shape-rendering="crispEdges" viewBox="0 0 32 32" version="1.1" xmlns:cc="http://creativecommons.org/ns#" xmlns:xlink="http://www.w3.org/1999/xlink" xmlns:dc="http://purl.org/dc/elements/1.1/">
 <title id="title4176">OpenCPN_Grib_Icone_grib</title>
 <defs id="defs4">
  <linearGradient id="g">
   <stop id="stop53785" stop-color="#fff" offset="0"/>
   <stop id="stop53787" stop-color="#fff" stop-opacity="0" offset="1"/>
  </linearGradient>
  <filter id="dc" style="color-interpolation-filters:sRGB;" height="2.9119999" width="2.0339999" y="-0.95599997" x="-0.51700002">
   <feGaussianBlur id="feGaussianBlur53842" stdDeviation="1.912"/>
  </filter>
  <radialGradient id="dU" gradientUnits="userSpaceOnUse" xlink:href="#g" cx="70.182" cy="162.26" r="4.436" gradientTransform="matrix(1,0,0,0.54098,0,74.477)"/>
  <linearGradient id="E-8" y2="1055.4" gradientUnits="userSpaceOnUse" y1="1086.4" gradientTransform="matrix(1.03294,0,0,1.03294,-59.414,-1122.2035)" x2="73.009" x1="73.009">
   <stop id="stop4324" stop-color="#fff" offset="0"/>
   <stop id="stop4326" stop-color="#939393" offset="1"/>
  </linearGradient>
  <linearGradient id="F-9" y2="1070.9" xlink:href="#g" gradientUnits="userSpaceOnUse" y1="1086.4" gradientTransform="matrix(1.03294,0,0,1.03294,-59.414,-1090.2035)" x2="73.009" x1="73.009"/>
 </defs>
 <metadata id="metadata7">
  <rdf:RDF>
   <cc:Work rdf:about="">
    <dc:format>image/svg+xml</dc:format>
    <dc:type rdf:resource="http://purl.org/dc/dcmitype/StillImage"/>
    <dc:title>OpenCPN_Grib_Icone_grib</dc:title>
    <dc:creator>
     <cc:Agent>
      <dc:title>Gilletarom</dc:title>
     </cc:Agent>
    </dc:creator>
   </cc:Work>
  </rdf:RDF>
 </metadata>
 <g id="layer1" transform="translate(0,-1020.3622)">
  <g id="g3880" transform="translate(0.28330273,1020.4523)">
   <g id="g61054" style="enable-background:new;" transform="translate(-2.5001168e-4,-2.4811079e-4)">
    <g id="g4276">
     <rect id="rect4364" ry="3.878" style="enable-background:new;" transform="scale(1,-1)" height="32" width="32" y="-32" x="0" fill="url(#E-8)"/>
     <rect id="rect4366" style="enable-background:new;" ry="3.878" height="32" width="32" y="0.00050004" x="0" fill="url(#F-9)"/>
     <rect id="rect4426" stroke-linejoin="round" style="enable-background:new;" ry="3.755" height="30.979" width="30.979" stroke="#939393" stroke-linecap="round" y="0.5105" x="0.511" stroke-width="1.021" fill="none"/>
    </g>
   </g>
   <path id="path55012" opacity="0.306" d="m71.127,159.86-3.49,0.436-1.6,1.746-0.292,1.02,0.728,1.6,3.49-1.165,2.91-0.58,1.454,0.145,0.29-2.328-3.49-0.872z" fill-rule="evenodd" transform="matrix(0.37268,0.12615,1.12966,-0.05634,-189.93275,16.933079)" filter="url(#dc)" fill="url(#dU)"/>
   <path id="path55024" opacity="0.306" d="m71.127,159.86-3.49,0.436-1.6,1.746-0.292,1.02,0.728,1.6,3.49-1.165,2.91-0.58,1.454,0.145,0.29-2.328-3.49-0.872z" fill-rule="evenodd" transform="matrix(-0.04842,0.12615,-0.14678,-0.05634,53.552248,22.689079)" filter="url(#dc)" fill="url(#dU)"/>
   <path id="path55164" opacity="0.306" d="m71.127,159.86-3.49,0.436-1.6,1.746-0.292,1.02,0.728,1.6,3.49-1.165,2.91-0.58,1.454,0.145,0.29-2.328-3.49-0.872z" fill-rule="evenodd" transform="matrix(-0.05836,0.15205,-0.1769,-0.0679,70.622652,22.22546)" filter="url(#dc)" fill="url(#dU)"/>
  </g>
  <path id="path4158" d="m0.22387,16.155,0-15.973,15.91,0,15.91,0,0,15.973,0,15.973-15.91,0-15.91,0,0-15.973zm19.95,10.732c0.38196-0.11817,0.76495-0.27238,0.85109-0.34269,0.3327-0.27156,1.0437-1.8974,1.493-3.4139,0.39306-1.3267,0.52023-1.6084,0.77954-1.7265,0.57312-0.26113,1.1685-0.79398,1.747-1.5636,1.1307-1.5041,1.4395-2.6536,1.5333-5.707,0.07917-2.5761-0.01017-3.2095-0.63091-4.4728-0.782-1.5909-2.568-2.9862-4.453-3.4772-1.044-0.2718-5.26-0.2711-6.305,0.001-2.491,0.6489-4.533,2.0561-5.8575,4.036-2.4071,3.599-2.8757,10.622-0.9129,13.68,0.9713,1.5136,2.5823,2.6185,4.5479,3.1191,1.0386,0.26451,6.2337,0.16927,7.2079-0.13213z" transform="translate(0,1020.3622)" stroke-dasharray="none" stroke-miterlimit="4" stroke-width="1.20000005" fill="none"/>
  <ellipse id="path3351" d="m 30.304581,1036.1656 c 0,3.6772 -6.472982,6.6581 -14.45781,6.6581 -7.9848274,0 -14.4578092,-2.9809 -14.4578092,-6.6581 0,-3.6771 6.4729818,-6.6581 14.4578092,-6.6581 7.984828,0 14.45781,2.981 14.45781,6.6581 z" rx="14.458" ry="6.6581" cy="1036.2" cx="15.847" stroke-dasharray="none" stroke-miterlimit="4" stroke-width="1.2" fill="#ff794b"/>
  <g id="g3379" transform="matrix(1,0,0,0.95704429,0,45.038237)">
   <path id="path3357" d="m64.65,1035.7-5.5357,1.7715-5.5162,1.8314,1.2337-5.6798,1.1721-5.6928,4.302,3.9083z" transform="matrix(1.7256269,-0.06305039,0.06168218,1.5375001,-153.97334,-546.05989)" stroke-dasharray="none" stroke-miterlimit="4" stroke-width="1.20000005" fill="#ff794b"/>
   <path id="path3359" d="m52.275,1039.9,0.58587-2.7257,0.5563-2.7319,2.0676,1.8702,2.0878,1.8477-2.6535,0.8555z" transform="matrix(1.0141639,0.03185118,-0.03750713,0.97515461,-8.6840569,30.263316)" stroke-dasharray="none" stroke-miterlimit="4" stroke-width="1.20000005" fill="#09F"/>
   <g id="text3363" style="letter-spacing:0px;word-spacing:0px;" font-weight="normal" transform="scale(0.97660663,1.0239537)" font-size="8.94400501px" font-style="normal" font-family="sans-serif" line-height="125%" fill="#000">
    <path id="path3625" style="" d="m7.6349,1008.4,1.1879,0,2.8911,5.4546,0-5.4546,0.85597,0,0,6.5202-1.1879,0-2.8911-5.4546,0,5.4546-0.85597,0,0-6.5202z"/>
    <path id="path3627" style="" d="m16.186,1010.6q-0.64634,0-1.0219,0.5066-0.37558,0.5022-0.37558,1.38t0.37121,1.3844q0.37558,0.5023,1.0263,0.5023,0.64198,0,1.0176-0.5066,0.37558-0.5066,0.37558-1.3801,0-0.869-0.37558-1.3756-0.37558-0.511-1.0176-0.511zm0-0.6813q1.0481,0,1.6464,0.6813t0.5983,1.8866q0,1.201-0.5983,1.8867-0.5983,0.6812-1.6464,0.6812-1.0525,0-1.6508-0.6812-0.59394-0.6857-0.59394-1.8867,0-1.2053,0.59394-1.8866,0.5983-0.6813,1.6508-0.6813z"/>
    <path id="path3629" style="" d="m19.291,1010,0.80356,0,1.0045,3.817,1.0001-3.817,0.94768,0,1.0045,3.817,1.0001-3.817,0.80356,0-1.2796,4.8913-0.94768,0-1.0525-4.0091-1.0569,4.0091-0.94768,0-1.2796-4.8913z"/>
   </g>
  </g>
 </g>
</svg>
