<?xml version="1.0" encoding="UTF-8" standalone="no"?>
<!-- Created with Inkscape (http://www.inkscape.org/) -->
<svg id="svg2" xmlns:rdf="http://www.w3.org/1999/02/22-rdf-syntax-ns#" xmlns="http://www.w3.org/2000/svg" shape-rendering="crispEdges" version="1.1" xmlns:cc="http://creativecommons.org/ns#" xmlns:xlink="http://www.w3.org/1999/xlink" viewBox="0 0 32 32" xmlns:dc="http://purl.org/dc/elements/1.1/">
 <title id="title4176">OpenCPN_Grib_Icone_grib</title>
 <defs id="defs4">
  <linearGradient id="g">
   <stop id="stop53785" stop-color="#fff" offset="0"/>
   <stop id="stop53787" stop-color="#fff" stop-opacity="0" offset="1"/>
  </linearGradient>
  <filter id="dc" style="color-interpolation-filters:sRGB;" height="2.9119999" width="2.0339999" y="-0.95599997" x="-0.51700002">
   <feGaussianBlur id="feGaussianBlur53842" stdDeviation="1.912"/>
  </filter>
  <radialGradient id="dU" gradientUnits="userSpaceOnUse" xlink:href="#g" cx="70.182" cy="162.26" r="4.436" gradientTransform="matrix(1,0,0,0.54098,0,74.477)"/>
  <linearGradient id="E-8" y2="1055.4" gradientUnits="userSpaceOnUse" y1="1086.4" gradientTransform="matrix(1.03294,0,0,1.03294,-59.414,-1122.2035)" x2="73.009" x1="73.009">
   <stop id="stop4324" stop-color="#fff" offset="0"/>
   <stop id="stop4326" stop-color="#939393" offset="1"/>
  </linearGradient>
  <linearGradient id="F-9" y2="1070.9" xlink:href="#g" gradientUnits="userSpaceOnUse" y1="1086.4" gradientTransform="matrix(1.03294,0,0,1.03294,-59.414,-1090.2035)" x2="73.009" x1="73.009"/>
 </defs>
 <metadata id="metadata7">
  <rdf:RDF>
   <cc:Work rdf:about="">
    <dc:format>image/svg+xml</dc:format>
    <dc:type rdf:resource="http://purl.org/dc/dcmitype/StillImage"/>
    <dc:title>OpenCPN_Grib_Icone_grib</dc:title>
    <dc:creator>
     <cc:Agent>
      <dc:title>Gilletarom</dc:title>
     </cc:Agent>
    </dc:creator>
   </cc:Work>
  </rdf:RDF>
 </metadata>
 <g id="layer1" transform="translate(0,-1020.3622)">
  <g id="g3890" transform="translate(0.15703411,1020.1998)">
   <g id="g61054" style="enable-background:new;" transform="translate(-0.25278815,-2.4811079e-4)">
    <g id="g4276">
     <rect id="rect4364" ry="3.878" style="enable-background:new;" transform="scale(1,-1)" height="32" width="32" y="-32" x="0" fill="url(#E-8)"/>
     <rect id="rect4366" style="enable-background:new;" ry="3.878" height="32" width="32" y="0.00050004" x="0" fill="url(#F-9)"/>
     <rect id="rect4426" stroke-linejoin="round" style="enable-background:new;" ry="3.755" height="30.979" width="30.979" stroke="#939393" stroke-linecap="round" y="0.5105" x="0.511" stroke-width="1.021" fill="none"/>
    </g>
   </g>
   <path id="path55012" opacity="0.306" d="m71.127,159.86-3.49,0.436-1.6,1.746-0.292,1.02,0.728,1.6,3.49-1.165,2.91-0.58,1.454,0.145,0.29-2.328-3.49-0.872z" fill-rule="evenodd" transform="matrix(0.37268,0.12615,1.12966,-0.05634,-189.93275,16.933079)" filter="url(#dc)" fill="url(#dU)"/>
   <path id="path55024" opacity="0.306" d="m71.127,159.86-3.49,0.436-1.6,1.746-0.292,1.02,0.728,1.6,3.49-1.165,2.91-0.58,1.454,0.145,0.29-2.328-3.49-0.872z" fill-rule="evenodd" transform="matrix(-0.04842,0.12615,-0.14678,-0.05634,53.552248,22.689079)" filter="url(#dc)" fill="url(#dU)"/>
   <path id="path55164" opacity="0.306" d="m71.127,159.86-3.49,0.436-1.6,1.746-0.292,1.02,0.728,1.6,3.49-1.165,2.91-0.58,1.454,0.145,0.29-2.328-3.49-0.872z" fill-rule="evenodd" transform="matrix(-0.05836,0.15205,-0.1769,-0.0679,70.622652,22.22546)" filter="url(#dc)" fill="url(#dU)"/>
  </g>
  <path id="path4158" d="m0.22387,16.155,0-15.973,15.91,0,15.91,0,0,15.973,0,15.973-15.91,0-15.91,0,0-15.973zm19.95,10.732c0.38196-0.11817,0.76495-0.27238,0.85109-0.34269,0.3327-0.27156,1.0437-1.8974,1.493-3.4139,0.39306-1.3267,0.52023-1.6084,0.77954-1.7265,0.57312-0.26113,1.1685-0.79398,1.747-1.5636,1.1307-1.5041,1.4395-2.6536,1.5333-5.707,0.07917-2.5761-0.01017-3.2095-0.63091-4.4728-0.782-1.5909-2.568-2.9862-4.453-3.4772-1.044-0.2718-5.26-0.2711-6.305,0.001-2.491,0.6489-4.533,2.0561-5.8575,4.036-2.4071,3.599-2.8757,10.622-0.9129,13.68,0.9713,1.5136,2.5823,2.6185,4.5479,3.1191,1.0386,0.26451,6.2337,0.16927,7.2079-0.13213z" transform="translate(0,1020.3622)" stroke-dasharray="none" stroke-miterlimit="4" stroke-width="1.20000005" fill="none"/>
  <g id="g3467" transform="matrix(0.79000232,0,0,0.89799288,54.679149,112.96039)">
   <path id="path3447" stroke-linejoin="miter" d="m-60.357,1025.8c6.566,15.026,6.566,15.026,6.566,15.026,23.107-8.0812,23.107-8.0812,23.107-8.0812" stroke="#000" stroke-linecap="butt" stroke-width="1px" fill="none"/>
   <path id="path3449" stroke-linejoin="miter" d="m-35.987,1020.9,4.9245,11.743,0,0" stroke="#000" stroke-linecap="butt" stroke-width="1px" fill="none"/>
   <path id="path3455" stroke-linejoin="miter" d="m-35.73,1021.2c-12.315,3.9536-12.315,4.2007-12.315,4.2007-1.5235-2.9652-1.5235-2.7182-1.5235-2.7182-10.538,3.7066-10.538,3.9537-10.538,3.9537" stroke="#000" stroke-linecap="butt" stroke-width="0.99188608px" fill="none"/>
   <path id="path3457" stroke-linejoin="miter" d="m-53.189,1041c-12.893-16.689-12.893-16.689-12.893-16.689,12.767-6.0068,12.767-6.0068,12.767-6.0068,1.7752,3.1567,1.7752,3.1567,1.7752,3.1567,11.588-4.8155,11.588-4.8155,11.588-4.8155,2.0853,3.8648,2.0853,3.8648,2.0853,3.8648" stroke="#000" stroke-linecap="butt" stroke-width="0.98419505px" fill="none"/>
   <path id="path3459" stroke-linejoin="miter" d="m-38.007,1020.2c0.75762,1.3889,0.75762,1.3889,0.75762,1.3889" stroke="#000" stroke-linecap="butt" stroke-width="1px" fill="none"/>
   <path id="path3461" d="m-61.179,9.3936c-2.2051-2.8531-3.99-5.2022-3.9665-5.2202,0.15405-0.11841,11.439-5.3766,11.537-5.3756,0.06721,0.0007324,0.48383,0.65483,0.92582,1.4536,0.44198,0.79873,0.84342,1.4768,0.89208,1.5069,0.04866,0.030073,2.4144-0.91332,5.2573-2.0964s5.4318-2.256,5.7531-2.3842l0.58429-0.23306,0.85572,1.602c0.47064,0.88109,0.96705,1.7619,1.1031,1.9573l0.2474,0.35531-0.29845,0.075663c-0.16415,0.041615-2.2872,0.75121-4.7179,1.5769-2.4307,0.82566-4.5046,1.5271-4.6088,1.5587-0.13263,0.040248-0.38167-0.29289-0.83084-1.1114-0.59938-1.0923-0.66975-1.1713-1.0733-1.206-0.41999-0.036077-3.4064,0.97843-8.2557,2.8045-1.0391,0.39129-1.961,0.68388-2.0488,0.6502-0.08775-0.033673-0.3648,0.024537-0.61566,0.12936-0.34406,0.14376-0.43614,0.24331-0.37479,0.40522,0.04473,0.11806,0.90882,2.1066,1.9202,4.4191,1.0114,2.3124,1.8129,4.2303,1.7813,4.262-0.03168,0.03168-1.8617-2.2767-4.0668-5.1298z" transform="translate(0,1020.3622)" stroke-dasharray="none" stroke-miterlimit="4" stroke-width="1.20000005" fill="#039"/>
   <path id="path3463" d="m-53.591,19.206c-0.28209-0.36984-5.6405-12.42-5.6405-12.685,0-0.10082,4.3655-1.764,7.6643-2.92l1.7928-0.62825,0.60632,1.1414c0.60273,1.1347,0.6088,1.141,1.0278,1.0746,0.3457-0.054843,0.40791-0.031374,0.34581,0.13046-0.05727,0.14924-0.02152,0.17546,0.14668,0.1076,1.4182-0.57225,11.386-3.9085,11.455-3.834,0.05075,0.0546,4.3713,10.358,4.4025,10.499,0.02107,0.09501-21.028,7.5301-21.334,7.5357-0.07857,0.0015-0.2887-0.18859-0.46696-0.4223z" transform="translate(0,1020.3622)" stroke-dasharray="none" stroke-miterlimit="4" stroke-width="1.20000005" fill="#0083d7"/>
   <path id="path3465" d="m-58.733,12.407c-3.7834-4.8578-6.1777-8.0094-6.1793-8.1337-0.001-0.077926,1.1204-0.66958,2.492-1.3148,4.1023-1.9298,8.3458-3.8867,8.6093-3.9704,0.20854-0.066187,0.38024,0.14872,1.1025,1.38,0.47054,0.8021,0.89713,1.4584,0.94799,1.4584,0.11649,0,3.6973-1.4469,8.1067-3.2757,1.8663-0.77403,3.4088-1.3906,3.4277-1.3702,0.01897,0.020395,0.35921,0.6337,0.75608,1.3629s0.85953,1.5619,1.0281,1.8503l0.30656,0.5245-4.6453,1.546c-2.5549,0.85028-4.7113,1.5702-4.792,1.5997-0.08069,0.029578-0.38928-0.36233-0.68576-0.87091-0.72716-1.2474-0.84235-1.3666-1.32-1.3666-0.4986,0-2.4948,0.65356-6.5912,2.158-1.7054,0.62634-3.3895,1.1935-3.7423,1.2605-0.95374,0.18087-1.0727,0.35309-0.75604,1.0942,0.14129,0.33065,0.92646,2.1525,1.7448,4.0485,0.81837,1.896,1.4645,3.4708,1.4358,3.4995s-0.58925-0.63739-1.2457-1.4802z" transform="translate(0,1020.3622)" stroke-dasharray="none" stroke-miterlimit="4" stroke-width="1.20000005" fill="#06C"/>
  </g>
  <path id="path3483" d="M7.357,18.543c-1.3298-1.943-3.5975-5.328-3.8113-5.689-0.1161-0.196,0.5986-0.616,5.0177-2.9487,4.1776-2.2049,3.6286-2.1499,4.5326-0.455,0.2914,0.54679,0.59081,1.0178,0.66536,1.0467,0.14608,0.05659,1.1822-0.40151,5.9885-2.6476l3.0936-1.4457,0.79825,1.5791c0.43904,0.8685,0.75155,1.6245,0.69448,1.68-0.10383,0.10095-7.0841,2.7709-7.2442,2.7709-0.04667,0-0.27037-0.34806-0.49711-0.77347-0.55261-1.0368-0.7996-1.2712-1.2348-1.1718-0.59036,0.13483-1.881,0.61336-4.8279,1.7901-1.5626,0.62394-3.0683,1.2145-3.3461,1.3124-0.35412,0.1248-0.51709,0.26114-0.54526,0.45616-0.022102,0.15299,0.47712,1.6505,1.1094,3.3278,0.63227,1.6773,1.1308,3.1059,1.108,3.1745-0.022892,0.06867-0.69829-0.83434-1.5009-2.0067z" transform="translate(0,1020.3622)" stroke-dasharray="none" stroke-miterlimit="4" stroke-width="1.20000005" fill="#FF0"/>
  <path id="path3485" d="M12.481,26.139c-0.383-0.585-4.5161-11.118-4.4454-11.33,0.055036-0.16511,5.8307-2.686,7.0097-3.0594,0.25479-0.08072,0.32968,0.0065,0.74316,0.86552,0.3735,0.77597,0.51388,0.95529,0.74785,0.95529,0.15842,0,0.30962,0.06474,0.33599,0.14386,0.03068,0.09203,0.68263-0.10758,1.8099-0.55415,3.1154-1.2342,7.2757-2.7674,7.3387-2.7044,0.13169,0.13169,3.4724,9.1968,3.4117,9.2576-0.0937,0.0937-14.411,5.869-16.027,6.4648l-0.72464,0.26723-0.20008-0.30536z" transform="translate(0,1020.3622)" stroke-dasharray="none" stroke-miterlimit="4" stroke-width="1.20000005" fill="#C90"/>
  <g id="text3348" style="letter-spacing:0px;word-spacing:0px;" font-weight="normal" transform="matrix(0.68439347,-0.28968283,0.50383928,1.247888,0,0)" font-size="8.98420811px" font-style="normal" font-family="sans-serif" line-height="125%" fill="#000">
   <path id="path5566" style="" d="m-502.85,718.96,0-1.7591-1.4476,0,0-0.72822,2.325,0,0,2.812q-0.51326,0.3641-1.1318,0.55273-0.61854,0.18425-1.3204,0.18425-1.5354,0-2.404-0.89491-0.86421-0.8993-0.86421-2.5005,0-1.6056,0.86421-2.5005,0.86859-0.89929,2.404-0.89929,0.64048,0,1.2152,0.15792,0.57906,0.15793,1.066,0.465v0.94317q-0.49132-0.41675-1.0441-0.62731-0.55274-0.21057-1.1625-0.21057-1.202,0-1.8074,0.67118-0.60099,0.67119-0.60099,2.0004,0,1.3248,0.60099,1.996,0.60538,0.67118,1.8074,0.67118,0.46939,0,0.83788-0.079,0.3685-0.0833,0.66241-0.25444z"/>
   <path id="path5568" style="" d="m-497.54,715.74q-0.13599-0.079-0.2983-0.11406-0.15793-0.0395-0.35095-0.0395-0.68434,0-1.0528,0.44745-0.36411,0.44307-0.36411,1.2766v2.5882h-0.81156v-4.9132h0.81156v0.76331q0.25444-0.44745,0.66241-0.66241,0.40797-0.21934,0.99142-0.21934,0.0833,0,0.18425,0.0132,0.10089,0.009,0.22373,0.0307l0.004,0.82911z"/>
   <path id="path5570" style="" d="m-496.68,714.98,0.80718,0,0,4.9132-0.80718,0,0-4.9132zm0-1.9126,0.80718,0,0,1.0221-0.80718,0,0-1.0221z"/>
   <path id="path5572" style="" d="m-490.66,717.44q0-0.89052-0.36849-1.395-0.36411-0.50887-1.0046-0.50887-0.64048,0-1.009,0.50887-0.36411,0.50449-0.36411,1.395,0,0.89053,0.36411,1.3994,0.36849,0.50448,1.009,0.50448,0.64047,0,1.0046-0.50448,0.36849-0.50887,0.36849-1.3994zm-2.7462-1.7152q0.25444-0.43868,0.64048-0.64925,0.39042-0.21495,0.93-0.21495,0.89491,0,1.452,0.71067,0.56151,0.71066,0.56151,1.8688t-0.56151,1.8688q-0.55713,0.71066-1.452,0.71066-0.53958,0-0.93-0.21057-0.38604-0.21495-0.64048-0.65363v0.73698h-0.81156v-6.8259h0.81156v2.6584z"/>
  </g>
 </g>
</svg>
