<svg xmlns="http://www.w3.org/2000/svg" xmlns:xlink="http://www.w3.org/1999/xlink" width="32" height="32" shape-rendering="crispEdges"><defs><linearGradient id="q"><stop offset="0" stop-color="#d5d5d3"/><stop offset="1" stop-color="#d6d6d2" stop-opacity="0"/></linearGradient><linearGradient id="f"><stop offset="0"/><stop offset="1" stop-color="#4a4a4a"/></linearGradient><linearGradient id="g"><stop offset="0" stop-color="#fff"/><stop offset="1" stop-color="#fff" stop-opacity="0"/></linearGradient><linearGradient id="h"><stop offset="0" stop-color="#fff" stop-opacity="0"/><stop offset=".883" stop-color="#fff" stop-opacity="0"/><stop offset="1" stop-color="#fff"/></linearGradient><linearGradient id="i"><stop offset="0" stop-color="#fffd33"/><stop offset=".456" stop-color="#fae926"/><stop offset=".668" stop-color="#f5d619"/><stop offset=".871" stop-color="#ebb000"/><stop offset="1" stop-color="#db6700"/></linearGradient><linearGradient id="j"><stop offset="0" stop-color="#fffec3"/><stop offset="1" stop-color="#fffec3" stop-opacity="0"/></linearGradient><linearGradient id="w"><stop offset="0" stop-color="#fff"/><stop offset="1" stop-color="#939393"/></linearGradient><linearGradient y2="1055.434" x2="73.009" y1="1086.414" x1="73.009" gradientTransform="translate(-59.414 -1122.204) scale(1.03294)" gradientUnits="userSpaceOnUse" id="x" xlink:href="#w"/><linearGradient id="k"><stop offset="0" stop-color="#dffaff"/><stop offset=".5" stop-color="#c6f5ff" stop-opacity=".813"/><stop offset="1" stop-color="#aef0ff" stop-opacity="0"/></linearGradient><linearGradient xlink:href="#d" id="e" gradientUnits="userSpaceOnUse" gradientTransform="translate(1.164 569.018)" x1="-1573.223" y1="95.709" x2="-1573.223" y2="358.388"/><linearGradient id="l"><stop offset="0" stop-color="#fff"/><stop offset="1" stop-color="#bebebe"/></linearGradient><linearGradient id="r"><stop offset="0" stop-color="#4e4e4e"/><stop offset="1" stop-color="#1b1b1b" stop-opacity=".38"/></linearGradient><linearGradient id="d"><stop offset="0" stop-color="#f3f1ef"/><stop offset="1" stop-color="#b0b5bc"/></linearGradient><linearGradient id="n"><stop offset="0" stop-color="#f1f0ee"/><stop offset="1" stop-color="#c6c6c6"/></linearGradient><linearGradient id="v"><stop offset="0" stop-color="#ff1010"/><stop offset="1" stop-color="#920101"/></linearGradient><linearGradient id="p"><stop offset="0" stop-color="#fff"/><stop offset="1" stop-color="#e4e1dc" stop-opacity="0"/></linearGradient><linearGradient id="o"><stop offset="0" stop-color="#d7d7d7"/><stop offset="1" stop-color="#d9d8d4" stop-opacity="0"/></linearGradient><linearGradient id="t"><stop offset="0" stop-color="#f7f6f4"/><stop offset="1" stop-color="#f7f6f4" stop-opacity="0"/></linearGradient><linearGradient id="m"><stop offset="0" stop-color="#f1f0ef" stop-opacity=".924"/><stop offset="1" stop-color="#b0b5bc"/></linearGradient><linearGradient id="s"><stop offset="0" stop-color="#37414d"/><stop offset="1" stop-color="#737373" stop-opacity="0"/></linearGradient><linearGradient id="u"><stop offset="0" stop-color="#b6babc"/><stop offset="1" stop-color="#b6babc" stop-opacity="0"/></linearGradient><linearGradient id="a"><stop offset="0" stop-color="#6de4ff"/><stop offset=".662" stop-color="#578bcf"/><stop offset="1" stop-color="#0027a0"/></linearGradient><linearGradient y2="1070.924" x2="73.009" y1="1086.414" x1="73.009" gradientTransform="translate(-59.414 -1090.204) scale(1.03294)" gradientUnits="userSpaceOnUse" id="y" xlink:href="#g"/><radialGradient r="4.436" fy="162.255" fx="70.182" cy="162.255" cx="70.182" gradientTransform="matrix(1 0 0 .54098 0 74.477)" gradientUnits="userSpaceOnUse" id="z" xlink:href="#g"/><radialGradient r="4.436" fy="162.255" fx="70.182" cy="162.255" cx="70.182" gradientTransform="matrix(1 0 0 .54098 0 74.477)" gradientUnits="userSpaceOnUse" id="B" xlink:href="#g"/><radialGradient r="4.436" fy="162.255" fx="70.182" cy="162.255" cx="70.182" gradientTransform="matrix(1 0 0 .54098 0 74.477)" gradientUnits="userSpaceOnUse" id="C" xlink:href="#g"/><radialGradient xlink:href="#a" id="c" gradientUnits="userSpaceOnUse" gradientTransform="matrix(1 0 0 2.2083 30.255 -267.71)" cx="-104.095" cy="223.006" fx="-105.841" fy="224.059" r="5.334"/><radialGradient xlink:href="#a" id="b" gradientUnits="userSpaceOnUse" gradientTransform="matrix(.7002 .07348 -.1479 1.40926 62.16 -92.81)" cx="-105.621" cy="224.09" fx="-107.366" fy="225.144" r="5.334"/><filter id="A" x="-.517" width="2.034" y="-.956" height="2.912" color-interpolation-filters="sRGB"><feGaussianBlur stdDeviation="1.912"/></filter></defs><g transform="translate(-.096 -.163)"><rect transform="scale(1 -1)" width="32" height="32" y="-32.001" ry="3.878" fill="url(#x)" enable-background="new"/><rect y=".001" width="32" height="32" ry="3.878" fill="url(#y)" enable-background="new"/><rect width="30.979" height="30.979" x=".511" y=".511" ry="3.755" fill="none" stroke="#939393" stroke-width="1.021" stroke-linecap="round" stroke-linejoin="round" enable-background="new"/></g><path transform="matrix(.37268 .12615 1.12966 -.05634 -189.776 16.77)" d="M71.127 159.855l-3.49.436-1.6 1.746-.292 1.02.728 1.6 3.49-1.165 2.91-.58 1.454.145.29-2.328-3.49-.872z" opacity=".306" fill="url(#z)" fill-rule="evenodd" filter="url(#A)"/><path d="M71.127 159.855l-3.49.436-1.6 1.746-.292 1.02.728 1.6 3.49-1.165 2.91-.58 1.454.145.29-2.328-3.49-.872z" transform="matrix(-.04842 .12615 -.14678 -.05634 53.71 22.527)" opacity=".306" fill="url(#B)" fill-rule="evenodd" filter="url(#A)"/><path transform="matrix(-.05836 .15205 -.1769 -.0679 70.78 22.063)" d="M71.127 159.855l-3.49.436-1.6 1.746-.292 1.02.728 1.6 3.49-1.165 2.91-.58 1.454.145.29-2.328-3.49-.872z" opacity=".306" fill="url(#C)" fill-rule="evenodd" filter="url(#A)"/><path d="M.224 16.155V.182h31.82v31.946H.224V16.155zm19.95 10.732c.382-.118.765-.272.851-.342.333-.272 1.044-1.898 1.493-3.414.394-1.327.52-1.609.78-1.727.573-.261 1.168-.794 1.747-1.563 1.13-1.505 1.44-2.654 1.533-5.707.08-2.577-.01-3.21-.63-4.473-.783-1.592-2.57-2.987-4.454-3.478-1.044-.272-5.26-.271-6.305.001-2.49.649-4.533 2.056-5.857 4.036-2.408 3.599-2.876 10.622-.913 13.68.97 1.514 2.582 2.619 4.547 3.12 1.04.264 6.234.169 7.208-.133z" fill="none"/><path d="M-60.357 1025.846l6.566 15.026 23.108-8.081M-35.987 1020.921l4.925 11.743h0" fill="none" stroke="#000" transform="matrix(.79 0 0 .898 54.68 -907.402)"/><path d="M-35.73 1021.17c-12.315 3.953-12.315 4.2-12.315 4.2-1.524-2.965-1.524-2.718-1.524-2.718-10.537 3.707-10.537 3.954-10.537 3.954" fill="none" stroke="#000" stroke-width=".992" transform="matrix(.79 0 0 .898 54.68 -907.402)"/><path d="M-53.189 1041.032l-12.893-16.69 12.767-6.006 1.775 3.156 11.588-4.815 2.085 3.865" fill="none" stroke="#000" stroke-width=".984" transform="matrix(.79 0 0 .898 54.68 -907.402)"/><path d="M-38.007 1020.164l.758 1.388" fill="none" stroke="#000" transform="matrix(.79 0 0 .898 54.68 -907.402)"/><path d="M6.347 17.312c-1.742-2.562-3.152-4.672-3.133-4.688.121-.106 9.037-4.828 9.114-4.827.053 0 .382.588.732 1.305.349.717.666 1.326.704 1.353.039.027 1.908-.82 4.154-1.882a924.35 924.35 0 014.545-2.141l.461-.21.676 1.439c.372.791.764 1.582.872 1.757l.195.32-.236.068c-.13.037-1.807.674-3.727 1.416-1.92.741-3.559 1.37-3.64 1.4-.106.035-.302-.264-.657-.999-.474-.98-.53-1.052-.848-1.083-.332-.032-2.691.879-6.522 2.519-.821.351-1.55.614-1.619.584-.069-.03-.288.022-.486.116-.272.129-.345.218-.296.364.035.106.718 1.891 1.517 3.968.799 2.076 1.432 3.799 1.407 3.827-.025.029-1.47-2.044-3.213-4.606z" fill="#039"/><path d="M12.342 26.123c-.223-.332-4.456-11.153-4.456-11.39 0-.091 3.449-1.585 6.055-2.623l1.416-.564.479 1.025c.476 1.019.481 1.025.812.965.273-.05.322-.028.273.117-.045.134-.017.158.116.097 1.12-.514 8.995-3.51 9.05-3.443.04.049 3.453 9.302 3.477 9.428.017.086-16.611 6.762-16.853 6.767-.062.002-.228-.17-.37-.379z" fill="#0083d7"/><path d="M8.28 20.018c-2.989-4.362-4.88-7.192-4.882-7.304 0-.07.886-.601 1.97-1.18 3.24-1.734 6.592-3.49 6.8-3.566.165-.06.3.134.872 1.24.371.72.708 1.309.748 1.309.092 0 2.921-1.3 6.405-2.942 1.474-.695 2.693-1.249 2.708-1.23.015.018.283.569.597 1.224.313.654.679 1.402.812 1.661l.242.471-3.67 1.389c-2.018.763-3.721 1.41-3.785 1.436-.064.027-.308-.325-.542-.782-.574-1.12-.665-1.227-1.043-1.227-.394 0-1.97.587-5.207 1.938-1.347.562-2.677 1.071-2.956 1.132-.754.162-.848.317-.597.982.111.297.731 1.933 1.378 3.636.646 1.702 1.157 3.116 1.134 3.142-.022.026-.465-.572-.984-1.329z" fill="#06c"/><path d="M7.357 18.543c-1.33-1.943-3.598-5.328-3.811-5.69-.116-.195.598-.615 5.017-2.948 4.178-2.205 3.63-2.15 4.533-.455.291.547.59 1.018.665 1.047.146.057 1.182-.402 5.989-2.648l3.093-1.445.798 1.579c.44.868.752 1.624.695 1.68-.104.1-7.084 2.77-7.244 2.77-.047 0-.27-.347-.497-.773-.553-1.037-.8-1.271-1.235-1.172-.59.135-1.881.614-4.828 1.79a191.65 191.65 0 01-3.346 1.313c-.354.125-.517.26-.546.456-.022.153.478 1.65 1.11 3.328.632 1.677 1.13 3.106 1.108 3.174-.023.069-.698-.834-1.501-2.006z" fill="#ff0"/><path d="M12.481 26.14c-.383-.586-4.516-11.12-4.445-11.331.055-.165 5.83-2.686 7.01-3.06.254-.08.329.007.742.866.374.776.514.955.748.955.159 0 .31.065.336.144.03.092.683-.108 1.81-.554 3.115-1.235 7.276-2.768 7.339-2.705.131.132 3.472 9.197 3.411 9.258-.093.094-14.41 5.869-16.026 6.465l-.725.267-.2-.306z" fill="#c90"/><g style="line-height:125%" font-weight="400" font-size="8.984" font-family="sans-serif" letter-spacing="0" word-spacing="0"><path d="M18.095 22.486l-.887-2.195-.99.42-.367-.91 1.591-.673 1.417 3.509q-.168.603-.496 1.018-.33.409-.811.612-1.051.445-2.096-.42-1.045-.872-1.852-2.87-.809-2.004-.668-3.371.141-1.374 1.192-1.819.438-.185.911-.155.476.03.964.272l.475 1.177q-.546-.378-1.03-.48-.485-.103-.902.074-.823.348-.899 1.36-.073 1.012.597 2.671.667 1.653 1.417 2.317.752.662 1.575.314.321-.136.534-.342.21-.21.325-.509zM20.106 16.924q-.133-.06-.262-.056-.128-.004-.26.052-.468.198-.495.863-.026.659.394 1.699l1.304 3.23-.555.235-2.476-6.131.556-.236.384.953q-.051-.632.12-1.019.169-.391.568-.56.057-.025.133-.037.073-.018.168-.027l.42 1.034zM20.311 15.734l.553-.234 2.475 6.131-.552.234-2.476-6.13zm-.963-2.387l.552-.233.515 1.275-.552.234-.515-1.276zM25.67 17.062q-.448-1.112-.955-1.634-.505-.53-.944-.344-.438.185-.434.927.005.735.454 1.846.449 1.111.954 1.641.507.523.945.337.438-.185.433-.92-.004-.742-.453-1.853zm-2.743-1.345q-.047-.621.111-.996.159-.381.528-.538.613-.259 1.352.467.742.724 1.326 2.169.583 1.445.557 2.495-.023 1.048-.636 1.307-.369.156-.742.007-.373-.157-.768-.63l.371.92-.555.234-3.44-8.518.556-.235 1.34 3.318z"/></g></svg>