<?xml version="1.0" encoding="UTF-8" standalone="no"?>
<!-- Created with Inkscape (http://www.inkscape.org/) -->
<svg id="svg2" xmlns:rdf="http://www.w3.org/1999/02/22-rdf-syntax-ns#" xmlns="http://www.w3.org/2000/svg" shape-rendering="crispEdges" viewBox="0 0 32 32" version="1.1" xmlns:cc="http://creativecommons.org/ns#" xmlns:xlink="http://www.w3.org/1999/xlink" xmlns:dc="http://purl.org/dc/elements/1.1/">
 <title id="title4176">OpenCPN_Grib_Icone_grib</title>
 <defs id="defs4">
  <linearGradient id="g">
   <stop id="stop53785" stop-color="#fff" offset="0"/>
   <stop id="stop53787" stop-color="#fff" stop-opacity="0" offset="1"/>
  </linearGradient>
  <filter id="dc" style="color-interpolation-filters:sRGB;" height="2.9119999" width="2.0339999" y="-0.95599997" x="-0.51700002">
   <feGaussianBlur id="feGaussianBlur53842" stdDeviation="1.912"/>
  </filter>
  <radialGradient id="dU" gradientUnits="userSpaceOnUse" xlink:href="#g" cx="70.182" cy="162.26" r="4.436" gradientTransform="matrix(1,0,0,0.54098,0,74.477)"/>
  <linearGradient id="E-8" y2="1055.4" gradientUnits="userSpaceOnUse" y1="1086.4" gradientTransform="matrix(1.03294,0,0,1.03294,-59.414,-1122.2035)" x2="73.009" x1="73.009">
   <stop id="stop4324" stop-color="#fff" offset="0"/>
   <stop id="stop4326" stop-color="#939393" offset="1"/>
  </linearGradient>
  <linearGradient id="F-9" y2="1070.9" xlink:href="#g" gradientUnits="userSpaceOnUse" y1="1086.4" gradientTransform="matrix(1.03294,0,0,1.03294,-59.414,-1090.2035)" x2="73.009" x1="73.009"/>
 </defs>
 <metadata id="metadata7">
  <rdf:RDF>
   <cc:Work rdf:about="">
    <dc:format>image/svg+xml</dc:format>
    <dc:type rdf:resource="http://purl.org/dc/dcmitype/StillImage"/>
    <dc:title>OpenCPN_Grib_Icone_grib</dc:title>
    <dc:creator>
     <cc:Agent>
      <dc:title>Gilletarom</dc:title>
     </cc:Agent>
    </dc:creator>
   </cc:Work>
  </rdf:RDF>
 </metadata>
 <g id="layer1" transform="translate(0,-1020.3622)">
  <g id="g3875" transform="translate(0.15703351,1020.326)">
   <g id="g61054" style="enable-background:new;" transform="translate(-2.5001168e-4,-2.4811079e-4)">
    <g id="g4276">
     <rect id="rect4364" ry="3.878" style="enable-background:new;" transform="scale(1,-1)" height="32" width="32" y="-32" x="0" fill="url(#E-8)"/>
     <rect id="rect4366" style="enable-background:new;" ry="3.878" height="32" width="32" y="0.00050004" x="0" fill="url(#F-9)"/>
     <rect id="rect4426" stroke-linejoin="round" style="enable-background:new;" ry="3.755" height="30.979" width="30.979" stroke="#939393" stroke-linecap="round" y="0.5105" x="0.511" stroke-width="1.021" fill="none"/>
    </g>
   </g>
   <path id="path55012" opacity="0.306" d="m71.127,159.86-3.49,0.436-1.6,1.746-0.292,1.02,0.728,1.6,3.49-1.165,2.91-0.58,1.454,0.145,0.29-2.328-3.49-0.872z" fill-rule="evenodd" transform="matrix(0.37268,0.12615,1.12966,-0.05634,-189.93275,16.933079)" filter="url(#dc)" fill="url(#dU)"/>
   <path id="path55024" opacity="0.306" d="m71.127,159.86-3.49,0.436-1.6,1.746-0.292,1.02,0.728,1.6,3.49-1.165,2.91-0.58,1.454,0.145,0.29-2.328-3.49-0.872z" fill-rule="evenodd" transform="matrix(-0.04842,0.12615,-0.14678,-0.05634,53.552248,22.689079)" filter="url(#dc)" fill="url(#dU)"/>
   <path id="path55164" opacity="0.306" d="m71.127,159.86-3.49,0.436-1.6,1.746-0.292,1.02,0.728,1.6,3.49-1.165,2.91-0.58,1.454,0.145,0.29-2.328-3.49-0.872z" fill-rule="evenodd" transform="matrix(-0.05836,0.15205,-0.1769,-0.0679,70.622652,22.22546)" filter="url(#dc)" fill="url(#dU)"/>
  </g>
  <path id="path4158" d="m0.22387,16.155,0-15.973,15.91,0,15.91,0,0,15.973,0,15.973-15.91,0-15.91,0,0-15.973zm19.95,10.732c0.38196-0.11817,0.76495-0.27238,0.85109-0.34269,0.3327-0.27156,1.0437-1.8974,1.493-3.4139,0.39306-1.3267,0.52023-1.6084,0.77954-1.7265,0.57312-0.26113,1.1685-0.79398,1.747-1.5636,1.1307-1.5041,1.4395-2.6536,1.5333-5.707,0.07917-2.5761-0.01017-3.2095-0.63091-4.4728-0.782-1.5909-2.568-2.9862-4.453-3.4772-1.044-0.2718-5.26-0.2711-6.305,0.001-2.491,0.6489-4.533,2.0561-5.8575,4.036-2.4071,3.599-2.8757,10.622-0.9129,13.68,0.9713,1.5136,2.5823,2.6185,4.5479,3.1191,1.0386,0.26451,6.2337,0.16927,7.2079-0.13213z" transform="translate(0,1020.3622)" stroke-dasharray="none" stroke-miterlimit="4" stroke-width="1.20000005" fill="none"/>
  <path id="path3345" fill="#336" transform="matrix(-0.094638,-0.99578067,1.0261636,-0.09176571,-1042.894,1093.5962)" stroke-dasharray="none" stroke-miterlimit="4" stroke-width="1.20000005" d="m-23.991,1041.9-14.227-1.3294-14.241-1.1752,8.2648-11.656,8.138-11.745,5.9622,12.986z"/>
 </g>
</svg>
