<?xml version="1.0" encoding="UTF-8" standalone="no"?>
<!-- Created with Inkscape (http://www.inkscape.org/) -->
<svg id="svg2" xmlns:rdf="http://www.w3.org/1999/02/22-rdf-syntax-ns#" xmlns="http://www.w3.org/2000/svg" version="1.1" xmlns:cc="http://creativecommons.org/ns#" xmlns:xlink="http://www.w3.org/1999/xlink" viewBox="0 0 32 32" xmlns:dc="http://purl.org/dc/elements/1.1/">
 <defs id="defs4">
  <linearGradient id="g">
   <stop id="stop53785" stop-color="#fff" offset="0"/>
   <stop id="stop53787" stop-color="#fff" stop-opacity="0" offset="1"/>
  </linearGradient>
  <filter id="dc" style="color-interpolation-filters:sRGB;" height="2.9119999" width="2.0339999" y="-0.95599997" x="-0.51700002">
   <feGaussianBlur id="feGaussianBlur53842" stdDeviation="1.912"/>
  </filter>
  <radialGradient id="dU" gradientUnits="userSpaceOnUse" xlink:href="#g" cx="70.182" cy="162.26" r="4.436" gradientTransform="matrix(1,0,0,0.54098,0,74.477)"/>
  <linearGradient id="E-8" y2="1055.4" gradientUnits="userSpaceOnUse" y1="1086.4" gradientTransform="matrix(1.03294,0,0,1.03294,-59.414,-1122.2035)" x2="73.009" x1="73.009">
   <stop id="stop4324" stop-color="#fff" offset="0"/>
   <stop id="stop4326" stop-color="#939393" offset="1"/>
  </linearGradient>
  <linearGradient id="F-9" y2="1070.9" xlink:href="#g" gradientUnits="userSpaceOnUse" y1="1086.4" gradientTransform="matrix(1.03294,0,0,1.03294,-59.414,-1090.2035)" x2="73.009" x1="73.009"/>
 </defs>
 <metadata id="metadata7">
  <rdf:RDF>
   <cc:Work rdf:about="">
    <dc:format>image/svg+xml</dc:format>
    <dc:type rdf:resource="http://purl.org/dc/dcmitype/StillImage"/>
    <dc:title/>
   </cc:Work>
  </rdf:RDF>
 </metadata>
 <g id="layer1" transform="translate(0,-1020.3622)">
  <g id="g61054" style="enable-background:new;" transform="translate(0.15678435,1020.4521)">
   <g id="g4276">
    <rect id="rect4364" style="enable-background:new;" transform="scale(1,-1)" ry="3.878" width="32" y="-32" x="0" height="32" fill="url(#E-8)"/>
    <rect id="rect4366" style="enable-background:new;" ry="3.878" height="32" width="32" y="0.00050004" x="0" fill="url(#F-9)"/>
    <rect id="rect4426" stroke-linejoin="round" style="enable-background:new;" ry="3.755" height="30.979" width="30.979" stroke="#939393" stroke-linecap="round" y="0.5105" x="0.511" stroke-width="1.021" fill="none"/>
   </g>
  </g>
  <path id="path55012" opacity="0.306" d="m71.127,159.86-3.49,0.436-1.6,1.746-0.292,1.02,0.728,1.6,3.49-1.165,2.91-0.58,1.454,0.145,0.29-2.328-3.49-0.872z" fill-rule="evenodd" transform="matrix(0.37268,0.12615,1.12966,-0.05634,-189.77572,1037.3854)" filter="url(#dc)" fill="url(#dU)"/>
  <path id="path55024" opacity="0.306" d="m71.127,159.86-3.49,0.436-1.6,1.746-0.292,1.02,0.728,1.6,3.49-1.165,2.91-0.58,1.454,0.145,0.29-2.328-3.49-0.872z" fill-rule="evenodd" transform="matrix(-0.04842,0.12615,-0.14678,-0.05634,53.709282,1043.1414)" filter="url(#dc)" fill="url(#dU)"/>
  <path id="path55164" opacity="0.306" d="m71.127,159.86-3.49,0.436-1.6,1.746-0.292,1.02,0.728,1.6,3.49-1.165,2.91-0.58,1.454,0.145,0.29-2.328-3.49-0.872z" fill-rule="evenodd" transform="matrix(-0.05836,0.15205,-0.1769,-0.0679,70.779686,1042.6778)" filter="url(#dc)" fill="url(#dU)"/>
  <path id="path4148" d="M14.366,25.56c-1.616-0.294-2.859-0.912-3.75-1.865-1.1975-1.28-1.6107-2.632-1.6142-5.283-0.00442-3.341,0.73207-5.9107,2.2621-7.8927,1.5677-2.0307,3.8547-3.0318,6.9533-3.0436,2.3704-0.00908,3.798,0.44785,5.0458,1.615,1.1346,1.0613,1.6413,2.4836,1.6446,4.6163,0.0032,2.0791-0.48724,4.187-1.2394,5.3272-0.71663,1.0863-2.1582,1.4416-2.9551,0.72843-0.39432-0.35291-0.41152-0.40679-0.39314-1.2311,0.01058-0.47414,0.3039-2.3103,0.65184-4.0803s0.61036-3.2543,0.58318-3.2983c-0.09611-0.15551-0.81649-0.23103-1.1163-0.11703-0.20418,0.07763-0.33157,0.25271-0.38818,0.5335-0.17219,0.85412-0.15832,0.84855-0.73578,0.29525-0.82233-0.78793-1.374-1.0115-2.4902-1.0093-0.77748,0.0016-1.0796,0.06492-1.6572,0.3475-1.9701,0.96387-3.1673,3.4857-3.1898,6.7191-0.0099,1.418,0.01233,1.5618,0.34607,2.2414,0.27663,0.56334,0.48902,0.80406,0.94702,1.0733,0.51962,0.30546,0.71909,0.34692,1.6637,0.34584,1.2683-0.0015,1.7819-0.19844,3.0427-1.1671l0.833-0.63997,0.21822,0.4946c0.40072,0.90825,1.4675,1.4445,2.7034,1.3589,0.35897-0.02485,0.65189-0.01678,0.65094,0.01795-0.001,0.03472-0.38453,0.83022-0.8524,1.7678l-0.85066,1.7046-0.94702,0.23008c-1.0908,0.26501-4.3595,0.39292-5.3664,0.21z" transform="translate(0,1020.3622)" stroke-dasharray="none" stroke-miterlimit="4" stroke-width="1.20000005" fill="#FF0"/>
  <path id="path4150" d="m14.316,1042.1c-0.66622-0.7053-0.82263-2.3351-0.44489-4.6358,0.80653-4.9123,3.3557-6.3517,5.2147-2.9445l0.27887,0.5111-0.34469,2.4008-0.34469,2.4008-0.82898,0.9619c-1.439,1.6698-2.734,2.1487-3.5304,1.3057z" stroke-miterlimit="4" stroke-dasharray="none" stroke-width="1.20000005" fill="#FF0"/>
  <path id="path4146" stroke-linejoin="miter" d="m22.549,1041.9c-1.0311,3.7501-1.0311,3.7501-1.0311,3.7501" stroke="#000" stroke-linecap="butt" stroke-width="0.39718103px" fill="none"/>
  <g id="text4138" style="writing-mode:lr-tb;letter-spacing:0px;word-spacing:0px;text-anchor:start;text-align:start;" font-weight="300" transform="matrix(1.0009668,0,0,0.93281851,-0.0269263,74.024033)" font-style="normal" font-stretch="normal" line-height="125%" font-size="27.72711372px" font-variant="normal" font-family="Calibri" fill="#000">
   <path id="path3612" d="m26.708,1028.9q0,0.8665-0.10831,1.8142-0.09477,0.9342-0.33847,1.8277-0.23016,0.8936-0.62278,1.7059-0.37908,0.7988-0.96124,1.408-0.56862,0.6093-1.3403,0.9613-0.7717,0.352-1.7736,0.352-0.48739,0-0.93417-0.1219-0.43324-0.1354-0.78524-0.3791-0.33847-0.2572-0.58216-0.6363-0.23016-0.3926-0.31139-0.9071-0.54154,0.5551-1.056,0.9477-0.50093,0.3791-0.98832,0.6228t-0.9477,0.3656q-0.44678,0.1083-0.86647,0.1083-0.54155,0-0.97478-0.095-0.43324-0.1083-0.7717-0.2979-0.33846-0.203-0.58216-0.5009-0.2437-0.2978-0.40616-0.6905-0.16246-0.4061-0.2437-0.8935-0.06769-0.5009-0.06769-1.0966,0-0.5551,0.08123-1.2862,0.09477-0.7446,0.29785-1.5299,0.21662-0.7988,0.58216-1.5569,0.36554-0.7717,0.92063-1.3674,0.55508-0.6093,1.3132-0.9748,0.7717-0.3791,1.8006-0.3791,0.43324,0,0.82586,0.1083,0.40616,0.1083,0.7717,0.3385,0.36554,0.2166,0.70401,0.5415,0.33847,0.325,0.66339,0.7582l0.2437-1.2726q0.04061-0.176,0.18954-0.2437,0.14892-0.081,0.54155-0.081,0.18954,0,0.31139,0.027,0.13539,0.014,0.20308,0.054,0.08123,0.041,0.10831,0.1083,0.02708,0.054,0.01354,0.1354l-1.232,6.3225q-0.2437,1.2726,0.12185,1.8954,0.37908,0.6093,1.3809,0.6093,0.5957,0,1.0696-0.2844,0.48739-0.2978,0.8394-0.7852,0.36554-0.5009,0.60924-1.1508,0.25723-0.6634,0.40616-1.3945,0.16246-0.7446,0.23016-1.5163,0.08123-0.7852,0.08123-1.5163,0-1.2185-0.33846-2.3287-0.32493-1.1101-1.1102-1.9495-0.7717-0.8529-2.0714-1.3539-1.2997-0.5144-3.2493-0.5144-1.7465,0-3.0733,0.4061-1.3268,0.3926-2.3151,1.0696-0.98832,0.6634-1.6788,1.5434-0.67693,0.8664-1.1237,1.8277-0.44677,0.9477-0.70401,1.9225-0.2437,0.9748-0.36554,1.8412-0.10831,0.853-0.13539,1.5434-0.027077,0.6905-0.027077,1.0696,0,1.5163,0.352,2.816,0.36554,1.2862,1.2456,2.2474,0.88001,0.9477,2.3693,1.4893,1.5028,0.5415,3.7637,0.5415,0.96124,0,1.7194-0.1083,0.7717-0.1083,1.3268-0.2301,0.56862-0.1219,0.90709-0.2302,0.352-0.1083,0.47385-0.1083,0.08123,0,0.13539,0.041,0.05415,0.041,0.08123,0.1219,0.02708,0.081,0.04062,0.203,0.01354,0.1219,0.01354,0.2843,0,0.1219-0.01354,0.2031,0,0.081-0.02708,0.1489-0.01354,0.081-0.05415,0.149-0.04062,0.081-0.12185,0.1354-0.08123,0.068-0.44678,0.1895-0.36554,0.1354-0.98832,0.2572-0.62278,0.1354-1.4757,0.2302-0.8394,0.095-1.8413,0.095-2.5182,0-4.2376-0.6093-1.7194-0.5957-2.789-1.7058-1.0696-1.0967-1.5434-2.6401-0.46031-1.5434-0.46031-3.4253,0-0.4738,0.027077-1.259,0.040616-0.7988,0.18954-1.7736,0.14892-0.9883,0.44677-2.0714,0.31139-1.0966,0.8394-2.1662,0.54155-1.0695,1.3539-2.0443,0.81232-0.9883,1.9766-1.733,1.1779-0.7446,2.7348-1.1778,1.5569-0.4468,3.6013-0.4468,2.0714,0,3.6013,0.528,1.5434,0.5145,2.5588,1.4757,1.0154,0.9613,1.5163,2.3422,0.50093,1.3809,0.50093,3.1003zm-7.1755,0.6905q-0.56862-0.9477-1.1643-1.4351-0.5957-0.5009-1.3539-0.5009-0.63632,0-1.1372,0.2978-0.50093,0.2979-0.88001,0.7853-0.36554,0.4738-0.62278,1.0831-0.25723,0.6092-0.4197,1.2455-0.16246,0.6228-0.23016,1.2185-0.06769,0.5957-0.06769,1.0425,0,1.0966,0.39262,1.6788,0.40616,0.5821,1.3403,0.5821,0.352,0,0.71755-0.1218,0.37908-0.1219,0.79878-0.3791,0.4197-0.2708,0.89355-0.6905t1.0289-1.0018l0.70401-3.8044zm-14.838-7.8118z"/>
  </g>
  <path id="path4152" d="m14.366,1045c-1.5775-0.2405-2.8538-0.811-3.7502-1.6763-1.1973-1.1556-1.6105-2.3768-1.614-4.7693-0.00442-3.0164,0.73207-5.3363,2.2621-7.1258,1.5677-1.8333,3.8547-2.7372,6.9533-2.7478,2.3704-0.01,3.798,0.4042,5.0458,1.458,1.1346,0.9583,1.6413,2.2423,1.6446,4.1677,0.0032,1.8771-0.48724,3.7801-1.2394,4.8095-0.71663,0.9809-2.1582,1.3017-2.9551,0.6577-0.39432-0.3185-0.41152-0.3672-0.39314-1.1115,0.01058-0.428,0.3039-2.0857,0.65184-3.6838,0.34794-1.598,0.61036-2.938,0.58318-2.9778-0.09611-0.1403-0.81649-0.2085-1.1163-0.1056-0.20418,0.07-0.33157,0.2281-0.38818,0.4817-0.17219,0.771-0.15832,0.7661-0.73578,0.2665-0.82233-0.7113-1.374-0.9132-2.4902-0.9112-0.77748,0-1.0796,0.058-1.6572,0.3137-1.9701,0.8702-3.1673,3.147-3.1898,6.0664-0.0099,1.2801,0.01233,1.4099,0.34607,2.0235,0.27663,0.5086,0.48902,0.7259,0.94702,0.969,0.51962,0.2759,0.71909,0.3133,1.6637,0.3122,1.2707,0,1.7814-0.1788,3.0543-1.0616,0.81175-0.563,0.8479-0.5759,0.93011-0.3316,0.27811,0.827,1.1601,1.3433,2.4669,1.4441l0.83236,0.064-0.44268,1.4881-0.44268,1.4878-0.76849,0.1415c-2.1436,0.3946-2.7782,0.465-4.1146,0.4563-0.79865-0.01-1.7362-0.053-2.0834-0.1057z" stroke-miterlimit="4" stroke-dasharray="none" stroke-width="1.20000005" fill="#FF0"/>
  <g id="text3743" style="writing-mode:lr-tb;letter-spacing:0px;word-spacing:0px;text-anchor:start;text-align:start;" font-weight="normal" font-size="5px" font-stretch="normal" line-height="125%" font-variant="normal" font-family="sans-serif" font-style="normal" fill="#f50444">
   <path id="path4415" style="" d="m4.9662,1026.1-1.3916-3.645,0.51514,0,1.1548,3.0689,1.1572-3.0689,0.5127,0-1.3892,3.645-0.55908,0z"/>
   <path id="path4417" style="" d="m8.2767,1024.7q-0.54443,0-0.75439,0.1245-0.20996,0.1246-0.20996,0.4248,0,0.2393,0.15625,0.3809,0.15869,0.1392,0.42969,0.1392,0.37354,0,0.59814-0.2637,0.22705-0.2661,0.22705-0.7056v-0.1001h-0.44678zm0.896-0.1855,0,1.56-0.44922,0,0-0.415q-0.15381,0.249-0.3833,0.3687-0.22949,0.1171-0.56152,0.1171-0.41992,0-0.66895-0.2343-0.24658-0.2368-0.24658-0.6324,0-0.4614,0.30762-0.6958,0.31006-0.2343,0.92285-0.2343h0.62988v-0.044q0-0.31-0.20508-0.4785-0.20264-0.1709-0.57129-0.1709-0.23438,0-0.45654,0.056-0.22217,0.056-0.42725,0.1684v-0.415q0.24658-0.095,0.47852-0.1416,0.23193-0.049,0.45166-0.049,0.59326,0,0.88623,0.3076t0.29297,0.9326z"/>
   <path id="path4419" style="" d="m10.1,1022.3,0.44922,0,0,3.7988-0.44922,0,0-3.7988z"/>
   <path id="path4421" style="" d="m11.487,1023.4,0.44922,0,0,2.7343-0.44922,0,0-2.7343zm0-1.0645,0.44922,0,0,0.5689-0.44922,0,0-0.5689z"/>
   <path id="path4423" style="" d="m14.673,1023.8,0-1.4795,0.44922,0,0,3.7988-0.44922,0,0-0.4101q-0.1416,0.2441-0.35889,0.3638-0.21484,0.1171-0.51758,0.1171-0.4956,0-0.8081-0.3955-0.31006-0.3955-0.31006-1.04t0.31006-1.04q0.3125-0.3955,0.8081-0.3955,0.30274,0,0.51758,0.1196,0.21728,0.1172,0.35889,0.3613zm-1.5308,0.9546q0,0.4956,0.20264,0.7788,0.20508,0.2808,0.56152,0.2808,0.35645,0,0.56152-0.2808,0.20508-0.2832,0.20508-0.7788t-0.20508-0.7764q-0.20508-0.2832-0.56152-0.2832t-0.56152,0.2832q-0.20264,0.2808-0.20264,0.7764z"/>
   <path id="path4425" style="" d="m18.877,1022.9-0.66895,1.8139,1.3403,0-0.67139-1.8139zm-0.27832-0.4859,0.55908,0,1.3892,3.645-0.5127,0-0.33203-0.935-1.6431,0-0.33203,0.935-0.52002,0,1.3916-3.645z"/>
   <path id="path4427" style="" d="m22.642,1023.8q-0.07568-0.044-0.16602-0.063-0.08789-0.022-0.19531-0.022-0.38086,0-0.58594,0.2491-0.20264,0.2465-0.20264,0.7104v1.4404h-0.45166v-2.7343h0.45166v0.4248q0.1416-0.249,0.36865-0.3687,0.22705-0.122,0.55176-0.122,0.04639,0,0.10254,0.01,0.05615,0,0.12451,0.017l0.0024,0.4614z"/>
   <path id="path4429" style="" d="m25.349,1024.6,0,0.2197-2.0654,0q0.0293,0.4638,0.27832,0.708,0.25146,0.2417,0.69824,0.2417,0.25879,0,0.50049-0.063,0.24414-0.063,0.4834-0.1904v0.4248q-0.2417,0.1025-0.4956,0.1562-0.25391,0.054-0.51514,0.054-0.6543,0-1.0376-0.3808-0.38086-0.3809-0.38086-1.0303,0-0.6714,0.36133-1.0644,0.36377-0.3955,0.979-0.3955,0.55176,0,0.87158,0.3564,0.32227,0.354,0.32227,0.9644zm-0.44922-0.1319q-0.0049-0.3686-0.20752-0.5884-0.2002-0.2197-0.53223-0.2197-0.37598,0-0.60303,0.2124-0.22461,0.2124-0.25879,0.5982h1.6016z"/>
   <path id="path4431" style="" d="m27.329,1024.7q-0.54443,0-0.7544,0.1245-0.20996,0.1246-0.20996,0.4248,0,0.2393,0.15625,0.3809,0.15869,0.1392,0.42969,0.1392,0.37354,0,0.59814-0.2637,0.22705-0.2661,0.22705-0.7056v-0.1001h-0.44678zm0.896-0.1855,0,1.56-0.44922,0,0-0.415q-0.15381,0.249-0.3833,0.3687-0.22949,0.1171-0.56152,0.1171-0.41992,0-0.66894-0.2343-0.24658-0.2368-0.24658-0.6324,0-0.4614,0.30762-0.6958,0.31006-0.2343,0.92285-0.2343h0.62988v-0.044q0-0.31-0.20508-0.4785-0.20264-0.1709-0.57129-0.1709-0.23438,0-0.45654,0.056-0.22217,0.056-0.42725,0.1684v-0.415q0.24658-0.095,0.47852-0.1416,0.23193-0.049,0.45166-0.049,0.59326,0,0.88623,0.3076t0.29297,0.9326z"/>
  </g>
  <g id="text4547" style="writing-mode:lr-tb;letter-spacing:0px;word-spacing:0px;text-anchor:start;text-align:start;" font-weight="normal" font-size="5px" font-stretch="normal" line-height="125%" font-variant="normal" font-family="sans-serif" font-style="normal" fill="#f00444">
   <path id="path4434" style="" d="m8.1447,1047.4,0,0.5201q-0.24902-0.232-0.53223-0.3467-0.28076-0.1148-0.59814-0.1148-0.625,0-0.95703,0.3833-0.33203,0.3809-0.33203,1.1036,0,0.7202,0.33203,1.1035,0.33203,0.3808,0.95703,0.3808,0.31738,0,0.59814-0.1147,0.2832-0.1148,0.53223-0.3467v0.5151q-0.25879,0.1758-0.54932,0.2637-0.28809,0.088-0.61035,0.088-0.82764,0-1.3037-0.5054-0.47607-0.5078-0.47607-1.3842,0-0.879,0.47607-1.3843,0.47607-0.5078,1.3037-0.5078,0.32715,0,0.61523,0.088,0.29053,0.085,0.54443,0.2587z"/>
   <path id="path4436" style="" d="m9.9514,1048.3q-0.36133,0-0.57129,0.2832-0.20996,0.2807-0.20996,0.7715,0,0.4907,0.20752,0.7739,0.20996,0.2807,0.57373,0.2807,0.35889,0,0.56885-0.2832t0.20996-0.7714q0-0.4859-0.20996-0.7691-0.20996-0.2856-0.56885-0.2856zm0-0.3809q0.58594,0,0.92041,0.3809,0.33447,0.3808,0.33447,1.0547,0,0.6713-0.33447,1.0546-0.33447,0.3809-0.92041,0.3809-0.58838,0-0.92285-0.3809-0.33203-0.3833-0.33203-1.0546,0-0.6739,0.33203-1.0547,0.33447-0.3809,0.92285-0.3809z"/>
   <path id="path4438" style="" d="m14.221,1049.1,0,1.6504-0.44922,0,0-1.6357q0-0.3882-0.15137-0.5811t-0.4541-0.1929q-0.36377,0-0.57373,0.232-0.20996,0.2319-0.20996,0.6323v1.5454h-0.45166v-2.7344h0.45166v0.4248q0.16113-0.2465,0.37842-0.3686,0.21973-0.1221,0.50537-0.1221,0.47119,0,0.71289,0.293,0.2417,0.2905,0.2417,0.8569z"/>
   <path id="path4440" style="" d="m15.567,1047.2,0,0.7763,0.92529,0,0,0.3491-0.92529,0,0,1.4844q0,0.3345,0.09033,0.4297,0.09277,0.095,0.37354,0.095h0.46143v0.376h-0.46143q-0.52002,0-0.71777-0.1929-0.19775-0.1953-0.19775-0.708v-1.4844h-0.32959v-0.3491h0.32959v-0.7763h0.45166z"/>
   <path id="path4442" style="" d="m17.085,1048,0.44922,0,0,2.7344-0.44922,0,0-2.7344zm0-1.0644,0.44922,0,0,0.5688-0.44922,0,0-0.5688z"/>
   <path id="path4444" style="" d="m20.745,1049.1,0,1.6504-0.44922,0,0-1.6357q0-0.3882-0.15137-0.5811t-0.4541-0.1929q-0.36377,0-0.57373,0.232-0.20996,0.2319-0.20996,0.6323v1.5454h-0.45166v-2.7344h0.45166v0.4248q0.16113-0.2465,0.37842-0.3686,0.21973-0.1221,0.50537-0.1221,0.47119,0,0.71289,0.293,0.2417,0.2905,0.2417,0.8569z"/>
   <path id="path4446" style="" d="m21.599,1049.6,0-1.6553,0.44922,0,0,1.6382q0,0.3882,0.15137,0.5835,0.15137,0.1929,0.4541,0.1929,0.36377,0,0.57373-0.232,0.2124-0.2319,0.2124-0.6323v-1.5503h0.44922v2.7344h-0.44922v-0.4199q-0.16357,0.249-0.38086,0.3711-0.21484,0.1196-0.50049,0.1196-0.47119,0-0.71533-0.293-0.24414-0.2929-0.24414-0.8569zm1.1304-1.7212z"/>
   <path id="path4448" style="" d="m27.158,1049.2,0,0.2197-2.0654,0q0.0293,0.4639,0.27832,0.708,0.25146,0.2417,0.69824,0.2417,0.25879,0,0.50049-0.063,0.24414-0.063,0.4834-0.1905v0.4248q-0.2417,0.1026-0.4956,0.1563-0.25391,0.054-0.51514,0.054-0.6543,0-1.0376-0.3809-0.38086-0.3808-0.38086-1.0302,0-0.6714,0.36133-1.0645,0.36377-0.3955,0.979-0.3955,0.55176,0,0.87158,0.3565,0.32227,0.354,0.32227,0.9643zm-0.44922-0.1318q-0.0049-0.3687-0.20752-0.5884-0.2002-0.2197-0.53223-0.2197-0.37598,0-0.60303,0.2124-0.22461,0.2124-0.25879,0.5981h1.6016z"/>
  </g>
 </g>
</svg>
