<svg xmlns="http://www.w3.org/2000/svg" xmlns:xlink="http://www.w3.org/1999/xlink" width="32" height="32" viewBox="0 0 32 32"><defs><linearGradient id="q"><stop offset="0" stop-color="#d5d5d3"/><stop offset="1" stop-color="#d6d6d2" stop-opacity="0"/></linearGradient><linearGradient id="f"><stop offset="0"/><stop offset="1" stop-color="#4a4a4a"/></linearGradient><linearGradient id="g"><stop offset="0" stop-color="#fff"/><stop offset="1" stop-color="#fff" stop-opacity="0"/></linearGradient><linearGradient id="h"><stop offset="0" stop-color="#fff" stop-opacity="0"/><stop offset=".883" stop-color="#fff" stop-opacity="0"/><stop offset="1" stop-color="#fff"/></linearGradient><linearGradient id="i"><stop offset="0" stop-color="#fffd33"/><stop offset=".456" stop-color="#fae926"/><stop offset=".668" stop-color="#f5d619"/><stop offset=".871" stop-color="#ebb000"/><stop offset="1" stop-color="#db6700"/></linearGradient><linearGradient id="j"><stop offset="0" stop-color="#fffec3"/><stop offset="1" stop-color="#fffec3" stop-opacity="0"/></linearGradient><linearGradient id="w"><stop offset="0" stop-color="#fff"/><stop offset="1" stop-color="#939393"/></linearGradient><linearGradient y2="1055.434" x2="73.009" y1="1086.414" x1="73.009" gradientTransform="translate(-59.414 -1122.204) scale(1.03294)" gradientUnits="userSpaceOnUse" id="x" xlink:href="#w"/><linearGradient id="k"><stop offset="0" stop-color="#dffaff"/><stop offset=".5" stop-color="#c6f5ff" stop-opacity=".813"/><stop offset="1" stop-color="#aef0ff" stop-opacity="0"/></linearGradient><linearGradient xlink:href="#d" id="e" gradientUnits="userSpaceOnUse" gradientTransform="translate(1.164 569.018)" x1="-1573.223" y1="95.709" x2="-1573.223" y2="358.388"/><linearGradient id="l"><stop offset="0" stop-color="#fff"/><stop offset="1" stop-color="#bebebe"/></linearGradient><linearGradient id="r"><stop offset="0" stop-color="#4e4e4e"/><stop offset="1" stop-color="#1b1b1b" stop-opacity=".38"/></linearGradient><linearGradient id="d"><stop offset="0" stop-color="#f3f1ef"/><stop offset="1" stop-color="#b0b5bc"/></linearGradient><linearGradient id="n"><stop offset="0" stop-color="#f1f0ee"/><stop offset="1" stop-color="#c6c6c6"/></linearGradient><linearGradient id="v"><stop offset="0" stop-color="#ff1010"/><stop offset="1" stop-color="#920101"/></linearGradient><linearGradient id="p"><stop offset="0" stop-color="#fff"/><stop offset="1" stop-color="#e4e1dc" stop-opacity="0"/></linearGradient><linearGradient id="o"><stop offset="0" stop-color="#d7d7d7"/><stop offset="1" stop-color="#d9d8d4" stop-opacity="0"/></linearGradient><linearGradient id="t"><stop offset="0" stop-color="#f7f6f4"/><stop offset="1" stop-color="#f7f6f4" stop-opacity="0"/></linearGradient><linearGradient id="m"><stop offset="0" stop-color="#f1f0ef" stop-opacity=".924"/><stop offset="1" stop-color="#b0b5bc"/></linearGradient><linearGradient id="s"><stop offset="0" stop-color="#37414d"/><stop offset="1" stop-color="#737373" stop-opacity="0"/></linearGradient><linearGradient id="u"><stop offset="0" stop-color="#b6babc"/><stop offset="1" stop-color="#b6babc" stop-opacity="0"/></linearGradient><linearGradient id="a"><stop offset="0" stop-color="#6de4ff"/><stop offset=".662" stop-color="#578bcf"/><stop offset="1" stop-color="#0027a0"/></linearGradient><linearGradient y2="1070.924" x2="73.009" y1="1086.414" x1="73.009" gradientTransform="translate(-59.414 -1090.204) scale(1.03294)" gradientUnits="userSpaceOnUse" id="y" xlink:href="#g"/><radialGradient r="4.436" fy="162.255" fx="70.182" cy="162.255" cx="70.182" gradientTransform="matrix(1 0 0 .54098 0 74.477)" gradientUnits="userSpaceOnUse" id="z" xlink:href="#g"/><radialGradient r="4.436" fy="162.255" fx="70.182" cy="162.255" cx="70.182" gradientTransform="matrix(1 0 0 .54098 0 74.477)" gradientUnits="userSpaceOnUse" id="B" xlink:href="#g"/><radialGradient r="4.436" fy="162.255" fx="70.182" cy="162.255" cx="70.182" gradientTransform="matrix(1 0 0 .54098 0 74.477)" gradientUnits="userSpaceOnUse" id="C" xlink:href="#g"/><radialGradient xlink:href="#a" id="c" gradientUnits="userSpaceOnUse" gradientTransform="matrix(1 0 0 2.2083 30.255 -267.71)" cx="-104.095" cy="223.006" fx="-105.841" fy="224.059" r="5.334"/><radialGradient xlink:href="#a" id="b" gradientUnits="userSpaceOnUse" gradientTransform="matrix(.7002 .07348 -.1479 1.40926 62.16 -92.81)" cx="-105.621" cy="224.09" fx="-107.366" fy="225.144" r="5.334"/><filter id="A" x="-.517" width="2.034" y="-.956" height="2.912" color-interpolation-filters="sRGB"><feGaussianBlur stdDeviation="1.912"/></filter></defs><g transform="translate(.157 .09)"><rect ry="3.878" y="-32.001" height="32" width="32" transform="scale(1 -1)" fill="url(#x)" enable-background="new"/><rect ry="3.878" height="32" width="32" y=".001" fill="url(#y)" enable-background="new"/><rect ry="3.755" y=".511" x=".511" height="30.979" width="30.979" fill="none" stroke="#939393" stroke-width="1.021" stroke-linecap="round" stroke-linejoin="round" enable-background="new"/></g><path d="M71.127 159.855l-3.49.436-1.6 1.746-.292 1.02.728 1.6 3.49-1.165 2.91-.58 1.454.145.29-2.328-3.49-.872z" transform="matrix(.37268 .12615 1.12966 -.05634 -189.776 17.023)" opacity=".306" fill="url(#z)" fill-rule="evenodd" filter="url(#A)"/><path transform="matrix(-.04842 .12615 -.14678 -.05634 53.71 22.78)" d="M71.127 159.855l-3.49.436-1.6 1.746-.292 1.02.728 1.6 3.49-1.165 2.91-.58 1.454.145.29-2.328-3.49-.872z" opacity=".306" fill="url(#B)" fill-rule="evenodd" filter="url(#A)"/><path d="M71.127 159.855l-3.49.436-1.6 1.746-.292 1.02.728 1.6 3.49-1.165 2.91-.58 1.454.145.29-2.328-3.49-.872z" transform="matrix(-.05836 .15205 -.1769 -.0679 70.78 22.316)" opacity=".306" fill="url(#C)" fill-rule="evenodd" filter="url(#A)"/><path d="M14.366 25.56c-1.616-.294-2.859-.912-3.75-1.865-1.197-1.28-1.61-2.632-1.614-5.283-.005-3.34.732-5.91 2.262-7.892 1.568-2.03 3.855-3.032 6.953-3.044 2.37-.009 3.798.448 5.046 1.615 1.135 1.061 1.641 2.484 1.645 4.616.003 2.08-.488 4.187-1.24 5.328-.716 1.086-2.158 1.441-2.955.728-.394-.353-.412-.407-.393-1.231.01-.474.304-2.31.652-4.08.348-1.77.61-3.255.583-3.299-.096-.155-.817-.23-1.116-.117-.205.078-.332.253-.389.534-.172.854-.158.848-.735.295-.823-.788-1.374-1.011-2.49-1.01-.778.002-1.08.066-1.658.348-1.97.964-3.167 3.486-3.19 6.72-.01 1.417.013 1.561.346 2.24.277.564.49.805.948 1.074.52.306.719.347 1.663.346 1.269-.001 1.782-.198 3.043-1.167l.833-.64.218.495c.4.908 1.468 1.444 2.704 1.358.359-.024.651-.016.65.018 0 .035-.384.83-.852 1.768l-.85 1.705-.948.23c-1.09.265-4.36.393-5.366.21z" fill="#ff0"/><path d="M14.316 21.745c-.666-.705-.822-2.335-.445-4.636.807-4.912 3.356-6.351 5.215-2.944l.279.51-.345 2.402-.344 2.4-.83.962c-1.438 1.67-2.733 2.15-3.53 1.306z" fill="#ff0"/><path d="M22.55 21.539l-1.032 3.75" fill="none" stroke="#000" stroke-width=".397"/><path d="M26.707 13.456q0 .809-.108 1.693-.095.871-.34 1.704-.23.834-.623 1.592-.379.745-.962 1.313-.569.569-1.341.897-.773.328-1.776.328-.487 0-.935-.113-.433-.127-.786-.354-.338-.24-.582-.594-.23-.366-.312-.846-.542.518-1.057.884-.502.354-.99.581-.487.228-.948.341-.447.101-.867.101-.542 0-.976-.088-.434-.101-.772-.278-.34-.19-.583-.468-.244-.277-.407-.644-.162-.378-.244-.833-.067-.467-.067-1.023 0-.518.08-1.2.096-.694.299-1.427.217-.745.583-1.452.366-.72.921-1.276.556-.568 1.315-.91.772-.353 1.802-.353.434 0 .827.101.406.101.772.316.366.202.705.505.339.303.664.707l.244-1.187q.04-.164.19-.227.149-.076.542-.076.19 0 .311.026.136.013.204.05.081.038.108.101.027.05.014.126l-1.234 5.898q-.244 1.187.122 1.768.38.569 1.383.569.596 0 1.07-.266.488-.278.84-.732.366-.467.61-1.074.258-.619.407-1.3.162-.695.23-1.415.082-.732.082-1.414 0-1.137-.34-2.173-.325-1.035-1.11-1.818-.773-.796-2.074-1.263-1.3-.48-3.252-.48-1.749 0-3.077.379-1.328.366-2.317.998-.99.618-1.68 1.44-.678.808-1.125 1.704-.447.884-.705 1.794-.244.909-.366 1.717-.108.796-.135 1.44-.027.644-.027.998 0 1.414.352 2.626.366 1.2 1.247 2.097.88.884 2.371 1.389 1.505.505 3.768.505.962 0 1.72-.1.773-.102 1.329-.216.569-.113.908-.214.352-.101.474-.101.081 0 .136.038.054.038.08.114.028.075.042.189.013.114.013.265 0 .114-.013.19 0 .075-.028.139-.013.075-.054.139-.04.075-.122.126-.081.063-.447.177-.366.126-.99.24-.623.126-1.476.214-.84.089-1.843.089-2.521 0-4.242-.568-1.721-.556-2.792-1.592-1.07-1.023-1.545-2.462-.46-1.44-.46-3.196 0-.442.027-1.174.04-.745.19-1.654.149-.922.447-1.933.311-1.023.84-2.02.542-.998 1.355-1.907.813-.922 1.979-1.617 1.179-.694 2.737-1.099 1.559-.416 3.605-.416 2.073 0 3.605.492 1.544.48 2.56 1.377 1.017.896 1.519 2.185.501 1.288.501 2.892zm-7.182.644q-.57-.884-1.166-1.338-.596-.468-1.355-.468-.637 0-1.138.278-.502.278-.881.733-.366.442-.624 1.01-.257.568-.42 1.162-.162.58-.23 1.137-.068.555-.068.972 0 1.023.393 1.566.407.543 1.342.543.352 0 .718-.114.38-.113.8-.353.42-.253.894-.644.474-.392 1.03-.935l.705-3.549zM4.672 6.813z" font-weight="300" font-size="27.727" font-family="Calibri" letter-spacing="0" word-spacing="0"/><path d="M14.366 24.68c-1.578-.241-2.854-.812-3.75-1.677-1.197-1.156-1.61-2.377-1.614-4.77-.005-3.016.732-5.336 2.262-7.125 1.568-1.833 3.855-2.737 6.953-2.748 2.37-.01 3.798.404 5.046 1.458 1.135.958 1.641 2.242 1.645 4.168.003 1.877-.488 3.78-1.24 4.81-.716.98-2.158 1.301-2.955.657-.394-.318-.412-.367-.393-1.111.01-.428.304-2.086.652-3.684.348-1.598.61-2.938.583-2.978-.096-.14-.817-.209-1.116-.106-.205.07-.332.228-.389.482-.172.771-.158.766-.735.267-.823-.712-1.374-.914-2.49-.912-.778 0-1.08.058-1.658.314-1.97.87-3.167 3.147-3.19 6.066-.01 1.28.013 1.41.346 2.024.277.509.49.726.948.969.52.276.719.313 1.663.312 1.27 0 1.782-.179 3.054-1.061.812-.563.848-.576.93-.332.279.827 1.16 1.343 2.468 1.444l.832.064-.443 1.488-.442 1.488-.769.141c-2.144.395-2.778.465-4.115.457-.798-.01-1.736-.053-2.083-.106z" fill="#ff0"/><g style="line-height:125%;-inkscape-font-specification:'sans-serif, Normal';text-align:start" font-weight="400" font-size="5" font-family="sans-serif" letter-spacing="0" word-spacing="0" fill="#f50444"><path d="M4.966 5.736L3.575 2.09h.515L5.245 5.16l1.157-3.07h.512L5.525 5.737h-.559zM8.277 4.361q-.545 0-.755.125-.21.125-.21.425 0 .239.157.38.158.14.43.14.373 0 .597-.264.228-.266.228-.705v-.1h-.447zm.896-.185v1.56h-.45V5.32q-.153.249-.383.369-.23.117-.561.117-.42 0-.67-.235-.246-.236-.246-.632 0-.461.308-.696.31-.234.923-.234h.63v-.044q0-.31-.206-.479-.202-.17-.57-.17-.235 0-.457.056-.223.056-.428.168v-.415q.247-.095.479-.142.232-.049.452-.049.593 0 .886.308.293.308.293.933zM10.1 1.937h.45v3.799h-.45V1.937zM11.487 3.002h.45v2.734h-.45V3.002zm0-1.065h.45v.569h-.45v-.569zM14.673 3.417v-1.48h.45v3.799h-.45v-.41q-.141.244-.359.364-.215.117-.517.117-.496 0-.808-.396-.31-.395-.31-1.04 0-.644.31-1.04.312-.395.808-.395.302 0 .517.12.218.117.36.36zm-1.53.954q0 .496.202.779.205.28.562.28.356 0 .561-.28.205-.283.205-.779 0-.495-.205-.776-.205-.283-.561-.283-.357 0-.562.283-.203.28-.203.776zM18.877 2.577l-.669 1.814h1.34l-.67-1.814zM18.6 2.09h.56l1.388 3.645h-.512l-.332-.935h-1.644l-.332.935h-.52L18.6 2.09zM22.642 3.421q-.076-.044-.166-.063-.088-.022-.195-.022-.381 0-.586.25-.203.246-.203.71v1.44h-.452V3.002h.452v.425q.142-.25.369-.369.227-.122.551-.122.047 0 .103.01.056 0 .125.017l.002.462zM25.35 4.256v.22h-2.066q.03.464.278.708.252.242.699.242.258 0 .5-.063.244-.063.484-.19v.424q-.242.103-.496.156-.254.054-.515.054-.655 0-1.038-.38-.38-.381-.38-1.03 0-.672.36-1.065.364-.396.98-.396.551 0 .871.357.322.354.322.964zm-.45-.131q-.005-.369-.207-.589-.2-.22-.532-.22-.376 0-.603.213-.225.212-.26.598H24.9zM27.33 4.361q-.545 0-.755.125-.21.125-.21.425 0 .239.156.38.16.14.43.14.374 0 .598-.264.227-.266.227-.705v-.1h-.447zm.895-.185v1.56h-.449V5.32q-.154.249-.383.369-.23.117-.562.117-.42 0-.669-.235-.246-.236-.246-.632 0-.461.308-.696.31-.234.922-.234h.63v-.044q0-.31-.205-.479-.202-.17-.571-.17-.234 0-.457.056-.222.056-.427.168v-.415q.247-.095.479-.142.232-.049.451-.049.594 0 .887.308.292.308.292.933z"/></g><g style="line-height:125%;-inkscape-font-specification:'sans-serif, Normal';text-align:start" font-weight="400" font-size="5" font-family="sans-serif" letter-spacing="0" word-spacing="0" fill="#f00444"><path d="M8.145 26.994v.52q-.25-.232-.533-.346-.28-.115-.598-.115-.625 0-.957.383-.332.381-.332 1.104 0 .72.332 1.103.332.381.957.381.318 0 .598-.115.284-.115.533-.346v.515q-.26.175-.55.263-.288.088-.61.088-.828 0-1.304-.505-.476-.508-.476-1.384 0-.88.476-1.385.476-.507 1.304-.507.327 0 .615.088.29.085.545.258zM9.951 27.94q-.361 0-.57.282-.21.281-.21.772 0 .49.207.774.21.28.573.28.36 0 .57-.283.21-.283.21-.771 0-.486-.21-.77-.21-.285-.57-.285zm0-.382q.586 0 .92.381.335.38.335 1.055 0 .671-.334 1.054-.335.381-.92.381-.589 0-.924-.38-.332-.384-.332-1.055 0-.674.332-1.055.335-.38.923-.38zM14.221 28.708v1.65h-.449v-1.635q0-.388-.151-.581-.152-.193-.454-.193-.364 0-.574.232-.21.232-.21.632v1.546h-.452v-2.735h.452v.425q.161-.247.378-.369.22-.122.506-.122.471 0 .713.293.241.29.241.857zM15.567 26.848v.776h.925v.35h-.925v1.484q0 .334.09.43.093.094.373.094h.462v.376h-.462q-.52 0-.717-.193-.198-.195-.198-.708v-1.484h-.33v-.35h.33v-.775h.452zM17.085 27.624h.45v2.734h-.45v-2.734zm0-1.064h.45v.569h-.45v-.57zM20.745 28.708v1.65h-.45v-1.635q0-.388-.15-.581-.152-.193-.455-.193-.364 0-.574.232-.21.232-.21.632v1.546h-.451v-2.735h.451v.425q.162-.247.379-.369.22-.122.505-.122.471 0 .713.293.242.29.242.857zM21.6 29.28v-1.656h.449v1.638q0 .388.15.584.152.193.455.193.364 0 .574-.232.212-.232.212-.633v-1.55h.45v2.734h-.45v-.42q-.163.25-.38.372-.216.12-.501.12-.471 0-.716-.294-.244-.293-.244-.857zm1.13-1.722zM27.158 28.879v.22h-2.065q.03.464.278.708.252.241.699.241.258 0 .5-.063.244-.063.483-.19v.425q-.241.102-.495.156-.254.054-.515.054-.655 0-1.038-.38-.38-.382-.38-1.031 0-.672.36-1.065.364-.395.98-.395.551 0 .871.356.322.354.322.965zm-.449-.132q-.005-.369-.207-.588-.2-.22-.533-.22-.376 0-.603.212-.224.213-.258.599h1.601z"/></g></svg>