<?xml version="1.0" encoding="UTF-8" standalone="no"?>
<!-- Created with Inkscape (http://www.inkscape.org/) -->
<svg id="svg2" xmlns:rdf="http://www.w3.org/1999/02/22-rdf-syntax-ns#" xmlns="http://www.w3.org/2000/svg" version="1.1" xmlns:cc="http://creativecommons.org/ns#" xmlns:xlink="http://www.w3.org/1999/xlink" viewBox="0 0 32 32" xmlns:dc="http://purl.org/dc/elements/1.1/">
 <defs id="defs4">
  <linearGradient id="g">
   <stop id="stop53785" stop-color="#fff" offset="0"/>
   <stop id="stop53787" stop-color="#fff" stop-opacity="0" offset="1"/>
  </linearGradient>
  <filter id="dc" style="color-interpolation-filters:sRGB;" height="2.9119999" width="2.0339999" y="-0.95599997" x="-0.51700002">
   <feGaussianBlur id="feGaussianBlur53842" stdDeviation="1.912"/>
  </filter>
  <radialGradient id="dU" gradientUnits="userSpaceOnUse" xlink:href="#g" cx="70.182" cy="162.26" r="4.436" gradientTransform="matrix(1,0,0,0.54098,0,74.477)"/>
  <linearGradient id="E-8" y2="1055.4" gradientUnits="userSpaceOnUse" y1="1086.4" gradientTransform="matrix(1.03294,0,0,1.03294,-59.414,-1122.2035)" x2="73.009" x1="73.009">
   <stop id="stop4324" stop-color="#fff" offset="0"/>
   <stop id="stop4326" stop-color="#939393" offset="1"/>
  </linearGradient>
  <linearGradient id="F-9" y2="1070.9" xlink:href="#g" gradientUnits="userSpaceOnUse" y1="1086.4" gradientTransform="matrix(1.03294,0,0,1.03294,-59.414,-1090.2035)" x2="73.009" x1="73.009"/>
 </defs>
 <metadata id="metadata7">
  <rdf:RDF>
   <cc:Work rdf:about="">
    <dc:format>image/svg+xml</dc:format>
    <dc:type rdf:resource="http://purl.org/dc/dcmitype/StillImage"/>
    <dc:title/>
   </cc:Work>
  </rdf:RDF>
 </metadata>
 <g id="layer1" transform="translate(0,-1020.3622)">
  <g id="g61054" style="enable-background:new;" transform="translate(0.15678435,1020.4521)">
   <g id="g4276">
    <rect id="rect4364" style="enable-background:new;" transform="scale(1,-1)" ry="3.878" width="32" y="-32" x="0" height="32" fill="url(#E-8)"/>
    <rect id="rect4366" style="enable-background:new;" ry="3.878" height="32" width="32" y="0.00050004" x="0" fill="url(#F-9)"/>
    <rect id="rect4426" stroke-linejoin="round" style="enable-background:new;" ry="3.755" height="30.979" width="30.979" stroke="#939393" stroke-linecap="round" y="0.5105" x="0.511" stroke-width="1.021" fill="none"/>
   </g>
  </g>
  <path id="path55012" opacity="0.306" d="m71.127,159.86-3.49,0.436-1.6,1.746-0.292,1.02,0.728,1.6,3.49-1.165,2.91-0.58,1.454,0.145,0.29-2.328-3.49-0.872z" fill-rule="evenodd" transform="matrix(0.37268,0.12615,1.12966,-0.05634,-189.77572,1037.3854)" filter="url(#dc)" fill="url(#dU)"/>
  <path id="path55024" opacity="0.306" d="m71.127,159.86-3.49,0.436-1.6,1.746-0.292,1.02,0.728,1.6,3.49-1.165,2.91-0.58,1.454,0.145,0.29-2.328-3.49-0.872z" fill-rule="evenodd" transform="matrix(-0.04842,0.12615,-0.14678,-0.05634,53.709282,1043.1414)" filter="url(#dc)" fill="url(#dU)"/>
  <path id="path55164" opacity="0.306" d="m71.127,159.86-3.49,0.436-1.6,1.746-0.292,1.02,0.728,1.6,3.49-1.165,2.91-0.58,1.454,0.145,0.29-2.328-3.49-0.872z" fill-rule="evenodd" transform="matrix(-0.05836,0.15205,-0.1769,-0.0679,70.779686,1042.6778)" filter="url(#dc)" fill="url(#dU)"/>
  <path id="path4148" d="M14.366,25.56c-1.616-0.294-2.859-0.912-3.75-1.865-1.1975-1.28-1.6107-2.632-1.6142-5.283-0.00442-3.341,0.73207-5.9107,2.2621-7.8927,1.5677-2.0307,3.8547-3.0318,6.9533-3.0436,2.3704-0.00908,3.798,0.44785,5.0458,1.615,1.1346,1.0613,1.6413,2.4836,1.6446,4.6163,0.0032,2.0791-0.48724,4.187-1.2394,5.3272-0.71663,1.0863-2.1582,1.4416-2.9551,0.72843-0.39432-0.35291-0.41152-0.40679-0.39314-1.2311,0.01058-0.47414,0.3039-2.3103,0.65184-4.0803s0.61036-3.2543,0.58318-3.2983c-0.09611-0.15551-0.81649-0.23103-1.1163-0.11703-0.20418,0.07763-0.33157,0.25271-0.38818,0.5335-0.17219,0.85412-0.15832,0.84855-0.73578,0.29525-0.82233-0.78793-1.374-1.0115-2.4902-1.0093-0.77748,0.0016-1.0796,0.06492-1.6572,0.3475-1.9701,0.96387-3.1673,3.4857-3.1898,6.7191-0.0099,1.418,0.01233,1.5618,0.34607,2.2414,0.27663,0.56334,0.48902,0.80406,0.94702,1.0733,0.51962,0.30546,0.71909,0.34692,1.6637,0.34584,1.2683-0.0015,1.7819-0.19844,3.0427-1.1671l0.833-0.63997,0.21822,0.4946c0.40072,0.90825,1.4675,1.4445,2.7034,1.3589,0.35897-0.02485,0.65189-0.01678,0.65094,0.01795-0.001,0.03472-0.38453,0.83022-0.8524,1.7678l-0.85066,1.7046-0.94702,0.23008c-1.0908,0.26501-4.3595,0.39292-5.3664,0.21z" transform="translate(0,1020.3622)" stroke-dasharray="none" stroke-miterlimit="4" stroke-width="1.20000005" fill="#FF0"/>
  <path id="path4150" d="m14.316,19.808c-0.66622-0.56059-0.82263-1.856-0.44489-3.6848,0.80653-3.9047,3.3557-5.0488,5.2147-2.3405l0.27887,0.40627-0.34469,1.9083-0.34469,1.9083-0.82898,0.76457c-1.439,1.3272-2.734,1.7079-3.5304,1.0378z" transform="translate(0,1020.3622)" stroke-dasharray="none" stroke-miterlimit="4" stroke-width="1.20000005" fill="#FF0"/>
  <path id="path4146" stroke-linejoin="miter" d="m22.549,1041.9c-1.0311,3.7501-1.0311,3.7501-1.0311,3.7501" stroke="#000" stroke-linecap="butt" stroke-width="0.39718103px" fill="none"/>
  <g id="text4138" style="writing-mode:lr-tb;letter-spacing:0px;word-spacing:0px;text-anchor:start;text-align:start;" font-weight="300" transform="scale(0.99523087,1.004792)" font-style="normal" font-stretch="normal" line-height="125%" font-size="27.72711372px" font-variant="normal" font-family="Calibri" fill="#000">
   <path id="path3612" d="m26.708,1028.9q0,0.8665-0.10831,1.8142-0.09477,0.9342-0.33847,1.8277-0.23016,0.8936-0.62278,1.7059-0.37908,0.7988-0.96124,1.408-0.56862,0.6093-1.3403,0.9613-0.7717,0.352-1.7736,0.352-0.48739,0-0.93417-0.1219-0.43324-0.1354-0.78524-0.3791-0.33847-0.2572-0.58216-0.6363-0.23016-0.3926-0.31139-0.9071-0.54154,0.5551-1.056,0.9477-0.50093,0.3791-0.98832,0.6228t-0.9477,0.3656q-0.44678,0.1083-0.86647,0.1083-0.54155,0-0.97478-0.095-0.43324-0.1083-0.7717-0.2979-0.33846-0.203-0.58216-0.5009-0.2437-0.2978-0.40616-0.6905-0.16246-0.4061-0.2437-0.8935-0.06769-0.5009-0.06769-1.0966,0-0.5551,0.08123-1.2862,0.09477-0.7446,0.29785-1.5299,0.21662-0.7988,0.58216-1.5569,0.36554-0.7717,0.92063-1.3674,0.55508-0.6093,1.3132-0.9748,0.7717-0.3791,1.8006-0.3791,0.43324,0,0.82586,0.1083,0.40616,0.1083,0.7717,0.3385,0.36554,0.2166,0.70401,0.5415,0.33847,0.325,0.66339,0.7582l0.2437-1.2726q0.04061-0.176,0.18954-0.2437,0.14892-0.081,0.54155-0.081,0.18954,0,0.31139,0.027,0.13539,0.014,0.20308,0.054,0.08123,0.041,0.10831,0.1083,0.02708,0.054,0.01354,0.1354l-1.232,6.3225q-0.2437,1.2726,0.12185,1.8954,0.37908,0.6093,1.3809,0.6093,0.5957,0,1.0696-0.2844,0.48739-0.2978,0.8394-0.7852,0.36554-0.5009,0.60924-1.1508,0.25723-0.6634,0.40616-1.3945,0.16246-0.7446,0.23016-1.5163,0.08123-0.7852,0.08123-1.5163,0-1.2185-0.33846-2.3287-0.32493-1.1101-1.1102-1.9495-0.7717-0.8529-2.0714-1.3539-1.2997-0.5144-3.2493-0.5144-1.7465,0-3.0733,0.4061-1.3268,0.3926-2.3151,1.0696-0.98832,0.6634-1.6788,1.5434-0.67693,0.8664-1.1237,1.8277-0.44677,0.9477-0.70401,1.9225-0.2437,0.9748-0.36554,1.8412-0.10831,0.853-0.13539,1.5434-0.027077,0.6905-0.027077,1.0696,0,1.5163,0.352,2.816,0.36554,1.2862,1.2456,2.2474,0.88001,0.9477,2.3693,1.4893,1.5028,0.5415,3.7637,0.5415,0.96124,0,1.7194-0.1083,0.7717-0.1083,1.3268-0.2301,0.56862-0.1219,0.90709-0.2302,0.352-0.1083,0.47385-0.1083,0.08123,0,0.13539,0.041,0.05415,0.041,0.08123,0.1219,0.02708,0.081,0.04062,0.203,0.01354,0.1219,0.01354,0.2843,0,0.1219-0.01354,0.2031,0,0.081-0.02708,0.1489-0.01354,0.081-0.05415,0.149-0.04062,0.081-0.12185,0.1354-0.08123,0.068-0.44678,0.1895-0.36554,0.1354-0.98832,0.2572-0.62278,0.1354-1.4757,0.2302-0.8394,0.095-1.8413,0.095-2.5182,0-4.2376-0.6093-1.7194-0.5957-2.789-1.7058-1.0696-1.0967-1.5434-2.6401-0.46031-1.5434-0.46031-3.4253,0-0.4738,0.027077-1.259,0.040616-0.7988,0.18954-1.7736,0.14892-0.9883,0.44677-2.0714,0.31139-1.0966,0.8394-2.1662,0.54155-1.0695,1.3539-2.0443,0.81232-0.9883,1.9766-1.733,1.1779-0.7446,2.7348-1.1778,1.5569-0.4468,3.6013-0.4468,2.0714,0,3.6013,0.528,1.5434,0.5145,2.5588,1.4757,1.0154,0.9613,1.5163,2.3422,0.50093,1.3809,0.50093,3.1003zm-7.1755,0.6905q-0.56862-0.9477-1.1643-1.4351-0.5957-0.5009-1.3539-0.5009-0.63632,0-1.1372,0.2978-0.50093,0.2979-0.88001,0.7853-0.36554,0.4738-0.62278,1.0831-0.25723,0.6092-0.4197,1.2455-0.16246,0.6228-0.23016,1.2185-0.06769,0.5957-0.06769,1.0425,0,1.0966,0.39262,1.6788,0.40616,0.5821,1.3403,0.5821,0.352,0,0.71755-0.1218,0.37908-0.1219,0.79878-0.3791,0.4197-0.2708,0.89355-0.6905t1.0289-1.0018l0.70401-3.8044zm-14.838-7.8118z"/>
  </g>
  <path id="path4152" d="M14.366,25.552c-1.578-0.267-2.854-0.899-3.75-1.857-1.1975-1.28-1.6107-2.632-1.6142-5.283-0.00442-3.341,0.73207-5.9107,2.2621-7.8927,1.5677-2.0307,3.8547-3.0318,6.9533-3.0436,2.3704-0.00908,3.798,0.44785,5.0458,1.615,1.1346,1.0613,1.6413,2.4836,1.6446,4.6163,0.0032,2.0791-0.48724,4.187-1.2394,5.3272-0.71663,1.0863-2.1582,1.4416-2.9551,0.72843-0.39432-0.35291-0.41152-0.40679-0.39314-1.2311,0.01058-0.47414,0.3039-2.3103,0.65184-4.0803s0.61036-3.2543,0.58318-3.2983c-0.09611-0.15551-0.81649-0.23103-1.1163-0.11703-0.20418,0.07763-0.33157,0.25271-0.38818,0.5335-0.17219,0.85412-0.15832,0.84855-0.73578,0.29525-0.82233-0.78793-1.374-1.0115-2.4902-1.0093-0.77748,0.0016-1.0796,0.06492-1.6572,0.3475-1.9701,0.96387-3.1673,3.4857-3.1898,6.7191-0.0099,1.418,0.01233,1.5618,0.34607,2.2414,0.27663,0.56334,0.48902,0.80406,0.94702,1.0733,0.51962,0.30546,0.71909,0.34692,1.6637,0.34584,1.2707-0.0015,1.7814-0.19809,3.0543-1.176,0.81175-0.62363,0.8479-0.6379,0.93011-0.36716,0.27811,0.91592,1.1601,1.4878,2.4669,1.5995l0.83236,0.07114-0.44268,1.6481-0.44268,1.6481-0.76849,0.15667c-2.1436,0.437-2.7782,0.51495-4.1146,0.50542-0.79865-0.0057-1.7362-0.05835-2.0834-0.11701z" transform="translate(0,1020.3622)" stroke-dasharray="none" stroke-miterlimit="4" stroke-width="1.20000005" fill="#FF0"/>
 </g>
</svg>
