<svg xmlns="http://www.w3.org/2000/svg" xmlns:xlink="http://www.w3.org/1999/xlink" width="32" height="32"><defs><linearGradient id="q"><stop offset="0" stop-color="#d5d5d3"/><stop offset="1" stop-color="#d6d6d2" stop-opacity="0"/></linearGradient><linearGradient id="f"><stop offset="0"/><stop offset="1" stop-color="#4a4a4a"/></linearGradient><linearGradient id="g"><stop offset="0" stop-color="#fff"/><stop offset="1" stop-color="#fff" stop-opacity="0"/></linearGradient><linearGradient id="h"><stop offset="0" stop-color="#fff" stop-opacity="0"/><stop offset=".883" stop-color="#fff" stop-opacity="0"/><stop offset="1" stop-color="#fff"/></linearGradient><linearGradient id="i"><stop offset="0" stop-color="#fffd33"/><stop offset=".456" stop-color="#fae926"/><stop offset=".668" stop-color="#f5d619"/><stop offset=".871" stop-color="#ebb000"/><stop offset="1" stop-color="#db6700"/></linearGradient><linearGradient id="j"><stop offset="0" stop-color="#fffec3"/><stop offset="1" stop-color="#fffec3" stop-opacity="0"/></linearGradient><linearGradient id="w"><stop offset="0" stop-color="#fff"/><stop offset="1" stop-color="#939393"/></linearGradient><linearGradient y2="1055.434" x2="73.009" y1="1086.414" x1="73.009" gradientTransform="translate(-59.414 -1122.204) scale(1.03294)" gradientUnits="userSpaceOnUse" id="x" xlink:href="#w"/><linearGradient id="k"><stop offset="0" stop-color="#dffaff"/><stop offset=".5" stop-color="#c6f5ff" stop-opacity=".813"/><stop offset="1" stop-color="#aef0ff" stop-opacity="0"/></linearGradient><linearGradient xlink:href="#d" id="e" gradientUnits="userSpaceOnUse" gradientTransform="translate(1.164 569.018)" x1="-1573.223" y1="95.709" x2="-1573.223" y2="358.388"/><linearGradient id="l"><stop offset="0" stop-color="#fff"/><stop offset="1" stop-color="#bebebe"/></linearGradient><linearGradient id="r"><stop offset="0" stop-color="#4e4e4e"/><stop offset="1" stop-color="#1b1b1b" stop-opacity=".38"/></linearGradient><linearGradient id="d"><stop offset="0" stop-color="#f3f1ef"/><stop offset="1" stop-color="#b0b5bc"/></linearGradient><linearGradient id="n"><stop offset="0" stop-color="#f1f0ee"/><stop offset="1" stop-color="#c6c6c6"/></linearGradient><linearGradient id="v"><stop offset="0" stop-color="#ff1010"/><stop offset="1" stop-color="#920101"/></linearGradient><linearGradient id="p"><stop offset="0" stop-color="#fff"/><stop offset="1" stop-color="#e4e1dc" stop-opacity="0"/></linearGradient><linearGradient id="o"><stop offset="0" stop-color="#d7d7d7"/><stop offset="1" stop-color="#d9d8d4" stop-opacity="0"/></linearGradient><linearGradient id="t"><stop offset="0" stop-color="#f7f6f4"/><stop offset="1" stop-color="#f7f6f4" stop-opacity="0"/></linearGradient><linearGradient id="m"><stop offset="0" stop-color="#f1f0ef" stop-opacity=".924"/><stop offset="1" stop-color="#b0b5bc"/></linearGradient><linearGradient id="s"><stop offset="0" stop-color="#37414d"/><stop offset="1" stop-color="#737373" stop-opacity="0"/></linearGradient><linearGradient id="u"><stop offset="0" stop-color="#b6babc"/><stop offset="1" stop-color="#b6babc" stop-opacity="0"/></linearGradient><linearGradient id="a"><stop offset="0" stop-color="#6de4ff"/><stop offset=".662" stop-color="#578bcf"/><stop offset="1" stop-color="#0027a0"/></linearGradient><linearGradient y2="1070.924" x2="73.009" y1="1086.414" x1="73.009" gradientTransform="translate(-59.414 -1090.204) scale(1.03294)" gradientUnits="userSpaceOnUse" id="y" xlink:href="#g"/><radialGradient r="4.436" fy="162.255" fx="70.182" cy="162.255" cx="70.182" gradientTransform="matrix(1 0 0 .54098 0 74.477)" gradientUnits="userSpaceOnUse" id="z" xlink:href="#g"/><radialGradient r="4.436" fy="162.255" fx="70.182" cy="162.255" cx="70.182" gradientTransform="matrix(1 0 0 .54098 0 74.477)" gradientUnits="userSpaceOnUse" id="B" xlink:href="#g"/><radialGradient r="4.436" fy="162.255" fx="70.182" cy="162.255" cx="70.182" gradientTransform="matrix(1 0 0 .54098 0 74.477)" gradientUnits="userSpaceOnUse" id="C" xlink:href="#g"/><radialGradient xlink:href="#a" id="c" gradientUnits="userSpaceOnUse" gradientTransform="matrix(1 0 0 2.2083 30.255 -267.71)" cx="-104.095" cy="223.006" fx="-105.841" fy="224.059" r="5.334"/><radialGradient xlink:href="#a" id="b" gradientUnits="userSpaceOnUse" gradientTransform="matrix(.7002 .07348 -.1479 1.40926 62.16 -92.81)" cx="-105.621" cy="224.09" fx="-107.366" fy="225.144" r="5.334"/><filter id="A" x="-.517" width="2.034" y="-.956" height="2.912" color-interpolation-filters="sRGB"><feGaussianBlur stdDeviation="1.912"/></filter></defs><g transform="translate(.157 .09)"><rect ry="3.878" y="-32.001" height="32" width="32" transform="scale(1 -1)" fill="url(#x)" enable-background="new"/><rect ry="3.878" height="32" width="32" y=".001" fill="url(#y)" enable-background="new"/><rect ry="3.755" y=".511" x=".511" height="30.979" width="30.979" fill="none" stroke="#939393" stroke-width="1.021" stroke-linecap="round" stroke-linejoin="round" enable-background="new"/></g><path d="M71.127 159.855l-3.49.436-1.6 1.746-.292 1.02.728 1.6 3.49-1.165 2.91-.58 1.454.145.29-2.328-3.49-.872z" transform="matrix(.37268 .12615 1.12966 -.05634 -189.776 17.023)" opacity=".306" fill="url(#z)" fill-rule="evenodd" filter="url(#A)"/><path transform="matrix(-.04842 .12615 -.14678 -.05634 53.71 22.78)" d="M71.127 159.855l-3.49.436-1.6 1.746-.292 1.02.728 1.6 3.49-1.165 2.91-.58 1.454.145.29-2.328-3.49-.872z" opacity=".306" fill="url(#B)" fill-rule="evenodd" filter="url(#A)"/><path d="M71.127 159.855l-3.49.436-1.6 1.746-.292 1.02.728 1.6 3.49-1.165 2.91-.58 1.454.145.29-2.328-3.49-.872z" transform="matrix(-.05836 .15205 -.1769 -.0679 70.78 22.316)" opacity=".306" fill="url(#C)" fill-rule="evenodd" filter="url(#A)"/><path d="M14.366 25.56c-1.616-.294-2.859-.912-3.75-1.865-1.197-1.28-1.61-2.632-1.614-5.283-.005-3.34.732-5.91 2.262-7.892 1.568-2.03 3.855-3.032 6.953-3.044 2.37-.009 3.798.448 5.046 1.615 1.135 1.061 1.641 2.484 1.645 4.616.003 2.08-.488 4.187-1.24 5.328-.716 1.086-2.158 1.441-2.955.728-.394-.353-.412-.407-.393-1.231.01-.474.304-2.31.652-4.08.348-1.77.61-3.255.583-3.299-.096-.155-.817-.23-1.116-.117-.205.078-.332.253-.389.534-.172.854-.158.848-.735.295-.823-.788-1.374-1.011-2.49-1.01-.778.002-1.08.066-1.658.348-1.97.964-3.167 3.486-3.19 6.72-.01 1.417.013 1.561.346 2.24.277.564.49.805.948 1.074.52.306.719.347 1.663.346 1.269-.001 1.782-.198 3.043-1.167l.833-.64.218.495c.4.908 1.468 1.444 2.704 1.358.359-.024.651-.016.65.018 0 .035-.384.83-.852 1.768l-.85 1.705-.948.23c-1.09.265-4.36.393-5.366.21z" fill="#ff0"/><path d="M14.316 19.808c-.666-.56-.822-1.856-.445-3.684.807-3.905 3.356-5.05 5.215-2.341l.279.406-.345 1.909-.344 1.908-.83.765c-1.438 1.327-2.733 1.707-3.53 1.037z" fill="#ff0"/><path d="M22.55 21.539l-1.032 3.75" fill="none" stroke="#000" stroke-width=".397"/><path d="M26.58 13.487q0 .87-.107 1.823-.094.939-.337 1.836-.229.898-.62 1.715-.377.802-.956 1.414-.566.612-1.334.966-.768.354-1.765.354-.485 0-.93-.123-.431-.136-.782-.38-.336-.259-.579-.64-.229-.394-.31-.911-.539.557-1.05.952-.5.38-.984.626-.486.245-.944.367-.444.109-.862.109-.539 0-.97-.096-.431-.108-.768-.299-.337-.204-.58-.503-.242-.3-.404-.694-.161-.408-.242-.898-.068-.503-.068-1.102 0-.557.081-1.292.095-.748.297-1.537.215-.803.579-1.565.364-.775.916-1.374.553-.612 1.307-.98.768-.38 1.792-.38.431 0 .822.109.404.109.768.34.364.218.7.544.338.327.661.762l.243-1.279q.04-.177.188-.245.149-.081.54-.081.188 0 .31.027.134.014.201.054.081.042.108.11.027.053.014.135l-1.227 6.353q-.242 1.279.122 1.904.377.613 1.374.613.593 0 1.064-.286.486-.3.836-.789.364-.503.606-1.156.256-.667.404-1.402.162-.748.23-1.523.08-.79.08-1.524 0-1.224-.337-2.34-.323-1.115-1.104-1.958-.768-.857-2.062-1.36-1.293-.518-3.234-.518-1.738 0-3.058.408-1.32.395-2.304 1.075-.984.667-1.671 1.551-.674.87-1.119 1.836-.444.953-.7 1.932-.243.98-.364 1.85-.108.857-.135 1.55-.027.695-.027 1.076 0 1.523.35 2.83.364 1.292 1.24 2.257.876.953 2.358 1.497 1.496.544 3.746.544.957 0 1.711-.109.768-.109 1.32-.231.567-.123.903-.231.35-.11.472-.11.08 0 .135.042.054.041.08.122.028.082.041.204.014.123.014.286 0 .123-.014.204 0 .081-.027.15-.013.081-.054.15-.04.08-.121.135-.08.069-.445.19-.363.137-.983.26-.62.135-1.469.23-.835.096-1.832.096-2.507 0-4.218-.612-1.711-.599-2.775-1.714-1.065-1.102-1.537-2.653-.458-1.55-.458-3.442 0-.476.027-1.265.04-.802.189-1.782.148-.993.445-2.081.31-1.102.835-2.177.539-1.074 1.347-2.054.809-.993 1.968-1.741 1.172-.748 2.721-1.183 1.55-.45 3.584-.45 2.062 0 3.585.531 1.536.517 2.546 1.483 1.01.966 1.51 2.353.498 1.388.498 3.115zm-7.14.694q-.566-.952-1.16-1.442-.592-.503-1.347-.503-.633 0-1.131.299-.499.3-.876.789-.364.476-.62 1.088-.256.612-.418 1.252-.161.625-.229 1.224-.067.599-.067 1.047 0 1.102.39 1.687.405.585 1.334.585.35 0 .715-.122.377-.123.795-.381.417-.272.889-.694.471-.422 1.024-1.006l.7-3.823zM4.672 6.33z" font-weight="300" font-size="27.727" font-family="Calibri" letter-spacing="0" word-spacing="0"/><path d="M14.366 25.552c-1.578-.267-2.854-.899-3.75-1.857-1.197-1.28-1.61-2.632-1.614-5.283-.005-3.34.732-5.91 2.262-7.892 1.568-2.03 3.855-3.032 6.953-3.044 2.37-.009 3.798.448 5.046 1.615 1.135 1.061 1.641 2.484 1.645 4.616.003 2.08-.488 4.187-1.24 5.328-.716 1.086-2.158 1.441-2.955.728-.394-.353-.412-.407-.393-1.231.01-.474.304-2.31.652-4.08.348-1.77.61-3.255.583-3.299-.096-.155-.817-.23-1.116-.117-.205.078-.332.253-.389.534-.172.854-.158.848-.735.295-.823-.788-1.374-1.011-2.49-1.01-.778.002-1.08.066-1.658.348-1.97.964-3.167 3.486-3.19 6.72-.01 1.417.013 1.561.346 2.24.277.564.49.805.948 1.074.52.306.719.347 1.663.346 1.27-.001 1.782-.198 3.054-1.176.812-.624.848-.638.93-.367.279.916 1.16 1.488 2.468 1.6l.832.07-.443 1.649-.442 1.648-.769.156c-2.144.437-2.778.515-4.115.506-.798-.006-1.736-.059-2.083-.117z" fill="#ff0"/></svg>