<svg xmlns="http://www.w3.org/2000/svg" xmlns:xlink="http://www.w3.org/1999/xlink" width="32" height="32" viewBox="0 0 32 32"><defs><linearGradient id="q"><stop offset="0" stop-color="#d5d5d3"/><stop offset="1" stop-color="#d6d6d2" stop-opacity="0"/></linearGradient><linearGradient id="f"><stop offset="0"/><stop offset="1" stop-color="#4a4a4a"/></linearGradient><linearGradient id="g"><stop offset="0" stop-color="#fff"/><stop offset="1" stop-color="#fff" stop-opacity="0"/></linearGradient><linearGradient id="h"><stop offset="0" stop-color="#fff" stop-opacity="0"/><stop offset=".883" stop-color="#fff" stop-opacity="0"/><stop offset="1" stop-color="#fff"/></linearGradient><linearGradient id="i"><stop offset="0" stop-color="#fffd33"/><stop offset=".456" stop-color="#fae926"/><stop offset=".668" stop-color="#f5d619"/><stop offset=".871" stop-color="#ebb000"/><stop offset="1" stop-color="#db6700"/></linearGradient><linearGradient id="j"><stop offset="0" stop-color="#fffec3"/><stop offset="1" stop-color="#fffec3" stop-opacity="0"/></linearGradient><linearGradient id="w"><stop offset="0" stop-color="#fff"/><stop offset="1" stop-color="#939393"/></linearGradient><linearGradient y2="1055.434" x2="73.009" y1="1086.414" x1="73.009" gradientTransform="translate(-59.414 -1122.204) scale(1.03294)" gradientUnits="userSpaceOnUse" id="x" xlink:href="#w"/><linearGradient id="k"><stop offset="0" stop-color="#dffaff"/><stop offset=".5" stop-color="#c6f5ff" stop-opacity=".813"/><stop offset="1" stop-color="#aef0ff" stop-opacity="0"/></linearGradient><linearGradient xlink:href="#d" id="e" gradientUnits="userSpaceOnUse" gradientTransform="translate(1.164 569.018)" x1="-1573.223" y1="95.709" x2="-1573.223" y2="358.388"/><linearGradient id="l"><stop offset="0" stop-color="#fff"/><stop offset="1" stop-color="#bebebe"/></linearGradient><linearGradient id="r"><stop offset="0" stop-color="#4e4e4e"/><stop offset="1" stop-color="#1b1b1b" stop-opacity=".38"/></linearGradient><linearGradient id="d"><stop offset="0" stop-color="#f3f1ef"/><stop offset="1" stop-color="#b0b5bc"/></linearGradient><linearGradient id="n"><stop offset="0" stop-color="#f1f0ee"/><stop offset="1" stop-color="#c6c6c6"/></linearGradient><linearGradient id="v"><stop offset="0" stop-color="#ff1010"/><stop offset="1" stop-color="#920101"/></linearGradient><linearGradient id="p"><stop offset="0" stop-color="#fff"/><stop offset="1" stop-color="#e4e1dc" stop-opacity="0"/></linearGradient><linearGradient id="o"><stop offset="0" stop-color="#d7d7d7"/><stop offset="1" stop-color="#d9d8d4" stop-opacity="0"/></linearGradient><linearGradient id="t"><stop offset="0" stop-color="#f7f6f4"/><stop offset="1" stop-color="#f7f6f4" stop-opacity="0"/></linearGradient><linearGradient id="m"><stop offset="0" stop-color="#f1f0ef" stop-opacity=".924"/><stop offset="1" stop-color="#b0b5bc"/></linearGradient><linearGradient id="s"><stop offset="0" stop-color="#37414d"/><stop offset="1" stop-color="#737373" stop-opacity="0"/></linearGradient><linearGradient id="u"><stop offset="0" stop-color="#b6babc"/><stop offset="1" stop-color="#b6babc" stop-opacity="0"/></linearGradient><linearGradient id="a"><stop offset="0" stop-color="#6de4ff"/><stop offset=".662" stop-color="#578bcf"/><stop offset="1" stop-color="#0027a0"/></linearGradient><linearGradient y2="1070.924" x2="73.009" y1="1086.414" x1="73.009" gradientTransform="translate(-59.414 -1090.204) scale(1.03294)" gradientUnits="userSpaceOnUse" id="y" xlink:href="#g"/><radialGradient r="4.436" fy="162.255" fx="70.182" cy="162.255" cx="70.182" gradientTransform="matrix(1 0 0 .54098 0 74.477)" gradientUnits="userSpaceOnUse" id="z" xlink:href="#g"/><radialGradient r="4.436" fy="162.255" fx="70.182" cy="162.255" cx="70.182" gradientTransform="matrix(1 0 0 .54098 0 74.477)" gradientUnits="userSpaceOnUse" id="B" xlink:href="#g"/><radialGradient r="4.436" fy="162.255" fx="70.182" cy="162.255" cx="70.182" gradientTransform="matrix(1 0 0 .54098 0 74.477)" gradientUnits="userSpaceOnUse" id="C" xlink:href="#g"/><radialGradient xlink:href="#a" id="c" gradientUnits="userSpaceOnUse" gradientTransform="matrix(1 0 0 2.2083 30.255 -267.71)" cx="-104.095" cy="223.006" fx="-105.841" fy="224.059" r="5.334"/><radialGradient xlink:href="#a" id="b" gradientUnits="userSpaceOnUse" gradientTransform="matrix(.7002 .07348 -.1479 1.40926 62.16 -92.81)" cx="-105.621" cy="224.09" fx="-107.366" fy="225.144" r="5.334"/><filter id="A" x="-.517" width="2.034" y="-.956" height="2.912" color-interpolation-filters="sRGB"><feGaussianBlur stdDeviation="1.912"/></filter></defs><g transform="translate(.157 .09)"><rect ry="3.878" y="-32.001" height="32" width="32" transform="scale(1 -1)" fill="url(#x)" enable-background="new"/><rect ry="3.878" height="32" width="32" y=".001" fill="url(#y)" enable-background="new"/><rect ry="3.755" y=".511" x=".511" height="30.979" width="30.979" fill="none" stroke="#939393" stroke-width="1.021" stroke-linecap="round" stroke-linejoin="round" enable-background="new"/></g><path d="M71.127 159.855l-3.49.436-1.6 1.746-.292 1.02.728 1.6 3.49-1.165 2.91-.58 1.454.145.29-2.328-3.49-.872z" transform="matrix(.37268 .12615 1.12966 -.05634 -189.776 17.023)" opacity=".306" fill="url(#z)" fill-rule="evenodd" filter="url(#A)"/><path transform="matrix(-.04842 .12615 -.14678 -.05634 53.71 22.78)" d="M71.127 159.855l-3.49.436-1.6 1.746-.292 1.02.728 1.6 3.49-1.165 2.91-.58 1.454.145.29-2.328-3.49-.872z" opacity=".306" fill="url(#B)" fill-rule="evenodd" filter="url(#A)"/><path d="M71.127 159.855l-3.49.436-1.6 1.746-.292 1.02.728 1.6 3.49-1.165 2.91-.58 1.454.145.29-2.328-3.49-.872z" transform="matrix(-.05836 .15205 -.1769 -.0679 70.78 22.316)" opacity=".306" fill="url(#C)" fill-rule="evenodd" filter="url(#A)"/><path d="M14.366 25.56c-1.616-.294-2.859-.912-3.75-1.865-1.197-1.28-1.61-2.632-1.614-5.283-.005-3.34.732-5.91 2.262-7.892 1.568-2.03 3.855-3.032 6.953-3.044 2.37-.009 3.798.448 5.046 1.615 1.135 1.061 1.641 2.484 1.645 4.616.003 2.08-.488 4.187-1.24 5.328-.716 1.086-2.158 1.441-2.955.728-.394-.353-.412-.407-.393-1.231.01-.474.304-2.31.652-4.08.348-1.77.61-3.255.583-3.299-.096-.155-.817-.23-1.116-.117-.205.078-.332.253-.389.534-.172.854-.158.848-.735.295-.823-.788-1.374-1.011-2.49-1.01-.778.002-1.08.066-1.658.348-1.97.964-3.167 3.486-3.19 6.72-.01 1.417.013 1.561.346 2.24.277.564.49.805.948 1.074.52.306.719.347 1.663.346 1.269-.001 1.782-.198 3.043-1.167l.833-.64.218.495c.4.908 1.468 1.444 2.704 1.358.359-.024.651-.016.65.018 0 .035-.384.83-.852 1.768l-.85 1.705-.948.23c-1.09.265-4.36.393-5.366.21z" fill="#ff0"/><path d="M13.645 19.808c-.755-.56-.932-1.856-.504-3.684.913-3.905 3.802-5.05 5.908-2.341l.316.406-.39 1.909-.391 1.908-.94.764c-1.63 1.328-3.097 1.708-4 1.038z" fill="#ff0"/><path d="M22.55 21.539l-1.032 3.75" fill="none" stroke="#000" stroke-width=".397"/><path d="M26.58 13.487q0 .87-.114 1.823-.101.939-.36 1.836-.246.898-.663 1.715-.404.802-1.023 1.414-.605.612-1.426.966t-1.887.354q-.52 0-.994-.123-.461-.136-.836-.38-.36-.259-.62-.64-.244-.394-.33-.911-.577.557-1.124.952-.534.38-1.052.626-.519.245-1.009.367-.475.109-.922.109-.576 0-1.037-.096-.46-.108-.82-.299-.361-.204-.62-.503-.26-.3-.433-.694-.172-.408-.259-.898-.072-.503-.072-1.102 0-.557.087-1.292.1-.748.317-1.537.23-.803.619-1.565.389-.775.98-1.374.59-.612 1.397-.98.821-.38 1.916-.38.46 0 .879.109.432.109.82.34.39.218.75.544.36.327.706.762l.26-1.279q.042-.177.2-.245.16-.081.577-.081.202 0 .331.027.144.014.216.054.087.042.116.11.029.053.014.135l-1.31 6.353q-.26 1.279.129 1.904.403.613 1.47.613.633 0 1.137-.286.519-.3.894-.789.388-.503.648-1.156.273-.667.432-1.402.173-.748.245-1.523.086-.79.086-1.524 0-1.224-.36-2.34-.346-1.115-1.181-1.958-.821-.857-2.204-1.36-1.383-.518-3.458-.518-1.858 0-3.27.408-1.412.395-2.463 1.075-1.052.667-1.787 1.551-.72.87-1.195 1.836-.476.953-.75 1.932-.259.98-.388 1.85-.116.857-.144 1.55-.03.695-.03 1.076 0 1.523.375 2.83.39 1.292 1.326 2.257.936.953 2.52 1.497 1.6.544 4.006.544 1.022 0 1.83-.109.82-.109 1.41-.231.606-.123.966-.231.375-.11.504-.11.087 0 .144.042.058.041.087.122.029.082.043.204.014.123.014.286 0 .123-.014.204 0 .081-.029.15-.014.081-.057.15-.044.08-.13.135-.086.069-.475.19-.39.137-1.052.26-.663.135-1.57.23-.893.096-1.96.096-2.679 0-4.509-.612-1.83-.599-2.967-1.714-1.138-1.102-1.642-2.653-.49-1.55-.49-3.442 0-.476.029-1.265.043-.802.201-1.782.159-.993.476-2.081.33-1.102.893-2.177.576-1.074 1.44-2.054.865-.993 2.104-1.741 1.253-.748 2.91-1.183 1.656-.45 3.832-.45 2.204 0 3.832.531 1.642.517 2.722 1.483 1.08.966 1.614 2.353.533 1.388.533 3.115zm-7.634.694q-.605-.952-1.24-1.442-.633-.503-1.44-.503-.677 0-1.21.299-.533.3-.936.789-.39.476-.663 1.088-.274.612-.447 1.252-.172.625-.245 1.224-.072.599-.072 1.047 0 1.102.418 1.687.432.585 1.426.585.375 0 .764-.122.403-.123.85-.381.446-.272.95-.694.505-.422 1.096-1.006l.749-3.823zM3.156 6.33z" font-weight="300" font-size="27.727" font-family="Calibri" letter-spacing="0" word-spacing="0"/><path d="M13.697 25.552c-1.678-.267-3.036-.899-3.989-1.857-1.273-1.28-1.713-2.632-1.716-5.283-.005-3.34.778-5.91 2.405-7.892 1.668-2.03 4.1-3.032 7.395-3.044 2.521-.01 4.04.448 5.367 1.615 1.206 1.061 1.745 2.484 1.749 4.616.003 2.08-.519 4.187-1.319 5.328-.762 1.086-2.295 1.441-3.142.728-.42-.353-.438-.407-.418-1.231.01-.474.323-2.31.693-4.08.37-1.77.649-3.255.62-3.299-.102-.155-.868-.23-1.187-.117-.217.078-.353.253-.413.534-.183.854-.168.848-.783.295-.874-.788-1.46-1.011-2.648-1.01-.827 0-1.148.066-1.762.348-2.096.964-3.369 3.486-3.393 6.72-.01 1.417.013 1.561.368 2.24.295.564.52.805 1.007 1.074.553.306.765.347 1.77.346 1.351 0 1.894-.198 3.248-1.176.863-.624.902-.638.99-.367.295.916 1.233 1.488 2.623 1.6l.885.07-.47 1.648-.471 1.649-.818.156c-2.28.437-2.954.515-4.376.506-.85-.01-1.846-.058-2.215-.117z" fill="#ff0"/><path d="M-40 1047.362l-5.906-1.617-5.924-1.553 4.353-4.306 4.307-4.354 1.553 5.924z" transform="matrix(.21179 0 0 .22136 34.928 -205.776)" fill="#f20444" stroke="#f20000" stroke-width="4.619"/><path d="M-40 1047.362l-5.906-1.617-5.924-1.553 4.353-4.306 4.307-4.354 1.553 5.924z" transform="matrix(.21179 0 0 .22136 38.059 -202.72)" fill="#f20444" stroke="#f20000" stroke-width="4.619"/><path d="M-40 1047.362l-5.906-1.617-5.924-1.553 4.353-4.306 4.307-4.354 1.553 5.924z" transform="matrix(0 -.21179 .22136 0 -202.403 -5.813)" fill="#f20444" stroke="#f20000" stroke-width="4.619"/><path d="M-40 1047.362l-5.906-1.617-5.924-1.553 4.353-4.306 4.307-4.354 1.553 5.924z" transform="matrix(0 -.21179 .22136 0 -205.258 -2.884)" fill="#f20444" stroke="#f20000" stroke-width="4.619"/><path d="M-40 1047.362l-5.906-1.617-5.924-1.553 4.353-4.306 4.307-4.354 1.553 5.924z" transform="matrix(0 .21179 -.22136 0 237.571 35.27)" fill="#f20444" stroke="#f20000" stroke-width="4.619"/><path d="M-40 1047.362l-5.906-1.617-5.924-1.553 4.353-4.306 4.307-4.354 1.553 5.924z" transform="matrix(0 .21179 -.22136 0 234.641 37.921)" fill="#f20444" stroke="#f20000" stroke-width="4.619"/><path d="M-40 1047.362l-5.906-1.617-5.924-1.553 4.353-4.306 4.307-4.354 1.553 5.924z" transform="matrix(-.21179 0 0 -.22136 -5.09 234.678)" fill="#f20444" stroke="#f20000" stroke-width="4.619"/><path d="M-40 1047.362l-5.906-1.617-5.924-1.553 4.353-4.306 4.307-4.354 1.553 5.924z" transform="matrix(-.21179 0 0 -.22136 -1.983 237.707)" fill="#f20444" stroke="#f20000" stroke-width="4.619"/></svg>