<svg xmlns="http://www.w3.org/2000/svg" xmlns:xlink="http://www.w3.org/1999/xlink" shape-rendering="crispEdges" height="32" width="32"><defs><linearGradient id="q"><stop offset="0" stop-color="#d5d5d3"/><stop offset="1" stop-color="#d6d6d2" stop-opacity="0"/></linearGradient><linearGradient id="f"><stop offset="0"/><stop offset="1" stop-color="#4a4a4a"/></linearGradient><linearGradient id="g"><stop offset="0" stop-color="#fff"/><stop offset="1" stop-color="#fff" stop-opacity="0"/></linearGradient><linearGradient id="h"><stop offset="0" stop-color="#fff" stop-opacity="0"/><stop offset=".883" stop-color="#fff" stop-opacity="0"/><stop offset="1" stop-color="#fff"/></linearGradient><linearGradient id="i"><stop offset="0" stop-color="#fffd33"/><stop offset=".456" stop-color="#fae926"/><stop offset=".668" stop-color="#f5d619"/><stop offset=".871" stop-color="#ebb000"/><stop offset="1" stop-color="#db6700"/></linearGradient><linearGradient id="j"><stop offset="0" stop-color="#fffec3"/><stop offset="1" stop-color="#fffec3" stop-opacity="0"/></linearGradient><linearGradient id="w"><stop offset="0" stop-color="#fff"/><stop offset="1" stop-color="#939393"/></linearGradient><linearGradient y2="1055.434" x2="73.009" y1="1086.414" x1="73.009" gradientTransform="translate(-59.414 -1122.204) scale(1.03294)" gradientUnits="userSpaceOnUse" id="x" xlink:href="#w"/><linearGradient id="k"><stop offset="0" stop-color="#dffaff"/><stop offset=".5" stop-color="#c6f5ff" stop-opacity=".813"/><stop offset="1" stop-color="#aef0ff" stop-opacity="0"/></linearGradient><linearGradient xlink:href="#d" id="e" gradientUnits="userSpaceOnUse" gradientTransform="translate(1.164 569.018)" x1="-1573.223" y1="95.709" x2="-1573.223" y2="358.388"/><linearGradient id="l"><stop offset="0" stop-color="#fff"/><stop offset="1" stop-color="#bebebe"/></linearGradient><linearGradient id="r"><stop offset="0" stop-color="#4e4e4e"/><stop offset="1" stop-color="#1b1b1b" stop-opacity=".38"/></linearGradient><linearGradient id="d"><stop offset="0" stop-color="#f3f1ef"/><stop offset="1" stop-color="#b0b5bc"/></linearGradient><linearGradient id="n"><stop offset="0" stop-color="#f1f0ee"/><stop offset="1" stop-color="#c6c6c6"/></linearGradient><linearGradient id="v"><stop offset="0" stop-color="#ff1010"/><stop offset="1" stop-color="#920101"/></linearGradient><linearGradient id="p"><stop offset="0" stop-color="#fff"/><stop offset="1" stop-color="#e4e1dc" stop-opacity="0"/></linearGradient><linearGradient id="o"><stop offset="0" stop-color="#d7d7d7"/><stop offset="1" stop-color="#d9d8d4" stop-opacity="0"/></linearGradient><linearGradient id="t"><stop offset="0" stop-color="#f7f6f4"/><stop offset="1" stop-color="#f7f6f4" stop-opacity="0"/></linearGradient><linearGradient id="m"><stop offset="0" stop-color="#f1f0ef" stop-opacity=".924"/><stop offset="1" stop-color="#b0b5bc"/></linearGradient><linearGradient id="s"><stop offset="0" stop-color="#37414d"/><stop offset="1" stop-color="#737373" stop-opacity="0"/></linearGradient><linearGradient id="u"><stop offset="0" stop-color="#b6babc"/><stop offset="1" stop-color="#b6babc" stop-opacity="0"/></linearGradient><linearGradient id="a"><stop offset="0" stop-color="#6de4ff"/><stop offset=".662" stop-color="#578bcf"/><stop offset="1" stop-color="#0027a0"/></linearGradient><linearGradient y2="1070.924" x2="73.009" y1="1086.414" x1="73.009" gradientTransform="translate(-59.414 -1090.204) scale(1.03294)" gradientUnits="userSpaceOnUse" id="y" xlink:href="#g"/><radialGradient r="4.436" fy="162.255" fx="70.182" cy="162.255" cx="70.182" gradientTransform="matrix(1 0 0 .54098 0 74.477)" gradientUnits="userSpaceOnUse" id="z" xlink:href="#g"/><radialGradient r="4.436" fy="162.255" fx="70.182" cy="162.255" cx="70.182" gradientTransform="matrix(1 0 0 .54098 0 74.477)" gradientUnits="userSpaceOnUse" id="B" xlink:href="#g"/><radialGradient r="4.436" fy="162.255" fx="70.182" cy="162.255" cx="70.182" gradientTransform="matrix(1 0 0 .54098 0 74.477)" gradientUnits="userSpaceOnUse" id="C" xlink:href="#g"/><radialGradient xlink:href="#a" id="c" gradientUnits="userSpaceOnUse" gradientTransform="matrix(1 0 0 2.2083 30.255 -267.71)" cx="-104.095" cy="223.006" fx="-105.841" fy="224.059" r="5.334"/><radialGradient xlink:href="#a" id="b" gradientUnits="userSpaceOnUse" gradientTransform="matrix(.7002 .07348 -.1479 1.40926 62.16 -92.81)" cx="-105.621" cy="224.09" fx="-107.366" fy="225.144" r="5.334"/><filter id="A" x="-.517" width="2.034" y="-.956" height="2.912" color-interpolation-filters="sRGB"><feGaussianBlur stdDeviation="1.912"/></filter></defs><g transform="translate(.088 .094)"><rect transform="scale(1 -1)" width="32" height="32" y="-32.001" ry="3.878" fill="url(#x)" enable-background="new"/><rect y=".001" width="32" height="32" ry="3.878" fill="url(#y)" enable-background="new"/><rect width="30.979" height="30.979" x=".511" y=".511" ry="3.755" fill="none" stroke="#939393" stroke-width="1.021" stroke-linecap="round" stroke-linejoin="round" enable-background="new"/></g><path transform="matrix(.37268 .12615 1.12966 -.05634 -189.844 17.028)" d="M71.127 159.855l-3.49.436-1.6 1.746-.292 1.02.728 1.6 3.49-1.165 2.91-.58 1.454.145.29-2.328-3.49-.872z" opacity=".306" fill="url(#z)" fill-rule="evenodd" filter="url(#A)"/><path d="M71.127 159.855l-3.49.436-1.6 1.746-.292 1.02.728 1.6 3.49-1.165 2.91-.58 1.454.145.29-2.328-3.49-.872z" transform="matrix(-.04842 .12615 -.14678 -.05634 53.64 22.784)" opacity=".306" fill="url(#B)" fill-rule="evenodd" filter="url(#A)"/><path transform="matrix(-.05836 .15205 -.1769 -.0679 70.711 22.32)" d="M71.127 159.855l-3.49.436-1.6 1.746-.292 1.02.728 1.6 3.49-1.165 2.91-.58 1.454.145.29-2.328-3.49-.872z" opacity=".306" fill="url(#C)" fill-rule="evenodd" filter="url(#A)"/><path d="M.224 16.155V.182h31.82v31.946H.224V16.155zm19.95 10.732c.382-.118.765-.272.851-.342.333-.272 1.044-1.898 1.493-3.414.394-1.327.52-1.609.78-1.727.573-.261 1.168-.794 1.747-1.563 1.13-1.505 1.44-2.654 1.533-5.707.08-2.577-.01-3.21-.63-4.473-.783-1.592-2.57-2.987-4.454-3.478-1.044-.272-5.26-.271-6.305.001-2.49.649-4.533 2.056-5.857 4.036-2.408 3.599-2.876 10.622-.913 13.68.97 1.514 2.582 2.619 4.547 3.12 1.04.264 6.234.169 7.208-.133z" fill="none"/><path fill="#039" d="M1.226 10.109h29.52v2.678H1.226z"/><path fill="#336" d="M4.485 4.619h3.682v16.937H4.485z"/></svg>