<svg xmlns="http://www.w3.org/2000/svg" xmlns:xlink="http://www.w3.org/1999/xlink" shape-rendering="crispEdges" viewBox="0 0 32 32" height="32" width="32"><defs><linearGradient id="q"><stop offset="0" stop-color="#d5d5d3"/><stop offset="1" stop-color="#d6d6d2" stop-opacity="0"/></linearGradient><linearGradient id="f"><stop offset="0"/><stop offset="1" stop-color="#4a4a4a"/></linearGradient><linearGradient id="g"><stop offset="0" stop-color="#fff"/><stop offset="1" stop-color="#fff" stop-opacity="0"/></linearGradient><linearGradient id="h"><stop offset="0" stop-color="#fff" stop-opacity="0"/><stop offset=".883" stop-color="#fff" stop-opacity="0"/><stop offset="1" stop-color="#fff"/></linearGradient><linearGradient id="i"><stop offset="0" stop-color="#fffd33"/><stop offset=".456" stop-color="#fae926"/><stop offset=".668" stop-color="#f5d619"/><stop offset=".871" stop-color="#ebb000"/><stop offset="1" stop-color="#db6700"/></linearGradient><linearGradient id="j"><stop offset="0" stop-color="#fffec3"/><stop offset="1" stop-color="#fffec3" stop-opacity="0"/></linearGradient><linearGradient id="w"><stop offset="0" stop-color="#fff"/><stop offset="1" stop-color="#939393"/></linearGradient><linearGradient y2="1055.434" x2="73.009" y1="1086.414" x1="73.009" gradientTransform="translate(-59.414 -1122.204) scale(1.03294)" gradientUnits="userSpaceOnUse" id="x" xlink:href="#w"/><linearGradient id="k"><stop offset="0" stop-color="#dffaff"/><stop offset=".5" stop-color="#c6f5ff" stop-opacity=".813"/><stop offset="1" stop-color="#aef0ff" stop-opacity="0"/></linearGradient><linearGradient xlink:href="#d" id="e" gradientUnits="userSpaceOnUse" gradientTransform="translate(1.164 569.018)" x1="-1573.223" y1="95.709" x2="-1573.223" y2="358.388"/><linearGradient id="l"><stop offset="0" stop-color="#fff"/><stop offset="1" stop-color="#bebebe"/></linearGradient><linearGradient id="r"><stop offset="0" stop-color="#4e4e4e"/><stop offset="1" stop-color="#1b1b1b" stop-opacity=".38"/></linearGradient><linearGradient id="d"><stop offset="0" stop-color="#f3f1ef"/><stop offset="1" stop-color="#b0b5bc"/></linearGradient><linearGradient id="n"><stop offset="0" stop-color="#f1f0ee"/><stop offset="1" stop-color="#c6c6c6"/></linearGradient><linearGradient id="v"><stop offset="0" stop-color="#ff1010"/><stop offset="1" stop-color="#920101"/></linearGradient><linearGradient id="p"><stop offset="0" stop-color="#fff"/><stop offset="1" stop-color="#e4e1dc" stop-opacity="0"/></linearGradient><linearGradient id="o"><stop offset="0" stop-color="#d7d7d7"/><stop offset="1" stop-color="#d9d8d4" stop-opacity="0"/></linearGradient><linearGradient id="t"><stop offset="0" stop-color="#f7f6f4"/><stop offset="1" stop-color="#f7f6f4" stop-opacity="0"/></linearGradient><linearGradient id="m"><stop offset="0" stop-color="#f1f0ef" stop-opacity=".924"/><stop offset="1" stop-color="#b0b5bc"/></linearGradient><linearGradient id="s"><stop offset="0" stop-color="#37414d"/><stop offset="1" stop-color="#737373" stop-opacity="0"/></linearGradient><linearGradient id="u"><stop offset="0" stop-color="#b6babc"/><stop offset="1" stop-color="#b6babc" stop-opacity="0"/></linearGradient><linearGradient id="a"><stop offset="0" stop-color="#6de4ff"/><stop offset=".662" stop-color="#578bcf"/><stop offset="1" stop-color="#0027a0"/></linearGradient><linearGradient y2="1070.924" x2="73.009" y1="1086.414" x1="73.009" gradientTransform="translate(-59.414 -1090.204) scale(1.03294)" gradientUnits="userSpaceOnUse" id="y" xlink:href="#g"/><radialGradient r="4.436" fy="162.255" fx="70.182" cy="162.255" cx="70.182" gradientTransform="matrix(1 0 0 .54098 0 74.477)" gradientUnits="userSpaceOnUse" id="z" xlink:href="#g"/><radialGradient r="4.436" fy="162.255" fx="70.182" cy="162.255" cx="70.182" gradientTransform="matrix(1 0 0 .54098 0 74.477)" gradientUnits="userSpaceOnUse" id="B" xlink:href="#g"/><radialGradient r="4.436" fy="162.255" fx="70.182" cy="162.255" cx="70.182" gradientTransform="matrix(1 0 0 .54098 0 74.477)" gradientUnits="userSpaceOnUse" id="C" xlink:href="#g"/><radialGradient xlink:href="#a" id="c" gradientUnits="userSpaceOnUse" gradientTransform="matrix(1 0 0 2.2083 30.255 -267.71)" cx="-104.095" cy="223.006" fx="-105.841" fy="224.059" r="5.334"/><radialGradient xlink:href="#a" id="b" gradientUnits="userSpaceOnUse" gradientTransform="matrix(.7002 .07348 -.1479 1.40926 62.16 -92.81)" cx="-105.621" cy="224.09" fx="-107.366" fy="225.144" r="5.334"/><filter id="A" x="-.517" width="2.034" y="-.956" height="2.912" color-interpolation-filters="sRGB"><feGaussianBlur stdDeviation="1.912"/></filter></defs><g transform="translate(-.096 .09)"><rect transform="scale(1 -1)" width="32" height="32" y="-32.001" ry="3.878" fill="url(#x)" enable-background="new"/><rect y=".001" width="32" height="32" ry="3.878" fill="url(#y)" enable-background="new"/><rect width="30.979" height="30.979" x=".511" y=".511" ry="3.755" fill="none" stroke="#939393" stroke-width="1.021" stroke-linecap="round" stroke-linejoin="round" enable-background="new"/></g><path transform="matrix(.37268 .12615 1.12966 -.05634 -190.028 17.023)" d="M71.127 159.855l-3.49.436-1.6 1.746-.292 1.02.728 1.6 3.49-1.165 2.91-.58 1.454.145.29-2.328-3.49-.872z" opacity=".306" fill="url(#z)" fill-rule="evenodd" filter="url(#A)"/><path d="M71.127 159.855l-3.49.436-1.6 1.746-.292 1.02.728 1.6 3.49-1.165 2.91-.58 1.454.145.29-2.328-3.49-.872z" transform="matrix(-.04842 .12615 -.14678 -.05634 53.457 22.78)" opacity=".306" fill="url(#B)" fill-rule="evenodd" filter="url(#A)"/><path transform="matrix(-.05836 .15205 -.1769 -.0679 70.527 22.316)" d="M71.127 159.855l-3.49.436-1.6 1.746-.292 1.02.728 1.6 3.49-1.165 2.91-.58 1.454.145.29-2.328-3.49-.872z" opacity=".306" fill="url(#C)" fill-rule="evenodd" filter="url(#A)"/><path d="M.224 16.155V.182h31.82v31.946H.224V16.155zm19.95 10.732c.382-.118.765-.272.851-.342.333-.272 1.044-1.898 1.493-3.414.394-1.327.52-1.609.78-1.727.573-.261 1.168-.794 1.747-1.563 1.13-1.505 1.44-2.654 1.533-5.707.08-2.577-.01-3.21-.63-4.473-.783-1.592-2.57-2.987-4.454-3.478-1.044-.272-5.26-.271-6.305.001-2.49.649-4.533 2.056-5.857 4.036-2.408 3.599-2.876 10.622-.913 13.68.97 1.514 2.582 2.619 4.547 3.12 1.04.264 6.234.169 7.208-.133z" fill="none"/><g><path d="M5.846 11.624l-1.74-7.633c7.862 1.843 7.892 1.966 7.892 1.966-5.876 5.73-6.152 5.667-6.152 5.667zM7.904 10.47c5.152 5.108 4.906 5.168 4.906 5.168" fill="none" stroke="#000"/><path d="M10.462 7.528l5.593 5.15-3.667 3.295" fill="none" stroke="#000" stroke-width="1.066"/><path d="M5.51 7.666l-.726-2.964.595.172c.327.094 1.666.426 2.976.738 1.31.311 2.39.604 2.402.65.018.074-1.715 1.758-3.911 3.802l-.609.567-.726-2.965zM12.537 14.371c-.17-.194-1.16-1.217-2.2-2.272-1.041-1.056-1.878-1.94-1.86-1.965.081-.116 1.926-1.83 1.948-1.812l2.382 2.186 2.356 2.165-1.16 1.026-1.16 1.026-.306-.354z" fill="#99f"/><g><path d="M20.987 5.583l7.633-1.74c-1.843 7.861-1.966 7.891-1.966 7.891-5.73-5.876-5.667-6.15-5.667-6.15zM22.141 7.64c-5.108 5.152-5.168 4.907-5.168 4.907" fill="none" stroke="#000"/><path d="M25.084 10.199l-5.151 5.593-3.295-3.668" fill="none" stroke="#000" stroke-width="1.066"/><path d="M24.945 5.247l2.964-.726-.172.594c-.094.327-.426 1.667-.738 2.976-.31 1.31-.604 2.391-.65 2.403-.074.017-1.758-1.716-3.802-3.912l-.566-.608 2.964-.727zM18.24 12.273c.194-.169 1.217-1.159 2.272-2.2 1.056-1.04 1.94-1.878 1.966-1.86.115.082 1.83 1.926 1.81 1.949-.011.014-.995 1.086-2.185 2.382L19.938 14.9l-1.026-1.16-1.026-1.16.354-.307z" fill="#99f"/></g><g><path d="M11.604 26.754l-7.633 1.74c1.843-7.862 1.966-7.892 1.966-7.892 5.73 5.876 5.667 6.152 5.667 6.152zM10.45 24.696c5.108-5.152 5.168-4.906 5.168-4.906" fill="none" stroke="#000"/><path d="M7.507 22.138l5.151-5.593 3.295 3.667" fill="none" stroke="#000" stroke-width="1.066"/><path d="M7.646 27.09l-2.964.726.172-.595c.094-.327.426-1.666.738-2.976.31-1.31.604-2.39.65-2.402.074-.018 1.758 1.715 3.802 3.911l.566.609-2.964.726zM14.351 20.063c-.194.17-1.217 1.16-2.272 2.2-1.056 1.041-1.94 1.878-1.966 1.86-.115-.081-1.83-1.926-1.81-1.948.011-.014.995-1.086 2.185-2.382l2.165-2.356 1.026 1.16 1.026 1.16-.354.306z" fill="#99f"/></g><g><path d="M26.757 20.44l1.741 7.634c-7.862-1.843-7.892-1.966-7.892-1.966 5.876-5.73 6.151-5.668 6.151-5.668zM24.7 21.595c-5.152-5.108-4.906-5.168-4.906-5.168" fill="none" stroke="#000"/><path d="M22.142 24.537l-5.593-5.15 3.667-3.295" fill="none" stroke="#000" stroke-width="1.066"/><path d="M27.093 24.398l.727 2.964-.595-.171c-.327-.095-1.666-.427-2.976-.738s-2.39-.604-2.402-.651c-.018-.073 1.715-1.757 3.911-3.801l.609-.567.726 2.964zM20.067 17.693c.17.195 1.16 1.217 2.2 2.273 1.041 1.056 1.878 1.94 1.86 1.965-.081.116-1.926 1.83-1.948 1.811-.014-.011-1.086-.995-2.382-2.185l-2.357-2.165 1.16-1.026 1.16-1.026.307.353z" fill="#99f"/></g></g></svg>