<?xml version="1.0" encoding="iso-8859-1"?>
<!-- Generator: Adobe Illustrator 19.0.0, SVG Export Plug-In . SVG Version: 6.00 Build 0)  -->
<svg version="1.1" id="Layer_1" xmlns="http://www.w3.org/2000/svg" xmlns:xlink="http://www.w3.org/1999/xlink" x="0px" y="0px"
	 viewBox="0 0 496.801 496.801" style="enable-background:new 0 0 496.801 496.801;" xml:space="preserve">
<path style="fill:#294C22;" d="M248.403,0.648C111.392,0.648,0.321,111.708,0.321,248.73c0,137.001,111.07,248.07,248.082,248.07
	c137.006,0,248.076-111.069,248.076-248.07C496.48,111.707,385.41,0.648,248.403,0.648z"/>
<path style="fill:#3A682E;" d="M496.464,249.984c0.002-0.419,0.016-0.834,0.016-1.254c0-0.257-0.009-0.512-0.01-0.769h-14.612
	v-44.477h10.493c-0.125-0.676-0.258-1.349-0.388-2.022h-10.105v-36.81c-0.646-1.794-1.313-3.577-2-5.351v42.161h-44.5v-44.489
	h43.593c-0.268-0.669-0.545-1.333-0.817-2h-42.775v-44.5h19.052c-0.451-0.671-0.913-1.333-1.371-2h-17.681V85.667
	c-0.661-0.757-1.33-1.505-2-2.254v25.059h-44.5v-44.5h25.085c-0.748-0.67-1.498-1.338-2.254-2h-22.831V44.229
	c-0.667-0.459-1.328-0.925-2-1.378v19.121h-44.5V19.077c-0.667-0.273-1.331-0.55-2-0.817v43.713h-44.49v-44.5h42.494
	c-1.761-0.685-3.529-1.354-5.309-2h-37.186V5.203c-0.673-0.13-1.345-0.262-2.02-0.387v10.657h-44.48V0.66
	c-0.322-0.001-0.642-0.012-0.964-0.012c-0.354,0-0.703,0.012-1.056,0.013v14.812h-44.48V4.833c-0.675,0.125-1.347,0.256-2.02,0.387
	v10.252H163.75c-1.779,0.646-3.549,1.315-5.309,2h42.405v44.5h-44.49V18.296c-0.669,0.268-1.334,0.544-2,0.817v42.86h-44.5V42.909
	c-0.672,0.453-1.333,0.921-2,1.38v17.683H85.114c-0.756,0.662-1.506,1.33-2.254,2h24.998v44.5h-44.5V83.511
	c-0.669,0.749-1.34,1.497-2,2.254v22.708H43.763c-0.457,0.667-0.92,1.329-1.371,2h18.966v44.5H18.669
	c-0.272,0.667-0.55,1.331-0.817,2h43.507v44.489h-44.5v-41.935c-0.687,1.78-1.354,3.569-2,5.369v36.565H4.839
	c-0.13,0.674-0.263,1.347-0.388,2.022h10.407v44.478H0.332c-0.001,0.257-0.01,0.512-0.01,0.769c0,0.419,0.014,0.835,0.016,1.254
	h14.521v44.478H4.546c0.126,0.675,0.256,1.349,0.388,2.022h9.925v36.07c0.646,1.799,1.313,3.588,2,5.368v-41.438h44.5v44.478h-43.31
	c0.271,0.676,0.55,1.349,0.826,2.022h42.482v44.478H42.714c0.46,0.68,0.936,1.347,1.402,2.022h17.241v22.197
	c0.66,0.757,1.331,1.505,2,2.254v-24.451h44.5v44.489H83.423c0.749,0.668,1.495,1.341,2.254,2h22.181v17.184
	c0.667,0.459,1.328,0.927,2,1.38v-18.564h44.5v42.361c0.666,0.273,1.331,0.55,2,0.817v-43.179h44.49v44.5h-41.095
	c1.794,0.687,3.598,1.354,5.412,2h35.683v9.755c0.673,0.13,1.345,0.262,2.02,0.387v-10.142h44.48v14.314
	c0.353,0.001,0.702,0.013,1.056,0.013c0.322,0,0.642-0.011,0.964-0.012v-14.315h44.48v10.16c0.675-0.125,1.347-0.257,2.02-0.387
	v-9.772h35.771c1.814-0.646,3.618-1.313,5.412-2h-41.184v-44.5h44.49v43.215c0.669-0.267,1.333-0.544,2-0.817v-42.397h44.5v18.622
	c0.672-0.453,1.333-0.919,2-1.378v-17.244h22.269c0.758-0.659,1.504-1.332,2.254-2h-24.522v-44.49h44.5v24.548
	c0.67-0.749,1.339-1.497,2-2.254v-22.294h17.327c0.467-0.675,0.943-1.343,1.402-2.022h-18.729v-44.478h42.568
	c0.276-0.673,0.556-1.346,0.826-2.022h-43.395v-44.478h44.5v41.665c0.687-1.774,1.354-3.557,2-5.351v-36.314h10.011
	c0.132-0.673,0.262-1.347,0.388-2.022h-10.398v-44.478H496.464z M61.358,294.461h-44.5v-44.477h44.5V294.461z M61.358,247.961h-44.5
	v-44.477h44.5V247.961z M107.858,387.461h-44.5v-44.477h44.5V387.461z M107.858,340.961h-44.5v-44.477h44.5V340.961z
	 M107.858,294.461h-44.5v-44.477h44.5V294.461z M107.858,247.961h-44.5v-44.477h44.5V247.961z M107.858,201.461h-44.5v-44.489h44.5
	V201.461z M107.858,154.973h-44.5v-44.5h44.5V154.973z M154.357,433.973h-44.5v-44.489h44.5V433.973z M154.357,387.461h-44.5
	v-44.477h44.5V387.461z M154.357,340.961h-44.5v-44.477h44.5V340.961z M154.357,294.461h-44.5v-44.477h44.5V294.461z
	 M154.357,247.961h-44.5v-44.477h44.5V247.961z M154.357,201.461h-44.5v-44.489h44.5V201.461z M154.357,154.973h-44.5v-44.5h44.5
	V154.973z M154.357,108.473h-44.5v-44.5h44.5V108.473z M200.848,433.973h-44.49v-44.489h44.49V433.973z M200.848,387.461h-44.49
	v-44.477h44.49V387.461z M200.848,340.961h-44.49v-44.477h44.49V340.961z M200.848,294.461h-44.49v-44.477h44.49V294.461z
	 M200.848,247.961h-44.49v-44.477h44.49V247.961z M200.848,201.461h-44.49v-44.489h44.49V201.461z M200.848,154.973h-44.49v-44.5
	h44.49V154.973z M200.848,108.473h-44.49v-44.5h44.49V108.473z M247.348,480.473h-44.48v-44.5h44.48V480.473z M247.348,433.973
	h-44.48v-44.489h44.48V433.973z M247.348,387.461h-44.48v-44.477h44.48V387.461z M247.348,340.961h-44.48v-44.477h44.48V340.961z
	 M247.348,294.461h-44.48v-44.477h44.48V294.461z M247.348,247.961h-44.48v-44.477h44.48V247.961z M247.348,201.461h-44.48v-44.489
	h44.48V201.461z M247.348,154.973h-44.48v-44.5h44.48V154.973z M247.348,108.473h-44.48v-44.5h44.48V108.473z M247.348,61.973
	h-44.48v-44.5h44.48V61.973z M293.848,480.473h-44.48v-44.5h44.48V480.473z M293.848,433.973h-44.48v-44.489h44.48V433.973z
	 M293.848,387.461h-44.48v-44.477h44.48V387.461z M293.848,340.961h-44.48v-44.477h44.48V340.961z M293.848,294.461h-44.48v-44.477
	h44.48V294.461z M293.848,247.961h-44.48v-44.477h44.48V247.961z M293.848,201.461h-44.48v-44.489h44.48V201.461z M293.848,154.973
	h-44.48v-44.5h44.48V154.973z M293.848,108.473h-44.48v-44.5h44.48V108.473z M293.848,61.973h-44.48v-44.5h44.48V61.973z
	 M340.358,433.973h-44.49v-44.489h44.49V433.973z M340.358,387.461h-44.49v-44.477h44.49V387.461z M340.358,340.961h-44.49v-44.477
	h44.49V340.961z M340.358,294.461h-44.49v-44.477h44.49V294.461z M340.358,247.961h-44.49v-44.477h44.49V247.961z M340.358,201.461
	h-44.49v-44.489h44.49V201.461z M340.358,154.973h-44.49v-44.5h44.49V154.973z M340.358,108.473h-44.49v-44.5h44.49V108.473z
	 M386.858,433.973h-44.5v-44.489h44.5V433.973z M386.858,387.461h-44.5v-44.477h44.5V387.461z M386.858,340.961h-44.5v-44.477h44.5
	V340.961z M386.858,294.461h-44.5v-44.477h44.5V294.461z M386.858,247.961h-44.5v-44.477h44.5V247.961z M386.858,201.461h-44.5
	v-44.489h44.5V201.461z M386.858,154.973h-44.5v-44.5h44.5V154.973z M386.858,108.473h-44.5v-44.5h44.5V108.473z M433.358,387.461
	h-44.5v-44.477h44.5V387.461z M433.358,340.961h-44.5v-44.477h44.5V340.961z M433.358,294.461h-44.5v-44.477h44.5V294.461z
	 M433.358,247.961h-44.5v-44.477h44.5V247.961z M433.358,201.461h-44.5v-44.489h44.5V201.461z M433.358,154.973h-44.5v-44.5h44.5
	V154.973z M479.858,294.461h-44.5v-44.477h44.5V294.461z M479.858,247.961h-44.5v-44.477h44.5V247.961z"/>
<g>
	<path style="fill:#294C22;" d="M227.891,250.224c0.737,10.153,8.855,18.272,19.01,19.009v-19.009H227.891z"/>
	<path style="fill:#294C22;" d="M227.891,247.224h19.01v-19.009C236.747,228.952,228.628,237.071,227.891,247.224z"/>
	<path style="fill:#294C22;" d="M249.9,250.224v19.009c10.154-0.737,18.272-8.856,19.01-19.009H249.9z"/>
	<path style="fill:#294C22;" d="M249.9,228.215v19.009h19.01C268.173,237.071,260.054,228.952,249.9,228.215z"/>
</g>
<path style="fill:#54C638;" d="M496.461,247.224h-42.5c-0.81-112.167-91.895-203.252-204.06-204.058v-42.5
	c-0.5-0.003-0.997-0.019-1.497-0.019c-0.502,0-1.001,0.016-1.503,0.019v42.5c-112.166,0.809-203.25,91.893-204.06,204.058h-42.5
	c-0.004,0.503-0.02,1.002-0.02,1.506c0,0.5,0.016,0.995,0.02,1.494h42.5c0.805,112.164,91.891,203.249,204.06,204.058v42.5
	c0.502,0.003,1.001,0.019,1.503,0.019c0.5,0,0.997-0.016,1.497-0.019v-42.5c112.169-0.806,203.255-91.892,204.06-204.058h42.5
	c0.004-0.499,0.02-0.995,0.02-1.494C496.48,248.226,496.464,247.727,496.461,247.224z M246.9,451.282
	c-110.515-0.809-200.255-90.548-201.06-201.058h47c0.802,84.595,69.461,153.252,154.06,154.058V451.282z M246.9,401.282
	c-82.944-0.805-150.258-68.117-151.06-151.058h44.998c0.798,58.129,47.93,105.261,106.062,106.061V401.282z M246.9,353.285
	c-56.478-0.8-102.265-46.585-103.062-103.061h40.516c0.79,34.143,28.401,61.754,62.546,62.545L246.9,353.285L246.9,353.285z
	 M246.9,309.769c-32.49-0.79-58.757-27.057-59.546-59.545h37.513c0.745,11.812,10.222,21.287,22.033,22.033V309.769z M246.9,269.233
	c-10.154-0.737-18.272-8.856-19.01-19.009h19.01V269.233z M246.9,247.224h-19.01c0.737-10.153,8.856-18.272,19.01-19.009V247.224z
	 M246.9,225.191c-11.812,0.746-21.287,10.221-22.033,22.033h-37.513c0.791-32.488,27.057-58.755,59.546-59.545V225.191z
	 M246.9,184.679c-34.144,0.791-61.754,28.402-62.546,62.545h-40.516c0.801-56.476,46.586-102.261,103.062-103.061L246.9,184.679
	L246.9,184.679z M246.9,141.163c-58.13,0.8-105.261,47.93-106.062,106.061H95.841c0.807-82.941,68.117-150.253,151.06-151.058
	V141.163z M246.9,93.166c-84.597,0.806-153.253,69.462-154.06,154.058h-47c0.81-110.511,90.548-200.249,201.06-201.058V93.166z
	 M249.9,96.166c82.94,0.803,150.253,68.116,151.06,151.058h-44.998c-0.801-58.131-47.932-105.262-106.062-106.061V96.166z
	 M249.9,144.163c56.476,0.799,102.261,46.584,103.062,103.061h-40.516c-0.792-34.143-28.402-61.755-62.546-62.545L249.9,144.163
	L249.9,144.163z M249.9,187.679c32.489,0.789,58.755,27.056,59.546,59.545h-37.513c-0.746-11.812-10.222-21.287-22.033-22.033
	V187.679z M249.9,228.215c10.153,0.737,18.272,8.856,19.01,19.009H249.9V228.215z M249.9,250.224h19.01
	c-0.737,10.153-8.855,18.272-19.01,19.009V250.224z M249.9,272.257c11.812-0.746,21.288-10.221,22.033-22.033h37.513
	c-0.788,32.489-27.056,58.756-59.546,59.545V272.257z M249.9,312.769c34.145-0.79,61.756-28.402,62.546-62.545h40.516
	C352.165,306.7,306.378,352.486,249.9,353.285V312.769z M249.9,356.285c58.132-0.799,105.264-47.93,106.062-106.061h44.998
	c-0.802,82.942-68.116,150.255-151.06,151.058V356.285z M249.9,451.282v-47c84.598-0.804,153.258-69.462,154.06-154.058h47
	C450.156,360.736,360.416,450.476,249.9,451.282z M403.961,247.224C403.154,162.627,334.496,93.97,249.9,93.166v-47
	c110.511,0.806,200.25,90.545,201.06,201.058H403.961z"/>
<path style="fill:#6EED4A;" d="M327.773,13.651l-79.916,236.073l91.902-231.558C335.813,16.561,331.818,15.055,327.773,13.651z"/>
<g style="opacity:0.6;">
	<path style="fill:#6EED4A;" d="M247.856,0v249.724l79.916-236.073C302.715,4.954,275.837,0.161,247.856,0z"/>
</g>
<g>
	<circle style="fill:#6EED4A;" cx="103.361" cy="298.224" r="13"/>
	<circle style="fill:#6EED4A;" cx="374.361" cy="338.224" r="13"/>
</g>
<g>
</g>
<g>
</g>
<g>
</g>
<g>
</g>
<g>
</g>
<g>
</g>
<g>
</g>
<g>
</g>
<g>
</g>
<g>
</g>
<g>
</g>
<g>
</g>
<g>
</g>
<g>
</g>
<g>
</g>
</svg>
