<svg xmlns="http://www.w3.org/2000/svg" xml:space="preserve" width="18mm" height="18mm" shape-rendering="geometricPrecision" text-rendering="geometricPrecision" image-rendering="optimizeQuality" fill-rule="evenodd" clip-rule="evenodd" viewBox="0 0 1800 1800">
    <path fill="none" d="M0 0h1800v1800H0z"/>
    <path fill="#67ADE1" d="M795 615c-1 5-2 12-3 17-2 7-1 7-9 10l-1 22h19l1-3s-1 2-1-4c1-19 65-64 96-62 50 1 88 1 131 37 3 3 4 3 7 6 6 5 24 23 27 32 25 34 30 84 21 129-6 31-29 89-45 111l-1 4c-3 10-3 38 0 49 14-14 22-33 31-49l4-4 13-25c4-15 12-32 18-48 4-15 9-34 11-50 6-50-3-66-13-109l-5-12c-7-5-13-20-20-26l-7-12c-9-4-21-24-58-41-49-23-107-31-158-10-42 17-42 27-58 38z"/>
    <path fill="#5A8FBB" d="M802 661c8-5 5-7 13-8 7-13 25-12 35-21 48-8 91-11 133 26 34 30 51 74 42 121 6 13 9 19 11 35 1 10-2 13 2 24 8-14 16-53 18-72 1-24-3-60-14-78-4-13-17-29-24-37-16-20-50-39-73-46-9-3-45-8-48-10-31-2-95 43-96 62 0 6 1 4 1 4z"/>
    <path fill="#606368" d="M1034 1019c5 7 2 51 2 66v6c-1 10 1 5-5 6h-57v137c39 1 68 8 70-25 1-30 0-64 0-94 0-15 1-13-3-17l-5-3c2-17-4-67 4-81-6-2 7-1-5 0l-1 5z"/>
    <path fill="#818F90" d="m754 1234 1-137h-67c-6 3-3 17-3 24v80c-1 18 1 30 19 33 14 2 35 0 50 0zm197 0-1-137h-70c10 135-30 140 71 137z"/>
    <path fill="#FFD50D" d="M751 712c-15 14 5 24-29 49-35 25-29 54-30 93h-1l70-1c9-2 6 1 5-6v-3c-1-15-2-119 1-130l-5-4-11 2z"/>
    <path fill="#FCD60D" d="M946 714c-8 6-4 9-6 19-1 5-6 14-8 17-4 5-9 7-15 11l-12 11c-18 22-16 49-17 83v-1l75-1c-3-12-3-131 0-142l-12 1-5 2z"/>
    <path fill="#CCCBC9" d="M732 665v23h19v24l11-2c12 1 12 0 21 3l-1-25h153l1-24H782l1-22c-11-1-22-2-32 1l1 21-20 1z"/>
    <path fill="#FCD60D" d="M692 1093v4h86l-11-3c0-1-1 0-2-1 1-7-1-2 3-10-2-3-1 1-2-4-1-4 0 1 0-3l1-54h-75v71z"/>
    <path fill="#FFB81E" d="M768 1083c-4 8-2 3-3 10 1 1 2 0 2 1l11 3 62 1v-62l1-17H692v3h75l-1 54c0 4-1-1 0 3 1 5 0 1 2 4z"/>
    <path fill="#FCD60D" d="M692 970c9 3 63 2 75 0-1-6-3-61 1-67 11-4 47-1 61-1v-2c-34 0-110-4-138 1l1 69z"/>
    <path fill="#606368" d="M762 973v46h81l1-46h-4zm274-124-1 5h-76l-1 46h77l1 6v8h1l1-4c-2-12 1-6 2-19 1-18-2-37-2-53-4-11-1-14-2-24v35z"/>
    <path fill="#5C6565" d="m1036 920-1 50c-3 3 2 4-18 3h-59c2 11 2 35-1 46h77l1-5c12-1-1-2 5 0-2-15 2-24-2-39-1-4-2-4-1-12-3-11-3-39 0-49h-1v6z"/>
    <path fill="#606368" d="M839 899c8-4 3 2 4-8v-12c0-9 1-16 0-25h-81l1 46 76-1z"/>
    <path fill="#818F90" d="M888 900h147-77l1-46h-71v1l-4-1c1 9 1 17 1 27 0 3-1 9 0 12 0 8-2 3 3 7z"/>
    <path fill="#7E8F92" d="M692 1019h70v-46h-70l-4 11c0 8-1 29 4 35z"/>
    <path fill="#818F90" d="m884 974 1 45h-21 24l2 1c10-5 52-1 67-1 3-11 3-35 1-46-15 0-58 3-68-1l-2 1-4 1zm-193-73c28-5 104-1 138-1h11v7-8h-1l-76 1-1-46h-71 1c-6 6-4 28-4 37 1 8-1 4 3 10z"/>
    <path fill="#FFB81E" d="M766 844c13 4 3 2 7-1v-61c4 3 2 54 2 63 12 0 22 3 28-4l-1-15c-3-23 6 0-5-26l5-3c-6-6-8-9-13-14s-10-7-11-18l-7 2c3-7-2-45 4-48v33c8-4 2 0 7-6l3-4c1 9 5 7-4 8 7 6-4 5 14 2-1 0-1 1-2 1l-8 8c2 0 11-1 12-1l4 3c8-12-2 1 0-8-4-5-9-9-11-17-4-12 0-15-7-25-9-3-9-2-21-3l5 4c-3 11-2 115-1 130z"/>
    <path fill="#D4D3D1" d="M951 1234h23v-137h-24zm-197 0h24c0-22-4-123 1-135l-1-2h-23l-1 137z"/>
    <path fill="#FCD50A" d="m888 973 2-1 72-2-1-67c13-2 27-1 40-1 24 0 26-4 35 4l-1-6H888v73z"/>
    <path fill="#FCBA1E" d="M961 1083v6c2 10 1 3 3 7 10 0 63-2 67 1 6-1 4 4 5-6v-6c0-15 3-59-2-66h-77c-15 0-57-4-67 1 18 4 52 0 72 2l-1 61zm-73-229h147l1-5v-35c-2-16-5-22-11-35l-1 1c-5-10-20-23-28-26l-1-1c-21-35-5-29-17-41-8-2-20-3-27 0l12-1c-3 11-3 130 0 142l-75 1zm130-32c1 8 2 25-9 18-13-9 12-20-24-58l-10-11-1-4c9-7 14 2 20 7 2 2 2 3 4 4 5 6 9 11 14 20 4 8 5 15 6 24zm-250 81c-4 6-2 61-1 67-12 2-66 3-75 0v3h148v-73h-11v2c-14 0-50-3-61 1z"/>
    <path fill="#828383" d="M732 688v-37c-13-1-38-3-43 5-3 9-4 28 0 36 7 9 30 7 44 6l-1-10z"/>
    <path fill="#FBB91E" d="M813 789c3 10 6 17 8 29s5 22-8 23l4 3h1l-52 3c1 7 4 4-5 6l-70 1h149l-1-45c-1-6-6-27-12-30-8-2-3-3-10 3l-4 7z"/>
    <path fill="#FFD50D" d="M888 1089v8h143c-4-3-57-1-67-1-2-4-1 3-3-7v-6l1-61c-20-2-54 2-72-2l-2-1v70z"/>
    <path fill="#858584" d="M769 605v27c-9-1-7-3-7-14 0-20 1-13 7-13zm8 27c-4-6-3-7-1-15 2-17 1-12 7-12 2 3 4 25-6 27zm-28-27c7 0 6 0 7 10 1 7 2 11 1 18-9-2-7-1-9-12-1-7-3-11 1-16zm-10 19c3 14 1 12 12 19 10-3 21-2 32-1 8-3 7-3 9-10 1-5 2-12 3-17 0-19-3-21-22-21-16 0-26-2-35 7l1 23z"/>
    <path fill="#828383" d="m936 664-1 24c5 7 2-1 11 6v20l5-2c7-3 19-2 27 0 0-48 9-51-38-51-5 0-3-1-4 3z"/>
    <path fill="#494D52" d="M871 870c3 12-4 22-14 13-8-8 0-17 14-13zm-32 29h1l48 1c-5-4-3 1-3-7-1-3 0-9 0-12 0-10 0-18-1-27h-41c1 9 0 16 0 25v12c-1 10 4 4-4 8z"/>
    <path fill="#5A8FBB" d="M840 1036v37c6-3 20-15 25-19 5-3 8-6 12-10 5-5 5-5 11-8v-17h-24l-4 2c-3 2-6 5-9 7-1 2-4 4-5 5-5 4 0 1-6 3z"/>
    <path fill="#FDBC1B" d="m1035 970 1-50v-14c-9-8-11-4-35-4-13 0-27-1-40 1l1 67-72 2c10 4 53 1 68 1h59c20 1 15 0 18-3z"/>
    <path fill="#4C5255" d="M857 1004c-2-8-2-8 0-16l10-1 7 9-8 9-9-1zm9 15h19l-1-45-10-1h-30l-1 46h13c6 1 2 0 4 2l4-2h2z"/>
    <path fill="#FCFAFC" d="m974 767 1 4 10 11c36 38 11 49 24 58 11 7 10-10 9-18-1-9-2-16-6-24-2-6-12-18-18-24-6-5-11-14-20-7zm-196-2c1 11 6 13 11 18s7 8 13 14c3 7 5 11 7 20 0 4 0 9 1 13 1 8-1 6 3 11 13-1 10-11 8-23s-5-19-8-29c-5-2-13-12-17-15-6-7-7-12-18-9z"/>
    <path fill="#5A6363" d="M844 1098h-4l-62-1 1 2c-5 12-1 113-1 135 36-2 69 13 69-31v-102c-1-4 2-2-3-3z"/>
    <path fill="#F7BC1A" d="m797 765 6 2h2c8-2-5-2 3-1 8 2-2-3 4 3s0 2 8 6c-6 4-6 5-12 7-5-14-1-6-10-15 0 0 0-1-1-2zm-19 0c11-3 12 2 18 9 4 3 12 13 17 15l4-7c7-6 2-5 10-3-6-11-13-17-26-24-2 9 8-4 0 8l-4-3c-1 0-10 1-12 1l8-8c1 0 1-1 2-1-18 3-7 4-14-2 9-1 5 1 4-8l-3 4c-5 6 1 2-7 6v-33c-6 3-1 41-4 48l7-2z"/>
    <path fill="#FBB614" d="M766 844v3l52-3h-1l-4-3c-4-5-2-3-3-11-1-4-1-9-1-13-2-9-4-13-7-20l-5 3c11 26 2 3 5 26l1 15c-6 7-16 4-28 4 0-9 2-60-2-63v61c-4 3 6 5-7 1z"/>
    <path fill="#555656" d="M756 615c-1-10 0-10-7-10-4 5-2 9-1 16 2 11 0 10 9 12 1-7 0-11-1-18zm21 17c10-2 8-24 6-27-6 0-5-5-7 12-2 8-3 9 1 15zm-8-27c-6 0-7-7-7 13 0 11-2 13 7 14v-27z"/>
    <path fill="#FDB524" d="M805 767h-2l-6-2c1 1 1 2 1 2 9 9 5 1 10 15 6-2 6-3 12-7-8-4-2 0-8-6s4-1-4-3c-8-1 5-1-3 1z"/>
</svg>
