<svg xmlns="http://www.w3.org/2000/svg" xml:space="preserve" width="18mm" height="18mm" shape-rendering="geometricPrecision" text-rendering="geometricPrecision" image-rendering="optimizeQuality" fill-rule="evenodd" clip-rule="evenodd" viewBox="0 0 1800 1800">
    <path fill="none" d="M0 0h1800v1800H0z"/>
    <path d="M1112 866c-3-4 0-2-9-2-52-1-140 18-176 5l-45-19c-11 28-22 57-33 85-11 31-6 26-28 32-47 12-86 28-127 51-25 14-46 30-70 47l149-517-12-3c-5 9-136 464-151 514-11 38-6 25-36 62 18 5 37 10 55 18 29 11 23 8 48 27l-129 35c38 4 160 16 189 7l85-122c11-4 66-8 82-10 85-11 141-30 216-69 47-24 81-47 108-82l16-141c-3 27-3 39-15 61-8 13-27 30-39 38l-118 36c2-12 30-41 40-53z"/>
    <path d="M766 1215c126 1 238-11 337-73 44-28 72-45 99-87l50-134c-18 18-12 19-46 51-26 25-87 57-122 72-51 21-93 37-150 46-27 3-62 4-87 9-10 2-8 4-10 14-7 39-17 52-44 80-7 8-20 14-27 22zm455-414c1-1 2-2 2-1l2-2 2-2c-4-77-50-88-117-114l-169-65c3 14 48 62 51 68l12 82c33-1 208-44 217 34zm-69 373-3-3c-15 0-32 3-47 5-58 6-30 7-84 25-24 8-15 3-41 15 18 11 17 15 45 28 32 16 25 16 46-4 18-17 60-57 84-66z"/>
    <path fill="#fff" d="M656 1067c-22 12-5 45 19 34 22-10 6-48-19-34z"/>
    <path fill="#707070" d="m1152 1174 4-3c-1-1 4-7-7 0l3 3z"/>
    <path fill="#8F8F8F" d="m1112 866 4-5-13 3c9 0 6-2 9 2z"/>
    <path fill="#656565" d="m1221 801 3 5 3-10-2 2-2 2c0-1-1 0-2 1z"/>
</svg>
