<svg xmlns="http://www.w3.org/2000/svg" xml:space="preserve" width="18mm" height="18mm" shape-rendering="geometricPrecision" text-rendering="geometricPrecision" image-rendering="optimizeQuality" fill-rule="evenodd" clip-rule="evenodd" viewBox="0 0 1800 1800">
    <path fill="none" d="M0 0h1800v1800H0z"/>
    <path d="M772 876c-88 0-139-81-111-157h222c28 76-23 157-111 157zm-4-173-107 1c-6-1-15-7-18-13l-13-30c-3-8-1-18 8-22l69-28c9-3 20-5 31-5h59c11 0 22 2 32 5l69 28c9 4 11 14 7 22l-13 30c-3 6-11 12-18 13l-106-1z"/>
    <path fill="#fff" d="m768 619 9 27h32l-26 17 10 27-25-16-26 16 10-27-25-17h31z"/>
    <path d="M997 1098V938h199c20 0 36 16 36 36v88c0 19-16 36-36 36H997z"/>
    <path fill="#fff" d="M1155 982c20 0 36 16 36 36s-16 36-36 36-36-16-36-36 16-36 36-36zm-158 23h81c5 0 9-5 9-9 0-5-4-9-9-9h-82l1 18zm0 44h81c5 0 9-4 9-9s-4-9-9-9h-82l1 18z"/>
    <path d="M1129 1107h64v54c0 18-15 32-32 32-18 0-32-14-32-32v-54zm-90-357c-22 0-36 22-36 42h72c0-20-15-42-36-42zm-103 56c-24 0-44 20-43 49h26c0-14 6-26 23-26h192c12 0 22 9 24 20l12 82h25l-13-90c-3-18-20-35-44-35H936zm169-80 12-12c-21-21-49-33-78-33-30 0-58 12-79 33l12 12c18-18 42-28 67-28s48 10 66 28z"/>
    <path d="m1081 750 12-12c-14-15-34-23-54-23-21 0-40 8-55 23l12 12c12-12 27-18 43-18s31 6 42 18z"/>
    <rect x="568" y="883" width="401" height="311" rx="55" ry="55"/>
    <path fill="#fff" d="M965 1157c-5 16-18 29-35 34L571 920c5-16 18-29 35-34l359 271z"/>
</svg>
