<svg xmlns="http://www.w3.org/2000/svg" xml:space="preserve" width="18mm" height="18mm" shape-rendering="geometricPrecision" text-rendering="geometricPrecision" image-rendering="optimizeQuality" fill-rule="evenodd" clip-rule="evenodd" viewBox="0 0 1800 1800">
    <path fill="none" d="M0 0h1800v1800H0z"/>
    <path d="M517 955c10-3 5-3 22-7 3 0 6-1 8-2l-3-45-33 15 6 39zm839-4v95l-417-1c-3-4-5-5-9-8-5-6-18-14-19-16-2-2-14-67-15-72h260v-16h-75c-1-2-4-5-5-7h-44c-12 0-13 2-18-4-16-16-37-37-52-54l-43-43c-3-4-6-8-10-12-3-3-7-6-11-10-3-4-6-7-10-11-2-3-8-8-10-11 2-3 3-5 5-8l-34-41c-26-31-11-18-44-31-15-5-26-13-38-12-30 1-61 5-91 8-15 2-31 3-46 5-10 1-39 2-46 4v39c2 4 19 16 21 17 0 4-1 9-1 12-2 7-17 14-19 20l-5 46c-4 30-7 60-11 91 0 6-4 17-1 22l35 48 9 10c6 5 7 6 15 10 6 4 12 10 14 11 6 3 13 3 19 6l1 30c3 2 11 5 15 7 8 4 11 3 11 13-9-1-20-2-30-2-7-1-7 0-12-4-3-3-5-5-10-5l-89 5c-11 0-30 2-39-7l-6-6c-6-7-11-20-13-21-2-6-1-29-1-37 0-7 2-11 2-17 1-15 2-14 12-26 13-16 0-13 0-47l-7 2c-2-3-3-5-5-8l11-6 4-62-10-2 2-106c1-12 0-24 1-36 2-19 10-72 25-84 11-7 9-8 25-11 3 3 4 7 7 10l84-3v-10c36 0 72 1 108 1 13 0 68-1 79 2 12 4 9 3 17 10l26 28c8 10 25 27 33 35 8 10 23 25 32 35l11 13h2c2 5 34 38 40 44l47 52 9 9c5 6 17 34 23 44l7 1v-51c0-9 0-7 8-17l45-56c2-3 4-4 4-9 1-3 2-8 2-11 5-2 62-1 72-1v18h13v72c0 14-1 12 6 13l80 10c33 4 28-1 41 12 5 5 4 6 4 15v57c-27 2-56 1-84 1v19h93zM533 725c-3-2-7-4-11-6 0 16-2 122-4 127l-8-1-1 59 35-17-11-162zm358 42 8-4 45 51c2 2 3 3 4 5 2 3 5 5 7 8l57 63c2-2 14-39 15-45l-21-18c-4-3-7-6-11-9l-5-5-17-14c-20-18-43-37-64-56l-22-18c-4-4-4-6-12-7-9-2-28-6-35-6l38 41c2 3 3 4 6 7s4 5 7 7zM636 628c-24 0-54-1-77-1 2 8 25 42 25 48 17-1 35-5 52-7 13-2 124-17 128-19 0-1 10-15 11-17l-137 4-2-8z"/>
    <path fill="#0C85CA" fill-opacity=".502" d="M1356 995H444v200h912z"/>
</svg>
