<svg xmlns="http://www.w3.org/2000/svg" xml:space="preserve" width="18mm" height="18mm" shape-rendering="geometricPrecision" text-rendering="geometricPrecision" image-rendering="optimizeQuality" fill-rule="evenodd" clip-rule="evenodd" viewBox="0 0 1800 1800">
    <path fill="none" d="M0 0h1800v1800H0z"/>
    <path fill="#030303" d="M613 1020v4c36 2 220-31 237-85 18-57-11-12 29-67l-13-24c-31 12-99 66-129 87-40 27-82 62-124 85z"/>
    <path fill="#020202" d="m884 835 22-7c-9-101-15-194-30-295-1 1-3 2-3 4l-15 28c-17 48-57 173-26 211 10 12 20 17 29 27 15 19 4 19 23 32z"/>
    <path fill="#030303" d="m1184 1004 3-2c-16-32-136-175-192-163-58 13-4 16-72 9l-14 23c25 20 106 53 139 69 44 21 95 40 136 64z"/>
    <path stroke="#000" stroke-width="20" d="M890 820c20-2 39 13 41 34 1 21-14 39-35 41s-39-13-41-34 14-39 35-41z"/>
    <path stroke="#000" stroke-width="20" d="M877 890h33l14 377h-62z"/>
</svg>
