<svg xmlns="http://www.w3.org/2000/svg" xml:space="preserve" width="18mm" height="18mm" shape-rendering="geometricPrecision" text-rendering="geometricPrecision" image-rendering="optimizeQuality" fill-rule="evenodd" clip-rule="evenodd" viewBox="0 0 1800 1800">
    <path d="M482 741h253v162H482z"/>
    <path fill="#fff" d="M512 779h40v26h-40zm70 0h41v26h-41zm71 0h41v26h-41zm-141 71h40v25h-40zm70 0h41v25h-41zm71 0h41v25h-41z"/>
    <path d="M482 901h677v125H482z"/>
    <path d="M553 1011h134v259H553zm401 0h134v259H954z"/>
    <path fill-rule="nonzero" d="m753 907 56-377 20 1-56 377-20-1zm112 1-56-377 20-1 56 377-20 1zm-105-3 99-45-84-58-3-2 4-3 68-41-56-51-2-2 2-2 48-41 8 5-45 38 56 51 3 3-3 2-68 41 84 58 5 3-6 2-104 48-6-6zm112 6-105-48-5-2 5-3 84-58-68-41-4-2 3-3 57-51-45-38 8-5 48 41 2 2-2 2-56 51 68 41 4 3-4 2-83 58 99 45-6 6z"/>
    <path d="M1030 796c18 0 32 14 32 32v100c0 17-14 31-32 31-17 0-31-14-31-31V828c0-18 14-32 31-32z"/>
    <path fill-rule="nonzero" d="m1015 798 301-213 2 3-301 213-2-3zm46 44 254-256 3 2-255 256-2-2zm-5-70v47h-3v-47h3zm-1-2 77 1v3h-77v-4zm28-20 69 1v3h-69v-4zm2 2v71h-4v-71h4zm-30 54h42v4l-42-1v-3zm57-73v60h-3v-60h3zm30-22v53h-3v-53h3zm30-21v44h-4v-44h4zm25-17v36h-3v-36h3zm30-22v27h-3v-27h3zm-116 80h60v4l-61-1 1-3zm29-21h52v4l-52-1v-3zm30-21h43v4l-43-1v-3zm25-18h36v4l-36-1v-3zm31-22 27 1v3h-27v-4zm28-17v20h-3v-20h3z"/>
    <path fill="none" d="M0 0h1800v1800H0z"/>
</svg>
