<svg xmlns="http://www.w3.org/2000/svg" xml:space="preserve" width="18mm" height="18mm" shape-rendering="geometricPrecision" text-rendering="geometricPrecision" image-rendering="optimizeQuality" fill-rule="evenodd" clip-rule="evenodd" viewBox="0 0 1800 1800">
    <path fill="none" d="M0 0h1800v1800H0z"/>
    <path d="M613 832c33-6 39 44 10 49-27 4-39-23-26-40 6-7 7-7 16-9zm211 44c0-38-14-69-20-104-5-38-2-79 25-92l2 5c1 2 2 5 2 7 9 32 18 30 23 54 7 35 23 98 23 129 0 98-33 107-29 154-7-3-16-16-21-22-23-27-14-29-9-67 4-30 4-35 4-64zm-125-6c0-19-5-40-5-60s-2-44 0-63c4-33 3-26 25-40 11-7 29-19 45-19-7 10-27 22-28 63 0 45 3 31 5 62 3 38-4 99-16 130-5 14-13 27-7 44 6 16 15 24 22 36-13-4-49-27-49-51 0-30 8-63 8-102zm321-63c-7 6-24 11-36 12-53 5-43-38-105-82-14-10-37-38-37-57 0-13 13-17 23-22 46-25 149-60 202-79 11-4 23-8 35-12l32-12c-16 1-170 45-188 51-68 20-157 51-216 83l-40 21c-24 14-49 34-66 54-20 22-35 41-51 69-6 12-21 15-34 26-6 5-9 15-2 22 5 6 15 5 19 11-9 0-17-1-24 1l-2 11c6 5 18 11 26 17 23 16 33 35 46 40 34 13 58-35 63-63 6-31-4-49-11-73 14 17 25 63 16 90-10 28-26 49-53 60 11 14 47 29 70 33 30 6 49 18 71 31 103 62 167 95 289 121 37 8 83 20 119 32 15 5 26 10 39 14-5-6-24-14-32-17-59-28-124-46-182-68-32-12-104-50-118-81-17-37 45-103 68-126 10-10 11-17 30-20 18-4 29 2 43 5 0-36 0-59 6-92z"/>
    <path d="M1028 807c0 24-16 82 1 100 19 20 33 37 58 53 34 23 42 17 90 22 17 2 31 4 48 7 17 4 30 9 45 13-2-3 0-1-4-4-5-4-25-13-31-15-13-5-28-10-43-11-16-4-21-5-31-16-21-24-11-57-11-72 1-18-6-21-15-29 9-3 14-10 15-22 1-13-14-59 18-83 19-15 80-17 102-41-10 2-34 11-70 17l-76 7c-27 7-76 43-93 69-2 3 0 2-3 5z"/>
    <path fill="#FEFEFE" d="M824 876c0 29 0 34-4 64-5 38-14 40 9 67 5 6 14 19 21 22-4-47 29-56 29-154 0-31-16-94-23-129-5-24-14-22-23-54 0-2-1-5-2-7l-2-5c-27 13-30 54-25 92 6 35 20 66 20 104zm-125-6c0 39-8 72-8 102 0 24 36 47 49 51-7-12-16-20-22-36-6-17 2-30 7-44 12-31 19-92 16-130-2-31-5-17-5-62 1-41 21-53 28-63-16 0-34 12-45 19-22 14-21 7-25 40-2 19 0 43 0 63s5 41 5 60z"/>
    <path d="m1006 1115-2-2c-1-1-1-1-2-3-10-10-16-11-28-30-52-79 17-148-3-176-15 2-42 38-54 51-11 13-37 48-37 70 1 15 13 25 22 33 22 19 78 53 104 57zM853 677c1 33 41 55 54 68 35 34 36 59 61 62-6-49-49-107 8-174 6-7 11-10 16-16-7 1-28 9-36 12-12 5-23 10-35 15-26 10-47 19-68 33zm42 568c-2-4-24-20-29-25-28-23-52-55-83-82-31-28-61-42-84-80-4-8-15-28-16-39-7-2-12-3-18-5-7-2-11-5-18-7 13 35 19 49 43 78 19 24 40 38 66 56 24 17 46 34 68 53 13 11 55 47 71 51z"/>
    <path fill="#FEFEFE" d="M615 845c15-4 19 19 6 23-17 4-24-18-6-23zm-2-13c-9 2-10 2-16 9-13 17-1 44 26 40 29-5 23-55-10-49z"/>
    <path d="M615 845c-18 5-11 27 6 23 13-4 9-27-6-23z"/>
</svg>
