<svg xmlns="http://www.w3.org/2000/svg" xml:space="preserve" width="18mm" height="18mm" shape-rendering="geometricPrecision" text-rendering="geometricPrecision" image-rendering="optimizeQuality" fill-rule="evenodd" clip-rule="evenodd" viewBox="0 0 1800 1800">
    <path fill="none" d="M0 0h1800v1800H0z"/>
    <path d="M481 775c41 23 82 47 124 70 242-102 527-152 711 16-30 20-60 37-92 51v16c34 0 68 1 102 1 0 3-1 6-1 10-192 169-485 115-714 23-47 20-90 46-134 73-16 8-22-7-16-16 26-38 51-76 77-114-25-37-50-70-74-110-14-24 3-28 17-20zm681 40c12 0 23 12 23 27 0 14-11 26-23 26-13 0-23-12-23-26 0-15 10-27 23-27z"/>
    <rect fill="none" stroke="#000" stroke-width="20" stroke-dasharray="40.000000 60.000000" x="298" y="598" width="1205" height="605" rx="63" ry="75"/>
</svg>
