<svg xmlns="http://www.w3.org/2000/svg" xml:space="preserve" width="18mm" height="18mm" shape-rendering="geometricPrecision" text-rendering="geometricPrecision" image-rendering="optimizeQuality" fill-rule="evenodd" clip-rule="evenodd" viewBox="0 0 1800 1800">
    <path fill="none" d="M0 0h1800v1800H0z"/>
    <circle fill="none" stroke="red" stroke-width="50" cx="900" cy="900" r="295"/>
    <path fill="#050504" d="M723 1023c-1 35-5 83 59 83h142c40 0 30 3 57-15 8-5 38-25 40-31v-94l-226-1v98c-38 1-28 5-28-91 0-29-2-226 3-231 6-7 26-4 36-4 23 0 106-2 116 2 7 30-6 87 8 112 18 31 54 26 94 26v29l54-50c-4-7-6-7-12-13-10-9-35-34-42-38v28c-11 2-45 3-54-2-5-12-1-71-2-89-2-29-20-41-44-48-31-1-63 0-94 0-73 0-107-9-107 75v254z"/>
    <path fill="none" stroke="red" stroke-width="75" d="m691 691 418 418"/>
</svg>
