<svg xmlns="http://www.w3.org/2000/svg" xml:space="preserve" width="18mm" height="18mm" shape-rendering="geometricPrecision" text-rendering="geometricPrecision" image-rendering="optimizeQuality" fill-rule="evenodd" clip-rule="evenodd" viewBox="0 0 1800 1800">
    <path fill="none" d="M0 0h1800v1800H0z"/>
    <path d="M488 775c41 23 83 47 124 70 242-102 527-152 711 16-30 20-59 37-91 51v16c34 0 68 1 102 1-1 3-1 6-1 10-192 169-485 115-714 23-47 20-91 46-135 73-15 8-21-7-16-16 26-38 52-76 77-114-24-37-49-70-73-110-14-24 2-28 16-20zm681 40c13 0 23 12 23 27 0 14-10 26-23 26-12 0-22-12-22-26 0-15 10-27 22-27z"/>
</svg>
