<svg xmlns="http://www.w3.org/2000/svg" xml:space="preserve" width="18mm" height="18mm" shape-rendering="geometricPrecision" text-rendering="geometricPrecision" image-rendering="optimizeQuality" fill-rule="evenodd" clip-rule="evenodd" viewBox="0 0 1800 1800">
    <path fill="none" d="M0 0h1800v1800H0z"/>
    <path fill="#0C85CA" d="M900 830c3-25 27-38 52-56-28 4-71 4-84 46-16 51 32 45 31 89-5 53-120 49-132 104-16 65 130 82 112 129-12 60-149 92-330 124h399c153-40 236-103 16-187-24-12-77-26-78-71 0-32 71-58 70-90-2-38-63-46-56-88z"/>
    <path d="M865 801H397l239-267z"/>
    <path fill="#4D4D4D" d="M268 801h318L424 619zm1264 0h-469l240-267z"/>
    <path d="M935 801h420l-215-240z"/>
    <path fill="#4C2021" d="M587 1049c-11-1-5-3-13 3 0 18-3 9-2 24v21c-3 25 1 40-4 79h24c-1-26-8-90-2-114v-6c-2-8-1 4-3-7z"/>
    <path fill="#548B1B" d="M575 1035c-11 4-13 6-22 13-12 9-9 3-23 11 0 0-1 1-2 1 11 5 14 2 26 2 14 0 6-4 20-10 8-6 2-4 13-3 16 7 7-1 26 14l7 4c4 1 7-5 24-4 0 0-1-2-2-1 0 1-2-1-4-2l-23-12c-11-5-21-11-28-14l-12 1z"/>
    <path fill="#668716" d="m551 1008-31 12c12 12 20-4 33 4 15-1 18-6 33-5 12 0 16 4 28 7l-6-8c-9-10-11-9-21-11 2-8 5-3 1-10h-2c-5 5 7 4-7 4l-5-7c-1 0-5 1-6 1-16 8 2 14-17 13z"/>
    <path fill="#476A13" d="M548 967c-7 5-9 7-18 9v3l16 8c-9 10-14 6-23 13l7 3c1 0 2 1 2 1 1 0 1 1 2 1l12 1h3l2 2c19 1 1-5 17-13 1 0 5-1 6-1l-1-3 1-8c-12 0-8 2-13 3-15 1-4 3-13-7 7-1 11-1 18-3l-9-11-9 2z"/>
    <path fill="#5A941B" d="M574 929c-10-5-2-4 0-7l1 5c0-1 0 1-1 2zm-13 6c6 4-8 4 11 3l5 1c7-3 1-3 8 0l17 3c-10-10-3-3-11-17l6 3c1 0 2 0 3 1 0-1 1-3 1-2 1 0 2-2 2-2 0-1 2-3 3-4l-7-2-5 3c-4-6-9-9-17-10h-14c0-1-1 8-2-4 0-2-2-2-3-3l-1 8c17 0 8 1 12 3-7 4-16 10-22 20l21-7c-4 6 3 0-7 6z"/>
    <path fill="#394919" d="m553 1024-28 10c-5 2-3 2-6 4 37 1 41-6 56-13v10l12-1 1-5 15 10c15-3 7 0 23 0-5-6-2-2-4-8-8 2-8 1-19-2-2-1-9-3-11-4-8-4-2 0-6-6-15-1-18 4-33 5z"/>
    <path fill="#485A18" d="M586 988h1s1-1 2-1c0 0 2 1 3 1 4 1 4 2 8 3l11 10c1 0 1 1 2 2l-17-4c3 6 1 5 7 10 8 8 2 3 9 4l1-2s6 8 18-1c-9-2-8 0-13-7 6-2 11-5 19-4-10-7-25-17-40-18-13 3-5 1-11-2-26-12 9-1-8-4 1 10 0 8 8 13z"/>
    <path fill="#5A9826" d="M556 954c1 9 0 5 8 12 6 5 7 7 14 9 17 3-18-8 8 4 6 3-2 5 11 2h12c-4-8 2-3-8-6-3-2-1-1-4-4 0 0-2-2-2-3-9-3-6-2-10-7h-9c-15 0-6 3-13-3l9-5-5-2h-7l-3-1-1 4z"/>
    <path fill="#B8C49A" d="m548 967 9-2 9 11c-7 2-11 2-18 3 9 10-2 8 13 7 5-1 1-3 13-3l-1 8 7-3 6 6v-6c-8-5-7-3-8-13-7-2-8-4-14-9-8-7-7-3-8-12l-22 4 6 7c8 3 10-7 8 2z"/>
    <path fill="#4A7313" d="M589 950c8 4 7-5 7 4l-11-1-1 1 1 5 7 2c8 6 6 4 15 6v2c20 1 19 1 19-5-2-1-8-1-11-2-11-6-1 0-6-7 8 2 11 3 17 5-1-4 4-1-4-5-4-2-7-3-10-4-6-3-13-5-22-7l-1 6z"/>
    <path fill="#485A18" d="M558 905c1 1 3 1 3 3 1 12 2 3 2 4h14c8 1 13 4 17 10l5-3-6-7 12-1c-1-1-1-3-2-2 0 1-5 0-6-1-2-7-10 14 0-9-1 0-2 2-3 2-12 6-7 0-21-3h-4c-1-1-1-1-2-1h-3c-7 3-9 5-15 10l9-2z"/>
    <path fill="#548B1B" d="m564 888 5 3-2 6c1 0 1 0 2 1h4c14 3 9 9 21 3 1 0 2-2 3-2-10 23-2 2 0 9 5-17-11-5 6-15-8-4-8-1-14-8l-18-1-7 4z"/>
    <path fill="#B8C7A5" d="M586 1019c4 6-2 2 6 6 2 1 9 3 11 4 11 3 11 4 19 2l1-2c-1-1-2-3-2-2 0 0-7-6-9-14-7-1-1 4-9-4-6-5-4-4-7-10l-8-2c4 7 1 2-1 10 10 2 12 1 21 11l6 8c-12-3-16-7-28-7z"/>
    <path fill="#438B1D" d="M574 860c1 14-2 14 12 16 4-5 1 0 2-8 0-9-1-13-8-20l-6 12z"/>
    <path fill="#B8C7A5" d="m571 884 18 1c1-1 3-6 3-7 0-9 1-4-4-10-1 8 2 3-2 8-14-2-11-2-12-16-5 10-5 14-3 24z"/>
    <path fill="#476A13" d="M602 942c6 3 1 2 10 2h12c-4-2-8-6-11-9-8-7-5-5-13-6-1-1-2-1-3-1l-6-3c8 14 1 7 11 17z"/>
    <path fill="#503112" d="m567 951 5 2 4 1v7h9v-2l-1-5 1-1 1-6 3 3 1-6-5-5c-7-3-1-3-8 0v9l-10 3z"/>
    <path fill="#499625" d="M623 1029c1 4 11 0 22-1l-16-8c-8-5-6-6-17-7 2 8 9 14 9 14 0-1 1 1 2 2z"/>
    <path fill="#386813" d="m557 950 3 1c6-8 0 0 6-6l5-5s1-1 1-2c-19 1-5 1-11-3l-16 10 12 5z"/>
    <path fill="#F6F6F6" d="M586 994v3h2l8 2 17 4c-1-1-1-2-2-2l-11-10c-4-1-4-2-8-3-1 0-3-1-3-1-1 0-2 1-2 1h-1v6zm-26-43h7l10-3v-9l-5-1c0 1-1 2-1 2l-5 5c-6 6 0-2-6 6z"/>
    <path fill="#482719" d="m573 991 1 3 5 7c14 0 2 1 7-4v-3l-6-6-7 3z"/>
    <path fill="#E8E8E3" d="M576 961v-7l-4-1-9 5c7 6-2 3 13 3z"/>
    <path fill="#C7D5B8" d="M626 964v-4c-6-2-9-3-17-5 5 7-5 1 6 7 3 1 9 1 11 2z"/>
    <path fill="#98A789" d="M595 968c0 1 2 3 2 3 3 3 1 2 4 4 4-7-1-3 6-8-9-2-7 0-15-6l3 7z"/>
    <path fill="#A6ADA3" d="M564 897h3l2-6-5-3-4 1c3 3 2 4 4 8z"/>
    <path fill="#F6F9F3" d="m595 968-3-7-7-2v2c4 5 1 4 10 7z"/>
    <path fill="#E3E7D6" d="m585 953 11 1c0-9 1 0-7-4l-3-3-1 6z"/>
    <path fill="#E3EAE4" d="M574 929c1-1 1-3 1-2l-1-5c-2 3-10 2 0 7z"/>
    <path fill="#9BB987" d="M530 979v-3l-7 3c6 4 0 5 7 0z"/>
    <path fill="#A5CB01" d="m1127 939-19 22 13-5c6 0 8 0 14-5l8-12c6 3 2-1 8 4l7 1c0-12 4-12 15-14 7-2 2-2 7-1 5 2 2 3 12 5 12 0 2-1 5 3-1 10 1 10 0 16v14c1 0 1 1 1 2 12 3 12 2 14-11l8-1-3-6h8l3 6c13-3 5-4 19-7l-6 7c-1 0-2 0-2 1 0 0-1 0-2 1l-1 6 1 5 11 16 10 3 5-5 4-3c0 1-2 7-2 8l11-1 7-3c-7-16 9 13-4-5-4-5-4-1-4-6 5-6 6-1 11-9-5-4 1-5-11 1-5 2-2 3-13 2-5 10-1 5-11 6 4-13 7-10 11-20-10-22 5-23-9-28-5 5-6 8-10 9-6 3-7-3-7-3l-13 1-10 1c-2 9 0 10-5 18-7-6-10-1 4-25 4-23-2-26-20-32l-6 4c-10 6-6 3-9 10-27-6-11 3-32 21-7 6-5 3-11 11l-7-2z"/>
    <path fill="#491F21" d="M1199 1030v40c-7-5-6-7-8-16-7 6-4 3-7 10 5 24 7 50 5 74-1 12-1 16-6 18-3 14-2 4 2 8l25 1c5-6 5 3 3-12-9-12-9-45-8-62 1-22 9-40 22-48l1-2c-5-2-2 1-6-3l-11 11c-3-4-1 0-4-5-1-2-1-4-1-6-1-6 0-11 0-16l-7 1v7z"/>
    <path fill="#6A9C0B" d="m1269 958-6 2-1 8c11 1 8 0 13-2 12-6 6-5 11-1-5 8-6 3-11 9 0 5 0 1 4 6 13 18-3-11 4 5l-7 3 2 2c-12 3-8 1-16 7v6c4 7-4-1 3 2 4 2 5 1 11-1 1-5 3-10 8-11 5 15 4 19 7 20l-6 2c1 2-3 4 6 5 9 0 5-11 6-24-7-6-6-2-6-12l-2-6c0-1-1-2-1-2-1-12 8-17 13-9l12 1c-6-12 1-5-9-11-3-10-4-5-7-6-1 0-9-1-9-1-12 2-2 9-19 8z"/>
    <path fill="#96BC04" d="m1177 998 9 38-9-3c-11 4-18 9-19 22 0 15 13 6 26 9 3-7 0-4 7-10l-3-14c5-9 2-3 11-10v-7c-15-5 1 3-12 1l2-18-2-13c-6-1-5-3-10 5z"/>
    <path fill="#E8E6E7" d="M1183 1156c-14-2-21 0-32 3 2 6-3 9 24 11 20 2 69 4 82-7-7-8-29-9-44-10 2 15 2 6-3 12l-25-1c-4-4-5 6-2-8z"/>
    <path fill="#427A1E" d="M1121 956c3 9 2 4-1 8-2 5 0 7 0 14-1 0-1 1-1 1v6c3 2 0 1 2 6-2 3-1 1-6 3v2l6 2 5 2c5-1 2 4 5-5l-4-3c6-13 14 2 18 7l1 5 5-3c-3-5-3-5-5-11 18-1 2 1 18 3h7l1-6-1-4c-8-8 0-1-9-5-4 8-3 6-10 12-9-3-19-6-20-17-1-10 0-7 3-11 4-9 5-10 16-11v-8c-6-5-2-1-8-4l-8 12c-6 5-8 5-14 5z"/>
    <path fill="#82AE0C" d="M1138 1015h8c-1 3-2 8-2 8l5 12-3 12s-1 1-1 2c11-1 13 0 16-11s-1-8-1-21l18 15c-2-9-3-9-4-17-1 0-5-2-6-2-6-4-3 0-6-6l-2-7-9 1-5 3-1-5c-8 0-6-2-4 5l-3 11z"/>
    <path fill="#A6CD01" d="m1168 947-4 15c7 7 4 5 13 10-8 6-4 1-6 11l1 4 7 1c13-2 3-2 7 2l1-4c0-11 1-8-5-15 7-3 17-10 10-21l-9-6-6-3-9 6z"/>
    <path fill="#6A9C0B" d="M1210 988c0 10 1-1 2 11l-4 3c-3 3 1 1-6 4-8-4-4 0-6-8l-9-5 2 13 9 2 2 12h10c4 0 4-1 9 0 6 1 4 1 8 4 6-4 8-6 13-9l-12 2c-12-16-6 5-20-7 4-4 13-5 19-5 28 1-4-8 21-1v-11l-11 2c-1 1 0 9-12 6-8-2-5-4-6-9l9 1 2-6c-15 0-4 2-7-5l-13 6z"/>
    <path fill="#73A601" d="m1183 944 9 6c7 11-3 18-10 21 6 7 5 4 5 15l16-1 12-7 5-21-8 1c-2 13-2 14-14 11 0-1 0-2-1-2v-14c1-6-1-6 0-16-3-4 7-3-5-3v7c-3 3-7 2-9 3z"/>
    <path fill="#77A709" d="m1228 1041-1 2c10 7 3 1 16 1l19 19 10-3c-1-6 0-1-2-6-4-7-2-3-4-5-2 12 1 5-6 8-2-3-8 3 3-17-8 1-8 3-14 1 2-6 2-4 6-6l-4-11c-10 3-8 2-18 3l-5 14z"/>
    <path fill="#497D1C" d="M1248 986v18l2 7c-4 2-6 2-10 4-5 3-7 5-13 9 0 9-2 9-5 14 4 4 1 1 6 3l5-14c10-1 8 0 18-3v-5c10-19-7-11 7-25l4 3c8-6 4-4 16-7l-2-2-11 1c0-1 2-7 2-8l-4 3-5 5-10-3z"/>
    <path fill="#A7CE01" d="M1135 962c3 26 31 23 28-5-4-3-6-4-12-6-11 1-12 2-16 11z"/>
    <path fill="#73A601" d="M1151 951c6 2 8 3 12 6 3 28-25 31-28 5-3 4-4 1-3 11 1 11 11 14 20 17 7-6 6-4 10-12 9 4 1-3 9 5 2-10-2-5 6-11-9-5-6-3-13-10l4-15c-11 1-4 2-10-3l-7-1v8z"/>
    <path fill="#427A1E" d="M1246 923c13 1 4-1 7 3 14 5-1 6 9 28-4 10-7 7-11 20 10-1 6 4 11-6l1-8 6-2 5-9c-6-14-6-4-10-17-4-12 0-13-12-16l-6 7z"/>
    <path fill="#497D1C" d="M1168 901c-1 1-2 1-2 2l-11 9c-5 4-12 8-16 11-4 5-2 4-7 6l-5 10 7 2c6-8 4-5 11-11 21-18 5-27 32-21 3-7-1-4 9-10l6-4c-12 0-17-2-24 6z"/>
    <path fill="#9DC601" d="M1126 1045c-7 3-9-6-5 10v1l3 9 10 5c1 0 2 1 3 1 0 1 1 1 2 2l-9-11c0-1-1-1-2-2l7-3c11-5-4 3 6-3l-2-3c-7-14-1-7 2-10 5 6 2-1 3 8h1c0-1 1-2 1-2l3-12c-6 1-4 1-9 1-7 1-2-1-6 1-3 2-6 5-8 8z"/>
    <path fill="#FDFDFD" d="M1206 1022c0 5-1 10 0 16 0 2 0 4 1 6 3 5 1 1 4 5l11-11c3-5 5-5 5-14-4-3-2-3-8-4-5-1-5 0-9 0l-4 2z"/>
    <path fill="#447C1C" d="M1158 944c6 5-1 4 10 3l9-6 6 3c2-1 6 0 9-3v-7c-10-2-7-3-12-5-5-1 0-1-7 1-11 2-15 2-15 14z"/>
    <path fill="#6A9C0B" d="m1124 1065-2 6c1 1 2 0 3 1 2 6 1 1 4 3 3 3 1 0 4 5 3 4-8 4 5 3l8-9c-2-8 0-6-6-12l4-13c-1-9 2-2-3-8-3 3-9-4-2 10l2 3c-10 6 5-2-6 3l-7 3c1 1 2 1 2 2l9 11c-1-1-2-1-2-2-1 0-2-1-3-1l-10-5z"/>
    <path fill="#74A312" d="m1126 1000-5-2c1 8 3 2-1 11-3 11-1 3-4 6l-5-15c-8 7 1 20 10 24 11-8 3-10 18-10l-1 1 3-11c-2-7-4-5 4-5-4-5-12-20-18-7 11-3-9-1 5-1 6-1 4 9 2 13-3 8 1 4-12 8 1-2 3-9 4-12z"/>
    <path fill="#4C2021" d="M1162 1007c3 6 0 2 6 6 1 0 5 2 6 2 1 8 2 8 4 17l-1 1 9 3-9-38-6-5h-7c6 15 5 11-2 14z"/>
    <path fill="#427A1E" d="M1212 927c-14 24-11 19-4 25 5-8 3-9 5-18l10-1 5-14 13 1c-3-7-8-9-17-10-1 2-2 7-3 9-4 7-1 6-9 8z"/>
    <path fill="#C6DA94" d="M1118 932c0 5 3 10-3 10-5 7-10 13-17 18l-8 8c2 15-1 3 6 8 4-12 3-8 12-15l19-22 5-10-8 5-6-8v6z"/>
    <path fill="#A5CB01" d="M1085 954c1 7-2 3 4 7l-1-7c9 2 5 0 10 6 7-5 12-11 17-18-15-1-10-5-24-2-6 6-5 4-6 14z"/>
    <path fill="#41771F" d="m1220 957-5 21c8-4 6-2 11-9l-3 13c3 7-8 5 7 5 0 0 0-9 1-10 3-8 0-2 6-7l-1-5-11-3v-11h-8l3 6z"/>
    <path fill="#457B24" d="M1085 954c1-10 0-8 6-14 7-5 6 1 16-12 8 2 3 1 11 4v-6l-8-8c-13 6-1 7-18 15-8 4-13 7-14 17l7 4z"/>
    <path fill="#A6CD01" d="M1240 1015c4-2 6-2 10-4l-2-7c-25-7 7 2-21 1-6 0-15 1-19 5 14 12 8-9 20 7l12-2z"/>
    <path fill="#75A801" d="m1223 933 13-1s1 6 7 3c4-1 5-4 10-9-3-4 6-2-7-3l-3 1-2-4-13-1-5 14z"/>
    <path fill="#FDFEFA" d="m1230 987-2 6c2-7 8 2 9 2l11-2v-7l-11-16c-6 5-3-1-6 7-1 1-1 10-1 10z"/>
    <path fill="#77A709" d="M1108 961c-9 7-8 3-12 15 9 2 1-2 8 6 2 1 7 3 7 3h8v-6h-11l-4-11 16-4c3-4 4 1 1-8l-13 5z"/>
    <path fill="#427A1E" d="m1130 1028 1 10c-6 2-3 0-11 5v-2c7 0 6-2 6 4 2-3 5-6 8-8 4-2-1 0 6-1 5 0 3 0 9-1l-5-12s1-5 2-8h-8l1-1-2 12-7 2z"/>
    <path fill="#649A09" d="m1251 1024 7 1c0 1 1 7 1 7 5 8-3 4 7 6l9-1 2-8c-8-5-5-5-13-1l-3-11-10 2v5z"/>
    <path fill="#427A1E" d="M1266 1049c2 2 0-2 4 5 2 5 1 0 2 6l-10 3c3 2-4 3 7 4 7 0 6-3 7-4 4-11 1-15-1-26l-9 1v11z"/>
    <path fill="#93B482" d="M1139 923c4-3 11-7 16-11l11-9c0-1 1-1 2-2-29 4-24-5-29 22z"/>
    <path fill="#A1C901" d="M1266 1049v-11c-10-2-2 2-7-6 0 0-1-6-1-7l-7-1 4 11c-4 2-4 0-6 6 6 2 6 0 14-1-11 20-5 14-3 17 7-3 4 4 6-8z"/>
    <path fill="#7BAC02" d="M1091 940c14-3 9 1 24 2 6 0 3-5 3-10-8-3-3-2-11-4-10 13-9 7-16 12z"/>
    <path fill="#A2C905" d="M1291 984c1 0 8-5 9-5 1-1 6-2 7-2l-8-1 2-9c-5-8-14-3-13 9 0 0 1 1 1 2l2 6z"/>
    <path fill="#497D1C" d="m1179 988-2 10c5-8 4-6 10-5l9 5 8-4c-5 0 0 1-3-4-1-3-5 3 2-5l-16 1-1 4c-4-4 6-4-7-2z"/>
    <path fill="#F6F6F6" d="M1191 1054c2 9 1 11 8 16v-30c-8 3-3 3-11 0l3 14z"/>
    <path fill="#FAFAFA" d="m1151 1001 9-1 2 7c7-3 8 1 2-14-16-2 0-4-18-3 2 6 2 6 5 11z"/>
    <path fill="#427A1E" d="m1199 1023 7-1 4-2h-10l-2-12-9-2-2 18c13 2-3-6 12-1z"/>
    <path fill="#A6CD01" d="M1119 979s0-1 1-1c0-7-2-9 0-14l-16 4 4 11h11z"/>
    <path fill="#94BD03" d="M1276 1004c4 4 2 3 4 6 5 6-2 1 5 5l6-2c-3-1-2-5-7-20-5 1-7 6-8 11z"/>
    <path fill="#EDEDED" d="m1215 978-12 7c-7 8-3 2-2 5 7 0 3 1 9-2l13-6 3-13c-5 7-3 5-11 9z"/>
    <path fill="#A5CB01" d="M1201 990c3 5-2 4 3 4l-8 4c2 8-2 4 6 8 7-3 3-1 6-4l4-3c-1-12-2-1-2-11-6 3-2 2-9 2z"/>
    <path fill="#4C821B" d="M1133 1080c-3-5-1-2-4-5-3-2-2 3-4-3-1-1-2 0-3-1l2-6-3-9-9 10c4 6 6 6 12 14h9z"/>
    <path fill="#9EC901" d="M1126 1000c-1 3-3 10-4 12 13-4 9 0 12-8 2-4 4-14-2-13-14 0 6-2-5 1l4 3c-3 9 0 4-5 5z"/>
    <path fill="#9DC601" d="M1237 995c-1 0-7-9-9-2l-9-1c1 5-2 7 6 9 12 3 11-5 12-6z"/>
    <path fill="#A5CB01" d="m1121 998-6-2-4 4 5 15c3-3 1 5 4-6 4-9 2-3 1-11z"/>
    <path fill="#75A801" d="m1236 965 1-6c1-1 2-1 2-1 0-1 1-1 2-1l6-7c-14 3-6 4-19 7l-3-6v11l11 3z"/>
    <path fill="#6A9C06" d="M1120 1043c8-5 5-3 11-5l-1-10h-10c-3 9-2 5 0 15z"/>
    <path fill="#ABD018" d="M1115 994c5-2 4 0 6-3-2-5 1-4-2-6h-8s-5-2-7-3c3 9 1 10 11 12z"/>
    <path fill="#6DA309" d="M1121 1055c-4-16-2-7 5-10 0-6 1-4-6-4-10 3-6-1-9 8 5 8-4 3 10 6z"/>
    <path fill="#41771F" d="m1307 977 6-1v-8l-12-1-2 9z"/>
    <path fill="#A2C905" d="M1313 968c7-8 5-2 3-13-11-2-4-3-12 2 10 6 3-1 9 11z"/>
    <path fill="#497D1C" d="M1188 1040c8 3 3 3 11 0v-10c-9 7-6 1-11 10z"/>
    <path fill="#5A8E12" d="m1089 961 1 7 8-8c-5-6-1-4-10-6l1 7z"/>
    <path fill="#E7EEE3" d="m1171 993 6 5 2-10-7-1z"/>
    <path fill="#A5CB01" d="m699 769-13 16 9-3c5-1 6-1 10-4l6-9c4 2 1 0 5 3l6 1c-1-9 2-8 10-10 5-1 2-2 5 0 3 1 2 2 9 3 8 0 1-1 3 2-1 7 1 7 0 12v9s1 1 1 2c8 2 8 1 10-8l5-1-2-4h6l2 4c9-2 4-3 13-5l-4 5c-1 0-1 0-1 1h-2l-1 5 1 3 8 12 7 1c4-3 1 0 3-3l4-2c0 1-2 5-2 5h8l5-2c-5-11 6 9-3-4-3-4-3 0-3-4 3-4 4-1 8-6-3-3 1-4-8 0-4 2-2 3-9 2-3 7-1 3-8 4 3-9 5-7 8-14-7-16 4-16-6-20-4 3-5 6-8 7s-4-3-5-2h-9l-7 1c-1 6 0 7-4 12-4-4-6 0 3-17 3-16-1-19-14-23l-4 3c-7 4-4 2-6 7-20-4-8 3-23 15-5 4-4 2-7 8l-6-2z"/>
    <path fill="#491F21" d="m751 834-1 7v21c-4-3-4-5-5-12-5 5-3 3-5 8 3 17 5 35 3 52 0 8-1 11-4 13-2 10-1 3 2 6h17c3-4 3 2 2-8-6-9-6-32-5-45 0-15 6-28 15-33l1-1c-4-2-2 0-5-3l-7 8c-3-3-1 0-3-4-1-1-1-2-1-4v-11l-5 1 1 5z"/>
    <path fill="#6A9C0B" d="m800 783-4 1-1 6c7 1 5 0 9-2 9-4 5-3 8 0-4 5-5 2-8 6 0 4 0 0 3 4 9 13-2-7 3 4l-5 2 1 2c-8 1-5 0-11 4v4c3 5-3 0 2 2 3 2 3 1 7-1 2-3 3-7 6-8 4 11 3 14 6 14l-5 2c1 1-2 3 5 3 6 0 3-7 4-17-5-4-5-1-4-8l-2-4c0-1-1-1-1-2-1-8 6-11 9-6l9 1c-5-9 1-4-6-8-3-7-4-4-6-4l-6-1c-8 1-1 6-13 6z"/>
    <path fill="#96BC04" d="m735 811 6 27-6-2c-8 3-13 6-13 16-1 10 8 4 18 6 2-5 0-3 5-8l-2-9c3-6 1-3 8-7l-1-5c-10-4 1 2-8 0l2-12-2-9c-5-1-4-3-7 3z"/>
    <path fill="#E8E6E7" d="M739 923c-10-2-15-1-23 2 2 4-2 7 17 8 15 1 49 2 58-5-5-6-20-6-31-7 1 10 1 4-2 8h-17c-3-3-4 4-2-6z"/>
    <path fill="#427A1E" d="M695 782c2 6 2 2 0 5-2 4 0 5-1 10v1l-1 4c3 1 1 0 2 4-1 2-1 1-4 2v1l4 2 3 1c4-1 2 3 4-3l-2-2c4-9 9 1 12 4l1 4 4-2c-3-4-3-4-4-8 12 0 2 1 13 3h4l1-4-1-3c-5-6 0-1-6-4-3 5-2 4-7 8-6-2-14-4-14-11-1-7 0-6 2-8 3-7 3-7 11-8v-6c-4-3-1-1-5-3l-6 9c-4 3-5 3-10 4z"/>
    <path fill="#82AE0C" d="M707 823h6c-1 2-1 6-1 6l3 8-2 9-1 1c8-1 9 0 11-8 3-7 0-5 0-15l12 11c-1-6-2-6-2-12-1 0-4-1-5-1-4-3-2 0-4-5l-1-4h-6l-4 2-1-4c-5 0-4-1-2 4l-3 8z"/>
    <path fill="#A6CD01" d="m728 775-2 11c4 5 3 3 9 7-6 4-3 1-5 8l1 3h5c9-1 3-1 5 1l1-3c0-7 0-5-3-10 4-2 11-7 6-15l-6-4-5-2-6 4z"/>
    <path fill="#6A9C0B" d="M758 804c0 7 1-1 2 7l-4 3c-2 2 1 1-4 3-5-3-3 0-4-6l-6-3 2 9 5 1 2 8h14c4 1 2 1 5 3 4-2 6-4 9-6l-8 2c-9-12-4 3-14-6 3-3 9-3 13-3 20 1-3-6 15-1v-7l-8 1c0 1 0 6-8 4-6-1-4-3-5-6h7l1-3c-10 0-3 0-5-4l-9 4z"/>
    <path fill="#73A601" d="m739 773 6 4c5 8-2 13-6 15 3 5 3 3 3 10h11l8-5 4-15-5 1c-2 9-2 10-10 8 0-1-1-2-1-2v-9c1-5-1-5 0-12-2-3 5-2-3-2v5c-2 2-6 1-7 2z"/>
    <path fill="#77A709" d="m771 842-1 1c7 5 2 1 12 1l13 13 7-2c-1-4 0-1-2-5s-1-2-2-3c-2 8 1 4-5 5-1-1-5 3 3-11-6 0-6 2-10 0 1-4 1-2 4-4l-3-7c-7 1-5 1-12 1l-4 11z"/>
    <path fill="#497D1C" d="M785 803v12l1 5c-3 2-4 2-7 3-3 2-5 4-9 6 0 6-1 7-4 10 3 3 1 1 5 3l4-11c7 0 5 0 12-1v-4c7-14-5-8 5-18l3 2c6-4 3-3 11-4l-1-2h-8s2-4 2-5l-4 2c-2 3 1 0-3 3l-7-1z"/>
    <path fill="#A7CE01" d="M705 786c2 18 22 16 20-4-3-2-4-3-9-4-8 1-8 1-11 8z"/>
    <path fill="#73A601" d="M716 778c5 1 6 2 9 4 2 20-18 22-20 4-2 2-3 1-2 8 0 7 8 9 14 11 5-4 4-3 7-8 6 3 1-2 6 4 2-7-1-4 5-8-6-4-5-2-9-7l2-11c-8 0-2 2-6-2l-6-1v6z"/>
    <path fill="#427A1E" d="M784 758c9 1 3 0 5 2 10 4-1 4 6 20-3 7-5 5-8 14 7-1 5 3 8-4l1-6 4-1 3-7c-4-9-4-3-7-12-2-8 0-9-8-11l-4 5z"/>
    <path fill="#497D1C" d="M728 743s-1 0-1 1l-8 6c-3 3-8 6-11 8-3 3-2 3-5 5l-4 6 6 2c3-6 2-4 7-8 15-12 3-19 23-15 2-5-1-3 6-7l4-3c-8 0-12-1-17 5z"/>
    <path fill="#9DC601" d="M698 844c-4 2-6-4-3 8l2 6 8 4s1 0 1 1c1 0 2 1 2 1l-6-8c-1 0-1-1-2-1l5-3c8-3-3 3 4-1l-1-2c-5-10 0-6 1-7 4 3 2-1 2 5h1l1-1 2-9c-4 1-3 1-6 1-5 1-2-1-5 1-1 1-4 3-6 5z"/>
    <path fill="#FDFDFD" d="M755 828v11c0 2 0 3 1 4 2 4 0 1 3 4l7-8c3-3 4-4 4-10-3-2-1-2-5-3h-7l-3 2z"/>
    <path fill="#447C1C" d="M722 773c4 4-2 2 6 2l6-4 5 2c1-1 5 0 7-2v-5c-7-1-6-2-9-3-3-2 0-1-5 0-8 2-11 1-10 10z"/>
    <path fill="#6A9C0B" d="m697 858-1 5c1 0 1 0 2 1 1 4 1 0 3 2 2 1 1 0 3 3s-6 3 3 2l6-6c-1-6 0-5-4-9l2-9c0-6 2-2-2-5-1 1-6-3-1 7l1 2c-7 4 4-2-4 1l-5 3c1 0 1 1 2 1l6 8s-1-1-2-1c0-1-1-1-1-1l-8-4z"/>
    <path fill="#74A312" d="m698 812-3-1c1 6 2 1 0 8-3 8-1 2-4 4l-3-10c-5 5 1 13 7 16 8-6 3-7 13-7l-1 1 3-8c-2-5-3-4 2-4-3-3-8-13-12-4 8-2-7-1 3-1 4 0 3 6 2 9-3 6 0 3-9 6 1-2 2-7 2-9z"/>
    <path fill="#4C2021" d="M724 817c2 5 0 2 4 5 1 0 4 1 5 1 0 6 1 6 2 12v1l6 2-6-27-5-3h-4c3 10 3 7-2 9z"/>
    <path fill="#427A1E" d="M759 761c-9 17-7 13-3 17 4-5 3-6 4-12l7-1 4-10 9 1c-2-5-6-6-12-7 0 1-1 5-2 6-3 5-1 4-7 6z"/>
    <path fill="#C6DA94" d="M693 764c0 4 2 8-2 8-3 4-7 9-12 12l-5 6c1 10-1 2 3 5 3-8 3-5 9-10l13-16 4-6-6 3-4-6v4z"/>
    <path fill="#A5CB01" d="M670 780c1 5-1 2 3 5l-1-5c6 1 4 0 7 4 5-3 9-8 12-12-10-1-7-4-17-2-4 4-3 3-4 10z"/>
    <path fill="#41771F" d="m765 782-4 15c7-3 5-1 9-7l-3 10c2 4-5 4 5 4 0-1 1-7 1-8 2-5 0-1 4-5l-1-3-8-2 1-8h-6l2 4z"/>
    <path fill="#457B24" d="M670 780c1-7 0-6 4-10 5-4 4 0 11-8 6 1 2 0 8 2v-4l-5-5c-9 4-1 4-14 10-5 3-9 5-9 12l5 3z"/>
    <path fill="#A6CD01" d="M779 823c3-1 4-1 7-3l-1-5c-18-5 5 2-15 1-4 0-10 0-13 3 10 9 5-6 14 6l8-2z"/>
    <path fill="#75A801" d="M767 765h9c1-1 2 3 5 2s4-4 8-7c-2-2 4-1-5-2l-3 1-1-3-9-1-4 10z"/>
    <path fill="#FDFEFA" d="m772 804-1 3c2-4 6 2 6 2l8-1v-5l-8-12c-4 4-2 0-4 5 0 1-1 7-1 8z"/>
    <path fill="#77A709" d="M686 785c-6 5-6 2-9 10 7 2 1-1 6 5 1 0 5 2 5 2h5l1-4-8-1-3-7 12-3c2-3 2 1 0-5l-9 3z"/>
    <path fill="#427A1E" d="m701 832 1 7c-4 2-2 0-7 4v-1c4-1 3-2 3 2 2-2 5-4 6-5 3-2 0 0 5-1 3 0 2 0 6-1l-3-8s0-4 1-6h-6l1-1-1 9-6 1z"/>
    <path fill="#649A09" d="M787 830h5c0 1 1 5 1 5 3 6-3 3 5 5l6-1 2-6c-6-4-4-4-10 0l-2-9-7 2v4z"/>
    <path fill="#427A1E" d="M798 847c1 1 0-1 2 3s1 1 2 5l-7 2c2 1-3 2 5 3 5 0 4-3 4-3 3-8 1-10 0-18l-6 1v7z"/>
    <path fill="#93B482" d="M708 758c3-2 8-5 11-8l8-6c0-1 1-1 1-1-20 2-17-4-20 15z"/>
    <path fill="#A1C901" d="M798 847v-7c-8-2-2 1-5-5 0 0-1-4-1-5h-5l3 7c-3 2-3 0-4 4 4 2 4 0 10 0-8 14-4 10-3 11 6-1 3 3 5-5z"/>
    <path fill="#7BAC02" d="M674 770c10-2 7 1 17 2 4 0 2-4 2-8-6-2-2-1-8-2-7 8-6 4-11 8z"/>
    <path fill="#A2C905" d="M816 801s5-3 6-4c0 0 4-1 5-1l-6-1 1-6c-3-5-10-2-9 6 0 1 1 1 1 2l2 4z"/>
    <path fill="#497D1C" d="m736 804-1 7c3-6 2-4 7-3l6 3 6-2c-4-1 0 0-2-3-1-3-4 2 1-4h-11l-1 3c-2-2 4-2-5-1z"/>
    <path fill="#F6F6F6" d="M745 850c1 7 1 9 5 12v-21c-5 2-2 2-7 0l2 9z"/>
    <path fill="#FAFAFA" d="M717 813h6l1 4c5-2 5 1 2-9-11-2-1-3-13-3 1 4 1 4 4 8z"/>
    <path fill="#427A1E" d="m750 829 5-1 3-2h-7l-2-8-5-1-2 12c9 2-2-4 8 0z"/>
    <path fill="#A6CD01" d="M694 798v-1c1-5-1-6 1-10l-12 3 3 7 8 1z"/>
    <path fill="#94BD03" d="M804 815c3 3 2 3 4 4 3 5-2 1 3 4l5-2c-3 0-2-3-6-14-3 1-4 5-6 8z"/>
    <path fill="#EDEDED" d="m761 797-8 5c-5 6-2 1-1 4 5-1 2 0 6-2l9-4 3-10c-4 6-2 4-9 7z"/>
    <path fill="#A5CB01" d="M752 806c2 3-2 2 2 3l-6 2c1 6-1 3 4 6 5-2 2-1 4-3l4-3c-1-8-2 0-2-7-4 2-1 1-6 2z"/>
    <path fill="#4C821B" d="M704 869c-2-3-1-2-3-3-2-2-2 2-3-2-1-1-1-1-2-1l1-5-2-6-6 7c3 4 4 4 8 10h7z"/>
    <path fill="#9EC901" d="M698 812c0 2-1 7-2 9 9-3 6 0 9-6 1-3 2-9-2-9-10 0 5-1-3 1l2 2c-2 6 0 2-4 3z"/>
    <path fill="#9DC601" d="M777 809s-4-6-6-2h-7c1 3-1 5 5 6 8 2 8-3 8-4z"/>
    <path fill="#A5CB01" d="m695 811-4-2-3 4 3 10c3-2 1 4 4-4 2-7 1-2 0-8z"/>
    <path fill="#75A801" d="m776 788 1-5h2c0-1 0-1 1-1l4-5c-9 2-4 3-13 5l-2-4-1 8 8 2z"/>
    <path fill="#6A9C06" d="M695 843c5-4 3-2 7-4l-1-7h-7c-2 7-1 4 1 11z"/>
    <path fill="#ABD018" d="M691 808c3-1 3 0 4-2-1-4 1-3-2-4h-5s-4-2-5-2c2 6 1 7 8 8z"/>
    <path fill="#6DA309" d="M695 852c-3-12-1-6 3-8 0-4 1-3-3-2-8 1-5-1-7 5 3 6-2 2 7 5z"/>
    <path fill="#41771F" d="m827 796 4-1v-5l-9-1-1 6z"/>
    <path fill="#A2C905" d="M831 790c5-6 4-2 2-10-7 0-3-1-8 2 7 4 1-1 6 8z"/>
    <path fill="#497D1C" d="M743 841c5 2 2 2 7 0l1-7c-7 4-5 1-8 7z"/>
    <path fill="#5A8E12" d="m673 785 1 5 5-6c-3-4-1-3-7-4l1 5z"/>
    <path fill="#E7EEE3" d="m730 808 5 3 1-7h-5z"/>
    <path fill="#4C2021" d="M1025 893c-7 0-3-2-8 1 0 11-2 6-1 15v13c-2 15 0 24-3 47h15c-1-16-5-54-1-68v-4c-2-5-1 3-2-4z"/>
    <path fill="#548B1B" d="M1017 884c-6 3-8 4-13 8-7 6-5 2-14 7l-1 1c7 3 9 1 16 1 9 0 4-3 12-7 5-3 1-1 8-1 9 4 4-1 15 8l4 3c3 0 5-3 15-3 0 0-1-1-1 0l-2-2-14-7c-7-2-13-6-17-8h-8z"/>
    <path fill="#668716" d="m1003 868-19 7c8 8 12-2 21 3 8-1 10-4 19-3 7 0 10 2 17 4l-4-5c-5-6-7-5-12-6 1-5 3-2 0-6h-1c-3 2 4 2-4 2l-3-4c-1 0-3 0-4 1-9 4 2 8-10 7z"/>
    <path fill="#476A13" d="M1001 844c-4 3-5 4-11 5v2l10 5c-6 6-8 3-14 7l5 2s0 1 1 1l1 1h9l1 1c12 1 1-3 10-7 1-1 3-1 4-1l-1-2 1-5c-7 0-5 1-8 2-9 1-2 2-8-4 4-1 7-1 11-2l-5-7-6 2z"/>
    <path fill="#5A941B" d="M1017 821c-6-3-1-3 0-5l1 3s-1 1-1 2zm-8 3c4 3-5 2 7 2l3 1c4-2 0-2 5 0l9 2c-5-6-1-3-6-11l4 2s1 0 1 1c1-1 1-2 1-2 1 1 1-1 1-1s1-2 2-2l-4-1-3 1c-3-3-5-5-11-6h-1l-7 1c0-1 0 4-1-3 0-1-1-1-2-2v5c10 0 5 0 7 2-4 2-10 6-13 12l12-4c-2 3 2 0-4 3z"/>
    <path fill="#394919" d="m1005 878-18 6c-3 1-2 1-3 2 22 1 24-4 33-8v6h8v-3l9 6c10-2 4 0 14 0-3-4-1-1-2-5-5 1-5 1-11-1-2-1-6-2-7-2-5-3-2-1-4-4-9-1-11 2-19 3z"/>
    <path fill="#485A18" d="M1024 856h4l4 2 7 6 1 1-10-2c2 3 1 3 4 6 5 5 2 2 6 2l1-1s3 5 10-1c-5-1-5 1-8-4 4-1 7-3 12-2-6-4-15-10-24-11-8 2-3 0-7-1-15-7 6-1-5-3 1 6 0 5 5 8z"/>
    <path fill="#5A9826" d="M1006 836c0 5 0 3 5 7 3 3 4 4 8 5 11 2-10-4 5 3 4 1-1 3 7 1h7c-3-5 1-2-5-4l-2-2c-1 0-1-1-2-2-5-2-3-1-5-4h-6c-9 0-4 2-8-2l6-3-3-1h-4l-2-1-1 3z"/>
    <path fill="#B8C49A" d="m1001 844 6-2 5 7c-4 1-7 1-11 2 6 6-1 5 8 4 3-1 1-2 8-2l-1 5 4-2 4 4v-4c-5-3-4-2-5-8-4-1-5-2-8-5-5-4-5-2-5-7l-13 2 3 4c6 2 6-4 5 2z"/>
    <path fill="#4A7313" d="M1026 833c5 3 4-3 4 3l-6-1-1 1 1 3 4 1c5 3 4 3 9 4v1c12 0 11 1 11-3-1-1-5-1-6-2-7-3-1 0-4-3 5 0 7 1 10 2 0-2 2 0-2-3-2-1-4-1-6-2-4-2-8-3-13-4l-1 3z"/>
    <path fill="#485A18" d="M1007 806c1 1 2 1 2 2 1 7 1 2 1 3l7-1h1c6 1 8 3 11 6l3-1-4-4 7-1s0-2-1-1c0 0-2-1-3-1-1-4-6 8 0-6-1 1-1 2-2 2-8 3-4 0-13-2h-2c0-1-1 0-1 0l-2-1c-5 2-6 4-9 6l5-1z"/>
    <path fill="#548B1B" d="m1011 796 3 2-1 4s1-1 1 0h2c9 2 5 5 13 2 1 0 1-1 2-2-6 14-1 2 0 6 3-10-7-3 3-9-5-2-5-1-8-5h-11l-4 2z"/>
    <path fill="#B8C7A5" d="M1024 875c2 3-1 1 4 4 1 0 5 1 7 2 6 2 6 2 11 1v-1c0-1-1-2-1-2s-4-3-5-8c-4 0-1 3-6-2-3-3-2-3-4-6l-5-1c3 4 1 1 0 6 5 1 7 0 12 6l4 5c-7-2-10-4-17-4z"/>
    <path fill="#438B1D" d="M1017 779c0 8-1 8 7 10 3-3 1 0 1-5s0-8-4-12l-4 7z"/>
    <path fill="#B8C7A5" d="M1015 794h11l2-4c0-5 1-3-3-6 0 5 2 2-1 5-8-2-7-2-7-10-3 6-3 9-2 15z"/>
    <path fill="#476A13" d="M1033 829c4 1 1 1 7 1 2 0 3-1 7 0-2-1-5-4-7-6-5-4-3-3-8-3 0-1-1-1-1-1l-4-2c5 8 1 5 6 11z"/>
    <path fill="#503112" d="m1013 834 3 1 2 1v4h6v-1l-1-3 1-1v-3l2 1 1-3-3-3c-5-2-1-2-5 0v5l-6 2z"/>
    <path fill="#499625" d="M1046 881c1 2 7 0 13-1l-9-5c-5-3-3-3-10-4 1 5 5 8 5 8s1 1 1 2z"/>
    <path fill="#386813" d="m1007 833 2 1c3-5-1 0 3-4l3-3 1-1c-12 0-3 1-7-2l-9 6 7 3z"/>
    <path fill="#F6F6F6" d="M1024 860v2h1l5 1 10 2-1-1-7-6-4-2h-4v4zm-15-26h4l6-2v-5l-3-1-1 1-3 3c-4 4 0-1-3 4z"/>
    <path fill="#482719" d="m1016 858 1 2 3 4c8 0 1 0 4-2v-2l-4-4-4 2z"/>
    <path fill="#E8E8E3" d="M1018 840v-4l-2-1-6 3c4 4-1 2 8 2z"/>
    <path fill="#C7D5B8" d="M1048 842v-3c-3-1-5-2-10-2 3 3-3 0 4 3 1 1 5 1 6 2z"/>
    <path fill="#98A789" d="M1029 844c1 1 1 2 2 2l2 2c3-4-1-1 4-4-5-1-4-1-9-4l1 4z"/>
    <path fill="#A6ADA3" d="m1011 801 2 1 1-4-3-2-3 1c3 2 2 2 3 4z"/>
    <path fill="#F6F9F3" d="m1029 844-1-4-4-1v1c2 3 0 2 5 4z"/>
    <path fill="#E3E7D6" d="m1024 835 6 1c0-6 1 0-4-3l-2-1v3z"/>
    <path fill="#E3EAE4" d="M1017 821c0-1 1-2 1-2l-1-3c-1 2-6 2 0 5z"/>
    <path fill="#9BB987" d="M990 851v-2l-4 2c4 2 0 3 4 0z"/>
</svg>
