<svg xmlns="http://www.w3.org/2000/svg" xml:space="preserve" width="18mm" height="18mm" shape-rendering="geometricPrecision" text-rendering="geometricPrecision" image-rendering="optimizeQuality" fill-rule="evenodd" clip-rule="evenodd" viewBox="0 0 1800 1800">
    <path fill="none" d="M0 0h1800v1800H0z"/>
    <path d="M500 813h799.994v24.808H500z"/>
    <path d="M606 716h11.08v106.95H606zm57-51h11v158h-11V665zm58-31h11v189h-11V634zm58-22h11v211h-11V612zm58-11h11v222h-11V601zm57-3h12v225h-12V598zm58 2h11v223h-11V600zm58 13h11v210h-11V613zm58 21h11v189h-11V634zm57 29h12v160h-12V663zm58 49h11.08v110.822H1183zM500 862h69.436v228.491H500zm731 0h69.436v228.491H1231z"/>
    <path d="M514 824h11.08v44.763H514zm30 0h11.08v44.763H544zm701 0h11.08v44.763H1245zm30 0h11.08v44.763H1275z"/>
    <path fill-rule="nonzero" d="M528 821c29-64 72-114 124-151 71-51 159-76 247-76 88-1 176 24 248 75 53 37 98 88 127 152l-12 9c-28-62-71-110-122-146-70-49-155-73-241-73-85 0-171 25-240 75-50 35-91 83-118 143l-13-8z"/>
    <path fill="#0C85CA" d="M500 1206h800v-153c-39 3-33 23-62 23-27 0-32-23-61-23-54 0-42 23-73 23-27 0-32-23-61-23-53 0-43 23-73 23-28 0-33-23-61-23-52 0-45 23-70 23-36 0-31-23-69-23-43 0-44 23-65 23-37 0-30-23-68-23-44 0-45 23-66 23-37 0-30-23-68-23h-3v153z"/>
</svg>
