<svg xmlns="http://www.w3.org/2000/svg" xml:space="preserve" width="18mm" height="18mm" shape-rendering="geometricPrecision" text-rendering="geometricPrecision" image-rendering="optimizeQuality" fill-rule="evenodd" clip-rule="evenodd" viewBox="0 0 1800 1800">
    <path style="fill:none;stroke-width:.94074076" d="M0 106.667h1693.333V1800H0z"/>
    <path style="fill:#fff212;stroke:#000;stroke-width:20" transform="translate(-26.865 -383.125)" d="M1103 1191v109H697v-109l119-49 53-303h62l53 303z"/>
    <path style="fill:#fff212;fill-rule:nonzero;stroke:#000;stroke-width:20" transform="translate(-26.865 -378.814)" d="m900 571 71-71 44 45-71 71 71 71-44 44-71-71-71 71-44-44 71-71-71-71 44-45z"/>
    <path d="M1582.774 177.036c105 191.892-380 272.138-669 272.138 186-192.764 568-465.774 669-272.138Z" style="fill:#ff0;stroke-width:.93393523"/>
</svg>
