<svg xmlns="http://www.w3.org/2000/svg" xml:space="preserve" width="18mm" height="18mm" shape-rendering="geometricPrecision" text-rendering="geometricPrecision" image-rendering="optimizeQuality" fill-rule="evenodd" clip-rule="evenodd" viewBox="0 0 1800 1800">
    <defs>
        <clipPath id="a">
            <path d="M501 545c21 0 55 32 62-7 2-10 66-16 64 11-2 28 25-11 56 8 14 9 21-27 40 14 2 3-4 21 21 22 10 0 4 15 42-3 19-10-28 52 39 30 14-4 40-11 46 4 17 41 23 41 54-7 15-22-2 56 71 27 17-7 0-95 61-16 42 55 36 14 53 11 18 28-4 72 59 37 13-7 45-16 50 2 14 53 32 43 66 22 27-17-12-14 8 25s72 15 78 34c-28 15 37 101 33 107-12 17 14 86-9 97-4 2-26 40 3 54 10 5-30 2-32 60-3 44-25 30-59 42-16 6-37 18-39 54-24 7-54 39-58 68-5 29-31-21-72-17-66 5 0 71-56 7-5-7-62-10-78 24-28 58-18-72-54-45-13 11-11 16-27 26-8-19-20-84-38-71-78 60-28 51-61 18-1 0-54-1-57 14-5 29-21-57-76-4-25 25-30-74-66-54-54 30-40 75-66 15-17-41-57-8-57-16 2-104-105 25-73-88 19-66-24-79-24-79 31-35 21-54 7-105-5-19-37 14 3-31 13-14-2-94-14-94-1-2 24-3 31-32 10-44 6-19 6-70 0-45 26 16 58-82 2-5 3-12 5-12z"/>
        </clipPath>
    </defs>
    <path fill="none" d="M0 0h1800v1800H0z"/>
    <path fill="#D5DBC9" d="M501 545c21 0 55 32 62-7 2-10 66-16 64 11-2 28 25-11 56 8 14 9 21-27 40 14 2 3-4 21 21 22 10 0 4 15 42-3 19-10-28 52 39 30 14-4 40-11 46 4 17 41 23 41 54-7 15-22-2 56 71 27 17-7 0-95 61-16 42 55 36 14 53 11 18 28-4 72 59 37 13-7 45-16 50 2 14 53 32 43 66 22 27-17-12-14 8 25s72 15 78 34c-28 15 37 101 33 107-12 17 14 86-9 97-4 2-26 40 3 54 10 5-30 2-32 60-3 44-25 30-59 42-16 6-37 18-39 54-24 7-54 39-58 68-5 29-31-21-72-17-66 5 0 71-56 7-5-7-62-10-78 24-28 58-18-72-54-45-13 11-11 16-27 26-8-19-20-84-38-71-78 60-28 51-61 18-1 0-54-1-57 14-5 29-21-57-76-4-25 25-30-74-66-54-54 30-40 75-66 15-17-41-57-8-57-16 2-104-105 25-73-88 19-66-24-79-24-79 31-35 21-54 7-105-5-19-37 14 3-31 13-14-2-94-14-94-1-2 24-3 31-32 10-44 6-19 6-70 0-45 26 16 58-82 2-5 3-12 5-12z"/>
    <g fill="#f0f" clip-path="url(#a)">
        <path d="M425 886h28.323v28.323H425zm0 57h28.323v28.323H425zm0 58h28.323v28.323H425zm0 57h28.323v28.323H425zm58-143h28.323v28.323H483zm0 57h28.323v28.323H483zm0 58h28.323v28.323H483zm0 57h28.323v28.323H483zm-58-374h28.323v28.323H425zm0 58h28.323v28.323H425zm0 57h28.323v28.323H425zm58-259h28.323v28.323H483zm0 58h28.323v28.323H483zm0 57h28.323v28.323H483zm0 58h28.323v28.323H483zm0 57h28.323v28.323H483zm0 58h28.323v28.323H483zm58 29h28.323v28.323H541zm0 57h28.323v28.323H541zm0 58h28.323v28.323H541zm0 57h28.323v28.323H541zm0 58h28.323v28.323H541zm57-201h28.323v28.323H598zm0 57h28.323v28.323H598zm0 58h28.323v28.323H598zm0 57h28.323v28.323H598zm-57-546h28.323v28.323H541zm0 57h28.323v28.323H541zm0 58h28.323v28.323H541zm0 57h28.323v28.323H541zm0 58h28.323v28.323H541zm0 57h28.323v28.323H541zm57-259h28.323v28.323H598zm0 58h28.323v28.323H598zm0 57h28.323v28.323H598zm0 58h28.323v28.323H598zm0 57h28.323v28.323H598zm0 58h28.323v28.323H598zm58 29h28.323v28.323H656zm0 57h28.323v28.323H656zm0 58h28.323v28.323H656zm0 57h28.323v28.323H656zm0 58h28.323v28.323H656zm57-201h28.323v28.323H713zm0 57h28.323v28.323H713zm0 58h28.323v28.323H713zm0 57h28.323v28.323H713zm0 58h28.323v28.323H713zm-57-604h28.323v28.323H656zm0 57h28.323v28.323H656zm0 58h28.323v28.323H656zm0 57h28.323v28.323H656zm0 58h28.323v28.323H656zm0 57h28.323v28.323H656zm57-259h28.323v28.323H713zm0 58h28.323v28.323H713zm0 57h28.323v28.323H713zm0 58h28.323v28.323H713zm0 57h28.323v28.323H713zm0 58h28.323v28.323H713zm58 29h28.323v28.323H771zm0 57h28.323v28.323H771zm0 58h28.323v28.323H771zm0 57h28.323v28.323H771zm0 58h28.323v28.323H771zm57-201h28.323v28.323H828zm0 57h28.323v28.323H828zm0 58h28.323v28.323H828zm0 57h28.323v28.323H828zm0 58h28.323v28.323H828zm-57-547h28.323v28.323H771zm0 58h28.323v28.323H771zm0 57h28.323v28.323H771zm0 58h28.323v28.323H771zm0 57h28.323v28.323H771zm57-201h28.323v28.323H828zm0 57h28.323v28.323H828zm0 58h28.323v28.323H828zm0 57h28.323v28.323H828zm0 58h28.323v28.323H828zm58 29h28.323v28.323H886zm0 57h28.323v28.323H886zm0 58h28.323v28.323H886zm0 57h28.323v28.323H886zm0 58h28.323v28.323H886zm57-201h28.323v28.323H943zm0 57h28.323v28.323H943zm0 58h28.323v28.323H943zm0 57h28.323v28.323H943zm0 58h28.323v28.323H943zm-57-489h28.323v28.323H886zm0 57h28.323v28.323H886zm0 58h28.323v28.323H886zm0 57h28.323v28.323H886zm57-201h28.323v28.323H943zm0 57h28.323v28.323H943zm0 58h28.323v28.323H943zm0 57h28.323v28.323H943zm0 58h28.323v28.323H943zm58 29h28.323v28.323H1001zm0 57h28.323v28.323H1001zm0 58h28.323v28.323H1001zm0 57h28.323v28.323H1001zm0 58h28.323v28.323H1001zm0 58h28.323v28.323H1001zm57-259h28.323v28.323H1058zm0 57h28.323v28.323H1058zm0 58h28.323v28.323H1058zm0 57h28.323v28.323H1058zm0 58h28.323v28.323H1058zm0 57h28.323v28.323H1058zm-57-604h28.323v28.323H1001zm0 58h28.323v28.323H1001zm0 57h28.323v28.323H1001zm0 58h28.323v28.323H1001zm0 57h28.323v28.323H1001zm57-144h28.323v28.323H1058zm0 58h28.323v28.323H1058zm0 57h28.323v28.323H1058zm0 58h28.323v28.323H1058zm58 29h28.323v28.323H1116zm0 57h28.323v28.323H1116zm0 58h28.323v28.323H1116zm0 57h28.323v28.323H1116zm0 58h28.323v28.323H1116zm0 58h28.323v28.323H1116zm58-259h28.323v28.323H1174zm0 57h28.323v28.323H1174zm0 58h28.323v28.323H1174zm0 57h28.323v28.323H1174zm0 58h28.323v28.323H1174zm0 57h28.323v28.323H1174zm-58-489h28.323v28.323H1116zm0 58h28.323v28.323H1116zm0 57h28.323v28.323H1116zm58-144h28.323v28.323H1174zm0 58h28.323v28.323H1174zm0 57h28.323v28.323H1174zm0 58h28.323v28.323H1174zm57 29h28.323v28.323H1231zm0 57h28.323v28.323H1231zm0 58h28.323v28.323H1231zm0 57h28.323v28.323H1231zm0 58h28.323v28.323H1231zm58-201h28.323v28.323H1289zm0 57h28.323v28.323H1289zm0 58h28.323v28.323H1289zm0 57h28.323v28.323H1289zm-58-374h28.323v28.323H1231zm0 58h28.323v28.323H1231zm0 57h28.323v28.323H1231zm58-86h28.323v28.323H1289zm0 57h28.323v28.323H1289zm0 58h28.323v28.323H1289zm57 29h28.323v28.323H1346zm0 57h28.323v28.323H1346zm0 58h28.323v28.323H1346zm0 57h28.323v28.323H1346zm0-287h28.323v28.323H1346zm0 57h28.323v28.323H1346z"/>
    </g>
    <path fill="none" stroke="#000" stroke-width="20" d="M501 545c21 0 55 32 62-7 2-10 66-16 64 11-2 28 25-11 56 8 14 9 21-27 40 14 2 3-4 21 21 22 10 0 4 15 42-3 19-10-28 52 39 30 14-4 40-11 46 4 17 41 23 41 54-7 15-22-2 56 71 27 17-7 0-95 61-16 42 55 36 14 53 11 18 28-4 72 59 37 13-7 45-16 50 2 14 53 32 43 66 22 27-17-12-14 8 25s72 15 78 34c-28 15 37 101 33 107-12 17 14 86-9 97-4 2-26 40 3 54 10 5-30 2-32 60-3 44-25 30-59 42-16 6-37 18-39 54-24 7-54 39-58 68-5 29-31-21-72-17-66 5 0 71-56 7-5-7-62-10-78 24-28 58-18-72-54-45-13 11-11 16-27 26-8-19-20-84-38-71-78 60-28 51-61 18-1 0-54-1-57 14-5 29-21-57-76-4-25 25-30-74-66-54-54 30-40 75-66 15-17-41-57-8-57-16 2-104-105 25-73-88 19-66-24-79-24-79 31-35 21-54 7-105-5-19-37 14 3-31 13-14-2-94-14-94-1-2 24-3 31-32 10-44 6-19 6-70 0-45 26 16 58-82 2-5 3-12 5-12z"/>
    <path fill="#373435" fill-rule="nonzero" d="m838 942 62 19c-10 34-26 60-48 77s-50 26-84 26c-42 0-77-15-104-44-27-28-40-68-40-117 0-53 13-94 40-123 28-29 63-44 108-44 39 0 70 11 94 34 15 14 25 33 33 59l-64 15c-3-17-11-30-23-39-12-10-26-14-43-14-24 0-43 8-58 25-14 17-22 44-22 82 0 40 8 68 22 85 15 17 33 26 56 26 17 0 32-6 44-16 12-11 21-28 27-51zm102-1c0-20 5-40 15-59s24-33 42-43 38-15 61-15c35 0 63 11 85 34 22 22 33 51 33 85 0 35-11 64-33 87-23 23-51 34-85 34-21 0-41-5-60-14-19-10-33-24-43-42s-15-41-15-67zm62 3c0 23 6 40 16 52 11 12 24 19 40 19s29-7 40-19 16-29 16-52-5-40-16-52c-11-13-24-19-40-19s-29 6-40 19c-10 12-16 29-16 52z"/>
</svg>
