<svg xmlns="http://www.w3.org/2000/svg" xml:space="preserve" width="18mm" height="18mm" shape-rendering="geometricPrecision" text-rendering="geometricPrecision" image-rendering="optimizeQuality" fill-rule="evenodd" clip-rule="evenodd" viewBox="0 0 1800 1800">
    <path fill="none" d="M0 0h1800v1800H0z"/>
    <path fill-rule="nonzero" d="m849 955 30-18 9 17 8 18 5 18 4 18 3 18v37l-2 18-2 19-4 18-4 18-5 18-5 18-5 18-6 18-5 18-6 17-5 18-4 17-5 17-3 17-3 16-2 17-2 16v15l1 16 3 15 3 14 5 15 7 14 8 14 10 14-27 22-12-17-10-17-8-17-6-18-5-18-2-18-2-18v-18l2-18 2-18 3-18 4-18 5-18 5-18 5-18 5-18 6-18 5-17 6-18 5-17 4-17 4-17 3-17 2-17 2-16v-32l-2-15-3-15-5-15-6-15-8-14zm-32-87 87 55-79 48-8-103z"/>
    <path fill-rule="nonzero" d="m782 534 30-19 9 18 8 18 6 18 3 18 3 18v37l-2 18-2 18-4 18-4 19-5 18-5 18-5 18-6 17-5 18-5 18-6 17-4 17-5 18-3 16-3 17-2 16-2 16v16l1 15 3 15 3 15 5 14 7 14 8 14 11 14-28 22-12-16-10-17-8-17-6-18-5-18-2-18-2-18v-18l2-18 2-18 3-18 4-18 5-18 5-18 5-18 5-18 6-18 5-18 6-17 5-18 4-17 4-17 3-17 2-16 2-16v-32l-2-15-3-16-5-14-6-15-8-14zm-32-87 87 55-79 48-8-103zm252 295 30-18 10 17 7 18 6 18 4 18 2 18 1 18-1 19-1 18-3 18-3 19-5 18-4 18-5 18-6 18-5 18-6 17-5 18-5 17-5 18-4 17-4 17-3 16-2 16-1 16v16l1 15 2 15 4 15 5 14 6 15 9 14 10 13-27 23-12-17-11-17-8-17-6-18-4-18-3-18-1-18v-18l1-18 2-18 4-18 4-18 4-18 5-18 5-18 6-18 5-18 6-17 5-18 5-17 4-18 4-17 4-16 2-17 1-16 1-16-1-16-2-15-3-15-5-15-6-15-8-14zm-32-87 87 55-78 48-9-103z"/>
    <path fill-rule="nonzero" d="m935 320 30-18 10 18 7 17 6 18 4 19 2 18 1 18-1 18-1 19-3 18-3 18-5 18-4 18-5 18-6 18-5 18-6 18-5 18-5 17-5 17-4 17-4 17-3 17-2 16-1 16v16l1 15 2 15 4 15 5 14 6 14 9 14 10 14-27 22-12-16-11-17-8-18-6-17-4-18-3-18-1-18v-18l1-18 3-19 3-18 4-18 4-18 5-18 5-18 6-17 5-18 6-18 5-17 5-18 4-17 4-17 4-17 2-16 1-17 1-16-1-15-2-16-3-15-5-15-6-14-8-15zm-32-86 87 54-78 48-9-102z"/>
</svg>
