<svg xmlns="http://www.w3.org/2000/svg" xml:space="preserve" width="18mm" height="18mm" shape-rendering="geometricPrecision" text-rendering="geometricPrecision" image-rendering="optimizeQuality" fill-rule="evenodd" clip-rule="evenodd" viewBox="0 0 1800 1800">
    <path fill="none" d="M0 0h1800v1800H0z"/>
    <path fill-rule="nonzero" d="m937 879 18-30 14 8 15 6 15 5 15 3 15 2h32l16-2 17-2 17-3 17-4 17-4 17-5 18-6 17-5 18-6 18-5 18-5 18-5 18-5 18-4 18-3 18-2 18-2h18l18 1 18 3 18 5 18 6 17 8 17 10 17 12-22 27-14-10-14-8-14-7-15-5-14-3-15-3-16-1h-15l-16 2-17 2-16 3-17 3-17 5-17 4-18 5-17 6-18 5-18 6-18 5-18 5-18 5-18 4-18 4-19 2-18 2h-37l-18-3-18-4-18-5-18-8-17-9zm-69-62 103 8-48 79-55-87z"/>
    <path fill-rule="nonzero" d="m515 812 19-30 14 8 15 6 14 5 16 3 15 2h32l16-2 16-2 17-3 17-4 18-4 17-5 17-6 18-5 18-6 18-5 18-5 18-5 18-5 18-4 18-3 18-2 18-2h18l18 2 18 2 18 5 18 6 17 8 17 10 16 12-22 27-14-10-14-8-14-7-14-5-15-3-15-3-15-1h-16l-16 2-16 2-17 3-16 3-18 5-17 4-17 6-18 5-18 5-17 6-18 5-18 5-18 5-19 4-18 4-18 2-18 2h-37l-18-3-18-3-18-6-18-8-18-9zm-68-62 103 8-48 79-55-87zm277 282 18-30 14 8 15 6 15 5 15 3 15 2 16 1 16-1 16-1 17-2 16-4 17-4 18-4 17-5 18-5 17-6 18-5 18-6 18-5 18-5 18-4 18-4 18-4 18-2 18-1h18l18 1 18 3 18 4 18 6 17 8 17 11 17 12-23 27-13-10-14-9-15-6-14-5-15-4-15-2-15-1h-16l-16 1-16 2-16 3-17 4-17 4-18 5-17 5-18 5-17 6-18 5-18 6-18 5-18 4-18 5-19 3-18 3-18 1-18 1-19-1-18-2-18-4-18-6-18-7-17-10zm-69-62 103 9-48 78-55-87z"/>
    <path fill-rule="nonzero" d="m302 965 18-30 15 8 14 6 15 5 15 3 16 2 15 1 16-1 17-1 16-2 17-4 17-4 17-4 18-5 17-5 18-6 18-5 18-6 17-5 18-5 18-4 18-4 18-3 19-3 18-1h18l18 1 18 3 18 4 17 6 18 8 17 11 16 12-22 27-14-10-14-9-14-6-14-5-15-4-15-2-15-1h-16l-16 1-16 2-17 3-17 4-17 4-17 5-17 5-18 5-18 6-18 5-18 6-18 5-18 4-18 5-18 3-18 3-19 1-18 1-18-1-18-2-19-4-18-6-17-7-18-10zm-68-62 102 9-48 78-54-87z"/>
</svg>
