<svg xmlns="http://www.w3.org/2000/svg" xml:space="preserve" width="18mm" height="18mm" shape-rendering="geometricPrecision" text-rendering="geometricPrecision" image-rendering="optimizeQuality" fill-rule="evenodd" clip-rule="evenodd" viewBox="0 0 1800 1800">
    <path fill="none" d="M0 0h1800v1800H0z"/>
    <path fill-rule="nonzero" d="m898 980 8-34 19 6 18 7 17 9 15 10 15 11 13 12 13 14 11 14 12 15 10 15 10 16 9 16 10 16 8 17 9 16 9 17 8 16 9 16 9 15 9 15 9 15 10 14 10 13 10 12 11 11 12 10 12 9 13 8 14 7 15 5 15 4 17 2-3 35-20-3-20-5-18-6-17-8-15-10-15-11-14-11-12-13-12-14-11-14-11-16-10-15-9-16-9-16-9-17-9-16-9-17-8-16-9-16-9-16-9-15-9-15-10-14-10-13-10-13-11-12-12-10-12-10-13-8-14-7-15-6-15-5zm-85-38 101-24-22 90-79-66z"/>
    <path fill-rule="nonzero" d="m552 729 9-34 19 6 18 7 16 9 16 10 14 12 14 12 12 13 12 14 11 15 11 15 10 16 9 16 9 17 9 16 9 17 8 16 9 16 9 16 9 16 9 15 9 14 10 14 10 13 10 12 11 12 12 10 12 9 13 7 14 7 14 5 16 4 17 3-3 35-21-3-19-5-18-7-17-8-16-9-14-11-14-12-13-13-11-14-12-14-10-15-10-16-10-16-9-16-9-16-8-17-9-16-9-16-8-17-9-15-9-16-10-14-9-15-10-13-11-13-11-11-11-11-12-9-13-9-14-7-15-6-16-5zm-84-38 101-23-22 89-79-66zm387 30 9-34 19 5 18 8 16 8 16 11 14 11 14 12 12 14 12 14 11 14 11 16 10 15 9 17 9 16 9 16 9 17 9 16 8 17 9 16 9 15 9 15 9 15 10 14 10 13 10 12 11 11 12 10 12 9 13 8 14 6 14 6 16 4 17 2-3 35-21-3-19-5-18-6-17-8-15-10-15-11-14-12-12-13-12-13-12-15-10-15-10-15-10-16-9-16-9-17-8-16-9-17-9-16-8-16-9-16-9-15-10-15-9-14-10-14-11-12-11-12-11-10-12-10-13-8-14-8-15-6-16-4zm-84-39 101-23-22 90-79-67z"/>
    <path fill-rule="nonzero" d="m510 470 8-34 19 6 18 7 17 9 16 10 14 11 14 13 12 13 12 14 11 15 10 15 10 16 10 16 9 16 9 17 9 16 8 17 9 16 9 16 8 16 9 15 10 14 9 14 10 13 11 12 11 11 11 10 13 9 13 8 13 7 15 5 16 4 17 3-4 34-20-3-19-4-18-7-17-8-16-10-14-10-14-12-13-13-12-14-11-14-10-15-10-16-10-16-9-16-9-16-9-17-8-16-9-17-9-16-9-16-9-15-9-15-9-14-11-13-10-13-11-11-12-11-12-10-13-8-13-7-15-6-16-5zm-84-38 100-23-21 89-79-66z"/>
</svg>
