<svg xmlns="http://www.w3.org/2000/svg" xml:space="preserve" width="18mm" height="18mm" shape-rendering="geometricPrecision" text-rendering="geometricPrecision" image-rendering="optimizeQuality" fill-rule="evenodd" clip-rule="evenodd" viewBox="0 0 1800 1800">
    <defs>
        <radialGradient id="a" gradientUnits="userSpaceOnUse" cx="863.88" cy="1014.09" r="236.62" fx="863.88" fy="1014.09">
            <stop offset="0" stop-color="#FEFEFE"/>
            <stop offset=".988" stop-color="#7FFFFF"/>
            <stop offset="1" stop-color="#0ff"/>
        </radialGradient>
        <radialGradient id="b" gradientUnits="userSpaceOnUse" cx="1104.63" cy="772.72" r="202.03" fx="1104.63" fy="772.72">
            <stop offset="0" stop-color="#FEFEFE"/>
            <stop offset=".678" stop-color="#7FFFFF"/>
            <stop offset="1" stop-color="#0ff"/>
        </radialGradient>
        <radialGradient id="c" gradientUnits="userSpaceOnUse" cx="672.14" cy="652.96" r="179.8" fx="672.14" fy="652.96">
            <stop offset="0" stop-color="#FEFEFE"/>
            <stop offset="1" stop-color="#0ff"/>
        </radialGradient>
    </defs>
    <path fill="none" d="M0 0h1800v1800H0z"/>
    <g fill-opacity=".502">
        <path fill="url(#a)" d="M960 961c0 1-1 2-1 2l-4 4c-49 43-86 18-87 137v19l1 28-5 23-5-24v-51c0-124-58-94-92-138 31 4 56 38 97 38 40 0 64-34 96-38zm7-5c-1 5 8 4-7 5 2-5-9-5 7-5zm0 0c1 0 2-1 3-2 11-8 2-3 13-4l-16 6zm-200 5c-14-3-12-5-21-13 4 2 8 3 12 5 15 8 5 3 9 8zm279-50c14-22 25-26-5-43-18-10-34-19-52-29-21-13-83-53-103-59-43-13-88 23-118 41-32 19-70 39-99 57-1 28 3 14 13 33-30-3-35-3-35 29 0 200-19 192 84 250 26 14 96 62 121 61l13-22 11 22c23 1 46-18 64-29 75-43 140-61 141-128 0-60 5-124-4-183h-31z"/>
        <path fill="url(#b)" d="m977 766-13-7c8 2 2 0 9 3l4 4zm12 8c-22-7-7 0-12-8l11 4c87 47 84 38 169-7l11-5c-7 6 8 3-13 8-29 31-81 32-85 90-3 40 16 35 21 66 4 21 1 69 1 93 17-5 139-75 149-89 18-28 11-72 11-107v-61c0-33 2-34-29-32 17-35 21-20-50-62-107-65-99-70-190-16-24 15-69 37-86 54 2 14 5 14 11 24l-26 1 2 39c36 20 160 85 175 99 9-63-52-65-70-91z"/>
        <path fill="url(#c)" d="M798 703c6-6 0-6 22-13-2 2-5 6-9 8-9 6-2 2-13 5zm-143 0c-14-4-13-5-22-13 5 1 8 2 12 4 15 8 5 4 10 9zm67 132v-38c1-68-32-63-62-89-4-3-4-4-5-5 25 2 41 26 71 26 31 0 47-23 72-26l-9 9c-43 30-59 26-58 96v11c1 6 1 6 2 7 41-17 84-59 133-61 7-37-3-24 16-57 3-6 1-4 6-10 15-21 23-8 15-39l-26-3c7-8 9-9 10-23-16-15-135-87-161-87-25 1-142 71-160 87 1 12 5 16 10 24l-26 1c-5 20-5 148-1 169 6 26 21 33 41 44 15 9 39 26 56 31 13-37 42-54 76-67z"/>
        <path d="M1046 911h31c9 59 4 123 4 183-1 67-66 85-141 128-18 11-41 30-64 29l-11-22-13 22c-25 1-95-47-121-61-103-58-84-50-84-250 0-32 5-32 35-29-10-19-14-5-13-33 29-18 67-38 99-57 30-18 75-54 118-41 20 6 82 46 103 59 18 10 34 19 52 29 30 17 19 21 5 43zm109-145 2-3c-85 45-82 54-169 7l1 4c18 26 79 28 70 91-15-14-139-79-175-99l-2-39 26-1c-6-10-9-10-11-24 17-17 62-39 86-54 91-54 83-49 190 16 71 42 67 27 50 62 31-2 29-1 29 32v61c0 35 7 79-11 107-10 14-132 84-149 89 0-24 3-72-1-93-5-31-24-26-21-66 4-58 56-59 85-90zm-422 60c-4 4-6 6-11 9-34 13-63 30-76 67-17-5-41-22-56-31-20-11-35-18-41-44-4-21-4-149 1-169l26-1c-5-8-9-12-10-24 18-16 135-86 160-87 26 0 145 72 161 87-1 14-3 15-10 23l26 3c8 31 0 18-15 39-5 6-3 4-6 10-19 33-9 20-16 57-49 2-92 44-133 61zM537 663v163c17 27 10 31 40 50 19 11 40 24 60 33-2 44-2 88-2 132 0 47-4 88 23 117 12 13 63 40 85 53 23 13 73 38 90 52h62c46-38 167-76 190-129 12-27 7-70 7-101 4-12 120-70 139-85 22-16 18-22 32-46V733c-9-12-16-32-27-43-8-8-33-21-43-27-115-64-110-83-189-39-27 15-59 33-84 49l-13-26c-5-8-10-18-16-25l-146-85h-35c-31 19-64 34-95 53-14 8-38 20-49 29-13 11-19 30-29 44zm322 436c6 6 1 1 9 5 1-119 38-94 87-137l4-4s1-1 1-2c-32 4-56 38-96 38-41 0-66-34-97-38 34 44 92 14 92 138zM722 797l9 11c-1-70 15-66 58-96l9-9c-25 3-41 26-72 26-30 0-46-24-71-26 1 1 1 2 5 5 30 26 63 21 62 89zm137 353 10 1-1-28c-6-2-4 0-9-4v31zM722 835c5-3 7-5 11-9-1-1-1-1-2-7v-11l-9-11v38zm137 284c5 4 3 2 9 4v-19c-8-4-3 1-9-5v20zm10 32-10-1 5 24 5-23zm-71-448c11-3 4 1 13-5 4-2 7-6 9-8-22 7-16 7-22 13zm-31 258c-4-5 6 0-9-8-4-2-8-3-12-5 9 8 7 10 21 13zM655 703c-5-5 5-1-10-9-4-2-7-3-12-4 9 8 8 9 22 13zm334 71-1-4-11-4c5 8-10 1 12 8zm-22 182c-16 0-5 0-7 5 15-1 6 0 7-5zm188-190c21-5 6-2 13-8l-11 5-2 3zM967 956l16-6c-11 1-2-4-13 4-1 1-2 2-3 2zm10-190-4-4c-7-3-1-1-9-3l13 7z"/>
    </g>
</svg>
