<svg xmlns="http://www.w3.org/2000/svg" xml:space="preserve" width="18mm" height="18mm" shape-rendering="geometricPrecision" text-rendering="geometricPrecision" image-rendering="optimizeQuality" fill-rule="evenodd" clip-rule="evenodd" viewBox="0 0 1800 1800">
    <path fill="none" d="M0 0h1800v1800H0z"/>
    <path fill="red" d="M1037 953c13-49 18-103 9-167 147 174 78 466-159 465-248-1-316-305-115-546-21 59-25 128-15 166 62-58 137-158 71-322 153 122 191 275 209 404z"/>
    <path fill="#C00" d="M762 956c86-87 166-204 104-337 15 110-24 217-110 271-6-27-13-54-19-81-93 171-50 293-2 358-24-92 23-182 95-245-27 8-45 19-68 34z"/>
    <ellipse fill="red" cx="895" cy="1154" rx="116" ry="81"/>
    <path fill="#F40102" d="M895 1078c62 0 112 35 112 78s-50 78-112 78-113-35-113-78 51-78 113-78z"/>
    <path fill="#EA0303" d="M895 1083c60 0 108 33 108 75s-48 76-108 76-109-34-109-76 49-75 109-75z"/>
    <path fill="#DF0405" d="M894 1087c58 0 105 33 105 73s-47 73-105 73-105-33-105-73 47-73 105-73z"/>
    <path fill="#D50606" d="M894 1091c56 0 101 32 101 71 0 38-45 70-101 70s-101-32-101-70c0-39 45-71 101-71z"/>
    <path fill="#CA0708" d="M894 1096c54 0 97 30 97 67 0 38-43 68-97 68s-97-30-97-68c0-37 43-67 97-67z"/>
    <path fill="#C00909" d="M894 1100c51 0 93 29 93 65s-42 65-93 65c-52 0-94-29-94-65s42-65 94-65z"/>
    <path fill="#B50A0B" d="M894 1105c49 0 89 28 89 62s-40 62-89 62c-50 0-90-28-90-62s40-62 90-62z"/>
    <path fill="#AB0C0C" d="M894 1109c47 0 85 27 85 60s-38 59-85 59c-48 0-86-26-86-59s38-60 86-60z"/>
    <path fill="#A00D0E" d="M893 1114c46 0 82 25 82 57 0 31-36 57-82 57-45 0-82-26-82-57 0-32 37-57 82-57z"/>
    <path fill="#960F0F" d="M893 1118c43 0 78 24 78 54s-35 55-78 55-78-25-78-55 35-54 78-54z"/>
    <path fill="#8B1011" d="M893 1123c41 0 74 23 74 51 0 29-33 52-74 52s-74-23-74-52c0-28 33-51 74-51z"/>
    <path fill="#811212" d="M893 1127c39 0 70 22 70 49s-31 49-70 49-71-22-71-49 32-49 71-49z"/>
    <path fill="#761314" d="M893 1132c36 0 66 20 66 46 0 25-30 46-66 46-37 0-67-21-67-46 0-26 30-46 67-46z"/>
    <path fill="#6C1515" d="M892 1136c35 0 63 20 63 44s-28 43-63 43c-34 0-62-19-62-43s28-44 62-44z"/>
    <path fill="#611617" d="M892 1140c33 0 59 19 59 41 0 23-26 41-59 41-32 0-59-18-59-41 0-22 27-41 59-41z"/>
    <path fill="#571818" d="M892 1145c31 0 55 17 55 38s-24 39-55 39c-30 0-55-18-55-39s25-38 55-38z"/>
    <path fill="#4C191A" d="M892 1149c28 0 51 16 51 36s-23 36-51 36-51-16-51-36 23-36 51-36z"/>
    <path fill="#421B1B" d="M892 1154c26 0 47 15 47 33s-21 33-47 33-48-15-48-33 22-33 48-33z"/>
    <path fill="#371C1D" d="M892 1158c24 0 43 14 43 31 0 16-19 30-43 30-25 0-44-14-44-30 0-17 19-31 44-31z"/>
    <path fill="#2D1E1E" d="M891 1163c22 0 40 12 40 27 0 16-18 28-40 28s-39-12-39-28c0-15 17-27 39-27z"/>
    <ellipse fill="#373435" cx="891" cy="1192" rx="36" ry="25"/>
    <path fill-rule="nonzero" d="M613 1122V910h44v176h107v36H613zm182 0V908h69c26 0 43 1 51 3 13 3 23 10 31 21s13 25 13 42c0 13-3 24-8 33-4 9-10 16-18 21-7 5-14 9-22 10-10 2-25 3-45 3h-28v81h-43zm43-178v61h24c17 0 28-1 34-3 5-2 10-6 13-11s5-10 5-17-2-14-7-19c-4-5-10-8-17-9-5-1-16-2-31-2h-21zm256 99v-36h93v86c-9 9-22 16-40 23-17 7-34 10-52 10-22 0-42-5-58-14-17-10-29-23-38-41-8-17-12-36-12-57 0-22 4-42 14-59 9-18 23-31 41-40 14-7 31-11 51-11 27 0 47 6 62 17s25 26 29 46l-43 8c-3-10-9-19-17-25s-19-9-31-9c-19 0-34 6-45 18s-17 30-17 54c0 25 6 44 17 57s26 19 45 19c9 0 18-2 27-5 9-4 17-8 23-13v-28h-49z"/>
</svg>
