<svg xmlns="http://www.w3.org/2000/svg" xml:space="preserve" width="18mm" height="18mm" shape-rendering="geometricPrecision" text-rendering="geometricPrecision" image-rendering="optimizeQuality" fill-rule="evenodd" clip-rule="evenodd" viewBox="0 0 1800 1800">
    <path fill="none" d="M0 0h1800v1800H0z"/>
    <path fill="#FFDB12" stroke="#FFDB12" stroke-width="10" d="M1134 659v489c0 16 1 26-7 36-3 4-6 8-10 10-8 5-12 4-16 6H717c-5-3-28-3-32-34-2-13-1-299-1-335 0-12-1-59 1-66 6-13 28-30 32-36-2-6-15-22-19-28-9-12-13-15-25-23-15-11-2-18 6-27 5-4 20-21 25-23 5-1 82-10 86-8 5 3 5 10 6 17 1 9-3 11-9 15-8 6-19 16-27 20 3 5 7 11 11 15 5-2 8-4 13-7 17-9 9 1 30-34l24-38c5-7 6-4 12-8h254c2 1 5 2 8 3 3 2 4 3 7 4 17 15 15 30 15 52zm-294 17c2-6 19-34 23-38l157-1c-1 4-22 38-24 38H860l-20 1z"/>
    <path fill-rule="nonzero" d="M814 805h90c21 0 36 1 47 4 14 4 27 12 37 23s18 24 23 40c5 15 8 35 8 58 0 20-2 37-7 52-6 18-15 32-27 43-8 9-20 15-34 20-11 3-26 5-44 5h-93V805zm49 41v163h37c14 0 24-1 30-3 8-2 15-5 20-10s10-13 13-24 5-26 5-45-2-33-5-43c-3-11-8-18-14-24s-14-10-23-12c-7-1-20-2-40-2h-23z"/>
</svg>
