<?xml version="1.0" encoding="UTF-8" standalone="no"?>
<!-- Creator: CorelDRAW X6 -->

<svg
   xmlns:dc="http://purl.org/dc/elements/1.1/"
   xmlns:cc="http://creativecommons.org/ns#"
   xmlns:rdf="http://www.w3.org/1999/02/22-rdf-syntax-ns#"
   xmlns:svg="http://www.w3.org/2000/svg"
   xmlns="http://www.w3.org/2000/svg"
   xmlns:sodipodi="http://sodipodi.sourceforge.net/DTD/sodipodi-0.dtd"
   xmlns:inkscape="http://www.inkscape.org/namespaces/inkscape"
   xml:space="preserve"
   width="18mm"
   height="18mm"
   version="1.1"
   shape-rendering="geometricPrecision"
   text-rendering="geometricPrecision"
   image-rendering="optimizeQuality"
   fill-rule="evenodd"
   clip-rule="evenodd"
   viewBox="0 0 1800 1800"
   id="svg21"
   sodipodi:docname="Symbol-Spot-Orange.svg"
   inkscape:version="0.92.0 r15299"><metadata
     id="metadata27"><rdf:RDF><cc:Work
         rdf:about=""><dc:format>image/svg+xml</dc:format><dc:type
           rdf:resource="http://purl.org/dc/dcmitype/StillImage" /><dc:title></dc:title></cc:Work></rdf:RDF></metadata><defs
     id="defs25" /><sodipodi:namedview
     pagecolor="#ffffff"
     bordercolor="#666666"
     borderopacity="1"
     objecttolerance="10"
     gridtolerance="10"
     guidetolerance="10"
     inkscape:pageopacity="0"
     inkscape:pageshadow="2"
     inkscape:window-width="2444"
     inkscape:window-height="1453"
     id="namedview23"
     showgrid="false"
     inkscape:zoom="12.273727"
     inkscape:cx="13.553202"
     inkscape:cy="30.76278"
     inkscape:window-x="147"
     inkscape:window-y="147"
     inkscape:window-maximized="0"
     inkscape:current-layer="svg21" /><g
     id="g5394"><rect
       width="1693.3334"
       height="1693.3334"
       id="rect3"
       x="-3.5668947e-008"
       y="106.66668"
       style="fill:none;stroke-width:0.94074076" /><path
       style="fill:#ff6600;stroke-width:0.99921352;fill-opacity:1"
       inkscape:connector-curvature="0"
       id="path5-9"
       d="m 873.12502,926.87503 c -54.91352,-147 -174.72484,-336 -205.6761,-479 -3.99371,-16 -5.99057,-33 -5.99057,-49 0,-117 94.85063,-212 211.66667,-212 116.81604,0 211.66668,95 211.66668,212 0,16 -1.9969,33 -5.9906,49 -30.9512,143 -150.76255,332 -205.67608,479 z" /><path
       style="fill:#ffffff;stroke-width:0.99921352"
       inkscape:connector-curvature="0"
       id="path7"
       d="m 873.12502,249.87503 c 81.87108,0 147.76728,67 147.76728,149 0,82 -65.8962,148 -147.76728,148 -81.87107,0 -147.7673,-66 -147.7673,-148 0,-82 65.89623,-149 147.7673,-149 z" /></g></svg>