<?xml version="1.0" encoding="UTF-8" standalone="no"?>
<!-- Creator: CorelDRAW X6 -->

<svg
   xmlns:dc="http://purl.org/dc/elements/1.1/"
   xmlns:cc="http://creativecommons.org/ns#"
   xmlns:rdf="http://www.w3.org/1999/02/22-rdf-syntax-ns#"
   xmlns:svg="http://www.w3.org/2000/svg"
   xmlns="http://www.w3.org/2000/svg"
   xmlns:sodipodi="http://sodipodi.sourceforge.net/DTD/sodipodi-0.dtd"
   xmlns:inkscape="http://www.inkscape.org/namespaces/inkscape"
   xml:space="preserve"
   width="18mm"
   height="18mm"
   version="1.1"
   shape-rendering="geometricPrecision"
   text-rendering="geometricPrecision"
   image-rendering="optimizeQuality"
   fill-rule="evenodd"
   clip-rule="evenodd"
   viewBox="0 0 1800 1800"
   id="svg21"
   sodipodi:docname="Symbol-Spot-Black.svg"
   inkscape:version="0.92.0 r15299"><metadata
     id="metadata27"><rdf:RDF><cc:Work
         rdf:about=""><dc:format>image/svg+xml</dc:format><dc:type
           rdf:resource="http://purl.org/dc/dcmitype/StillImage" /><dc:title></dc:title></cc:Work></rdf:RDF></metadata><defs
     id="defs25" /><sodipodi:namedview
     pagecolor="#ffffff"
     bordercolor="#666666"
     borderopacity="1"
     objecttolerance="10"
     gridtolerance="10"
     guidetolerance="10"
     inkscape:pageopacity="0"
     inkscape:pageshadow="2"
     inkscape:window-width="2444"
     inkscape:window-height="1453"
     id="namedview23"
     showgrid="false"
     inkscape:zoom="12.273727"
     inkscape:cx="7.9888391"
     inkscape:cy="33.268143"
     inkscape:window-x="147"
     inkscape:window-y="147"
     inkscape:window-maximized="0"
     inkscape:current-layer="svg21" /><g
     id="g5343"><rect
       width="1693.3334"
       height="1693.3334"
       id="rect3"
       x="-3.5668947e-008"
       y="106.66668"
       style="fill:none;stroke-width:0.94074076" /><g
       transform="matrix(0.9984277,0,0,1,-25.459906,-343.12497)"
       id="_275844248"><path
         d="M 900,1270 C 845,1123 725,934 694,791 c -4,-16 -6,-33 -6,-49 0,-117 95,-212 212,-212 117,0 212,95 212,212 0,16 -2,33 -6,49 -31,143 -151,332 -206,479 z"
         id="path5-9"
         inkscape:connector-curvature="0"
         style="fill:#000000" /><path
         d="m 900,593 c 82,0 148,67 148,149 0,82 -66,148 -148,148 -82,0 -148,-66 -148,-148 0,-82 66,-149 148,-149 z"
         id="path7"
         inkscape:connector-curvature="0"
         style="fill:#ffffff" /></g></g></svg>