<svg xmlns="http://www.w3.org/2000/svg" viewBox="0 0 32 32" version="1.0"><defs><radialGradient id="a" gradientUnits="userSpaceOnUse" cy="16" cx="16" gradientTransform="matrix(1.7118 -.02277 .01838 1.38131 -11.683 -5.737)" r="16"><stop stop-color="#82e6fb" offset="0"/><stop stop-opacity="0" stop-color="#82e6fb" offset="1"/></radialGradient></defs><g><rect ry="3.878" transform="scale(1 -1)" height="32" width="32" y="-32" fill="#FFF"/><rect ry="3.878" height="32" width="32" fill="url(#a)"/><rect stroke-linejoin="round" ry="3.755" height="30.979" width="30.979" stroke="#939393" stroke-linecap="round" y=".51" x=".511" stroke-width="1.021" fill="none"/></g><path opacity=".7" d="M11.018 6.4A4.318 4.318 0 016.7 10.718 4.318 4.318 0 012.382 6.4 4.318 4.318 0 016.7 2.082 4.318 4.318 0 0111.018 6.4z" stroke="#000" stroke-width=".363636" fill="#0F5"/><path d="M6.67 6.34l1.594-2.434" stroke="#000" stroke-width=".302" fill="none"/><path opacity=".7" d="M29.291 15.55a6.141 6.141 0 01-6.141 6.141 6.141 6.141 0 01-6.141-6.141 6.141 6.141 0 016.141-6.141 6.141 6.141 0 016.141 6.141z" stroke="#000" stroke-width=".517172" fill="#e3ff00"/><path d="M22.668 15.9l-2.956 2.863" stroke="#000" stroke-width=".446" fill="none"/><g stroke="#000" stroke-width=".4" fill="#00b4ff"><path opacity=".7" d="M15.193 22.65A6.093 6.093 0 019.1 28.743a6.093 6.093 0 01-6.093-6.093A6.093 6.093 0 019.1 16.557a6.093 6.093 0 016.093 6.093z" stroke-width=".513132"/><path opacity=".7" d="M9.1 27.148l-.54-3.958-3.957-.54 3.956-.54.541-3.958.54 3.958 3.958.54-3.957.54z" stroke-width=".513132"/><path opacity=".7" d="M11.157 24.706L9.1 23.144l-2.057 1.562 1.563-2.056-1.563-2.056L9.1 22.156l2.057-1.562-1.563 2.056z" stroke-width=".513132"/></g><path d="M15.1 2.2h9.8M15.1 4.7h9.8M3.1 12.9h9.8" stroke-opacity=".847" stroke="#606e29" fill="none"/><text font-size="3.163" y="104.96" x="11.899" font-family="Bitstream Vera Sans" fill="#0f117b" transform="translate(0 -96)"><tspan y="104.96" x="11.899">4.6Kts</tspan></text><text font-size="5.228" y="122.792" x="17.02" font-family="Bitstream Vera Sans" fill="#940f15" transform="translate(0 -96)"><tspan y="122.792" x="17.02">176°</tspan></text></svg>