<?xml version="1.0" encoding="UTF-8" standalone="no"?>
<svg id="svg2" xmlns:rdf="http://www.w3.org/1999/02/22-rdf-syntax-ns#" xmlns="http://www.w3.org/2000/svg" viewBox="0 0 32 32" version="1.0" xmlns:cc="http://creativecommons.org/ns#" xmlns:xlink="http://www.w3.org/1999/xlink" xmlns:dc="http://purl.org/dc/elements/1.1/">
 <defs id="defs4">
  <radialGradient id="radialGradient4286" gradientUnits="userSpaceOnUse" cy="16" cx="16" gradientTransform="matrix(1.711808,-0.02277183,0.01837532,1.3813129,-11.682944,-5.736848)" r="16">
   <stop id="stop4146" stop-color="#82e6fb" offset="0"/>
   <stop id="stop4148" stop-opacity="0" stop-color="#82e6fb" offset="1"/>
  </radialGradient>
 </defs>
 <metadata id="metadata7">
  <rdf:RDF>
   <cc:Work rdf:about="">
    <dc:format>image/svg+xml</dc:format>
    <dc:type rdf:resource="http://purl.org/dc/dcmitype/StillImage"/>
    <dc:title/>
   </cc:Work>
  </rdf:RDF>
 </metadata>
 <g id="layer1" transform="translate(0,-96)">
  <g id="g12378" style="enable-background:new;" transform="translate(-2.5004148e-4,95.99975)">
   <rect id="rect4364-1" ry="3.878" style="enable-background:new;" transform="scale(1,-1)" height="32" width="32" y="-32" x="0" fill="#FFF"/>
   <rect id="rect4366-1" style="enable-background:new;" ry="3.878" height="32" width="32" y="0.00049973" x="0" fill="url(#radialGradient4286)"/>
   <rect id="rect4426-1" stroke-linejoin="round" style="enable-background:new;" ry="3.755" height="30.979" width="30.979" stroke="#939393" stroke-linecap="round" y="0.5105" x="0.511" stroke-width="1.021" fill="none"/>
  </g>
  <path id="path34749-4-9" opacity="0.69972977000000003" stroke-linejoin="miter" d="m13.4,20.95a4.75,4.75,0,0,1,-4.75,4.75,4.75,4.75,0,0,1,-4.75,-4.75,4.75,4.75,0,0,1,4.75,-4.75,4.75,4.75,0,0,1,4.75,4.75z" transform="matrix(0.90909091,0,0,0.90909091,-1.1636362,83.354544)" stroke-dashoffset="0" stroke="#000" stroke-linecap="butt" stroke-miterlimit="4" stroke-dasharray="none" stroke-width="0.40000001000000002" fill="#0F5"/>
  <path id="path34741-0" stroke-linejoin="miter" d="M6.6693,102.34,8.2641,99.906" stroke="#000" stroke-linecap="butt" stroke-miterlimit="4" stroke-dasharray="none" stroke-width="0.30219448" fill="none"/>
  <path id="path34749-4" opacity="0.69972977000000003" stroke-linejoin="miter" d="m13.4,20.95a4.75,4.75,0,0,1,-4.75,4.75,4.75,4.75,0,0,1,-4.75,-4.75,4.75,4.75,0,0,1,4.75,-4.75,4.75,4.75,0,0,1,4.75,4.75z" transform="matrix(1.2929293,0,0,1.2929293,11.966162,84.46313)" stroke-dashoffset="0" stroke="#000" stroke-linecap="butt" stroke-miterlimit="4" stroke-dasharray="none" stroke-width="0.40000001000000002" fill="#e3ff00"/>
  <path id="path34741" stroke-linejoin="miter" d="m22.668,111.9-2.9558,2.8629" stroke="#000" stroke-linecap="butt" stroke-miterlimit="4" stroke-dasharray="none" stroke-width="0.44621837" fill="none"/>
  <g id="g34781" stroke-linejoin="miter" stroke-dashoffset="0" transform="matrix(1.2828283,0,0,1.2828283,-1.9964641,-31.376768)" stroke="#000" stroke-linecap="butt" stroke-dasharray="none" stroke-miterlimit="4" stroke-width="0.40000001" fill="#00b4ff">
   <path id="path34749" opacity="0.69972977" d="m13.4,20.95a4.75,4.75,0,0,1,-4.75,4.75,4.75,4.75,0,0,1,-4.75,-4.75,4.75,4.75,0,0,1,4.75,-4.75,4.75,4.75,0,0,1,4.75,4.75z" transform="translate(0,96)"/>
   <path id="path34755" opacity="0.69972977" d="M7.2,21.606,6.7786,18.521,3.6943,18.1,6.7786,17.679,7.2,14.594,7.6214,17.679,10.706,18.1,7.6214,18.521z" transform="translate(1.4499998,98.85)"/>
   <path id="path34757" opacity="0.69972977" d="M8.5031,21.203,6.9,19.985,5.2969,21.203,6.5146,19.6,5.2969,17.997,6.9,19.215,8.5031,17.997,7.2854,19.6z" transform="translate(1.7499995,97.35)"/>
  </g>
  <path id="path34796" stroke-linejoin="miter" d="m15.1,98.2,9.8,0" stroke-opacity="0.84745765" stroke="#606e29" stroke-linecap="butt" stroke-width="1px" fill="none"/>
  <path id="path34796-4" stroke-linejoin="miter" d="m15.1,100.7,9.8,0" stroke-opacity="0.84745765" stroke="#606e29" stroke-linecap="butt" stroke-width="1px" fill="none"/>
  <path id="path34796-0" stroke-linejoin="miter" d="m3.1,108.9,9.8,0" stroke-opacity="0.84745765" stroke="#606e29" stroke-linecap="butt" stroke-width="1px" fill="none"/>
  <text id="text34829" font-weight="normal" xml:space="preserve" font-size="3.16305971px" font-style="normal" y="104.96009" x="11.898683" font-family="Bitstream Vera Sans" fill="#0f117b"><tspan id="tspan34837" y="104.96009" x="11.898683">4.6Kts</tspan></text>
  <text id="text34833" font-weight="normal" xml:space="preserve" font-size="5.22763062000000023px" font-style="normal" y="122.79238" x="17.020205" font-family="Bitstream Vera Sans" fill="#940f15"><tspan id="tspan34835" y="122.79238" x="17.020205">176°</tspan></text>
 </g>
</svg>
