<?xml version="1.0" encoding="UTF-8" standalone="no"?>
<svg id="svg2" xmlns:rdf="http://www.w3.org/1999/02/22-rdf-syntax-ns#" xmlns="http://www.w3.org/2000/svg" viewBox="0 0 32 32" version="1.0" xmlns:cc="http://creativecommons.org/ns#" xmlns:xlink="http://www.w3.org/1999/xlink" xmlns:dc="http://purl.org/dc/elements/1.1/">
 <defs id="defs4">
  <linearGradient id="E" y2="1055.4" gradientUnits="userSpaceOnUse" x2="73.009" gradientTransform="matrix(1.03294,0,0,1.03294,-59.414,-1122.2035)" y1="1086.4" x1="73.009">
   <stop id="stop4324" stop-color="#fff" offset="0"/>
   <stop id="stop4326" stop-color="#939393" offset="1"/>
  </linearGradient>
  <linearGradient id="F" y2="1070.9" gradientUnits="userSpaceOnUse" x2="73.009" gradientTransform="matrix(1.03294,0,0,1.03294,-59.414,-1090.2035)" y1="1086.4" x1="73.009">
   <stop id="stop3461" stop-color="#FFF" offset="0"/>
   <stop id="stop3463" stop-color="#FFF" stop-opacity="0" offset="1"/>
  </linearGradient>
 </defs>
 <metadata id="metadata7">
  <rdf:RDF>
   <cc:Work rdf:about="">
    <dc:format>image/svg+xml</dc:format>
    <dc:type rdf:resource="http://purl.org/dc/dcmitype/StillImage"/>
    <dc:title/>
   </cc:Work>
  </rdf:RDF>
 </metadata>
 <g id="g4276" transform="translate(-2.5001168e-4,-2.5e-4)">
  <rect id="rect4364" style="enable-background:new;" transform="scale(1,-1)" ry="3.878" width="32" y="-32" x="0" height="32" fill="url(#E)"/>
  <rect id="rect4366" style="enable-background:new;" ry="3.878" height="32" width="32" y="0.00050004" x="0" fill="url(#F)"/>
  <rect id="rect4426" stroke-linejoin="round" style="enable-background:new;" ry="3.755" height="30.979" width="30.979" stroke="#939393" stroke-linecap="round" y="0.5105" x="0.511" stroke-width="1.021" fill="none"/>
 </g>
 <rect id="rect4709" style="enable-background:new;" ry="3.6856" height="30.413" width="30.237" y="0.74003" x="0.94038" fill="#80c860"/>
 <path id="path4747" opacity="0.9956896" fill-opacity="0" d="m-40.735,7.5525,0-0.74576,14.915,0,14.915,0,0,0.74576,0,0.74576-14.915,0-14.915,0,0-0.74576z"/>
 <path id="path4749" opacity="0.9956896" fill-opacity="0" d="m-40.735,13.654,0-1.5593,14.915,0,14.915,0,0,1.5593,0,1.5593-14.915,0-14.915,0,0-1.5593z"/>
 <rect id="rect4913" opacity="0.99569" fill-opacity="0" ry="2.6441" height="5.2881" width="22.644" y="-13.695" x="-33.898"/>
 <g id="g34781" stroke-linejoin="miter" stroke-dashoffset="0" transform="matrix(1.2828283,0,0,1.2828283,-1.9964641,-127.37677)" stroke="#000" stroke-linecap="butt" stroke-dasharray="none" stroke-miterlimit="4" stroke-width="0.40000001" fill="#00b4ff">
  <path id="path34749" opacity="0.69972977" d="m13.4,20.95a4.75,4.75,0,0,1,-4.75,4.75,4.75,4.75,0,0,1,-4.75,-4.75,4.75,4.75,0,0,1,4.75,-4.75,4.75,4.75,0,0,1,4.75,4.75z" transform="translate(0,96)"/>
  <path id="path34757" opacity="0.69972977" d="M8.5031,21.203,6.9,19.985,5.2969,21.203,6.5146,19.6,5.2969,17.997,6.9,19.215,8.5031,17.997,7.2854,19.6z" transform="translate(1.7499995,97.35)"/>
  <path id="path34755" opacity="0.69972977" d="M7.2,21.606,6.7786,18.521,3.6943,18.1,6.7786,17.679,7.2,14.594,7.6214,17.679,10.706,18.1,7.6214,18.521z" transform="translate(1.4499998,98.85)"/>
 </g>
 <text id="text34833" font-weight="normal" xml:space="preserve" font-size="5.22763062px" font-style="normal" y="26.792381" x="17.020205" font-family="Bitstream Vera Sans" fill="#940f15"><tspan id="tspan34835" y="26.792381" x="17.020205">176°</tspan></text>
 <text id="text34829" font-weight="normal" xml:space="preserve" font-size="3.16305971px" font-style="normal" y="8.9600906" x="11.898683" font-family="Bitstream Vera Sans" fill="#0f117b"><tspan id="tspan34837" y="8.9600906" x="11.898683">4.6Kts</tspan></text>
 <path id="path34796-4" stroke-linejoin="miter" d="m15.1,4.7,9.8,0" stroke-opacity="0.84745765" stroke="#606e29" stroke-linecap="butt" stroke-width="1px" fill="none"/>
 <path id="path34796" stroke-linejoin="miter" d="m15.1,2.2,9.8,0" stroke-opacity="0.84745765" stroke="#606e29" stroke-linecap="butt" stroke-width="1px" fill="none"/>
 <path id="path34796-0" stroke-linejoin="miter" d="m3.1,12.9,9.8,0" stroke-opacity="0.84745765" stroke="#606e29" stroke-linecap="butt" stroke-width="1px" fill="none"/>
 <path id="path34741-0" stroke-linejoin="miter" d="M6.6693,6.3398,8.2641,3.9062" stroke="#000" stroke-linecap="butt" stroke-miterlimit="4" stroke-dasharray="none" stroke-width="0.30219448" fill="none"/>
 <path id="path34749-4-9" opacity="0.69972977" stroke-linejoin="miter" d="M11.018,6.4a4.3182,4.3182,0,0,1,-4.318,4.318,4.3182,4.3182,0,0,1,-4.3182,-4.318,4.3182,4.3182,0,0,1,4.3182,-4.3182,4.3182,4.3182,0,0,1,4.318,4.3182z" stroke-dashoffset="0" stroke="#000" stroke-linecap="butt" stroke-miterlimit="4" stroke-dasharray="none" stroke-width="0.36363637" fill="#0F5"/>
 <path id="path34741" stroke-linejoin="miter" d="m22.668,15.902-2.9558,2.8629" stroke="#000" stroke-linecap="butt" stroke-miterlimit="4" stroke-dasharray="none" stroke-width="0.44621837" fill="none"/>
 <path id="path34749-4" opacity="0.69972977" stroke-linejoin="miter" d="M29.291,15.55a6.1414,6.1414,0,0,1,-6.141,6.141,6.1414,6.1414,0,0,1,-6.141,-6.141,6.1414,6.1414,0,0,1,6.141,-6.1414,6.1414,6.1414,0,0,1,6.141,6.1414z" stroke-dashoffset="0" stroke="#000" stroke-linecap="butt" stroke-miterlimit="4" stroke-dasharray="none" stroke-width="0.51717174" fill="#e3ff00"/>
</svg>
