<svg xmlns="http://www.w3.org/2000/svg" xmlns:xlink="http://www.w3.org/1999/xlink" clip-rule="evenodd" fill-rule="evenodd" image-rendering="optimizeQuality" shape-rendering="geometricPrecision" text-rendering="geometricPrecision" viewBox="0 0 500 500"><defs><linearGradient id="a"><stop offset="0" stop-color="#ebff00" stop-opacity=".974"/><stop offset="1" stop-color="#00bd00"/></linearGradient><linearGradient gradientUnits="userSpaceOnUse" id="b" x1="449.998" x2="50" y1="249.999" y2="249.999"><stop offset="0" stop-color="#008BFF"/><stop offset="1" stop-color="#0af"/></linearGradient><linearGradient xlink:href="#a" id="c" x1="82.627" y1="78.39" x2="402.542" y2="385.593" gradientUnits="userSpaceOnUse"/></defs><path d="M440 190H310V60c0-5-4-10-10-10H200c-6 0-10 5-10 10v130H60c-5 0-10 4-10 10v100c0 6 5 10 10 10h130v130c0 5 4 10 10 10h100c6 0 10-5 10-10V310h130c5 0 10-4 10-10V200c0-6-5-10-10-10z" fill="url(#b)" stroke="#434242" stroke-width="10" stroke-linejoin="round"/><path d="M197.2 441.88c-.552-1.477-1.243-32.717-1.538-69.422l-.535-66.738-68.856-1.059-68.856-1.06-.566-53.495-.566-53.496h67.41c49.604 0 68.08-.671 69.951-2.542 1.87-1.871 2.542-20.347 2.542-69.952v-67.41l53.496.567 53.496.566.559 68.326c.307 37.58.784 68.532 1.06 68.782.274.251 31.485.966 69.356 1.59l68.855 1.132V303.602l-68.855 1.059-68.856 1.06-1.06 68.855-1.059 68.856-52.489.567c-40.854.441-52.71-.028-53.49-2.119z" fill="url(#c)" stroke="#000" stroke-width=".212"/></svg>