<?xml version="1.0" encoding="UTF-8" standalone="no"?>
<svg
   xmlns:dc="http://purl.org/dc/elements/1.1/"
   xmlns:cc="http://creativecommons.org/ns#"
   xmlns:rdf="http://www.w3.org/1999/02/22-rdf-syntax-ns#"
   xmlns:svg="http://www.w3.org/2000/svg"
   xmlns="http://www.w3.org/2000/svg"
   xmlns:xlink="http://www.w3.org/1999/xlink"
   xmlns:sodipodi="http://sodipodi.sourceforge.net/DTD/sodipodi-0.dtd"
   xmlns:inkscape="http://www.inkscape.org/namespaces/inkscape"
   clip-rule="evenodd"
   fill-rule="evenodd"
   image-rendering="optimizeQuality"
   shape-rendering="geometricPrecision"
   text-rendering="geometricPrecision"
   viewBox="0 0 500 500"
   id="svg2"
   version="1.1"
   inkscape:version="0.48.3.1 r9886"
   width="100%"
   height="100%"
   sodipodi:docname="plus.svg">
  <metadata
     id="metadata16">
    <rdf:RDF>
      <cc:Work
         rdf:about="">
        <dc:format>image/svg+xml</dc:format>
        <dc:type
           rdf:resource="http://purl.org/dc/dcmitype/StillImage" />
      </cc:Work>
    </rdf:RDF>
  </metadata>
  <sodipodi:namedview
     pagecolor="#ffffff"
     bordercolor="#666666"
     borderopacity="1"
     objecttolerance="10"
     gridtolerance="10"
     guidetolerance="10"
     inkscape:pageopacity="0"
     inkscape:pageshadow="2"
     inkscape:window-width="1226"
     inkscape:window-height="740"
     id="namedview14"
     showgrid="false"
     inkscape:zoom="0.472"
     inkscape:cx="250"
     inkscape:cy="250"
     inkscape:window-x="0"
     inkscape:window-y="0"
     inkscape:window-maximized="0"
     inkscape:current-layer="svg2" />
  <defs
     id="defs4">
    <linearGradient
       id="linearGradient3763">
      <stop
         id="stop3771"
         offset="0"
         style="stop-color:#ebff00;stop-opacity:0.97391301;" />
      <stop
         style="stop-color:#00bd00;stop-opacity:1;"
         offset="1"
         id="stop3767" />
    </linearGradient>
    <style
       type="text/css"
       id="style6">
    .str0 {stroke:#434242;stroke-width:10;stroke-linejoin:round}
    .fil0 {fill:url(#id0)}
   </style>
    <linearGradient
       gradientUnits="userSpaceOnUse"
       id="id0"
       x1="449.998"
       x2="50"
       y1="249.999"
       y2="249.999">
      <stop
         offset="0"
         stop-color="#008BFF"
         id="stop9" />
      <stop
         offset="1"
         stop-color="#0af"
         id="stop11" />
    </linearGradient>
    <linearGradient
       inkscape:collect="always"
       xlink:href="#linearGradient3763"
       id="linearGradient3769"
       x1="82.627121"
       y1="78.389832"
       x2="402.54236"
       y2="385.59323"
       gradientUnits="userSpaceOnUse" />
  </defs>
  <path
     class="fil0 str0"
     d="M440 190h-130v-130c0-5-4-10-10-10h-100c-6 0-10 5-10 10v130h-130c-5 0-10 4-10 10v100c0 6 5 10 10 10h130v130c0 5 4 10 10 10h100c6 0 10-5 10-10v-130h130c5 0 10-4 10-10v-100c0-6-5-10-10-10z"
     id="Layer_x0020_1" />
  <path
     style="fill:url(#linearGradient3769);fill-opacity:1;stroke:#000000;stroke-width:0.21199999999999999;stroke-miterlimit:4;stroke-opacity:1;stroke-dasharray:none"
     d="m 197.19913,441.88034 c -0.5508,-1.47697 -1.24233,-32.7172 -1.53673,-69.42271 l -0.53528,-66.73729 -68.85593,-1.05932 -68.855936,-1.05933 -0.56604,-53.49576 -0.56604,-53.49576 67.409256,0 c 49.60457,0 68.08078,-0.67151 69.95164,-2.54237 1.87086,-1.87086 2.54237,-20.34707 2.54237,-69.95164 l 0,-67.409258 53.49576,0.566041 53.49577,0.56604 0.559,68.326267 c 0.30746,37.57945 0.78415,68.53145 1.05932,68.78221 0.27517,0.25077 31.48549,0.96581 69.35625,1.58898 l 68.85593,1.13305 0,52.9661 0,52.9661 -68.85593,1.05933 -68.85593,1.05932 -1.05932,68.85593 -1.05932,68.85593 -52.48869,0.56678 c -40.85422,0.44117 -52.71067,-0.0284 -53.49015,-2.11864 z"
     id="path2993"
     inkscape:connector-curvature="0" />
</svg>
