<?xml version="1.0" encoding="UTF-8" standalone="no"?>
<svg
   xmlns:serif="http://www.serif.com/"
   xmlns:dc="http://purl.org/dc/elements/1.1/"
   xmlns:cc="http://creativecommons.org/ns#"
   xmlns:rdf="http://www.w3.org/1999/02/22-rdf-syntax-ns#"
   xmlns:svg="http://www.w3.org/2000/svg"
   xmlns="http://www.w3.org/2000/svg"
   xmlns:sodipodi="http://sodipodi.sourceforge.net/DTD/sodipodi-0.dtd"
   xmlns:inkscape="http://www.inkscape.org/namespaces/inkscape"
   width="100%"
   height="100%"
   viewBox="0 0 32 32"
   version="1.1"
   xml:space="preserve"
   style="fill-rule:evenodd;clip-rule:evenodd;"
   id="svg8"
   sodipodi:docname="weather_routing_pi_toggled.svg"
   inkscape:version="1.0 (4035a4fb49, 2020-05-01)"><metadata
     id="metadata14"><rdf:RDF><cc:Work
         rdf:about=""><dc:format>image/svg+xml</dc:format><dc:type
           rdf:resource="http://purl.org/dc/dcmitype/StillImage" /></cc:Work></rdf:RDF></metadata><defs
     id="defs12" /><sodipodi:namedview
     inkscape:document-rotation="0"
     pagecolor="#ffffff"
     bordercolor="#666666"
     borderopacity="1"
     objecttolerance="10"
     gridtolerance="10"
     guidetolerance="10"
     inkscape:pageopacity="0"
     inkscape:pageshadow="2"
     inkscape:window-width="1920"
     inkscape:window-height="1011"
     id="namedview10"
     showgrid="false"
     inkscape:zoom="26.25"
     inkscape:cx="16"
     inkscape:cy="16"
     inkscape:window-x="-9"
     inkscape:window-y="-9"
     inkscape:window-maximized="1"
     inkscape:current-layer="g1806" /><g
     id="g4276"><rect
       id="g42761"
       serif:id="g4276"
       x="0.0020000001"
       y="-0.037999999"
       width="32.021999"
       height="32.154999"
       style="fill:#282828" /></g><g
     id="g1806"><circle
       id="circle2"
       cx="15.754"
       cy="16"
       r="13.517"
       style="fill:#888888;fill-opacity:1" /><path
       id="path4"
       d="m 22.693,4.574 c 0.056,-0.02 0.102,-0.052 0.149,-0.083 -2.061,-1.272 -4.488,-2.008 -7.088,-2.008 -2.859,0 -5.509,0.89 -7.692,2.405 0.011,0.054 0.026,0.107 0.05,0.159 0.922,1.986 2.108,5.358 4.134,6.135 0.985,0.377 1.895,0.235 2.829,0.693 0.099,0.048 0.245,0.162 0.308,0.254 0.474,0.694 0.201,1.711 0.672,1.96 0.372,0.196 0.584,0.598 0.425,0.989 -0.649,1.593 -0.088,3.415 1.422,4.665 1.063,0.88 0.179,2.92 -0.715,4.521 -0.32,0.573 0.25,1.235 0.867,1.015 0.977,-0.348 1.786,-0.851 2.722,-1.657 1.358,-1.167 1.652,-2.44 2.998,-3.431 0.014,-0.011 0.026,-0.025 0.032,-0.042 0.344,-1.009 1.412,-3.21 0.334,-3.771 -1.007,-0.523 -1.384,-2.037 -2.366,-3.069 -0.113,-0.119 -0.273,-0.177 -0.435,-0.198 -1.205,-0.156 -1.746,-1.071 -2.557,-0.462 -0.607,0.456 -1.289,0.178 -1.501,-0.551 -0.069,-0.238 -0.19,-0.45 -0.627,-0.585 -0.332,-0.102 -0.493,-0.478 -0.374,-0.804 0.002,-0.004 0.003,-0.01 0.005,-0.014 0.16,-0.436 -0.741,-0.369 -1.198,-0.293 -0.128,0.022 0.307,-0.496 0.164,-0.412 -0.563,0.332 -1.262,-0.242 -1.232,-0.895 0.031,-0.662 0.154,-0.63 1.29,-0.761 1.222,-0.569 1.813,-0.154 1.774,1.244 0.756,0.111 1.019,-0.222 0.792,-1.002 -0.067,-0.228 -0.013,-0.482 0.131,-0.67 1.393,-1.811 2.556,-2.601 4.687,-3.332 z"
       style="display:inline;fill:#0b0b0b;fill-rule:nonzero;fill-opacity:1" /><path
       id="path848"
       d="m 15.869,14.969 -5.04,5.04 1.489,0.917 -0.917,2.634 6.071,2.52 h 4.926 l -0.802,-1.603 2.52,-1.948 -0.801,-1.374"
       style="fill:none;stroke:#ffffff;stroke-width:1.03px" /></g></svg>
