<?xml version="1.0" encoding="utf-8"?>
<!-- Generator: Adobe Illustrator 15.1.0, SVG Export Plug-In . SVG Version: 6.00 Build 0)  -->
<!DOCTYPE svg PUBLIC "-//W3C//DTD SVG 1.1//EN" "http://www.w3.org/Graphics/SVG/1.1/DTD/svg11.dtd">
<svg version="1.1" id="Layer_1" xmlns="http://www.w3.org/2000/svg" xmlns:xlink="http://www.w3.org/1999/xlink" x="0px" y="0px"
	 width="512px" height="512px" viewBox="0 0 512 512" enable-background="new 0 0 512 512" xml:space="preserve">
<g id="Grid_1_">
	<g id="Layer_1_1_">
		<g id="Grid">
			<g>
				<rect fill="none" stroke="#A9CCDB" stroke-miterlimit="10" width="512" height="512"/>
				<line fill="none" stroke="#A9CCDB" stroke-miterlimit="10" x1="0" y1="480" x2="512" y2="480"/>
				<line fill="none" stroke="#A9CCDB" stroke-miterlimit="10" x1="0" y1="448" x2="512" y2="448"/>
				<line fill="none" stroke="#A9CCDB" stroke-miterlimit="10" x1="0" y1="416" x2="512" y2="416"/>
				<line fill="none" stroke="#A9CCDB" stroke-miterlimit="10" x1="0" y1="384" x2="512" y2="384"/>
				<line fill="none" stroke="#A9CCDB" stroke-miterlimit="10" x1="0" y1="352" x2="512" y2="352"/>
				<line fill="none" stroke="#A9CCDB" stroke-miterlimit="10" x1="0" y1="320" x2="512" y2="320"/>
				<line fill="none" stroke="#A9CCDB" stroke-miterlimit="10" x1="0" y1="288" x2="512" y2="288"/>
				<line fill="none" stroke="#A9CCDB" stroke-miterlimit="10" x1="0" y1="256" x2="512" y2="256"/>
				<line fill="none" stroke="#A9CCDB" stroke-miterlimit="10" x1="0" y1="224" x2="512" y2="224"/>
				<line fill="none" stroke="#A9CCDB" stroke-miterlimit="10" x1="0" y1="192" x2="512" y2="192"/>
				<line fill="none" stroke="#A9CCDB" stroke-miterlimit="10" x1="0" y1="160" x2="512" y2="160"/>
				<line fill="none" stroke="#A9CCDB" stroke-miterlimit="10" x1="0" y1="128" x2="512" y2="128"/>
				<line fill="none" stroke="#A9CCDB" stroke-miterlimit="10" x1="0" y1="96" x2="512" y2="96"/>
				<line fill="none" stroke="#A9CCDB" stroke-miterlimit="10" x1="0" y1="64" x2="512" y2="64"/>
				<line fill="none" stroke="#A9CCDB" stroke-miterlimit="10" x1="0" y1="32" x2="512" y2="32"/>
				<line fill="none" stroke="#A9CCDB" stroke-miterlimit="10" x1="480" y1="0" x2="480" y2="512"/>
				<line fill="none" stroke="#A9CCDB" stroke-miterlimit="10" x1="448" y1="0" x2="448" y2="512"/>
				<line fill="none" stroke="#A9CCDB" stroke-miterlimit="10" x1="416" y1="0" x2="416" y2="512"/>
				<line fill="none" stroke="#A9CCDB" stroke-miterlimit="10" x1="384" y1="0" x2="384" y2="512"/>
				<line fill="none" stroke="#A9CCDB" stroke-miterlimit="10" x1="352" y1="0" x2="352" y2="512"/>
				<line fill="none" stroke="#A9CCDB" stroke-miterlimit="10" x1="320" y1="0" x2="320" y2="512"/>
				<line fill="none" stroke="#A9CCDB" stroke-miterlimit="10" x1="288" y1="0" x2="288" y2="512"/>
				<line fill="none" stroke="#A9CCDB" stroke-miterlimit="10" x1="256" y1="0" x2="256" y2="512"/>
				<line fill="none" stroke="#A9CCDB" stroke-miterlimit="10" x1="224" y1="0" x2="224" y2="512"/>
				<line fill="none" stroke="#A9CCDB" stroke-miterlimit="10" x1="192" y1="0" x2="192" y2="512"/>
				<line fill="none" stroke="#A9CCDB" stroke-miterlimit="10" x1="160" y1="0" x2="160" y2="512"/>
				<line fill="none" stroke="#A9CCDB" stroke-miterlimit="10" x1="128" y1="0" x2="128" y2="512"/>
				<line fill="none" stroke="#A9CCDB" stroke-miterlimit="10" x1="96" y1="0" x2="96" y2="512"/>
				<line fill="none" stroke="#A9CCDB" stroke-miterlimit="10" x1="64" y1="0" x2="64" y2="512"/>
				<line fill="none" stroke="#A9CCDB" stroke-miterlimit="10" x1="32" y1="0" x2="32" y2="512"/>
			</g>
		</g>
	</g>
</g>
<g>
	<g>
		<path fill="#1D1D1B" d="M208,64c8.833,0,16-7.167,16-16V16c0-8.833-7.167-16-16-16s-16,7.167-16,16v32
			C192,56.833,199.167,64,208,64z M332.438,106.167l22.625-22.625c6.249-6.25,6.249-16.375,0-22.625
			c-6.25-6.25-16.375-6.25-22.625,0l-22.625,22.625c-6.25,6.25-6.25,16.375,0,22.625
			C316.062,112.417,326.188,112.417,332.438,106.167z M16,224h32c8.833,0,16-7.167,16-16s-7.167-16-16-16H16
			c-8.833,0-16,7.167-16,16S7.167,224,16,224z M352,208c0,8.833,7.167,16,16,16h32c8.833,0,16-7.167,16-16s-7.167-16-16-16h-32
			C359.167,192,352,199.167,352,208z M83.541,106.167c6.251,6.25,16.376,6.25,22.625,0c6.251-6.25,6.251-16.375,0-22.625
			L83.541,60.917c-6.25-6.25-16.374-6.25-22.625,0c-6.25,6.25-6.25,16.375,0,22.625L83.541,106.167z M400,256
			c-5.312,0-10.562,0.375-15.792,1.125c-16.771-22.875-39.124-40.333-64.458-51.5C318.459,145,268.938,96,208,96
			c-61.75,0-112,50.25-112,112c0,17.438,4.334,33.75,11.5,48.438C47.875,258.875,0,307.812,0,368c0,61.75,50.25,112,112,112
			c13.688,0,27.084-2.5,39.709-7.333C180.666,497.917,217.5,512,256,512c38.542,0,75.333-14.083,104.291-39.333
			C372.916,477.5,386.312,480,400,480c61.75,0,112-50.25,112-112S461.75,256,400,256z M208,128c39.812,0,72.562,29.167,78.708,67.25
			c-10.021-2-20.249-3.25-30.708-3.25c-45.938,0-88.5,19.812-118.375,53.25C131.688,234.083,128,221.542,128,208
			C128,163.812,163.812,128,208,128z M400,448c-17.125,0-32.916-5.5-45.938-14.667C330.584,461.625,295.624,480,256,480
			c-39.625,0-74.584-18.375-98.062-46.667C144.938,442.5,129.125,448,112,448c-44.188,0-80-35.812-80-80s35.812-80,80-80
			c7.75,0,15.062,1.458,22.125,3.541c2.812,0.792,5.667,1.417,8.312,2.521c4.375-8.562,9.875-16.396,15.979-23.75
			C181.792,242.188,216.562,224,256,224c10.125,0,19.834,1.458,29.25,3.709c10.562,2.499,20.542,6.291,29.834,11.291
			c23.291,12.375,42.416,31.542,54.457,55.063C378.938,290.188,389.209,288,400,288c44.188,0,80,35.812,80,80S444.188,448,400,448z"
			/>
	</g>
</g>
</svg>
