<?xml version="1.0" encoding="UTF-8" standalone="no"?>
<svg
   xmlns:osb="http://www.openswatchbook.org/uri/2009/osb"
   xmlns:dc="http://purl.org/dc/elements/1.1/"
   xmlns:cc="http://creativecommons.org/ns#"
   xmlns:rdf="http://www.w3.org/1999/02/22-rdf-syntax-ns#"
   xmlns:svg="http://www.w3.org/2000/svg"
   xmlns="http://www.w3.org/2000/svg"
   xmlns:sodipodi="http://sodipodi.sourceforge.net/DTD/sodipodi-0.dtd"
   xmlns:inkscape="http://www.inkscape.org/namespaces/inkscape"
   width="24"
   height="24"
   viewBox="0 0 24 24"
   fill="none"
   stroke="currentColor"
   stroke-width="2"
   stroke-linecap="round"
   stroke-linejoin="round"
   id="svg2"
   version="1.1"
   inkscape:version="0.91 r13725"
   sodipodi:docname="wmm_pi.svg">
  <metadata
     id="metadata14">
    <rdf:RDF>
      <cc:Work
         rdf:about="">
        <dc:format>image/svg+xml</dc:format>
        <dc:type
           rdf:resource="http://purl.org/dc/dcmitype/StillImage" />
        <dc:title></dc:title>
      </cc:Work>
    </rdf:RDF>
  </metadata>
  <defs
     id="defs12">
    <linearGradient
       id="linearGradient3754"
       osb:paint="gradient">
      <stop
         style="stop-color:#000000;stop-opacity:1;"
         offset="0"
         id="stop3756" />
      <stop
         style="stop-color:#000000;stop-opacity:0;"
         offset="1"
         id="stop3758" />
    </linearGradient>
  </defs>
  <sodipodi:namedview
     pagecolor="#ffffff"
     bordercolor="#666666"
     borderopacity="1"
     objecttolerance="10"
     gridtolerance="10"
     guidetolerance="10"
     inkscape:pageopacity="0"
     inkscape:pageshadow="2"
     inkscape:window-width="1406"
     inkscape:window-height="895"
     id="namedview10"
     showgrid="false"
     inkscape:zoom="13.906433"
     inkscape:cx="-3.6842571"
     inkscape:cy="8.2811651"
     inkscape:window-x="0"
     inkscape:window-y="0"
     inkscape:window-maximized="0"
     inkscape:current-layer="svg2" />
  <rect
     style="fill:#282828;fill-opacity:1;stroke-width:0;stroke-miterlimit:4;stroke-dasharray:none"
     id="rect5277"
     width="24.16148"
     height="24.305298"
     x="-0.071909167"
     y="-0.089570634" />
  <path
     style="fill:#b4b4b4;fill-opacity:1;stroke-width:0;stroke-miterlimit:4;stroke-dasharray:none"
     d="M 10.552237,18.699896 C 9.7728286,16.206556 9.3007849,14.774308 9.2495857,14.747468 9.2054245,14.72432 7.4567188,14.172384 5.3635745,13.520949 3.270431,12.869514 1.5416436,12.321362 1.5218247,12.302833 1.5020067,12.284302 3.2488445,11.717838 5.4036884,11.044018 L 9.3215875,9.8188903 10.54662,5.8963348 c 0.673768,-2.1574053 1.240167,-3.9051675 1.258663,-3.8839149 0.0185,0.021249 0.577022,1.784835 1.241169,3.9190725 0.664147,2.1342384 1.213017,3.8843892 1.219711,3.8892258 0.0067,0.00486 1.765799,0.5560498 3.909121,1.2249208 2.143322,0.668871 3.896858,1.229518 3.896749,1.245884 -1.05e-4,0.01636 -1.752536,0.575952 -3.894281,1.243527 -2.141746,0.667574 -3.901653,1.221343 -3.910906,1.230595 -0.0093,0.0093 -0.563825,1.768099 -1.232382,3.908547 -0.668557,2.140449 -1.225529,3.901695 -1.237715,3.913882 -0.01219,0.01219 -0.572217,-1.737494 -1.244512,-3.888178 z"
     id="path4947"
     inkscape:connector-curvature="0" />
  <path
     style="fill:#b4b4b4;fill-opacity:1;stroke-width:0;stroke-miterlimit:4;stroke-dasharray:none"
     d="M 10.389206,24.384682 C 8.5641886,24.164777 6.5464121,23.423384 5.07179,22.430902 2.1693251,20.477423 0.28412847,17.516465 -0.25409315,14.065878 c -0.1307313,-0.838129 -0.1319256,-2.707912 -0.00225,-3.543192 C 0.16209565,7.8271219 1.3953657,5.4382897 3.3422357,3.5522803 6.4678277,0.52439503 10.829617,-0.58043005 15.057524,0.58484083 19.232536,1.7355331 22.506477,5.0810644 23.57649,9.290089 c 0.279582,1.099771 0.362609,1.787854 0.362609,3.005123 0,1.217268 -0.08302,1.905351 -0.362609,3.005123 -0.871905,3.429743 -3.239521,6.345126 -6.409969,7.892963 -1.179319,0.575752 -2.079404,0.870468 -3.362584,1.101016 -0.690985,0.124147 -2.694371,0.177166 -3.414718,0.09037 z m 2.345989,-1.664588 c 3.670923,-0.344276 6.879879,-2.564926 8.472689,-5.863236 0.716742,-1.484194 1.041601,-2.906899 1.041601,-4.561646 0,-6.6516935 -6.063198,-11.59354127 -12.5901428,-10.2616772 C 8.1071776,2.3502637 6.4636661,3.1297735 5.2011668,4.1480254 4.7021447,4.5505054 3.8033894,5.4811324 3.4191623,5.9932243 2.3622995,7.4017945 1.6881816,9.0267121 1.4211012,10.809418 c -0.1149255,0.767106 -0.1146537,2.208122 5.589e-4,2.969809 0.8375543,5.537169 5.7989365,9.458054 11.3135349,8.940867 z"
     id="path4949"
     inkscape:connector-curvature="0" />
  <path
     style="fill:#b4b4b4;fill-opacity:1;stroke-width:0;stroke-miterlimit:4;stroke-dasharray:none"
     d="M 15.75405,8.8672186 15.332121,8.7394015 15.212677,8.3260369 c -0.06569,-0.2273499 -0.110424,-0.4218948 -0.0994,-0.4323204 0.08851,-0.083718 2.939595,-1.8978192 2.95634,-1.8810747 0.01486,0.014859 -1.807485,2.8870785 -1.888993,2.9772567 -0.0025,0.00279 -0.194512,-0.05238 -0.426573,-0.1226799 z"
     id="path4951"
     inkscape:connector-curvature="0" />
  <path
     style="fill:#b4b4b4;fill-opacity:1;stroke-width:0;stroke-miterlimit:4;stroke-dasharray:none"
     d="M 6.4479422,7.512751 C 5.9203559,6.6976885 5.4809318,6.0094252 5.471444,5.9832784 5.459294,5.9497984 8.3042506,7.7571073 8.476489,7.8922846 8.499673,7.9104826 8.2714924,8.6639248 8.2281583,8.7122476 8.2082863,8.7344056 8.0154433,8.8070158 7.7996116,8.8736068 L 7.40719,8.9946829 6.4479422,7.512751 Z"
     id="path4953"
     inkscape:connector-curvature="0" />
  <path
     style="fill:#b4b4b4;fill-opacity:1;stroke-width:0;stroke-miterlimit:4;stroke-dasharray:none"
     d="m 5.5274033,18.486017 c 0.042219,-0.06451 0.4700628,-0.727257 0.9507582,-1.47276 0.4806954,-0.745503 0.8891117,-1.372272 0.9075905,-1.392819 0.03762,-0.04183 0.7665903,0.176396 0.836928,0.25054 0.024777,0.02612 0.093642,0.211459 0.1530369,0.411873 0.084915,0.286511 0.094345,0.377321 0.044145,0.42489 -0.084519,0.08009 -2.8988432,1.895576 -2.9384765,1.895576 -0.016911,0 0.00378,-0.05279 0.046017,-0.1173 z"
     id="path4955"
     inkscape:connector-curvature="0" />
  <path
     style="fill:#b4b4b4;fill-opacity:1;stroke-width:0;stroke-miterlimit:4;stroke-dasharray:none"
     d="m 16.64531,17.684516 c -0.774104,-0.503314 -1.440869,-0.933813 -1.4817,-0.956663 -0.06279,-0.03514 -0.05572,-0.106574 0.04587,-0.463369 l 0.120109,-0.421823 0.421388,-0.128995 c 0.231762,-0.07095 0.425275,-0.124272 0.430027,-0.1185 0.0048,0.0058 0.401863,0.620454 0.882469,1.365957 0.480607,0.745504 0.919003,1.419976 0.974214,1.498827 0.05521,0.07885 0.08119,0.142538 0.05773,0.141524 -0.02345,-9.9e-4 -0.676007,-0.413643 -1.450111,-0.916958 z"
     id="path4957"
     inkscape:connector-curvature="0" />
  <path
     style="fill:#282828;fill-opacity:1;stroke-width:0;stroke-miterlimit:4;stroke-dasharray:none"
     d="M 10.857598,22.693031 C 8.3917172,22.46314 6.2267488,21.441728 4.4677785,19.678371 3.1908582,18.398267 2.4330713,17.177561 1.8808801,15.511181 1.4622728,14.247926 1.3525112,13.437509 1.3993368,11.955744 1.4410639,10.635322 1.5358848,10.064322 1.8905575,8.9976728 2.4359291,7.3575117 3.1145723,6.2773411 4.4281709,4.9586502 5.9823206,3.3984756 7.6225943,2.4967549 9.7227273,2.0480314 10.793966,1.8191458 12.813505,1.8162848 13.837565,2.042202 c 2.027796,0.447351 3.698597,1.3244946 5.130562,2.6934623 1.88549,1.8025403 2.940496,3.9857234 3.202514,6.6271447 0.364393,3.673455 -1.378053,7.400614 -4.447603,9.513594 -1.960354,1.349446 -4.543893,2.033062 -6.86544,1.816628 z m 1.108933,-0.520348 c 0.13169,-0.453263 2.298257,-7.34531 2.316788,-7.369913 0.0105,-0.01394 5.594917,-1.782749 7.364018,-2.332483 0.252016,-0.07831 0.429991,-0.168205 0.3955,-0.199761 -0.05396,-0.04937 -1.301301,-0.447754 -6.78622,-2.167431 L 14.285843,9.7987302 13.878741,8.4981644 c -1.543568,-4.9312233 -2.031898,-6.4420711 -2.08218,-6.4420711 -0.06023,0 -0.273701,0.6518671 -1.64213,5.0144262 -0.4619056,1.4725582 -0.8548,2.6923496 -0.8730987,2.7106483 -0.018298,0.018298 -1.1810872,0.3925072 -2.5839754,0.8315752 -4.9208624,1.540103 -5.2404157,1.64854 -5.0952448,1.729014 0.054795,0.03038 1.4587106,0.480749 3.1198123,1.000832 1.6611017,0.520082 3.36209,1.057855 3.7799736,1.195051 l 0.7597894,0.249446 0.1234127,0.375988 c 0.067876,0.206794 0.5771573,1.799789 1.1317349,3.539991 0.554577,1.740202 1.057703,3.317709 1.118057,3.505572 0.06035,0.187863 0.134984,0.341569 0.165844,0.341569 0.03086,0 0.105469,-0.169886 0.165795,-0.377523 z m -5.1504238,-4.38432 c 0.691357,-0.44376 1.3536936,-0.888698 1.4718591,-0.988751 L 8.5028127,16.617699 8.3876959,16.234659 C 8.2670905,15.833354 8.1370555,15.731714 7.5982911,15.617631 7.3849614,15.572459 7.371973,15.588323 6.4297671,17.04485 c -0.524038,0.810094 -0.9527964,1.490325 -0.9527964,1.511625 0,0.08306 0.122695,0.01269 1.3391365,-0.768112 z m 11.2722538,0.716952 c -0.205228,-0.347335 -1.785322,-2.768701 -1.854438,-2.841776 -0.06957,-0.07355 -0.168153,-0.06633 -0.50825,0.03721 -0.420869,0.128131 -0.422218,0.12944 -0.52919,0.513969 -0.0679,0.244078 -0.08314,0.422451 -0.04153,0.486198 0.0716,0.109709 2.828611,1.894289 2.926501,1.894289 0.03301,0 0.03612,-0.04045 0.0069,-0.08989 l -10e-7,0 z M 7.8912718,8.8604005 C 8.2439378,8.7444971 8.2604724,8.7268047 8.3848371,8.3322744 L 8.5135128,7.9240689 8.3527187,7.793866 C 8.1363091,7.6186281 5.7292567,6.0925217 5.5773019,6.0342112 5.428082,5.9769502 5.3651679,5.8668774 6.483699,7.6200196 c 0.4943755,0.7748651 0.9312237,1.397923 0.9707737,1.3845738 0.03955,-0.01335 0.2361097,-0.078236 0.4367991,-0.1441929 z m 9.2721502,-1.34677 c 0.500112,-0.7936238 0.895536,-1.4567104 0.87872,-1.4735259 -0.02734,-0.027344 -0.472838,0.2442578 -2.376776,1.4490368 l -0.562025,0.3556398 0.04392,0.2846058 c 0.07795,0.5051151 0.181469,0.6344279 0.612717,0.7654288 0.217526,0.066078 0.417696,0.1070076 0.444823,0.090955 0.02713,-0.016053 0.458505,-0.6785161 0.958618,-1.4721399 z"
     id="path5256"
     inkscape:connector-curvature="0" />
</svg>
