<?xml version="1.0" encoding="UTF-8" standalone="no"?>
<svg
   xmlns:dc="http://purl.org/dc/elements/1.1/"
   xmlns:cc="http://creativecommons.org/ns#"
   xmlns:rdf="http://www.w3.org/1999/02/22-rdf-syntax-ns#"
   xmlns:svg="http://www.w3.org/2000/svg"
   xmlns="http://www.w3.org/2000/svg"
   xmlns:xlink="http://www.w3.org/1999/xlink"
   version="1.1"
   id="svg6416"
   height="28"
   width="28">
  <defs
     id="defs6418">
    <linearGradient
       id="linearGradient53072">
      <stop
         id="stop53074"
         offset="0"
         style="stop-color:#bfbfff;stop-opacity:1" />
      <stop
         id="stop53076"
         offset="1"
         style="stop-color:#bfbfbf;stop-opacity:0" />
    </linearGradient>
    <linearGradient
       id="linearGradient3349">
      <stop
         id="stop3351"
         offset="0"
         style="stop-color:#ff0000;stop-opacity:1;" />
      <stop
         id="stop3353"
         offset="1"
         style="stop-color:#000e00;stop-opacity:1" />
    </linearGradient>
    <linearGradient
       y2="84.446396"
       x2="25.149399"
       y1="84.527916"
       x1="14.968714"
       gradientTransform="matrix(0.39316255,0,0,0.62442953,4.121,995.35896)"
       gradientUnits="userSpaceOnUse"
       id="linearGradient4582"
       xlink:href="#linearGradient53072" />
    <linearGradient
       y2="81.315582"
       x2="4.2050014"
       y1="79.253761"
       x1="35.185143"
       gradientTransform="matrix(0.39316255,0,0,0.62442953,4.1065918,995.37157)"
       gradientUnits="userSpaceOnUse"
       id="linearGradient4585"
       xlink:href="#linearGradient3349" />
    <linearGradient
       gradientTransform="matrix(1.3544866,0,0,1.3544542,-50.483923,1008.1873)"
       y2="35.710644"
       x2="47.817902"
       y1="14.032474"
       x1="47.817902"
       gradientUnits="userSpaceOnUse"
       id="linearGradient29656"
       xlink:href="#linearGradient3349-4" />
    <linearGradient
       id="linearGradient3349-4">
      <stop
         id="stop3351-1"
         offset="0"
         style="stop-color:#ffffff;stop-opacity:1;" />
      <stop
         id="stop3353-9"
         offset="1"
         style="stop-color:#000e00;stop-opacity:1" />
    </linearGradient>
    <linearGradient
       gradientTransform="matrix(1.3544866,0,0,1.3544542,-78.927482,-1068.0038)"
       y2="22.07798"
       x2="47.817902"
       y1="14.032474"
       x1="47.817902"
       gradientUnits="userSpaceOnUse"
       id="linearGradient29568"
       xlink:href="#linearGradient4150-4" />
    <linearGradient
       id="linearGradient4150-4">
      <stop
         style="stop-color:#ffffff;stop-opacity:1;"
         offset="0"
         id="stop4152-9" />
      <stop
         style="stop-color:#ffffff;stop-opacity:0;"
         offset="1"
         id="stop4154-8" />
    </linearGradient>
  </defs>
  <metadata
     id="metadata6421">
    <rdf:RDF>
      <cc:Work
         rdf:about="">
        <dc:format>image/svg+xml</dc:format>
        <dc:type
           rdf:resource="http://purl.org/dc/dcmitype/StillImage" />
        <dc:title />
      </cc:Work>
    </rdf:RDF>
  </metadata>
  <g
     transform="translate(0,-1024.3622)"
     id="layer1">
    <path
       d="m 24.655167,1041.4304 a 10.894596,10.894336 0 0 1 -13.60723,7.0629 10.894596,10.894336 0 0 1 -7.1968853,-13.5366 10.894596,10.894336 0 0 1 13.4652183,-7.3299 10.894596,10.894336 0 0 1 7.462587,13.3919"
       id="path2972-8-0-7-68"
       style="fill:url(#linearGradient29656);fill-opacity:1;stroke:none" />
    <path
       transform="scale(-1,-1)"
       d="m -3.7883913,-1034.7607 a 10.894596,10.894336 0 0 1 -13.6072297,7.0628 10.894596,10.894336 0 0 1 -7.196886,-13.5366 10.894596,10.894336 0 0 1 13.465218,-7.3299 10.894596,10.894336 0 0 1 7.462587,13.3919"
       id="path2972-8-0-7-6-0"
       style="fill:url(#linearGradient29568);fill-opacity:1;stroke:none" />
    <ellipse
       ry="10.894336"
       rx="10.894596"
       id="path2972-8-0-7-5-9"
       style="fill:none;stroke:#333333;stroke-width:0.99999994;stroke-miterlimit:4;stroke-dasharray:none;stroke-opacity:1"
       cx="13.999999"
       cy="1037.8624" />
    <path
       id="path3485-9-7"
       d="m 13.935658,1024.5492 -3.931626,25.1477 c 0,0 -0.5729284,2.1134 4.103726,2.1531 4.676658,0.04 3.759524,-2.1531 3.759524,-2.1531 l -3.931624,-25.1477 z"
       style="fill:url(#linearGradient4585);fill-opacity:1;stroke:none" />
    <path
       id="path3485-9-7-7"
       d="m 13.941932,1024.528 -3.911876,25.1636 c 0,0 -0.580545,2.0838 3.978746,2.155 l 0,-26.9066 -0.06687,-0.412 z"
       style="fill:url(#linearGradient4582);fill-opacity:1;stroke:none" />
    <path
       id="path3485-9-7-4"
       d="m 13.974644,1024.5401 -3.931626,25.1477 c 0,0 -0.572929,2.1134 4.103726,2.153 4.676658,0.04 3.759524,-2.153 3.759524,-2.153 l -3.931624,-25.1477 z"
       style="fill:none;stroke:#333333;stroke-width:1.04165804;stroke-miterlimit:4;stroke-dasharray:none;stroke-opacity:1" />
  </g>
</svg>
