/* XPM */
static const char *next[] = {
/* width height num_colors chars_per_pixel */
"    22    22       16            1",
/* colors */
"` c #061383",
". c #0f87fc",
"# c #1e4fb1",
"a c #8bc1f7",
"b c #45a4fb",
"c c #44489a",
"d c #3196f9",
"e c #0f309a",
"f c #087af3",
"g c #b6dafb",
"h c #fbfdfc",
"i c #4471c4",
"j c #67b8fc",
"k c #7472ac",
"l c #3c4ba4",
"m c #31318c",
/* pixels */
"hhhhgi##jhhhhhhhhhhhhh",
"hhhhifbdlihhhhhhhhhhhh",
"hhhh#bhh.eihhhhhhhhhhh",
"hhhh#bghgd#lhhhhhhhhhh",
"hhhh#bggggbelhhhhhhhhh",
"hhhh#dgggggbelhhhhhhhh",
"hhhh#dgggggabelhhhhhhh",
"hhhh#daaaaaaademhhhhhh",
"hhhh#.jjjjjajjd`mhhhhh",
"hhhhedjjjjjjjjj.`mhhhh",
"hhhhe.bbbbbbbbbb.`hhhh",
"hhhhe.bdddddddddf`hhhh",
"hhhhe...d.......`mhhhh",
"hhhhe.........f`mhhhhh",
"hhhhe........f`mhhhhhh",
"hhhhef.....ff`mhhhhhhh",
"hhhh`.......`mhhhhhhhh",
"hhhh`ddddd.`mhhhhhhhhh",
"hhhh`bdddd`mhhhhhhhhhh",
"hhhh`bbbd`mhhhhhhhhhhh",
"hhhhm#bi`mhhhhhhhhhhhh",
"hhhhg```khhhhhhhhhhhhh"
};
static const char *prev[] = {
/* width height num_colors chars_per_pixel */
"    22    22       16            1",
/* colors */
"` c #061383",
". c #0d87fc",
"# c #1e4db1",
"a c #849ed4",
"b c #45a1fb",
"c c #2f95f9",
"d c #44489a",
"e c #203093",
"f c #077bf5",
"g c #c1def9",
"h c #4470c4",
"i c #fbfdfc",
"j c #8fcafc",
"k c #7472ac",
"l c #67b4fc",
"m c #394aa1",
/* pixels */
"iiiiiiiiiiiiia##hgiiii",
"iiiiiiiiiiiih#cbfhiiii",
"iiiiiiiiiiim#cgic#iiii",
"iiiiiiiiiim#cgigb#iiii",
"iiiiiiiiim#cggggb#iiii",
"iiiiiiiimecgggggc#iiii",
"iiiiiiieecjjjjjjc#iiii",
"iiiiiieecjjjjjjjc#iiii",
"iiiiie`cllllllllc#iiii",
"iiiid`.llbllllll.#iiii",
"iiii`fbbbbbbbbcb.eiiii",
"iiii`fccccccccc..eiiii",
"iiiid`f..........eiiii",
"iiiiie`f.........eiiii",
"iiiiiie`ff.ffffffeiiii",
"iiiiiiie`f......f`iiii",
"iiiiiiiie`......c`iiii",
"iiiiiiiiie`cccccc`iiii",
"iiiiiiiiiie`ccbcc`iiii",
"iiiiiiiiiiie`hbbb`iiii",
"iiiiiiiiiiiid`hb#eiiii",
"iiiiiiiiiiiiik```giiii"
};
static const char *now[] = {
/* width height num_colors chars_per_pixel */
"    22    22       16            1",
/* colors */
"` c #134974",
". c #6ca6d9",
"# c #3e7aab",
"a c #b8c9d6",
"b c #518fc1",
"c c #2a6492",
"d c #e7ebf0",
"e c #97b9d7",
"f c #679bc7",
"g c #a4c7e5",
"h c #f7f8f9",
"i c #5085b0",
"j c #7db6e4",
"k c #1a5280",
"l c #c2d6e6",
"m c #5b9bd2",
/* pixels */
"hdgjjjjjjjjjjjjjjjjgdh",
"djm................mjd",
"emmmmmmmmmmmmmmmmmm.mj",
"mmmmmmmmmmm.mmmmmmmmm.",
"mbmmmbmm.egggj.mbmbmbm",
"bmbbbbm.ahhhhhl.mbbbbb",
"bbbbbbmlhhhhhhhambbbbb",
"ii#ibbehhhhhhhhheibi#b",
"i#b##blhhhhdhhhhlb####",
"#####mdhhdddddhhlb##b#",
"#####bdhdhdddhdhli####",
"######ghhdddddhhe####c",
"cc#c##fhddddddhdf#ccc#",
"#ccccciehhddhhdecc#ccc",
"ckcccc#gdddddafc#ccccc",
"ccckcc.haiiii#cckccccc",
"cccckigiccccckccckkckc",
"`kkkccccckkkkckkkkkkkk",
"ckk`kkkk`kkkk``kkkkkkc",
"i``k````kk````k````k`i",
"dc``````````````````kd",
"dec````````````````ced"
};
static const char *openfile[] = {
/* width height num_colors chars_per_pixel */
"    22    22       16            1",
/* colors */
"` c #1330a4",
". c #7b9bdf",
"# c #bad4f7",
"a c #3c63b6",
"b c #e0e4f8",
"c c #a1a5c9",
"d c #5a6aa8",
"e c #89b5f4",
"f c #f2fbfb",
"g c #304988",
"h c #457cc9",
"i c #6688cb",
"j c #1245d1",
"k c #c4f0fb",
"l c #b3bfe9",
"m c #394eb9",
/* pixels */
"ffffffffffffffffffffff",
"ffffffffffffffffffffff",
"ffffffffffffbccfffffff",
"fffffffffff#cbbcffffff",
"fffffffffbclbbbclfffff",
"a..ic.gflcbbbfbbcbffff",
"dkkkb#lilfbffbbbccbfff",
"hkkk#ccfffffbfbkfi#fff",
"hkk#.kffffffbkbiiia...",
"hkkekffffffbfkg.ee...g",
"hkk#ae...c..igeehi.aaa",
"akk.il##leee.eeiiihj`.",
"akkgkkkfkklee.hhaj`j`b",
"akehkk#k#..hhajjj``jmb",
"akhlkk#eeeihhjjj``j`if",
"akgkk#eee..hajjj````#f",
"ae.kbk##eeeiihaammmgff",
"aalffffffbb##llllcddff",
"gafkffffkfk#b##lllglff",
"`.kfffffkbb##lllcc`fbf",
"`hddddagdgggggg``gdfff",
"fkfkfffffffffffffbffff"
};
static const char *setting[] = {
/* width height num_colors chars_per_pixel */
"    22    22       16            1",
/* colors */
"` c #3a67a3",
". c #adb5ce",
"# c #8591b3",
"a c #dce0e8",
"b c #5e82b2",
"c c #99a2bf",
"d c #c0bcd2",
"e c #c8ccd8",
"f c #576a91",
"g c #fbfcfb",
"h c #7090b8",
"i c #a9aac8",
"j c #969ab8",
"k c #5f78a4",
"l c #b4c3d8",
"m c #7182a5",
/* pixels */
"gggggggggf````gggggggg",
"ggggaaggg`#h#`ggabaggg",
"gggl`blgg`jkm`aa`k`agg",
"ggaflc```hck#```mj#`gg",
"gg`j.lel.ckkkhk#kjckag",
"ggl`ee..mkkkkmmk##`agg",
"ggga`elcmjl..jmmc`.ggg",
"gggebel.lcmmcc.###kggg",
"b``bll.icbggejcij.```i",
"`i.eeice`ggggj.eldicj`",
"`l..cj#e`ggggacadcjci`",
"`#jc###e`gggg.eaciij#`",
"#```ccjd#bgga#adiif``c",
"gggekjccecffjaaiijkggg",
"ggghbiiiidaaeeedi#`agg",
"ggh`.iiiiiiidaeddd#`ag",
"ga`i.idd.dddddaiddc`ag",
"ggh`di`fmddddj`f#imjeg",
"ggghfkb.m`dddk#dm`#agg",
"gggacb.dd`ada`d.deaaag",
"gggaaaeed`aaa`deeaaggg",
"gggggaaaam```maaaagggg"
};
static const char *request[] = {
/* width height num_colors chars_per_pixel */
"    22    22       16            1",
/* colors */
"` c #514e49",
". c #7294bd",
"# c #d1d5d0",
"a c #b8962f",
"b c #fafbfa",
"c c #96b0d2",
"d c #b42004",
"e c #c1a089",
"f c #826a39",
"g c #a97934",
"h c #5f7c9f",
"i c #e82428",
"j c #fc7274",
"k c #785618",
"l c #ceb13a",
"m c #b6bcc1",
/* pixels */
"bbbbbbbbbbbbbbbbbbbbbb",
"bbbbbbbb#m...c#bbbbbbb",
"bbbbbb#hhhh..hh.#bbbbb",
"bbbbbchc#bbbbb#..mbbbb",
"bbbb..#bbbbbbbbbc.#bbb",
"bbbc.bbbbbbbbbbbbc.bbb",
"bb#.#bbbm.h.c#.#bbhe#b",
"bbccbbbm.c##...bbbgji#",
"bb.#bbb.cbbbbc.bbgeiig",
"bbhbbb#.bbbbbc.bme#edm",
"b#.bbbc.bbbbbmcmalleab",
"b#.bbbm.bbbbbc.gllafbb",
"bbhbbb#.#bbb#.flllkbbb",
"bb.mbbb..c#c.hlllf#bbb",
"bbc.bbbbc..ccallgabbbb",
"bb#.cbbbbbbballagbbbbb",
"bbbmhmbbbbbmlllkbbbbbb",
"bbbbmh.#bbba#lgfbbbbbb",
"bbbbb#.hhh`lbagbbbbbbb",
"bbbb##mh```llkem##bbbb",
"bb##m.gh```k``hfcmmbbb",
"bbbbbbb#bma###bbbbbbbb"
};
static const char *play[] = {
/* width height num_colors chars_per_pixel */
"    22    22       16            1",
/* colors */
"` c #1368aa",
". c #8eadc4",
"# c #4c91c7",
"a c #bdd7ec",
"b c #397fb5",
"c c #2077bd",
"d c #6f96af",
"e c #e5e7e9",
"f c #b6b9b8",
"g c #90badc",
"h c #72a9d7",
"i c #bbcad5",
"j c #fafcfb",
"k c #5b9cd1",
"l c #547ea1",
"m c #d1dee7",
/* pixels */
"jjjjjjjmghhdhiejjjjjjj",
"jjjjjak##bbb###gejjjjj",
"jjjjg#b````````bkajjjj",
"jjjgbc``````````c#ajjj",
"jjgb````cccccc`c``#mjj",
"jeb````ccc`cccc```chjj",
"jgc`#.ccckgccccc```bij",
"eb``#ja#chjmhcccc``c.j",
"mc``#jjekhjjjabcc```#j",
"i```#jjjjajjjjehcc``ce",
"g```#jjjjjjjjjjjg````e",
"i```#jjjjmjjjjjhcc```j",
"m```#jjehhjjjabcc```bj",
"j```#jm#chjehcccc```.j",
"j.``bgccckgccccc````aj",
"je`````cccccccc``c`kjj",
"jjg````c`ccccc````cmjj",
"jjjh```````````c`cijjj",
"jjjj.```````````cijjjj",
"jjjjjmd```````c.jjjjjj",
"jjmifff.llblld.ffiimjj",
"jjjeeeeeeemmmeeeeeejjj"
};
static const char *stop[] = {
/* width height num_colors chars_per_pixel */
"    22    22       16            1",
/* colors */
"` c #040480",
". c #8c8acb",
"# c #f4f2f4",
"a c #a4a2d4",
"b c #7c7ec4",
"c c #1c1e94",
"d c #9496cc",
"e c #14168c",
"f c #b4b2dc",
"g c #2c2e9c",
"h c #fcfefc",
"i c #0c0a84",
"j c #acaadc",
"k c #9c9ed4",
"l c #9c9ad4",
"m c #34329c",
/* pixels */
"hhhh####hhhhhh####hhhh",
"hhhfeggcdhhhhkcggejhhh",
"hhha````bhhhh.````lhhh",
"hhha````bhhhh.``i`lhhh",
"hhha````bhhhh.````dhhh",
"hhha````bhhhh.````lhhh",
"hhha````bhhhh.````lhhh",
"hhha````bhhhh.````dhhh",
"hhha````bhhhh.````lhhh",
"hhha````bhhhh.````lhhh",
"hhha````bhhhh.````dhhh",
"hhha````bhhhh.````lhhh",
"hhha````bhhhh.````lhhh",
"hhha````bhhhh.````dhhh",
"hhha````bhhhh.````lhhh",
"hhha````bhhhh.````lhhh",
"hhha````bhhhh.````dhhh",
"hhha````bhhhh.````lhhh",
"hhha````bhhhh.````lhhh",
"hhha````bhhhh.````dhhh",
"hhhfemgcdhhhhkcgmejhhh",
"hhhh#####hhhhh####hhhh"
};
static const char *zoomto[] = {
/* width height num_colors chars_per_pixel */
"    22    22       16            1",
/* colors */
"` c #4c4664",
". c #dcf2fc",
"# c #1476d4",
"a c #0c8ee4",
"b c #1482dc",
"c c #04a2f4",
"d c #1c6ed4",
"e c #147edc",
"f c #0c96ec",
"g c #fcfefc",
"h c #0c8ae4",
"i c #0c9ef4",
"j c #147adc",
"k c #0c92ec",
"l c #1486e4",
"m c #1c72d4",
/* pixels */
"cifkahgggggggggglkkfcc",
"fffahgggggggggggglkkff",
"ffahlgggggggggggghhakf",
"fahlbeggggggggggeelhaf",
"ahlbjjmggggggggmjebhla",
"h.ee##mdggggggdm##jb.h",
"gggj#ddggggggggdd##ggg",
"ggggddg````````gddgggg",
"ggggggg````````ggggggg",
"ggggggg``gggg``ggggggg",
"ggggggg``gggg``ggggggg",
"ggggggg``gggg``ggggggg",
"ggggggg``gggg``ggggggg",
"ggggggg````````ggggggg",
"ggggmdg````````gddgggg",
"gggjmmdggggggggdd#mggg",
"l.be##ddggggggddd#eb.l",
"khlbe##ggggggggd#ebhha",
"kahheeggggggggggebhlak",
"fkalhggggggggggggbhakf",
"cfkahgggggggggggghakii",
"cfffalgggggggggglkkfic"
};
static const char *grabber[] = {
/* width height num_colors chars_per_pixel */
"    11    22        8            1",
/* colors */
"` c #ffffff",
". c #fafafb",
"# c #eff0f3",
"a c #000000",
"b c #000000",
"c c #000000",
"d c #000000",
"e c #000000",
/* pixels */
"```````````",
"`````.#a```",
"``````aa```",
"``..a``````",
"```aa``````",
"`````..a```",
"``````aa```",
"``..a``````",
"``.aa``````",
"`````..a```",
"`````.aa```",
"``..a``````",
"``.aa``````",
"`````..````",
"`````.#a```",
"``````aa```",
"``.#a``````",
"```aa``````",
"`````.#a```",
"``````aa```",
"```````````",
"```````````"
};
static const char *curdata[] = {
/* width height num_colors chars_per_pixel */
"    22    22        8            1",
/* colors */
"` c #262d87",
". c #5aadf4",
"# c #f0a95f",
"a c #640204",
"b c #fbfefb",
"c c #4a6df1",
"d c #a96647",
"e c #94dafc",
/* pixels */
"bbbbbbbbbbbbbbbbbbbbbb",
"bbbbbbbbbbbbbbbbbbbbbb",
"bbbbbbbbbbbbbbbbbbbbbb",
"bbbbbbbbbbbbbbbbbbbbbb",
"bb#a.b#a`e#``ebbbbbbbb",
"bbb#.bbbdbbacbbbbbbbbb",
"bbb#.bbdebbb#ebbbbbbbb",
"bbba`e#a`eda`b#bbbbbbb",
"bbbbbbbbbbbbbbbbbbbbbb",
"bbbbbbbbb```bbbbbbbbbb",
"bbbbbbbbb`````bbbbbbbb",
"bbbbbbbbb``cc```bbbbbb",
"bbbbbbbbbb`cccc```bbbb",
"bbbbbbbbbb``ccccc```bb",
"bbbbbbbbbbb`ccccccc``b",
"bbbbbbbbbbb``cccccc``b",
"bbbbbbbbbbbb`ccccc``bb",
"bbbbbbbbbbbb``ccc``bbb",
"bbbbbbbbbbbbb`cc``bbbb",
"bbbbbbbbbbbbb````bbbbb",
"bbbbbbbbbbbbbb``bbbbbb",
"bbbbbbbbbbbbbbbbbbbbbb"
};
static const char *ncurdata[] = {
/* width height num_colors chars_per_pixel */
"    22    22        8            1",
/* colors */
"` c #04030f",
". c #50a4ec",
"# c #f7b064",
"a c #ec1e24",
"b c #fbfefb",
"c c #a4664c",
"d c #500204",
"e c #94dafc",
/* pixels */
"bbbbbbbbbbbbbbbbbbbbbb",
"bbbbbbbbbbbbbbbbbbbbbb",
"bbaabbbbbbbbbbbbbbaabb",
"bbaaabbbbbbbbbbbbaaabb",
"bb#aaa#``b#``ebbaaabbb",
"bbb#aaabcbbd.bbaaabbbb",
"bbb#.aaaebbb#eaaabbbbb",
"bbbd`baaaec``aaabbbbbb",
"bbbbbbbaaabbaaabbbbbbb",
"bbbbbbbbaaa`aabbbbbbbb",
"bbbbbbbbbaaa``bbbbbbbb",
"bbbbbbbbbaaaa```bbbbbb",
"bbbbbbbbaa`aaab```bbbb",
"bbbbbbbaaa``aaabb```bb",
"bbbbbbaaabb`baaabbb``b",
"bbbbbaaabbb``baaabb``b",
"bbbbaaabbbbb`bbaaab`bb",
"bbbaaabbbbbb``bbaaabbb",
"bbaaabbbbbbbb`bb`aaabb",
"bbaabbbbbbbbb````baabb",
"bbbbbbbbbbbbbb``bbbbbb",
"bbbbbbbbbbbbbbbbbbbbbb"
};
static const char *selzone[] = {
/* width height num_colors chars_per_pixel */
"    22    22        8            1",
/* colors */
"` c #1a1717",
". c #7799c2",
"# c #f0f2f0",
"a c #c4a234",
"b c #eb1e23",
"c c #5c6976",
"d c #a3702f",
"e c #afb2b9",
/* pixels */
"bbbb##############bbbb",
"bbb#####e.....e####bbb",
"bbbb##e.cc.c.cc.e#bbbb",
"b#bbb.c.e#####e..bbb#b",
"###bbbe#########bbb###",
"###ebbb###e####bbb.###",
"##e.ebb#.....e.bbe.de#",
"##..###...ee...e#eadba",
"##.e###..####..##debbd",
"#e.e##e.e####..eaeeaba",
"#e.###..#####e.eaaaed#",
"#e.###e.#####..daaad##",
"##.e##e..###e.deaade##",
"#e.e###...e..caaada###",
"##..###e.....aaaad####",
"##e..bb#####daabb#####",
"###.bbb####aaaabbb####",
"###bbb.ee#ea#addbbb###",
"b#bbbe.c..ca#ade#bbb#b",
"bbbbc`````caad```cbbbb",
"bbb````````c```````bbb",
"bbbb.ccc`cdc`c`cc.bbbb"
};
static const char *request_end[] = {
/* width height num_colors chars_per_pixel */
"    22    22        8            1",
/* colors */
"` c #22201e",
". c #7898c0",
"# c #f3f5f4",
"a c #c8a83d",
"b c #ec1e24",
"c c #586b82",
"d c #897044",
"e c #b4bdca",
/* pixels */
"######################",
"########e..c..e#######",
"######ecccc..cc.e#####",
"#####.c.e#####e.ce####",
"####.ce#########bbe###",
"###..e####ee####bbb###",
"##e.e###.......e#bbbe#",
"##..###...e....e#ebbba",
"bbbbbbbbbbbbbbbbbbbbbd",
"bbbbbbbbbbbbbbbbbbbbbb",
"bbbbbbbbbbbbbbbbbbbbbb",
"bbbbbbbbbbbbbbbbbbbbb#",
"#e.e##e..###e.daabbb##",
"##..###...e..daabbb###",
"##..###e.....daabb####",
"##ec.####e#eaaaad#####",
"###ec.#####aaaada#####",
"####....##eaeadd######",
"#####ecc.cca#ade######",
"#edc``````caad````cde#",
"#.`````````d````````.#",
"##ee.dc``cd```ccc.ee##"
};
static const char *altitude[] = {
/* width height num_colors chars_per_pixel */
"    22    22       16            1",
/* colors */
"` c #04336d",
". c #7f9ab7",
"# c #3f6894",
"a c #ccd7e3",
"b c #0f487d",
"c c #5e80a6",
"d c #a5b8ce",
"e c #eceef4",
"f c #2a588a",
"g c #4e769d",
"h c #b6c6d8",
"i c #99adc4",
"j c #dfe3ec",
"k c #7290b2",
"l c #084079",
"m c #fbfdfb",
/* pixels */
"md#bfbbfbbfbbfbbfbbfdm",
"dllblbllbllbllbllbblld",
"#lblbbbblbbbbbbbbbbbl#",
"flbblblbbblblblblblblf",
"flbblbblbbbbbbbbbbbblb",
"fblbbblblblblbllbllblf",
"flblbllag`bbblbblbbblb",
"flbbb`deablbbl`bblbblf",
"fbbb`ia`di`b`c.`bblblf",
"flb`kmc`beg`gemg`bbblb",
"fb`cmhah`gacmcgeblbblf",
"flgifllkafdmc``ih`bblf",
"flfllbb`kmjaigfdm.`blb",
"fllbblbb`ffl#ieabdg`bf",
"flbbbblbbllll`fblb.flf",
"flbblbblbbblbbllblb#lb",
"flbbblbblblbblbbbblbbf",
"flblbblblbblbblblblblb",
"fbbblbblblbblbblbblblf",
"#lblblbbbblbblbblbbblf",
"h`lbblbllbllbllblbll`i",
"mdfbbbbbbbbbbbbbbbbfdm"
};
static const char *slider[] = {
/* columns rows colors chars-per-pixel */
"22 22 13 1",
"  c #716F64",
". c #66CC33",
"X c magenta",
"o c #BBB9AD",
"O c #D4D1C2",
"+ c #D4D1C3",
"@ c #E2DFCF",
"# c #E3DFCF",
"$ c #E3DFD0",
"% c #E2E0CF",
"& c #E2E0D0",
"* c #ECE9D8",
"= c None",
/* pixels */
"======================",
"======================",
"======================",
"======================",
"======================",
"=====   ==============",
"==== ... =============",
"==== *$+ =============",
"==== *@+ =============",
"=ooo *@+ oooooooooooo=",
"o*** *@+ ************o",
"=ooo *%+ oooooooooooo=",
"==== *@+ =============",
"==== *&+ =============",
"==== ... =============",
"=====   ==============",
"======================",
"======================",
"======================",
"======================",
"======================",
"======================"
};