<?xml version="1.0" encoding="UTF-8" standalone="no"?>
<svg id="svg6416" xmlns:rdf="http://www.w3.org/1999/02/22-rdf-syntax-ns#" xmlns="http://www.w3.org/2000/svg" viewBox="0 0 28 28" version="1.1" xmlns:cc="http://creativecommons.org/ns#" xmlns:xlink="http://www.w3.org/1999/xlink" xmlns:dc="http://purl.org/dc/elements/1.1/">
 <defs id="defs6418">
  <linearGradient id="linearGradient4582" y2="84.446" gradientUnits="userSpaceOnUse" y1="84.528" gradientTransform="matrix(0.39316255,0,0,0.62442953,4.121,995.35896)" x2="25.149" x1="14.969">
   <stop id="stop53074" stop-color="#bfbfff" offset="0"/>
   <stop id="stop53076" stop-color="#bfbfbf" stop-opacity="0" offset="1"/>
  </linearGradient>
  <linearGradient id="linearGradient4585" y2="81.316" gradientUnits="userSpaceOnUse" y1="79.254" gradientTransform="matrix(0.39316255,0,0,0.62442953,4.1065918,995.37157)" x2="4.205" x1="35.185">
   <stop id="stop3351" stop-color="#F00" offset="0"/>
   <stop id="stop3353" stop-color="#000e00" offset="1"/>
  </linearGradient>
  <linearGradient id="linearGradient29656" y2="35.711" gradientUnits="userSpaceOnUse" y1="14.032" gradientTransform="matrix(1.3544866,0,0,1.3544542,-50.483923,1008.1873)" x2="47.818" x1="47.818">
   <stop id="stop3351-1" stop-color="#FFF" offset="0"/>
   <stop id="stop3353-9" stop-color="#000e00" offset="1"/>
  </linearGradient>
  <linearGradient id="linearGradient29568" y2="22.078" gradientUnits="userSpaceOnUse" y1="14.032" gradientTransform="matrix(1.3544866,0,0,1.3544542,-78.927482,-1068.0038)" x2="47.818" x1="47.818">
   <stop id="stop4152-9" stop-color="#FFF" offset="0"/>
   <stop id="stop4154-8" stop-color="#FFF" stop-opacity="0" offset="1"/>
  </linearGradient>
 </defs>
 <metadata id="metadata6421">
  <rdf:RDF>
   <cc:Work rdf:about="">
    <dc:format>image/svg+xml</dc:format>
    <dc:type rdf:resource="http://purl.org/dc/dcmitype/StillImage"/>
    <dc:title/>
   </cc:Work>
  </rdf:RDF>
 </metadata>
 <g id="layer1" transform="translate(0,-1024.3622)">
  <path id="path2972-8-0-7-68" fill="url(#linearGradient29656)" d="m24.655,1041.4a10.895,10.894,0,0,1,-13.607,7.0629,10.895,10.894,0,0,1,-7.1969,-13.537,10.895,10.894,0,0,1,13.465,-7.3299,10.895,10.894,0,0,1,7.4626,13.392"/>
  <path id="path2972-8-0-7-6-0" fill="url(#linearGradient29568)" transform="scale(-1,-1)" d="m-3.7884-1034.8a10.895,10.894,0,0,1,-13.607,7.0628,10.895,10.894,0,0,1,-7.1969,-13.537,10.895,10.894,0,0,1,13.465,-7.3299,10.895,10.894,0,0,1,7.4626,13.392"/>
  <ellipse id="path2972-8-0-7-5-9" d="m 24.894595,1037.8624 c 0,6.0168 -4.877677,10.8944 -10.894596,10.8944 -6.0169192,0 -10.8945961,-4.8776 -10.8945961,-10.8944 0,-6.0167 4.8776769,-10.8943 10.8945961,-10.8943 6.016919,0 10.894596,4.8776 10.894596,10.8943 z" rx="10.895" ry="10.894" stroke="#333" cy="1037.9" cx="14" stroke-dasharray="none" stroke-miterlimit="4" stroke-width="1" fill="none"/>
  <path id="path3485-9-7" fill="url(#linearGradient4585)" d="m13.936,1024.5-3.9316,25.148s-0.57293,2.1134,4.1037,2.1531c4.6767,0.04,3.7595-2.1531,3.7595-2.1531l-3.9316-25.148z"/>
  <path id="path3485-9-7-7" fill="url(#linearGradient4582)" d="m13.942,1024.5-3.9119,25.164s-0.58054,2.0838,3.9787,2.155v-26.907l-0.06687-0.412z"/>
  <path id="path3485-9-7-4" d="m13.975,1024.5-3.9316,25.148s-0.57293,2.1134,4.1037,2.153c4.6767,0.04,3.7595-2.153,3.7595-2.153l-3.9316-25.148z" stroke="#333" stroke-miterlimit="4" stroke-dasharray="none" stroke-width="1.04165804" fill="none"/>
 </g>
</svg>
