<?xml version="1.0" encoding="UTF-8" standalone="no"?>
<!-- Created with Inkscape (http://www.inkscape.org/) -->
<svg
   xmlns:dc="http://purl.org/dc/elements/1.1/"
   xmlns:cc="http://web.resource.org/cc/"
   xmlns:rdf="http://www.w3.org/1999/02/22-rdf-syntax-ns#"
   xmlns:svg="http://www.w3.org/2000/svg"
   xmlns="http://www.w3.org/2000/svg"
   xmlns:sodipodi="http://inkscape.sourceforge.net/DTD/sodipodi-0.dtd"
   xmlns:inkscape="http://www.inkscape.org/namespaces/inkscape"
   width="48px"
   height="48px"
   id="svg3465"
   sodipodi:version="0.32"
   inkscape:version="0.42"
   sodipodi:docbase="/home/luca/Desktop/black-and-white/scalable/emblems"
   sodipodi:docname="emblem-readonly.svg">
  <defs
     id="defs3467" />
  <sodipodi:namedview
     id="base"
     pagecolor="#ffffff"
     bordercolor="#666666"
     borderopacity="1.0"
     inkscape:pageopacity="0.0"
     inkscape:pageshadow="2"
     inkscape:zoom="15.791667"
     inkscape:cx="24.000000"
     inkscape:cy="24.000000"
     inkscape:current-layer="layer1"
     showgrid="true"
     inkscape:grid-bbox="true"
     inkscape:document-units="px"
     inkscape:grid-points="true"
     inkscape:window-width="1280"
     inkscape:window-height="948"
     inkscape:window-x="0"
     inkscape:window-y="25" />
  <metadata
     id="metadata3470">
    <rdf:RDF>
      <cc:Work
         rdf:about="">
        <dc:format>image/svg+xml</dc:format>
        <dc:type
           rdf:resource="http://purl.org/dc/dcmitype/StillImage" />
      </cc:Work>
    </rdf:RDF>
  </metadata>
  <g
     id="layer1"
     inkscape:label="Layer 1"
     inkscape:groupmode="layer">
    <rect
       style="fill:none;fill-opacity:0.75000000;fill-rule:evenodd;stroke:none;stroke-width:1.0000000px;stroke-linecap:butt;stroke-linejoin:miter;stroke-opacity:1.0000000"
       id="rect4928"
       width="48.000000"
       height="48.000000"
       x="0.0000000"
       y="0.0000000" />
    <path
       sodipodi:nodetypes="cccccccccccccsccsccccc"
       inkscape:r_cy="true"
       inkscape:r_cx="true"
       id="path4200"
       d="M 24.000000,4.0000000 C 17.000000,4.0000000 12.000000,8.1739046 12.000000,15.000000 L 12.000000,21.000000 L 10.000000,21.000000 C 8.0000000,21.000000 7.0000000,22.000000 7.0000000,24.000000 L 7.0000000,41.000000 C 7.0000000,41.980326 8.0000000,44.000000 10.000000,44.000000 L 39.384016,44.000000 C 41.000000,43.990546 42.000000,41.980324 42.000000,41.000000 L 42.000000,24.000000 C 42.000000,22.000000 41.000000,20.990546 39.000000,20.990546 L 37.000000,21.000000 L 37.000000,15.000000 C 37.000000,8.0000000 32.000000,4.0000000 25.000000,4.0000000 L 24.000000,4.0000000 z M 24.000000,9.0000000 L 25.000000,9.0000000 C 32.000000,9.0000000 32.000000,15.000000 32.000000,17.000000 L 32.000000,21.000000 L 17.000000,21.000000 L 17.000000,17.000000 C 17.000000,15.000000 17.000000,9.0000000 24.000000,9.0000000 z "
       style="opacity:1.0000000;color:#000000;fill:#ffffff;fill-opacity:1.0000000;fill-rule:nonzero;stroke:#ffffff;stroke-width:8.0000000;stroke-linecap:butt;stroke-linejoin:miter;marker:none;marker-start:none;marker-mid:none;marker-end:none;stroke-miterlimit:10.000000;stroke-dasharray:none;stroke-dashoffset:0.0000000;stroke-opacity:1.0000000;visibility:visible;display:block;overflow:visible" />
    <path
       style="opacity:1.0000000;color:#000000;fill:#000000;fill-opacity:1.0000000;fill-rule:nonzero;stroke:none;stroke-width:0.99999970;stroke-linecap:butt;stroke-linejoin:miter;marker:none;marker-start:none;marker-mid:none;marker-end:none;stroke-miterlimit:10.000000;stroke-dasharray:none;stroke-dashoffset:0.0000000;stroke-opacity:1.0000000;visibility:visible;display:block;overflow:visible"
       d="M 24.000000,4.0000000 C 17.000000,4.0000000 12.000000,8.1739046 12.000000,15.000000 L 12.000000,21.000000 L 10.000000,21.000000 C 8.0000000,21.000000 7.0000000,22.000000 7.0000000,24.000000 L 7.0000000,41.000000 C 7.0000000,41.980326 8.0000000,44.000000 10.000000,44.000000 L 39.384016,44.000000 C 41.000000,43.990546 42.000000,41.980324 42.000000,41.000000 L 42.000000,24.000000 C 42.000000,22.000000 41.000000,20.990546 39.000000,20.990546 L 37.000000,21.000000 L 37.000000,15.000000 C 37.000000,8.0000000 32.000000,4.0000000 25.000000,4.0000000 L 24.000000,4.0000000 z M 24.000000,9.0000000 L 25.000000,9.0000000 C 32.000000,9.0000000 32.000000,15.000000 32.000000,17.000000 L 32.000000,21.000000 L 17.000000,21.000000 L 17.000000,17.000000 C 17.000000,15.000000 17.000000,9.0000000 24.000000,9.0000000 z "
       id="path2086"
       inkscape:r_cx="true"
       inkscape:r_cy="true"
       sodipodi:nodetypes="cccccccccccccsccsccccc" />
  </g>
</svg>
