<?xml version="1.0" encoding="UTF-8" standalone="no"?>
<!-- Created with Inkscape (http://www.inkscape.org/) -->

<svg
   xmlns:dc="http://purl.org/dc/elements/1.1/"
   xmlns:cc="http://creativecommons.org/ns#"
   xmlns:rdf="http://www.w3.org/1999/02/22-rdf-syntax-ns#"
   xmlns:svg="http://www.w3.org/2000/svg"
   xmlns="http://www.w3.org/2000/svg"
   xmlns:sodipodi="http://sodipodi.sourceforge.net/DTD/sodipodi-0.dtd"
   xmlns:inkscape="http://www.inkscape.org/namespaces/inkscape"
   id="svg2985"
   viewBox="0 0 12 32"
   height="100%"
   width="100%"
   version="1.1"
   inkscape:version="0.48.3.1 r9886"
   sodipodi:docname="grabber_hi.svg">
  <defs
     id="defs3000" />
  <sodipodi:namedview
     pagecolor="#ffffff"
     bordercolor="#666666"
     borderopacity="1"
     objecttolerance="10"
     gridtolerance="10"
     guidetolerance="10"
     inkscape:pageopacity="0"
     inkscape:pageshadow="2"
     inkscape:window-width="1188"
     inkscape:window-height="656"
     id="namedview2998"
     showgrid="false"
     inkscape:zoom="10.429825"
     inkscape:cx="-10.059713"
     inkscape:cy="16"
     inkscape:window-x="0"
     inkscape:window-y="0"
     inkscape:window-maximized="0"
     inkscape:current-layer="svg2985" />
  <metadata
     id="metadata2990">
    <rdf:RDF>
      <cc:Work
         rdf:about="">
        <dc:format>image/svg+xml</dc:format>
        <dc:type
           rdf:resource="http://purl.org/dc/dcmitype/StillImage" />
        <dc:title />
      </cc:Work>
    </rdf:RDF>
  </metadata>
  <path
     inkscape:connector-curvature="0"
     style="opacity:0;fill:#808080;stroke-width:0.55960941"
     d="m -11.883332,4.8726875 a 5.7083214,5.0588455 0 0 1 0.946487,7.2202165 l -4.417504,-3.2041294 z"
     id="path2993" />
  <path
     inkscape:connector-curvature="0"
     style="fill:#c8c8c8;stroke:#000000;stroke-width:1.06799996000000008;stroke-miterlimit:4;stroke-opacity:0.50196078000000000;stroke-dasharray:none;fill-opacity:1"
     stroke-miterlimit="4"
     d="m 10.130708,4.0103405 a 1.5785843,1.5620236 0 0 1 -3.1571676,0 1.5785843,1.5620236 0 1 1 3.1571676,0 z"
     id="path3763-3" />
  <path
     inkscape:connector-curvature="0"
     style="fill:#c8c8c8;stroke:#000000;stroke-width:1.06790458999999993;stroke-miterlimit:4;stroke-opacity:0.50196078000000000;stroke-dasharray:none;fill-opacity:1"
     stroke-miterlimit="4"
     d="m 10.130708,16.010342 a 1.5785843,1.5620236 0 0 1 -3.1571676,0 1.5785843,1.5620236 0 1 1 3.1571676,0 z"
     id="path3763-3-5" />
  <path
     inkscape:connector-curvature="0"
     style="fill:#c8c8c8;stroke:#000000;stroke-width:1.06790458999999993;stroke-miterlimit:4;stroke-opacity:0.50196078000000000;stroke-dasharray:none;fill-opacity:1"
     stroke-miterlimit="4"
     d="m 10.130708,22.010342 a 1.5785843,1.5620236 0 0 1 -3.1571676,0 1.5785843,1.5620236 0 1 1 3.1571676,0 z"
     id="path3763-3-4" />
  <path
     inkscape:connector-curvature="0"
     style="fill:#808080;stroke:#000000;stroke-width:1.068;stroke-miterlimit:4;stroke-opacity:0.50196078000000000;stroke-dasharray:none;fill-opacity:0.78431373999999998"
     stroke-miterlimit="4"
     d="m 10.130708,28.010342 a 1.5785843,1.5620236 0 0 1 -3.1571676,0 1.5785843,1.5620236 0 1 1 3.1571676,0 z"
     id="path3763-3-9" />
  <path
     inkscape:connector-curvature="0"
     style="fill:#c8c8c8;stroke:#000000;stroke-width:1.06790458999999993;stroke-miterlimit:4;stroke-opacity:0.50000000000000000;stroke-dasharray:none;fill-opacity:1"
     stroke-miterlimit="4"
     d="m 4.1307103,13.010342 a 1.5785843,1.5620236 0 0 1 -3.15716869,0 1.5785843,1.5620236 0 1 1 3.15716869,0 z"
     id="path3763-3-1" />
  <path
     inkscape:connector-curvature="0"
     style="fill:#c8c8c8;stroke:#000000;stroke-width:1.06790458999999993;stroke-miterlimit:4;stroke-opacity:0.50196078000000000;stroke-dasharray:none;fill-opacity:1"
     stroke-miterlimit="4"
     d="m 10.130708,10.010341 a 1.5785843,1.5620236 0 0 1 -3.1571676,0 1.5785843,1.5620236 0 1 1 3.1571676,0 z"
     id="path3763-3-8" />
  <path
     inkscape:connector-curvature="0"
     style="fill:#c8c8c8;stroke:#000000;stroke-width:1;stroke-miterlimit:4;stroke-opacity:0.50520832999999998;stroke-dasharray:none;fill-opacity:1"
     stroke-miterlimit="4"
     d="m 4.1307103,7.0103405 a 1.5785843,1.5620236 0 0 1 -3.15716869,0 1.5785843,1.5620236 0 1 1 3.15716869,0 z"
     id="path3763-3-41" />
  <path
     inkscape:connector-curvature="0"
     style="fill:#c8c8c8;stroke:#000000;stroke-width:1.06790458999999993;stroke-miterlimit:4;stroke-opacity:0.50196078000000000;stroke-dasharray:none;fill-opacity:1"
     stroke-miterlimit="4"
     d="m 4.1307103,19.010342 a 1.5785843,1.5620236 0 0 1 -3.15716869,0 1.5785843,1.5620236 0 1 1 3.15716869,0 z"
     id="path3763-3-96" />
  <path
     inkscape:connector-curvature="0"
     style="fill:#c8c8c8;stroke:#000000;stroke-width:1.06790458999999993;stroke-miterlimit:4;stroke-opacity:0.50196078000000000;stroke-dasharray:none;fill-opacity:1"
     stroke-miterlimit="4"
     d="m 4.1307103,25.010342 a 1.5785843,1.5620236 0 0 1 -3.15716869,0 1.5785843,1.5620236 0 1 1 3.15716869,0 z"
     id="path3763-3-3" />
</svg>
