<?xml version="1.0" encoding="UTF-8" standalone="no"?>
<!-- Created with Inkscape (http://www.inkscape.org/) -->
<svg id="svg2985" xmlns:rdf="http://www.w3.org/1999/02/22-rdf-syntax-ns#" xmlns="http://www.w3.org/2000/svg" viewBox="0 0 12 32" version="1.1" xmlns:cc="http://creativecommons.org/ns#" xmlns:xlink="http://www.w3.org/1999/xlink" xmlns:dc="http://purl.org/dc/elements/1.1/">
 <defs id="defs2987"></defs>
 <metadata id="metadata2990">
  <rdf:RDF>
   <cc:Work rdf:about="">
    <dc:format>image/svg+xml</dc:format>
    <dc:type rdf:resource="http://purl.org/dc/dcmitype/StillImage"/>
    <dc:title/>
   </cc:Work>
  </rdf:RDF>
 </metadata>
 <g id="layer1">
  <path id="path2993" opacity="0" d="m-14.976,4.5986a1.0716,0.93768,0,0,1,0.17768,1.3383l-0.82928-0.5939z" transform="matrix(5.3269143,0,0,5.395066,67.892537,-19.937063)" stroke-width="0.55960941"/>
  <path id="path3763-3" d="m-9.6448,5.3876a3.5721,5.4475,0,1,1,-7.1443,0,3.5721,5.4475,0,1,1,7.1443,0z" transform="matrix(0.44191435,0,0,0.28673735,14.968158,2.4655144)" stroke="#000" stroke-miterlimit="4" stroke-dasharray="none" stroke-width="3" fill="#2d30cb"/>
  <path id="path3763-3-5" d="m-9.6448,5.3876a3.5721,5.4475,0,1,1,-7.1443,0,3.5721,5.4475,0,1,1,7.1443,0z" transform="matrix(0.44191435,0,0,0.28673735,14.968158,14.465516)" stroke="#000" stroke-miterlimit="4" stroke-dasharray="none" stroke-width="3" fill="#2d30cb"/>
  <path id="path3763-3-4" d="m-9.6448,5.3876a3.5721,5.4475,0,1,1,-7.1443,0,3.5721,5.4475,0,1,1,7.1443,0z" transform="matrix(0.44191435,0,0,0.28673735,14.968158,20.465516)" stroke="#000" stroke-miterlimit="4" stroke-dasharray="none" stroke-width="3" fill="#2d30cb"/>
  <path id="path3763-3-9" d="m-9.6448,5.3876a3.5721,5.4475,0,1,1,-7.1443,0,3.5721,5.4475,0,1,1,7.1443,0z" transform="matrix(0.44191435,0,0,0.28673735,14.968158,26.465516)" stroke="#000" stroke-miterlimit="4" stroke-dasharray="none" stroke-width="3" fill="#2d30cb"/>
  <path id="path3763-3-1" d="m-9.6448,5.3876a3.5721,5.4475,0,1,1,-7.1443,0,3.5721,5.4475,0,1,1,7.1443,0z" transform="matrix(0.44191435,0,0,0.28673735,8.9681592,11.465516)" stroke="#000" stroke-miterlimit="4" stroke-dasharray="none" stroke-width="3" fill="#2d30cb"/>
  <path id="path3763-3-8" d="m-9.6448,5.3876a3.5721,5.4475,0,1,1,-7.1443,0,3.5721,5.4475,0,1,1,7.1443,0z" transform="matrix(0.44191435,0,0,0.28673735,14.968158,8.4655144)" stroke="#000" stroke-miterlimit="4" stroke-dasharray="none" stroke-width="3" fill="#2d30cb"/>
  <path id="path3763-3-41" d="m-9.6448,5.3876a3.5721,5.4475,0,1,1,-7.1443,0,3.5721,5.4475,0,1,1,7.1443,0z" transform="matrix(0.44191435,0,0,0.28673735,8.9681592,5.4655144)" stroke="#000" stroke-miterlimit="4" stroke-dasharray="none" stroke-width="3" fill="#2d30cb"/>
  <path id="path3763-3-96" d="m-9.6448,5.3876a3.5721,5.4475,0,1,1,-7.1443,0,3.5721,5.4475,0,1,1,7.1443,0z" transform="matrix(0.44191435,0,0,0.28673735,8.9681592,17.465516)" stroke="#000" stroke-miterlimit="4" stroke-dasharray="none" stroke-width="3" fill="#2d30cb"/>
  <path id="path3763-3-3" d="m-9.6448,5.3876a3.5721,5.4475,0,1,1,-7.1443,0,3.5721,5.4475,0,1,1,7.1443,0z" transform="matrix(0.44191435,0,0,0.28673735,8.9681592,23.465516)" stroke="#000" stroke-miterlimit="4" stroke-dasharray="none" stroke-width="3" fill="#2d30cb"/>
 </g>
</svg>
