<?xml version="1.0" encoding="UTF-8" standalone="no"?>
<svg id="svg1307" xmlns:rdf="http://www.w3.org/1999/02/22-rdf-syntax-ns#" xmlns="http://www.w3.org/2000/svg" viewBox="0 0 32 32" version="1.0" xmlns:cc="http://creativecommons.org/ns#" xmlns:xlink="http://www.w3.org/1999/xlink" xmlns:dc="http://purl.org/dc/elements/1.1/">
 <defs id="defs1309">
  <linearGradient id="linearGradient6184">
   <stop id="stop6186" stop-color="#FFF" offset="0"/>
   <stop id="stop6188" stop-color="#FFF" stop-opacity="0" offset="1"/>
  </linearGradient>
  <linearGradient id="linearGradient25485">
   <stop id="stop25487" stop-color="#000" offset="0"/>
   <stop id="stop25489" stop-color="#000" stop-opacity="0" offset="1"/>
  </linearGradient>
  <linearGradient id="linearGradient13184">
   <stop id="stop13186" stop-color="#000" stop-opacity="0.66666669" offset="0"/>
   <stop id="stop13188" stop-color="#000" stop-opacity="0" offset="1"/>
  </linearGradient>
  <linearGradient id="linearGradient10539">
   <stop id="stop10541" stop-color="#FFF" offset="0"/>
   <stop id="stop10543" stop-color="#888a85" stop-opacity="0" offset="1"/>
  </linearGradient>
  <linearGradient id="linearGradient4174">
   <stop id="stop4176" stop-color="#FFF" offset="0"/>
   <stop id="stop4178" stop-color="#3e3e3e" stop-opacity="0" offset="1"/>
  </linearGradient>
  <filter id="filter3737" color-interpolation-filters="sRGB">
   <feGaussianBlur id="feGaussianBlur3739" stdDeviation="0.30086486"/>
  </filter>
  <filter id="filter3933" color-interpolation-filters="sRGB">
   <feGaussianBlur id="feGaussianBlur3935" stdDeviation="1.4820941"/>
  </filter>
  <filter id="filter3985" color-interpolation-filters="sRGB">
   <feGaussianBlur id="feGaussianBlur3987" stdDeviation="0.18706947"/>
  </filter>
  <filter id="filter3989" color-interpolation-filters="sRGB">
   <feGaussianBlur id="feGaussianBlur3991" stdDeviation="0.086425096"/>
  </filter>
  <filter id="filter3995" color-interpolation-filters="sRGB">
   <feGaussianBlur id="feGaussianBlur3997" stdDeviation="0.17395735"/>
  </filter>
  <radialGradient id="radialGradient3390" gradientUnits="userSpaceOnUse" xlink:href="#linearGradient25485" cx="154.18" cy="33.309" r="11.547" gradientTransform="matrix(0.9702732,-0.06291178,0.06430445,0.8808136,-50.713809,19.652164)"/>
  <radialGradient id="radialGradient3392" gradientUnits="userSpaceOnUse" xlink:href="#linearGradient25485" cx="154.18" cy="33.309" r="11.547" gradientTransform="matrix(1,0,0,0.931884,3.581214,-10.16833)"/>
  <radialGradient id="radialGradient3394" gradientUnits="userSpaceOnUse" xlink:href="#linearGradient4174" cx="173.35" cy="29.474" r="7.125" gradientTransform="matrix(5.093182,0.03710751,-0.03342812,4.588167,-711.6483,-118.8231)"/>
  <radialGradient id="radialGradient3396" gradientUnits="userSpaceOnUse" cx="150.18" cy="56.317" r="4.696" gradientTransform="matrix(7.899763,-0.133352,0.10295,6.09874,-1031.154,-297.761)">
   <stop id="stop6820" stop-color="#FFF" offset="0"/>
   <stop id="stop6822" stop-color="#3e3e3e" stop-opacity="0" offset="1"/>
  </radialGradient>
  <radialGradient id="radialGradient3398" gradientUnits="userSpaceOnUse" cx="78.345" cy="47.897" r="59.07" gradientTransform="matrix(1.0280267,-0.1270725,0.1309176,0.9349125,-10.479426,16.042145)">
   <stop id="stop22833" stop-color="#FFF" offset="0"/>
   <stop id="stop22835" stop-color="#888a85" stop-opacity="0" offset="1"/>
  </radialGradient>
  <radialGradient id="radialGradient3400" gradientUnits="userSpaceOnUse" xlink:href="#linearGradient10539" cx="222.1" cy="1.2351" r="16.391" gradientTransform="matrix(2.3781044,-0.3075006,1.0402511,6.8677766,-436.02391,108.90546)"/>
  <radialGradient id="radialGradient3402" gradientUnits="userSpaceOnUse" xlink:href="#linearGradient25485" cx="302.09" cy="-10.284" r="59.073" gradientTransform="matrix(0.2857021,-0.09693699,0.3403616,0.8738542,19.958746,76.364594)"/>
  <radialGradient id="radialGradient3404" gradientUnits="userSpaceOnUse" xlink:href="#linearGradient25485" cx="302.09" cy="-10.284" r="59.073" gradientTransform="matrix(0.2857021,-0.09693699,0.3403616,0.8738542,20.206674,76.333938)"/>
  <radialGradient id="radialGradient3406" gradientUnits="userSpaceOnUse" cx="64.035" cy="72.254" r="8.072" gradientTransform="matrix(0.35411,-4.17141,5.032558,-1.51988,-331.3648,448.8406)">
   <stop id="stop17581" stop-color="#FFF" offset="0"/>
   <stop id="stop17583" stop-color="#000" stop-opacity="0" offset="1"/>
  </radialGradient>
  <radialGradient id="radialGradient3408" gradientUnits="userSpaceOnUse" cx="77.371" cy="64.804" r="4.1423" gradientTransform="matrix(0.71884,0.05195072,0.124003,10.14631,11.77238,-600.3243)">
   <stop id="stop15827" stop-color="#FFF" offset="0"/>
   <stop id="stop15829" stop-color="#555753" stop-opacity="0" offset="1"/>
  </radialGradient>
  <radialGradient id="radialGradient3410" gradientUnits="userSpaceOnUse" xlink:href="#linearGradient6184" cx="94.138" cy="38.928" r="6.8734" gradientTransform="matrix(0.581247,0.00581712,-0.07455762,9.383173,36.03053,-309.6658)"/>
  <linearGradient id="linearGradient3412" y2="48.539" xlink:href="#linearGradient13184" gradientUnits="userSpaceOnUse" y1="48.539" gradientTransform="matrix(0.737301,-6.658052e-7,1.272726e-7,1.016243,23.72264,1.031887)" x2="95" x1="79.735"/>
  <radialGradient id="radialGradient3414" gradientUnits="userSpaceOnUse" xlink:href="#linearGradient6184" cx="94.138" cy="38.928" r="6.8734" gradientTransform="matrix(0.566041,0.00497625,-0.07260836,8.025401,38.46269,-251.3652)"/>
  <linearGradient id="linearGradient3416" y2="48.539" xlink:href="#linearGradient13184" gradientUnits="userSpaceOnUse" y1="48.539" gradientTransform="matrix(0.718011,5.475357e-7,-1.861064e-8,0.869189,26.47674,14.37374)" x2="95" x1="79.735"/>
  <radialGradient id="radialGradient3418" gradientUnits="userSpaceOnUse" xlink:href="#linearGradient6184" cx="94.138" cy="38.928" r="6.8734" gradientTransform="matrix(0.602777,0.00495854,-0.07732142,7.998709,33.70512,-255.1298)"/>
  <linearGradient id="linearGradient3420" y2="48.539" xlink:href="#linearGradient13184" gradientUnits="userSpaceOnUse" y1="48.539" gradientTransform="matrix(0.764612,-9.213433e-7,-8.9154829e-8,0.866298,20.94123,9.725384)" x2="95" x1="79.735"/>
  <linearGradient id="linearGradient3422" y2="11.271" gradientUnits="userSpaceOnUse" y1="11.271" gradientTransform="matrix(1.0692341,-0.1321662,0.1338966,0.9561867,-15.573128,15.396338)" x2="120.07" x1="105.58">
   <stop id="stop23724" stop-color="#000" offset="0"/>
   <stop id="stop23726" stop-color="#000" stop-opacity="0" offset="1"/>
  </linearGradient>
  <linearGradient id="linearGradient3424" y2="13.185" gradientUnits="userSpaceOnUse" y1="51.132" gradientTransform="matrix(1.0280267,-0.1270725,0.1338966,0.9561867,-10.625435,14.784763)" x2="141.67" x1="114.74">
   <stop id="stop26371" stop-color="#000" offset="0"/>
   <stop id="stop26373" stop-color="#000" stop-opacity="0" offset="1"/>
  </linearGradient>
  <radialGradient id="radialGradient3426" gradientUnits="userSpaceOnUse" xlink:href="#linearGradient10539" cx="224.46" cy="-4.2259" r="16.391" gradientTransform="matrix(2.3781044,-0.3075006,1.0402511,6.8677766,-437.14482,108.10564)"/>
  <radialGradient id="radialGradient3428" gradientUnits="userSpaceOnUse" cx="19.006" cy="99.121" r="4.6032" gradientTransform="matrix(-1.0334476,0.07897266,-0.1160692,-1.3576785,44.296126,247.80777)">
   <stop id="stop34266" stop-color="#FFF" offset="0"/>
   <stop id="stop34268" stop-color="#FFF" stop-opacity="0" offset="1"/>
  </radialGradient>
  <radialGradient id="radialGradient3430" gradientUnits="userSpaceOnUse" xlink:href="#linearGradient4174" cx="174.08" cy="28.16" r="7.125" gradientTransform="matrix(4.9443389,-0.2853475,0.2841705,4.3388229,-752.28517,-40.172841)"/>
  <radialGradient id="radialGradient3432" gradientUnits="userSpaceOnUse" xlink:href="#linearGradient6184" cx="27.961" cy="118.94" r="54.614" gradientTransform="matrix(0.218502,-0.0681785,0.7665978,2.4568331,-46.677697,-138.76422)"/>
  <radialGradient id="radialGradient3434" gradientUnits="userSpaceOnUse" fx="56.313" fy="65.785" xlink:href="#linearGradient6184" cx="62.262" cy="77.168" r="33.898" gradientTransform="matrix(0.4649621,1.0036473,-0.2853745,0.1958414,69.723794,-13.486394)"/>
  <radialGradient id="radialGradient3436" gradientUnits="userSpaceOnUse" xlink:href="#linearGradient6184" cx="22.596" cy="66.949" r="33.898" gradientTransform="matrix(1.0280267,-0.1270725,0.1208309,0.8628811,4.8158744,36.952411)"/>
  <radialGradient id="radialGradient3438" gradientUnits="userSpaceOnUse" xlink:href="#linearGradient6184" cx="18.988" cy="99.099" r="4.909" gradientTransform="matrix(1.0280267,-0.1270725,0.1779489,1.2707731,-14.990972,-16.390537)"/>
  <linearGradient id="E" y2="1055.4" gradientUnits="userSpaceOnUse" x2="73.009" gradientTransform="matrix(1.03294,0,0,1.03294,-59.414,-1122.2035)" y1="1086.4" x1="73.009">
   <stop id="stop4324" stop-color="#fff" offset="0"/>
   <stop id="stop4326" stop-color="#939393" offset="1"/>
  </linearGradient>
  <linearGradient id="F" y2="1070.9" xlink:href="#linearGradient6184" gradientUnits="userSpaceOnUse" x2="73.009" gradientTransform="matrix(1.03294,0,0,1.03294,-59.414,-1090.2035)" y1="1086.4" x1="73.009"/>
 </defs>
 <metadata id="metadata1312">
  <rdf:RDF>
   <cc:Work rdf:about="">
    <dc:format>image/svg+xml</dc:format>
    <dc:type rdf:resource="http://purl.org/dc/dcmitype/StillImage"/>
    <dc:title/>
   </cc:Work>
  </rdf:RDF>
 </metadata>
 <g id="layer1" transform="translate(0,-96)">
  <g id="g46412" style="enable-background:new;" transform="translate(-2.5001168e-4,95.99975)">
   <g id="g4276">
    <rect id="rect4364" style="enable-background:new;" transform="scale(1,-1)" ry="3.878" width="32" y="-32" x="0" height="32" fill="url(#E)"/>
    <rect id="rect4366" style="enable-background:new;" ry="3.878" height="32" width="32" y="0.00050004" x="0" fill="url(#F)"/>
    <rect id="rect4426" stroke-linejoin="round" style="enable-background:new;" ry="3.755" height="30.979" width="30.979" stroke="#939393" stroke-linecap="round" y="0.5105" x="0.511" stroke-width="1.021" fill="none"/>
   </g>
  </g>
  <path id="path2276" d="m-228.92-67.272,0-2.7947,0,2.7947z" fill-opacity="0.75688076" fill-rule="nonzero" fill="#FFF"/>
  <path id="path2191" d="m65.691-129.46,0-2.7947,0,2.7947z" fill-opacity="0.75688076" fill-rule="nonzero" fill="#FFF"/>
  <path id="path2860" opacity="0.06147539" fill="none" d="m-52.477-94.134c-5.3396,0-9.6562,4.3167-9.6562,9.6562v8.375h-48.25c-5.3396,0-9.6562,4.2854-9.6562,9.625v40.75c0,5.3396,4.3166,9.625,9.6562,9.625h57.906,37.562,1.0625c5.3396,0,9.625-4.2854,9.625-9.625v-58.75c0-5.3396-4.2854-9.6562-9.625-9.6562h-38.625z"/>
  <path id="path2985" d="m-91.317-199.1,0-2.7947,0,2.7947z" fill-opacity="0.75688076" fill-rule="nonzero" fill="#FFF"/>
  <path id="path3206" d="m-210.82-285.73,0-2.7947,0,2.7947z" fill-opacity="0.75688076" fill-rule="nonzero" fill="#FFF"/>
  <path id="path3946" d="m35.772-219.97,0-2.7947,0,2.7947z" fill-opacity="0.75688076" fill-rule="nonzero" fill="#FFF"/>
  <path id="path1561" d="m-56.853-146.08,0-1.5267,0,1.5267z" fill-opacity="0.75688076" fill-rule="nonzero" fill="#FFF"/>
  <rect id="rect1327" opacity="0.57787" fill-rule="nonzero" height="0" width="1" y="-202.68" x="-114.34" fill="#FFF"/>
  <rect id="rect2482" opacity="0.57787" fill-rule="nonzero" height="0" width="1" y="-230.21" x="-149.46" fill="#FFF"/>
  <path id="path2494" d="m-308.4-303.42,0-2.7947,0,2.7947z" fill-opacity="0.75688076" fill-rule="nonzero" fill="#FFF"/>
  <g id="g3353" fill-rule="evenodd" transform="matrix(0.2198873,0,0,0.21351391,1.8456002,98.098122)">
   <path id="path3762" stroke-linejoin="round" d="m99.787,3.875c-0.38761,0.00147-0.76398,0.010712-1.1562,0.03125-0.04111,0.00215-0.08396-0.00236-0.125,0-0.22868,0.013135-1.0837,0.054918-1.1562,0.0625-0.06299,0.00658-0.1528-0.00489-0.21875,0-0.07118,0.00809-0.14783,0.022534-0.21875,0.03125-0.64105,0.078775-1.2886,0.18432-1.9062,0.3125-7.7673,1.4322-13.666,6.6367-14.844,12.906-0.05158,0.26545-0.09061,0.54346-0.125,0.8125-0.02137,0.17681-0.0487,0.35304-0.0625,0.53125-0.0051,0.03258-0.02643,0.09238-0.03125,0.125,0,0-3.3813,20.71-7.375,26.281-0.09795,0.13666-0.23211,0.33162-0.4375,0.5625-1.4402,1.5085-4.7133,4.6721-8.7812,8.5938-15.887,15.088-47.183,43.767-54.906,52-0.09039,0.0848-1.0625,1-1.0625,1l0.40625-0.28125c-0.52975,0.58685-0.92924,1.0424-1.0938,1.3125-0.74532,1.2239-1.2252,2.5094-1.4688,3.8125-0.00384,0.02,0.00373,0.0425,0,0.0625-0.05528,0.3052-0.095,0.60027-0.125,0.90625-0.00319,0.0302,0.00295,0.0636,0,0.0937-0.02759,0.30674-0.05941,0.63142-0.0625,0.9375-0.00016,0.0105,0.00013,0.0208,0,0.0312-0.00226,0.30496,0.01003,0.6033,0.03125,0.90625,0.00136,0.0209-0.00147,0.0416,0,0.0625,0.02281,0.30294,0.04832,0.60673,0.09375,0.90625,0.00301,0.0205-0.00311,0.0421,0,0.0625,0.04694,0.29918,0.11882,0.58064,0.1875,0.875,0.05119,0.22628,0.12388,0.43341,0.1875,0.65625,0.02678,0.0919,0.03365,0.19003,0.0625,0.28125,0.00696,0.0224,0.02417,0.0401,0.03125,0.0625,0.01717,0.0533,0.04463,0.10322,0.0625,0.15625,0.17386,0.52494,0.35425,1.0654,0.59375,1.5625,0.00986,0.0202,0.02128,0.0423,0.03125,0.0625,2.0135,4.1214,6.2158,7.1143,11.125,6.6875,0.2621-0.0174,0.54635-0.0564,0.8125-0.0937,0.0099-0.002,0.02138,0.002,0.03125,0,0.07192-0.0103,0.14655-0.0195,0.21875-0.0312,1.1284-0.18406,2.2915-0.58032,3.4688-1.1562,0.728-0.33876,1.4502-0.7455,2.1875-1.25,7.7773-5.3217,54.752-63.992,61.094-68.094,0.1357-0.08776,0.32954-0.18975,0.5-0.28125,7.346-3.2105,14.401-3.6477,21.781-6.1875,2.3889-0.54638,4-0.90625,4-0.90625,0.005,0.0011,0.0265-0.000544,0.0312,0,0.004-0.00005,0.0272,0.000635,0.0312,0,0.003-0.0018,0.0283-0.02887,0.0312-0.03125,0.002-0.0041,0.0297-0.02661,0.0312-0.03125,0.001-0.0052-0.00089-0.0255,0-0.03125,0.0005-0.0057,0.001-0.02191,0-0.03125,0.003-0.000745,0.125-0.03125,0.125-0.03125,0.16232,0.03646,0.13926-0.2075-0.0312-0.71875,4.289-2.2256,9.8207-8.2737,11.906-17.031,0.10101-0.42412-0.19444-3.3488-0.3125-3.5312,0.0146-0.06414,0.0481-0.12321,0.0625-0.1875l-13.312,6.2812-8.2188-5.4688c-0.88732-1.7388-1.7115-3.3195-2.2188-4.4062,0.00004-4.1279-0.0033-4.4781,0.375-8.2188,5.0747-1.9978,14.031-5.4375,14.031-5.4375-0.0105-0.010082-0.0208-0.021191-0.0312-0.03125,0.0126-0.00482,0.28125-0.09375,0.28125-0.09375-3.47-3.3313-8.72-5.4195-14.533-5.3974zm-82.844,102.84c2.4567-0.0582,4.8375,1.5602,6.1562,3.9062,0.10908,0.19885,0.21919,0.38518,0.3125,0.59375,0.0099,0.0216,0.02152,0.0408,0.03125,0.0625,0.09209,0.21044,0.17513,0.43724,0.25,0.65625,0.0076,0.0216,0.02382,0.0408,0.03125,0.0625,0.12113,0.36439,0.21215,0.74151,0.28125,1.125,0.03177,0.16659,0.04132,0.33035,0.0625,0.5,0.02294,0.19692,0.05445,0.3935,0.0625,0.59375,0.12703,3.1604-2.7388,6.4358-6,7.1562-0.16457,0.0225-0.3344,0.0226-0.5,0.0312-3.6524,0.19122-7.3654-3.4652-7.5938-7.2812-0.15736-2.6291,1.2648-5.2608,3.7812-6.625,0.61117-0.30037,1.3056-0.54914,2.0312-0.6875,0.06063-0.009,0.12592,0.007,0.1875,0,0.29518-0.0452,0.59518-0.0769,0.90625-0.0937z" filter="url(#filter3933)" stroke="url(#radialGradient3390)" stroke-linecap="round" stroke-miterlimit="4" stroke-dasharray="none" stroke-width="1.57810318" fill="#000"/>
   <g id="g8758" transform="matrix(0.9702732,-0.06291178,0.06900478,0.9451966,-53.4637,27.488536)">
    <path id="path3285" stroke-linejoin="round" d="m181.68,9.0994-14.132,5.6995-8.155-6.393c-1.0714,1.4174-1.8863,21.693,3.1019,21.521,9.132-0.31625,15.806-9.3257,19.185-20.827z" stroke="url(#radialGradient3392)" stroke-linecap="round" stroke-miterlimit="4" stroke-dasharray="none" stroke-width="1.64400005" fill="#888a85"/>
    <path id="path3293" opacity="0.51376145" d="m181.16,9.7598-13.406,5.4063-0.84375,9.4375,1.5312,4.1562c5.8462-3.2234,10.196-10.413,12.719-19z" fill="url(#radialGradient3394)"/>
    <path id="path5936" opacity="0.51376145" d="m159.32,8.5973c-0.004,0.00554-0.0271,0.02514-0.0312,0.03125-0.008,0.013357-0.023,0.046897-0.0312,0.0625-1.0386,2.0973-1.7346,21.607,3.1562,21.437,1.0808-0.03743,2.1457-0.19804,3.1562-0.46875l0.6875-15.594-6.9375-5.4687z" fill="url(#radialGradient3396)"/>
   </g>
   <path id="path2388" fill="#888a85" d="m96.407,2.0934c-9.0067,1.1068-15.854,7.2282-16.414,14.462-0.0051,0.03257-0.02046,0.10206-0.02528,0.13468,0,0-3.3728,20.719-7.3665,26.291-3.1345,4.373-63.057,58.538-65.88,63.174-5.9626,9.7912,5.1569,23.754,16.954,15.682,7.7773-5.3217,54.735-63.976,61.077-68.077,4.2869-2.7723,26.555-7.5189,26.555-7.5189,1.2985,0.29169-9.2787-18.991-12.125-25.089,0.00004-4.1419-0.009-4.4779,0.37325-8.2546,5.0273-1.9818,14.281-5.5154,14.281-5.5154-3.6983-3.5628-9.4239-5.7079-15.7-5.3793-0.04111,0.00215-0.09195,0.0046-0.13299,0.00696-0.22868,0.013135-1.0581,0.051617-1.1307,0.059198-0.06299,0.00658-0.16682,0.00729-0.23278,0.012188-0.07118,0.00809-0.16186,0.00347-0.23278,0.012187zm-79.614,102.56c3.6525-0.19123,7.1858,3.3554,7.3549,7.5627,0.1399,3.4807-3.3408,7.1097-6.9932,7.301-3.6524,0.19123-7.3746-3.4804-7.603-7.2964-0.21948-3.667,2.6251-7.3255,7.2413-7.5672z"/>
   <path id="path21956" fill="url(#radialGradient3398)" d="M96.92,1.9928c-9.007,1.1068-15.854,7.2282-16.414,14.462-0.0051,0.03257-0.02046,0.10207-0.02528,0.13468,0,0-3.3728,20.719-7.3665,26.291-3.1345,4.373-63.057,58.538-65.88,63.174-5.9626,9.7912,5.1569,23.754,16.954,15.682,7.7773-5.3217,54.735-63.976,61.077-68.077,4.2869-2.7723,26.555-7.5189,26.555-7.5189,1.2985,0.29169-9.2787-18.991-12.125-25.089,0.00004-4.1419-0.009-4.4779,0.37325-8.2546,5.0273-1.9818,14.281-5.5154,14.281-5.5154-3.6983-3.5628-9.4239-5.7079-15.7-5.3793-0.04111,0.00215-0.09195,0.0046-0.13299,0.00696-0.22868,0.013135-1.0581,0.051615-1.1307,0.059197-0.06299,0.00658-0.16682,0.00729-0.23278,0.012188-0.07118,0.00809-0.16186,0.00347-0.23278,0.012188zm-79.614,102.56c3.6525-0.19123,7.1858,3.3554,7.3549,7.5626,0.13991,3.4807-3.3408,7.1097-6.9933,7.301-3.6524,0.19122-7.3746-3.4804-7.603-7.2965-0.21948-3.667,2.6251-7.3255,7.2413-7.5672z"/>
   <path id="path9661" fill="url(#radialGradient3400)" d="m82.023,17.158,7.4767,16.244,3.1839-1.3572,5.2826,11.83-2.6184,1.243,3.5984,4.7011c5.944-1.4903,12.355-4.0349,12.355-4.0349,0.005,0.000549,0.0281-0.0016,0.0324-0.0017,0.004-0.000632,0.0288-0.000466,0.0324-0.0017,0.003-0.0029,0.0283-0.0289,0.0306-0.03242,0.002-0.0046-0.003-0.02554-0.002-0.03073,0.002-0.01149,0.0283-0.04947,0.0287-0.06315-0.0255-1.7788-9.5371-19.21-12.207-24.952-0.003-4.1415,0.0036-4.4744,0.38103-8.2505,4.9994-1.9783,14.229-5.108,14.229-5.108-3.67-3.5645-11.23-5.1191-16.871-4.0733-8.853,1.6428-14.11,6.9333-14.926,13.887z"/>
   <path id="path23730" fill="url(#radialGradient3402)" d="M95.38,2.308c-8.487,1.4343-14.841,7.3823-15.38,14.334-0.0051,0.03257-0.01056,0.09088-0.01539,0.12349-0.000011,0.000003-3.371,20.721-7.3647,26.293-3.1345,4.373-63.075,58.53-65.898,63.166-5.9626,9.7912,5.1719,23.757,16.969,15.685,7.7773-5.3217,54.751-63.973,61.093-68.074,4.2869-2.7723,26.528-7.5349,26.528-7.5349,0.005,0.0011,0.0316,0.02537,0.0363,0.02591,0.004-0.000048,0.0281-0.0033,0.0321-0.004,0.003-0.0018,0.025-0.03148,0.0279-0.03385,0.002-0.0041,0.0264-0.02921,0.0279-0.03385,0.001-0.0052-0.005-0.02413-0.004-0.02988,0.002-0.01889-0.0113-0.06589-0.0126-0.08964-0.1795-2.0199-9.5566-19.213-12.214-24.906,0.00003-4.1419-0.0021-4.4778,0.38017-8.2545,5.0273-1.9818,14.259-5.5319,14.259-5.5319-3.6983-3.5628-9.4094-5.6853-15.686-5.3566-0.04111,0.00215-0.09165-0.016355-0.13269-0.013997-0.22868,0.013135-1.0602,0.071643-1.1328,0.079224-0.063,0.00658-0.16311-0.00698-0.22906-0.00208-0.06229,0.00708-0.15904,0.022733-0.22488,0.027797-0.35183,0.043235-0.71516,0.072739-1.0602,0.13104zm1.356,1.0483c5.6048-0.96197,12.945,0.2184,16.569,3.7276,0,0-9.1632,3.5417-14.163,5.52-0.37744,3.7761-0.38317,4.1129-0.38017,8.2545,2.6487,5.6971,12.01,22.904,12.182,24.91,0.00039,0.0074,0.004,0.02293,0.004,0.02988-0.005,0.01133-0.0183,0.05295-0.0238,0.06373,0.00024,0.0028,0.004,0.02665,0.004,0.02988-0.007,0.0073-0.0267,0.03238-0.0279,0.03385-0.007,0.00019-0.0301,0.0037-0.0321,0.004-0.003,0.000243-0.0292,0.0038-0.0321,0.004,0,0-7.1091,1.2175-13.053,2.7078l-1.776-2.586,3.497-2.295-6.394-12.393-4.413,1.531-7.128-15.599c0.81663-6.9543,6.0664-12.239,14.92-13.882,0.08807-0.01634,0.16386-0.046379,0.25282-0.061648zm-81.089,101.49c0.36972-0.0691,0.76401-0.0923,1.1607-0.11307,3.6524-0.19123,7.1944,3.3332,7.3635,7.5405,0.13991,3.4807-3.3634,7.1204-7.0159,7.3116-3.6524,0.19123-7.3628-3.4835-7.5912-7.2995-0.2006-3.3519,2.1505-6.7048,6.0829-7.4395z"/>
   <path id="path27250" fill="url(#radialGradient3404)" d="M95.628,2.2773c-8.487,1.4343-14.842,7.3823-15.38,14.334-0.0051,0.03257-0.01056,0.09088-0.01539,0.12349-0.000011,0.000004-3.371,20.721-7.3647,26.293-3.135,4.373-63.075,58.533-65.898,63.163-5.9626,9.79,5.1723,23.76,16.968,15.69,7.778-5.32,54.751-63.974,61.093-68.075,4.287-2.773,26.529-7.535,26.529-7.535,0.005,0.0011,0.0316,0.02537,0.0363,0.02591,0.004-0.000048,0.0281-0.0033,0.0321-0.004,0.003-0.0018,0.025-0.03148,0.0279-0.03385,0.002-0.0041,0.0264-0.02921,0.0279-0.03385,0.001-0.0052-0.005-0.02413-0.004-0.02988,0.002-0.01889-0.0113-0.06589-0.0126-0.08964-0.1795-2.0199-9.5566-19.213-12.214-24.906,0.00003-4.1419-0.0021-4.4778,0.38016-8.2545,5.0273-1.9818,14.259-5.5319,14.259-5.5319-3.6983-3.5628-9.4094-5.6853-15.686-5.3566-0.04112,0.00215-0.09165-0.016355-0.13269-0.013996-0.22868,0.013134-1.0602,0.071643-1.1328,0.079223-0.063,0.00658-0.16311-0.00698-0.22906-0.00208-0.06229,0.00708-0.15904,0.022734-0.22488,0.027798-0.35183,0.043235-0.71516,0.072739-1.0602,0.13104zm1.356,1.0483c5.6048-0.96197,12.945,0.2184,16.569,3.7276,0,0-9.1632,3.5417-14.163,5.52-0.37743,3.7761-0.38316,4.1129-0.38016,8.2545,2.6487,5.6971,12.01,22.904,12.182,24.91,0.00039,0.0074,0.004,0.02293,0.004,0.02988-0.005,0.01133-0.0183,0.05295-0.0237,0.06373,0.00024,0.0028,0.004,0.02666,0.004,0.02988-0.007,0.0073-0.0266,0.03238-0.0279,0.03385-0.007,0.000191-0.0301,0.0037-0.0321,0.004-0.003,0.000243-0.0292,0.0038-0.0321,0.004,0,0-7.1091,1.2175-13.053,2.7078l-1.875-3.279,3.778-2.095-5.867-12.224-4.973,1.132-7.279-14.877c0.81663-6.9543,6.0664-12.239,14.92-13.882,0.08807-0.016341,0.16386-0.04638,0.25282-0.061649zm-81.089,101.49c0.36972-0.0691,0.76401-0.0923,1.1607-0.11308,3.6524-0.19122,7.1944,3.3332,7.3635,7.5405,0.13991,3.4807-3.3634,7.1204-7.0159,7.3116-3.6524,0.19124-7.3628-3.4835-7.5912-7.2995-0.2006-3.3519,2.1505-6.7048,6.0829-7.4395z"/>
   <g id="g22839" transform="matrix(1.0280267,-0.1270725,0.1338966,0.9561867,-10.625435,14.784763)">
    <rect id="rect10551" stroke-linejoin="round" stroke-dasharray="none" transform="matrix(0.956291,-0.292417,0.309707,0.950832,0,0)" height="13.095" width="13.4" stroke="url(#radialGradient3406)" stroke-linecap="round" stroke-miterlimit="4" y="58" x="68.625" stroke-width="1.5441" fill="#2e3436"/>
    <rect id="rect14950" transform="matrix(0.967683,-0.25217,0.307423,0.951573,0,0)" height="11.043" width="7.7254" y="55.691" x="71.563" fill="url(#radialGradient3408)"/>
    <rect id="rect10553" stroke-linejoin="round" ry="0" stroke-dasharray="none" transform="matrix(0.98605,-0.16645,0.08671967,0.996233,0,0)" height="1.2326" width="11.255" stroke="url(#linearGradient3412)" stroke-linecap="round" stroke-miterlimit="4" y="49.743" x="82.512" stroke-width="0.38433" fill="url(#radialGradient3410)"/>
    <rect id="rect14938" stroke-linejoin="round" stroke-dasharray="none" transform="matrix(0.989282,-0.14602,0.09906172,0.995081,0,0)" ry="0" height="1.0542" width="10.96" stroke="url(#linearGradient3416)" stroke-linecap="round" stroke-miterlimit="4" y="56.036" x="83.728" stroke-width="0.35076" fill="url(#radialGradient3414)"/>
    <rect id="rect14944" stroke-linejoin="round" ry="0" stroke-dasharray="none" transform="matrix(0.990631,-0.136567,0.105988,0.994367,0,0)" height="1.0507" width="11.672" stroke="url(#linearGradient3420)" stroke-linecap="round" stroke-miterlimit="4" y="51.249" x="81.908" stroke-width="0.36136" fill="url(#radialGradient3418)"/>
   </g>
   <path id="rect22846" d="m99.268,12.983,14.248-5.4999,0.64447,1.6901-14.931,5.9162,0.03924-2.1064z" filter="url(#filter3737)" fill="url(#linearGradient3422)"/>
   <path id="rect25493" fill="url(#linearGradient3424)" d="m110.63,44.083c4.1602-0.78887,10.66-9.4722,12.739-19.224,0.0925-0.43377,0.42564,3.0579,0.31495,3.5227-2.1447,9.0059-7.9293,15.153-12.264,17.217-0.2564,0.12212,0.0298,1.7261-0.79061-1.516z"/>
   <path id="path27254" d="m82.637,16.144,6.5496,16.828,4.0246-0.7573,5.4982,11.568-3.2654,2.0267,2.3806,3.2095c5.944-1.4903,12.355-4.0349,12.355-4.0349,0.005,0.00055,0.0281-0.0016,0.0324-0.0017,0.004-0.000633,0.0288-0.000467,0.0324-0.0017,0.003-0.0029,0.0284-0.0289,0.0306-0.03242,0.002-0.0046-0.003-0.02554-0.002-0.03073,0.002-0.01149,0.0283-0.04947,0.0287-0.06314-0.0255-1.7788-9.5371-19.21-12.207-24.952-0.003-4.1415,0.0036-4.4744,0.38103-8.2505,4.9994-1.9783,13.185-5.3924,13.185-5.3924-3.68-3.5644-10-3.4509-15.638-2.4051-8.853,1.6427-12.568,5.3351-13.385,12.29z" filter="url(#filter3985)" fill="url(#radialGradient3426)"/>
   <path id="rect30766" opacity="0.3853211" d="m7.3941,105.13s61.606-57.799,65.595-62.51c3.8307-4.5237,7.1792-25.084,7.1792-25.084s2.0994-1.4224,1.6983-0.18908c-0.54959,1.6899-5.8929,22.437-7.2044,24.452-2.9878,4.5895-19.946,19.731-19.946,19.731l-41.434,39.364-5.8876,4.2356z" fill="#000"/>
   <path id="path34274" opacity="0.89449541" d="m17.911,120.66s-4.7588,0.0749-7.2655-3.0751-2.7163-7.9606-2.7163-7.9606l0.55038-0.82443s0.49515,4.8261,2.7534,7.8753c2.3015,3.1076,7.2383,3.2845,7.1614,3.4131l-0.48329,0.57181z" fill="url(#radialGradient3428)"/>
   <path id="path34280" fill="#000" d="m109.07,30.296c-0.0834,0.26937,0.2624,8.3367,0.31254,8.6219,0.1201,4.4297,1.1707,4.6976,1.2862,5.4916,0.8564-0.32581,0.2753,0.08044,1.0458-0.39606-0.0737-0.3873-1.1636-3.0878-1.6138-4.0562,0.0386-2.2031,0.0457-8.3826,0.0548-8.9688-0.41562-0.27811-0.57522-0.38903-1.0855-0.69228z"/>
   <path id="path34301" opacity="0.51376145" d="m122.86,25.195-12.635,5.9534-0.16743,8.9734,1.7725,3.8321c5.45-3.4145,9.174-10.484,11.03-18.759z" fill="url(#radialGradient3430)"/>
   <path id="path3752" fill="url(#radialGradient3432)" d="M95.628,2.2773c-8.487,1.4343-14.842,7.3823-15.38,14.334-0.0051,0.03257-0.01056,0.09088-0.01539,0.12349-0.000011,0.000004-3.371,20.721-7.3647,26.293-3.135,4.373-63.075,58.533-65.898,63.163-5.9626,9.79,5.1723,23.76,16.968,15.69,7.778-5.32,54.751-63.974,61.093-68.075,4.287-2.773,26.529-7.535,26.529-7.535,0.005,0.0011,0.0316,0.02537,0.0363,0.02591,0.004-0.000048,0.0281-0.0033,0.0321-0.004,0.003-0.0018,0.025-0.03148,0.0279-0.03385,0.002-0.0041,0.0264-0.02921,0.0279-0.03385,0.001-0.0052-0.005-0.02413-0.004-0.02988,0.002-0.01889-0.0113-0.06589-0.0126-0.08964-0.1795-2.0199-9.5566-19.213-12.214-24.906,0.00003-4.1419-0.0021-4.4778,0.38016-8.2545,5.0273-1.9818,14.259-5.5319,14.259-5.5319-3.6983-3.5628-9.4094-5.6853-15.686-5.3566-0.04112,0.00215-0.09165-0.016355-0.13269-0.013996-0.22868,0.013134-1.0602,0.071643-1.1328,0.079223-0.063,0.00658-0.16311-0.00698-0.22906-0.00208-0.06229,0.00708-0.15904,0.022734-0.22488,0.027798-0.35183,0.043235-0.71516,0.072739-1.0602,0.13104zm1.356,1.0483c5.6048-0.96197,12.945,0.2184,16.569,3.7276,0,0-9.1632,3.5417-14.163,5.52-0.37743,3.7761-0.38316,4.1129-0.38016,8.2545,2.6487,5.6971,12.01,22.904,12.182,24.91,0.00039,0.0074,0.004,0.02293,0.004,0.02988-0.005,0.01133-0.0183,0.05295-0.0237,0.06373,0.00024,0.0028,0.004,0.02666,0.004,0.02988-0.007,0.0073-0.0266,0.03238-0.0279,0.03385-0.007,0.000191-0.0301,0.0037-0.0321,0.004-0.003,0.000243-0.0292,0.0038-0.0321,0.004,0,0-7.1091,1.2175-13.053,2.7078l-1.875-3.279,3.778-2.095-5.867-12.224-4.973,1.132-7.279-14.877c0.81663-6.9543,6.0664-12.239,14.92-13.882,0.08807-0.016341,0.16386-0.04638,0.25282-0.061649zm-81.089,101.49c0.36972-0.0691,0.76401-0.0923,1.1607-0.11308,3.6524-0.19122,7.1944,3.3332,7.3635,7.5405,0.13991,3.4807-3.3634,7.1204-7.0159,7.3116-3.6524,0.19124-7.3628-3.4835-7.5912-7.2995-0.2006-3.3519,2.1505-6.7048,6.0829-7.4395z"/>
   <path id="path30758" fill="#888a85" d="m16.232,102.01c5.543-1.305,11.85,4.9107,10.635,10.771,4.1486-3.435,51.889-56.678,52.879-59.24,1.516-3.9234-2.5781-7.4684-6.4721-5.7974-2.7161,1.1655-57.402,54.352-57.041,54.267z"/>
   <path id="path7295" opacity="0.8" d="m16.232,102.01c5.543-1.305,11.85,4.9107,10.635,10.771,4.1486-3.435,51.889-56.678,52.879-59.24,1.516-3.9234-2.5781-7.4684-6.4721-5.7974-2.7161,1.1655-57.402,54.352-57.041,54.267z" fill="#000"/>
   <path id="path4003" opacity="0.27722772" d="m16.232,102.01c5.543-1.305,11.85,4.9107,10.635,10.771,4.1486-3.435,51.889-56.678,52.879-59.24,1.516-3.9234-2.5781-7.4684-6.4721-5.7974-2.7161,1.1655-57.402,54.352-57.041,54.267z" fill="url(#radialGradient3434)"/>
   <path id="path1773" opacity="0.5" d="m16.232,102.01c5.543-1.305,11.85,4.9107,10.635,10.771,4.1486-3.435,51.889-56.678,52.879-59.24,1.516-3.9234-2.5781-7.4684-6.4721-5.7974-2.7161,1.1655-57.402,54.352-57.041,54.267z" fill="url(#radialGradient3436)"/>
   <path id="path2271" opacity="0.40366971" d="m73.188,47.862c0.30416-0.18738,2.8757-1.47,5.2502,0.61959,2.0268,1.7837,1.7536,3.6297,1.1889,5.2913-0.27272,0.80243-22.19,25.655-26.125,30.176-1.9347,2.2235-8.5553,9.46-14.63,16.145-6.1286,6.7441-11.884,12.594-11.884,12.594s51.929-57.888,52.243-59.467c0.45981-2.3151-0.48845-3.052-1.27-3.7915-0.79652-0.7537-2.198-1.596-4.1056-1.2089-2.6306,0.53387-56.502,53.332-57.521,53.719,0,0,12.936-12.809,26.589-25.983,13.653-13.164,28.021-26.703,30.265-28.085z" fill="#2e3436"/>
   <path id="path2660" fill="url(#radialGradient3438)" d="m16.748,101.47s4.2958-1.0311,7.9664,2.4088c4.0143,3.762,2.7932,8.2417,2.7932,8.2417l-0.64556,0.77086s0.35305-1.7144-0.06429-3.3962c-0.41734-1.6819-1.304-3.4099-2.8151-4.801-1.4891-1.3708-2.9006-2.2534-4.4342-2.5817-1.5336-0.32828-3.277-0.0915-3.2421-0.15744l0.44155-0.48502z"/>
   <path id="path6192" fill="url(#radialGradient3438)" d="m16.748,101.47s4.2958-1.0311,7.9664,2.4088c4.0143,3.762,2.7932,8.2417,2.7932,8.2417l-0.64556,0.77086s0.35305-1.7144-0.06429-3.3962c-0.41734-1.6819-1.304-3.4099-2.8151-4.801-1.4891-1.3708-2.9006-2.2534-4.4342-2.5817-1.5336-0.32828-3.277-0.0915-3.2421-0.15744l0.44155-0.48502z"/>
   <path id="path3939" d="M104.61,3.1939c-11.994-0.9893-20.744,3.1664-22.16,12.269,1.647-6.957,8.949-12.606,22.16-12.269z" filter="url(#filter3989)" fill="#FFF"/>
   <path id="path3993" opacity="0.77722772" d="M104.61,3.1939c-12.145-1.7128-21.738,2.6539-22.16,12.269,2.31-6.8364,8.949-12.334,22.16-12.269z" filter="url(#filter3995)" fill="#FFF"/>
   <path id="path4001" opacity="0.77722772" d="m99.812,3.1562c-4.7819-0.02921-8.9388,0.9715-11.938,3-2.5547,1.7282-4.2867,4.1789-4.9062,7.3125,2.4908-5.1802,7.7705-9.292,16.844-10.312z" filter="url(#filter3995)" fill="#FFF"/>
   <path id="path3741" opacity="0.5" d="m75.435,47.312c-0.70589-0.02155-1.4261,0.12418-2.1562,0.4375-2.7161,1.1655-57.392,54.335-57.031,54.25,0.377-0.0888,0.74353-0.1346,1.125-0.15625,5.8315-5.8841,53.364-52.003,55.906-53.094,3.117-1.3376,6.3566,0.66576,6.75,3.5312,0.25748-2.6636-1.9438-4.8879-4.5938-4.9688zm-48.438,64.375c-0.01923,0.36711-0.04902,0.72749-0.125,1.0938,0.02334-0.0193,0.09892-0.0713,0.125-0.0937,0.000549-0.0105-0.000505-0.0208,0-0.0312,0.01565-0.32513,0.02578-0.64588,0-0.96875z" fill="#000"/>
  </g>
 </g>
</svg>
