<?xml version="1.0" encoding="UTF-8" standalone="no"?>
<svg
   xmlns:dc="http://purl.org/dc/elements/1.1/"
   xmlns:cc="http://creativecommons.org/ns#"
   xmlns:rdf="http://www.w3.org/1999/02/22-rdf-syntax-ns#"
   xmlns:svg="http://www.w3.org/2000/svg"
   xmlns="http://www.w3.org/2000/svg"
   xmlns:sodipodi="http://sodipodi.sourceforge.net/DTD/sodipodi-0.dtd"
   xmlns:inkscape="http://www.inkscape.org/namespaces/inkscape"
   width="24"
   height="24"
   viewBox="0 0 24 24"
   fill="none"
   stroke="currentColor"
   stroke-width="2"
   stroke-linecap="round"
   stroke-linejoin="round"
   id="svg2"
   version="1.1"
   inkscape:version="0.48.3.1 r9886"
   sodipodi:docname="MUI_print.svg">
  <metadata
     id="metadata18">
    <rdf:RDF>
      <cc:Work
         rdf:about="">
        <dc:format>image/svg+xml</dc:format>
        <dc:type
           rdf:resource="http://purl.org/dc/dcmitype/StillImage" />
        <dc:title></dc:title>
      </cc:Work>
    </rdf:RDF>
  </metadata>
  <defs
     id="defs16" />
  <sodipodi:namedview
     pagecolor="#ffffff"
     bordercolor="#666666"
     borderopacity="1"
     objecttolerance="10"
     gridtolerance="10"
     guidetolerance="10"
     inkscape:pageopacity="0"
     inkscape:pageshadow="2"
     inkscape:window-width="1638"
     inkscape:window-height="909"
     id="namedview14"
     showgrid="false"
     inkscape:zoom="14.407301"
     inkscape:cx="12"
     inkscape:cy="4.4840694"
     inkscape:window-x="0"
     inkscape:window-y="0"
     inkscape:window-maximized="0"
     inkscape:current-layer="svg2" />
  <g
     transform="matrix(0.03577428,0,0,0.03577428,3.0578134,2.9728046)"
     id="g3"
     style="fill:#b4b4b4;fill-opacity:1;stroke:#b4b4b4;stroke-opacity:1;stroke-width:13.19383563;stroke-miterlimit:4;stroke-dasharray:none">
    <path
       inkscape:connector-curvature="0"
       d="M 493,352.9 V 174 c 0,-23.8 -19.4,-43.2 -43.2,-43.2 H 403 V 39.7 C 403,23.9 390.1,11 374.3,11 H 137.5 c -15.8,0 -28.7,12.9 -28.7,28.7 v 91.2 H 62.2 C 38.4,130.8 19,150.2 19,174 v 178.9 c 0,23.8 19.4,43.2 43.2,43.2 h 46.7 v 76.2 c 0,15.8 12.9,28.7 28.7,28.7 h 236.8 c 15.8,0 28.7,-12.9 28.7,-28.7 v -76.2 h 46.7 c 23.8,0 43.2,-19.3 43.2,-43.2 z M 133.4,39.7 c 0,-2.3 1.9,-4.2 4.2,-4.2 h 236.8 c 2.3,0 4.2,1.9 4.2,4.2 v 91.2 H 133.4 V 39.7 z m 245.2,432.6 c 0,2.3 -1.9,4.2 -4.2,4.2 H 137.6 c -2.3,0 -4.2,-1.9 -4.2,-4.2 V 275.7 H 378.5 V 472.3 z M 390.8,251.2 H 121.2 c -6.8,0 -12.3,5.5 -12.3,12.3 V 371.6 H 62.2 c -10.3,0 -18.7,-8.4 -18.7,-18.7 V 174 c 0,-10.3 8.4,-18.7 18.7,-18.7 h 387.5 c 10.3,0 18.7,8.4 18.7,18.7 v 178.9 c 0,10.3 -8.4,18.7 -18.7,18.7 H 403 V 263.5 c 0.1,-6.8 -5.4,-12.3 -12.2,-12.3 z"
       id="path5"
       style="fill:#b4b4b4;fill-opacity:1;stroke:#b4b4b4;stroke-opacity:1;stroke-width:13.19383563;stroke-miterlimit:4;stroke-dasharray:none" />
    <path
       inkscape:connector-curvature="0"
       d="m 82.5,194.4 c -2.3,2.3 -3.6,5.4 -3.6,8.7 0,3.2 1.3,6.4 3.6,8.7 2.3,2.3 5.4,3.6 8.7,3.6 3.2,0 6.4,-1.3 8.7,-3.6 2.3,-2.3 3.6,-5.5 3.6,-8.7 0,-3.2 -1.3,-6.4 -3.6,-8.7 -4.7,-4.6 -12.9,-4.6 -17.4,0 z"
       id="path7"
       style="fill:#b4b4b4;fill-opacity:1;stroke:#b4b4b4;stroke-opacity:1;stroke-width:13.19383563;stroke-miterlimit:4;stroke-dasharray:none" />
    <path
       inkscape:connector-curvature="0"
       d="m 325.5,363.9 h -139 c -6.8,0 -12.3,5.5 -12.3,12.3 0,6.8 5.5,12.3 12.3,12.3 h 138.9 c 6.8,0 12.3,-5.5 12.3,-12.3 0,-6.8 -5.5,-12.3 -12.2,-12.3 z"
       id="path9"
       style="fill:#b4b4b4;fill-opacity:1;stroke:#b4b4b4;stroke-opacity:1;stroke-width:13.19383563;stroke-miterlimit:4;stroke-dasharray:none" />
    <path
       inkscape:connector-curvature="0"
       d="m 325.5,419.4 h -139 c -6.8,0 -12.3,5.5 -12.3,12.3 0,6.8 5.5,12.3 12.3,12.3 h 138.9 c 6.8,0 12.3,-5.5 12.3,-12.3 0,-6.8 -5.5,-12.3 -12.2,-12.3 z"
       id="path11"
       style="fill:#b4b4b4;fill-opacity:1;stroke:#b4b4b4;stroke-opacity:1;stroke-width:13.19383563;stroke-miterlimit:4;stroke-dasharray:none" />
    <path
       inkscape:connector-curvature="0"
       d="m 325.5,308.3 h -139 c -6.8,0 -12.3,5.5 -12.3,12.3 0,6.8 5.5,12.3 12.3,12.3 h 138.9 c 6.8,0 12.3,-5.5 12.3,-12.3 0,-6.8 -5.5,-12.3 -12.2,-12.3 z"
       id="path13"
       style="fill:#b4b4b4;fill-opacity:1;stroke:#b4b4b4;stroke-opacity:1;stroke-width:13.19383563;stroke-miterlimit:4;stroke-dasharray:none" />
  </g>
</svg>
