<?xml version="1.0" encoding="UTF-8" standalone="no"?>
<svg
   height="56"
   viewBox="0 0 56 56"
   width="56"
   version="1.1"
   id="svg4"
   sodipodi:docname="notification-warning-1.svg"
   inkscape:version="1.2.2 (b0a8486541, 2022-12-01)"
   xmlns:inkscape="http://www.inkscape.org/namespaces/inkscape"
   xmlns:sodipodi="http://sodipodi.sourceforge.net/DTD/sodipodi-0.dtd"
   xmlns="http://www.w3.org/2000/svg"
   xmlns:svg="http://www.w3.org/2000/svg">
  <defs
     id="defs8" />
  <sodipodi:namedview
     id="namedview6"
     pagecolor="#ffffff"
     bordercolor="#000000"
     borderopacity="0.25"
     inkscape:showpageshadow="2"
     inkscape:pageopacity="0.0"
     inkscape:pagecheckerboard="0"
     inkscape:deskcolor="#d1d1d1"
     showgrid="false"
     inkscape:zoom="14.767857"
     inkscape:cx="27.966143"
     inkscape:cy="28.033857"
     inkscape:window-width="1920"
     inkscape:window-height="1007"
     inkscape:window-x="0"
     inkscape:window-y="0"
     inkscape:window-maximized="1"
     inkscape:current-layer="svg4" />
  <path
     d="m9.4257 43.75h23.6016c-.1641 3.1641-2.2031 5.1797-5.0156 5.1797-2.836 0-4.8516-2.0156-5.0391-5.1797h-3.6562c.1875 4.5 3.7265 8.4609 8.6953 8.4609 4.9453 0 8.4843-3.9609 8.6718-8.4609h9.8907c2.2263 0 3.5391-1.1484 3.5391-2.8359 0-2.3438-2.3673-4.4532-4.4063-6.5391-1.5469-1.6172-1.9688-4.9453-2.1328-7.6406-.1875-9.2344-2.5547-15.211-8.8125-17.461-.7735-3.0468-3.3047-5.4843-6.75-5.4843-3.4688 0-5.9766 2.4375-6.7735 5.4843-6.2343 2.25-8.625 8.2266-8.789 17.461-.1875 2.6953-.586 6.0234-2.1563 7.6406-2.0156 2.0859-4.4062 4.1953-4.4062 6.5391 0 1.6875 1.3359 2.8359 3.539 2.8359zm1.0313-3.5391v-.2812c.4219-.7031 1.8047-2.0625 3.0469-3.4453 1.664-1.875 2.4609-4.875 2.6718-9.4688.1875-10.2187 3.2344-13.5 7.2656-14.5781.586-.1406.8907-.4453.9141-1.0313.0938-2.4609 1.4766-4.1718 3.6563-4.1718 2.1562 0 3.5625 1.7109 3.6328 4.1718.0234.586.3515.8907.9375 1.0313 4.0078 1.0781 7.0547 4.3594 7.2656 14.5781.1875 4.5938.9844 7.5938 2.6719 9.4688 1.2187 1.3828 2.625 2.7422 3.0469 3.4453v.2812z"
     id="path2" />
  <path
     style="fill:#ff5f15;fill-rule:evenodd;stroke:#000000;stroke-width:0.365659;fill-opacity:1"
     d="m 10.495768,40.068272 c 0,-0.22287 0.335581,-0.629361 2.016331,-2.442388 1.515452,-1.634723 1.908593,-2.189766 2.406421,-3.397435 0.806312,-1.956012 1.148642,-4.075976 1.333801,-8.259888 0.357208,-8.071562 2.422019,-12.040728 6.988293,-13.433528 0.915358,-0.279201 1.088529,-0.479342 1.1642,-1.345514 0.210509,-2.4096374 1.614255,-3.9101961 3.657916,-3.9101961 1.932742,0 3.333996,1.5444705 3.532545,3.8935911 0.07623,0.901872 0.226176,1.067928 1.252169,1.38668 2.127114,0.660844 3.597424,1.814991 4.701014,3.690151 0.481791,0.818633 0.723608,1.363762 1.082148,2.439493 0.696366,2.089314 1.021762,4.333896 1.187801,8.193471 0.165803,3.85408 0.638175,6.187582 1.644901,8.125755 0.396352,0.763067 0.777979,1.245197 2.2594,2.854422 1.522845,1.654222 1.779981,1.968033 1.780867,2.17339 l 6.57e-4,0.152358 H 28 c -16.728697,0 -17.504232,-0.0053 -17.504232,-0.120362 z"
     id="path306" />
  <path
     style="fill:#ff5f15;fill-rule:evenodd;stroke:#000000;stroke-width:0.365659;fill-opacity:1"
     d="m 27.322854,48.849844 c -1.798283,-0.23958 -3.220736,-1.37399 -3.88567,-3.09883 -0.19121,-0.496001 -0.414209,-1.47137 -0.414209,-1.811699 v -0.161806 h 4.986376 4.986376 l -0.04492,0.438494 c -0.06477,0.632219 -0.34425,1.536722 -0.669007,2.165178 -0.413514,0.800214 -1.242408,1.616651 -2.015892,1.985597 -0.937393,0.447129 -1.95683,0.614457 -2.943049,0.483066 z"
     id="path308" />
</svg>
