<svg
   width="36"
   height="36"
  viewBox="0 0 36 36" >
   xmlns="http://www.w3.org/2000/svg"
  <defs
     id="defs18" />
  <path
     d="m 13.767901,12.376173 h 2 v 16 h -2 z"
     id="path2" />
  <path
     d="m 17.767901,12.376173 h 2 v 16 h -2 z"
     id="path4" />
  <path
     d="m 21.767901,12.376173 h 2 v 16 h -2 z"
     id="path6" />
  <path
     d="m 5.767901,6.3761731 h 26 v 2.0000003 h -26 z"
     id="path8" />
  <path
     d="m 23.767901,6.3761731 h -2 v -1 c 0,-0.6 -0.4,-1 -1,-1 h -4 c -0.6,0 -1,0.4 -1,1 v 1 h -2 v -1 c 0,-1.7 1.3,-3 3,-3 h 4 c 1.7,0 3,1.3 3,3 z"
     id="path10" />
  <path
     d="m 24.767901,34.376173 h -12 c -1.6,0 -3.0000002,-1.3 -3.2000002,-2.9 L 7.767901,7.4761731 l 1.9999998,-0.2 1.8000002,23.9999999 c 0,0.6 0.6,1.1 1.2,1.1 h 12 c 0.6,0 1.1,-0.5 1.2,-1.1 l 1.8,-23.9999999 2,0.2 -1.8,23.9999999 c -0.2,1.6 -1.6,2.9 -3.2,2.9 z"
     id="path12" />
</svg>
