/* XPM */
static const char *activepoint[]={
"23 23 3 1",
". c None",
"A c #ff0000",
"B c #ffff00",
"........AAAAAAA........",
"......AAAAAAAAAAA......",
"....AAAAAAAAAAAAAAA....",
"...AAAAAAAAAAAAAAAAA...",
"..AAAAAAA.....AAAAAAA..",
"..AAAAA...BBB...AAAAA..",
".AAAAA..BBBBBBB..AAAAA.",
".AAAA..BBBBBBBBB..AAAA.",
"AAAAA.BBBBBBBBBBB.AAAAA",
"AAAA..BBBBBBBBBBB..AAAA",
"AAAA.BBBBBBBBBBBBB.AAAA",
"AAAA.BBBBBBBBBBBBB.AAAA",
"AAAA.BBBBBBBBBBBBB.AAAA",
"AAAA..BBBBBBBBBBB..AAAA",
"AAAAA.BBBBBBBBBBB.AAAAA",
".AAAA..BBBBBBBBB..AAAA.",
".AAAAA..BBBBBBB..AAAAA.",
"..AAAAA...BBB...AAAAA..",
"..AAAAAAA.....AAAAAAA..",
"...AAAAAAAAAAAAAAAAA...",
"....AAAAAAAAAAAAAAA....",
"......AAAAAAAAAAA......",
"........AAAAAAA........"};
