/* XPM */
static const char *airplane[]={
"16 16 4 1",
". c None",
"# c #000000",
"a c #00007f",
"b c #00ffff",
".....#####......",
".......a........",
"......aaa.......",
"......aaa.......",
"......aba.......",
".....aabaa......",
".aaaaaabaaaaaa..",
"aabbaaaaaaabbaa.",
".aaaaaaaaaaaaa..",
"......aaa.......",
"......aaa.......",
"......aaa.......",
"......aaa.......",
"....aaaaaaa.....",
"...aabaaabaa....",
"....aaaaaaa....."};
