/* XPM */
static const char *boarding[]={
"16 16 2 1",
". c None",
"# c #7f007f",
"...#########....",
"...#...#...#....",
"..#...###...#...",
"..#...###...#...",
".##...###...##..",
".#...#####...#..",
".#..#######..#..",
".#.#########.#..",
".#.#########.#..",
".#..#######..#..",
".#...#####...#..",
".#....###....#..",
".#....###....#..",
"..#...###...#...",
"...#...#...#....",
"....#######....."};
