/* XPM */
static const char *boundary[]={
"16 16 4 1",
". c None",
"b c #000000",
"# c #7f7f7f",
"a c #bfbfbf",
"................",
".......#........",
"......a#b.......",
"......#b#.......",
".....#a##b......",
".....aab##......",
"....aaa##b#.....",
"....aaa##b#.....",
"....#aab##b.....",
"....aaa##b#.....",
"....#aab##b.....",
"....aaa##b#.....",
"....#aab##b.....",
"....aaa####.....",
"..########b#b...",
"..#########b#..."};
