/* XPM */
static const char *campfire[]={
"16 16 4 1",
". c None",
"a c #90672f",
"b c #ffc800",
"# c #ffff00",
"................",
"................",
".......#........",
"......###.#.....",
"......#####.....",
".....#######....",
"..aa.##bbb##aa..",
"...aaabbbbaaa...",
"....aaabbaaa....",
"......aaaa......",
"....aaa..aaa....",
"...aaa....aaa...",
"..aa........aa..",
"................",
"................",
"................"};
