/* XPM */
static const char *colscheme[] = {
/* columns rows colors chars-per-pixel */
"32 32 175 2",
"   c #040403",
".  c #0C0A05",
"X  c #0C0D0D",
"o  c #110D02",
"O  c #120E09",
"+  c #151205",
"@  c #0F1010",
"#  c #151515",
"$  c #1A1714",
"%  c #171817",
"&  c #1A1A17",
"*  c #1D1D1D",
"=  c #2E1E0D",
"-  c #221C15",
";  c #221F1D",
":  c #1F201F",
">  c #30200F",
",  c #3F260F",
"<  c #2B2114",
"1  c #23211C",
"2  c #28241D",
"3  c #2D291B",
"4  c #342212",
"5  c #3A2512",
"6  c #3D2B17",
"7  c #302B19",
"8  c #3D2C1A",
"9  c #3F3618",
"0  c #242424",
"q  c #282622",
"w  c #2C2A23",
"e  c #272828",
"r  c #2B2B2B",
"t  c #363225",
"y  c #3A3522",
"u  c #31302E",
"i  c #39362C",
"p  c #3C382B",
"a  c #333333",
"s  c #3C3C3C",
"d  c #442C14",
"f  c #4A3111",
"g  c #47321D",
"h  c #433918",
"j  c #483D19",
"k  c #543C12",
"l  c #6C3E0E",
"z  c #703E0C",
"x  c #413C29",
"c  c #4D4017",
"v  c #4F4318",
"b  c #554115",
"n  c #554816",
"m  c #5A4E1F",
"M  c #5F511D",
"N  c #7D450B",
"B  c #6A4E11",
"V  c #645317",
"C  c #61521A",
"Z  c #705C15",
"A  c #7A5F18",
"S  c #7D6917",
"D  c #7B641A",
"F  c #4F4524",
"G  c #534926",
"H  c #5A4E23",
"J  c #5F5226",
"K  c #745F20",
"L  c #736425",
"P  c #7F6D21",
"I  c gray27",
"U  c #494949",
"Y  c gray33",
"T  c #5D5D5D",
"R  c #656565",
"E  c gray43",
"W  c gray45",
"Q  c #7B7B7B",
"!  c #83490D",
"~  c #905712",
"^  c #AA5C09",
"/  c #B25F08",
"(  c #816B17",
")  c #896813",
"_  c #806B1E",
"`  c #8C7517",
"'  c #897118",
"]  c #91771B",
"[  c #93791D",
"{  c #987B1D",
"}  c #BF6806",
"|  c #B97211",
" . c #B77B1C",
".. c #806E23",
"X. c #86742A",
"o. c #8C772A",
"O. c #907620",
"+. c #C66705",
"@. c #C86805",
"#. c #CB7005",
"$. c #C3720D",
"%. c #D17005",
"&. c #DC7203",
"*. c #D67A03",
"=. c #F57E01",
"-. c #A4841A",
";. c #C98217",
":. c #FF8600",
">. c #FF8C00",
",. c #EF9201",
"<. c #FF9300",
"1. c #FF9C01",
"2. c #FF9709",
"3. c #FF9A0A",
"4. c #FFA500",
"5. c #FFAA01",
"6. c #FFA40B",
"7. c #FFA90C",
"8. c #FFB300",
"9. c #FFBB00",
"0. c #FFB30B",
"q. c #FFB80B",
"w. c #FFAE14",
"e. c #FFA419",
"r. c #FFAC1A",
"t. c #FFBD14",
"y. c #FFB71C",
"u. c #DA9B26",
"i. c #FFB722",
"p. c #FFBB27",
"a. c #FFC100",
"s. c #FFC20B",
"d. c #FFCB0B",
"f. c #FFC31E",
"g. c #FFC020",
"h. c #FFCB27",
"j. c #FFC62B",
"k. c #FFCB2C",
"l. c #FFD32E",
"z. c #FFDA2C",
"x. c #FFC937",
"c. c #FFD530",
"v. c #FFE430",
"b. c #FFE63E",
"n. c #FFEC3C",
"m. c #FFC947",
"M. c #FFD64C",
"N. c #FFDA4C",
"B. c #FFE544",
"V. c #FFEA43",
"C. c #FFE24D",
"Z. c #FFEE59",
"A. c #FFF050",
"S. c #FFF15E",
"D. c #FEE66F",
"F. c #FFEE6D",
"G. c #FFE570",
"H. c gray51",
"J. c #8C8C8C",
"K. c gray60",
"L. c #A7A7A7",
"P. c #ACACAC",
"I. c gray70",
"U. c #BEBEBE",
"Y. c #C3C3C3",
"T. c #CBCBCB",
"R. c #D7D7D7",
"E. c #DEDEDE",
"W. c #E5E6E6",
"Q. c #EDEDEC",
"!. c #F0EFEC",
"~. c #F0F0ED",
"^. c #EFF0F0",
"/. c #F3F3F3",
"(. c #FBFBFB",
/* pixels */
"E.E.E.E.E.E.W.R.U.R.E.E.E.E.E.E.I.R.E.E.E.E.E.E.E.E.E.W.E.E.E.E.",
"E.W.E.E.E.E.Q 0 R U U.E.E.E.E.E.U R.E.E.E.E.E.E.W.E.E.E.E.E.W.E.",
"E.E.E.W.E.I.a E.E.E.E.T.Q R U.E.U R.R.H.R I.E.J.J.Y E.E.E.E.E.E.",
"E.E.E.E.E.H.W E.E.E.E.R L.T.s E.U R.H.J.T.s E.T E E.E.E.E.E.E.E.",
"W.E.E.E.W.J.T E.E.E.E.s E.E.U T.U R.I R.E.T I.T U.E.E.E.W.E.E.E.",
"E.E.E.E.E.T.0 U.E.T.T.T U.E.s E.I R.Q K.E.s R.T Y.E.E.E.E.E.E.E.",
"E.E.E.E.E.E.P.I I Y T.U.T Y L.E.E R.T.R Y K.E.Q Y.E.E.E.E.E.E.E.",
"E.T.U.U.U.U.U.U.U.U.U.U.U.U.U.U.U.U.U.U.U.U.U.U.U.U.U.U.U.Y.T.E.",
"R.P.Q.Q.Q.Q.Q.Q.^.^.^.^.^.^./././.^././.^./././././././././.P.R.",
"R.L.Q.G.D.D.D.D.D.D.G.G.D.D.D.D.G.G.G.G.G.G.G.G.G.G.G.G.G./.L.R.",
"R.L.Q.N.C.C.C.C.C.C.N.N.N.N.N.N.N.M.N.M.M.M.N.M.N.M.M.M.N./.L.R.",
"R.L.Q.z.z.z.z.l.l.c.c.c.l.k.k.k.k.k.k.k.k.k.k.h.k.k.k.k.x./.P.R.",
"R.L.Q.d.d.s.s.t.t.f.g.y.w.7.6.6.6.6.6.6.6.7.7.7.0.0.0.q.q.(.L.R.",
"R.L.~.9.8.5.5.7.i.j.j.p.r.3.>.>.>.>.>.>.>.<.<.<.<.1.1.4.4./.L.R.",
"R.L.~.a.9.8.q.h.v.n.V.V.c.r.2.<.<.<.<.<.1.<.1.1.4.4.4.4.5.(.L.R.",
"R.L.~.9.8.8.0.h.n.A.S.Z.B.i.2.<.>.>.<.>.>.>.<.<.<.<.1.4.1.(.L.R.",
"R.L.!.8.5.4.6.h.b.Z.F.F.C.p.2.>.>.>.>.:.:.:.>.>.>.>.<.<.1.(.L.R.",
"R.L.!.,.*.#.^ $.| u.m.M.x.e.>.>.:.:.:.:.=.&.+.+.@.+.%.&.} (.L.R.",
"E.L.!.N N N N N N N ~  .;.$.#.%./ ! l z z l z z N N N N z (.L.R.",
"R.L.Q.4 - < , = = > 4 4 & < 1 % % % % % % % * % % % - $ O (.L.R.",
"R.L.Q.        . O - + o . . X @ @ @ X     O @ @ X         (.L.R.",
"R.L.Q.= 4 6 b D { -.-.) B k f d g g d 5 5 8 8 8 8 8 5 8 5 (.L.E.",
"R.L./.% & 3 v D { { ` Z c 3 1 : 0 : * $ * 0 ; : 0 e e * # (.L.R.",
"R.L.^.* 0 t m ( ] ] ( V c 7 1 0 : : * 0 0 r r a a u 0 * # (.L.R.",
"R.L./.0 e t H ..O.[ S C h 3 1 : 0 : : 0 0 0 r a a u e : : (.L.R.",
"R.L./.e r i J ..O.' Z n 9 7 2 2 0 e e e r a a a a u u e 0 (.P.R.",
"R.L./.e r p J P { ] _ M j 2 : 0 e e e 0 e a a a a s a r e (.L.R.",
"R.L./.a u i F K O.[ A M F t 2 q e a a r e 0 r r a a a a r (.L.R.",
"R.L./.u u u x G K o.X.L H y w r u a a r 0 e a a a a r r r /.L.R.",
"R.P.(././.(.(.(.(.(.(.(.(.(.(.(.(././.^.Q.Q.W.W.W.W.Q.Q.^.(.P.R.",
"E.U.P.L.L.L.L.L.L.L.L.L.L.L.L.L.L.L.L.L.L.L.L.L.L.L.L.L.L.P.Y.E.",
"E.E.R.R.R.R.R.R.R.R.R.R.R.R.R.R.R.R.R.R.R.R.R.R.R.R.R.R.R.R.E.E."
};
