/* XPM */
static const char *coral[]={
"16 16 3 1",
". c #00ffff",
"# c #7f7f00",
"a c #7f7f7f",
"................",
"................",
".......#........",
"...#..##..#.....",
"...#########....",
"...#aaaaaaa##...",
"..##aaaaaaa#....",
"...#aaaaaaa#.#..",
"...#aaaaaaa####.",
"..##aaaaaaa#....",
".###aaaaaaa##...",
"...#########....",
"...#.##..##.....",
"......#..#......",
"................",
"................"};
