/* XPM */
static const char *cross[]={
"32 32 3 1",
". c None",
"# c #800000",
"a c #ff0000",
"..............#aa...............",
"..............#aa...............",
"..............#aa...............",
"..............#aa...............",
"..............#aa...............",
"..............#aa...............",
"..............#aa...............",
"..............#aa...............",
"..............#aa...............",
"..............#aa...............",
"..............#aa...............",
"..............#aa...............",
"..............#aa...............",
"..............#aa...............",
"###############aa###############",
"aaaaaaaaaaaaaaaaaaaaaaaaaaaaaaaa",
"aaaaaaaaaaaaaaaaaaaaaaaaaaaaaaaa",
"..............#aa...............",
"..............#aa...............",
"..............#aa...............",
"..............#aa...............",
"..............#aa...............",
"..............#aa...............",
"..............#aa...............",
"..............#aa...............",
"..............#aa...............",
"..............#aa...............",
"..............#aa...............",
"..............#aa...............",
"..............#aa...............",
"..............#aa...............",
"..............#aa..............."};
