/* XPM */
static const char *current[] = {
/* columns rows colors chars-per-pixel */
"32 32 247 2",
"   c black",
".  c #020202",
"X  c gray1",
"o  c #040404",
"O  c #060606",
"+  c #070707",
"@  c #0E0E0E",
"#  c #101010",
"$  c #111111",
"%  c gray10",
"&  c gray11",
"*  c gray12",
"=  c #202020",
"-  c #232323",
";  c gray15",
":  c #2D2D2D",
">  c #343434",
",  c gray21",
"<  c #3A3A3A",
"1  c gray23",
"2  c #3F3F3F",
"3  c gray25",
"4  c #414141",
"5  c #434343",
"6  c #444444",
"7  c gray27",
"8  c #505050",
"9  c #515151",
"0  c gray33",
"q  c #565656",
"w  c #5A5A5A",
"e  c #5D5D5D",
"r  c gray39",
"t  c DimGray",
"y  c #6F6F6F",
"u  c gray44",
"i  c #717171",
"p  c gray48",
"a  c #E69119",
"s  c #E69D36",
"d  c #EA9E32",
"f  c #E7A03A",
"g  c #E7A13D",
"h  c #EAA139",
"j  c #ECA43F",
"k  c #FFAB33",
"l  c #FDAA34",
"z  c #FCAB37",
"x  c #FEAB36",
"c  c #FEAD39",
"v  c #FDAD3B",
"b  c #FEAE3B",
"n  c #FBAC3D",
"m  c #FEAF3D",
"M  c #FEB03F",
"N  c #E9A543",
"B  c #ECA744",
"V  c #E4A54C",
"C  c #E7A74C",
"Z  c #E8A74A",
"A  c #E7A84E",
"S  c #EDA949",
"D  c #E8A84D",
"F  c #F2AC49",
"G  c #F0AD4E",
"H  c #FDB041",
"J  c #FDB042",
"K  c #FDB245",
"L  c #FDB347",
"P  c #FDB349",
"I  c #FDB44A",
"U  c #FDB44D",
"Y  c #FDB54F",
"T  c #E5A955",
"R  c #E5AB58",
"E  c #EBAE58",
"W  c #F9B553",
"Q  c #FDB652",
"!  c #FDB653",
"~  c #F9B554",
"^  c #FBB755",
"/  c #F8B556",
"(  c #F9B656",
")  c #F8B657",
"_  c #FDB754",
"`  c #FDB957",
"'  c #F8B75A",
"]  c #FDBA59",
"[  c #FDBA5B",
"{  c #FDBB5C",
"}  c #FDBC5E",
"|  c #FDBC5F",
" . c #DBB072",
".. c #DAB178",
"X. c #DDB378",
"o. c #E2AD61",
"O. c #EAB363",
"+. c #ECB464",
"@. c #ECB567",
"#. c #FBBC61",
"$. c #FBBD63",
"%. c #FCBC60",
"&. c #F8BB64",
"*. c #F9BD65",
"=. c #FBBD65",
"-. c #FBBE66",
";. c #FBBE67",
":. c #F5BC68",
">. c #FBBE68",
",. c #E4B674",
"<. c #EDBD76",
"1. c #E5B97B",
"2. c #E1B87C",
"3. c #E1B87F",
"4. c #FBC06B",
"5. c #FBC16C",
"6. c #FBC16E",
"7. c #FBC26F",
"8. c #FBC270",
"9. c #FBC372",
"0. c #FBC373",
"q. c #FBC474",
"w. c #FBC475",
"e. c #FBC477",
"r. c #F9C478",
"t. c #FBC578",
"y. c #FBC679",
"u. c #FBC67B",
"i. c #FBC67C",
"p. c #FBC77D",
"a. c #FBC77E",
"s. c #FBC87F",
"d. c gray52",
"f. c gray53",
"g. c #8D8D8D",
"h. c #9B9B9B",
"j. c #9F9F9F",
"k. c #A0A0A0",
"l. c gray64",
"z. c gray67",
"x. c gray69",
"c. c gray70",
"v. c gray71",
"b. c gray75",
"n. c #DCB681",
"m. c #E3BB81",
"M. c #E4BC83",
"N. c #E2BB84",
"B. c #E1BD88",
"V. c #E5BF89",
"C. c #EEC180",
"Z. c #ECC183",
"A. c #E6C18D",
"S. c #E5C28F",
"D. c #E8C189",
"F. c #FBC880",
"G. c #FAC881",
"H. c #FAC882",
"J. c #FACA85",
"K. c #FACA86",
"L. c #FACA87",
"P. c #F7CB8B",
"I. c #F8CA88",
"U. c #F9CC8A",
"Y. c #F9CC8C",
"T. c #F9CD8D",
"R. c #F9CE8E",
"E. c #F9CE8F",
"W. c #E5C290",
"Q. c #E3C394",
"!. c #E2C69E",
"~. c #EAC999",
"^. c #EBC999",
"/. c #ECCA99",
"(. c #EBCB9D",
"). c #F1CB96",
"_. c #F9CF91",
"`. c #F9D093",
"'. c #F9D094",
"]. c #F9D299",
"[. c #F9D29A",
"{. c #F9D39A",
"}. c #F8D29C",
"|. c #F9D49D",
" X c #E1C8A4",
".X c #EBCDA3",
"XX c #ECCDA0",
"oX c #EBCFA6",
"OX c #E2CBAA",
"+X c #E9CEA8",
"@X c #ECD0AA",
"#X c #EAD1AC",
"$X c #EBD2AF",
"%X c #F9D5A1",
"&X c #F8D5A2",
"*X c #F9D7A3",
"=X c #FAD7A4",
"-X c #F9D9AB",
";X c #E5D1B3",
":X c #E6D3B7",
">X c #E9D1B0",
",X c #EAD3B2",
"<X c #E3D1B8",
"1X c #F7DCB3",
"2X c #F9DCB3",
"3X c #F9DDB4",
"4X c #FADDB4",
"5X c #F9DEB7",
"6X c #FAE0BB",
"7X c gray78",
"8X c #C8C8C8",
"9X c #D0D0D0",
"0X c #D2D2D2",
"qX c gray83",
"wX c #D5D5D5",
"eX c gray84",
"rX c #DFDBD6",
"tX c #D8D8D8",
"yX c #DADADA",
"uX c #DFDDD9",
"iX c gainsboro",
"pX c gray87",
"aX c #DFDFDF",
"sX c #EEDCC2",
"dX c #E0D7C9",
"fX c #E0D9CE",
"gX c #E1D9CF",
"hX c #E0DCD6",
"jX c #E1DDD7",
"kX c #E0DDD8",
"lX c #E1DDD8",
"zX c #E0DEDC",
"xX c #FAE3C2",
"cX c #F8E3C4",
"vX c #FAE5C7",
"bX c #FAE5C8",
"nX c #FAE7CB",
"mX c #FAE8D0",
"MX c #FAE9D1",
"NX c #FBEDD7",
"BX c #FCECD6",
"VX c #FBEDDB",
"CX c #FBEFDE",
"ZX c #FCF0E1",
"AX c #FCF2E4",
"SX c #FCF6ED",
"DX c #FDF6ED",
/* pixels */
"aXaXaXaXaXaXaXaXaXaXaXaXaXaXaXaXaXaXaXaXaXaXaXaXaXaXaXaXaXaXaXaX",
"aXaXaXaXaXaXaXaXaXaXaXaXaXaXaXaXaXaXaXaXaXaXaXaXaXaXaXaXaXaXaXaX",
"aXaXb.aXaXaXaXaXaXaXaXaXaXaXaXaXaXl.r 1 ; 7 y 7XaXaXaXaXaXaXaXaX",
"aX9Xk.9XaXaXaXaXaXaXaXaXaXaXaX0X0   @ , 8 : + o g.aXaXaXaXaXaXaX",
"aXx.k.x.aXaXaXaXaXaXaXaXaXaXaX6   w eXaXaXaXqXw i aXaXaXaXaXaXaX",
"aXaXk.aXaXaXaXaXaXaXaXaXaXaXj.  6 aXaXaXaXaXaXaXwXaXaXaXaXaXaXaX",
"aXaXk.aXaXaXaXaXaXaXaXaXaXaX3   c.aXaXaXaXaXaXaXaXaXaXaXaXaXaXaX",
"aXaXk.aXaXaXaXaXaXaXaXaXaXaX& O pXaXaXaXaXaXaXaXaXaXaXaXaXaXaXaX",
"aXaXk.aXaXaXaXaXaXaXaXaXaXtX. - aXaXaXaXaXaXaXaXaXaXaXaXaXaXaXaX",
"aXk.f.aXaXaXaXaXaXaXaXaXaXyXX * aXaXaXaXaXaXaXaXaXaXaXaXaXaXaXaX",
"aXaXk.aXaXaXaXaXaXaXaXaXaXaX= o iXaXaXaXaXaXaXaXaXaXaXaXaXaXaXaX",
"aXaXk.aXaXaXaXaXaXaXaXaXaXaX7   z.aXaXaXaXaXaXaXaXaXaXaXaXaXaXaX",
"aXaXk.aXaXaXaXaXaXaXaXaXaXaXz.  < aXaXaXaXaXaXaX8XaXaXaXaXaXaXaX",
"aXaXk.aXaXaXaXaXaXaXaXaXaXaXaX9   5 8XaXaXaXb.2 u aXaXaXaXaXaXaX",
"aXk.f.aXaXaXaXaXaXaXaXaXaXaXaXyXt X   % > $   # h.aXaXaXaXaXaXaX",
"aXaXk.aXo.fXaXaXaXaXaXaXaXaXaXaXaXv.p q 4 e d.wXaXaXaXaXaXaXaXaX",
"aXaXk.aXs  XaXaXaXaXaXaXaXaXaXaXOX .R ,.gXaXaXaXaXaXaXaXaXaXaXaX",
"aXaXk.aXA N.aXaXaXaXaXaXaXaXaXn.C ).cXS.E <XaXaXaXaXaXaXaXaXaXaX",
"aXaXk.aX+.V aXaXaXaXaXaXaXaX..D 1XMXZXSXsXO.hXaXaXaXaXaXaXaXaXaX",
"aXk.f.aX:.a rXaXaXaXaXaXaXX.Z }.2XvXNXAXDXB.A.aXaXaXaXaXaXaXaXaX",
"aXaXk.aX&.f !.aXaXaXaXaXV.S P.].*X5XbXBXCXVX@.kXaXaXaXaXaXaXaXaX",
"aXaXk.aX' G T aXaXaXaXW.B r.K.T.'.=X4XxXnXmX2.;XaXaXaXaXaXaXaXaX",
"aXaXk.aXW z g M.uXdX1.j *.0.u.G.L.E.|.-X3X6XQ.D.aXaXaXaXaXaXaXaX",
"aXaXk.aX~ k n N d h F ^ | -.6.w.p.H.U._.{.%X&X<.jXaXaXaXaXaXaXaX",
"aXk.f.aX( k k k l v J I ! [ #.>.8.t.s.J.Y.`.[.m.:XaXaXaXaXaXaXaX",
"aXaXk.aX/ k k k k k x m K U _ { $.4.9.y.F.L.R.3.~.aXaXaXaXaXaXaX",
"aXaXk.aX/ k k k k k k k c M L Y ` } =.5.q.i.G.I.Z.aXaXaXaXaXaXaX",
"aXaXk.aX) k k k k k k k k k b H P Q ] %.;.7.e.a.C.lXaXaXaXaXaXaX",
"aXaXk.aX+X/./././././././././.^.(.XX.XoX@X#X$X,X>XzXaXx.9XaXaXaX",
"aXaXk.k.k.k.k.k.f.k.k.k.k.f.k.k.k.k.f.k.k.k.k.f.k.k.k.k.k.b.aXaX",
"aXaXaXaXaXaXaXaXk.aXaXaXaXk.aXaXaXaXk.aXaXaXaXk.aXaXaXx.9XaXaXaX",
"aXaXaXaXaXaXaXaXaXaXaXaXaXaXaXaXaXaXaXaXaXaXaXaXaXaXaXaXaXaXaXaX"
};
