/* XPM */
static const char *default_pi[] = {
/* columns rows colors chars-per-pixel */
"32 32 110 2 ",
"   c #4E9A06",
".  c #4F9A06",
"X  c #4E9B06",
"o  c #4F9B06",
"O  c #4E9A07",
"+  c #4E9B07",
"@  c #4F9B07",
"#  c #4F9C06",
"$  c #4F9C07",
"%  c #4F9D07",
"&  c #4F9C08",
"*  c #509B06",
"=  c #509B07",
"-  c #509C07",
";  c #519C07",
":  c #509D07",
">  c #509B08",
",  c #509C08",
"<  c #509D08",
"1  c #519D08",
"2  c #519D09",
"3  c #509E08",
"4  c #519E08",
"5  c #509E09",
"6  c #519E09",
"7  c #529E09",
"8  c #529F09",
"9  c #539F09",
"0  c #519F0A",
"q  c #529F0A",
"w  c #539F0A",
"e  c #52A009",
"r  c #53A00A",
"t  c #53A10A",
"y  c #53A00B",
"u  c #54A10A",
"i  c #54A00B",
"p  c #54A10B",
"a  c #55A20B",
"s  c #55A30B",
"d  c #56A30B",
"f  c #55A20C",
"g  c #55A30C",
"h  c #56A30C",
"j  c #56A40C",
"k  c #57A50C",
"l  c #57A50D",
"z  c #57A60D",
"x  c #57A60E",
"c  c #59A60E",
"v  c #58A70E",
"b  c #59A70E",
"n  c #5AA70F",
"m  c #59A80E",
"M  c #59A80F",
"N  c #5BA90F",
"B  c #5BAA10",
"V  c #5CA910",
"C  c #5CAA10",
"Z  c #5DAC11",
"A  c #5DAD11",
"S  c #5EAD12",
"D  c #5EAE12",
"F  c #5FAE13",
"G  c #5EAE14",
"H  c #5FAF14",
"J  c #60AF14",
"K  c #60B014",
"L  c #62B215",
"P  c #63B416",
"I  c #64B517",
"U  c #65B517",
"Y  c #65B518",
"T  c #66B618",
"R  c #67B718",
"E  c #66B719",
"W  c #68B91A",
"Q  c #69BA1A",
"!  c #6BBB1C",
"~  c #6BBC1C",
"^  c #6BBD1C",
"/  c #6CBE1D",
"(  c #6CBF1D",
")  c #6DBF1E",
"_  c #6EC01E",
"`  c #6EC11E",
"'  c #6FC21F",
"]  c #70C320",
"[  c #71C421",
"{  c #72C522",
"}  c #72C622",
"|  c #73C622",
" . c #73C723",
".. c #74C823",
"X. c #75C924",
"o. c #77CA25",
"O. c #77CB25",
"+. c #78CC26",
"@. c #7ACE27",
"#. c #7ACF28",
"$. c #7CD129",
"%. c #7DD32B",
"&. c #7ED42B",
"*. c #80D62C",
"=. c #82D92E",
"-. c #83D92E",
";. c #85DB30",
":. c #86DD30",
">. c #87DE31",
",. c None",
/* pixels */
",.,.,.,.,.,.,.,.,.,.,.,.,.,.,.,.,.,.& w w @ ,.,.,.,.,.,.,.,.,.,.",
",.,.,.,.,.,.,.,.,.,.,.,.,.,.,.,.w Z Y P L H w ,.,.,.,.,.,.,.,.,.",
",.,.,.,.,.,.,.,.,.,.,.,.,.,.,.,.C Q E P L L j ,.,.,.,.,.,.,.,.,.",
",.,.,.,.,.,.,.,.,.,.,.,.,.,.,.,.Z Q E I L Z w ,.,.,.,.,.,.,.,.,.",
",.,.,.,.,.,.,.,.,.,.,.,.,.,.,.,.m Q E I L g ,.,.,.,.,.,.,.,.,.,.",
",.,.,.,.,.,.,.,.,.,.,.,.,.,.,.,.e Q E I Z w ,.,.,.,.,.,.,.,.,.,.",
",.,.,.,.,.,.,.,.,.,.,.,.,.,.,.,.w Q E I j ,.,.,.,.,.,.,.,.,.,.,.",
",.,.,.,.,.,.,.,.,.w w & w w w w % Y E I p w & @ @ @ @ @ @ @ ,.,.",
",.,.,.,.,.,.,.,.,.w O.X. .[ ' / / Q E P L J Z C m j g e w   ,.,.",
",.,.,.,.,.,.,.,.,.w O.X. .[ ' / / Q E Y L L Z C B c g e w @ ,.,.",
",.,.,.,.,.,.,.,.,.w @.X. .[ ' / ! Q E Y L L H C j j j y ; @ ,.,.",
",.,.,.,.,.,.,.,.,.e O.X. .[ ' ' / Q Y P L H Z C B j j e ; @ ,.,.",
",.,.,.,.,.,.,.,.,.w O.X. .[ ' / Q Q Y P L K Z j c j p e w @ ,.,.",
",.,.,.,.,.,.,.,.,.w @.X. .[ ' / / Q E Y L j w % = % e w ; @ ,.,.",
",.,.,.,.p ,.,.,.,.w O.X. .[ ' / / Q E P Z w ,.,.,.,.,.@ @ @ ,.,.",
",.,.,.Z @.P w ,.,.w O.X. .[ ' ' / Q E Y g ,.,.,.,.,.,.,.,.,.,.,.",
",.,.g -.;.=.X.j y & +.X. .[ ' ) Q Q Y P g ,.,.,.,.,.,.,.,.,.,.,.",
",.,.p >.;.;.*.&...W +.X. .[ ' ) / Q E Y j ,.,.,.,.,.,.,.,.,.,.,.",
",.,.g :.;.=.*.&.$.$.+.X. .[ ' / / Q E P J ; ,.,.,.,.,.,.@ @ ,.,.",
",.,.g :.;.=.*.$.$.#.+.X. .[ ' / / Q E Y L j ; ,.,.@ ; w ; @ ,.,.",
",.,.p ' :.=.*.$.[ / X.X. .[ ' ' Q Q E I L L C g e d p e ; @ ,.,.",
",.,.,.w j H g w e w #.X...[ ' / / Q E I L H Z C m c d p w @ ,.,.",
",.,.,.,.,.,.,.,.,.w X.X...[ ' / ! Q Y I L K Z C B j p p ; @ ,.,.",
",.,.,.,.,.,.,.,.,.w #.X.[ [ ' ' ! I Y I L K Z C B j g e ; @ ,.,.",
",.,.,.,.,.,.,.,.,.w O.X.[ [ ' B ; w @ w w m Z C M j g p w @ ,.,.",
",.,.,.,.,.,.,.,.,.w @.X. .[ / % ,.,.,.,.,.; m C B j g e = @ ,.,.",
",.,.,.,.,.,.,.,.,.w X.X. .[ Q w ,.,.,.,.,.,.p C M j j y ; @ ,.,.",
",.,.,.,.,.,.,.,.,.w @.X. .[ ' w ,.,.,.,.,.,.p C M j g e ; @ ,.,.",
",.,.,.,.,.,.,.,.,.w O.X...[ ' P w ,.,.,.,.,.c C m c j p w @ ,.,.",
",.,.,.,.,.,.,.,.,.w @.X...[ ' / c ,.,.,.,.w C C B j p e ; @ ,.,.",
",.,.,.,.,.,.,.,.,.w X. .[ [ ' / I w ,.,.,.% C C v j e e ; @ ,.,.",
",.,.,.,.,.,.,.,.,.w e w & w ; = w % ,.,.,.@ w % & & @ @ @ @ ,.,."
};
