/* XPM */
static const char *default_pi[] = {
/* columns rows colors chars-per-pixel */
"32 32 123 2",
"   c #4E9A05",
".  c #4D9B07",
"X  c #4E9A06",
"o  c #4F9A06",
"O  c #4E9B06",
"+  c #4F9B06",
"@  c #4E9A07",
"#  c #4E9B07",
"$  c #4F9B07",
"%  c #4E9C07",
"&  c #4F9C07",
"*  c #4F9D07",
"=  c #4F9B08",
"-  c #4F9C08",
";  c #4F9D08",
":  c #4F9D09",
">  c #509B07",
",  c #509C06",
"<  c #519C07",
"1  c #519D07",
"2  c #509B08",
"3  c #509C08",
"4  c #519C08",
"5  c #509D08",
"6  c #519D08",
"7  c #519D09",
"8  c #509E08",
"9  c #519E08",
"0  c #519E09",
"q  c #519F09",
"w  c #529E08",
"e  c #529E09",
"r  c #529F09",
"t  c #529F0A",
"y  c #539F0B",
"u  c #52A009",
"i  c #53A009",
"p  c #53A00A",
"a  c #53A10A",
"s  c #53A00B",
"d  c #53A10B",
"f  c #53A20A",
"g  c #54A009",
"h  c #54A10A",
"j  c #54A10B",
"k  c #55A10B",
"l  c #54A20B",
"z  c #55A20B",
"x  c #56A30B",
"c  c #55A30C",
"v  c #56A30C",
"b  c #56A40C",
"n  c #57A40C",
"m  c #56A40D",
"M  c #57A40D",
"N  c #56A50D",
"B  c #57A50D",
"V  c #57A60E",
"C  c #58A50D",
"Z  c #58A60D",
"A  c #58A70D",
"S  c #59A50E",
"D  c #58A70E",
"F  c #59A70E",
"G  c #59A70F",
"H  c #5AA80F",
"J  c #5BA90F",
"K  c #5AAA0F",
"L  c #5BAA0F",
"P  c #5BA910",
"I  c #5BAA10",
"U  c #5CAB11",
"Y  c #5DAB11",
"T  c #5DAD11",
"R  c #5DAC12",
"E  c #5EAD12",
"W  c #5EAE12",
"Q  c #5FAE12",
"!  c #5EAF12",
"~  c #5FAE13",
"^  c #5FAF13",
"/  c #5EAE14",
"(  c #62B215",
")  c #63B315",
"_  c #63B517",
"`  c #64B417",
"'  c #64B517",
"]  c #65B517",
"[  c #65B717",
"{  c #65B718",
"}  c #66B718",
"|  c #67B919",
" . c #68B819",
".. c #68B91A",
"X. c #69BB1B",
"o. c #6ABC1B",
"O. c #6BBE1C",
"+. c #6CBE1C",
"@. c #6CBF1D",
"#. c #6EC01E",
"$. c #6FC11F",
"%. c #6FC31F",
"&. c #71C420",
"*. c #71C521",
"=. c #72C621",
"-. c #72C522",
";. c #73C622",
":. c #73C823",
">. c #75C924",
",. c #75CA24",
"<. c #77CB25",
"1. c #79CD26",
"2. c #79CE27",
"3. c #7BD129",
"4. c #7CD028",
"5. c #7ED32A",
"6. c #80D62C",
"7. c #82D82D",
"8. c #82D82E",
"9. c #84DB2F",
"0. c #85DD30",
"q. c #86DE31",
"w. c None",
/* pixels */
"w.w.w.w.w.w.w.w.w.w.w.w.w.w.w.w.w.w.4 0 : 3 w.w.w.w.w.w.w.w.w.w.",
"w.w.w.w.w.w.w.w.w.w.w.w.w.w.w.w.5 T ' ` ( ^ 9 w.w.w.w.w.w.w.w.w.",
"w.w.w.w.w.w.w.w.w.w.w.w.w.w.w.w.J ..} ` ( ^ m w.w.w.w.w.w.w.w.w.",
"w.w.w.w.w.w.w.w.w.w.w.w.w.w.w.w.Q ..} ` ( ! 5 w.w.w.w.w.w.w.w.w.",
"w.w.w.w.w.w.w.w.w.w.w.w.w.w.w.w.C ..} ` ( z w.w.w.w.w.w.w.w.w.w.",
"w.w.w.w.w.w.w.w.w.w.w.w.w.w.w.w.t ..} ` E O w.w.w.w.w.w.w.w.w.w.",
"w.w.w.w.w.w.w.w.w.w.w.w.w.w.w.w.9 ..} ` B w.w.w.w.w.w.w.w.w.w.w.",
"w.w.w.w.w.w.w.w.w.3 t r e e 0 0 > { } ` h 2 3 & $ $ $ $ #   w.w.",
"w.w.w.w.w.w.w.w.w.i <.>.;.&.$.@.o...} ` ( ^ R I F B z r 5 . w.w.",
"w.w.w.w.w.w.w.w.w.i <.>.;.&.$.@.o...} ` ( ^ R I F B z r 5 . w.w.",
"w.w.w.w.w.w.w.w.w.i <.>.;.&.$.@.o...} ` ( ^ R I F B z r 5 . w.w.",
"w.w.w.w.w.w.w.w.w.i <.>.;.&.$.@.o...} ` ( ^ R I F B z r 5 . w.w.",
"w.w.w.w.w.w.w.w.w.i <.>.;.&.$.@.o...} ` ( ^ R Z n B z r 5 . w.w.",
"w.w.w.w.w.w.w.w.w.i <.>.;.&.$.@.o...} ` ( M = * > $ u r 5 . w.w.",
"w.w.w.w.j w.w.w.w.i <.>.;.&.$.@.o...} ` W - w.w.w.w.w.# @ X w.w.",
"w.w.w.Y 1.) i w.w.i <.>.;.&.$.@.o...} ` c w.w.w.w.w.w.w.w.w.w.w.",
"w.w.f 7.9.8.<.c a 8 <.>.;.&.$.@.o...} ` k w.w.w.w.w.w.w.w.w.w.w.",
"w.w.z q.9.8.6.5.-.| <.>.;.&.$.@.o...} ` S w.w.w.w.w.w.w.w.w.w.w.",
"w.w.b q.9.8.6.5.3.2.<.>.;.&.$.@.o...} ` ~ < w.w.w.w.w.w.@ O w.w.",
"w.w.d 0.9.8.6.5.3.2.<.>.;.&.$.@.o...} ` ( M O w.w.+ 3 9 5 . w.w.",
"w.w.p #.9.8.6.4.=.o.<.>.;.&.$.@.o...} ` ( ^ H j p v z r 5 . w.w.",
"w.w.w.g A / z y h 1 <.>.;.&.$.@.o...} ` ( ^ R I F B z r 5 . w.w.",
"w.w.w.w.w.w.w.w.w.i <.>.;.&.$.@.o...} ` ( ^ R I F B z r 5 . w.w.",
"w.w.w.w.w.w.w.w.w.i <.>.;.&.$.@.X.' ] ` ( ^ R I F B z r 5 . w.w.",
"w.w.w.w.w.w.w.w.w.i <.>.;.&.$.L 5 9 ; 3 7 A R I F B z r 5 . w.w.",
"w.w.w.w.w.w.w.w.w.i <.>.;.&.+.0 w.w.w.w.w.> V I F B z r 5 . w.w.",
"w.w.w.w.w.w.w.w.w.i <.>.;.&. .0 w.w.w.w.w.w.s I F B z r 5 . w.w.",
"w.w.w.w.w.w.w.w.w.i <.>.;.&.$.e w.w.w.w.w.w.x I F B z r 5 . w.w.",
"w.w.w.w.w.w.w.w.w.i <.>.;.&.$._ 5 w.w.w.w.w.G I F B z r 5 . w.w.",
"w.w.w.w.w.w.w.w.w.i <.>.;.&.$.@.G w.w.w.w.6 P I F B z r 5 . w.w.",
"w.w.w.w.w.w.w.w.w.i ,.:.*.%.#.O.[ w w.w.w.- U K D N l q ; . w.w.",
"w.w.w.w.w.w.w.w.w.w e 0 0 0 0 9 6 & w.w.w., 3 % % # # # . o w.w."
};
