/* XPM */
static const char *diamond[]={
"16 16 2 1",
". c None",
"# c #0000c0",
"......####......",
".....######.....",
"....###..###....",
"...###....###...",
"..###......###..",
".###........###.",
"###....##....###",
"##....####....##",
"##....####....##",
"###....##....###",
".###........###.",
"..###......###..",
"...###....###...",
"....###..###....",
".....######.....",
"......####......"};
