/* XPM */
static const char *down[] = {
/* columns rows colors chars-per-pixel */
"32 32 239 2",
"   c #004C00",
".  c #004D00",
"X  c #024F02",
"o  c #005200",
"O  c #005600",
"+  c #005700",
"@  c #045004",
"#  c #005A01",
"$  c #005C00",
"%  c #055F06",
"&  c #0A560A",
"*  c #125A12",
"=  c #175E17",
"-  c #006000",
";  c #006100",
":  c #006300",
">  c #006600",
",  c #056106",
"<  c #006901",
"1  c #006A00",
"2  c #006802",
"3  c #006803",
"4  c #006E00",
"5  c #006E01",
"6  c #086308",
"7  c #0D650E",
"8  c #0D670E",
"9  c #007000",
"0  c #007001",
"q  c #007400",
"w  c #007401",
"e  c #007601",
"r  c #017704",
"t  c #007800",
"y  c #007B00",
"u  c #007A01",
"i  c #007803",
"p  c #007903",
"a  c #007E00",
"s  c #017E01",
"d  c #007C03",
"f  c #007F03",
"g  c #057608",
"h  c #08700A",
"j  c #0D740E",
"k  c #166116",
"l  c #176917",
"z  c #186818",
"x  c #1A711A",
"c  c #1B7B1B",
"v  c #245F24",
"b  c #246724",
"n  c #237023",
"m  c #2C782E",
"M  c #307C30",
"N  c #387438",
"B  c #387A38",
"V  c #397A39",
"C  c #008200",
"Z  c #008103",
"A  c #008203",
"S  c #008303",
"D  c #008600",
"F  c #008700",
"G  c #008503",
"H  c #008504",
"J  c #028506",
"K  c #008900",
"L  c #008803",
"P  c #008C00",
"I  c #008804",
"U  c #008B04",
"Y  c #078C07",
"T  c #08870C",
"R  c #048B08",
"E  c #009000",
"W  c #009100",
"Q  c #009300",
"!  c #009400",
"~  c #009600",
"^  c #009700",
"/  c #009B00",
"(  c #009E00",
")  c #009F00",
"_  c #089809",
"`  c #0D980E",
"'  c #13950C",
"]  c #0E8811",
"[  c #0C8F12",
"{  c #118112",
"}  c #118714",
"|  c #1C831C",
" . c #1C8A1C",
".. c #139517",
"X. c #149E15",
"o. c #1A901A",
"O. c #1B971B",
"+. c #1B9D1B",
"@. c #199A1C",
"#. c #1C9B1D",
"$. c #199C1C",
"%. c #1B9F1D",
"&. c #00A000",
"*. c #00A300",
"=. c #00A400",
"-. c #00A500",
";. c #00A600",
":. c #00A700",
">. c #00A900",
",. c #00AB00",
"<. c #00AD00",
"1. c #00AE00",
"2. c #02AC02",
"3. c #08A009",
"4. c #0BA60C",
"5. c #0AAB0A",
"6. c #0CAD0D",
"7. c #00B100",
"8. c #00B200",
"9. c #00B300",
"0. c #00B400",
"q. c #00B500",
"w. c #00B600",
"e. c #00BB00",
"r. c #00BD00",
"t. c #00BE00",
"y. c #00BF00",
"u. c #13A514",
"i. c #15A717",
"p. c #14AC16",
"a. c #17A219",
"s. c #1AA01C",
"d. c #1CA21C",
"f. c #1EA51E",
"g. c #1EA71E",
"h. c #1EA91E",
"j. c #0EB310",
"k. c #10B512",
"l. c #12B214",
"z. c #2C802E",
"x. c #279C26",
"c. c #2E942E",
"v. c #2E962E",
"b. c #2A992A",
"n. c #299C29",
"m. c #2A9C2A",
"M. c #2C982C",
"N. c #368636",
"B. c #338A33",
"V. c #318F31",
"C. c #368F36",
"Z. c #388138",
"A. c #3A853A",
"S. c #3C843C",
"D. c #3A8D3A",
"F. c #329332",
"G. c #379F37",
"H. c #3D943D",
"J. c #399B39",
"K. c #3B983B",
"L. c #20A520",
"P. c #23A423",
"I. c #25A325",
"U. c #21AC21",
"Y. c #28A028",
"T. c #2BA42B",
"R. c #2DA52D",
"E. c #2FA42F",
"W. c #31A331",
"Q. c #34A134",
"!. c #37A437",
"~. c #3AA53A",
"^. c #3CA53C",
"/. c #3EA53E",
"(. c #00C100",
"). c #00C200",
"_. c #00C400",
"`. c #00C600",
"'. c #00C900",
"]. c #00CC00",
"[. c #00CD00",
"{. c #00D300",
"}. c #00D800",
"|. c #428C42",
" X c #428D42",
".X c #468A46",
"XX c #4B8B4B",
"oX c #4B8C4C",
"OX c #4D8D4D",
"+X c #409140",
"@X c #459F45",
"#X c #479C47",
"$X c #499A49",
"%X c #4C984C",
"&X c #508D50",
"*X c #5B945B",
"=X c #5A9D5A",
"-X c #43A143",
";X c #40A440",
":X c #43A643",
">X c #46A746",
",X c #48A748",
"<X c #4AA74A",
"1X c #4DA74D",
"2X c #4FA64F",
"3X c #52A552",
"4X c #54A254",
"5X c #56A056",
"6X c #50A950",
"7X c #52AA52",
"8X c #55AB55",
"9X c #57AB57",
"0X c #5EA55E",
"qX c #59AB59",
"wX c #5BAB5B",
"eX c #5EAA5E",
"rX c #5CAD5C",
"tX c #5FAF5F",
"yX c #61B061",
"uX c #64B164",
"iX c #66B166",
"pX c #68B168",
"aX c #69B269",
"sX c #6BB46B",
"dX c #6DB56D",
"fX c #74A174",
"gX c #70B770",
"hX c #73B873",
"jX c #76BA76",
"kX c #7EB27E",
"lX c #78BC78",
"zX c #7ABD7A",
"xX c #7EBF7E",
"cX c #85BE85",
"vX c #82C282",
"bX c #85C185",
"nX c #84C484",
"mX c #8ECC8E",
"MX c None",
/* pixels */
"MXMXMXMXMXMXMXMXMXMXMXMXMXMXMXMXMXMXMXMXMXMXMXMXMXMXMXMXMXMXMXMX",
"MXMXMXMXMXMXMXMXMXMXMXMXMXMXMXMXMXMXMXMXMXMXMXMXMXMXMXMXMXMXMXMX",
"MXMXMXMXMXMXMXMXMXMXMXMXMXMXMXMXMXMXMXMXMXMXMXMXMXMXMXMXMXMXMXMX",
"MXMXMXMXMXMXMXMXMXMXMXMXMXMXMXMXMXMXMXMXMXMXMXMXMXMXMXMXMXMXMXMX",
"MXMXMXMXMXMXMXMXMXMXMXMXMXMXMXMXMXMXMXMXMXMXMXMXMXMXMXMXMXMXMXMX",
"MXMXMXMXMXMXMXMXMXMXMXMXMXMXMXMXMXMXMXMXMXMXMXMXMXMXMXMXMXMXMXMX",
"MXMXMXMXMXMXMXMXMXMXMXMXMXMXMXMXMXMXMXMXMXMXMXMXMXMXMXMXMXMXMXMX",
"MXMXMX  . . . o O $ ; > < 5 0 w e u d f Z A G L I U U U MXMXMXMX",
"MXMXN fX*X&XXX.X|.D.C.F.v.b.n.#._ 3.4.6.j.k.l.p.i.a.$.x.' MXMXMX",
"MXMXMXX kXmXvXjXaXrX6X:X!.T.f.U.>.0.t.'.{.}.[.y.7.*.%.R MXMXMXMX",
"MXMXMXMX* cXnXlXsXtX7X>X~.R.L.h.:.8.e._.].[.`.e.1.u.[ MXMXMXMXMX",
"MXMXMXMX  b bXzXdXyX8X,X^.E.P.g.=.<.q.r.(.).r.0.5...S MXMXMXMXMX",
"MXMXMXMXMX. V xXgXuX9X<X/.W.I.d.( ;.1.9.w.w.8.2.@.H MXMXMXMXMXMX",
"MXMXMXMXMXMX. OXhXiXqX1X;XQ.Y.+.^ ) -.>.,.,.:.s.H MXMXMXMXMXMXMX",
"MXMXMXMXMXMXMXX =XpXwX2X-XG.m.O.E ~ / ( &.) X.J MXMXMXMXMXMXMXMX",
"MXMXMXMXMXMXMXMX& 0XeX3X@XJ.M.o.F P W Q ! ` T MXMXMXMXMXMXMXMXMX",
"MXMXMXMXMXMXMXMX  k 0X4X#XK.c. .a C D K Y ] i MXMXMXMXMXMXMXMXMX",
"MXMXMXMXMXMXMXMXMX. n 5X$XH.V.| q t y s } p MXMXMXMXMXMXMXMXMXMX",
"MXMXMXMXMXMXMXMXMXMXo M %X+XB.c 1 4 9 { i MXMXMXMXMXMXMXMXMXMXMX",
"MXMXMXMXMXMXMXMXMXMXMX+ A. XN.x - : j r MXMXMXMXMXMXMXMXMXMXMXMX",
"MXMXMXMXMXMXMXMXMXMXMXMX% S.Z.z O 6 g MXMXMXMXMXMXMXMXMXMXMXMXMX",
"MXMXMXMXMXMXMXMXMXMXMXMXO 7 B = @ h 2 MXMXMXMXMXMXMXMXMXMXMXMXMX",
"MXMXMXMXMXMXMXMXMXMXMXMXMX# l v 8 3 MXMXMXMXMXMXMXMXMXMXMXMXMXMX",
"MXMXMXMXMXMXMXMXMXMXMXMXMXMX, oXz.MXMXMXMXMXMXMXMXMXMXMXMXMXMXMX",
"MXMXMXMXMXMXMXMXMXMXMXMXMXMXMXm MXMXMXMXMXMXMXMXMXMXMXMXMXMXMXMX",
"MXMXMXMXMXMXMXMXMXMXMXMXMXMXMXMXMXMXMXMXMXMXMXMXMXMXMXMXMXMXMXMX",
"MXMXMXMXMXMXMXMXMXMXMXMXMXMXMXMXMXMXMXMXMXMXMXMXMXMXMXMXMXMXMXMX",
"MXMXMXMXMXMXMXMXMXMXMXMXMXMXMXMXMXMXMXMXMXMXMXMXMXMXMXMXMXMXMXMX",
"MXMXMXMXMXMXMXMXMXMXMXMXMXMXMXMXMXMXMXMXMXMXMXMXMXMXMXMXMXMXMXMX",
"MXMXMXMXMXMXMXMXMXMXMXMXMXMXMXMXMXMXMXMXMXMXMXMXMXMXMXMXMXMXMXMX",
"MXMXMXMXMXMXMXMXMXMXMXMXMXMXMXMXMXMXMXMXMXMXMXMXMXMXMXMXMXMXMXMX",
"MXMXMXMXMXMXMXMXMXMXMXMXMXMXMXMXMXMXMXMXMXMXMXMXMXMXMXMXMXMXMXMX"
};
