/* XPM */
static const char *down[]={
"32 32 3 1",
". c None",
"a c #000000",
"# c #ffffff",
"........################........",
"........################........",
"........##aaaaaaaaaaaa##........",
"........##aaaaaaaaaaaa##........",
"........##aa........aa##........",
"........##aa........aa##........",
"........##aa........aa##........",
"........##aa........aa##........",
"........##aa........aa##........",
"........##aa........aa##........",
"........##aa........aa##........",
"........##aa........aa##........",
"........##aa........aa##........",
"........##aa........aa##........",
"........##aa........aa##........",
"........##aa........aa##........",
"........##aa........aa##........",
"........##aa........aa##........",
"........##aa........aa##........",
"...#######aa........aa#######...",
"....##aaaaaa........aaaaaa##....",
".....##aaa............aaa##.....",
"......##aaa..........aaa##......",
".......##aaa........aaa##.......",
"........##aaa......aaa##........",
".........##aaa....aaa##.........",
"..........##aaa..aaa##..........",
"...........##aaaaaa##...........",
"............##aaaa##............",
".............##aa##.............",
"..............####..............",
"...............##..............."};
