/* XPM */
static const char *exitt[] = {
/* columns rows colors chars-per-pixel */
"32 32 143 2",
"   c #301A14",
".  c #3F1C18",
"X  c #440C0C",
"o  c #4A0D0D",
"O  c #520E0E",
"+  c #451D19",
"@  c #571010",
"#  c #591111",
"$  c #551D1B",
"%  c #581D1C",
"&  c #660F0F",
"*  c #6B1616",
"=  c #6B1F1D",
"-  c #7C1212",
";  c #791F1D",
":  c #860B0A",
">  c #9C170E",
",  c #9C180E",
"<  c #8C1312",
"1  c #841915",
"2  c #851B18",
"3  c #8D1A1A",
"4  c #9B1717",
"5  c #941B13",
"6  c #931919",
"7  c #9C1818",
"8  c #AB0805",
"9  c #B00000",
"0  c #B90000",
"q  c #A0170D",
"w  c #AA150C",
"e  c #A3190F",
"r  c #AA1D12",
"t  c #A31A1A",
"y  c #AC1A1A",
"u  c #B21815",
"i  c #B11A1A",
"p  c #BA1D1D",
"a  c #882016",
"s  c #83241C",
"d  c #9A231B",
"f  c #A62016",
"g  c #AE241A",
"h  c #B6281E",
"j  c #8B2727",
"k  c #922626",
"l  c #912D2D",
"z  c #8C342C",
"x  c #8F3C37",
"c  c #963434",
"v  c #9A3A38",
"b  c #AC2929",
"n  c #BA2B21",
"m  c #B52B28",
"M  c #A33432",
"N  c #B53434",
"B  c #B83434",
"V  c #BE3F3F",
"C  c #C20000",
"Z  c #CC0000",
"A  c #D40000",
"S  c #DE0000",
"D  c #E70000",
"F  c #EF0000",
"G  c #F30101",
"H  c #F50908",
"J  c #C52E2E",
"K  c #C53232",
"L  c #C53A3A",
"P  c #C83A3A",
"I  c #BD4832",
"U  c #C34426",
"Y  c #CB452A",
"T  c #D1482F",
"R  c #C04037",
"E  c #C54C3C",
"W  c #D44B33",
"Q  c #DA4C38",
"!  c #D1543D",
"~  c #954641",
"^  c #9B4040",
"/  c #A24B4B",
"(  c #B54141",
")  c #AD514F",
"_  c #C64646",
"`  c #CB4444",
"'  c #C14E45",
"]  c #CF4E4E",
"[  c #CE5145",
"{  c #CF5248",
"}  c #DC5142",
"|  c #D35943",
" . c #D7544B",
".. c #DC554D",
"X. c #D25E48",
"o. c #CB5151",
"O. c #D05050",
"+. c #DF5750",
"@. c #D65B5B",
"#. c #E3594E",
"$. c #E35B55",
"%. c #D66250",
"&. c #D86656",
"*. c #DC6C5B",
"=. c #DB6E65",
"-. c #D56768",
";. c #D46A6A",
":. c #DB7269",
">. c #DB7E6F",
",. c #DF7E70",
"<. c #DA7A7B",
"1. c #E16767",
"2. c #EB6E68",
"3. c #EB7272",
"4. c #EE7B7B",
"5. c #F67E7E",
"6. c #DF887B",
"7. c #E68674",
"8. c #D98C80",
"9. c #E38F83",
"0. c #F78585",
"q. c #E09386",
"w. c #EA9486",
"e. c #E3948A",
"r. c #EB978F",
"t. c #E99C93",
"y. c #F09A93",
"u. c #EEA69D",
"i. c #EFA99E",
"p. c #F3A19C",
"a. c #C7B2B2",
"s. c #C8B3B3",
"d. c #CEBDBD",
"f. c #D3BDBD",
"g. c #F2ADA5",
"h. c #F6AFAB",
"j. c #D0C0BF",
"k. c #D4C2C2",
"l. c #D8C2C2",
"z. c #D4CDCB",
"x. c #D6D0CF",
"c. c #DCD5D5",
"v. c #DFDFDF",
/* pixels */
"v.v.v.v.v.v.v.v.v.v.v.v.v.v.v.v.v.v.v.v.v.v.v.v.v.v.v.v.v.v.v.v.",
"v.v.v.v.v.v.v.v.v.v.v.v.v.v.v.v.v.v.v.v.v.v.v.v.v.v.v.v.v.v.v.v.",
"v.v.v.v.v.v.v.v.v.v.v.v.v.v.v.v.v.v.v.v.v.v.v.v.v.v.v.v.v.v.v.v.",
"v.v.v.v.v.v.v.v.v.v.v.v.v.v.v.v.v.v.v.v.v.v.v.v.v.v.v.v.v.v.v.v.",
"v.v.v.v.v.v.v.c.' _ k.v.v.v.v.v.v.v.v.v.v.l.I o.c.v.v.v.v.v.v.v.",
"v.v.v.v.v.v.c.B u ' i l.v.v.v.v.v.v.v.v.l.p R m N c.v.v.v.v.v.v.",
"v.v.v.v.v.c.B 8 w.h.h i j.v.v.v.v.v.v.l.y n p.g.8 N c.v.v.v.v.v.",
"v.v.v.v.c.B 8 7.5.5.h.h i j.v.v.v.v.f.y h y.5.0.g.8 N c.v.v.v.v.",
"v.v.v.v.( 8 :.3.3.3.3.i.b 4 f.v.v.d.4 n r.3.3.3.4.u.8 ( v.v.v.v.",
"v.v.v.v.b w *.1.1.1.1.1.t.d - a.s.< g w.1.1.1.1.-.h.w b v.v.v.v.",
"v.v.v.v.k.y r &.@.@.@.@.@.e.s & - t 9.@.@.@.@.@.t.g y l.v.v.v.v.",
"v.v.v.v.v.l.t r %.O.o. .o.o.8.a d 6.O.O.O.] ] 7.y t l.v.v.v.v.v.",
"v.v.v.v.v.v.k.t e X.` ` ` ` _ ,.>.` ` ` ` ` *.f 7 k.v.v.v.v.v.v.",
"v.v.v.v.v.v.v.k.t e | P P P L L L P L @.<.q.f 7 k.v.v.v.v.v.v.v.",
"v.v.v.v.v.v.v.v.k.7 q ! J J K ] -.;.-.V U q 7 k.v.v.v.v.v.v.v.v.",
"v.v.v.v.v.v.v.v.v.f.6 q X.L L p 9 9 9 U > 6 k.v.v.v.v.v.v.v.v.v.",
"v.v.v.v.v.v.v.v.v.j.6 > Y 0 0 0 0 0 0 Y , 6 k.v.v.v.v.v.v.v.v.v.",
"v.v.v.v.v.v.v.v.k.6 , Y 0 C C C C C C 0 Y , 6 k.v.v.v.v.v.v.v.v.",
"v.v.v.v.v.v.v.k.6 5 T A Z Z Z C C Z Z Z A W 5 3 j.v.v.v.v.v.v.v.",
"v.v.v.v.v.v.k.3 5 W A A A A A I R A A A A A W 5 3 k.v.v.v.v.v.v.",
"v.v.v.v.v.k.3 5 Q S S S S A E     E S S S S S } d 3 k.v.v.v.v.v.",
"v.v.v.v.d.3 6 } D D D D D [ + o X . { D D D D D  .6 l l.v.v.v.v.",
"v.v.v.v.z z #.G G G G F  .+ O d.d.o +  .G G F G F $.) ^ v.v.v.v.",
"v.v.v.v.~ s =.H G G G ..$ O d.v.v.j.O % +.G G G H :.k / v.v.v.v.",
"v.v.v.v.x.c : :.H G +.= # d.v.v.v.v.d.@ = $.H H =.: c c.v.v.v.v.",
"v.v.v.v.v.c.c s :.$.; # f.v.v.v.v.v.v.d.* v 2.=.: c c.v.v.v.v.v.",
"v.v.v.v.v.v.z.x 1 2 * j.v.v.v.v.v.v.v.v.f.l M < c c.v.v.v.v.v.v.",
"v.v.v.v.v.v.v.x.^ j k.v.v.v.v.v.v.v.v.v.v.f.l ^ c.v.v.v.v.v.v.v.",
"v.v.v.v.v.v.v.v.v.v.v.v.v.v.v.v.v.v.v.v.v.v.v.v.v.v.v.v.v.v.v.v.",
"v.v.v.v.v.v.v.v.v.v.v.v.v.v.v.v.v.v.v.v.v.v.v.v.v.v.v.v.v.v.v.v.",
"v.v.v.v.v.v.v.v.v.v.v.v.v.v.v.v.v.v.v.v.v.v.v.v.v.v.v.v.v.v.v.v.",
"v.v.v.v.v.v.v.v.v.v.v.v.v.v.v.v.v.v.v.v.v.v.v.v.v.v.v.v.v.v.v.v."
};
