/* XPM */
static const char *exit[] = {
/* columns rows colors chars-per-pixel */
"32 32 244 2",
"   c #3B0000",
".  c #301A14",
"X  c #3F1C18",
"o  c #400000",
"O  c #430000",
"+  c #470000",
"@  c #490000",
"#  c #4A0000",
"$  c #4D0000",
"%  c #4E0000",
"&  c #550000",
"*  c #5D0000",
"=  c #5F0707",
"-  c #401C18",
";  c #471D1A",
":  c #551D1B",
">  c #581D1C",
",  c #610000",
"<  c #710000",
"1  c #760000",
"2  c #790000",
"3  c #7F0303",
"4  c #7E150E",
"5  c #671E1C",
"6  c #6B1F1D",
"7  c #7E1610",
"8  c #7E1812",
"9  c #791F1D",
"0  c #810000",
"q  c #800101",
"w  c #810101",
"e  c #830000",
"r  c #820101",
"t  c #840000",
"y  c #860000",
"u  c #820707",
"i  c #890000",
"p  c #8C0000",
"a  c #8F0000",
"s  c #800806",
"d  c #860B0A",
"f  c #860B0B",
"g  c #880E0E",
"h  c #920000",
"j  c #940000",
"k  c #950000",
"l  c #980000",
"z  c #9B0000",
"x  c #9E0000",
"c  c #9B170E",
"v  c #9E170D",
"b  c #99180F",
"n  c #9F180E",
"m  c #8B1110",
"M  c #8B1212",
"N  c #841915",
"B  c #851B18",
"V  c #931B13",
"C  c #961910",
"Z  c #961911",
"A  c #951A12",
"S  c #951B13",
"D  c #931D17",
"F  c #991910",
"G  c #981F15",
"H  c #931F1C",
"J  c #A10000",
"K  c #A30000",
"L  c #A50000",
"P  c #A70000",
"I  c #AA0000",
"U  c #AD0000",
"Y  c #A80805",
"T  c #AB0805",
"R  c #AE0805",
"E  c #B00000",
"W  c #B00101",
"Q  c #B90000",
"!  c #A0170D",
"~  c #AA140B",
"^  c #AB160D",
"/  c #A1180E",
"(  c #A3190F",
")  c #A61A0F",
"_  c #A91B10",
"`  c #AC1C11",
"'  c #A81F14",
"]  c #B11717",
"[  c #B21815",
"{  c #BA1D1D",
"}  c #882016",
"|  c #82231B",
" . c #84211A",
".. c #83271E",
"X. c #9A231B",
"o. c #A62016",
"O. c #A32119",
"+. c #AC2218",
"@. c #AF2319",
"#. c #AE231B",
"$. c #AE271D",
"%. c #B4281E",
"&. c #B7281E",
"*. c #B7291F",
"=. c #892020",
"-. c #942625",
";. c #942727",
":. c #8C362B",
">. c #9A3A38",
",. c #B52424",
"<. c #B62424",
"1. c #BA2A20",
"2. c #BB2C22",
"3. c #B52B28",
"4. c #A33432",
"5. c #B93030",
"6. c #BF3F3F",
"7. c #C00000",
"8. c #C10000",
"9. c #C20000",
"0. c #C70000",
"q. c #CB0000",
"w. c #CC0000",
"e. c #CD0000",
"r. c #D10000",
"t. c #D40000",
"y. c #D50000",
"u. c #DB0000",
"i. c #DC0000",
"p. c #DE0000",
"a. c #E60000",
"s. c #E70000",
"d. c #EF0000",
"f. c #F00000",
"g. c #F50000",
"h. c #F50706",
"j. c #F60707",
"k. c #F50908",
"l. c #C52E2E",
"z. c #C53232",
"x. c #C43939",
"c. c #C73939",
"v. c #C43B3B",
"b. c #C83939",
"n. c #C83B3B",
"m. c #BC4831",
"M. c #BD4832",
"N. c #C54327",
"B. c #C24425",
"V. c #C84428",
"C. c #C84429",
"Z. c #CD462B",
"A. c #CD472D",
"S. c #D1482F",
"D. c #C04037",
"F. c #C54C3B",
"G. c #C54D3E",
"H. c #D14A31",
"J. c #D54A32",
"K. c #D54C37",
"L. c #DA4C38",
"P. c #D1543D",
"I. c #AD514F",
"U. c #C64646",
"Y. c #C94444",
"T. c #CB4444",
"R. c #CB4545",
"E. c #CC4747",
"W. c #C14E45",
"Q. c #CF4E4E",
"!. c #CE5145",
"~. c #CF5248",
"^. c #DA5142",
"/. c #DE5142",
"(. c #D35943",
"). c #D7544B",
"_. c #D8544C",
"`. c #DE554C",
"'. c #DF564E",
"]. c #D15E48",
"[. c #D45D49",
"{. c #CB5151",
"}. c #D05050",
"|. c #D05151",
" X c #DF5750",
".X c #D25858",
"XX c #D65B5B",
"oX c #D55D5D",
"OX c #D65C5C",
"+X c #E3594E",
"@X c #E15852",
"#X c #E35C56",
"$X c #E45C56",
"%X c #E55D56",
"&X c #D66250",
"*X c #D86656",
"=X c #D96C5A",
"-X c #DE6B5C",
";X c #DF755F",
":X c #DB6C62",
">X c #DB6D65",
",X c #DB6F65",
"<X c #DC6F67",
"1X c #D56768",
"2X c #D16969",
"3X c #D76B6C",
"4X c #DA7369",
"5X c #DC7169",
"6X c #DB7E6F",
"7X c #DF7E70",
"8X c #DA7A7B",
"9X c #E16767",
"0X c #E16868",
"qX c #E26A6A",
"wX c #EB6E68",
"eX c #EB7272",
"rX c #EB7373",
"tX c #EC7372",
"yX c #EE7B7B",
"uX c #F67D7D",
"iX c #F67E7E",
"pX c #D98071",
"aX c #DF887B",
"sX c #E68674",
"dX c #D98C80",
"fX c #E38F83",
"gX c #F78585",
"hX c #E09386",
"jX c #EA9486",
"kX c #E79389",
"lX c #E0968B",
"zX c #EB978F",
"xX c #E99A91",
"cX c #E99E95",
"vX c #F09A93",
"bX c #EDA79B",
"nX c #EFA59F",
"mX c #EFA99E",
"MX c #F3A19C",
"NX c #F3ABA6",
"BX c #F1AEA4",
"VX c #F6AFAB",
"CX c #F1B2AC",
"ZX c None",
/* pixels */
"ZXZXZXZXZXZXZXZXZXZXZXZXZXZXZXZXZXZXZXZXZXZXZXZXZXZXZXZXZXZXZXZX",
"ZXZXZXZXZXZXZXZXZXZXZXZXZXZXZXZXZXZXZXZXZXZXZXZXZXZXZXZXZXZXZXZX",
"ZXZXZXZXZXZXZXZXZXZXZXZXZXZXZXZXZXZXZXZXZXZXZXZXZXZXZXZXZXZXZXZX",
"ZXZXZXZXZXZXZXZXZXZXZXZXZXZXZXZXZXZXZXZXZXZXZXZXZXZXZXZXZXZXZXZX",
"ZXZXZXZXZXZXZXZX] 5.ZXZXZXZXZXZXZXZXZXZXZXZX<.,.ZXZXZXZXZXZXZXZX",
"ZXZXZXZXZXZXZXU [ W.U ZXZXZXZXZXZXZXZXZXZXU D.3.U ZXZXZXZXZXZXZX",
"ZXZXZXZXZXZXZXR jXVX1.I I ZXZXZXZXZXZXZXZX2.MXBXR I I ZXZXZXZXZX",
"ZXZXZXZXZXP T sXiXiXNX&.L ZXZXZXZXZXZXP *.vXuXgXmXT P ZXZXZXZXZX",
"ZXZXZXZXK Y ;XtXeXeXrXnX$.j ZXZXZXZXz %.zXeXeXeXyXbXY K ZXZXZXZX",
"ZXZXZXZXJ ^ -X9X9X9X9X0XcXX.1 ZXZXt #.kX9X9X9X9XqXCX~ J ZXZXZXZX",
"ZXZXZXZXZXx ` *XXXXXXXXXoXlX| * < O.fXOXXXXXXXXXxX@.x ZXZXZXZXZX",
"ZXZXZXZXZXZXz _ &X}.}.}.}.{.dX} G aX|.}.}.}.}.7X+.z ZXZXZXZXZXZX",
"ZXZXZXZXZXZXZXl ) [.T.T.T.Y.U.pX6XR.T.T.T.E.=X' l ZXZXZXZXZXZXZX",
"ZXZXZXZXZXZXZXZXk ( (.b.b.b.c.n.n.b.b..X8XhXo.k ZXZXZXZXZXZXZXZX",
"ZXZXZXZXZXZXZXZXZXh / P.l.l.z.Q.1X3X2X6.B.! h ZXZXZXZXZXZXZXZXZX",
"ZXZXZXZXZXZXZXZXZXZXa n ].x.v.{ W E E N.v a ZXZXZXZXZXZXZXZXZXZX",
"ZXZXZXZXZXZXZXZXZXZXp c V.Q Q Q Q Q Q C.c p ZXZXZXZXZXZXZXZXZXZX",
"ZXZXZXZXZXZXZXZXZXi b Z.9.9.8.7.7.8.9.9.A.F i ZXZXZXZXZXZXZXZXZX",
"ZXZXZXZXZXZXZXZXy C S.e.e.w.q.0.0.q.w.e.e.H.Z y ZXZXZXZXZXZXZXZX",
"ZXZXZXZXZXZXZXZXA J.y.y.y.t.r.m.M.r.t.y.y.y.K.S e e ZXZXZXZXZXZX",
"ZXZXZXZXZXZX0 V L.p.p.p.p.u.F.. . G.i.p.p.p.p.^.D 0 ZXZXZXZXZXZX",
"ZXZXZXZXZXq D /.s.s.s.s.a.!.- o   X ~.a.s.s.s.s.`.H g ZXZXZXZXZX",
"ZXZXZXZX7 :.+Xf.f.f.f.d.).; @ ZXZXO ; _.d.f.f.f.f.%XI.;.ZXZXZXZX",
"ZXZXZXZX4 ..:Xh.g.g.g.'.: # ZXZXZXZX+ >  Xg.g.g.h.<X-.M ZXZXZXZX",
"ZXZXZXZXZXw f ,Xh.g.@X5 % ZXZXZXZXZXZX$ 6 #Xj.k.>Xd 0 ZXZXZXZXZX",
"ZXZXZXZXZXZXs  .4X$X9 & ZXZXZXZXZXZXZXZX= >.wX5Xd 0 ZXZXZXZXZXZX",
"ZXZXZXZXZXZXZX8 N B , ZXZXZXZXZXZXZXZXZXZX=.4.m 0 ZXZXZXZXZXZXZX",
"ZXZXZXZXZXZXZXZX3 2 ZXZXZXZXZXZXZXZXZXZXZXZXu r ZXZXZXZXZXZXZXZX",
"ZXZXZXZXZXZXZXZXZXZXZXZXZXZXZXZXZXZXZXZXZXZXZXZXZXZXZXZXZXZXZXZX",
"ZXZXZXZXZXZXZXZXZXZXZXZXZXZXZXZXZXZXZXZXZXZXZXZXZXZXZXZXZXZXZXZX",
"ZXZXZXZXZXZXZXZXZXZXZXZXZXZXZXZXZXZXZXZXZXZXZXZXZXZXZXZXZXZXZXZX",
"ZXZXZXZXZXZXZXZXZXZXZXZXZXZXZXZXZXZXZXZXZXZXZXZXZXZXZXZXZXZXZXZX"
};
