<?xml version="1.0" encoding="UTF-8" standalone="no"?>
<svg
   xmlns:dc="http://purl.org/dc/elements/1.1/"
   xmlns:cc="http://creativecommons.org/ns#"
   xmlns:rdf="http://www.w3.org/1999/02/22-rdf-syntax-ns#"
   xmlns:svg="http://www.w3.org/2000/svg"
   xmlns="http://www.w3.org/2000/svg"
   xmlns:sodipodi="http://sodipodi.sourceforge.net/DTD/sodipodi-0.dtd"
   xmlns:inkscape="http://www.inkscape.org/namespaces/inkscape"
   enable-background="new -0.709 -32.081 141.732 141.732"
   height="141.732px"
   id="Livello_1"
   version="1.1"
   viewBox="-0.709 -32.081 141.732 141.732"
   width="141.732px"
   xml:space="preserve"
   inkscape:version="0.48.3.1 r9886"
   sodipodi:docname="eye.svg"><metadata
     id="metadata11"><rdf:RDF><cc:Work
         rdf:about=""><dc:format>image/svg+xml</dc:format><dc:type
           rdf:resource="http://purl.org/dc/dcmitype/StillImage" /><dc:title /></cc:Work></rdf:RDF></metadata><defs
     id="defs9" /><sodipodi:namedview
     pagecolor="#ffffff"
     bordercolor="#666666"
     borderopacity="1"
     objecttolerance="10"
     gridtolerance="10"
     guidetolerance="10"
     inkscape:pageopacity="0"
     inkscape:pageshadow="2"
     inkscape:window-width="1523"
     inkscape:window-height="848"
     id="namedview7"
     showgrid="false"
     inkscape:zoom="1.6651145"
     inkscape:cx="70.865997"
     inkscape:cy="70.865997"
     inkscape:window-x="0"
     inkscape:window-y="0"
     inkscape:window-maximized="0"
     inkscape:current-layer="Livello_1" /><g
     id="Livello_80"
     transform="scale(0.94863868,1)"><path
       d="m 89.668,38.786 c 0,-10.773 -8.731,-19.512 -19.51,-19.512 -10.779,0 -19.512,8.736 -19.512,19.512 0,10.774 8.732,19.511 19.512,19.511 10.776,0 19.51,-8.736 19.51,-19.511 m 38.684,-0.059 C 115.037,56.326 93.926,67.699 70.159,67.699 46.389,67.699 25.28,56.326 11.965,38.727 25.279,21.129 46.389,9.756 70.158,9.756 c 23.769,0 44.878,11.373 58.194,28.971 m 11.962,0.033 C 125.666,15.478 99.725,0 70.158,0 40.591,0 14.648,15.478 0,38.76 c 14.648,23.312 40.591,38.81 70.158,38.81 29.567,0 55.508,-15.498 70.156,-38.81"
       id="path4"
       inkscape:connector-curvature="0" /></g><g
     id="Livello_1_1_" /></svg>