/* XPM */
static const char *fishing[]={
"16 16 6 1",
". c None",
"b c #000000",
"# c #0000ff",
"a c #00ffff",
"d c #7f7f7f",
"c c #bfbfbf",
"...#............",
"...#............",
"...#............",
"...#...aaaa.....",
"a..#.aaaaaaaa...",
"aa.#aaaaaaaaaaaa",
"aaa#aaaaaaaaaaaa",
"aaa#aaaaaaaaaaaa",
"aaa#aaaaaaaaaaaa",
"aabbbaaaaaaaaaaa",
"aaabaaaaaaaaaaaa",
"aaababaaccccaaac",
"aaabbbacddddcacd",
"aaaaaaadddddcddd",
"aaaaaaaddddddadd",
"aaaaaaaaddddaaad"};
