/* XPM */
static const char *fishhaven[]={
"16 16 3 1",
". c None",
"# c #000000",
"a c #ffffff",
"................",
"................",
".#.#.#.#.#.#.#..",
"#.............#.",
"................",
"#.............#.",
"##..#######.....",
"####aaaaaa##..#.",
"##aaaaaaaaaa#...",
"####aaaaaa##..#.",
"##..######......",
"#.............#.",
"................",
"#.............#.",
".#.#.#.#.#.#.#..",
"................"};
