/* XPM */
static const char *floating[]={
"16 16 3 1",
". c None",
"# c #000000",
"a c #7f007f",
"................",
".......#........",
"......#.#.......",
".....#...#......",
"....#.....#.....",
".....#...#......",
"......#.#.......",
".....aa#a.......",
"....aa###a......",
"....aa#a#a......",
"....aa###a......",
"....aaaaaa......",
".....aaaa.......",
"................",
"................",
"................"};
