/* XPM */
static const char *follow[] = {
/* columns rows colors chars-per-pixel */
"32 32 151 2",
"   c gray1",
".  c #0C0E0C",
"X  c #021402",
"o  c #011A01",
"O  c #0C160C",
"+  c #0A1E0A",
"@  c #121512",
"#  c #161A16",
"$  c #1C1C1C",
"%  c #092009",
"&  c #082C08",
"*  c #0B320B",
"=  c #0A3D0A",
"-  c #112011",
";  c #162C16",
":  c #1B241B",
">  c #1B281A",
",  c #103210",
"<  c #123912",
"1  c #1B361B",
"2  c #222222",
"3  c #262B26",
"4  c #253925",
"5  c #2F302F",
"6  c #2B3A2B",
"7  c #323632",
"8  c #383938",
"9  c #074407",
"0  c #044904",
"q  c #0E410E",
"w  c #0F4B0F",
"e  c #124212",
"r  c #1E4D1E",
"t  c #126A12",
"y  c #1F621F",
"u  c #1C691C",
"i  c #234D23",
"p  c #2F4B2F",
"a  c #215521",
"s  c #235C23",
"d  c #2A522A",
"f  c #2D5C2D",
"g  c #345134",
"h  c #315831",
"j  c #3C573C",
"k  c #3E5C3E",
"l  c #2E6A2E",
"z  c #237823",
"x  c #2C752C",
"c  c #356035",
"v  c #366D36",
"b  c #396339",
"n  c #3C6B3C",
"m  c #3B733B",
"M  c #444544",
"N  c #4A4B4A",
"B  c #455F45",
"V  c #495149",
"C  c #535453",
"Z  c #5A5B5A",
"A  c #456545",
"S  c #446A44",
"D  c #4E664E",
"F  c #4A6B4A",
"G  c #457245",
"H  c #447D44",
"J  c #4C744C",
"K  c #4A7948",
"L  c #506B50",
"P  c #5E605E",
"I  c #557155",
"U  c #567F54",
"Y  c #636363",
"T  c #6B6C6B",
"R  c #697F69",
"E  c #737373",
"W  c #7B7B7B",
"Q  c #2D932D",
"!  c #348834",
"~  c #3D8C3D",
"^  c #339633",
"/  c #369A36",
"(  c #3F963F",
")  c #3F9E3F",
"_  c #428E42",
"`  c #4B8D4A",
"'  c #419641",
"]  c #558555",
"[  c #558F55",
"{  c #5B835B",
"}  c #529752",
"|  c #5BAD5B",
" . c #678B67",
".. c #6C866C",
"X. c #6A8A6A",
"o. c #659565",
"O. c #6C956B",
"+. c #6C996C",
"@. c #718A71",
"#. c #7C8F7C",
"$. c #739173",
"%. c #759875",
"&. c #62A562",
"*. c #64A864",
"=. c #6CA56B",
"-. c #6CAC6C",
";. c #69B269",
":. c #7CA37C",
">. c #7CAD7B",
",. c #73B873",
"<. c #7AB27A",
"1. c #848484",
"2. c #8B8B8B",
"3. c #819381",
"4. c #869986",
"5. c #8B9C8B",
"6. c #929292",
"7. c #9D9E9D",
"8. c #86A286",
"9. c #85AA85",
"0. c #8AA48A",
"q. c #85B985",
"w. c #8CBD8C",
"e. c #91A291",
"r. c #91AA91",
"t. c #A3A3A3",
"y. c #ABABAB",
"u. c #A3B6A3",
"i. c #B4B4B4",
"p. c #B3BEB3",
"a. c #BBBBBB",
"s. c #94C694",
"d. c #9CCB9C",
"f. c #A2C5A2",
"g. c #A6D3A6",
"h. c #B4C4B4",
"j. c #B5DAB5",
"k. c #BEDFBE",
"l. c #C2C2C2",
"z. c #C0CEC0",
"x. c #CCCCCC",
"c. c #C7D0C7",
"v. c #CCD6CC",
"b. c #D4D4D4",
"n. c #DFDFDF",
"m. c #C0E0C0",
"M. c #CDE4CD",
"N. c #D5EAD5",
"B. c #DCEDDC",
"V. c #E6F2E6",
"C. c #EAF5EA",
/* pixels */
"n.n.n.n.n.n.n.n.n.n.n.n.n.n.n.Y 6.n.n.n.n.n.n.n.n.n.n.n.n.n.n.n.",
"n.n.n.n.n.n.n.n.n.n.n.n.n.n.W L B i.n.n.n.n.n.n.n.n.n.n.n.n.n.n.",
"n.n.n.n.n.n.n.n.n.n.n.n.n.l.O V.V.4 n.n.n.n.n.n.n.n.n.n.n.n.n.n.",
"n.n.n.n.n.n.n.n.n.n.n.n.n.C >.N.N.9.W n.n.n.n.n.n.n.n.n.n.n.n.n.",
"n.n.n.n.n.n.n.n.n.n.n.B.y.< m.,.;.M.i l.n.n.n.n.n.n.n.n.n.n.n.n.",
"n.n.n.n.n.n.n.n.n.n.n.n.3 -.,.x z &.w.p n.n.n.n.n.n.n.n.n.n.n.n.",
"n.n.n.n.n.n.n.n.n.n.n.W r +.w = e q +.n W n.n.n.n.n.n.n.n.n.n.n.",
"n.n.n.n.n.n.n.n.n.n.n.. n f k A D I X. .# b.n.n.n.n.n.n.n.n.n.n.",
"n.n.n.n.n.B.n.n.n.n.n.5 X w K 5.0.8.j + T n.n.n.n.n.n.n.n.n.n.n.",
"n.n.n.n.n.n.n.n.n.n.n.n.y.Z o %.h.; E x.n.n.n.n.n.n.n.n.n.n.n.n.",
"n.n.n.n.n.n.n.n.b.n.n.n.n.n.1.. # 6.n.n.n.n.n.n.n.n.n.n.n.n.n.n.",
"n.n.n.n.n.n.t.2 # l.n.n.n.n.n.b.b.n.n.n.n.n.n.Y @ E n.n.n.n.n.n.",
"n.n.n.n.b.Y d :.g Y n.n.n.n.n.n.n.n.n.n.n.n.x.% X.H 4 i.n.n.n.n.",
"n.n.n.7.1 <.f.b { O x.n.n.n.l.T P i.n.n.n.n.T c ..+.w.d T b.n.n.",
"n.x.V ] M.s.y e @.A 3 b.n.l.# O.:.> y.n.n.1.; 0...f ~ k.w.4 y.n.",
"b.3 M.C.s.( 9 p R u.L W n.T U | | <.N n.b.@ z.p.#.F t ^ j.V.I 2.",
"x.. f.V.g.' 0 g #.u.p W n.T K / / =.N n.b.. h.x.4.J t ) m.M.j E ",
"n.l.M r d.d.x d $.< 8 n.n.a.O H ` > 7.n.n.6.X %.4.G | d.[ + 1.n.",
"n.n.n.7.: l &.S m O b.n.n.n.i.C N t.n.n.n.n.Y a @.o._ & Z b.n.n.",
"n.n.n.n.n.E + r * C n.n.n.n.n.n.n.n.n.n.n.n.a.X f = 7 i.n.n.n.n.",
"n.n.n.n.n.n.l.N # i.n.n.n.n.n.n.n.n.n.n.n.n.n.M $ 2.n.n.n.n.n.n.",
"n.n.n.n.n.n.n.n.n.n.n.n.n.n.6.@ 2 i.n.n.n.n.n.n.n.n.n.n.n.n.n.n.",
"n.n.n.n.n.n.n.n.n.n.n.n.l.T X 0.c.- 6.n.n.n.n.n.n.n.n.n.n.n.n.n.",
"n.n.n.n.n.n.n.n.n.n.n.M X q { h.v.r.p : 2.B.n.n.n.n.n.n.n.n.n.n.",
"n.n.n.n.n.n.n.n.n.n.b.  a J @.3.5.e.r...$ n.V.n.n.n.n.n.n.n.n.n.",
"n.n.n.n.n.n.n.n.n.n.n.P s H h F I J 9.v W n.n.n.n.n.n.n.n.n.n.n.",
"n.n.n.n.n.n.n.n.n.n.n.b.- *.! t u } >.6 n.n.n.n.n.n.n.n.n.n.n.n.",
"n.n.n.n.n.n.n.n.n.n.n.n.2.a g.Q Q j.i a.n.n.n.n.n.n.n.n.n.n.n.n.",
"n.n.n.n.n.n.n.n.n.n.n.n.n.7 q.g.j.>.E n.n.n.n.n.n.n.n.n.n.n.n.n.",
"n.n.n.n.n.n.n.n.n.n.n.n.n.i., C.B.4 n.n.n.n.n.n.n.n.n.n.n.n.n.n.",
"n.n.n.n.n.n.n.n.n.n.n.n.n.n.Z $.A i.n.n.n.n.n.n.n.n.n.n.n.n.n.n.",
"n.n.n.n.n.n.n.n.n.n.n.n.n.n.x.M 1.n.n.n.n.n.n.n.n.n.n.n.n.n.n.n."
};
