/* XPM */
static const char *follow_[] = {
/* columns rows colors chars-per-pixel */
"32 32 147 2",
"   c #054B05",
".  c #015C01",
"X  c #066106",
"o  c #026E02",
"O  c #0A6A0A",
"+  c #017201",
"@  c #007C00",
"#  c #097709",
"$  c #0A7E0A",
"%  c #146B15",
"&  c #337E33",
"*  c #397739",
"=  c #427545",
"-  c #4E7751",
";  c #507D52",
":  c #028402",
">  c #008C00",
",  c #088808",
"<  c #019301",
"1  c #009E00",
"2  c #0A920A",
"3  c #11900D",
"4  c #188519",
"5  c #18981A",
"6  c #00A300",
"7  c #02AC02",
"8  c #0AA50A",
"9  c #0AAE0A",
"0  c #02B202",
"q  c #01BB01",
"w  c #0CB30C",
"e  c #0BBC0B",
"r  c #2DA61C",
"t  c #268729",
"y  c #2F872F",
"u  c #2F8B2F",
"i  c #249C23",
"p  c #2D942D",
"a  c #2A9C2C",
"s  c #328032",
"d  c #338D33",
"f  c #3A863A",
"g  c #3C9E3C",
"h  c #23A222",
"j  c #28A327",
"k  c #2AA92E",
"l  c #3BA23B",
"z  c #449230",
"x  c #4CA538",
"c  c #03C003",
"v  c #04CF04",
"b  c #0BC20B",
"n  c #02D202",
"m  c #0ED50E",
"M  c #3E9F47",
"N  c #3EA747",
"B  c #418D41",
"V  c #4B8E4C",
"C  c #479447",
"Z  c #449B45",
"A  c #4D974D",
"S  c #4C994C",
"D  c #54865B",
"F  c #58835B",
"G  c #598E5D",
"H  c #539F5A",
"J  c #5C9C5C",
"K  c #43A143",
"L  c #43A448",
"P  c #44AE4B",
"I  c #50AC46",
"U  c #45B84E",
"Y  c #58B24D",
"T  c #46AD50",
"R  c #54A554",
"E  c #57A957",
"W  c #55A65D",
"Q  c #5CA45C",
"!  c #54AB5E",
"~  c #5BA95B",
"^  c #54B15F",
"/  c #5CB158",
"(  c #60A646",
")  c #549D63",
"_  c #678F6C",
"`  c #649565",
"'  c #639B62",
"]  c #699966",
"[  c #6A956C",
"{  c #6D9C6B",
"}  c #619F71",
"|  c #6E9977",
" . c #729E79",
".. c #7B9F7C",
"X. c #56A260",
"o. c #58A265",
"O. c #56AB63",
"+. c #5EAD69",
"@. c #5BB168",
"#. c #68A666",
"$. c #63AA66",
"%. c #67A668",
"&. c #6EA46C",
"*. c #6AAB6D",
"=. c #72A46E",
"-. c #60B36A",
";. c #6CB26C",
":. c #65A273",
">. c #6DA770",
",. c #74A373",
"<. c #79A375",
"1. c #7EA27D",
"2. c #71B571",
"3. c #76BE74",
"4. c #7CA085",
"5. c #85A585",
"6. c #84A78E",
"7. c #89A789",
"8. c #8BAA8B",
"9. c #8CAF96",
"0. c #93AF9B",
"q. c #97B196",
"w. c #97B0A4",
"e. c #99B2A3",
"r. c #A0B6A0",
"t. c #A7B9A7",
"y. c #A4BBAE",
"u. c #AABCAB",
"i. c #A9BDB0",
"p. c #83C183",
"a. c #AACCA8",
"s. c #B1C7A7",
"d. c #AEC0B0",
"f. c #B3C2B4",
"g. c #B7C4B8",
"h. c #B9C6B9",
"j. c #BCC9BD",
"k. c #B9C6C3",
"l. c #BEC9C2",
"z. c #C2CCC3",
"x. c #CCD2CC",
"c. c #D2D6D4",
"v. c #D6D9D6",
"b. c #D5D9D9",
"n. c #DFDFDF",
"m. c #DEE0DD",
"M. c gray88",
/* pixels */
"n.n.n.n.n.n.n.M.n.n.n.n.n.n.n.n.n.n.n.n.n.n.n.n.n.n.n.n.n.n.n.n.",
"n.n.M.n.n.n.n.n.n.m.n.n.n.n.n.n.n.n.n.n.n.n.n.n.n.n.n.n.n.M.n.n.",
"n.n.n.n.n.n.n.n.n.c.x.x.x.x.x.x.x.x.x.x.x.x.c.n.n.n.n.n.n.n.n.M.",
"n.M.n.n.n.M.n.n.n.g.<.{ =.&.#.$.E ! ^ ! O.o.y.n.n.n.n.n.n.n.n.n.",
"n.n.n.n.n.M.n.n.n.z.<.p.;.R l h 6 q v n e o.h.n.n.n.n.M.M.n.n.n.",
"n.n.n.n.n.n.n.n.n.n.f.=.;.~ l j 1 7 q e N y.n.n.n.n.n.n.n.n.M.n.",
"n.n.n.n.n.n.n.n.n.n.n.u.%.~ K a < 6 7 k e.n.n.n.M.n.n.n.M.n.n.n.",
"n.n.n.n.n.n.n.M.n.n.n.v.q.Q Z p : > 5 6.v.n.n.n.n.n.n.n.n.n.n.n.",
"n.c.g.l.n.n.n.n.n.n.n.n.c.5.A d o $  .x.n.n.n.n.n.n.m.m.m.m.m.n.",
"n.x.8.1.f.n.n.n.n.n.n.n.M.z.{ f X G j.n.M.n.n.n.M.n.m.m.t.m.n.n.",
"n.x.5.] =.t.v.m.n.m.n.n.n.n.f.G = i.n.n.n.n.n.n.n.M.x.=.{ b.n.n.",
"n.x.7.` p.&.q.x.n.n.n.n.n.n.v.f.f.n.n.n.n.n.n.n.n.g.] 8.' b.n.n.",
"n.x.7.' ;.;.%.7.l.n.M.m.M.n.n.n.n.n.n.n.n.n.n.n.r.' ;.*.J v.M.M.",
"M.x.7.' R E ~ o.<.f.v.M.n.n.n.n.n.n.n.n.n.n.c.5.J Q E R J v.m.M.",
"n.x.8.' l l x Z S ` f.v.n.n.a./ 3.a.n.n.M.x.[ V C Z g g R v.M.m.",
"n.x.8.J h h j p d B [ c.n.n.Y 2.2.I n.n.z.F * & y p i i R v.n.n.",
"M.x.7.H 6 6 < , # X F c.n.M.x 3 r Y n.n.g.-   . o @ > 1 L v.m.M.",
"m.x.8.W q 0 8 2 $  .c.n.n.n.s.z ( s.n.n.n.x._ % + : 1 0 P v.n.n.",
"M.x.8.O.v b w 5 9.b.n.n.n.n.n.n.n.n.n.n.n.n.c.4.t > 6 q U v.M.n.",
"M.x.8.O.m b k e.n.M.n.n.n.M.M.n.M.n.n.n.n.n.n.n.0.M 6 q U b.n.n.",
"n.x.q.+.e N k.n.n.n.n.n.n.n.v.u.d.v.n.n.n.M.n.M.M.i.X.9 T v.M.M.",
"m.v.j.} ) x.n.n.M.n.n.n.n.n.f.; = f.n.M.n.n.n.n.M.M.z.:.o.v.M.M.",
"n.n.n.k.b.n.n.n.n.n.n.n.n.z.` *   D j.M.n.n.M.n.n.n.n.c.w.n.m.n.",
"n.n.n.n.n.M.n.n.n.n.M.n.x...V s . O | x.n.n.n.n.n.n.n.n.n.n.n.n.",
"n.n.n.n.n.n.n.n.n.n.n.v.8.J C u o @ 4 6.b.n.n.n.n.M.n.M.n.n.n.n.",
"n.n.n.n.n.n.M.n.n.M.n.t.#.Q Z p : > < a e.b.n.n.n.n.n.n.n.n.n.M.",
"n.n.n.n.M.n.n.n.M.m.f.=.2.R g i < 6 7 7 Z i.n.n.n.n.M.n.n.M.n.n.",
"n.n.n.n.n.n.n.n.m.z.,.p.;.R g 5 1 0 c c w ) l.n.n.n.n.n.n.n.n.n.",
"M.n.n.n.n.n.n.M.v.h.1.,.,.,.>.*.$.+.-.@.+.:.y.n.n.n.n.n.n.n.M.n.",
"n.n.n.n.n.n.n.n.n.v.x.x.x.c.x.x.x.x.x.x.x.x.v.n.M.n.n.n.n.n.n.n.",
"n.n.n.M.n.n.n.n.n.n.n.M.M.m.n.n.n.n.M.M.n.n.n.n.n.n.M.n.n.n.n.n.",
"n.n.n.n.n.M.n.n.n.M.n.m.M.M.n.n.M.n.n.M.n.M.n.n.n.n.n.n.n.n.M.n."
};
