/* XPM */
static const char *food[]={
"16 16 3 1",
". c None",
"# c #000000",
"a c #7f7f7f",
"................",
".#.#.#.....###..",
".#.#.#.....###..",
".#####.....###..",
"...#........#...",
"...#........#...",
"...#........#...",
"...#........#...",
".....aaaaaaaa...",
".....aaaaaa.a...",
".....aaaaaa.a...",
".a...aaaaaaaa.a.",
".aa...aaaa...aa.",
"..aaaaaaaaaaaa..",
"....aaaaaaaa....",
"................"};
