/* XPM */
static const char *fuel[]={
"16 16 6 1",
"a c None",
"b c #000000",
"c c #2f002f",
"d c #7f7f7f",
"# c #bfbfbf",
". c #ff0000",
"...#.##.#...#.##",
".###.##.#.###.##",
".###.##.#.###.##",
"...#.##.#...#.##",
".###.##.#.###.##",
".###....#...#...",
"aaaabbbbbbbbbaaa",
"aaaabbbbbbbbbbaa",
"aaa#aabaaaabcbaa",
"aaaaaabbbbbbbbaa",
"aa#aaaaaaaaabbaa",
"aaaaaaaaaaaabbaa",
"a#aaaaaaaaaaddaa",
"aaaaaaddddddddaa",
"aaaaaddddddddaaa",
"aaaaaddaaaaaaaaa"};
