/* XPM */
static const char *gpx_export[] = {
/* columns rows colors chars-per-pixel */
"32 32 215 2",
"   c #171818",
".  c #191919",
"X  c #1D1D1D",
"o  c #202121",
"O  c #2D2D2D",
"+  c gray19",
"@  c #313131",
"#  c #323232",
"$  c gray21",
"%  c #373737",
"&  c gray22",
"*  c #3A3A3A",
"=  c #3B3C3C",
"-  c #3C3D3D",
";  c gray24",
":  c #3E3E3E",
">  c #3F3F3F",
",  c #444444",
"<  c gray27",
"1  c #464646",
"2  c #474848",
"3  c gray29",
"4  c #4B4B4B",
"5  c #4C4C4C",
"6  c #4E4E4E",
"7  c #505151",
"8  c #515151",
"9  c #515252",
"0  c gray33",
"q  c gray34",
"w  c #5D5D5D",
"e  c #606060",
"r  c #606161",
"t  c gray38",
"y  c #646464",
"u  c #666767",
"i  c #686868",
"p  c #696A6A",
"a  c gray44",
"s  c #727272",
"d  c gray45",
"f  c #737474",
"g  c #747474",
"h  c gray46",
"j  c #767676",
"k  c #777777",
"l  c gray48",
"z  c #7C7C7C",
"x  c #7F8483",
"c  c #808181",
"v  c #808483",
"b  c #818684",
"n  c #838685",
"m  c #868686",
"M  c gray53",
"N  c #868A8A",
"B  c #888888",
"V  c #898989",
"C  c #888A8B",
"Z  c gray54",
"A  c gray55",
"S  c #8E8E8E",
"D  c #8E8F8F",
"F  c gray56",
"G  c #8E9191",
"H  c #8F9291",
"J  c #909090",
"K  c gray58",
"L  c #959595",
"P  c gray59",
"I  c #9B9B9B",
"U  c gray61",
"Y  c #9D9D9D",
"T  c #9F9F9F",
"R  c #A0A0A0",
"E  c gray63",
"W  c #A2A2A2",
"Q  c #A2A2A3",
"!  c gray64",
"~  c #A4A4A4",
"^  c #A4A5A5",
"/  c #A5A5A5",
"(  c gray65",
")  c #A7A7A7",
"_  c #A7A8A8",
"`  c gray66",
"'  c #A9A9A9",
"]  c #AAAAAA",
"[  c gray67",
"{  c #ABACAC",
"}  c #ACACAC",
"|  c gray68",
" . c #AEAEAE",
".. c #AFAFAF",
"X. c #AFB0B0",
"o. c gray69",
"O. c #B0B1B1",
"+. c #B1B1B1",
"@. c #B1B2B2",
"#. c #B2B2B2",
"$. c gray70",
"%. c #B4B4B4",
"&. c gray71",
"*. c #B6B6B6",
"=. c #B7B7B7",
"-. c gray72",
";. c #B8B9B9",
":. c #B9B9B9",
">. c #B9BABA",
",. c gray73",
"<. c #BBBBBB",
"1. c #BCBCBC",
"2. c gray74",
"3. c gray75",
"4. c #C0C0C0",
"5. c #C1C1C2",
"6. c gray76",
"7. c #C2C2C3",
"8. c #C3C3C3",
"9. c #C3C4C4",
"0. c #C3C4C5",
"q. c gray77",
"w. c #C5C5C5",
"e. c #C5C6C6",
"r. c gray78",
"t. c #C8C8C8",
"y. c gray79",
"u. c #CACACA",
"i. c gray80",
"p. c #CDCDCD",
"a. c #CDCECE",
"s. c #CECECE",
"d. c #CECFCF",
"f. c gray81",
"g. c #D0D0D0",
"h. c gray82",
"j. c #D1D2D2",
"k. c LightGray",
"l. c #D2D5D6",
"z. c gray83",
"x. c #D4D5D5",
"c. c #D5D5D5",
"v. c gray84",
"b. c #D7D7D7",
"n. c #D6DADC",
"m. c #D8D8D8",
"M. c #D8D8D9",
"N. c gray85",
"B. c #DADADA",
"V. c #DADADB",
"C. c gray86",
"Z. c gainsboro",
"A. c #DCDCDD",
"S. c #DDDDDD",
"D. c gray87",
"F. c #DEDEDF",
"G. c #DEDFDF",
"H. c #DFDFDF",
"J. c #DFE0E0",
"K. c gray88",
"L. c #E1E1E1",
"P. c #E2E2E2",
"I. c #E2E3E3",
"U. c #E4E4E4",
"Y. c #E5E6E7",
"T. c #E6E7E8",
"R. c #E7E8E8",
"E. c #E7E8E9",
"W. c gray91",
"Q. c #E8E9E9",
"!. c #E9E9E9",
"~. c #E8E9EA",
"^. c #E9EAEA",
"/. c #E9EAEB",
"(. c #EAEAEA",
"). c #EAEBEB",
"_. c gray92",
"`. c #EBEBEC",
"'. c #EBECEC",
"]. c #EBECED",
"[. c #ECECEC",
"{. c #ECEDED",
"}. c gray93",
"|. c #EDEEEE",
" X c #EEEEEE",
".X c #EEEFEF",
"XX c #EFEFEF",
"oX c #EFF0F0",
"OX c gray94",
"+X c #F0F1F1",
"@X c #F1F1F1",
"#X c #F0F1F2",
"$X c #F1F2F2",
"%X c gray95",
"&X c #F2F3F3",
"*X c #F3F3F3",
"=X c #F3F4F4",
"-X c #F4F4F4",
";X c #F4F5F5",
":X c gray96",
">X c #F5F6F6",
",X c #F6F6F6",
"<X c #F6F7F7",
"1X c gray97",
"2X c #F7F8F8",
"3X c #F8F8F8",
"4X c #F9F9F9",
"5X c #FAFAF9",
"6X c gray98",
"7X c #FBFBFB",
"8X c #FBFBFC",
"9X c gray99",
"0X c #FDFDFD",
"qX c #FEFEFE",
"wX c gray100",
/* pixels */
"4.P P P P P P P P P P P P P P P P P P P P P P P P 4.H.H.H.H.H.H.",
"P +X_.'.{.|. X.XoX+X+X@X@X$X$X&X&X&X*X=X=X=X=X=X<XP H.H.H.H.H.H.",
"P `.Y.T.E.~./.'.'.{.}.|. X.XXXoXoXOX+X+X+X+X@X@X-XP H.H.H.H.H.H.",
"P ].R.N.q * 3 j {.m 1 9 D oXi a.@XA { %X%X_.+... XP H.H.H.H.H.H.",
"P |.Q.9 K ).{.9. Xd X.XX> v.x., d.5 *X*X{.o.U.K.] L H.H.H.H.H.H.",
"P  XQ.. R.{.G.J.XXf O.C.# P.&XS o b.-X;X;.P.wXwXN.Z Z.H.H.H.H.H.",
"P .XR.X '.^.r   Q.g - u $.=X-Xp O k.>X,X:._.wXwXwX&.! D.H.H.H.H.",
"P +X{.; >..XoX= ^.h @.=X-X:X<.w b.2 ,X1X[.| 4XwXwX0X4.~ D.H.H.H.",
"P @X}.i.% 3 y 7 oXh $.;X:X}.: W.1XF J 3X4XK.+.qXwXwXqX*.( H.H.H.",
"P @X|..XoXI.^.&X=X-X:X,X,X1X3X3X4X4X4X6X6X6Xs.6.wXwXwX0X} [ H.H.",
"P $X.XoX+X$X&X=X;X:X,X1X2X3XC.3.1.=.$. .] / R I m.wXwXwX0X~ o.H.",
"P &XoX+X$X&X=X;X>X,X1X3X4X4X6X7X7X9X0XqXqXwXwXwXwXwXwXwXwX7XY =.",
"P =X+X$X&X=X;X>X,X1X3X4X6X6X6X7X9X0X0XqXqXwXwXwXwXwXwXwXwXwX%XB ",
"P -X@X%X*X-X:X,X1X3X4X6X6X6X7X9X9X0XqXqXqXwXwXwXwXwXwXwXwX7XY =.",
"P -X%X*X-X:X,X1X3X4X6X6X6X7XZ.4.1.-.%...] / E U N.wXwXwX0X~ o.H.",
"P ;X&X=X:X,X1X3X4X6X6X7X7X7X9X9X9X9X0X0X0X0Xg.6.wXwXwX0X} [ H.H.",
"P :X*XW ; < g *X1X8 7X7X*.U y 6 + 6 6 %X0XU.$.qXwXwXqX*.( H.H.H.",
"P >Xt.& W.:Xa m ,X# 7X7X' V 9X0X% 0XqXqX%Xo.6XwXwX0X4.~ D.H.H.H.",
"P ,Xc M 1X3Xf.; ,X# 7X9X' V 0X0X% qXqXqX1.}.wXwXwX&.! D.H.H.H.H.",
"P <Xl K 1X4XS.$ 3X@ 9X9X) A 0XqX% qXqX9X<.U.wXwXN.Z Z.H.H.H.H.H.",
"P 1X=.3 3X4XJ s 7X> 3X9Xk 8.qXqX% 9X6X:X(. .P.S.^ E H.H.H.H.H.H.",
"P 1X,Xz # 4 3 _.7X[ 0 e t 0XqXqX$ 4X@X!.V.u.Q _ H g.H.H.H.H.H.H.",
"P 1X,X1X-X[.6X7X7X9X9X*X0XqXqX0X6XOXZ.7.u.F.H.C y.H.H.H.H.H.H.H.",
"P 1X,X3X4X6X6X7X7X9X9X0XqXqXqX7X*XU.5.0X5XL.n 6.H.H.H.H.H.H.H.H.",
"P 1X1X3X4X6X6X7X9X9X0X0XqXqX0X3X}.j.e.5XL.v :.D.H.H.H.H.H.H.H.H.",
"P 2X1X3X4X6X7X7X9X9X0X0XqXqX9X-XU.0.C.L.x #.D.H.H.H.H.H.H.H.H.H.",
"P 2X1X3X6X6X7X7X9X9X0X0XqXqX7X%XA.5.F.b :.D.H.H.H.H.H.H.H.H.H.H.",
"P 2X1X3X6X6X7X7X9X9X0X0XqXwX7X@XM.l.N 6.D.H.H.H.H.H.H.H.H.H.H.H.",
"T %X4X6X7X7X9X9X0X0X0X0XqXqX8X#Xn.G y.H.H.H.H.H.H.H.H.H.H.H.H.H.",
"i.T P P P P P P P P P P P P P P ! g.H.H.H.H.H.H.H.H.H.H.H.H.H.H.",
"H.H.H.S.N.c.h.p.y.w.6.3.2.<.:.:.-.:.:.<.2.3.6.w.y.p.h.c.N.S.H.H.",
"H.D.Z.N.z.g.i.r.6.2.-.$.| ` ! T T E / ] ..%.,.3.q.t.p.h.v.B.S.H."
};
