/* XPM */
static const char *gpx_import[] = {
/* columns rows colors chars-per-pixel */
"32 32 205 2",
"   c gray6",
".  c gray10",
"X  c #232323",
"o  c #252525",
"O  c #282828",
"+  c #2D2D2D",
"@  c gray20",
"#  c #343434",
"$  c gray21",
"%  c #383939",
"&  c #3C3C3C",
"*  c gray27",
"=  c #464646",
"-  c gray28",
";  c #4B4B4B",
":  c #4C4C4C",
">  c gray30",
",  c gray31",
"<  c #505050",
"1  c gray32",
"2  c #555555",
"3  c #565656",
"4  c #5A5A5A",
"5  c #5B5B5B",
"6  c #676767",
"7  c #676868",
"8  c #686868",
"9  c DimGray",
"0  c #696A6A",
"q  c #6A6A6A",
"w  c #6D6D6D",
"e  c #6F6F6F",
"r  c #727373",
"t  c gray46",
"y  c #7E7E7E",
"u  c #7F8483",
"i  c #818181",
"p  c gray51",
"a  c #808483",
"s  c #818684",
"d  c #838685",
"f  c #868686",
"g  c gray53",
"h  c #878888",
"j  c #868A8A",
"k  c #888989",
"l  c #898989",
"z  c #898A8A",
"x  c #888A8B",
"c  c #8E8E8E",
"v  c #8F9090",
"b  c #8E9191",
"n  c #909392",
"m  c #939393",
"M  c gray58",
"N  c gray59",
"B  c #979797",
"V  c gray60",
"C  c #9A9A9A",
"Z  c #9B9B9B",
"A  c #9C9D9D",
"S  c #9F9F9F",
"D  c #A0A0A0",
"F  c gray63",
"G  c #A2A2A2",
"H  c gray64",
"J  c #A4A4A4",
"K  c #A5A5A5",
"L  c gray65",
"P  c #A7A7A7",
"I  c gray66",
"U  c #A9A9A9",
"Y  c #AAAAAA",
"T  c gray67",
"R  c gray68",
"E  c #AFAFAF",
"W  c gray69",
"Q  c #B1B1B1",
"!  c #B2B2B2",
"~  c gray70",
"^  c #B4B4B4",
"/  c #B6B6B6",
"(  c #B6B7B7",
")  c gray72",
"_  c #B9B9B9",
"`  c gray73",
"'  c #BBBBBB",
"]  c gray74",
"[  c gray",
"{  c #BEBFBF",
"}  c gray75",
"|  c #C0C0C0",
" . c #C0C1C1",
".. c #C1C1C2",
"X. c gray76",
"o. c #C2C2C3",
"O. c #C3C3C3",
"+. c #C3C4C5",
"@. c gray77",
"#. c #C5C5C5",
"$. c #C5C6C6",
"%. c gray78",
"&. c #C8C8C8",
"*. c gray79",
"=. c #C9CACA",
"-. c #CACACA",
";. c gray80",
":. c #CDCDCD",
">. c #CDCDCE",
",. c gray81",
"<. c #CFD0D0",
"1. c #D0D0D0",
"2. c gray82",
"3. c #D1D2D2",
"4. c #D2D2D2",
"5. c #D2D3D3",
"6. c LightGray",
"7. c #D2D5D6",
"8. c gray83",
"9. c #D5D5D5",
"0. c gray84",
"q. c #D6D7D7",
"w. c #D6DADC",
"e. c #D8D8D8",
"r. c #D8D8D9",
"t. c gray85",
"y. c #DADADA",
"u. c #DADADB",
"i. c #DADBDB",
"p. c gray86",
"a. c #D9DBDC",
"s. c #DBDCDC",
"d. c gainsboro",
"f. c #DCDCDD",
"g. c #DDDDDD",
"h. c #DDDEDE",
"j. c gray87",
"k. c #DEDEDF",
"l. c #DEDFDF",
"z. c #DFDFDF",
"x. c #E1E1E1",
"c. c #E2E2E2",
"v. c gray89",
"b. c #E3E4E4",
"n. c #E4E4E4",
"m. c #E4E5E5",
"M. c gray90",
"N. c #E5E6E6",
"B. c #E5E6E7",
"V. c #E6E6E6",
"C. c #E6E7E7",
"Z. c #E7E7E7",
"A. c #E4E7E8",
"S. c #E6E7E8",
"D. c #E7E8E8",
"F. c #E7E8E9",
"G. c gray91",
"H. c #E8E9E9",
"J. c #E9E9E9",
"K. c #E8E9EA",
"L. c #E9EAEA",
"P. c #E9EAEB",
"I. c #EAEBEB",
"U. c gray92",
"Y. c #EBEBEC",
"T. c #EBECEC",
"R. c #EBECED",
"E. c #ECECEC",
"W. c #ECEDED",
"Q. c gray93",
"!. c #EDEEEE",
"~. c #EEEEEE",
"^. c #EEEFEF",
"/. c #EFEFEF",
"(. c #EFF0F0",
"). c gray94",
"_. c #F0F1F1",
"`. c #F1F1F1",
"'. c #F0F1F2",
"]. c #F1F2F2",
"[. c gray95",
"{. c #F2F3F3",
"}. c #F3F3F3",
"|. c #F3F4F4",
" X c #F4F4F4",
".X c #F4F5F5",
"XX c gray96",
"oX c #F5F6F6",
"OX c #F6F6F6",
"+X c #F6F7F7",
"@X c gray97",
"#X c #F7F8F8",
"$X c #F8F8F8",
"%X c #F9F9F9",
"&X c #FAFAF9",
"*X c #F9FAFA",
"=X c gray98",
"-X c #FAFBFB",
";X c #FBFBFB",
":X c #FBFBFC",
">X c #FBFCFC",
",X c gray99",
"<X c #FDFDFD",
"1X c #FEFEFE",
"2X c gray100",
/* pixels */
"z.z.z.z.z.z.| N N N N N N N N N N N N N N N N N N N N N N N N | ",
"z.z.z.z.z.z.N _.U.T.W.!.~.^.(._._.`.`.].].{.{.{.}.|.|.|.|.|.+XN ",
"z.z.z.z.z.z.N Y.B.S.F.K.P.T.T.W.Q.!.~.^./.(.(.)._._._._.`.`. XN ",
"z.z.z.z.z.z.N R.D.H.L.I.T.W.p @ > 2 h.$.% 1 w m.J m [.-.e [.XXN ",
"z.z.z.z.z.z.N !.H.L.I.T.W.A 3 N.(.e.l.} 6 [.g v [.= 3.* s.|.+XN ",
"z.z.z.z.z.z.N ~.L.T.T.W.!.1 W (.C.c.W.| 7 E.8 D  X4.. Z XXXX@XN ",
"z.z.z.z.z.z.N ^.b.E ( H.^.; { `.z $ F  .X 4 B /.oX^ o m OXOX$XN ",
"z.z.z.z.z.z.N D.L c.j._ W.k r [.{.h G X.9 OXOX+XU.& G.- i.#X%XN ",
"z.z.z.z.z.z.N I x.2X<Xt. .I.5 # q : &.O.0 @X@X$X8 / %X8.> %X=XN ",
"z.z.z.z.z.z.N I I.2X<X>X9.&.{.~.M.OXOX@X$X$X%X%X%X=X=X=X=X=X;XN ",
"z.z.z.z.z.z.N b.H @X<X,X=X5.<.XXOX@X#X$X%X%X=X=X=X=X=X=X=X=X;XN ",
"z.z.z.z.z.z.N {.q.Q ;X,X;X%X2.c.@X$X%X%X=X=X=X=X;X;X;X;X;X;X,XN ",
"z.z.z.z.z.z.N |._.=.#.>X;X-X$Xz.@X%X=X=X=X=X;X;X;X;X;X;X;X;X,XN ",
"V y y y i f f M C D L y.;X;X=X$X@X=X=X=X;X;X;X;X,X,X,X,X,X,X<XN ",
"y 2X2X2X2X2X2X2X2X2X1X<X,X;X;X;X;X=X=X;X;X;X,X,X,X,X,X,X<X<X<XN ",
"y 2X2X2X2X2X2X2X2X2X1X<X,X,X;X;X;XZ / Z.O 6.,XS ' <X<X<X<X<X<XN ",
"y 2X2X2X2X2X2X2X2X2X1X<X<X,X,X;X,Xl U n.+ 3 <Xc E <X<X1X1X1X1XN ",
"V y y y i f f M C F P y.<X<X,X=X%Xl Y n., 8 &.c E 1X1X1X1X1X1XN ",
"z.z.z.z.z.z.N OX.X;.%.<X<X<X=Xc.=Xl Y n., v.> c E 1X1X<X<X<X<XN ",
"z.z.z.z.z.z.N +Xy.! ,X1X<X,X6.V.,Xl Y M., 1Xt : E ,X=X=X$X$X*XN ",
"z.z.z.z.z.z.N J.J %X1X1X<X9.6.;X,Xl T M.< 1XE.  R XX`.~.E.U.A.G ",
"z.z.z.z.z.z.N U Q.2X1X1Xt.:.=X,X,X<X<X1X1X1X,X%X`.J.u.,.>.a.n 1.",
"z.z.z.z.z.z.N U n.2X1Xg.#.%X;X,X,X<X<X1X1X<X=X).d.o.-.k.z.x *.z.",
"z.z.z.z.z.z.N ~.U M.c.[ @X;X;X,X,X<X1X1X1X;X}.n...<X&Xx.d X.z.z.",
"z.z.z.z.z.z.N @X~.^ ' XX=X;X,X,X<X<X1X1X<X$XQ.3.$.&Xx.a _ j.z.z.",
"z.z.z.z.z.z.N #X@X$X%X=X;X;X,X,X<X<X1X1X,X Xn.+.p.x.u ! j.z.z.z.",
"z.z.z.z.z.z.N #X@X$X=X=X;X;X,X,X<X<X1X1X;X[.f...k.s _ j.z.z.z.z.",
"z.z.z.z.z.z.N #X@X$X=X=X;X;X,X,X<X<X1X2X;X`.r.7.j X.j.z.z.z.z.z.",
"z.z.z.z.z.z.S [.%X=X;X;X,X,X<X<X<X<X1X1X:X'.w.b *.z.z.z.z.z.z.z.",
"z.z.z.z.z.z.;.S N N N N N N N N N N N N N N H 1.z.z.z.z.z.z.z.z.",
"z.z.z.g.t.9.2.:.*.#.X.} ] ' _ _ ) _ _ ' ] } X.#.*.:.2.9.t.g.z.z.",
"z.j.d.t.8.1.;.%.X.] ) ~ R I H S S F K Y E ^ ` } @.&.:.2.0.y.g.z."
};
