/* XPM */
static const char *grabber[]={
"17 41 4 1",
". c None",
"# c #c5c6c8",
"a c #eeeff2",
"b c #fafafb",
".................",
".................",
".................",
".................",
".................",
".................",
".................",
"......##.........",
"......#ab........",
".......bb........",
".........##......",
".........#ab.....",
"..........bb.....",
"......##.........",
"......#ab........",
".......bb........",
".........##......",
".........#ab.....",
"..........bb.....",
"......##.........",
"......#ab........",
".......bb........",
".........##......",
".........#ab.....",
"..........bb.....",
"......##.........",
"......#ab........",
".......bb........",
".........##......",
".........#ab.....",
"..........bb.....",
"......##.........",
"......#ab........",
".......bb........",
".................",
".................",
".................",
".................",
".................",
".................",
"...............aa"};
