/* XPM */
static const char *grabber[]={
"8 44 3 1",
". c None",
"a c #0058c0",
"# c #0000c0",
"...##...",
"...##...",
"...##...",
"...##...",
"...##...",
"...##...",
"........",
"........",
"...##...",
"...##...",
"...##...",
"...##...",
"...##...",
"...##...",
"...##...",
"...##...",
"........",
"........",
"...##...",
"...##...",
"...##...",
"...##...",
"...##...",
"...##...",
"...##...",
"........",
"........",
"...##...",
"...##...",
"...##...",
"...##...",
"...##...",
"...aa...",
"........",
"........",
"...##...",
"...##...",
"...##...",
"...##...",
"...##...",
"...##...",
"...##...",
"...##...",
"...##..."};
