/* XPM */
static const char *help[] = {
/* columns rows colors chars-per-pixel */
"32 32 101 2",
"   c #030303",
".  c #0B0B0B",
"X  c #131313",
"o  c #1B1B1B",
"O  c #232323",
"+  c #2B2B2B",
"@  c #343434",
"#  c #3C3C3C",
"$  c #424242",
"%  c #555555",
"&  c #5B5B5B",
"*  c #366199",
"=  c #3A659C",
"-  c #3E69A2",
";  c #3E75BB",
":  c #42699E",
">  c #56759B",
",  c #426BA2",
"<  c #4770A7",
"1  c #4A74AA",
"2  c #4F79AC",
"3  c #4475B6",
"4  c #4B77B4",
"5  c #4379BE",
"6  c #4B7BBC",
"7  c #527CB1",
"8  c #457BC1",
"9  c #4A7DC2",
"0  c #70849D",
"q  c #5680B4",
"w  c #5B82B4",
"e  c #6681A1",
"r  c #6C84A2",
"t  c #7086A1",
"y  c #6087B6",
"u  c #658AB7",
"i  c #6D92BF",
"p  c #4787D9",
"a  c #4887D9",
"s  c #4C8BDC",
"d  c #508EDF",
"f  c #5792DF",
"g  c #5C93DB",
"h  c #6499DE",
"j  c #689CDD",
"k  c #6FA0DD",
"l  c #73A1DE",
"z  c #518FE0",
"x  c #5592E2",
"c  c #5A96E5",
"v  c #5E98E7",
"b  c #5D97E8",
"n  c #5E99E9",
"m  c #629AE4",
"M  c #699DE4",
"N  c #639CEB",
"B  c #6EA1E5",
"V  c #6AA1EC",
"C  c #74A4E5",
"Z  c #7CA8E3",
"A  c #72A5EB",
"S  c #76A8ED",
"D  c #7DACEC",
"F  c gray59",
"G  c #9C9C9C",
"H  c #8F9FB3",
"J  c #9DA8B6",
"K  c #A3A3A3",
"L  c #ACACAC",
"P  c #B4B4B4",
"I  c #BBBBBB",
"U  c #A3B7D2",
"Y  c #82ACE3",
"T  c #89AFE5",
"R  c #8AB2E7",
"E  c #86B0E8",
"W  c #8AB2E9",
"Q  c #94BAED",
"!  c #99BDEC",
"~  c #A3C5EF",
"^  c #AECBEF",
"/  c #AAC9F3",
"(  c #B3CEF2",
")  c #B5D0F5",
"_  c #BBD3F4",
"`  c #C3C3C3",
"'  c #CBCBCB",
"]  c #D4D4D4",
"[  c #D6D9DF",
"{  c #DFDFDF",
"}  c #C1D7F5",
"|  c #C6DAF5",
" . c #C9DBF6",
".. c #CFE0F7",
"X. c #D2E2F6",
"o. c #D6E5F8",
"O. c #DAE7F8",
"+. c #DEEAFA",
"@. c #E6EEFA",
"#. c #E7F0FB",
"$. c #E9F1FB",
/* pixels */
"{ { { { { { { { { { { { { { { { { { { { { { { { { { { { { { { { ",
"{ { { { $ & & & & 0 0 t t t t r r r r r r e e e e e > H { { { { ",
"{ { { ` % ` I ` ` ' ' ` ' ' ] ' ' ] ] ] ] ] ] [ [ { J w { { { { ",
"{ { { P   @ @ # # > u i y w w w w q w q q 7 q 2 7 2 < > { { { { ",
"{ { { P     .     = l k g p p p p p a j s a p s s s s s [ { { { ",
"{ { { P   . .     * f j Y p p p p p a d h s s s s s s s [ { { { ",
"{ { { I   X .     = a g l h s s s s s s h d s s s s d d { { { { ",
"{ { { P   X X   . = s s j l s k ! ^ ^ ! Y h s d d d z z { { { { ",
"{ { { I   o X . . = s s s Z  .$.| E C ~ O.X.C d d d z z { { { { ",
"{ { { `   o X   X = s s f ..$.Q d d d d B O.#.B d d z f { { { { ",
"{ { { I   O o   X - d d E $.$.R d z d d d ~ $._ z z x x { { { { ",
"{ { { `   + o   X - d d ! $.$.) v z x z x W #.X.x x x c { { { { ",
"{ { { `   + O   o - d z M @.$.Q k g x x x / #.) x x c g { { { { ",
"{ { { `   @ O   o , x x x M V x v m c c V +.#.D c c c v { { { { ",
"{ { { ` . @ O . o , x x x x x x x B v c _ $.Q c v c c m { { { { ",
"{ { { ` . @ O . o , x x x c c x x v m ! #.! c c v v n B { { { { ",
"{ { { ` . @ + . O , x c x c c c c c A +./ n n b n n n B { { { { ",
"{ { { ' X # + . O = c c c c c c c c ( | n N n n n n n B { { { { ",
"{ { { ` X # + X O : b c c b b b n c +.V N N N N n n n C { { { { ",
"{ { { ` X # + X + : b b b b b n n V o.N N N N N V n V C { { { { ",
"{ { { ' X # + X + : n n n n n n n S _ N N N N N V N N D { { { { ",
"{ { { ` o $ + X + , n N n N N N N A D N N N V V V N N E { { { { ",
"{ { { ' o $ + X + < n n N n N N n V N N N N N V V N V E { { { { ",
"{ { { ' o $ + o @ 1 n n b b b b V / / V N N N V V N V W { { { { ",
"{ { { ' O # + o @ 4 c v c c b b ) $.$._ n n N N N N N W { { { { ",
"{ { { ' O $ + O @ 6 x c x c v v } $.$. .n b b n n N N E { { { { ",
"{ { { ' O $ + O @ 9 x x x x c x A ..o.D c c b b b b b E { { { { ",
"{ { { ' + # + O @ 6 z z x z z x x x x x x x c x c c c E { { { { ",
"{ { { { o @ O o + 5 d d d s d d x z z z z z x z x x x T { { { { ",
"{ { { { + O o X o 3 a s s s s s s s s s d s d z d z z T { { { { ",
"{ { { [ & o X X o - ; 5 ; ; ; ; ; 5 8 5 5 5 5 5 8 8 9 U ] [ { { ",
"{ { ] ] ' ` I P P L L K K G G F F F G K K L L P P I I ` ' ] { { "
};
