/* XPM */
static const char *left[]={
"32 32 3 1",
". c None",
"a c #000000",
"# c #ffffff",
"................................",
"................................",
"................................",
"............##..................",
"...........###..................",
"..........##a#..................",
".........##aa#..................",
"........##aaa#..................",
".......##aaaa###################",
"......##aaaaa###################",
".....##aaa.aaaaaaaaaaaaaaaaaaa##",
"....##aaa..aaaaaaaaaaaaaaaaaaa##",
"...##aaa....................aa##",
"..##aaa.....................aa##",
".##aaa......................aa##",
"##aaa.......................aa##",
"##aaa.......................aa##",
".##aaa......................aa##",
"..##aaa.....................aa##",
"...##aaa....................aa##",
"....##aaa..aaaaaaaaaaaaaaaaaaa##",
".....##aaa.aaaaaaaaaaaaaaaaaaa##",
"......##aaaaa###################",
".......##aaaa###################",
"........##aaa#..................",
".........##aa#..................",
"..........##a#..................",
"...........###..................",
"............##..................",
"................................",
"................................",
"................................"};
