/* XPM */
static const char *left[] = {
/* columns rows colors chars-per-pixel */
"32 32 231 2",
"   c #033D03",
".  c #014501",
"X  c #004D00",
"o  c #004E00",
"O  c #004F00",
"+  c #005200",
"@  c #025002",
"#  c #005500",
"$  c #005701",
"%  c #055005",
"&  c #075107",
"*  c #005C00",
"=  c #005F00",
"-  c #045B05",
";  c #055D05",
":  c #055E06",
">  c #0A540A",
",  c #0E5C0F",
"<  c #105810",
"1  c #006300",
"2  c #006700",
"3  c #006602",
"4  c #006801",
"5  c #006A00",
"6  c #006902",
"7  c #006C00",
"8  c #0B620C",
"9  c #0C650D",
"0  c #086908",
"q  c #0B6A0D",
"w  c #007100",
"e  c #017002",
"r  c #007500",
"t  c #007700",
"y  c #027403",
"u  c #007702",
"i  c #047707",
"p  c #007B00",
"a  c #007803",
"s  c #027B03",
"d  c #007F00",
"f  c #007904",
"g  c #057B05",
"h  c #077A07",
"j  c #037E05",
"k  c #097309",
"l  c #08740B",
"z  c #156815",
"x  c #136E15",
"c  c #1B611B",
"v  c #1C681C",
"b  c #127713",
"n  c #226B23",
"m  c #2B762B",
"M  c #2E702E",
"N  c #2F7F2F",
"B  c #356F35",
"V  c #337433",
"C  c #327A32",
"Z  c #337F33",
"A  c #377F37",
"S  c #3D7D3D",
"D  c #008200",
"F  c #008300",
"G  c #038103",
"H  c #008500",
"J  c #008304",
"K  c #048206",
"L  c #008505",
"P  c #018505",
"I  c #008604",
"U  c #058507",
"Y  c #008800",
"T  c #008A00",
"R  c #008D00",
"E  c #008E00",
"W  c #008F00",
"Q  c #07850B",
"!  c #068809",
"~  c #068B09",
"^  c #078C0A",
"/  c #0B880B",
"(  c #088F0C",
")  c #098F0D",
"_  c #009000",
"`  c #009400",
"'  c #009700",
"]  c #009800",
"[  c #009A00",
"{  c #009D00",
"}  c #009F00",
"|  c #019F01",
" . c #049008",
".. c #0A900A",
"X. c #0A900E",
"o. c #0C8710",
"O. c #148316",
"+. c #118614",
"@. c #0B9110",
"#. c #0C9111",
"$. c #139312",
"%. c #129413",
"&. c #109215",
"*. c #149415",
"=. c #179418",
"-. c #17961B",
";. c #1A9C1C",
":. c #1C9C1F",
">. c #00A100",
",. c #00A200",
"<. c #00A400",
"1. c #00A500",
"2. c #00A600",
"3. c #01A600",
"4. c #04A504",
"5. c #07A407",
"6. c #00AA00",
"7. c #00AB00",
"8. c #00AC00",
"9. c #00AE00",
"0. c #00AF00",
"q. c #0FA40F",
"w. c #0DAE0C",
"e. c #00B000",
"r. c #00B100",
"t. c #00B200",
"y. c #00B400",
"u. c #00B500",
"i. c #05B005",
"p. c #00BA00",
"a. c #00BB00",
"s. c #00BD00",
"d. c #06BA06",
"f. c #0BBB0B",
"g. c #1DA815",
"h. c #1FA41C",
"j. c #2D832D",
"k. c #2A892A",
"l. c #2A8E2A",
"z. c #2C962C",
"x. c #2F9A2F",
"c. c #2C9D2C",
"v. c #2D9D2D",
"b. c #368E36",
"n. c #3A853A",
"m. c #3D813D",
"M. c #388A38",
"N. c #319631",
"B. c #349234",
"V. c #3B9D3B",
"C. c #3D9A3D",
"Z. c #25A325",
"A. c #27AA27",
"S. c #28A228",
"D. c #2AA02A",
"F. c #29A429",
"G. c #28A728",
"H. c #32A332",
"J. c #34A334",
"K. c #37A237",
"L. c #36AB36",
"P. c #39A039",
"I. c #3FA43F",
"U. c #38B238",
"Y. c #41AD37",
"T. c #00C400",
"R. c #00C500",
"E. c #06C406",
"W. c #00C800",
"Q. c #07CE07",
"!. c #0AC70A",
"~. c #09D209",
"^. c #08D508",
"/. c #448344",
"(. c #478D47",
"). c #429442",
"_. c #459045",
"`. c #409840",
"'. c #4A9F4A",
"]. c #4F9A4F",
"[. c #4C9D4C",
"{. c #5E8F5E",
"}. c #559455",
"|. c #519851",
" X c #5D9F5D",
".X c #41A541",
"XX c #43A443",
"oX c #46A246",
"OX c #42AC42",
"+X c #48A148",
"@X c #4BA74B",
"#X c #4DA74D",
"$X c #4FA74F",
"%X c #4CAB4C",
"&X c #52A652",
"*X c #54A554",
"=X c #57A557",
"-X c #57AC57",
";X c #59A359",
":X c #5AA15A",
">X c #5FA25F",
",X c #58AB58",
"<X c #5AAB5A",
"1X c #5CAC5C",
"2X c #5EAC5E",
"3X c #689668",
"4X c #61AB61",
"5X c #63AB63",
"6X c #60AF60",
"7X c #64B064",
"8X c #66B166",
"9X c #69B269",
"0X c #6AB36A",
"qX c #6BB36B",
"wX c #6DB26D",
"eX c #7FAE7F",
"rX c #70B770",
"tX c #73B873",
"yX c #75B975",
"uX c #77B977",
"iX c #78BA78",
"pX c #7DBE7D",
"aX c #7FC07F",
"sX c #83B883",
"dX c #85BF85",
"fX c #82C082",
"gX c #83C183",
"hX c #89C789",
"jX c #8DC88D",
"kX c #99D299",
"lX c None",
/* pixels */
"lXlXlXlXlXlXlXlXlXlXlXlXlXlXlXlXlXlXlXlXlXlXlXlXlXlXlXlXlXlXlXlX",
"lXlXlXlXlXlXlXlXlXlXlXlXlXlXlXlXlXlXlXlXlXlXlXlXlXlXlXlXlXlXlXlX",
"lXlXlXlXlXlXlXlXlXlXlXlXlXlXlXlXlXlXlXlXlXlXlXlXlXlXlXlXlXlXlXlX",
"lXlXlXlXlXlXlXlXlXlXlXlXlXlXlXlXlXlXlXlXlXlXX 3XlXlXlXlXlXlXlXlX",
"lXlXlXlXlXlXlXlXlXlXlXlXlXlXlXlXlXlXlXlXlX> eX{.lXlXlXlXlXlXlXlX",
"lXlXlXlXlXlXlXlXlXlXlXlXlXlXlXlXlXlXlXX c sXkXX lXlXlXlXlXlXlXlX",
"lXlXlXlXlXlXlXlXlXlXlXlXlXlXlXlXlXlXX M dXhXjXX lXlXlXlXlXlXlXlX",
"lXlXlXlXlXlXlXlXlXlXlXlXlXlXlXlXlXX /.gXaXpXfXo lXlXlXlXlXlXlXlX",
"lXlXlXlXlXlXlXlXlXlXlXlXlXlXlXlX% }.iXyXtXrXuX# lXlXlXlXlXlXlXlX",
"lXlXlXlXlXlXlXlXlXlXlXlXlXlXX <  XwXqX9X8X7X0X* lXlXlXlXlXlXlXlX",
"lXlXlXlXlXlXlXlXlXlXlXlXlXO v >X5X4X2X1X<X,X6X1 lXlXlXlXlXlXlXlX",
"lXlXlXlXlXlXlXlXlXlXlXlX# m :X;X=X*X&X$X#X@X-X5 lXlXlXlXlXlXlXlX",
"lXlXlXlXlXlXlXlXlXlXlX- A |.].[.'.+XoXXX.XI.%Xe lXlXlXlXlXlXlXlX",
"lXlXlXlXlXlXlXlXlX$ 8 m.(._.).`.C.V.P.K.J.H.OXy lXlXlXlXlXlXlXlX",
"lXlXlXlXlXlXlXlX: z S m.n.M.b.B.N.x.v.D.S.Z.L.s lXlXlXlXlXlXlXlX",
"lXlXlXlXlXlXlXZ n B V C N j.k.l.z.c.D.F.G.A.U.j lXlXlXlXlXlXlXlX",
"lXlXlXlXlXlXlXx ,   . @ ; 0 k h G Y _ ' { >.4.K lXlXlXlXlXlXlXlX",
"lXlXlXlXlXlXlXlX3 q & + * 2 w p H E ' } 2.7.i.U lXlXlXlXlXlXlXlX",
"lXlXlXlXlXlXlXlXlX4 l 9 = 5 r d T ` { 2.9.y.d.! lXlXlXlXlXlXlXlX",
"lXlXlXlXlXlXlXlXlXlX6 i b 7 t D R ] ,.8.u.s.E.~ lXlXlXlXlXlXlXlX",
"lXlXlXlXlXlXlXlXlXlXlXlXa O.g F W [ 1.e.a.T.Q.^ lXlXlXlXlXlXlXlX",
"lXlXlXlXlXlXlXlXlXlXlXlXlXf +./ W [ 2.r.s.W.^.( lXlXlXlXlXlXlXlX",
"lXlXlXlXlXlXlXlXlXlXlXlXlXlXa o.%.] <.0.p.R.~.) lXlXlXlXlXlXlXlX",
"lXlXlXlXlXlXlXlXlXlXlXlXlXlXlXu Q ;.| 6.y.s.!.X.lXlXlXlXlXlXlXlX",
"lXlXlXlXlXlXlXlXlXlXlXlXlXlXlXlXlXP :.5.7.t.f.@.lXlXlXlXlXlXlXlX",
"lXlXlXlXlXlXlXlXlXlXlXlXlXlXlXlXlXlXL -.q.3.w.#.lXlXlXlXlXlXlXlX",
"lXlXlXlXlXlXlXlXlXlXlXlXlXlXlXlXlXlXlXI &.h.g.*.lXlXlXlXlXlXlXlX",
"lXlXlXlXlXlXlXlXlXlXlXlXlXlXlXlXlXlXlXlXJ $.Y.=.lXlXlXlXlXlXlXlX",
"lXlXlXlXlXlXlXlXlXlXlXlXlXlXlXlXlXlXlXlXlXlX.. .lXlXlXlXlXlXlXlX",
"lXlXlXlXlXlXlXlXlXlXlXlXlXlXlXlXlXlXlXlXlXlXlXlXlXlXlXlXlXlXlXlX",
"lXlXlXlXlXlXlXlXlXlXlXlXlXlXlXlXlXlXlXlXlXlXlXlXlXlXlXlXlXlXlXlX",
"lXlXlXlXlXlXlXlXlXlXlXlXlXlXlXlXlXlXlXlXlXlXlXlXlXlXlXlXlXlXlXlX"
};
