/* XPM */
static const char *light[]={
"16 16 3 1",
". c None",
"a c #7f007f",
"# c #ff00ff",
".....######.....",
"....########....",
"..############..",
"..############..",
".##############.",
"################",
"######aaaa######",
"######aaaa######",
"######aaaa######",
"######aaaa######",
"################",
".##############.",
"..############..",
"..############..",
"....########....",
".....######....."};
