/* XPM */
static const char *light1[]={
"16 16 3 1",
". c None",
"a c #000000",
"# c #ff00ff",
"................",
"................",
".........####...",
"........######..",
"........######..",
".......#######..",
".......######...",
"......######....",
"......####......",
".....####.......",
"....####........",
"....##..........",
"................",
".aaa............",
".aaa............",
".aaa............"};
