/* XPM */
static const char *litevessel[]={
"16 16 4 1",
". c None",
"# c #000000",
"b c #ff00ff",
"a c #ffffff",
".......#........",
".....#####......",
"......###.......",
".....#.#.#......",
".......#........",
".......#........",
"###############.",
"#aaaaaaaaaaaaa#.",
".#aaaa###aaaa#..",
"..####aaa####...",
".....#aaa#......",
"......###bbb....",
".........bbbb...",
"..........bbbb..",
"..........bbbb..",
"...........bbb.."};
