/* XPM */
static const char *mob[]={
"32 32 475 2",
"Qt c None",
"fs c #0b0b0b",
"ff c #0c0c0c",
"fr c #222222",
"fg c #232323",
"ao c #313131",
"a. c #323232",
"#Q c #333333",
"bw c #333d44",
"#S c #3d332b",
"d8 c #3f7fce",
"d7 c #4181cf",
"ch c #434e64",
"d9 c #4483d0",
"ex c #474747",
"#9 c #49372c",
"d6 c #4b87d2",
"cj c #4e89d3",
"aV c #51372a",
"fh c #524f4e",
"cM c #533a2e",
"b9 c #5483c5",
"by c #563e3c",
"dN c #566996",
"eP c #58382a",
"fy c #595959",
"bz c #5990d7",
"dr c #5a5a59",
"bR c #5b84c0",
"#P c #5f3d2f",
"#T c #603c2e",
"fq c #615c5a",
"aq c #615f5e",
"dG c #633b2b",
"e4 c #663d2a",
"e5 c #6c3a26",
"ft c #6e6e6e",
"bj c #704a36",
"bk c #714333",
"ci c #724b46",
"cg c #76a6e3",
"b4 c #799fd5",
"fe c #7b4128",
"eo c #7caae5",
"b5 c #7d3f02",
"dP c #7d400a",
"dV c #7d462b",
"ey c #7d4e39",
"b8 c #7e3e02",
"dX c #7e4a34",
"bL c #7ea0d0",
"en c #7eabe6",
"c1 c #7f492d",
"aX c #7f685d",
"b6 c #804000",
"fu c #808080",
"bv c #80ace6",
"ep c #80ade7",
"aa c #813f00",
"de c #824328",
"ct c #834432",
"#R c #834832",
"cr c #834a32",
"ef c #878786",
"#z c #879bbe",
"em c #87b2e9",
"aH c #888888",
"c. c #88b2ea",
"#y c #899cbf",
"#A c #89aad9",
"eO c #8b4528",
"c2 c #8b8b8b",
"bS c #8bb4eb",
"fi c #8c553d",
".X c #8f8581",
"#x c #8faedb",
"eg c #915238",
"dQ c #915349",
"dM c #915448",
"dB c #938d8b",
"bl c #948290",
"cU c #948883",
"b. c #954314",
"ee c #954b29",
"e. c #956f71",
"fx c #959595",
"bA c #95bbef",
"dW c #969796",
"bG c #97a5c0",
"dS c #98877f",
"ea c #98887e",
"aG c #999999",
"es c #9b8d80",
"cA c #9b9b9b",
"d5 c #9c7672",
"cd c #9d9d9d",
".l c #9db0cd",
"dq c #9e502b",
"bc c #9e9e9e",
"cT c #9f451c",
"a9 c #9f4b10",
"a4 c #9f6e5a",
"dd c #9f9f9f",
".g c #a0a0a0",
".i c #a26c51",
".j c #a38174",
"aB c #a39992",
".H c #a39d9a",
".f c #a3a3a3",
"an c #a44f1a",
"cB c #a45028",
"bb c #a45432",
".h c #a4887c",
"fv c #a4aeba",
"aI c #a54a15",
"bP c #a54e17",
"cL c #a56a4c",
"cX c #a59485",
"#b c #a59993",
"aO c #a64623",
"ew c #a64e27",
".s c #a6a19a",
"br c #a6a6a6",
".k c #a6acba",
".m c #a6b9d5",
"ar c #a75122",
"cW c #a7836b",
".a c #a7a7a7",
"cu c #a86a5a",
"a3 c #a8938b",
"eK c #a89d93",
".b c #a8a8a8",
"dF c #a8a9a8",
".# c #a9a9a9",
"aF c #aa5013",
"ag c #ab431a",
"aN c #ababab",
"c9 c #ac7d69",
"cY c #aca197",
"fp c #aca39f",
".G c #acaba9",
".d c #acacac",
"aj c #ad9f93",
".e c #adadad",
"ay c #ae451c",
"bd c #aea8a6",
"cV c #af7459",
".r c #afafaf",
"cc c #afb4b9",
"#U c #b05122",
"#O c #b05322",
"cz c #b0a59f",
"#q c #b1a7a0",
"bZ c #b1b2c3",
"b3 c #b1cff9",
"ab c #b2521e",
"aC c #b29d8a",
"bs c #b2abad",
"#n c #b34317",
"#G c #b3461a",
"c8 c #b34d1a",
"bi c #b39b97",
"a5 c #b3a096",
"cK c #b3a49b",
"fw c #b3bdc9",
"#8 c #b4551d",
".q c #b4765e",
"bK c #b4d1fa",
"dz c #b54319",
"cG c #b54518",
"e0 c #b5aaa1",
"fo c #b68976",
"d. c #b68c73",
"fc c #b69a8e",
"#J c #b6aba2",
"aQ c #b6aca5",
"## c #b74618",
"cl c #b7755b",
".F c #b96c4d",
"az c #ba4618",
"dR c #ba5c37",
"ak c #baa492",
"eG c #bad5fd",
".W c #bb4618",
"#4 c #bbaca1",
"bX c #bbc7d6",
"#1 c #bc4617",
".p c #bc5429",
"bM c #bc5933",
"bQ c #bc5b31",
"fj c #bc775a",
".o c #bc887b",
"eq c #bc8f79",
"fm c #bcaeb3",
"eF c #bcd6fd",
"eQ c #bd4e1e",
"b7 c #bd5826",
"bW c #bdc1d0",
"#j c #bdd7fe",
"aY c #be500e",
"cF c #be5214",
"eH c #bed8fe",
"e6 c #bf4f1d",
"cZ c #bf9c7f",
"bm c #bfa49b",
".c c #bfcad7",
"#i c #bfd9ff",
".t c #c04615",
"dn c #c04616",
"dC c #c14716",
"#B c #c17a5c",
"c# c #c1daff",
".V c #c24513",
"dk c #c25013",
"aP c #c25f39",
"d# c #c2895c",
"bY c #c2cddb",
"#h c #c2daff",
".I c #c34715",
"ds c #c35320",
"#V c #c35825",
"cq c #c3825b",
"ce c #c3b0b0",
"fl c #c3b2b4",
"bT c #c3dbff",
"#N c #c45924",
"el c #c4957a",
".n c #c4c5cf",
"aU c #c55a0a",
"aM c #c56333",
"#w c #c57d5d",
".u c #c64715",
".U c #c65424",
"bq c #c69885",
"bB c #c6ddff",
".E c #c74a16",
"dL c #c74d13",
"fd c #c7531d",
"e3 c #c75520",
"c3 c #c75621",
"dO c #c75e3b",
"cJ c #c7b29e",
"af c #c85924",
"cb c #c8c5ca",
"bF c #c8d5e5",
"fb c #c97e5b",
"c7 c #ca5411",
"ck c #cabbb5",
"cv c #cb875e",
"aR c #cb9e7a",
"dy c #cc5111",
"#H c #cd4814",
"ac c #cd5b15",
"aW c #ce5f32",
"dA c #ce5f33",
"#5 c #cea27b",
"#o c #cf4913",
"#a c #cf4a14",
"ap c #cf5f31",
"a# c #cf5f32",
"bx c #cf5f33",
"bN c #cf6032",
".v c #d04b15",
"dm c #d05e31",
"bO c #d05f32",
"cs c #d05f33",
"fn c #d0aa9b",
"dE c #d16129",
"ah c #d24d16",
"e7 c #d25118",
"as c #d25b0f",
".J c #d35018",
"dc c #d3662d",
"b2 c #d3e5ff",
"#7 c #d46213",
"e# c #d46828",
"bJ c #d4e5ff",
"dl c #d54015",
"ez c #d5571e",
"eR c #d7551b",
"eX c #d7e7ff",
"e8 c #d8581e",
"dH c #d85b21",
"eN c #d85b22",
"bu c #d8e7ff",
".6 c #d8e8ff",
"do c #d9540e",
"aA c #d96831",
"fk c #d9ac9b",
".5 c #d9e8ff",
"eh c #da5a1f",
"cN c #da5b20",
"e2 c #da5c22",
"bh c #dabdab",
".7 c #dae9ff",
".w c #db5a1f",
"dY c #db5d22",
"#W c #db6113",
"eW c #dbe9ff",
"#. c #dc5f23",
"#C c #dc6419",
"be c #dcb8a9",
".4 c #dceaff",
"cH c #dd590d",
"#2 c #dd5e22",
"am c #dd660c",
"bU c #ddebff",
"dK c #de590c",
".Y c #de6023",
"ev c #de6429",
"bE c #dec8c0",
"cC c #df6124",
"df c #df6224",
"dU c #df682b",
"a6 c #df8d57",
"#k c #dfab80",
"bn c #dfc1ab",
"#v c #e06818",
"#I c #e0905c",
"eI c #e0b088",
"bC c #e0edff",
"aJ c #e16109",
".K c #e26527",
"#M c #e26910",
"ed c #e26c2f",
"c0 c #e2793b",
"eE c #e2bb9a",
"b# c #e35f0a",
"cS c #e3600b",
".D c #e36628",
"#0 c #e3692a",
"#g c #e3b186",
"eA c #e46e30",
"#m c #e5692a",
"eS c #e57336",
"cp c #e59f5f",
"d4 c #e66209",
"dx c #e66309",
"er c #e6751b",
".x c #e6ab90",
"cy c #e6bc9d",
"da c #e7801f",
"dj c #e86508",
"#p c #e86d2d",
"cw c #e9a160",
"dt c #ea702f",
"c4 c #ea7030",
"e1 c #ea8548",
"cm c #ea9e78",
"bg c #ead9cf",
"aZ c #eb6807",
"a2 c #eb7634",
".C c #ebb094",
"ai c #ec7838",
"eM c #ec8649",
"fa c #ecb69b",
"ax c #ed7837",
".L c #ed7937",
"dp c #ed8141",
"e9 c #edb397",
"eY c #edd2bd",
"b1 c #edf4ff",
"c6 c #ee6b06",
"eb c #ee6c06",
".Z c #ee7b39",
"dI c #ee803e",
".8 c #eed0b6",
"d3 c #ef6c06",
"eV c #efd5bf",
"bo c #efddcf",
".y c #eff3f9",
"bI c #eff5ff",
"cE c #f06e05",
"#D c #f07008",
"aE c #f07204",
"cO c #f08443",
"dZ c #f08847",
"co c #f0caa9",
".3 c #f0d4bc",
"ad c #f16f05",
"ba c #f18847",
"#3 c #f18a49",
".B c #f1f5fa",
"f# c #f1f7ff",
"at c #f26f05",
".M c #f28c4b",
"dg c #f28d4c",
"cI c #f2953a",
".z c #f2f6fa",
".Q c #f2f7ff",
"cx c #f3cca9",
".A c #f3f6fb",
".P c #f3f8ff",
"#Z c #f49352",
"#F c #f49453",
".0 c #f49656",
"eT c #f49b5c",
"eZ c #f4bb83",
"bt c #f4f7fb",
".R c #f4f8ff",
"f. c #f4f9ff",
"#X c #f57303",
"aK c #f57403",
"eJ c #f5983e",
"cn c #f5c09b",
".T c #f69b5b",
"eB c #f69e5f",
"dD c #f69f5f",
"bf c #f6d5c0",
".O c #f6f9ff",
"ca c #f6faff",
"cR c #f77503",
"bH c #f7fafc",
"bV c #f7faff",
"di c #f87602",
"#u c #f87805",
"du c #f8a363",
"c5 c #f8a666",
"eu c #f8a869",
".S c #f8d0b3",
"cf c #f8fafc",
"d2 c #f97702",
"aw c #f9aa6b",
".N c #f9cbad",
"b0 c #f9fbfd",
"a1 c #faab6c",
"#c c #faac6c",
"dT c #faad6f",
"db c #fab26c",
"bp c #fad7bf",
"bD c #fafcff",
"ei c #fbaf6f",
".1 c #fbaf70",
"ec c #fbb273",
"#E c #fc7a01",
"d0 c #fcb474",
"eU c #fcb677",
"aT c #fd7c00",
"aD c #fd9c3f",
"eL c #fdb572",
"ae c #fdb879",
"#r c #fdb97a",
"cP c #fdba7b",
"et c #fe830d",
"al c #fe8715",
"aS c #feb46a",
"a7 c #febd7f",
"#Y c #febe7f",
"#6 c #ff7f02",
"#l c #ff840d",
"#L c #ff8610",
"au c #ff8815",
"dJ c #ff8e20",
"cD c #ff9228",
"dw c #ff952e",
"d1 c #ff9630",
"#t c #ff9c3b",
"#f c #ff9e40",
"a8 c #ffa34a",
"dh c #ffa650",
"cQ c #ffa853",
"ek c #ffa955",
"eD c #ffab59",
"#K c #ffb266",
"#e c #ffb267",
"a0 c #ffb56c",
"#s c #ffb872",
"av c #ffb873",
"eC c #ffb975",
".9 c #ffba78",
"dv c #ffbb79",
"ej c #ffbc7b",
"#d c #ffbd7d",
"aL c #ffbd7e",
".2 c #ffbe7f",
"QtQtQtQtQtQtQtQtQtQtQtQt.#.a.b.c.c.d.e.d.eQtQtQtQtQtQtQtQtQtQtQt",
"QtQtQtQtQtQtQtQtQt.f.g.h.i.j.k.l.m.n.o.p.q.b.rQtQtQtQtQtQtQtQtQt",
"QtQtQtQtQtQtQtQt.s.t.u.v.w.x.y.z.A.B.C.D.w.E.F.GQtQtQtQtQtQtQtQt",
"QtQtQtQtQtQtQt.H.I.J.K.L.M.N.O.P.Q.R.S.T.M.L.K.U.VQtQtQtQtQtQtQt",
"QtQtQtQtQtQt.W.X.Y.Z.0.1.2.3.4.5.6.7.8.9.2.1.0.Z#..WQtQtQtQtQtQt",
"QtQtQtQtQt###a#b.M#c#d#e#f#g#h#i#j#i#k#l#f#e#d#c.M#m##QtQtQtQtQt",
"QtQtQtQt#n#o#p#q#r#s#t#u#v#w#x#y#z#A#B#C#D#E#t#s#r#F#p#nQtQtQtQt",
"QtQtQt#G#H#m#I#J#K#L#M#N#O#P#Q#R#S#Q#T#U#V#W#X#L#K#Y#Z#0#GQtQtQt",
"QtQtQt#1#2#3#4#5#6#7#8#9a.a.a.a#aaQta.a.#9abacad#6#Kae#3afQtQtQt",
"QtQtagahaiajakalamanaoa.QtQtQtapaaQtQtQta.aqarasatauavawaxayQtQt",
"QtQtazaAaBaCaDaEaFaoa.QtQtQtQta#aaQtQtQtQtaGaHaIaJaK#faL#FaMaNQt",
"QtaOaPaQaRaSaTaUaVa.QtQtQtQtQtaWaaQtQtQtQtQt.faXaYaZaTa0a1a2a3.d",
"Qta4a5a6a7a8#Xa9a.QtQtQtQtQtQta#aaQtQtQtQtQtQta.b.b##Xa8.2babb.d",
"bcbdbebfbgbhbibjQtQtQtQtQtQtQta#aaQtQtQtQtQtQtQtbkblbmbnbobpbq.d",
"brbsbt.Qbu#jbvbwQtQtQtQtQtQtQtbxaaQtQtQtQtQtQtQtbybzbAbBbCbDbEaN",
"bFbGbHbIbJbKbLbMbNbNbNbNbNbNbNbObPbNbNbNbNbNbNbNbQbRbSbTbUbVbWbX",
"bYbZb0b1b2b3b4b5b6b6b6b6b6b6b6b7b6b6b6b6b6b6b6b6b8b9c.c#.4cacbcc",
"cdcecfbIbJbKcgchQtQtQtQtQtQtQtapb6QtQtQtQtQtQtQtcicjbSbTbUbVck.a",
".gclcmcncocpcqcrQtQtQtQtQtQtQtcsb6QtQtQtQtQtQtQtctcucvcwcxcyczcA",
".gcBcC#Z#dcDcEcFQtQtQtQtQtQtQtaWb6QtQtQtQtQtQtQtcGcHcEcIcJcKcLQt",
"QtcMcNcOcPcQcRcScTQtQtQtQtQtQta#b6QtQtQtQtQtQtcUcVcWcXcYcZc0c1Qt",
"Qtc2c3c4c5av#6c6c7c8QtQtQtQtQta#b6QtQtQtQtQtQtc9d.d#dadbc5dca.Qt",
"Qtdddedfdg.2dhdidjdkdlQtQtQtQtdmb6QtQtQtQtQtdndodjdidh.2dpdqQtQt",
"QtQtdrdsdtdudvdw#XdxdydzQtQtQtdAb6QtQtQtdBdCdodx#XdwdvdDdEa.QtQt",
"QtQtdFdGdHdI.1#sdJ#XdjdKdLdMdNdOdPdNdQdRdSdKdj#XdJ#sdTdUdVQtQtQt",
"QtQtQtdWdXdYdZd0avd1d2d3d4d5d6d7d8d9e.e#eaebd2d1avecedeea.QtQtQt",
"QtQtQtQtefegehdpeiejek#ldielemeneoepeqeresetekejeuevewa.QtQtQtQt",
"QtQtQtQtQtexeyezeAeB#YeCeDeEc#eFeGeHeIeJeKeLa7eMeNeOa.QtQtQtQtQt",
"QtQtQtQtQtQta.ePeQeReSeTeUeVeWbueX.6eYeZe0e1e2e3e4a.QtQtQtQtQtQt",
"QtQtQtQtQtQtQta.aoe5e6e7e8e9f..Qf#.Qfafbfcfdfeaoa.QtQtQtQtQtQtQt",
"QtQtQtQtQtQtQtQtQtfffgfhfifjfkflfmfnfofpfqfrfsQtQtQtQtQtQtQtQtQt",
"QtQtQtQtQtQtQtQtQtQtQtfhfhftfufvfwddfxfyfhQtQtQtQtQtQtQtQtQtQtQt"};
