/* XPM */
static const char *mob[] = {
/* columns rows colors chars-per-pixel */
"32 32 256 2",
"   c gray20",
".  c #49372C",
"X  c #51372A",
"o  c #5C3B2D",
"O  c #633C2C",
"+  c #6C3A26",
"@  c #7C442A",
"#  c #704A36",
"$  c #7D4E39",
"%  c #784734",
"&  c #585452",
"*  c #615F5E",
"=  c #7F685D",
"-  c #696562",
";  c #804000",
":  c #9F4B10",
">  c #954314",
",  c #BE500E",
"<  c #A54C16",
"1  c #A44F1A",
"2  c #BC4617",
"3  c #B64618",
"4  c #BA4618",
"5  c #BE4F1E",
"6  c #AA5013",
"7  c #B3541E",
"8  c #BE5214",
"9  c #824328",
"0  c #8B4528",
"q  c #954B29",
"w  c #9E502B",
"e  c #834932",
"r  c #834432",
"t  c #8C553D",
"y  c #915238",
"u  c #A64E27",
"i  c #A75122",
"p  c #A45028",
"a  c #B05222",
"s  c #BD5826",
"d  c #BC5429",
"f  c #A45432",
"g  c #BA5C37",
"h  c #C55A0A",
"j  c #D9540E",
"k  c #DE590C",
"l  c #D25B0F",
"z  c #C24716",
"x  c #C74C15",
"c  c #CE4914",
"v  c #D14C16",
"b  c #C25013",
"n  c #CB5311",
"m  c #C7531D",
"M  c #CD5B15",
"N  c #D4531A",
"B  c #DA5A1F",
"V  c #E35F0A",
"C  c #DD660C",
"Z  c #D96215",
"A  c #ED6B06",
"S  c #E46209",
"D  c #E86508",
"F  c #F16F05",
"G  c #F57303",
"H  c #F87602",
"J  c #FD7C02",
"K  c #F07008",
"L  c #E26910",
"P  c #E06818",
"I  c #E6751B",
"U  c #C65421",
"Y  c #C35824",
"T  c #C85924",
"R  c #DA5C22",
"E  c #CF5F32",
"W  c #C25F39",
"Q  c #D05F32",
"!  c #DF6124",
"~  c #D2642B",
"^  c #DE6429",
"/  c #D46828",
"(  c #DF682B",
")  c #CF6032",
"_  c #C56333",
"`  c #D96831",
"'  c #E26527",
"]  c #E36628",
"[  c #E46A2B",
"{  c #E86D2D",
"}  c #EA702F",
"|  c #E46E30",
" . c #EA7332",
".. c #ED7937",
"X. c #ED7A39",
"o. c #E37638",
"O. c #9F6E5A",
"+. c #A56A4C",
"@. c #B96C4D",
"#. c #A86A5A",
"$. c #A26C51",
"%. c #AF7459",
"&. c #B7755B",
"*. c #BD7659",
"=. c #956F71",
"-. c #9C7672",
";. c #AC7D69",
":. c #C37C5C",
">. c #C97E5B",
",. c #FF840D",
"<. c #E7801F",
"1. c #FF8612",
"2. c #FF8815",
"3. c #FF8E20",
"4. c #FF942C",
"5. c #EE803E",
"6. c #FF9630",
"7. c #F5983E",
"8. c #FE9C3C",
"9. c #F2953A",
"0. c #98877F",
"q. c #98887E",
"w. c #A7836B",
"e. c #A4887C",
"r. c #A38174",
"t. c #B78A78",
"y. c #BC8B7A",
"u. c #B68C73",
"i. c #BF9C7F",
"p. c #CB875E",
"a. c #C2855C",
"s. c #DF8D57",
"d. c #ED8141",
"f. c #EB8648",
"g. c #F08847",
"h. c #F28C4B",
"j. c #F08443",
"k. c #FF9E40",
"l. c #E0905C",
"z. c #E59F5F",
"x. c #F49454",
"c. c #F69D5D",
"v. c #FFA34A",
"b. c #FFA650",
"n. c #FFA954",
"m. c #FFAB59",
"M. c #C79A7A",
"N. c #EA9E78",
"B. c #CEA27B",
"V. c #E9A160",
"C. c #F8A565",
"Z. c #FAAC6C",
"A. c #FFB266",
"S. c #FDB46B",
"D. c #FBAF70",
"F. c #FCB474",
"G. c #FFB873",
"H. c #FEBC7D",
"J. c #3F7FCE",
"K. c #4181CF",
"L. c #5883C2",
"P. c #4B87D2",
"I. c #4986D1",
"U. c #5990D7",
"Y. c #799FD5",
"T. c #7EA0D0",
"R. c #76A6E3",
"E. c #7DAAE6",
"W. c #858585",
"Q. c #8F8581",
"!. c #8A8A8A",
"~. c #948883",
"^. c #9B8D80",
"/. c #938D8B",
"(. c #948290",
"). c #959695",
"_. c #9D9D9D",
"`. c #A79388",
"'. c #B49C8C",
"]. c #A49992",
"[. c #AB9E93",
"{. c #A39D9A",
"}. c #B39B97",
"|. c #ACA197",
" X c #B3A096",
".X c #B1A59D",
"XX c #BFA49B",
"oX c #BAA492",
"OX c #879BBE",
"+X c #899CBF",
"@X c #A3A3A3",
"#X c #ACA3A0",
"$X c #AEA8A6",
"%X c #ABABAB",
"&X c #B1A7A0",
"*X c #B6ABA3",
"=X c #B6ACA7",
"-X c #A6ACBA",
";X c #BDAEB3",
":X c #ACB4BC",
">X c #C69885",
",X c #DFAB80",
"<X c #D5AC9C",
"1X c #C7B29E",
"2X c #E3B186",
"3X c #E0B088",
"4X c #F4BB83",
"5X c #E6AB90",
"6X c #ECB196",
"7X c #E4BC9C",
"8X c #ECB69B",
"9X c #DBBBAA",
"0X c #C3B1B2",
"qX c #CABBB5",
"wX c #F5C09B",
"eX c #DFC1AB",
"rX c #F1CBA9",
"tX c #F9CBAD",
"yX c #EED0B6",
"uX c #EED4BE",
"iX c #F8D0B3",
"pX c #FAD7BF",
"aX c #F0D4BC",
"sX c #97A5C0",
"dX c #9DB0CD",
"fX c #8CACDA",
"gX c #B1B2C3",
"hX c #A6B9D5",
"jX c #80ADE7",
"kX c #87B2E9",
"lX c #8AB3EB",
"zX c #95BBEF",
"xX c #B7C1CD",
"cX c #BCC4D3",
"vX c #BFCAD7",
"bX c #B1CFF9",
"nX c #B4D1FA",
"mX c #BCD6FE",
"MX c #BFD9FF",
"NX c #C4C5CF",
"BX c #C8C5CA",
"VX c #DEC8C0",
"CX c #C2CDDB",
"ZX c #EDDBCF",
"AX c #F6D5C0",
"SX c #C8D5E5",
"DX c #C3DBFF",
"FX c #D5E6FF",
"GX c #D8E7FF",
"HX c #DBE9FF",
"JX c #E0EDFF",
"KX c #EFF4FE",
"LX c #F2F7FD",
"PX c #F6F9FF",
"IX c #F9FBFD",
"UX c None",
/* pixels */
"UXUXUXUXUXUXUXUX@X%X%X%X%X$X%XvXvX%X%X%X%X%XUXUXUXUXUXUXUXUXUXUX",
"UXUXUXUXUXUXUX@X%XUXUXe.$.r.-XdXhXNXy.d UXUX%XUXUXUXUXUXUXUXUXUX",
"UXUXUXUXUXUXUX%XUXUXz v B 5XKXLXLXLX6X] B x @.%XUXUXUXUXUXUXUXUX",
"UXUXUXUXUXUXUX{.z N ' ..h.tXPXLXLXPXiXc.h...' U UXUXUXUXUXUXUXUX",
"UXUXUXUXUXUXUXQ.! X.x.D.H.aXHXGXGXHXyXH.H.D.x.X.R UXUXUXUXUXUXUX",
"UXUXUXUXUX3 c ].h.Z.H.A.k.2XDXMXmXMX,X,.k.A.H.Z.h.[ 3 UXUXUXUXUX",
"UXUXUXUXUXc { &XH.G.8.H P :.fX+XOXfX:.Z K J 8.G.H.x.{ UXUXUXUXUX",
"UXUXUXUXc [ l.*XA.1.L Y a o   e UX  O a Y Z G 1.A.H.x.[ UXUXUXUX",
"UXUXUX2 R h.*XB.J Z 7 . UXUXUXE UXUXUXUX. 7 M F J A.H.h.T UXUXUX",
"UXUXUXv ..[.oX2.C 1 UXUXUXUXUXE UXUXUXUXUX* i l F 2.G.Z...UXUXUX",
"UXUX4 ` ].'.8.K 6 UXUXUXUXUXUXE UXUXUXUXUXUX!.< S G k.H.x._ %XUX",
"UXUXW =XM.S.J h X UXUXUXUXUXUXE UXUXUXUXUXUX@X= , A J S.Z. .`.%X",
"UXO. Xs.H.v.G : UXUXUXUXUXUXUXE UXUXUXUXUXUXUXUX> V G v.H.g.f %X",
"UX$X9XAXZX9X}.# UXUXUXUXUXUXUXE UXUXUXUXUXUXUXUX% (.XXeXZXpX>X%X",
"@X%XLXLXGXmXjXUXUXUXUXUXUXUXUXE UXUXUXUXUXUXUXUXUXU.zXDXJXIXVX%X",
"SXsXIXKXFXnXT.UX) ) ) ) ) ) ) Q < ) ) ) ) ) ) ) UXL.lXDXHXPXcXcX",
"CXgXIXKXFXbXY.UX; ; ; ; ; ; ; s ; ; ; ; ; ; ; ; UXL.kXDXHXPXBX:X",
"UX0XIXKXFXnXR.UXUXUXUXUXUXUXUXE UXUXUXUXUXUXUXUXUXP.lXDXHXPXqX$X",
"@X&.N.wXrXz.a.e UXUXUXUXUXUXUXQ UXUXUXUXUXUXUXUXr #.p.V.rX7X.XUX",
"@Xp ! x.H.4.F 8 UXUXUXUXUXUXUXE UXUXUXUXUXUXUXUX3 k F 9.1X.X+.UX",
"@XUXR j.H.n.H S UXUXUXUXUXUXUXE UXUXUXUXUX_._.~.%.w.`.|.i.o.UXUX",
"@XUXU  .C.G.J A n UXUXUXUXUXUXE UXUXUXUX@X!.UX;.u.a.<.S.C.~ UXUX",
"@X_.9 ! h.H.b.H D b UXUXUXUXUXQ UXUXUXUX).UXz j D H b.H.d.w UXUX",
"UX@XUXU } C.H.4.G S n UXUXUXUXE UXUXUXUX/.z j S G 4.H.c.~ UXUXUX",
"UX@X%XUXR 5.D.G.3.G D k x UXUXUXUXUXUXg 0.k D G 3.G.Z.( @ UXUXUX",
"UXUX%X).$ R g.F.G.6.H A S -.P.K.J.K.=./ q.A H 6.G.F.[ q UXUXUXUX",
"UXUXUXUXW.y B d.Z.H.n.,.H M.kXE.E.jXy.I ^.,.n.H.C.^ u UXUXUXUXUX",
"UXUXUXUXUXUX$ N | c.H.G.m.7XDXmXmXMX3X7.[.F.H.f.R 0 UXUXUXUXUXUX",
"UXUXUXUXUXUXUXo 5 N o.c.F.uXHXGXGXGXuX4X*Xf.R U O UXUXUXUXUXUXUX",
"UXUXUXUXUXUXUXUXUX+ 5 N B 6XPXLXLXLX8X>.'.m @ UXUXUXUXUXUXUXUXUX",
"UXUXUXUXUXUXUXUXUXUXUX& t *.<X0X;X<Xt.#X- UXUXUXUXUXUXUXUXUXUXUX",
"UXUXUXUXUXUXUXUXUXUXUXUXUXW.!.:XxX%X@XUXUXUXUXUXUXUXUXUXUXUXUXUX"
};
