/* XPM */
static const char *mooring[]={
"16 16 4 1",
". c None",
"# c #000000",
"b c #7f007f",
"a c #ffffff",
"................",
"................",
".##############.",
"..############..",
"..############..",
"...##########...",
"......#a#.......",
"......###.......",
".......bb.......",
"........bbb.....",
"........bbbb....",
"........bbbb....",
".........bbb....",
"................",
"................",
"................"};
