/* XPM */
static const char *oilbouy[]={
"16 16 4 1",
". c None",
"# c #000000",
"b c #ff00ff",
"a c #ffffff",
"................",
"................",
"......####......",
"......#aa#......",
"...##########...",
"..#aaaaaaaaaa#..",
".#aaaaaaaaaaaa#.",
"################",
"......#aa#......",
"......####......",
".......b........",
"........bb......",
"........bbbb....",
".........bbbb...",
".........bbbb...",
"..........bbb..."};
