/* XPM */
static const char *opencpn[] = {
/* columns rows colors chars-per-pixel */
"32 32 161 2",
"   c #010101",
".  c #0B0B0B",
"X  c #111111",
"o  c gray12",
"O  c #2F2F2F",
"+  c #3A3A3A",
"@  c #6C643B",
"#  c #454545",
"$  c #4B4B4B",
"%  c #515151",
"&  c #5D5D5D",
"*  c #7C7447",
"=  c #7B764A",
"-  c #626561",
";  c #7C786A",
":  c gray46",
">  c #7C7C7C",
",  c #8D7D45",
"<  c #837B4B",
"1  c #887E4D",
"2  c #8B814E",
"3  c #918147",
"4  c #97874B",
"5  c #9D8C4D",
"6  c #818057",
"7  c #8E8550",
"8  c #998D53",
"9  c #9F9052",
"0  c #A1904F",
"q  c #A49352",
"w  c #A99754",
"e  c #AD9A55",
"r  c #A4965B",
"t  c #A69A5D",
"y  c #AD9C59",
"u  c #B19E57",
"i  c #B29F58",
"p  c #AFA05B",
"a  c #B5A25A",
"s  c #B9A55C",
"d  c #BDA95D",
"f  c #84827B",
"g  c #9C957A",
"h  c #A69E62",
"j  c #A38A71",
"k  c #A89F7F",
"l  c #A6A067",
"z  c #ADA262",
"x  c #ACA66B",
"c  c #AEA86C",
"v  c #B4A769",
"b  c #B1AA6C",
"n  c #A9A775",
"m  c #ABA872",
"M  c #AEAB7E",
"N  c #B2AE72",
"B  c #B0AE7E",
"V  c #B3B175",
"C  c #B5B47C",
"Z  c #C0AC5F",
"A  c #C3AE60",
"S  c #C6B162",
"D  c #CAB564",
"F  c #CEB866",
"G  c #C8B674",
"H  c #D0BD77",
"J  c #848484",
"K  c gray55",
"L  c #85908C",
"P  c gray59",
"I  c #9C9C9C",
"U  c #AC898C",
"Y  c #A49E86",
"T  c #A6A08B",
"R  c #ADA58A",
"E  c #B5B682",
"W  c #BEB187",
"Q  c #B6B886",
"!  c #B6B98D",
"~  c #AEA894",
"^  c #B0AB9C",
"/  c #B7BD9C",
"(  c #8698AC",
")  c #889AAD",
"_  c #B197A3",
"`  c #97A3B0",
"'  c #A7A7A7",
"]  c gray67",
"[  c #B3B0A7",
"{  c #B6BCA2",
"}  c #B6B4AE",
"|  c #A8AEB3",
" . c #B6B6B5",
".. c gray73",
"X. c #E8BCAF",
"o. c #EDB9BE",
"O. c #B7C1A8",
"+. c #B8C4B4",
"@. c #B8C6BA",
"#. c #D9C681",
"$. c #DEC887",
"%. c #D7C78D",
"&. c #DFCA8D",
"*. c #D5C799",
"=. c #E2D29B",
"-. c #D9CEA5",
";. c #D5CCA9",
":. c #E7C3AB",
">. c #E4D6A2",
",. c #E6D8A5",
"<. c #E1D6AE",
"1. c #EBDCAC",
"2. c #E5DCBD",
"3. c #EBE0B7",
"4. c #EEE3BE",
"5. c #F0E4BD",
"6. c #B9C9C5",
"7. c #B9CACD",
"8. c #BACDD5",
"9. c #B9CFDE",
"0. c #BACFE1",
"q. c #BAD1E5",
"w. c #BBD3EC",
"e. c #BBD4F0",
"r. c #C3C3C3",
"t. c #CBCBCB",
"y. c gray82",
"u. c gray86",
"i. c #EFC2C8",
"p. c #F4D8CF",
"a. c #E7E0C3",
"s. c #EBE3C6",
"d. c #F4E9C5",
"f. c #F6ECCC",
"g. c #F7EED1",
"h. c #F8EED4",
"j. c #F7E2D8",
"k. c #F8E6DE",
"l. c #F4EFD9",
"z. c #F8F1D5",
"x. c #F9F3DB",
"c. c #C0D7F1",
"v. c #C5DAF2",
"b. c #CADDF3",
"n. c #CEE0F4",
"m. c #D4E4F5",
"M. c #D8E7F6",
"N. c #DEEAF8",
"B. c #E4E4E4",
"V. c #EBEBEB",
"C. c #F9E5EB",
"Z. c #FAF6E3",
"A. c #FBF6E9",
"S. c #FCF9EB",
"D. c #E4EEF9",
"F. c #EAF2FA",
"G. c #F4F4F4",
"H. c #FDFBF3",
"J. c #F1F6FC",
"K. c #F5F9FD",
"L. c #FFFFFF",
/* pixels */
"f [ ~ n j U R R R R k 3 7 7 2 2 2 2 1 1 < , < < * < 6 = * * * - ",
"[ g.3.=.X.p.h.f.d.d.#.F D D S S A Z d s s s a a u { E w w w M ) ",
"^ 4.>.$.o.h.h.f.d.1.F D D S A A A d s s a a u u E w.V q q l w.) ",
"T ,.&.X.j.z.g.d.d.#.D D S A A d d s s a a u y b 0.8.N q r 9.w.) ",
"k :.i.k.Z.z.g.f.5.D D S Z Z d d s a a a a p z +.w.6.c t 7.w.e.| ",
"_ C.A.A.x.z.g.f.=.D Z Z Z d s s a a V / +.@.6.q.e.+.! 0.w.b.K...",
"} H.S.A.x.z.g.d.H Z Z Z d s s a a u V q.e.e.e.e.e.q.w.e.m.L.L. .",
" .H.S.A.x.z.g.5.Z Z d s s s a u u e b 8.e.e.e.e.e.w.e.N.L.L.L. .",
" .H.H.Z.x.z.g.>.Z d s s a a u u y z Q q.e.e.e.e.e.v.J.L.L.L.L. .",
" .H.S.Z.x.z.g.%.d s s a a u u e b ! 9.e.e.e.e.e.N.L.L.L.L.L.L. .",
" .H.S.A.x.z.f.G s a a u u y c Q @.w.e.e.e.e.n.K.L.L.L.L.L.L.L. .",
" .H.A.Z.z.h.f.s a a u y b ! 6.w.w.w.e.e.n.F.L.L.L.L.L.L.L.L.L...",
"} H.S.Z.z.z.s.a a u a C @.w.e.e.v.M.D.J.L.L.L.L.L.L.L.L.L.L.L. .",
" .H.S.Z.z.z.d.i u e b @.e.e.e.M.L.L.L.L.L.L.L.L.L.L.L.L.L.L.L. .",
" .H.S.Z.z.g.f.i e e y 6.e.e.e.L.L.L.L.L.L.L.L.L.L.L.L.L.L.L.L. .",
"} S.S.x.x.z.f.a w w q B e.e.m.L.L.L.L.L.L.L.L.L.L.L.L.L.L.L.L. .",
" .H.S.Z.z.g.f.v q q q r +.e.D.L.L.L.L.L.L.L.L.L.L.L.L.L.L.L.L. .",
"} S.A.x.z.z.d.e q 5 5 h / e.L.L.L.L.L.L.L.L.L.u.] J I y.L.L.L. .",
" .S.A.x.z.z.*.0 0 5 q N 6.v.L.L.L.L.L.L.L.t.#           > L.L. .",
" .S.A.Z.z.3.q 5 5 r V O.w.N.L.L.L.L.L.L.>   . >  .' +     y.L...",
" .S.A.x.<.w 5 r x C @.w.e.J.L.L.L.L.L.>   + B.L.L.L.B.    ] L. .",
"} S.S.-.0 r c Q +.q.e.e.M.L.L.L.L.L.P   O V.L.L.L.L.L.     .L...",
" .S.d.0 t C +.w.e.c.M.J.L.L.L.L.L.V.X . u.L.L.L.L.L.u.  . G.L. .",
"} S.2.5 l @.w.e.c.L.L.L.L.L.L.L.L.-   : L.L.L.L.L.L.J   % L.L. .",
"} S.a.4 h 6.e.e.M.L.L.L.L.L.L.L.V.    B.L.L.L.L.L.G.o   r.L.L. .",
"} S.l.8 8 +.e.e.M.L.L.L.L.L.L.L.I   # L.L.L.L.L.L.J   & L.L.L. .",
"} S.Z.9 2 n w.e.N.L.L.L.L.L.L.L.$   : L.L.L.L.L.... . V.L.L.L. .",
"} S.Z.W , 8 7.e.M.L.L.L.L.L.L.L.#   & L.L.L.L. .. X t.L.L.L.L. .",
"} A.Z.;., 3 / w.b.L.L.L.L.L.L.L.&     J t.' %   X t.L.L.L.L.L. .",
"} S.Z.2., , m w.e.K.L.L.L.L.L.L.B.o   .     . : V.L.L.L.L.L.L. .",
"} Z.Z.a., , l 8.e.D.L.L.L.L.L.L.L.V. .> K ..V.L.L.L.L.L.L.L.L. .",
"; T Y g @ @ = L ( `  ... . . ... . . . ... . . ... . ... . ...J "
};
