/* XPM */
static const char *paypal_donate[]={
"62 31 256 2",
"Qt c None",
"b2 c #123366",
".T c #1b3664",
".U c #233c67",
".x c #29426c",
".w c #2e466e",
"aB c #32486e",
".X c #32679b",
"#C c #35699c",
".y c #374d73",
".Y c #3a6c9e",
"#x c #3e5375",
".E c #3e70a0",
"ab c #405476",
"#H c #40719f",
".9 c #415679",
".Z c #4272a1",
"#u c #455a7b",
"a4 c #475875",
".D c #4776a4",
"#Q c #4a5e7f",
"#w c #4c6080",
".F c #4c7aa5",
".S c #526581",
"#G c #527da4",
"aZ c #53637b",
"#A c #556784",
"an c #5580a6",
"#F c #5580a8",
"a8 c #567d9f",
"#r c #5a6c88",
"ai c #5e85a6",
"#k c #5e86ab",
"#2 c #5f7089",
"by c #626b77",
"aj c #6289ac",
"ac c #637286",
"aM c #678aa4",
"#E c #688dac",
".C c #688fb3",
"a5 c #697482",
".z c #6a7a94",
"#j c #6b91b2",
"av c #6d7887",
"ba c #6e8ea4",
"ao c #6f91ac",
".8 c #707f96",
"#N c #738194",
"#D c #7496b2",
".v c #76859c",
"bZ c #787c7d",
"aK c #7895a9",
".G c #7a9bb9",
"#c c #808c9e",
"#l c #809fb8",
"#a c #8490a0",
".K c #84a2bd",
"a7 c #879aa2",
"#v c #8894a5",
"#B c #8ba6bc",
"aO c #8ca4b1",
"a6 c #8d918f",
"#m c #8ea8bb",
".6 c #929ba8",
"#X c #93aab8",
"a0 c #99968a",
".0 c #99b0c3",
"#g c #9da3a7",
"aN c #a3b4b7",
"#t c #a4acb2",
"ak c #a4b6bc",
"#6 c #a7b9c3",
"b# c #a8afa4",
"#h c #a9bac5",
".J c #abbdca",
"aD c #acb0ab",
"## c #adb3b6",
"#P c #aeb4b9",
"#i c #afc2cf",
"#U c #b0c1c9",
"a3 c #b1a892",
"#b c #b2b7bd",
"af c #b5bab5",
".5 c #b6bbbe",
"#. c #b6bbc2",
"a9 c #b7b9a9",
"bU c #baa16a",
"#O c #babebf",
"#W c #bac7c9",
"#n c #bcc9d1",
".7 c #bdc1c5",
"#T c #c0cccf",
"aw c #c1bdad",
"am c #c2cbc5",
"#d c #c4c6c6",
"#1 c #c6c8bd",
".A c #c6ced4",
"#V c #c7d2d5",
"#3 c #c8cac3",
"bb c #cfcaae",
"#f c #cfcfcd",
"#I c #d0d5d2",
"ae c #d3d1c3",
"#R c #d3d3cb",
"ah c #d4d9ce",
"aP c #d5ccae",
".L c #d5dcdd",
".R c #dadad9",
".H c #dbe1e3",
"#5 c #dce0d5",
"br c #ddc28c",
"bV c #e0b35f",
"#4 c #e0ddd0",
"#p c #e0e4e0",
"aC c #e1ddc6",
"bD c #e5cc94",
"aI c #e6d5b0",
"#S c #e9e6d6",
"bq c #eccc8d",
"ad c #ece5ca",
"bx c #edd7a2",
".2 c #eeebe3",
"#M c #efe8d1",
".1 c #efeee8",
"aL c #f0e1b8",
"#Y c #f2ead6",
"#s c #f3f1e4",
".u c #f3f1eb",
"bu c #f5d593",
"bc c #f6d89e",
".B c #f6f5f0",
"bn c #f7cd83",
"b. c #f8dba3",
"ag c #f8f1d8",
"#z c #f8f2e1",
"#o c #f8f5e9",
"a1 c #f9dca2",
"al c #f9f1d6",
"bB c #fad288",
"bs c #fbd995",
"az c #fbebc6",
".I c #fcf9f2",
"bT c #fdc760",
"bS c #fec255",
"aR c #fec872",
"aT c #fecd7e",
"aU c #fecf84",
"aV c #fed186",
"bo c #fed282",
".c c #fed595",
"bA c #fed78d",
"aF c #fed799",
"ar c #fed89b",
"aY c #fedb9c",
"as c #fedba2",
"a2 c #fedc9d",
"at c #fedca4",
"aH c #fedda1",
"au c #fee0a9",
"aJ c #fee5b2",
"aq c #fee5b5",
"aE c #fee7b7",
"ax c #fef0cb",
".4 c #fef5e1",
".# c #ff9900",
".a c #ff9a03",
"bI c #ffa722",
"bf c #ffa822",
"bH c #ffa823",
"bJ c #ffa926",
"bg c #ffaa26",
"bY c #ffaa27",
"bK c #ffab28",
"bX c #ffac2b",
"be c #ffad2d",
"b0 c #ffad30",
"bL c #ffae2f",
"bW c #ffb032",
"bM c #ffb135",
"aS c #ffb239",
"b1 c #ffb23c",
"b3 c #ffb33e",
"bN c #ffb43a",
"bO c #ffb53d",
"bG c #ffb644",
"bh c #ffb749",
"bP c #ffba44",
"b4 c #ffbc57",
"bQ c #ffbd4a",
"bR c #ffbd4c",
"bF c #ffbd59",
"bi c #ffbf5f",
"bd c #ffc366",
"bE c #ffc46a",
"bj c #ffc66a",
"bk c #ffc86f",
"bl c #ffca76",
"aG c #ffcb7b",
"bm c #ffcd78",
"bp c #ffcf7d",
"b5 c #ffcf87",
"aW c #ffd28e",
".p c #ffd392",
"bC c #ffd486",
"aQ c #ffd491",
"aX c #ffd994",
"b6 c #ffdba5",
"bt c #ffdc95",
"b9 c #ffdca8",
"#9 c #ffdda8",
"bv c #ffde98",
"a. c #ffe0af",
"bz c #ffe19e",
"bw c #ffe2a1",
"a# c #ffe2b0",
"#Z c #ffe2b5",
"b7 c #ffe4bc",
"#0 c #ffe5bb",
"#K c #ffe6be",
"#8 c #ffe9c2",
"#L c #ffe9c7",
"aa c #ffeabb",
".d c #ffeac9",
"b8 c #ffebcd",
".h c #ffebce",
".M c #ffedce",
"ap c #ffeec6",
"ay c #ffeec8",
".q c #ffeed2",
".3 c #ffefd5",
"#7 c #fff0d0",
"#q c #fff0d4",
"#J c #fff1d9",
".N c #fff2dd",
".e c #fff5e5",
"aA c #fff6d6",
".f c #fff6e8",
".g c #fff6e9",
"#e c #fff7e7",
".O c #fff7e9",
".P c #fff7ea",
".W c #fff8ea",
"#y c #fff9e6",
".Q c #fff9ec",
".i c #fff9ed",
".r c #fff9ef",
".V c #fffaee",
".s c #fffaf0",
".t c #fffaf1",
".n c #fffbf5",
".o c #fffcf6",
".j c #fffdf8",
".k c #fffdfa",
".l c #fffdfb",
".m c #fffefb",
".b c #fffffe",
"QtQtQtQt.#.#.#.#.#.#.#.#.#.#.#.#.#.#.#.#.#.#.#.#.#.#.#.#.#.#.#.#.#.#.#.#.#.#.#.#.#.#.#.#.#.#.#.#.#.#.#.#.#.#.#.#.a.#Qt.bQtQt",
"QtQt.#.c.d.e.f.f.f.f.f.f.f.f.f.f.f.g.g.f.f.f.f.g.g.f.f.g.g.f.f.f.f.f.f.g.f.g.g.f.f.g.f.f.g.g.f.g.g.f.f.g.f.f.f.f.e.d.c.#QtQt",
"Qt.#.h.i.j.k.k.k.k.k.k.l.l.l.m.m.m.l.l.k.k.k.k.k.k.k.k.k.k.k.k.k.k.k.l.l.l.m.m.m.l.l.k.k.k.k.k.k.k.k.l.l.l.k.k.k.k.j.i.h.#.m",
"Qt.c.n.n.n.n.n.n.n.n.o.o.o.j.j.j.j.j.o.o.o.o.n.n.n.n.n.n.n.n.n.n.o.o.o.o.j.j.j.j.o.o.o.o.o.n.n.o.o.o.o.o.o.o.n.n.n.n.n.n.pQt",
".#.q.r.r.r.r.r.r.r.s.t.u.v.w.w.x.y.z.A.t.n.t.t.t.t.t.t.t.t.t.t.t.t.n.B.C.D.E.E.F.G.H.t.n.t.t.t.t.t.I.J.D.K.L.t.r.r.r.r.r.M.#",
".#.N.f.f.f.f.f.f.O.P.Q.R.S.T.U.U.T.w.v.u.V.V.i.i.i.i.Q.Q.Q.W.Q.Q.i.V.H.D.X.Y.Y.X.Z.0.u.s.V.i.i.V.V.1.K.X.K.2.W.O.f.f.f.f.N.#",
".#.3.N.N.N.N.N.N.N.4.O.5.w.x.6.7.8.T.9#.##.v.8#a#b.2.7#c#d#e.O#f#a#g#h.E.E#i.A#j.X#k.A.J#l.G#m#n#o#p#k.Y.J.e.e.N.N.N.N.N.q.#",
".#.d.q.q.q.q.q.q#q.N.4.6.T#r#s.V#t.T#u#v#w#x.9.U.y.6.6.T.z#y#z#A.T#v#B#C#D.V.V#B.X#E#B#k#F#G#C.F#n.L#H.F#I.N#J.3.q.q.q.q.d.#",
".##K#L#L#L#L#L.d.M#q#M#N.T#r#O#P#Q.T.8#R#t.5#t#w.T#r#P.T#Q#y##.T.w#S#j.X#D#T#U.F.X.0#V#W#T.J#F.X#X#T.X#k#Y#q.M.d#L#L#L#L#K.#",
".##Z#0#0#0#0#0#K#L.M#1#A.T.U.w.T.T#2#3#4#t#a#N#u.U#a#R.T.y#4.9.T#g.4.F.X#C.Z.X.Y#D#5#5#h#m#l.F.Y#6#6.X#D#7.d#8#K#0#0#0#0#Z.#",
".##9a.a.a.a.a##Zaa#8#g.9.Tab.Sac.6adae#Q.U#A#2.U.waf#M.T.x#N.Tabagah.E#Caiaj#Dakalaman.Yao#E#Can#W#m.X#Xap#Kaqa#a.a.a.a.#9.#",
".#arasasasasataua#aaav.x.wawaxayapazav.TacaAae.waBaC#M.y.T.T.UaDaAak.Y.DaCaxapapayai.X#XaAam#H#Eam#E.YafaEa##9atasasasasaF.#",
".#aG.c.c.c.c.caraHa##x.T#raIaEaJaEaIav.T#w#g#r.T#uaxad.S.T.T.SaxapaK.XaKaLaEaJaJaLaM.XaoaNai.XaO#1#H#GaPauaHar.c.c.c.caQaR.#",
".#aSaRaTaUaUaVaWaXaYaZaBa0a1a2aYa2aHa3.y.xa4a5a4a6aaaL#N.T.UawaaaJa7a8a9b.a2aYa2aHb##G.EaMbaa8afbba8a7bcaXaQaVaUaUaUaTbdbe.#",
".#bfbgbhbibdbjbkblbmbnbnbobpbmbmbmbpbobqbrbsbtbubvbwbxby.TbybzbtbAbBbBbpbpbmbmbmbpbCbqbDbtbtbsaXbAbBbobpblbkbjbEbdbFbGbHbf.#",
".#bIbHbHbHbHbJbKbLbMbNbObNbMbLbebLbMbObPbQbRbRbRbSbTbU.T.UbVbTbSbPbObOaSbWbLbebLbMbObPbRbRbRbQbPbPbPbNbMbLbKbJbHbHbHbHbHbI.#",
".#bIbHbHbHbHbHbJbKbXbLbLbebXbKbYbKbebWbMaSbNbNbObPbGby.UbZbTbRbObMbLbLbebXbKbYbKbebWbMaSaSaSaSbMbWbWbLbXbKbJbHbHbHbHbHbHbI.#",
".#bIbHbHbHbHbHbHbJbJbYbYbgbJbJbHbJbJbYbKbXbXbXbLbMbObPbPbPbObObWbXbYbgbJbJbHbHbJbJbYbKbXbXbXbKbKbYbYbgbJbHbHbHbHbHbHbHbHbI.#",
".#bJbYbYbYbYbYbYbYbYbYbYbYbYbYbYbYbYbYbYbYbYbKbXbLbMbNbObObNbWbLbKbYbYbYbYbYbYbYbYbYbYbYbYbYbYbYbYbYbYbYbYbYbYbYbYbYbYbYbJ.#",
".#beb0b0b0b0b0b0b0b0b0b0b0b0b0b0b0b0b0b0b0b0b0b0bMbMb1bNaSaSbMb0b0b0b0b0b0b0b0b0b0b0b0b0b0b0b0b0b0b0b0b0b0b0b0b0b0b0b0b0be.#",
".#aSb1b1b1b1b1b1b1b1b1b1b1b1b1b1b1b2b2b2b2b1b1b1b3b3b3b3b3b3b3b1b1b1b1b1b1b1b2b1b1b1b1b1b1b1b1b1b1b1b1b1b1b1b1b1b1b1b1b1aS.#",
".#bGbhbhbhbhbhbhbhbhbhbhbhbhbhbhbhb2bhbhbhb2bhbhb2b2bhbhb2b2b2b2bhb2b2b2b2b2b2b2bhbhb2b2bhbhbhbhbhbhbhbhbhbhbhbhbhbhbhbhbG.#",
".#b4bFbFbFbFbFbFbFbFbFbFbFbFbFbFbFb2bFbFbFb2bFb2bFbFb2bFb2bFbFb2bFbFbFbFb2bFb2bFbFb2bFbFb2bFbFbFbFbFbFbFbFbFbFbFbFbFbFbFb4.#",
".#bdbEbEbEbEbEbEbEbEbEbEbEbEbEbEbEb2bEbEbEb2bEb2bEbEb2bEb2bEbEb2bEbEb2b2b2bEb2bEbEb2b2b2b2bEbEbEbEbEbEbEbEbEbEbEbEbEbEbEbd.#",
".#blaGaGaGaGaGaGaGaGaGaGaGaGaGaGaGb2aGaGaGb2aGb2aGaGb2aGb2aGaGb2aGb2aGaGb2aGb2aGaGb2aGaGaGaGaGaGaGaGaGaGaGaGaGaGaGaGaGaGbl.#",
".#b5aWaWaWaWaWaWaWaWaWaWaWaWaWaWaWb2b2b2b2aWaWaWb2b2aWaWb2aWaWb2aWb2b2b2b2aWb2b2aWaWb2b2b2aWaWaWaWaWaWaWaWaWaWaWaWaWaWaWb5.#",
".#b5b6b6b6b6b6b6b6b6b6b6b6b6b6b6b6b6b6b6b6b6b6b6b6b6b6b6b6b6b6b6b6b6b6b6b6b6b6b6b6b6b6b6b6b6b6b6b6b6b6b6b6b6b6b6b6b6b6b6b5.#",
"Qtb4#Zb7b7b7b7b7b7b7b7b7b7b7b7b7b7b7b7b7b7b7b7b7b7b7b7b7b7b7b7b7b7b7b7b7b7b7b7b7b7b7b7b7b7b7b7b7b7b7b7b7b7b7b7b7b7b7b7#Zb4Qt",
".r.#.c#K.db8.Mb8b8b8b8b8b8b8b8b8b8b8b8b8b8b8b8b8b8b8b8b8b8b8b8b8b8b8b8b8b8b8b8b8b8b8b8b8b8b8b8b8b8b8b8b8b8b8b8.Mb8.d#K.c.#.r",
"QtQt.#biaQb6b9b9b9b9b9b9b9b9b9b9b9b9b9b9b9b9b9b9b9b9b9b9b9b9b9b9b9b9b9b9b9b9b9b9b9b9b9b9b9b9b9b9b9b9b9b9b9b9b9b9b6aQbi.#QtQt",
"QtQt.nQt.#.#.#.#.#.#.#.#.#.#.#.#.#.#.#.#.#.#.#.#.#.#.#.#.#.#.#.#.#.#.#.#.#.#.#.#.#.#.#.#.#.#.#.#.#.#.#.#.#.#.#.#.#.#Qt.nQtQt"};
