/* XPM */
static const char *pencil[]={
"32 32 3 1",
". c None",
"# c #000000",
"a c #ffffff",
"................................",
"................##..............",
"...............#aa#.............",
"..............#aa#a#............",
".............#aa#a#.............",
"............#aa#a#..............",
"...........#aa#a#...............",
"..........#aa#a#................",
".........#aa#a#.................",
"........#aa#a#..................",
".......#aa#a#...................",
"......#aa#a#....................",
".....#aa#a#.....................",
"....#aa#a#......................",
"...#aa#a#.......................",
"..#aa#a#........................",
".##a#a#.........................",
".###a#..........................",
".####...........................",
"................................",
"................................",
"................................",
"................................",
"................................",
"................................",
"................................",
"................................",
"................................",
"................................",
"................................",
"................................",
"................................"};
