/* XPM */
static const char *pencil[] = {
/* columns rows colors chars-per-pixel */
"32 32 98 2",
"   c #0A0801",
".  c #1F1801",
"X  c #151515",
"o  c #342906",
"O  c #232118",
"+  c #302B1A",
"@  c #3B3111",
"#  c #262625",
"$  c #282724",
"%  c #2E2B23",
"&  c #282825",
"*  c #2B2924",
"=  c #2B2A26",
"-  c #2D2B25",
";  c #2E2C24",
":  c #2E2C26",
">  c #2D2D2A",
",  c #312D22",
"<  c #332F23",
"1  c #363123",
"2  c #393421",
"3  c #3E3720",
"4  c #3D3723",
"5  c #383324",
"6  c #493F1E",
"7  c #443B21",
"8  c #5E4D17",
"9  c #655215",
"0  c #6C5713",
"q  c #775F16",
"w  c #665626",
"e  c #7C6721",
"r  c #7F6C2F",
"t  c #786E51",
"y  c #6E6A60",
"u  c #876E1F",
"i  c #856D21",
"p  c #937820",
"a  c #9A7F2A",
"s  c #867950",
"d  c #B48B08",
"f  c #BE930A",
"g  c #B08C1B",
"h  c #9F8222",
"j  c #9D832D",
"k  c #AF902B",
"l  c #B0912E",
"z  c #BE9D37",
"x  c #CD9C00",
"c  c #C89D19",
"v  c #D8A504",
"b  c #DAAB14",
"n  c #DAAC1A",
"m  c #E3AD01",
"M  c #E0AE0C",
"N  c #E6B105",
"B  c #E9B40A",
"V  c #ECB70E",
"C  c #E9B614",
"Z  c #EEBB14",
"A  c #E6B518",
"S  c #E3B41F",
"D  c #EFBC1B",
"F  c #ECBA1D",
"G  c #F3BF1A",
"H  c #F2BE1B",
"J  c #C49E22",
"K  c #C59F25",
"L  c #D9AE25",
"P  c #C3A032",
"I  c #EAB924",
"U  c #E1B628",
"Y  c #E7BF3C",
"T  c #F4C21F",
"R  c #F1C021",
"E  c #F5C323",
"W  c #F7C420",
"Q  c #F5C425",
"!  c #F6C424",
"~  c #F8C727",
"^  c #FAC726",
"/  c #F9C82A",
"(  c #FCCA28",
")  c #F7C834",
"_  c #9C8D5A",
"`  c #A79357",
"'  c #C8B26E",
"]  c #EFC748",
"[  c #F6CC46",
"{  c #93918A",
"}  c #9B9B9B",
"|  c #BAB194",
" . c #B5AEA0",
".. c #D4C495",
"X. c #CEC5AD",
"o. c #D1D0CB",
"O. c #E3DBC8",
"+. c None",
/* pixels */
"+.+.+.+.+.+.+.+.+.+.+.+.+.+.+.+.+.+.+.+.+.+.+.+.+.+.+.+.+.o +.+.",
"+.+.+.+.+.+.+.+.+.+.+.+.+.+.+.+.+.+.+.+.+.+.+.+.+.+.+.| J   X +.",
"+.+.+.+.+.+.+.+.+.+.+.+.+.+.+.+.+.+.+.+.+.+.+.+.+.H f { } @ . +.",
"+.+.+.+.+.+.+.+.+.+.+.+.+.+.+.+.+.+.+.+.+.+.+.T d 3 # s o.) +.+.",
"+.+.+.+.+.+.+.+.+.+.+.+.+.+.+.+.+.+.+.+.+.! g 2 # e M ( +.+.+.+.",
"+.+.+.+.+.+.+.+.+.+.+.+.+.+.+.+.+.+.+.~ l 1 $ u C ^ +.+.+.+.+.+.",
"+.+.+.+.+.+.+.+.+.+.+.+.+.+.+.+.x / j , * p D W +.+.+.+.+.+.+.+.",
"+.+.+.+.+.+.+.+.+.+.+.+.+.+.m Q i % ; h E G +.+.+.+.+.+.+.+.+.+.",
"+.+.+.+.+.+.+.+.+.+.+.+.N R q - < k [ Z +.+.+.+.+.+.+.+.+.+.+.+.",
"+.+.+.+.+.+.+.+.+.+.B F 0 = 5 z ] I +.+.+.+.+.+.+.+.+.+.+.+.+.+.",
"+.+.+.+.+.+.+.+.V A 9 & 4 P Y S +.+.+.+.+.+.+.+.+.+.+.+.+.+.+.+.",
"+.+.+.+.+.+._ b 8 # 7 K U L +.+.+.+.+.+.+.+.+.+.+.+.+.+.+.+.+.+.",
"+.+.+.+.+. .O.> 6 c n +.+.+.+.+.+.+.+.+.+.+.+.+.+.+.+.+.+.+.+.+.",
"+.+.+.y X...' a v +.+.+.+.+.+.+.+.+.+.+.+.+.+.+.+.+.+.+.+.+.+.+.",
"+.+.: t ` r w +.+.+.+.+.+.+.+.+.+.+.+.+.+.+.+.+.+.+.+.+.+.+.+.+.",
"+.O + +.+.+.+.+.+.+.+.+.+.+.+.+.+.+.+.+.+.+.+.+.+.+.+.+.+.+.+.+.",
"+.+.+.+.+.+.+.+.+.+.+.+.+.+.+.+.+.+.+.+.+.+.+.+.+.+.+.+.+.+.+.+.",
"+.+.+.+.+.+.+.+.+.+.+.+.+.+.+.+.+.+.+.+.+.+.+.+.+.+.+.+.+.+.+.+.",
"+.+.+.+.+.+.+.+.+.+.+.+.+.+.+.+.+.+.+.+.+.+.+.+.+.+.+.+.+.+.+.+.",
"+.+.+.+.+.+.+.+.+.+.+.+.+.+.+.+.+.+.+.+.+.+.+.+.+.+.+.+.+.+.+.+.",
"+.+.+.+.+.+.+.+.+.+.+.+.+.+.+.+.+.+.+.+.+.+.+.+.+.+.+.+.+.+.+.+.",
"+.+.+.+.+.+.+.+.+.+.+.+.+.+.+.+.+.+.+.+.+.+.+.+.+.+.+.+.+.+.+.+.",
"+.+.+.+.+.+.+.+.+.+.+.+.+.+.+.+.+.+.+.+.+.+.+.+.+.+.+.+.+.+.+.+.",
"+.+.+.+.+.+.+.+.+.+.+.+.+.+.+.+.+.+.+.+.+.+.+.+.+.+.+.+.+.+.+.+.",
"+.+.+.+.+.+.+.+.+.+.+.+.+.+.+.+.+.+.+.+.+.+.+.+.+.+.+.+.+.+.+.+.",
"+.+.+.+.+.+.+.+.+.+.+.+.+.+.+.+.+.+.+.+.+.+.+.+.+.+.+.+.+.+.+.+.",
"+.+.+.+.+.+.+.+.+.+.+.+.+.+.+.+.+.+.+.+.+.+.+.+.+.+.+.+.+.+.+.+.",
"+.+.+.+.+.+.+.+.+.+.+.+.+.+.+.+.+.+.+.+.+.+.+.+.+.+.+.+.+.+.+.+.",
"+.+.+.+.+.+.+.+.+.+.+.+.+.+.+.+.+.+.+.+.+.+.+.+.+.+.+.+.+.+.+.+.",
"+.+.+.+.+.+.+.+.+.+.+.+.+.+.+.+.+.+.+.+.+.+.+.+.+.+.+.+.+.+.+.+.",
"+.+.+.+.+.+.+.+.+.+.+.+.+.+.+.+.+.+.+.+.+.+.+.+.+.+.+.+.+.+.+.+.",
"+.+.+.+.+.+.+.+.+.+.+.+.+.+.+.+.+.+.+.+.+.+.+.+.+.+.+.+.+.+.+.+."
};
