/* XPM */
static const char *platform[]={
"16 16 4 1",
". c None",
"a c #000000",
"# c #ff00ff",
"b c #ffffff",
"................",
"................",
".......###......",
"......#####.....",
"......#####.....",
"......#####.....",
".......###......",
".......###......",
"........#.......",
"........#.......",
"......aaaaa.....",
"......abbba.....",
"......ababa.....",
"......abbba.....",
"......aaaaa.....",
"................"};
