/* XPM */
static const char *polyconic[]={
"13 13 4 1",
". c None",
"# c #800000",
"b c #c00000",
"a c #ff0000",
".....#.......",
"....a##......",
"....ab#......",
"...aab##.....",
"...abb##.....",
"...abbb#.....",
"..aabbb##....",
"..abbbb##....",
"..abbbbb#....",
"..abbbbb#....",
".aabbbbb##...",
".abbbbbbb#...",
".abbbbbbb#..."};
