/* XPM */
static const char *print[] = {
/* columns rows colors chars-per-pixel */
"32 32 200 2",
"   c gray3",
".  c gray4",
"X  c #0B0B0B",
"o  c #101010",
"O  c #111111",
"+  c #1D1D1E",
"@  c #1E1E1E",
"#  c gray12",
"$  c gray13",
"%  c #2D2D2D",
"&  c #2F2F2F",
"*  c gray20",
"=  c #353535",
"-  c gray21",
";  c #363637",
":  c #373737",
">  c #373739",
",  c gray24",
"<  c #3E3E3E",
"1  c gray28",
"2  c gray32",
"3  c #535353",
"4  c gray33",
"5  c #555555",
"6  c #565656",
"7  c gray34",
"8  c #5D5D5D",
"9  c gray37",
"0  c #606060",
"q  c gray38",
"w  c #616163",
"e  c #646465",
"r  c gray42",
"t  c #6D6D6D",
"y  c #6F6F6F",
"u  c gray44",
"i  c #717171",
"p  c #727272",
"a  c gray45",
"s  c #747474",
"d  c #767676",
"f  c #777777",
"g  c #797979",
"h  c gray48",
"j  c #7C7C7C",
"k  c #7E7E7E",
"l  c #808080",
"z  c #818181",
"x  c gray51",
"c  c #888888",
"v  c gray54",
"b  c #8E8E8E",
"n  c gray56",
"m  c #909090",
"M  c gray57",
"N  c #929292",
"B  c gray58",
"V  c #959597",
"C  c gray59",
"Z  c #979797",
"A  c #989898",
"S  c #98989A",
"D  c #9A9A9A",
"F  c #9B9B9B",
"G  c #9D9D9D",
"H  c gray62",
"J  c #9F9F9F",
"K  c #A2A2A7",
"L  c #A5A5A5",
"P  c #A7A7A7",
"I  c #A1A1A8",
"U  c gray66",
"Y  c #A9A9A9",
"T  c gray67",
"R  c #A8A8AD",
"E  c #ACACAC",
"W  c gray68",
"Q  c #AEAEAE",
"!  c #ACACB2",
"~  c #AEAEB4",
"^  c gray69",
"/  c #B1B1B1",
"(  c #B0B0B6",
")  c #B4B4B4",
"_  c #B6B6B6",
"`  c #B7B7B7",
"'  c #B4B4B9",
"]  c #B5B5BA",
"[  c #B6B6BA",
"{  c gray72",
"}  c gray73",
"|  c #BBBBBB",
" . c #B8B8BC",
".. c #BABABE",
"X. c #BBBBBE",
"o. c #BCBCBC",
"O. c gray74",
"+. c gray",
"@. c gray75",
"#. c #BCBCC1",
"$. c #BEBEC2",
"%. c #BEBEC3",
"&. c #C1C1C1",
"*. c #C3C3C3",
"=. c #C3C3C4",
"-. c #C2C2C6",
";. c gray77",
":. c #C4C4C8",
">. c #C5C5C9",
",. c #C6C6CA",
"<. c #C8C8C8",
"1. c #C8C8CC",
"2. c #CACACE",
"3. c gray80",
"4. c #CDCDCD",
"5. c #CDCDCF",
"6. c #CECECE",
"7. c #CFCFD3",
"8. c #D0D0D0",
"9. c gray82",
"0. c #D2D2D3",
"q. c LightGray",
"w. c #D5D7D3",
"e. c #D0D0D4",
"r. c #D1D1D5",
"t. c #D3D3D6",
"y. c gray83",
"u. c #D5D5D5",
"i. c gray84",
"p. c #D7D7D7",
"a. c #D5D5D8",
"s. c #D6D6D9",
"d. c #D7D7DA",
"f. c #D8D8D8",
"g. c gray85",
"h. c #D8D8DB",
"j. c #DADADA",
"k. c gray86",
"l. c #DBDCDA",
"z. c #D9D9DC",
"x. c #DBDBDE",
"c. c gainsboro",
"v. c #DDDDDD",
"b. c #DCDCDF",
"n. c #DDDDDF",
"m. c gray87",
"M. c #DFDFDF",
"N. c #E0E1DF",
"B. c #DDDDE0",
"V. c gray88",
"C. c #E1E1E1",
"Z. c #E0E0E3",
"A. c #E1E1E3",
"S. c #E2E2E2",
"D. c #E1E1E4",
"F. c #E2E2E4",
"G. c #E3E3E6",
"H. c #E4E4E4",
"J. c #E5E5E7",
"K. c #E6E6E7",
"L. c #E7E7E7",
"P. c #E6E6E8",
"I. c #E7E7E9",
"U. c #E9E9E9",
"Y. c #E8E8EA",
"T. c #E9E9EB",
"R. c #EAEAEA",
"E. c #EAEAEC",
"W. c #ECECEC",
"Q. c #ECECEE",
"!. c #EDEDEE",
"~. c #EEEEEE",
"^. c #EEEEEF",
"/. c #EFEFEF",
"(. c #EFEFF0",
"). c #EFEFF1",
"_. c #F0F0F1",
"`. c #F1F1F1",
"'. c #F1F1F2",
"]. c gray95",
"[. c #F2F2F3",
"{. c #F3F3F4",
"}. c #F4F4F4",
"|. c #F4F4F5",
" X c gray96",
".X c #F5F5F6",
"XX c #F6F6F6",
"oX c gray97",
"OX c #F7F7F8",
"+X c #F8F8F8",
"@X c #F8F8F9",
"#X c #F9F9F9",
"$X c #F9F9FA",
"%X c gray98",
"&X c #FAFAFB",
"*X c #FBFBFB",
"=X c #FCFCFD",
"-X c #FDFDFD",
";X c #FEFEFE",
":X c gray100",
/* pixels */
"M.M.M.M.M.M.M.M.M.M.M.M.M.M.M.M.M.M.M.M.M.M.M.M.M.M.M.M.M.M.M.M.",
"M.M.M.M.M.M.M.o.A A A A A A A A A A A A A A A A o.M.M.M.M.M.M.M.",
"M.M.M.M.M.M.M.C :X:X:X:X:X:X:X:X:X:X:X:X:X:X:X:XC M.M.M.M.M.M.M.",
"M.M.M.M.M.M.M.C -X:X:X:X:X:X:X:X:X:X:X:X:X:X:X:XC M.M.M.M.M.M.M.",
"M.M.M.M.M.M.M.C #X;X:X:X:X:X:X:X:X:X:X:X:X:X:X;XC M.M.M.M.M.M.M.",
"M.M.M.M.M.M.M.C |.%X;X:X:X:X:X:X:X:X:X:X:X:X;X$XC M.M.M.M.M.M.M.",
"M.M.M.M.M.M.M.C !.|.$X-X:X:X:X:X:X:X:X:X:X-X$X|.C M.M.M.M.M.M.M.",
"M.M.M.M.M.M.j.r J.Q.{.OX*X-X:X:X:X:X:X-X&XOX{.Q.r j.M.M.M.M.M.M.",
"M.M.M.M.M.M.p.q B.G.E.).|.oX@X$X%X$X@XoX|.).E.G.q p.M.M.M.M.M.M.",
"M.M.M.M.M.M.f.8 t.x.A.P.E.^._.[.[.[._.^.E.P.A.x.8 f.M.M.M.M.M.M.",
"M.M.M.M.M.M.f.6 1.7.d.b.Z.G.P.I.Y.I.P.G.Z.b.d.7.6 f.M.M.M.M.M.M.",
"M.p.c v B H Z 2 #.:.2.e.a.z.x.n.B.n.x.z.a.e.2.:.2 G U H B v p.M.",
"M.<.c N G P J % R ~ ] ..$.-.:.,.,.,.:.-.$...] ~ % P / P G N <.M.",
"M.` n D L ^ U 1 : : - - = = * * * * = = - - : : 1 Q } ^ L D } M.",
"M.W F P / | | , , , , , , , , , , , , , , , , , , O.&.| / P ) M.",
"M.w././././.C.W.~.~.~.~.~.~.~.~.~.~.~.~.~.~.~.~.W.C././././.w.M.",
"M.l.].].].].m.7 5 5 5 5 5 5 5 5 5 5 5 5 5 5 5 5 7 m.].].].].l.M.",
"M.N.XXXXXXXXm.4 3 3 3 3 3 f h h h h f 3 3 3 3 3 4 m.XXXXXXXXN.M.",
"M.H.%X%X%X%Xk.< , , , , 1 a a a a a a 1 , , , , < k.%X%X%X%XH.M.",
"M.;.Y Y Y Y Y Y Y Y Y Y Y Y Y Y Y Y Y Y Y Y Y Y Y Y Y Y Y Y ;.M.",
"M.K.}.}.}.}.}.}.}.}.}.}.}.}.}.}.}.}.}.}.}.}.}.}.}.}.}.}._ L.K.M.",
"M.n.R.R.R.R.f.c.k.k.j.g.f.p.i.u.u.i.p.p.f.g.j.k.c.f.R.R.+.S.n.M.",
"M.5.V.V.V.M.9 O O O o o o o o o o o o o o o o O O 9 M.V.J 8.5.M.",
"M.X.q.q.q.@.;XX .                             . X ;X@.q.*.y.X.M.",
"M.R ;.;.;.E oX# + I R ! ( ' [  . . .[ ' ( ! R @ # oXE ;.;.;.R M.",
"M.K L L L m U.$ ; %.>.2.7.t.s.d.h.d.s.t.7.2.>.> $ U.m L L L K M.",
"M.M.M.M.M.M.v.& w r.h.B.F.J.I.T.T.T.I.J.F.B.h.e & v.M.M.M.M.M.M.",
"M.M.M.M.M.M.J a V D.I.!.'..XoX+X@X+XoX.X'.!.I.S a J M.M.M.M.M.M.",
"M.M.M.M.M.M.z { =.(..X$X=X:X:X:X:X:X:X:X=X$X.X<.{ z M.M.M.M.M.M.",
"M.M.M.M.M.M.h 0 6.$X;X:X:X:X:X:X:X:X:X:X:X:X;X0.0 h M.M.M.M.M.M.",
"M.M.M.v.g.u.9.M `.:X:X:X:X:X:X:X:X:X:X:X:X:X:X Xb 4.9.u.g.v.M.M.",
"M.m.c.g.y.8.3.W x l j g s i y r r t u p d h k z T <.4.9.i.j.v.M."
};
