/* XPM */
static const char *redgreenlite[]={
"16 16 4 1",
". c None",
"# c #000000",
"b c #00c000",
"a c #ff0000",
"................",
"..........##....",
".........#a#....",
"........#aa#....",
".......#aaa#....",
"......#aaaa#....",
"......#bbbb#....",
"......#bbb#.....",
"......#bb#......",
"......#b#.......",
"......##........",
".....##.........",
"....####........",
"....#..#........",
"....#..#........",
"....####........"};
