/* XPM */
static const char *redlite[]={
"16 16 3 1",
". c None",
"# c #000000",
"a c #ff0000",
"................",
"..........##....",
".........#a#....",
"........#aa#....",
".......#aaa#....",
"......#aaaa#....",
"......#aaaa#....",
"......#aaa#.....",
"......#aa#......",
"......#a#.......",
"......##........",
".....##.........",
"....####........",
"....#..#........",
"....#..#........",
"....####........"};
