/* XPM */
static const char *right[] = {
/* columns rows colors chars-per-pixel */
"32 32 233 2",
"   c #004D00",
".  c #004E00",
"X  c #024E02",
"o  c #005000",
"O  c #005500",
"+  c #065206",
"@  c #005C00",
"#  c #005F00",
"$  c #005E01",
"%  c #025E02",
"&  c #035D04",
"*  c #075C07",
"=  c #095309",
"-  c #0A540A",
";  c #0A5A0A",
":  c #115C11",
">  c #165C16",
",  c #006300",
"<  c #056506",
"1  c #006A00",
"2  c #016D01",
"3  c #006F01",
"4  c #026904",
"5  c #036B04",
"6  c #056B05",
"7  c #056906",
"8  c #09620A",
"9  c #007301",
"0  c #007500",
"q  c #007700",
"w  c #047307",
"e  c #057607",
"r  c #017A02",
"t  c #037A03",
"y  c #007F00",
"u  c #017D03",
"i  c #077508",
"p  c #087608",
"a  c #067809",
"s  c #057A08",
"d  c #067B08",
"f  c #067D0A",
"g  c #087F0A",
"h  c #106811",
"j  c #106E13",
"k  c #1B621B",
"l  c #1E6D1E",
"z  c #1D771E",
"x  c #276F1F",
"c  c #216421",
"v  c #2D692D",
"b  c #247025",
"n  c #257D26",
"m  c #2F732F",
"M  c #2C7B2C",
"N  c #316F31",
"B  c #327733",
"V  c #357F35",
"C  c #3F7F3F",
"Z  c #008200",
"A  c #008300",
"S  c #028104",
"D  c #038405",
"F  c #048604",
"G  c #048707",
"H  c #008A00",
"J  c #008D00",
"K  c #008F00",
"L  c #048907",
"P  c #078907",
"I  c #068E06",
"U  c #07820A",
"Y  c #098109",
"T  c #09840C",
"R  c #09850D",
"E  c #08860C",
"W  c #058B08",
"Q  c #058D09",
"!  c #068E0A",
"~  c #078F0B",
"^  c #08890C",
"/  c #09890C",
"(  c #08890D",
")  c #088F0D",
"_  c #0A8F0F",
"`  c #009400",
"'  c #009700",
"]  c #049104",
"[  c #059005",
"{  c #009800",
"}  c #019801",
"|  c #009A00",
" . c #009C00",
".. c #009D00",
"X. c #009F00",
"o. c #0A910B",
"O. c #089409",
"+. c #08910D",
"@. c #09900E",
"#. c #0C930F",
"$. c #0A950C",
"%. c #099B09",
"&. c #0D8F12",
"*. c #118D12",
"=. c #0C9010",
"-. c #169717",
";. c #18951A",
":. c #00A200",
">. c #02A002",
",. c #00A400",
"<. c #00A500",
"1. c #00A600",
"2. c #06A206",
"3. c #04A404",
"4. c #00A900",
"5. c #00AA00",
"6. c #00AB00",
"7. c #01AB01",
"8. c #00AC00",
"9. c #00AE00",
"0. c #00AF00",
"q. c #00B000",
"w. c #00B100",
"e. c #00B200",
"r. c #00B400",
"t. c #00B500",
"y. c #00B700",
"u. c #00B800",
"i. c #00B900",
"p. c #01B801",
"a. c #00BA00",
"s. c #00BB00",
"d. c #00BD00",
"f. c #2F892F",
"g. c #2D8F2D",
"h. c #2A942A",
"j. c #2A9A2A",
"k. c #338433",
"l. c #368436",
"z. c #3B833B",
"x. c #3B873B",
"c. c #3E8C3E",
"v. c #369836",
"b. c #349D34",
"n. c #3B903B",
"m. c #389438",
"M. c #2EA226",
"N. c #25AD25",
"B. c #2CA22C",
"V. c #2FA52F",
"C. c #2AAB2A",
"Z. c #28AD28",
"A. c #2DA92D",
"S. c #2DAD2D",
"D. c #2CB22C",
"F. c #2CB52C",
"G. c #2DB62D",
"H. c #31A231",
"J. c #32AC32",
"K. c #37AB37",
"L. c #34AC34",
"P. c #3BA73B",
"I. c #3EA53E",
"U. c #39A939",
"Y. c #3FAD3F",
"T. c #35B435",
"R. c #3BBB3B",
"E. c #00C200",
"W. c #00C400",
"Q. c #00C500",
"!. c #01C601",
"~. c #00C800",
"^. c #00CC00",
"/. c #00CE00",
"(. c #00D000",
"). c #00D300",
"_. c #01D401",
"`. c #01D801",
"'. c #458745",
"]. c #479747",
"[. c #439E43",
"{. c #459B45",
"}. c #569B56",
"|. c #40A240",
" X c #41AD41",
".X c #43AD43",
"XX c #46AC46",
"oX c #4FA34F",
"OX c #4CA64C",
"+X c #48AA48",
"@X c #4AA84A",
"#X c #4BAE4B",
"$X c #4DAF4D",
"%X c #4FAF4F",
"&X c #41B241",
"*X c #4BB24B",
"=X c #51A051",
"-X c #52AE52",
";X c #54AD54",
":X c #57AD57",
">X c #5EA65E",
",X c #59AB59",
"<X c #5AA95A",
"1X c #5FAA5F",
"2X c #57B357",
"3X c #58B158",
"4X c #5AB25A",
"5X c #5CB25C",
"6X c #5EB35E",
"7X c #61B261",
"8X c #63B263",
"9X c #60B460",
"0X c #64B564",
"qX c #66B766",
"wX c #69B869",
"eX c #6AB96A",
"rX c #6BB86B",
"tX c #6DB86D",
"yX c #70BB70",
"uX c #73BD73",
"iX c #75BE75",
"pX c #77BD77",
"aX c #78BF78",
"sX c #7DC37D",
"dX c #7FC47F",
"fX c #87B787",
"gX c #83BC83",
"hX c #83C583",
"jX c #86C486",
"kX c #89CA89",
"lX c #8DCC8D",
"zX c #9CD79C",
"xX c None",
/* pixels */
"xXxXxXxXxXxXxXxXxXxXxXxXxXxXxXxXxXxXxXxXxXxXxXxXxXxXxXxXxXxXxXxX",
"xXxXxXxXxXxXxXxXxXxXxXxXxXxXxXxXxXxXxXxXxXxXxXxXxXxXxXxXxXxXxXxX",
"xXxXxXxXxXxXxXxXxXxXxXxXxXxXxXxXxXxXxXxXxXxXxXxXxXxXxXxXxXxXxXxX",
"xXxXxXxXxXxXx M.-.xXxXxXxXxXxXxXxXxXxXxXxXxXxXxXxXxXxXxXxXxXxXxX",
"xXxXxXxXxXxXxX;.*._ U xXxXxXxXxXxXxXxXxXxXxXxXxXxXxXxXxXxXxXxXxX",
"xXxXxXxXxXxXxX) ] o.&.^ xXxXxXxXxXxXxXxXxXxXxXxXxXxXxXxXxXxXxXxX",
"xXxXxXxXxXxXxX@. . .%.=.( xXxXxXxXxXxXxXxXxXxXxXxXxXxXxXxXxXxXxX",
"xXxXxXxXxXxXxX+.7.4.1.2.#./ xXxXxXxXxXxXxXxXxXxXxXxXxXxXxXxXxXxX",
"xXxXxXxXxXxXxX~ p.y.e.6.3.$.E e xXxXxXxXxXxXxXxXxXxXxXxXxXxXxXxX",
"xXxXxXxXxXxXxX! !.W.d.r.5.>.O.R d xXxXxXxXxXxXxXxXxXxXxXxXxXxXxX",
"xXxXxXxXxXxXxXQ _.(.Q.a.0.,.} I T f xXxXxXxXxXxXxXxXxXxXxXxXxXxX",
"xXxXxXxXxXxXxXW `.).~.d.w.1.| K F g s xXxXxXxXxXxXxXxXxXxXxXxXxX",
"xXxXxXxXxXxXxXL /.^.W.s.q.<.| K A t i a 4 xXxXxXxXxXxXxXxXxXxXxX",
"xXxXxXxXxXxXxXG W.E.d.t.8.:.{ J Z q 2 7 w 5 xXxXxXxXxXxXxXxXxXxX",
"xXxXxXxXxXxXxXD i.u.r.9.1...` H y 0 1 # * z n xXxXxXxXxXxXxXxXxX",
"xXxXxXxXxXxXxXS 0.9.6.1.X.' [ P Y p 6 % ; v B j xXxXxXxXxXxXxXxX",
"xXxXxXxXxXxXxXu R.G.F.D.S.A.B.j.h.g.f.k.V C b < xXxXxXxXxXxXxXxX",
"xXxXxXxXxXxXxXr T.N.Z.C.A.V.H.b.v.m.n.c.z.h $ xXxXxXxXxXxXxXxXxX",
"xXxXxXxXxXxXxX9 &XJ.L.K.U.P.I.|.[.{.].x.8 xXxXxXxXxXxXxXxXxXxXxX",
"xXxXxXxXxXxXxX3 *XY. X.XXX+X@XOXoX=Xl.& xXxXxXxXxXxXxXxXxXxXxXxX",
"xXxXxXxXxXxXxX1 2X#X$X%X-X;X:X,X<XM O xXxXxXxXxXxXxXxXxXxXxXxXxX",
"xXxXxXxXxXxXxX, 9X3X4X5X6X7X8X1Xl o xXxXxXxXxXxXxXxXxXxXxXxXxXxX",
"xXxXxXxXxXxXxX@ eX0XqXwXrXtX>X: xXxXxXxXxXxXxXxXxXxXxXxXxXxXxXxX",
"xXxXxXxXxXxXxXO pXyXuXiXaX}.+ xXxXxXxXxXxXxXxXxXxXxXxXxXxXxXxXxX",
"xXxXxXxXxXxXxX. hXsXdXhX'.  xXxXxXxXxXxXxXxXxXxXxXxXxXxXxXxXxXxX",
"xXxXxXxXxXxXxXX lXkXjXm   xXxXxXxXxXxXxXxXxXxXxXxXxXxXxXxXxXxXxX",
"xXxXxXxXxXxXxXc zXgXk xXxXxXxXxXxXxXxXxXxXxXxXxXxXxXxXxXxXxXxXxX",
"xXxXxXxXxXxXxXN fX- xXxXxXxXxXxXxXxXxXxXxXxXxXxXxXxXxXxXxXxXxXxX",
"xXxXxXxXxXxXxX> = xXxXxXxXxXxXxXxXxXxXxXxXxXxXxXxXxXxXxXxXxXxXxX",
"xXxXxXxXxXxXxXxXxXxXxXxXxXxXxXxXxXxXxXxXxXxXxXxXxXxXxXxXxXxXxXxX",
"xXxXxXxXxXxXxXxXxXxXxXxXxXxXxXxXxXxXxXxXxXxXxXxXxXxXxXxXxXxXxXxX",
"xXxXxXxXxXxXxXxXxXxXxXxXxXxXxXxXxXxXxXxXxXxXxXxXxXxXxXxXxXxXxXxX"
};
