/* XPM */
static const char *right[]={
"32 32 3 1",
". c None",
"a c #000000",
"# c #ffffff",
"................................",
"................................",
"................................",
"..................##............",
"..................###...........",
"..................#a##..........",
"..................#aa##.........",
"..................#aaa##........",
"###################aaaa##.......",
"###################aaaaa##......",
"##aaaaaaaaaaaaaaaaaaa.aaa##.....",
"##aaaaaaaaaaaaaaaaaaa..aaa##....",
"##aa....................aaa##...",
"##aa.....................aaa##..",
"##aa......................aaa##.",
"##aa.......................aaa##",
"##aa.......................aaa##",
"##aa......................aaa##.",
"##aa.....................aaa##..",
"##aa....................aaa##...",
"##aaaaaaaaaaaaaaaaaaa..aaa##....",
"##aaaaaaaaaaaaaaaaaaa.aaa##.....",
"###################aaaaa##......",
"###################aaaa##.......",
"..................#aaa##........",
"..................#aa##.........",
"..................#a##..........",
"..................###...........",
"..................##............",
"................................",
"................................",
"................................"};
