/* XPM */
static const char *rock1[]={
"16 16 2 1",
". c None",
"# c #000000",
"................",
".......##.......",
".......##.......",
"................",
"...##...#...##..",
"...##...#...##..",
"........#.......",
"........#.......",
".##.#########.##",
".##.....#.....##",
"........#.......",
"........#.......",
"...##...#...##..",
"...##.......##..",
".......##.......",
".......##......."};
