/* XPM */
static const char *route[] = {
/* columns rows colors chars-per-pixel */
"32 32 126 2",
"   c #055504",
".  c #0A5506",
"X  c #0D5A06",
"o  c #0E5C0A",
"O  c #145D00",
"+  c #026500",
"@  c #096206",
"#  c #026B01",
"$  c #0A6B06",
"%  c #0E640C",
"&  c #0D6C0A",
"*  c #186100",
"=  c #19630F",
"-  c #126D0A",
";  c #007300",
":  c #0C7300",
">  c #007B00",
",  c #0B7408",
"<  c #127700",
"1  c #1B7D00",
"2  c #13740C",
"3  c #127B0A",
"4  c #19780F",
"5  c #1E6512",
"6  c #166F12",
"7  c #177210",
"8  c #1B7412",
"9  c #137F13",
"0  c #1F7813",
"q  c #1B761A",
"w  c #216714",
"e  c #2A6D16",
"r  c #237B14",
"t  c #297B16",
"y  c #376F29",
"u  c #227720",
"i  c #297E29",
"p  c #3A722A",
"a  c #407A27",
"s  c #008300",
"d  c #008B00",
"f  c #12830A",
"g  c #1A830F",
"h  c #128B0A",
"j  c #009400",
"k  c #009B00",
"l  c #12920A",
"z  c #129A0A",
"x  c #1C8C1C",
"c  c #169916",
"v  c #238200",
"b  c #298316",
"n  c #298B16",
"m  c #299217",
"M  c #299A16",
"N  c #00A300",
"B  c #00AB00",
"V  c #12A60A",
"C  c #12AB0A",
"Z  c #00B400",
"A  c #00BB00",
"S  c #12B20A",
"D  c #29A316",
"F  c #29AC16",
"G  c #29B216",
"H  c #378E21",
"J  c #35892E",
"K  c #3B8B29",
"L  c #209420",
"P  c #249C24",
"I  c #338433",
"U  c #3E8A3E",
"Y  c #26A226",
"T  c #50833A",
"R  c #00C000",
"E  c #469446",
"W  c #479D47",
"Q  c #4E944E",
"!  c #4D9D4D",
"~  c #55924C",
"^  c #519550",
"/  c #569A56",
"(  c #5D9D5D",
")  c #609D5F",
"_  c #47A547",
"`  c #47A947",
"'  c #4EA44E",
"]  c #4CA94C",
"[  c #55A455",
"{  c #54AD54",
"}  c #5EA35E",
"|  c #66A366",
" . c #67A967",
".. c #6EA76E",
"X. c #76AC76",
"o. c #7DB07D",
"O. c #61D861",
"+. c #82B17D",
"@. c #85B585",
"#. c #89B585",
"$. c #88B688",
"%. c #8DBA8D",
"&. c #90BC8F",
"*. c #94BF94",
"=. c #91C18E",
"-. c #98C297",
";. c #9DC49D",
":. c #A4C7A4",
">. c #A6C9A6",
",. c #ACCDAC",
"<. c #B7C2B2",
"1. c #B1D0B0",
"2. c #BED7BE",
"3. c #C6D1C4",
"4. c #C4DBC4",
"5. c #D6D8D5",
"6. c #D9DAD4",
"7. c #DEDEDE",
"8. c #DAEAD7",
"9. c #DDEDDD",
"0. c #DEF3DE",
"q. c #E4E4E3",
"w. c #E6F2E6",
"e. c #E9F2E9",
"r. c #F2F7F2",
"t. c #FCFDFC",
/* pixels */
"7.7.7.7.7.7.7.7.7.7.7.7.7.7.7.7.7.7.7.7.7.7.7.7.7.7.q.7.7.7.7.7.",
"7.q.7.7.7.7.7.7.7.7.7.7.7.7.7.7.7.7.7.7.7.7.7.7.7.7.q.q.q.7.7.7.",
"7.7.3.#.b # : : < < 1 1 g v v v v v v v 1 1 1 < < : J @.@.3.q.7.",
"7.7.+.8.>.1.1.1.1.1.1.1.,.1.1.1.1.1.1.1.,.1.1.1.,.1.1.1...~ 7.7.",
"7.7.u -.;.;.;.;.,.,.*.:.;.;.;.;.;.;.;.;.;.;.;.;.;.;.;.;.>.& 6.7.",
"7.7.; *.*.*.*.1.t.w.*.*.*.*.*.*.*.*.*.*.*.*.*.*.*.*.*.*.,.& 7.7.",
"7.7.# %.%.%.,.t.t.,.%.%.%.%.%.%.&.%.%.%.&.%.%.%.%.%.%.%.>.& 7.7.",
"7.6.# @.$.>.t.t.,.@.@.@.@.@.@.@.#.@.@.@.@.@.@.@.@.$.@.$.;.% 6.7.",
"7.7.+ o.1.t.t.4.,.1.,.,.,.,.,.,.$.o.o.o.o.o.o.o.o.o.o.o.;.% 7.7.",
"7.6.+ X.r.t.t.t.t.t.t.t.t.t.t.t.9.X.X.X.X.X.X.X.X.X.X.X.*.% 7.7.",
"7.6.+ ..:.t.t.2.:.:.:.:.:.:.:.r.e.......................&.% 5.7.",
"q.6.X | | %.t.t.*.| | | |  . .e.e.| | | | | | | | | | | %.% 5.7.",
"7.5.X ( ( } %.t.t.$.) } } } } w.e.} } } ) ) ( ( ( ( ( ( $.% 5.q.",
"7.5.@ ( / / / @.t.8./ [ [ [ [ e.e.[ [ [ [ [ [ / / / / ( &.o 5.7.",
"7.5.@ ^ Q Q Q Q |  .! ! [ ' ] e.e.] { ' ' ' ! ! ( | ( Q q   5.7.",
"q.5.o u i I U E E W W _ _ _ ` e.e.] { { { ' ! W i # + $ &   5.7.",
"7.6.X $ + + # , 9 x m L P P P w.w.Y c j d s s > ; # # $ &   5.7.",
"7.6.o $ + + # ; ; s s d d j k 0.0.k j j d d s s > ; # $ 6   5.7.",
"7.6.= $ + # ; > > s d j k k k 0.0.N k k j j d s s ; ; & 7 . 5.7.",
"7.6.5 $ + # ; > s d d j k N B 0.0.B N N k j j d s > ; , 7 . 5.7.",
"q.6.5 & + # > > s d j k N N B 0.0.Z B B N k j d s > > , 8 . 5.7.",
"7.5.w & # # > > d d k k N B Z 0.0.Z Z Z N k k d d s > , 8 . 5.7.",
"7.6.w - # ; > s d d k k N Z A 0.t.0.0.0.0.0.0.9.9.9.9.=.0 . 5.7.",
"7.6.w - + ; > > d j k N B Z A O.0.0.0.0.0.0.9.0.0.9.9.=.r . 7.7.",
"7.6.e < + ; > s d j j N N Z Z A R A Z Z B N j j d > > 2 r o 5.7.",
"7.6.e * # # > > s j k k N B Z Z A Z Z B N k j j s s > , r X 5.7.",
"7.6.a 4 , 2 3 f g l z V V C C S S S S C V V z l h f g H 0   5.7.",
"7.6.T T t b b n m M M D F F G G G G F F D D M m m n H K 6 . 6.7.",
"7.7.T e - - 2 3 f f h h l l z z z z z l l h h f 3 3 8 6 X y 7.7.",
"7.7.<.p * * * * * O O O O O O O O O O O O O O X O O O O y <.7.7.",
"7.7.7.7.6.6.6.5.5.5.5.5.6.5.5.5.5.5.5.5.5.5.5.5.5.5.5.6.7.7.7.7.",
"7.7.7.7.7.7.7.7.7.7.7.q.7.7.7.7.7.7.7.7.q.7.7.7.7.7.7.7.7.7.7.7."
};
