/* XPM */
static char * route_manager_xpm[] = {
"32 32 146 2",
"  	c None",
". 	c #DFDFDF",
"+ 	c #20A8BC",
"@ 	c #A8A8A8",
"# 	c #AEADAE",
"$ 	c #CCB3CC",
"% 	c #C9ACC9",
"& 	c #C7A6C7",
"* 	c #932C93",
"= 	c #973697",
"- 	c #983998",
"; 	c #840A84",
"> 	c #FFFFFF",
", 	c #8A138A",
"' 	c #ECDCED",
") 	c #EC92EC",
"! 	c #B47BB4",
"~ 	c #CDCDCD",
"{ 	c #EBACEB",
"] 	c #FB46FC",
"^ 	c #F26AF3",
"/ 	c #EF59EF",
"( 	c #FA22FC",
"_ 	c #E99AE9",
": 	c #EDC5ED",
"< 	c #F59CF6",
"[ 	c #F57CF6",
"} 	c #DF76DF",
"| 	c #BC68BC",
"1 	c #A446A4",
"2 	c #D3C3D3",
"3 	c #F1D576",
"4 	c #DBCBDC",
"5 	c #E4B6E5",
"6 	c #EAB7EA",
"7 	c #F055F0",
"8 	c #F3B9F4",
"9 	c #BE62BE",
"0 	c #B065B0",
"a 	c #F0D36F",
"b 	c #F89EF9",
"c 	c #F888F9",
"d 	c #EE65EE",
"e 	c #C956C9",
"f 	c #EE1CEE",
"g 	c #E1A1E1",
"h 	c #C572C5",
"i 	c #E9CCEA",
"j 	c #FFDBFF",
"k 	c #E7C1E7",
"l 	c #E49EE4",
"m 	c #E62AE6",
"n 	c #DE09DE",
"o 	c #D62AD6",
"p 	c #D042D0",
"q 	c #C623C6",
"r 	c #E773E7",
"s 	c #C87BC8",
"t 	c #E6C9E7",
"u 	c #EBBEEB",
"v 	c #DCADDC",
"w 	c #D894D8",
"x 	c #D9B4D9",
"y 	c #F6A7F7",
"z 	c #F683F7",
"A 	c #E179E2",
"B 	c #B758B9",
"C 	c #A85EA8",
"D 	c #F993F9",
"E 	c #FC6BFD",
"F 	c #C76BC7",
"G 	c #FBF5DF",
"H 	c #F1D77A",
"I 	c #F1D678",
"J 	c #F3DC8C",
"K 	c #EBC43C",
"L 	c #F2D981",
"M 	c #F775F8",
"N 	c #EAC133",
"O 	c #F391F4",
"P 	c #F975FA",
"Q 	c #E1C242",
"R 	c #F883F9",
"S 	c #DFDDD8",
"T 	c #EDD78C",
"U 	c #E7CD71",
"V 	c #DFDBCB",
"W 	c #F0D26B",
"X 	c #DEDDD9",
"Y 	c #EF9CF0",
"Z 	c #F1DC94",
"` 	c #E9BD24",
" .	c #DEDCD6",
"..	c #DFDEDC",
"+.	c #EAC856",
"@.	c #EECB53",
"#.	c #EDC94C",
"$.	c #E4C55C",
"%.	c #DEDEDE",
"&.	c #E1D1E2",
"*.	c #DFDEDE",
"=.	c #F2DC8D",
"-.	c #E6C13E",
";.	c #DEDDDA",
">.	c #C1B492",
",.	c #986691",
"'.	c #98529D",
").	c #C5A4CD",
"!.	c #F4ACF5",
"~.	c #FB5CFC",
"{.	c #D775D7",
"].	c #DFDCD0",
"^.	c #E8C751",
"/.	c #E6C245",
"(.	c #DEDDDB",
"_.	c #DEDEDC",
":.	c #ADA27A",
"<.	c #821982",
"[.	c #B425BD",
"}.	c #C51DC6",
"|.	c #C76EC8",
"1.	c #F9B5FA",
"2.	c #B171B2",
"3.	c #DFDDD6",
"4.	c #DFDBCC",
"5.	c #ECC53F",
"6.	c #A76FAA",
"7.	c #F101F2",
"8.	c #FE2AFF",
"9.	c #D123D1",
"0.	c #B06EA6",
"a.	c #A244AD",
"b.	c #96399F",
"c.	c #D546DF",
"d.	c #EF63FB",
"e.	c #EE4BF9",
"f.	c #D622DA",
"g.	c #B06C9E",
"h.	c #AC7DC1",
"i.	c #BF7BD3",
"j.	c #BA73CC",
"k.	c #E746E7",
"l.	c #D578DB",
"m.	c #B2718E",
"n.	c #BA61CB",
"o.	c #D9C0DD",
". . . . . . . . . . . . . . . . . . . . . . . . . . . . . . . . ",
". + + + + + + + + + + + + + + + + + + + + + + + + + + + + . . . ",
". + @ @ @ @ @ @ @ @ @ @ @ @ @ @ @ @ @ @ @ @ @ @ @ @ @ @ + . . . ",
". + @ @ @ @ @ @ @ @ @ @ @ @ @ @ @ @ @ @ @ @ @ @ @ @ @ @ + . . . ",
". + @ @ @ @ @ @ @ @ @ @ @ @ @ @ @ @ @ @ @ @ @ @ # $ $ % % & & & ",
". + @ @ @ @ @ @ @ @ @ @ @ @ @ @ @ @ @ @ @ @ @ @ % * * = = - * ; ",
". + > > > > > > > > > > > > > > > > > > > > > > > > > > + & , * ",
". + > > > > > > > > ' ) ) ' > > > > > > > > > > > > > > ! , % = ",
". + > ~ ~ ~ ~ ~ ~ { ] ^ / ( _ ~ ~ ~ ~ ~ ~ ~ : < [ } | 1 = 2 3 = ",
". + > ~ ~ ~ ~ ~ 4 ] 5 ~ ~ 6 ( 7 ~ ~ ~ ~ ~ ~ 8 > > > 9 0 + 3 a = ",
". + > > > ' b c d e $ > > > > / f g > > > > 8 > > > h > + 3 3 = ",
". + > > > i j > > k & > > > > > l m n o p q r > > > s > + 3 3 = ",
". + > ~ ~ t j > > u & ~ ~ ~ ~ ~ ~ ~ ~ v w x 8 y z A B > + 3 3 C ",
". + > ~ ~ t j > > u & ~ ~ ~ ~ ~ ~ ~ ~ ~ ~ ~ ~ ~ ~ ~ ~ > + 3 3 . ",
". + > > > > D E r F 2 > > > > > > > > > > > > > > > > > + 3 3 . ",
". + > > > > [ 6 > > > > > > > G a H H H H H H I 3 3 3 3 3 J 3 . ",
". + > ~ ~ ~ E ~ ~ ~ ~ ~ ~ ~ ~ K J L H I H H H I 3 3 3 3 3 3 . . ",
". + > ~ ~ k M ~ ~ ~ ~ ~ ~ ~ ~ K J N ~ ~ ~ ~ ~ ~ ~ ~ ~ > + . . . ",
". + > > > { O > > > > > > > > K J N > > > > > > > > > > + . . . ",
". + > > > O { > > > > > > > > K J N > > > > > > > > > > + . . . ",
". + > > > P i > > > > > > > > K J N > > > > > > > > > > + . . . ",
". + + + + E + + + + + + + + + Q J N + + + + + + + + + + + . . . ",
". . . . k R . . . . . S T K . U J N . V W X . . . . . . . . . . ",
". . . . { Y . . . . . . Z J K K J N ` J J  .. . . . . . . . . . ",
". . . . O 6 . . . . . ..+.J J @.J #.J J $.%.. . . . . . . . . . ",
". . . . R &.. . . . . *.*.K J J J J =.-.;.%.. . . . >.,.'.).. . ",
". . !.O ~.{.).. . . . . . ].^.J J J /.(._.. . . . :.<.[.f }.|.. ",
". . 1.> > > 2.. . . . . 3.*.4.5.L N . _.. . . . . 6., 7.E 8.9.. ",
". . 1.> > > 0.. . . . . . . . . . . . . . . . . . a.b.c.d.e.f.&.",
". . 1.> > > g.. . . . . . . . . . . . . . . . . . ).b.h.i.j.k.. ",
". . y D [ l.m.. . . . . . . . . . . . . . . . . . . | B n.c.5 . ",
". . . . . . . . . . . . . . . . . . . . . . . . . . . . o.. . . "};
