/* XPM */
static const char *sand[]={
"16 16 2 1",
". c None",
"# c #ffc800",
"................",
"................",
"................",
"................",
"................",
"....####....####",
"...#####...#####",
"...###.....###..",
"..####...#####..",
".####....####...",
".#####..#######.",
"################",
"################",
"................",
"................",
"................"};
