/* XPM */
static const char *scin[] = {
/* columns rows colors chars-per-pixel */
"32 32 171 2",
"   c #112129",
".  c #192E3C",
"X  c #1B3139",
"o  c #26323E",
"O  c #112540",
"+  c #162946",
"@  c #1A2E44",
"#  c #162E4E",
"$  c #1A314D",
"%  c #183353",
"&  c #163259",
"*  c #18335B",
"=  c #233141",
"-  c #23364F",
";  c #253D55",
":  c #2B3E51",
">  c #173B67",
",  c #183F77",
"<  c #183F79",
"1  c #223E64",
"2  c #33414E",
"3  c #274759",
"4  c #2D4359",
"5  c #28485A",
"6  c #3C4751",
"7  c #3C4758",
"8  c #3A4A5D",
"9  c #1B4267",
"0  c #19407A",
"q  c #29446A",
"w  c #2E4B6D",
"e  c #32506E",
"r  c #214272",
"t  c #294875",
"y  c #28497A",
"u  c #304C73",
"i  c #375274",
"p  c #33537B",
"a  c #38557B",
"s  c #3B587D",
"d  c #46535D",
"f  c #405567",
"g  c #4A596D",
"h  c #505D6B",
"j  c #525F72",
"k  c #43657F",
"l  c #4F607B",
"z  c #636D75",
"x  c #2E5385",
"c  c #335483",
"v  c #385780",
"b  c #3C5A80",
"n  c #36598D",
"m  c #3B5C8C",
"M  c #2E5794",
"N  c #23539B",
"B  c #29579C",
"V  c #2B599E",
"C  c #3B5E90",
"Z  c #325F9F",
"A  c #3F6296",
"S  c #2456A1",
"D  c #2558A6",
"F  c #275BAA",
"G  c #3A68AD",
"H  c #2C61B0",
"J  c #405E87",
"K  c #456285",
"L  c #46658C",
"P  c #4C6789",
"I  c #4C6A8D",
"U  c #516883",
"Y  c #526F8F",
"T  c #426491",
"R  c #476895",
"E  c #4C6B94",
"W  c #42659A",
"Q  c #4C6C9A",
"!  c #516F93",
"~  c #547295",
"^  c #597697",
"/  c #5C7897",
"(  c #53739B",
")  c #5C7598",
"_  c #5E7A9A",
"`  c #657182",
"'  c #727C85",
"]  c #727C89",
"[  c #607A98",
"{  c #697F9D",
"}  c #456BA3",
"|  c #486CA1",
" . c #4C71A7",
".. c #4E73A9",
"X. c #5273A0",
"o. c #5A79A7",
"O. c #5177AD",
"+. c #547BAD",
"@. c #5B7CAB",
"#. c #567CB3",
"$. c #587FB5",
"%. c #627EA4",
"&. c #627EA8",
"*. c #5A84B3",
"=. c #5D83B9",
"-. c #6582A0",
";. c #6E86A3",
":. c #6E8BA7",
">. c #6685AC",
",. c #6984AC",
"<. c #6088AD",
"1. c #6F88AE",
"2. c #7389A6",
"3. c #6E8BB3",
"4. c #6085BC",
"5. c #6488BD",
"6. c #688EB9",
"7. c #718EB2",
"8. c #6893B6",
"9. c #658CC1",
"0. c #698EC4",
"q. c #6C91C6",
"w. c #699AC4",
"e. c #6D96C8",
"r. c #6E9ECC",
"t. c #7297CC",
"y. c #7499CE",
"u. c #779CD0",
"i. c #7B9FD3",
"p. c #75A3D0",
"a. c #7CA2D5",
"s. c #6CBDDC",
"d. c #80868C",
"f. c #848E9A",
"g. c #8A95A5",
"h. c #9099A1",
"j. c #839CB4",
"k. c #8A9DB9",
"l. c #87A1BC",
"z. c #9EA6B3",
"x. c #A4AAB3",
"c. c #A8ACB1",
"v. c #A3AFBF",
"b. c #ADB2B8",
"n. c #B5B9BE",
"m. c #8DA9C1",
"M. c #80A3D7",
"N. c #82A6D9",
"B. c #86ADDE",
"V. c #89ACDF",
"C. c #87B0DF",
"Z. c #ABB7C6",
"A. c #BBBFC4",
"S. c #ABBBD2",
"D. c #8AAEE0",
"F. c #87B7E5",
"G. c #8EB3E5",
"H. c #92B4E6",
"J. c #94B7E8",
"K. c #96B8EA",
"L. c #9DBFF0",
"P. c #C1C3C6",
"I. c #C4C6CA",
"U. c #C8C9CB",
"Y. c #CBD0D5",
"T. c #CAD0D9",
"R. c #D5D6D7",
"E. c #D4D7DA",
"W. c #DFDFDF",
"Q. c #DEE0E0",
"!. c #E1E1E1",
/* pixels */
"W.W.W.W.W.W.W.W.W.!.S.m < 0 0 0 0 0 , , n k.!.W.W.W.W.W.W.W.W.W.",
"W.W.W.W.W.W.W.W.W.W.M j.j.j.j.j.j.j.j.j.l.| !.!.W.W.W.W.W.W.W.W.",
"W.W.!.Q.W.W.W.W.W.W.N -.-.-.-.-.-.-.-.-.;.V Q.Q.W.W.W.W.W.W.W.W.",
"W.W.Z.} B N N S D F F / / ) / / / / / ^ [ H F D B N N N ,.W.W.W.",
"W.W.v.} ) _ [ [ [ [ [ ~ ~ ~ ^ ) ^ ^ ^ ~ Y / _ / / [ [ %.N.E.W.W.",
"W.W.W.c v K K K K K I I E ~ ~ ( ( ~ ( ~ ! I P K K K K ^ c W.W.W.",
"W.W.W.z.& a s s b K L I E ( ( ( ( ( ( Q E E L K s U 2.i g.W.W.W.",
"W.W.W.!.` % u p s m L R E ( ( X.( X.( ( E ( 2.;.{ P # j W.W.W.W.",
"W.W.W.W.W.: 1 p c m T Q Q  .o.,.3.3.7.7.1.o.c y r * - R.W.W.W.W.",
"W.W.W.W.W.A.+ t c J Q X.@.&.@.+... . .| W C n c t O b.W.W.W.W.W.",
"W.W.W.W.W.W.f.# c m W W  .O.#.$.$.$.#.O.O.Q W m % ] W.W.W.W.W.W.",
"W.W.W.W.W.W.W.g q W | O.#.=.4.5.9.9.=.$.#...| u 8 W.W.W.W.W.W.W.",
"W.W.W.W.W.W.W.Y.- T O.#.4.5.0.q.0.q.0.9.=.$.R @ U.W.W.W.W.W.W.W.",
"W.W.W.W.W.W.W.W.x.% +.4.9.q.t.y.u.y.t.0.9.*.$ h.W.W.W.W.W.W.W.W.",
"W.W.W.W.W.W.W.W.W.` w 9.q.y.i.M.N.M.i.y.t.e h W.W.W.W.W.W.W.W.W.",
"W.W.W.W.W.W.W.W.W.E.: E y.a.N.V.D.D.N.i.( = R.W.W.W.W.W.W.W.W.W.",
"W.W.W.W.W.W.W.W.W.W.n.@ 8.M.B.H.K.H.D.q.. c.W.W.W.W.W.W.W.W.W.W.",
"W.W.W.W.W.W.W.W.W.W.W.' ; a.V.H.L.J.B.4 z W.W.W.W.W.W.W.W.W.W.W.",
"W.W.!.W.W.W.W.W.W.W.W.W.2 k B.G.J.G.I o W.W.W.W.W.W.W.W.W.W.W.W.",
"W.W.W.W.W.W.W.W.W.W.!.!.U.  <.B.C.8.  P.W.W.W.W.W.W.W.W.W.W.W.W.",
"W.W.W.W.W.W.W.W.W.W.W.W.W.f.X r.p.X d.W.W.W.W.W.W.W.W.W.W.W.W.W.",
"W.W.W.W.W.W.W.W.W.W.W.W.W.W.d 3 5 6 W.!.W.W.W.W.W.W.W.W.W.W.W.W.",
"W.W.W.W.W.W.W.W.W.W.W.W.W.W.W.o o R.!.W.W.W.W.W.W.W.W.W.!.W.W.W.",
"W.W.W.W.W.W.W.W.W.W.W.W.W.W.W.!.Q.W.W.W.W.W.W.W.W.W.W.W.W.W.W.W.",
"W.W.W.!.W.W.W.W.W.W.Q.W.W.Y.5.G s.6.T.W.W.W.W.W.W.W.W.W.W.W.W.W.",
"W.W.W.W.W.W.W.W.W.W.W.W.Y.Z @.l.m.7.Z Y.W.W.W.W.W.W.W.W.W.W.W.W.",
"W.W.W.W.W.W.W.W.W.W.W.W.@.T :.:.:.:.R %.W.W.W.W.W.W.W.W.W.W.W.W.",
"W.W.W.W.W.W.W.W.W.W.W.Q.n P ~ [ >.%.I x W.W.W.W.W.W.W.W.W.W.W.!.",
"W.W.W.W.W.W.W.W.W.W.W.Q.x 9 x *.6.*.c t W.W.W.W.W.W.W.W.W.W.W.W.",
"W.W.W.W.W.W.W.W.W.W.W.W.U 9 A w.F.e.> l W.W.!.W.W.W.W.W.W.W.W.W.",
"!.W.W.W.W.W.W.W.W.W.Q.Q.I.$ q *.w.p + U.W.W.W.W.W.W.W.W.W.W.W.W.",
"W.W.W.W.W.W.W.W.W.Q.Q.Q.Q.P.7 - 5 f P.W.W.W.W.W.W.W.W.W.W.W.W.W."
};
