/* XPM */
static const char *scout[] = {
/* columns rows colors chars-per-pixel */
"32 32 173 2",
"   c #060B10",
".  c #0C131E",
"X  c #0D1522",
"o  c #0E1A2D",
"O  c #0B1F3B",
"+  c #1A2433",
"@  c #14233C",
"#  c #182739",
"$  c #1D2A3C",
"%  c #202730",
"&  c #0E2341",
"*  c #112544",
"=  c #122848",
"-  c #182F4F",
";  c #1C314D",
":  c #173053",
">  c #17335C",
",  c #253245",
"<  c #2E3642",
"1  c #21324A",
"2  c #333D49",
"3  c #283D5C",
"4  c #1B3B67",
"5  c #223D64",
"6  c #214153",
"7  c #38475B",
"8  c #3D4A5B",
"9  c #244369",
"0  c #354965",
"q  c #324A6C",
"w  c #2A5668",
"e  c #294774",
"r  c #29497B",
"t  c #324B71",
"y  c #2D5D7E",
"u  c #345379",
"i  c #3B587D",
"p  c #424953",
"a  c #474F59",
"s  c #495462",
"d  c #40536E",
"f  c #48566B",
"g  c #515E70",
"h  c #5D656F",
"j  c #436172",
"k  c #4F617B",
"l  c #5F6A78",
"z  c #1F4C8F",
"x  c #2D5186",
"c  c #345482",
"v  c #335F81",
"b  c #3C5B81",
"n  c #36588B",
"m  c #3B5B8C",
"M  c #214F94",
"N  c #215197",
"B  c #2A5697",
"V  c #23539B",
"C  c #3C5F91",
"Z  c #345F9E",
"A  c #3F6296",
"S  c #36609F",
"D  c #2456A1",
"F  c #2C5CA6",
"G  c #285EAE",
"H  c #345FA0",
"J  c #3165B3",
"K  c #415C84",
"L  c #415F88",
"P  c #456385",
"I  c #456388",
"U  c #4A678C",
"Y  c #4C6A8E",
"T  c #506B8D",
"R  c #436593",
"E  c #486796",
"W  c #466895",
"Q  c #4E6D95",
"!  c #466A9F",
"~  c #4A6C98",
"^  c #506F93",
"/  c #596F93",
"(  c #547397",
")  c #5B7595",
"_  c #54739B",
"`  c #58769B",
"'  c #5D7B9C",
"]  c #667283",
"[  c #6E7781",
"{  c #717A88",
"}  c #617C9B",
"|  c #476BA0",
" . c #486CA1",
".. c #4D72A7",
"X. c #4F74AA",
"o. c #5374A2",
"O. c #5B7BA3",
"+. c #5277AD",
"@. c #5B7DAA",
"#. c #416DB0",
"$. c #4F78B5",
"%. c #567CB3",
"&. c #587FB6",
"*. c #637DA1",
"=. c #617DA8",
"-. c #4982A8",
";. c #5085AE",
":. c #5E82B7",
">. c #5D83BA",
",. c #6582A0",
"<. c #6581AA",
"1. c #6986AD",
"2. c #7388A7",
"3. c #788BA5",
"4. c #748DAB",
"5. c #6283B2",
"6. c #6286BC",
"7. c #6489BD",
"8. c #6D8EBB",
"9. c #778FB0",
"0. c #748FB9",
"q. c #7692B4",
"w. c #7896B3",
"e. c #7593BD",
"r. c #7894BA",
"t. c #7C9BB9",
"y. c #519DCA",
"u. c #658AC0",
"i. c #688EC3",
"p. c #6C91C6",
"a. c #7194C7",
"s. c #7B9CC1",
"d. c #7296CA",
"f. c #7599CE",
"g. c #779CD0",
"h. c #7B9FD2",
"j. c #7EA2D6",
"k. c #83878E",
"l. c #848D9A",
"z. c #8D939B",
"x. c #9097A2",
"c. c #839CB4",
"v. c #87A2BD",
"b. c #A4A9B1",
"n. c #ACB1B8",
"m. c #B1B8BD",
"M. c #85A7CD",
"N. c #93ACCF",
"B. c #80A4D7",
"V. c #82A6D9",
"C. c #86A9DC",
"Z. c #89ACDF",
"A. c #AEB9C8",
"S. c #BBBFC4",
"D. c #8BAEE0",
"F. c #8FB2E4",
"G. c #91B3E5",
"H. c #94B6E8",
"J. c #96B8EA",
"K. c #9DBFF0",
"L. c #A2BCE3",
"P. c #BDC4C7",
"I. c #C1C3C6",
"U. c #C4C6CA",
"Y. c #C8C9CB",
"T. c #CBD0D5",
"R. c #CAD0D9",
"E. c #D4D5D6",
"W. c #D6D8DB",
"Q. c #DFDFDF",
"!. c #DFDFE0",
"~. c #DDE0E1",
"^. c #E1E1E1",
/* pixels */
"Q.Q.Q.Q.Q.Q.Q.Q.Q.Q.Q.Q.Q.P.j w 6 8 I.Q.Q.Q.Q.Q.Q.Q.Q.Q.Q.Q.Q.Q.",
"Q.Q.Q.Q.Q.Q.Q.Q.Q.Q.Q.Q.U.; y -.-.v ; U.Q.Q.Q.Q.Q.Q.Q.Q.Q.^.Q.Q.",
"Q.Q.Q.Q.Q.Q.Q.Q.Q.Q.Q.Q.k 9 C p.j.i.u k Q.Q.Q.Q.Q.Q.Q.Q.Q.Q.Q.Q.",
"Q.Q.Q.Q.Q.Q.Q.^.Q.Q.Q.!.e 4 A a.F.d.~ e Q.Q.Q.Q.Q.Q.Q.Q.Q.Q.Q.Q.",
"Q.Q.Q.Q.Q.Q.Q.Q.!.!.Q.Q.x Y <.s.M.s.' x Q.Q.Q.Q.Q.Q.Q.Q.Q.Q.Q.Q.",
"Q.Q.Q.Q.Q.Q.Q.Q.!.!.Q.Q.,.C 4.q.t.w.W =.Q.Q.Q.Q.Q.Q.Q.Q.Q.Q.Q.Q.",
"Q.Q.Q.Q.Q.Q.Q.Q.!.!.Q.Q.R.H 1.v.v.;.Z T.Q.Q.Q.Q.Q.Q.Q.Q.Q.Q.Q.Q.",
"Q.Q.Q.Q.Q.Q.Q.Q.!.Q.Q.Q.Q.R.e.$.y.7.T.Q.Q.Q.Q.Q.Q.Q.^.Q.Q.Q.Q.Q.",
"Q.Q.Q.Q.Q.Q.~.Q.Q.Q.Q.Q.Q.Q.Q.Q.Q.Q.Q.Q.Q.Q.Q.Q.Q.^.Q.Q.Q.Q.Q.Q.",
"Q.Q.Q.Q.Q.Q.Q.^.Q.Q.Q.Q.Q.Q.W.2 < E.Q.Q.!.Q.Q.Q.Q.^.Q.Q.Q.Q.Q.Q.",
"Q.^.Q.Q.Q.Q.Q.^.!.Q.Q.Q.Q.Q.a # $ p Q.Q.!.!.Q.~.^.Q.Q.Q.Q.Q.Q.Q.",
"Q.Q.Q.Q.Q.Q.Q.^.~.!.Q.Q.Q.z.. 8.a.X k.!.!.!.~.~.~.Q.Q.Q.Q.Q.Q.Q.",
"Q.Q.Q.Q.Q.Q.Q.Q.~.~.Q.Q.U.. ( j.B.}   I.~.Q.~.~.Q.Q.Q.Q.Q.Q.Q.^.",
"Q.Q.Q.Q.Q.Q.Q.Q.Q.~.~.!.< 0 B.C.Z.C.d % ~.~.~.~.Q.Q.Q.Q.Q.Q.Q.Q.",
"Q.Q.Q.Q.Q.Q.Q.Q.Q.~.~.[ @ j.C.F.H.F.C.$ h ~.~.Q.Q.Q.Q.Q.Q.Q.Q.Q.",
"Q.Q.Q.Q.Q.Q.Q.Q.Q.Q.m.o 5.j.Z.J.K.H.D.0.X b.Q.Q.Q.Q.Q.Q.Q.Q.Q.Q.",
"Q.Q.Q.Q.Q.Q.Q.Q.Q.Q., b g.j.D.G.H.F.Z.j.U + E.Q.Q.Q.Q.Q.Q.Q.Q.Q.",
"Q.Q.Q.Q.Q.Q.Q.Q.Q.l > u.d.h.V.D.D.D.V.h.d.3 s Q.Q.Q.Q.Q.Q.Q.Q.Q.",
"Q.Q.Q.Q.Q.Q.Q.Q.b.& %.u.p.f.h.j.V.j.h.d.p.:.O x.Q.Q.Q.Q.Q.Q.Q.Q.",
"Q.Q.Q.Q.Q.Q.Q.T.- m %.>.u.p.d.g.g.g.d.p.u.>.R @ Y.Q.Q.Q.Q.Q.Q.Q.",
"Q.Q.Q.Q.Q.Q.Q.f 5 ! o.%.>.7.i.p.p.p.i.u.>.&.X.9 7 Q.Q.Q.Q.Q.Q.Q.",
"Q.Q.Q.Q.Q.Q.l.* n R | X.%.:.6.7.u.u.>.:.%.X. .A = { Q.Q.Q.Q.Q.Q.",
"Q.Q.Q.Q.Q.S.* e m R ..@.:.7.6.:.&.&.%.+...! A n r O n.Q.Q.Q.Q.Q.",
"Q.Q.Q.Q.Q.3 5 n L R E o.o.@.5.q.e.e.e.r.0.<.m c r > 1 E.Q.Q.Q.Q.",
"^.Q.Q.Q.] : u b b W ^ _ o.O.@.=.@.@.@.O.o.O.9.9.2./ - g Q.Q.Q.Q.",
"Q.Q.Q.b.= u i K P Y ^ _ ` o.O.@.@.@.O.o._ ( Q U I T 3.7 x.Q.Q.Q.",
"Q.Q.Q.q u P P P U T ( ( ` o.;.O.O.O.O.' ` / ^ Y I K P ) t Q.Q.Q.",
"Q.Q.n.E ) } ) } ) ' ,.) ' ' } } O.} ' ' ' *.} } } } } } L.W.Q.Q.",
"Q.Q.A.! B z M N N V V ' ' ' ,.,.,.,.} ' } F D V V M M M 1.Q.Q.Q.",
"Q.Q.Q.^.Q.Q.Q.Q.Q.Q.G ,.,.,.,.,.,.,.,.,.2.J Q.Q.Q.Q.Q.Q.Q.Q.Q.Q.",
"Q.Q.Q.Q.Q.Q.Q.Q.!.!.H t.c.c.c.c.c.c.v.c.c.#.^.Q.Q.Q.Q.Q.Q.Q.Q.Q.",
"Q.Q.Q.Q.Q.Q.Q.Q.!.!.N.S z z z z z z z z Z r.^.Q.Q.Q.Q.Q.Q.Q.Q.Q."
};
