/* XPM */
static const char *scuba[]={
"16 16 3 1",
". c None",
"# c #ff0000",
"a c #ffffff",
"................",
"................",
"................",
"..#############.",
"..#aa##########.",
"..#aaaa########.",
"..###aaaa######.",
"..#####aaa#####.",
"..#######aaa###.",
"..########aaaa#.",
"..##########aa#.",
"..#############.",
"................",
"................",
"................",
"................"};
