/* XPM */
static const char *settings[] = {
/* columns rows colors chars-per-pixel */
"32 32 56 1",
"  c #1C1D1C",
". c #232423",
"X c #292C2C",
"o c #333433",
"O c #373838",
"+ c #3B3C3B",
"@ c #424444",
"# c #4C4D4C",
"$ c #4F504F",
"% c #4A4E50",
"& c #535453",
"* c #575857",
"= c #5B5C5B",
"- c #60605F",
"; c #5F6161",
": c #636463",
"> c #676866",
", c #686A67",
"< c #6C6D6C",
"1 c #737472",
"2 c #787877",
"3 c #7B7C7B",
"4 c #7F817E",
"5 c #80827F",
"6 c #7E7F80",
"7 c #848483",
"8 c #878885",
"9 c #898A87",
"0 c #8C8D8B",
"q c #8F908D",
"w c #91918F",
"e c #8D9090",
"r c #949493",
"t c #979896",
"y c #9A9C99",
"u c #9FA09E",
"i c #A4A4A3",
"p c #A7A8A6",
"a c #ACADAB",
"s c #B0B2AE",
"d c #B3B3B3",
"f c #B9B9B7",
"g c #B7B8B8",
"h c #BBBBBB",
"j c #C0C1BF",
"k c #C4C5C4",
"l c #C6C8C7",
"z c #CBCBCB",
"x c #CFD0CE",
"c c #D4D4D3",
"v c #DFDFDF",
"b c #E4E5E4",
"n c #E7E8E7",
"m c #EBECEB",
"M c #F5F5F4",
"N c #FAFAFA",
/* pixels */
"vvvvvvvvvvvvvvvvvvvvvvvfhjlvvvvv",
"vvvvvvvvvvvvvbvvvvvvvdcmnckucvvv",
"vvvvvvvvvvvvvvvvvvvbavmNnf:$fvvv",
"bvvvvvvvvvvvvvvvvvvvqvmNk@scvvvv",
"vvvvvvvvvvbvvvvbvvvx0vnMkcvvvvvv",
"vvvvvbvvvvvvvvvvvvvu8cnmvcvvvvvv",
"vvvvvvvvvvvvvvvvvvv8iabmmacvvzuv",
"vvvvvvvvvvvvvvvvvvv0s7vvbc9pah*c",
"bvvvbvvvvvvvvvvvvvzah6=7bvp7kh:v",
"vvvvvvvvvvvvvvvvvvtl;@e@xvkwk*zv",
"vvvvvvvvvvvvvvvvvvic0Xg%6vc5&1vv",
"vvvvvvvvvvvvvvvbvazbc%&-jca<8vvv",
"vvvvvvvvvvvvvvvci7+&mzz1>:2fvvvv",
"vvbvvvvvvvvvvvci2O@-m6<iccvvvvvv",
"vvvvvvvvvbvvvcy>.o$x6xvvvvvvvvvv",
"vvvvvvvvvvvvcr= .Od9lvvvbvvvvvvv",
"vvvvvvvvvvvx0&  .t0jvvvvvvvvvvvv",
"vvvbvvvvvvz7$.  60dvvbvvvvvvvvvv",
"vvvvvvvvvk6$OoX>9ivvvvvvvvvvvvvv",
"vvvvvvvvk9&#@+-9rvvvvvvvvvvvvvvb",
"vvvvvvvki=-*&=96vvvvvvvvvvvvvvvv",
"vvvvvvja:<<:-6<vvvvvvvvvvvbvvvvv",
"vvvvvfr:263<6-vvvvvvvvvvvvvvvvvv",
"vvvvd1-16023&cvvvvvvvvvvvvvvvvvv",
"vbvs1&:<62y&xvvvvvvvvvvvvvvvvvbv",
"vvs6:*=:>p<lvvvvbvvvvvvvvvvvvvvv",
"vj6$#12*tehvvvvvvvvvvvvvvvvvvvvv",
"v3:zv9w2eavvvvvvvvvvvvvvvvvvvvvv",
"v<1vvk71ivvvvvvbvvvvvvvbvvvvvvvv",
"v<5fj8,wvvvvvvvvvvvvvvvvvvvvvvvv",
"vz#23&4vvvvvvvvvvvvvvvvvvvbvvvvv",
"vvz01pvvvvvvvvvvvvvvvvvvvvvvvvvv"
};
