/* XPM */
static const char *shoal[]={
"16 16 4 1",
". c None",
"a c #0000ef",
"# c #0097cf",
"b c #7f7f00",
"................",
".....####.......",
"....aa####......",
"....abb#aa##....",
"....abbaab###...",
"...####abbb###..",
"..aa###abbb###..",
"..abb#########..",
"..abb#####aa##..",
"...#aabbb#ab##..",
"...#abbbb#ab##..",
"...#aabbb#####..",
"....##bb######..",
".....#########..",
"......#####.....",
"................"};
