/* XPM */
static const char *snag[]={
"16 16 2 1",
". c None",
"# c #000000",
"................",
"................",
"...##....##.....",
"..#..#..#..#....",
".#....##....#...",
"........#.......",
"........#.......",
".......#........",
".......#........",
"......#.........",
".....##.........",
"....#..#........",
"....#..#........",
".....##.........",
"................",
"................"};
