/* XPM */
static const char *text[] = {
/* columns rows colors chars-per-pixel */
"32 32 205 2",
"   c gray3",
".  c #0C0C0C",
"X  c #0E0E0E",
"o  c gray6",
"O  c gray9",
"+  c #222222",
"@  c gray18",
"#  c gray20",
"$  c #3C3C3C",
"%  c #3F3F3F",
"&  c #0F6A0F",
"*  c #13670F",
"=  c #10690F",
"-  c #097709",
";  c #0D7D0D",
":  c #146B11",
">  c #137413",
",  c #187F16",
"<  c #1E7D1D",
"1  c #226A17",
"2  c #327525",
"3  c gray25",
"4  c #414141",
"5  c gray26",
"6  c #434343",
"7  c #444444",
"8  c gray27",
"9  c #464646",
"0  c gray28",
"q  c #484848",
"w  c #494949",
"e  c gray29",
"r  c #4B4B4B",
"t  c #4C4C4C",
"y  c gray30",
"u  c #4E4E4E",
"i  c #505050",
"p  c #515151",
"a  c #535353",
"s  c gray33",
"d  c #565656",
"f  c gray34",
"g  c gray35",
"h  c #5A5A5A",
"j  c #5D5D5D",
"k  c gray37",
"l  c #5F5F5F",
"z  c #406E40",
"x  c #606060",
"c  c gray38",
"v  c gray39",
"b  c #646464",
"n  c #656565",
"m  c gray40",
"M  c #676767",
"N  c #686868",
"B  c DimGray",
"V  c #6A6A6A",
"C  c gray42",
"Z  c #6C6C6C",
"A  c #6D6D6D",
"S  c gray43",
"D  c #717171",
"F  c #747474",
"G  c #7B7B7B",
"H  c #7C7C7C",
"J  c #118411",
"K  c #148412",
"L  c #188214",
"P  c #1E8316",
"I  c #1E8019",
"U  c #189215",
"Y  c #278E1C",
"T  c #2C8A1C",
"R  c #229C17",
"E  c #308725",
"W  c #318726",
"Q  c #2C9820",
"!  c #2C9E23",
"~  c #349521",
"^  c #3B9A24",
"/  c #32982E",
"(  c #3D8E30",
")  c #3BA92A",
"_  c #40A229",
"`  c #45A62B",
"'  c #40A82F",
"]  c #41B322",
"[  c #4CBA28",
"{  c #50BC2A",
"}  c #43AA30",
"|  c #47AB31",
" . c #4FA53F",
".. c #45AA38",
"X. c #4FB032",
"o. c #50B53B",
"O. c #5AB33B",
"+. c #53B83B",
"@. c #4FA042",
"#. c #49A747",
"$. c #58AD46",
"%. c #5EB640",
"&. c #58AE58",
"*. c #5EA95E",
"=. c #62BE52",
"-. c #64BD54",
";. c #68BA53",
":. c #66BF59",
">. c #6FAD6C",
",. c #65BA63",
"<. c #6BBC64",
"1. c #7FAC7F",
"2. c #7AC176",
"3. c #90C67F",
"4. c #808080",
"5. c gray51",
"6. c #838383",
"7. c #848484",
"8. c #868686",
"9. c #888888",
"0. c #898989",
"q. c gray54",
"w. c #8B8B8B",
"e. c gray55",
"r. c #8D8D8D",
"t. c #8E8E8E",
"y. c gray56",
"u. c #909090",
"i. c #929292",
"p. c gray58",
"a. c #9F9F9F",
"s. c #89B385",
"d. c #A0A0A0",
"f. c #A2A2A2",
"g. c gray64",
"h. c gray65",
"j. c gray66",
"k. c #AAAAAA",
"l. c #AEAEAE",
"z. c #AFAFAF",
"x. c gray70",
"c. c gray71",
"v. c #B6B6B6",
"b. c #B7B7B7",
"n. c #B9B9B9",
"m. c #BBBBBB",
"M. c gray",
"N. c #89C189",
"B. c #93CE93",
"V. c #95CF93",
"C. c #95CA95",
"Z. c #97D191",
"A. c #99D392",
"S. c #9CD395",
"D. c #9DD299",
"F. c #9FD19D",
"G. c #A6D8A4",
"H. c #AED3A9",
"J. c #ADD7AC",
"K. c #B3D9A3",
"L. c #B6DEB6",
"P. c #BEDCBE",
"I. c #BFDCBF",
"U. c #C2E2B8",
"Y. c gray76",
"T. c gray77",
"R. c #C5C5C5",
"E. c #C6C6C6",
"W. c gray78",
"Q. c #C8C8C8",
"!. c gray79",
"~. c #CACACA",
"^. c #CBCBCB",
"/. c #CECECE",
"(. c #C9D5C8",
"). c #CAD6C9",
"_. c #CED9CB",
"`. c #D0DACC",
"'. c gray82",
"]. c gray83",
"[. c gray84",
"{. c #D7D7D7",
"}. c #D4DAD3",
"|. c #D7DCD5",
" X c #D8DDD6",
".X c #D8DED6",
"XX c gray85",
"oX c gray86",
"OX c gainsboro",
"+X c #DDDDDD",
"@X c #DFDFDD",
"#X c gray87",
"$X c #DFDEDE",
"%X c #DFDFDE",
"&X c #DFDFDF",
"*X c #E0DFDA",
"=X c #CBE6CB",
"-X c #D2E6D2",
";X c #E2E2D3",
":X c #E1E0D7",
">X c gray88",
",X c #E1E1E1",
"<X c gray89",
"1X c #E4E4E4",
"2X c gray90",
/* pixels */
"&X&X&X&X&X&X&X&X&X&X&X&X&X&X&X&X&X&X&X&X&X&X&X&X&X&X&X&X&X&X&X&X",
"&X&X&X&X&X&X&X&X&X&X&X&X&X&X&X&X&X&X&X&X&X&X&X&X&X&X&X&X&X&X&X&X",
"&X&X&X&X&X&X&X&X&X&X&X&X&X&X&X&X&X&X&X&X&X&X&X&X&X&X&X&X&X&X&X&X",
"&X&X&X&X&X&X&X&X&X&X&X&X&X&X&X&X/.8.&X&X&X&X&X&X&X&X&X&X&X&X&X&X",
"&X&X&X&X&X&X&X&X&X&X&X&X&X&X&X&X5.B {.&X&X&X&X&X&X&X&X&X&X&X&X&X",
"&X&X&X&X&X&X&X&X&X&X&X&X&X&X&Xn.M 5 c.&X&X&X&X&X&X&X&X&X&X&X&X&X",
"&X&X&X&X&X&X&X&X&X&X&X&X&X&X#XV u o e.&X&X&X&X&X&X&X&X&X&X&X&X&X",
"&X&X&X&X&X&X&X&X&X&X&X&X&X&Xa.d O   N &X&X&X&X&X&X&X&X&X&X&X&X&X",
"&X&X&X&X&X&X&X&X&X&X&X&X&X[.g % X X x &X&X&X&X&X&X&X&X&X&X&X&X&X",
"&X&X&X&X&X&X&X&X&X&X&X&X&X8.t f.. @ i &X&X&X&X&X&X&X&X&X&X&X&X&X",
"&X&X&X&X&X&X&X&X&X&X&X&XR.r a.!.. 8 w ].&X&X&X&X&X&X&X&X&X&X&X&X",
"&X&X&X&X&X&X&X&X&X&X&X&XS h &X&X+ 8 i n.&X&X&X&X&X&X&X&X&X&X&X&X",
"&X&X&X&X&X&X&X&X&X&X&Xl.0 b.&X&Xu 7 i g.&X&X&X&X&X&X&X&X&X&X&X&X",
"&X&X&X&X&X&X&X&X&X&XOXh D &X&X&XA 5 i y.&X&X&X&X&X&X&X&X&X&X&X&X",
"&X&X&X&X&X&X&X&X&X&Xp.q !.&X&X&X9.5 i H &X&X&X&X&X&X&X&X&X&X&X&X",
"&X&X&X&X&X&X&X&X&X'.e 7.&X&X&X&Xj.4 p Z &X&X&X&X&X&X&X&X&X&X&X&X",
"&X&X&X&X&X&X&X&X&XG r [.&X&X&X&XQ.% p M ].&X&X&X&X&X&X&X&X&X&X&X",
"&X&X&X&X&X&X&X&XM.4 9 i e 9 7 7 p 3 a C m.&X>X>X&X&X&X&X&X&X&X&X",
"&X&X&X&X&X&X&X#Xv s i.t.w.q.0.0.t.i s A d.>X1X2X,X&X&X&X&X&X&X&X",
"&X&X&X&X&X&X&Xh.$ z.&X&X&X&X&X&X&XF y m 6.&X<XH.o.+.U.&X&X&X&X&X",
"&X&X&X&X&X&X{.i N &X&X&X&X&X&X&X&Xu.e g c &X>X..I.-X;.|.&X&X&X&X",
"&X&X&X&X&X&X8.4 Y.&X&X&X&X&X&X&X&Xz.d g 5 &X&XQ P.=X$.`.&X&X&X&X",
"&X&X&X&X&XM.9 G &X&X&X&X&X&X&X&X&X^.m x # ~.&XY J.L. ._.&X&X&X&X",
"&X&X&X&XOXb 7 v.&X&X&X&X&X&X&X&X&XoXn z J K L P F.G.@.^ ` O.K.&X",
"&X&X&X+Xr.e 6 T.&X&X&X&X&X&X&X&X&Xx.j ; N.C.B.V.Z.A.S.D.2.#.%..X",
"&X&X~.Z i w 6 k r.XX&X&X&X&X&Xk.4.l f - *.&.,.<.:.=.-.) R U X. X",
"&X&XXX!.Q.W.E.E.R.+X&X&X&X&X&X/.W.~.!.1.> & = : } ] ( T ~ _ 3.&X",
"&X&X&X&X&X&X&X&X&X&X&X&X&X&X&X&X&X&X&X&X&X&X$X* | { W (.&X&X&X&X",
"&X&X&X&X&X&X&X&X&X&X&X&X&X&X&X&X&X&X&X&X&X&X:X1 ' [ E ).&X&X&X&X",
"&X&X&X&X&X&X&X&X&X&X&X&X&X&X&X&X&X&X&X&X&X@X;X2 / ! I }.&X&X&X&X",
"&X&X&X&X&X&X&X&X&X&X&X&X&X&X&X&X&X&X&X&X&X%X*Xs.< , >.&X&X&X&X&X",
"&X&X&X&X&X&X&X&X&X&X&X&X&X&X&X&X&X&X&X&X&X&X&X&X&X&X&X&X&X&X&X&X"
};
