/* XPM */
static const char *tide[] = {
/* columns rows colors chars-per-pixel */
"32 32 115 2",
"   c black",
".  c gray5",
"X  c gray8",
"o  c #1B1B1B",
"O  c #222222",
"+  c #535353",
"@  c #585858",
"#  c #6F6F6F",
"$  c #0FB309",
"%  c #1CB419",
"&  c #24B422",
"*  c #2BB524",
"=  c #2AB62B",
"-  c #35B930",
";  c #3AB53D",
":  c #37BB3D",
">  c #3CBB44",
",  c #44BA45",
"<  c #44BB4E",
"1  c #4BB754",
"2  c #53BC5E",
"3  c #53CD53",
"4  c #50C25F",
"5  c #57CF59",
"6  c #5BD05F",
"7  c #51C261",
"8  c #56C268",
"9  c #58C768",
"0  c #5BC371",
"q  c #61C167",
"w  c #65C36D",
"e  c #60D266",
"r  c #64D36C",
"t  c #65C877",
"y  c #67CB78",
"u  c #68CB7B",
"i  c #73C776",
"p  c #76C871",
"a  c #67D570",
"s  c #6AD674",
"d  c #6ED779",
"f  c #71D77F",
"g  c #71D87E",
"h  c #6EC889",
"j  c #7DCB86",
"k  c #72C98C",
"l  c #6ED281",
"z  c #74D783",
"x  c #76DA84",
"c  c #7CD48A",
"v  c #7BDC8C",
"b  c #77CA90",
"n  c #79CA95",
"m  c #7FDC92",
"M  c gray53",
"N  c #A0A0A0",
"B  c gray69",
"V  c gray75",
"C  c #88CD9C",
"Z  c #99C99D",
"A  c #83D097",
"S  c #82DE95",
"D  c #86D29C",
"F  c #85DD99",
"G  c #9BD29A",
"H  c #86E09C",
"J  c #89E19F",
"K  c #9ED1AA",
"L  c #A2D5A2",
"P  c #A5D8A6",
"I  c #AED4AC",
"U  c #A6D9A8",
"Y  c #A9DAAD",
"T  c #A6D3B4",
"R  c #A8D4B7",
"E  c #B5D6B4",
"W  c #B0DCB6",
"Q  c #B8D5BA",
"!  c #B3DEBB",
"~  c #8CE2A4",
"^  c #8FE3A8",
"/  c #92E4AC",
"(  c #96E6B2",
")  c #99E7B5",
"_  c #9AE7B8",
"`  c #9DE8BB",
"'  c #A5E6B8",
"]  c #A1E9BF",
"[  c #B1E1B3",
"{  c #B7DFC0",
"}  c #BCDCC4",
"|  c #A3EAC3",
" . c #ACEDCB",
".. c #B7E0C2",
"X. c #B3EECE",
"o. c #B5EFD2",
"O. c #B5F0D6",
"+. c #BEF1D8",
"@. c #C0C0C0",
"#. c gray79",
"$. c #C3D9C4",
"%. c #C4DBCB",
"&. c #CDDBCE",
"*. c #D0D0D0",
"=. c #D3DED4",
"-. c #DFDFDF",
";. c #C3F2DD",
":. c #CDF5E3",
">. c #D1F6E6",
",. c #D8F7EA",
"<. c #DEF8EE",
"1. c #E2F9F2",
"2. c #EAFBF6",
"3. c #EEFCF8",
"4. c #F4FDFA",
/* pixels */
"-.-.-.-.-.-.-.-.-.-.-.-.-.-.-.-.-.-.-.-.-.-.-.-.-.-.-.-.-.-.-.-.",
"-.-.-.-.-.-.-.-.-.-.-.-.-.-.-.-.-.-.-.-.-.-.-.-.-.-.-.-.-.-.-.-.",
"-.-.V -.-.-.-.-.-.-.-.-.#.+ + + + + + + + + + @ -.-.-.-.-.-.-.-.",
"-.*.N *.-.-.-.-.-.-.-.-.@.o o o o .   X o o o O -.-.-.-.-.-.-.-.",
"-.B N B -.-.-.-.-.-.-.-.-.-.-.-.-.#   N -.-.-.-.-.-.-.-.-.-.-.-.",
"-.-.N -.-.-.-.-.-.-.-.-.-.-.-.-.-.#   N -.-.-.-.-.-.-.-.-.-.-.-.",
"-.-.N -.-.-.-.-.-.-.-.-.-.-.-.-.-.#   N -.-.-.-.-.-.-.-.-.-.-.-.",
"-.-.N -.-.-.-.-.-.-.-.-.-.-.-.-.-.#   N -.-.-.-.-.-.-.-.-.-.-.-.",
"-.-.N -.-.-.-.-.-.-.-.-.-.-.-.-.-.#   N -.-.-.-.-.-.-.-.-.-.-.-.",
"-.N M -.-.-.-.-.-.-.-.-.-.-.-.-.-.#   N -.-.-.-.-.-.-.-.-.-.-.-.",
"-.-.N -.-.-.-.-.-.-.-.-.-.-.-.-.-.#   N -.-.-.-.-.-.-.-.-.-.-.-.",
"-.-.N -.-.-.-.-.-.-.-.-.-.-.-.-.-.#   N -.-.-.-.-.-.-.-.-.-.-.-.",
"-.-.N -.-.-.-.-.-.-.-.-.-.-.-.-.-.#   N -.-.-.-.R -.-.-.-.-.-.-.",
"-.-.N -.-.-.-.-.-.$.p i $.-.-.-.-.#   N -.-.-.-.b &.-.-.-.-.-.-.",
"-.N M -.-.-.-.-.Z = q w : Z -.-.-.#   N -.-.-.=.k =.-.-.-.-.-.-.",
"-.-.N -.-.-.-.E & [ 3.1.' > Q -.-.B # @.-.-.-.} n =.-.-.-.-.-.-.",
"-.-.N -.-.-.-., p 4.2.<.>.F < &.-.-.-.-.-.-.-.T C =.-.-.-.-.-.-.",
"-.-.N -.-.-.L & <.2.1.,.;.O.u 2 -.-.-.-.-.-.-.C D =.-.-.-.-.-.-.",
"-.-.N -.-.-.1 w <.<.,.>.;. .` 9 j -.-.-.-.-.-.h v =.-.-.-.-.-.-.",
"-.N M -.-.-.% ' >.>.;.;.X.] _ / 4 K -.-.-.-.} b z =.-.-.-.-.-.-.",
"-.-.N -.-.I % ;.:.+.+.X.| ) ) / m 7 } -.-.-.C A g =.-.-.-.-.-.-.",
"-.-.N -.-.p > O.o.X. .| ` ( / / ~ l 8 K =.K k f d =.-.-.-.-.-.-.",
"-.-.N -.-.- l  .| | ` ) ) / ~ H J S z t 0 k c d a =.-.-.-.-.-.-.",
"-.-.N -.&.$ _ | | ` ) ( / ~ J H S m m z z d s a r =.-.-.-.-.-.-.",
"-.N M -.G & | ' ' ) ( / ~ J H H S v x g g d r r e =.-.-.-.-.-.-.",
"-.-.N -.p ; | ` ) / / ~ J H H v x x g g a r r e 6 =.-.-.-.-.-.-.",
"-.-.N -.1 1 _ ( / / ^ J H H v v x g d s r r e 6 6 =.-.-.-.-.-.-.",
"-.-.N -.* y ) / ^ ~ J H m v x x g g s r e e 6 5 3 =.-.-.-.-.-.-.",
"-.-.N -.G [ %.%...{ ! ! ! ! W W Y Y Y Y U P L L G -.-.B *.-.-.-.",
"-.-.N N N N N N M N N N N M N N N N M N N N N M N N N N N @.-.-.",
"-.-.-.-.-.-.-.-.N -.-.-.-.N -.-.-.-.N -.-.-.-.N -.-.-.B *.-.-.-.",
"-.-.-.-.-.-.-.-.-.-.-.-.-.-.-.-.-.-.-.-.-.-.-.-.-.-.-.-.-.-.-.-."
};
