/* XPM */
static const char *tidesml[] = {
/* columns rows colors chars-per-pixel */
"16 16 98 2",
"   c gray18",
".  c #343434",
"X  c #373737",
"o  c gray23",
"O  c #505050",
"+  c #747474",
"@  c #7E7E7E",
"#  c #51BB52",
"$  c #55BB55",
"%  c #59BC5C",
"&  c #59BD5E",
"*  c #6ABE74",
"=  c #5BD05E",
"-  c #62C06B",
";  c #6FC06F",
":  c #70C06E",
">  c #62D369",
",  c #63D36B",
"<  c #6EC47C",
"1  c #6AD674",
"2  c #6BD675",
"3  c #6FD57C",
"4  c #71D87E",
"5  c #76D586",
"6  c #73D980",
"7  c #76D389",
"8  c #7ED08D",
"9  c #79DB89",
"0  c #7ADC8B",
"q  c #9EB99E",
"w  c gray67",
"e  c #A1BAA3",
"r  c #A6BCAA",
"t  c #AABDAE",
"y  c #B4B4B4",
"u  c gray72",
"i  c gray75",
"p  c #8BCF95",
"a  c #8FCE97",
"s  c #81DE94",
"d  c #82DE95",
"f  c #83DF97",
"g  c #88D09A",
"h  c #94D595",
"j  c #98D79B",
"k  c #88E19E",
"l  c #89DEA2",
"z  c #9DD9A0",
"x  c #9DD2AB",
"c  c #A9C3A9",
"v  c #ACC4AE",
"b  c #A0DAA7",
"n  c #A2D3AB",
"m  c #A5DCAD",
"M  c #AEC4B0",
"N  c #B2C0B1",
"B  c #B1C6B5",
"V  c #B4C7BA",
"C  c #BAC5BE",
"Z  c #ACD6BA",
"A  c #B8D7B6",
"S  c #B3D6BC",
"D  c #B8D5B8",
"F  c #B0DBBA",
"G  c #8AE1A0",
"H  c #8BE1A1",
"J  c #90E3A9",
"K  c #91E4AA",
"L  c #92E4AC",
"P  c #94E5AE",
"I  c #94E0B2",
"U  c #98E6B3",
"Y  c #99E7B5",
"T  c #9AE7B7",
"R  c #9DE7B9",
"E  c #BBD8C5",
"W  c #A0E9C0",
"Q  c #A2EAC1",
"!  c #B9EFD1",
"~  c #BCEED1",
"^  c #BAF0D3",
"/  c #C3C3C3",
"(  c gray81",
")  c #CBDBCE",
"_  c #CBDACF",
"`  c LightGray",
"'  c #D3DDD3",
"]  c #D5DCD6",
"[  c gray86",
"{  c #D8DDD8",
"}  c #DDDEDD",
"|  c #DEDFDE",
" . c #DFDFDF",
".. c #C9E8D0",
"X. c #C1F2DB",
"o. c #D6F6E7",
"O. c #DDF8EE",
"+. c #EAFBF5",
/* pixels */
" . . . . . . . . . . . . . . . .",
"[ /  . . . .@ X .   X o  . . . .",
"` y  . . . . . .w O  . . . . . .",
" .i  . . . . . .w O  . . . . . .",
"( y  . . . . . .w O  . . . . . .",
" .i  . . . . . .w O  . . . . . .",
" .i  . .{ D }  .w O  .| E  . . .",
"( y  .' % a - ] u +  ._ Z  . . .",
" .i  .; ..+.~ * }  . .S F  . . .",
"( y  .& O.o.^ l p  . .x m  . . .",
" .i A < X.! R P 7 n ) g b  . . .",
" .i : I Q T L H f 5 8 3 z  . . .",
"( y $ W Y K G d 0 6 2 , j  . . .",
" .i # U J k s 9 4 1 > = h  . . .",
" .y C V t B r M v e c q N y /  .",
" . . . .(  .(  . .(  .(  .` [  ."
};
