/* XPM */
static const char *track[] = {
/* columns rows colors chars-per-pixel */
"32 32 216 2",
"   c #13120C",
".  c #1E1D17",
"X  c #312D1D",
"o  c #2F2C21",
"O  c #3B382D",
"+  c #434033",
"@  c #544E3A",
"#  c #5A5334",
"$  c #5B543A",
"%  c #61593C",
"&  c #575240",
"*  c #635D45",
"=  c #645F4E",
"-  c #6D6544",
";  c #6B654B",
":  c #726949",
">  c #6F6954",
",  c #726B53",
"<  c #726C59",
"1  c #7B745B",
"2  c #827851",
"3  c #877E5A",
"4  c #817A61",
"5  c #91865C",
"6  c #93885C",
"7  c #90896F",
"8  c #9E967A",
"9  c #A09774",
"0  c #A69C72",
"q  c #ADA27A",
"w  c #B6B67C",
"e  c #B8B77E",
"r  c #BFBA7C",
"t  c #C9B772",
"y  c #CCBC75",
"u  c #C2B47C",
"i  c #CDBD7B",
"p  c #CBC17F",
"a  c #D5C275",
"s  c #DAC474",
"d  c #D7C57A",
"f  c #DDC97C",
"g  c #840A84",
"h  c #821982",
"j  c #8A138A",
"k  c #932C93",
"l  c #973697",
"z  c #96399F",
"x  c #983998",
"c  c #B425BD",
"v  c #98529D",
"b  c #986691",
"n  c #B2718E",
"m  c #B06C9E",
"M  c #A446A4",
"N  c #A244AD",
"B  c #A85EA8",
"V  c #B758B9",
"C  c #A76FAA",
"Z  c #B06EA6",
"A  c #B065B0",
"S  c #BE62BE",
"D  c #BC68BC",
"F  c #B171B2",
"G  c #B47BB4",
"H  c #C51DC6",
"J  c #DE09DE",
"K  c #C623C6",
"L  c #D123D1",
"P  c #D62AD6",
"I  c #D622DA",
"U  c #EE1CEE",
"Y  c #F101F2",
"T  c #E62AE6",
"R  c #FA22FC",
"E  c #FE2AFF",
"W  c #BA61CB",
"Q  c #AC7DC1",
"!  c #BA73CC",
"~  c #BF7BD3",
"^  c #C956C9",
"/  c #D042D0",
"(  c #D546DF",
")  c #C76BC7",
"_  c #C76EC8",
"`  c #C572C5",
"'  c #C87BC8",
"]  c #D775D7",
"[  c #DF76DF",
"{  c #D578DB",
"}  c #E746E7",
"|  c #EF59EF",
" . c #EE4BF9",
".. c #FB46FC",
"X. c #F055F0",
"o. c #FB5CFC",
"O. c #EE65EE",
"+. c #E773E7",
"@. c #E179E2",
"#. c #EF63FB",
"$. c #F26AF3",
"%. c #FC6BFD",
"&. c #F57CF6",
"*. c #F775F8",
"=. c #F975FA",
"-. c #AEA588",
";. c #B7B882",
":. c #B9B984",
">. c #BBBB89",
",. c #BBBE91",
"<. c #C8B980",
"1. c #C3B78B",
"2. c #C3BC8E",
"3. c #C1B492",
"4. c #C4BB92",
"5. c #BEC19E",
"6. c #BFC3A2",
"7. c #C7C185",
"8. c #CBC181",
"9. c #C6C18A",
"0. c #CBC388",
"q. c #CFC88C",
"w. c #D1C383",
"e. c #D0C48C",
"r. c #D4CA8D",
"t. c #DCCE8B",
"y. c #C2C39B",
"u. c #CAC798",
"i. c #CCC89A",
"p. c #D2CB94",
"a. c #D4CE9F",
"s. c #DAD197",
"d. c #E1CE85",
"f. c #E4D28B",
"g. c #E6D492",
"h. c #E8D794",
"j. c #E3D79D",
"k. c #EADA9B",
"l. c #C1C5A6",
"z. c #C1C6AB",
"x. c #DAD2A1",
"c. c #C5C9B2",
"v. c #CCCDB4",
"b. c #CACFBF",
"n. c #EDDEA4",
"m. c #E3D6A9",
"M. c #E6DBAD",
"N. c #EDDFAA",
"B. c #E6DCB3",
"V. c #E3D3BB",
"C. c #EEE0A7",
"Z. c #EFE0AB",
"A. c #F0E2AF",
"S. c #EEE1B5",
"D. c #ECE1BA",
"F. c #F1E3B4",
"G. c #F2E5BB",
"H. c #D894D8",
"J. c #C7A6C7",
"K. c #C5A4CD",
"L. c #C9ACC9",
"P. c #CCB3CC",
"I. c #DCADDC",
"U. c #D0BCD0",
"Y. c #D9B4D9",
"T. c #E49EE4",
"R. c #EC92EC",
"E. c #E99AE9",
"W. c #F683F7",
"Q. c #F883F9",
"!. c #F888F9",
"~. c #EF9CF0",
"^. c #F391F4",
"/. c #F59CF6",
"(. c #F993F9",
"). c #F89EF9",
"_. c #E1A1E1",
"`. c #EBACEB",
"'. c #E4B6E5",
"]. c #EAB7EA",
"[. c #EBBEEB",
"{. c #F6A7F7",
"}. c #F4ACF5",
"|. c #F3B9F4",
" X c #F9B5FA",
".X c #C7CFC5",
"XX c #CFD1C0",
"oX c #CAD2CC",
"OX c #D1D3C4",
"+X c #D6D7CE",
"@X c #D3C3D3",
"#X c #D9C0DD",
"$X c #D8CFD8",
"%X c #CED7DC",
"&X c #CED8DE",
"*X c #D0D7D7",
"=X c #D7D9D4",
"-X c #D9DAD4",
";X c #DDD6DD",
":X c #D0D8DE",
">X c #DFDFDF",
",X c #F3E7C1",
"<X c #F4E8C3",
"1X c #CFD9E6",
"2X c #D3DBE4",
"3X c #DCDFE2",
"4X c #D3DDEC",
"5X c #E7C1E7",
"6X c #E3CBE4",
"7X c #EDC5ED",
"8X c #E8C9E9",
"9X c #E2D4E2",
"0X c #E0D9E0",
"qX c #FFDBFF",
"wX c gray88",
"eX c gray100",
/* pixels */
">X>X>X>X>X>X>X>X>X>X>X>X>X>X>X>X>X>X>X>X>X>X$XP.P.L.L.J.J.J.@XwX",
">X>X>X>X>X>X>X>X>X>X>X>X>X>XwX>X>X>X>X>X>X>XL.k k l l x k g J.>X",
">X>X>X>X>X>X>X>X>X>X>X>X>X>X>X>X>X>X>X>X>X>X>X>X>X>X>XJ.j k L.>X",
">X>X>X>X>X>X>XwX6XR.R.6X>X>X>X>X>X>X>X>X>X>X>X>X>X>XG j L.l J.>X",
">X>X>XwX>X>X>X`...$.| R E.>X>X>XwX>X>X>X7X/.&.[ D M l @X>Xl J.>X",
">X>X>XwX>X>X6X..'.>XwX].R X.9X>X>X>X>X>X|.eXeXeXS A >X>X>Xl J.>X",
">X>X>X6X).!.O.^ P.>X>X>X9X| U _.0X>X>X>X|.eXeXeX` wX>X>X>Xl J.>X",
"wX>X>X8XqXeXeX5XJ.>X>X>X>X>XT.T J P / K +.eXeXeX' >X>X>X>Xl J.>X",
">X>X>X8XqXeXeX[.J.>X>X2X4X3X>X3X0XI.H.Y.|.{.W.@.V 3X3X3X3XB U.>X",
">X>X>X8XqXeXeX[.J.>X2Xc.>.6.&X3X3X3X3X3X2X3X4X3X2X3X3X3X3X>XwX3X",
">X>X>X9X(.%.+.) @X*X;.w w w w c.%X4X4X4X2X*XoXb.c.z.y.y.+X3X3X>X",
">X>XwX0X&.].>X>X2X5.8.d.f.t.7.e w w :.w w :.9.p.x.N.S.w OX3X0X>X",
">X>X>X0X%.9X>X3Xc.p d.f.h.h.k.k.s.s.s.j.Z.Z.F.F.S.F.B.w >X3X3X>X",
">X>X>X5X*.>X3X2Xp d.d.f.f.h.k.k.n.n.n.A.Z.A.F.F.F.G.x.>.3X3X3X>X",
">X>X>X`.^.>X3Xc.f f d.f.h.h.k.k.n.n.C.A.Z.A.F.F.G.F.Z.w =X>X3X>X",
">X>X>X^.`.>X2X8.f t.f.f.f.h.k.k.n.n.C.C.Z.A.F.F.F.G.F.M.5.-X3X>X",
">X>X3X=.8X0XoXd t i i i w.h.k.k.n.n.C.C.A.A.A.S.F.3.G.G.G.4.+X>X",
">XwX9X%.>X2Xu.s # #   $ - h.k.k.n.C.C.C.A.A.A.S.F.+ G.G.,X,Xi.+X",
">XwX5XQ.>X4Xi f f d.X f.6 5 $ r.* * q A.A.9 * 4 G.+ G.-.-.<X<Xu.",
">X>X`.~.3X%Xi f f d.X f.% : j.g.k.k.@ n.0 , S.m.F.+ 7 < G.<X<Xa.",
">X>X^.].0Xv.s f f d.X f.% u k.0.$ * o 4.= 4.A.S.G.. O G.<X,X<Xi.",
">X>XQ.6X4X<.s f f d.X f.% <.k.3 0 n.o 1.0 3 A.S.S.+ 8 = G.<XB.v.",
"}.^.o.] K.t s f f d.% d.2 w.k.e.@ @ ; 4.N.3 & 1 F.> G.-.7 S.4.3X",
" XeXeXeXF y s s d.d.d.f.g.h.k.k.n.n.C.C.Z.Z.S.S.F.G.G.D.D.2.-X3X",
" XeXeXeXZ s s s f d.f.f.g.h.k.n.n.n.C.C.A.A.F.F.F.G.G.V.4.XX3X3X",
" XeXeXeXm s s f f d.d.f.t.r.9.q.r.p.j.N.A.A.F.F.F.M.3.b v K.3X3X",
"{.(.&.{ n s s f d 8.e ;.w ,.6.6.l.5.;.:.s.j.p.9.e q h c U H _ wX",
">X>X2X2Xt a y r w >.z.oX2X4X4X4X4X4X4X.X:.w >.l.XXC j Y %.E L 3X",
">X>X4XoXw w w 5.oX4X4X4X4X4X3X3X3X3X3X4X2X:X3X4X4XN z ( #. .I 6X",
">X>X4X1X6..X1X4X4X4X4X3X3X>X>X>X>X>X>X>XwX3X3X3XwXK.z Q ~ ! } 3X",
">X3X4X4X4X4X4X4X4X3X>X>X>X>X>X>X>X>X>X>XwX>XwXwXwXwXD V W ( '.>X",
">X3X4X4X4X4X3X3X>X>XwX>X>X>X>X>X>X>X>X>XwX3XwXwX0XwX>X;X#X>X>X>X"
};
