/* XPM */
static const char *up[]={
"32 32 3 1",
". c None",
"a c #000000",
"# c #ffffff",
"...............##...............",
"..............####..............",
".............##aa##.............",
"............##aaaa##............",
"...........##aaaaaa##...........",
"..........##aaa..aaa##..........",
".........##aaa....aaa##.........",
"........##aaa......aaa##........",
".......##aaa........aaa##.......",
"......##aaa..........aaa##......",
".....##aaa............aaa##.....",
"....##aaaaaa........aaaaaa##....",
"...#######aa........aa#######...",
"........##aa........aa##........",
"........##aa........aa##........",
"........##aa........aa##........",
"........##aa........aa##........",
"........##aa........aa##........",
"........##aa........aa##........",
"........##aa........aa##........",
"........##aa........aa##........",
"........##aa........aa##........",
"........##aa........aa##........",
"........##aa........aa##........",
"........##aa........aa##........",
"........##aa........aa##........",
"........##aa........aa##........",
"........##aa........aa##........",
"........##aaaaaaaaaaaa##........",
"........##aaaaaaaaaaaa##........",
"........################........",
"........################........"};
