/* XPM */
static const char *up[] = {
/* columns rows colors chars-per-pixel */
"32 32 243 2",
"   c #004C00",
".  c #004D00",
"X  c #004E00",
"o  c #024F02",
"O  c #044904",
"+  c #005200",
"@  c #025002",
"#  c #005500",
"$  c #005600",
"%  c #005700",
"&  c #005800",
"*  c #005A00",
"=  c #005A01",
"-  c #005C00",
";  c #055E06",
":  c #095309",
">  c #0B560B",
",  c #085B08",
"<  c #175717",
"1  c #125B12",
"2  c #006000",
"3  c #006300",
"4  c #006500",
"5  c #006600",
"6  c #006700",
"7  c #006901",
"8  c #006802",
"9  c #006803",
"0  c #006E00",
"q  c #006E01",
"w  c #006F01",
"e  c #0B630C",
"r  c #0E650F",
"t  c #096A0B",
"y  c #086F0A",
"u  c #0D6C0E",
"i  c #007000",
"p  c #007200",
"a  c #007301",
"s  c #017301",
"d  c #007601",
"f  c #017704",
"g  c #007800",
"h  c #007B00",
"j  c #007A01",
"k  c #007803",
"l  c #007903",
"z  c #007B03",
"x  c #007D00",
"c  c #007E00",
"v  c #007E03",
"b  c #057508",
"n  c #186218",
"m  c #186318",
"M  c #1A6C1A",
"N  c #1C6B1D",
"B  c #117C13",
"V  c #1B761B",
"C  c #1C7F1C",
"Z  c #265A26",
"A  c #266A26",
"S  c #2B6B2B",
"D  c #257225",
"F  c #29772B",
"G  c #2A792B",
"H  c #327E32",
"J  c #387838",
"K  c #387E38",
"L  c #3A7D3A",
"P  c #008200",
"I  c #008103",
"U  c #008203",
"Y  c #008303",
"T  c #008600",
"R  c #008403",
"E  c #008703",
"W  c #078107",
"Q  c #008504",
"!  c #028506",
"~  c #008800",
"^  c #008900",
"/  c #008C00",
"(  c #008C03",
")  c #008804",
"_  c #008B04",
"`  c #08860C",
"'  c #048A08",
"]  c #0D8D0E",
"[  c #009100",
"{  c #009300",
"}  c #009400",
"|  c #009500",
" . c #009600",
".. c #009700",
"X. c #009B00",
"o. c #029A02",
"O. c #009C00",
"+. c #009D00",
"@. c #009E00",
"#. c #009F00",
"$. c #0A9B0A",
"%. c #089D09",
"&. c #10930C",
"*. c #0E8711",
"=. c #0C8E12",
"-. c #118314",
";. c #1B861B",
":. c #1A8F1A",
">. c #139217",
",. c #149515",
"<. c #139914",
"1. c #1B961B",
"2. c #19961C",
"3. c #1C961D",
"4. c #189C19",
"5. c #1B9E1B",
"6. c #1A981C",
"7. c #1C9F1D",
"8. c #00A000",
"9. c #00A100",
"0. c #00A500",
"q. c #00A600",
"w. c #00A700",
"e. c #00A900",
"r. c #00AB00",
"t. c #00AD00",
"y. c #00AE00",
"u. c #08A409",
"i. c #0BAC0C",
"p. c #00B200",
"a. c #00B300",
"s. c #00B400",
"d. c #00B500",
"f. c #00B600",
"g. c #00BB00",
"h. c #00BD00",
"j. c #0CB20D",
"k. c #15A117",
"l. c #14A716",
"z. c #12AC14",
"x. c #1CA51C",
"c. c #1EAB1E",
"v. c #1EAC1E",
"b. c #0EB610",
"n. c #10B312",
"m. c #1EB01E",
"M. c #2E922E",
"N. c #2C972C",
"B. c #2A9C2A",
"V. c #2A9D2A",
"C. c #2D9A2D",
"Z. c #338733",
"A. c #368336",
"S. c #318D31",
"D. c #3B843B",
"F. c #3D823D",
"G. c #329732",
"H. c #369436",
"J. c #379F37",
"K. c #3A903A",
"L. c #3B973B",
"P. c #3D933D",
"I. c #399B39",
"U. c #25A525",
"Y. c #2DA025",
"T. c #20AB20",
"R. c #23A923",
"E. c #28A128",
"W. c #29A029",
"Q. c #2BAB2B",
"!. c #2DAA2D",
"~. c #2FA82F",
"^. c #32A12B",
"/. c #21B321",
"(. c #31A631",
"). c #34A234",
"_. c #37AB37",
"`. c #3AAB3A",
"'. c #3CAA3C",
"]. c #3EA83E",
"[. c #00C100",
"{. c #00C200",
"}. c #00C400",
"|. c #00C600",
" X c #00CC00",
".X c #00CD00",
"XX c #428A42",
"oX c #408F40",
"OX c #468E46",
"+X c #4B8F4B",
"@X c #4D8D4E",
"#X c #429042",
"$X c #479C47",
"%X c #4E904E",
"&X c #4C974C",
"*X c #499949",
"=X c #509050",
"-X c #43A343",
";X c #40A640",
":X c #45A045",
">X c #43AC43",
",X c #46AC46",
"<X c #4FA74F",
"1X c #48AB48",
"2X c #4AAB4A",
"3X c #4DA94D",
"4X c #52A552",
"5X c #54A354",
"6X c #57A157",
"7X c #50AE50",
"8X c #52AF52",
"9X c #55AF55",
"0X c #57AE57",
"qX c #5CA05C",
"wX c #5EA65E",
"eX c #5FA65F",
"rX c #59AD59",
"tX c #5BAD5B",
"yX c #5EAB5E",
"uX c #5CB15C",
"iX c #5FB35F",
"pX c #6BA36B",
"aX c #61B461",
"sX c #64B364",
"dX c #66B366",
"fX c #68B368",
"gX c #69B769",
"hX c #6BB86B",
"jX c #6DB96D",
"kX c #70BA70",
"lX c #73BB73",
"zX c #76BE76",
"xX c #7EB57E",
"cX c #78BF78",
"vX c #7AC07A",
"bX c #7EC27E",
"nX c #8EB38E",
"mX c #82C582",
"MX c #85C085",
"NX c #85C485",
"BX c #84C784",
"VX c #8ECE8E",
"CX c None",
/* pixels */
"CXCXCXCXCXCXCXCXCXCXCXCXCXCXCXCXCXCXCXCXCXCXCXCXCXCXCXCXCXCXCXCX",
"CXCXCXCXCXCXCXCXCXCXCXCXCXCXCXCXCXCXCXCXCXCXCXCXCXCXCXCXCXCXCXCX",
"CXCXCXCXCXCXCXCXCXCXCXCXCXCXCXCXCXCXCXCXCXCXCXCXCXCXCXCXCXCXCXCX",
"CXCXCXCXCXCXCXCXCXCXCXCXCXCXCXCXCXCXCXCXCXCXCXCXCXCXCXCXCXCXCXCX",
"CXCXCXCXCXCXCXCXCXCXCXCXCXCXCXCXCXCXCXCXCXCXCXCXCXCXCXCXCXCXCXCX",
"CXCXCXCXCXCXCXCXCXCXCXCXCXCXCXCXCXCXCXCXCXCXCXCXCXCXCXCXCXCXCXCX",
"CXCXCXCXCXCXCXCXCXCXCXCXCXCXCXCXCXCXCXCXCXCXCXCXCXCXCXCXCXCXCXCX",
"CXCXCXCXCXCXCXCXCXCXCXCXCXCXCXF CXCXCXCXCXCXCXCXCXCXCXCXCXCXCXCX",
"CXCXCXCXCXCXCXCXCXCXCXCXCXCXt @XG CXCXCXCXCXCXCXCXCXCXCXCXCXCXCX",
"CXCXCXCXCXCXCXCXCXCXCXCXCX9 e Z N = CXCXCXCXCXCXCXCXCXCXCXCXCXCX",
"CXCXCXCXCXCXCXCXCXCXCXCX8 y O < J r # CXCXCXCXCXCXCXCXCXCXCXCXCX",
"CXCXCXCXCXCXCXCXCXCXCXCXb , X n K F.; CXCXCXCXCXCXCXCXCXCXCXCXCX",
"CXCXCXCXCXCXCXCXCXCXCXf u * & M A.XXD.% CXCXCXCXCXCXCXCXCXCXCXCX",
"CXCXCXCXCXCXCXCXCXCXk B 6 5 3 V Z.oX&XH + CXCXCXCXCXCXCXCXCXCXCX",
"CXCXCXCXCXCXCXCXCXl -.s p i 0 C S.P.*X6XD . CXCXCXCXCXCXCXCXCXCX",
"CXCXCXCXCXCXCXCXk *.W c x h g ;.M.L.$X5XwXm   CXCXCXCXCXCXCXCXCX",
"CXCXCXCXCXCXCXCX` ] ~ ^ ^ T P :.N.I.:X4XyXeX> CXCXCXCXCXCXCXCXCX",
"CXCXCXCXCXCXCX! ,.[ } | { [ / 1.B.J.-X<XtXfXqX@ CXCXCXCXCXCXCXCX",
"CXCXCXCXCXCXQ 6...O.#.8.@.X. .5.E.).;X3XrXdXlX%X. CXCXCXCXCXCXCX",
"CXCXCXCXCXQ 2.o.9.w.r.r.e.0.#.x.U.(.].2X0XsXkXbXL . CXCXCXCXCXCX",
"CXCXCXCXY >.$.9.r.p.f.f.a.y.q.c.R.~.'.1X9XaXjXvXNXA   CXCXCXCXCX",
"CXCXCXCX=.<.+.e.s.h.{.[.h.d.t.m.T.!.`.,X8XiXhXcXBXMX1 CXCXCXCXCX",
"CXCXCX' 3.} 9.y.g.|..X X}.g.p./.v.Q._.>X7XuXgXzXmXVXxXo CXCXCXCX",
"CXCX( ^.Y.4.k.l.z.n.b.j.i.u.%.7.W.V.C.G.H.K.#XOX+X=XpXnXS CXCXCX",
"CXCXCX&._ _ ) E R U I v z j d a w q 7 4 2 - $ + . . . : CXCXCXCX",
"CXCXCXCXCXCXCXCXCXCXCXCXCXCXCXCXCXCXCXCXCXCXCXCXCXCXCXCXCXCXCXCX",
"CXCXCXCXCXCXCXCXCXCXCXCXCXCXCXCXCXCXCXCXCXCXCXCXCXCXCXCXCXCXCXCX",
"CXCXCXCXCXCXCXCXCXCXCXCXCXCXCXCXCXCXCXCXCXCXCXCXCXCXCXCXCXCXCXCX",
"CXCXCXCXCXCXCXCXCXCXCXCXCXCXCXCXCXCXCXCXCXCXCXCXCXCXCXCXCXCXCXCX",
"CXCXCXCXCXCXCXCXCXCXCXCXCXCXCXCXCXCXCXCXCXCXCXCXCXCXCXCXCXCXCXCX",
"CXCXCXCXCXCXCXCXCXCXCXCXCXCXCXCXCXCXCXCXCXCXCXCXCXCXCXCXCXCXCXCX",
"CXCXCXCXCXCXCXCXCXCXCXCXCXCXCXCXCXCXCXCXCXCXCXCXCXCXCXCXCXCXCXCX"
};
