/* XPM */
static const char *wreck2[]={
"16 16 3 1",
". c None",
"# c #000000",
"a c #ffffff",
"................",
"................",
"................",
"....#...........",
".....#..........",
"......#.........",
"......#........#",
".......#.....###",
"........#.#####.",
"........#######.",
".....#########..",
"...#####aa####..",
"########aa######",
"........##......",
"................",
"................"};
