/* XPM */
static const char *zoomin[] = {
/* columns rows colors chars-per-pixel */
"32 32 131 2",
"   c #193A7D",
".  c #535353",
"X  c #5D5D5D",
"o  c #646464",
"O  c gray42",
"+  c #747474",
"@  c #7C7C7C",
"#  c #1F4285",
"$  c #214387",
"%  c #2B4786",
"&  c #26498B",
"*  c #2A4E8E",
"=  c #384E81",
"-  c #314D8B",
";  c #2B538C",
":  c #3B5283",
">  c #265697",
",  c #2E5292",
"<  c #395C96",
"1  c #355B9A",
"2  c #38609C",
"3  c #2B5FA0",
"4  c #3769A3",
"5  c #3C70A9",
"6  c #336EB0",
"7  c #3672B4",
"8  c #576687",
"9  c #5E6D8E",
"0  c #757D8E",
"q  c #737D97",
"w  c #426CA6",
"e  c #516AA2",
"r  c #4976AF",
"t  c #5A7DAB",
"y  c #437DB6",
"u  c #517FB1",
"i  c #7B818F",
"p  c #4681B9",
"a  c #5483B5",
"s  c #5887B9",
"d  c #6983A8",
"f  c #7C8AA4",
"g  c #6389B3",
"h  c #6097BE",
"j  c #3F84C7",
"k  c #478FCE",
"l  c #4D8FC8",
"z  c #4990C4",
"x  c #4A92C9",
"c  c #5593C6",
"v  c #5E90C1",
"b  c #5D99C5",
"n  c #5B9AC9",
"m  c #4894D7",
"M  c #4996DA",
"N  c #5199D1",
"B  c #6699C8",
"V  c #699CC9",
"C  c #66A1C8",
"Z  c #70A6D1",
"A  c #75ADD4",
"S  c #7CAFD3",
"D  c #7EB7DA",
"F  c #7FBADC",
"G  c #53A5E5",
"H  c gray52",
"J  c #8C8C8D",
"K  c #838995",
"L  c #8E8F90",
"P  c #81899B",
"I  c #939494",
"U  c #95979F",
"Y  c #97999B",
"T  c #9B9B9B",
"R  c #9097A4",
"E  c #969AA1",
"W  c #9F9FA1",
"Q  c #829FBC",
"!  c #98AABF",
"~  c #A4A4A4",
"^  c #A6A8A8",
"/  c #ABABAB",
"(  c #A2A7B6",
")  c #AFB1B3",
"_  c #B3B4B4",
"`  c #B6B7B8",
"'  c #BBBCBC",
"]  c #82B3D5",
"[  c #81BBDC",
"{  c #A8B4CB",
"}  c #B5B9C2",
"|  c #BEBFC0",
" . c #84C0DE",
".. c #BFC0C1",
"X. c #B5C2CE",
"o. c #A1C5DD",
"O. c #B6CBDC",
"+. c #87C2E0",
"@. c #89C5E1",
"#. c #8EC9E2",
"$. c #91CEE4",
"%. c #90CFEA",
"&. c #95D0E5",
"*. c #9AD6EA",
"=. c #97D8EC",
"-. c #9CDAEB",
";. c #A4D5E8",
":. c #A2DAE9",
">. c #ACDEE9",
",. c #B2DFE9",
"<. c #BFDEED",
"1. c #B5E2EB",
"2. c #BAE1EA",
"3. c #A2E3F1",
"4. c #AEE4F0",
"5. c #B0E5F0",
"6. c #C3C3C3",
"7. c #CCCDCD",
"8. c #C6CBD4",
"9. c #CAD3DD",
"0. c #D3D3D3",
"q. c #D6D9D9",
"w. c #DFDFDF",
"e. c #C7D9E5",
"r. c #C2DEEC",
"t. c #DDDFE0",
"y. c #C2E3E9",
"u. c #E5E6E6",
"i. c #EAECEC",
"p. c #F3F3F3",
"a. c #F9F9F9",
/* pixels */
"w.w.w.w.w.w.w.w.t.t.w.w.w.w.w.w.w.w.w.w.w.w.w.w.w.w.w.w.w.w.w.w.",
"w.w.w.w.w.w.7.' ..7.7.6.6.7.w.w.w.w.w.w.w.w.w.w.w.w.w.w.w.w.w.w.",
"w.w.w.u.q._ ` i 9 : = 8 0 / ' q.w.w.w.w.w.w.w.w.w.w.w.w.w.w.w.w.",
"w.w.w.' _ U -   * , * & # % K ` 6.w.w.w.w.w.w.w.w.w.w.w.w.w.w.w.",
"w.w.0.^ q   $ r A F A V s 2 & 9 ) 0.w.w.w.w.w.w.w.w.w.w.w.w.w.w.",
"w.w.Y E   , B [ %.h h +.[ A u ; P ~ w.w.w.w.w.w.w.w.w.w.w.w.w.w.",
"w.^ T - & Z [ +.=.C V #.#. .[ a < W / w.w.w.w.w.w.w.w.w.w.w.w.w.",
"w.L R   v [ @.%.-.n b *.*.$. .D w f I u.w.w.w.w.w.w.w.u.w.w.w.w.",
"w.J q 1 +.%.=.-.3.n c 3.3.-.&. .h d I w.w.w.w.w.w.w.w.w.w.w.w.w.",
"w.H e r @.5 p l m N x y 4 ; ;  .S t Y w.w.w.w.w.w.w.w.w.w.w.w.w.",
"7.H e u F 3 7 j m m z 6 >     $.[ g Y 7.w.w.w.w.w.w.w.w.w.w.w.w.",
"w.H Q u F $.:.>.4.G k ,.,.>.:.&.[ Q I w.w.w.w.w.w.w.w.w.w.w.w.w.",
"w.J ( w ] $.:.,.4.M x 2.1.>.:.&.[ ! L w.w.u.w.w.w.w.w.w.w.w.w.w.",
"w.L ^ e S #.:.>.5.N z y.<.>.:.&.] _ I w.w.w.w.w.w.w.w.w.w.w.w.w.",
"w.0.L } v  .;.>.y.x z y.,.>.:. .X.I 0.w.w.w.w.w.w.w.w.w.w.w.w.w.",
"w.w./ W { ] @.;.1.y.y.y.,.:.$.O._ ` w.w.w.w.w.w.w.w.w.w.w.w.w.w.",
"w.w.w.L / 8.o. .*.>.,.>.>.;.0.` J p.6._ q.w.w.w.w.w.w.w.w.w.w.w.",
"w.w.w.w./ T 6.9.e.r.r.y.q.7.T / / _ q.i.` 0.w.w.w.w.w.w.w.w.w.w.",
"w.w.w.w.w.0.L L Y _ _ Y J J 0.w.| X + w.i.` 7.w.w.w.w.w.w.w.w.w.",
"w.w.w.w.w.w.w.w.q.` ` q.t.t.w.w.q.+ X O 7.i.6.7.w.w.w.w.w.w.w.w.",
"w.w.w.w.w.w.w.w.w.w.w.w.w.w.w.w.w.w.@ o X | i.0.6.w.w.w.w.w.w.w.",
"w.w.w.w.w.w.w.w.w.w.w.w.w.w.w.w.w.w.w.H + . _ u.u.| w.w.w.w.w.w.",
"w.w.w.w.w.w.w.w.w.w.w.w.w.w.w.w.w.w.w.w.L + . ~ w.a.` w.w.w.w.w.",
"w.w.w.w.w.w.w.w.w.w.w.w.w.w.w.w.w.w.w.w.w.T @ o I q.a._ w.w.w.w.",
"w.w.w.w.w.w.w.w.w.w.w.w.w.w.w.w.w.w.w.w.w.w.~ H + H 7.a./ q.w.w.",
"w.w.w.w.w.w.w.w.w.w.w.w.w.w.w.w.w.w.w.w.w.w.w./ H H @ 6.p.` 0.w.",
"w.w.w.w.w.w.w.w.w.w.w.w.w.w.w.w.w.w.w.w.w.w.w.w.` I I + ' i.6.0.",
"w.w.w.w.w.w.w.w.w.w.w.w.w.w.w.w.w.w.w.w.w.w.w.w.w.' I ~ + / u...",
"w.w.w.w.w.w.w.w.w.w.w.w.u.w.w.w.w.w.w.w.w.w.w.w.w.w.6.T / H T 7.",
"w.w.w.u.w.w.w.w.w.w.w.w.w.w.w.w.w.w.w.w.w.w.w.w.w.w.w.7.T T / w.",
"w.w.w.w.w.w.w.w.w.w.w.w.w.w.w.w.w.w.w.w.w.w.w.w.w.w.w.w.0./ w.w.",
"w.w.w.w.w.w.w.w.w.w.w.w.w.w.w.w.w.w.w.w.w.w.w.w.w.w.w.w.w.w.w.w."
};
