/* XPM */
static const char *zoomout[] = {
/* columns rows colors chars-per-pixel */
"32 32 116 2",
"   c #17377C",
".  c #1A397E",
"X  c #535353",
"o  c #5D5D5D",
"O  c #646464",
"+  c gray42",
"@  c #747474",
"#  c #7C7C7C",
"$  c #1D4894",
"%  c #204386",
"&  c #2B4786",
"*  c #26498B",
"=  c #294C8E",
"-  c #384E81",
";  c #314D8B",
":  c #3B5283",
">  c #2D5191",
",  c #395C96",
"<  c #355B9A",
"1  c #38609C",
"2  c #3363A5",
"3  c #3767A8",
"4  c #3A6BAA",
"5  c #576687",
"6  c #5E6D8E",
"7  c #53699D",
"8  c #757D8E",
"9  c #737D97",
"0  c #426CA6",
"q  c #446DA9",
"w  c #516AA2",
"e  c #4A77AF",
"r  c #5A7DAB",
"t  c #517FB1",
"y  c #7B818F",
"u  c #5483B5",
"i  c #5582B9",
"p  c #5887B9",
"a  c #6983A8",
"s  c #7C8AA4",
"d  c #7B8AAC",
"f  c #6389B3",
"g  c #5E90C1",
"h  c #6294C3",
"j  c #6699C8",
"k  c #699CC9",
"l  c #70A6D1",
"z  c #75ACD3",
"x  c #7CAFD3",
"c  c #7AB2D5",
"v  c #7EB7DB",
"b  c #7FBADB",
"n  c gray52",
"m  c #8C8C8D",
"M  c #838995",
"N  c #8E8F90",
"B  c #81899B",
"V  c #939494",
"C  c #95979F",
"Z  c #97999B",
"A  c #9B9B9B",
"S  c #9097A4",
"D  c #969AA1",
"F  c #9F9FA1",
"G  c #829FBC",
"H  c #98AABF",
"J  c #A4A4A4",
"K  c #A6A8A8",
"L  c #ABABAB",
"P  c #A2A7B6",
"I  c #AFB1B3",
"U  c #B3B4B4",
"Y  c #B6B7B8",
"T  c #BBBBBC",
"R  c #82B3D5",
"E  c #81BCDB",
"W  c #A8B4CB",
"Q  c #B5B9C2",
"!  c #BEBFC0",
"~  c #84BDE0",
"^  c #84C0DE",
"/  c #BFC0C1",
"(  c #B5C2CE",
")  c #A1C5DD",
"_  c #B6CBDC",
"`  c #87C2E0",
"'  c #89C5E1",
"]  c #8ECAE3",
"[  c #91CEE4",
"{  c #95D0E5",
"}  c #95D4E9",
"|  c #9AD7EB",
" . c #9DDAEB",
".. c #A2DAE9",
"X. c #ACDDE9",
"o. c #B2DFE9",
"O. c #BFDEED",
"+. c #B6E0E9",
"@. c #BBE1E9",
"#. c #A3E4F1",
"$. c #C3C3C3",
"%. c #CCCDCD",
"&. c #C6CBD4",
"*. c #CAD3DD",
"=. c #D3D3D3",
"-. c #D6D9D9",
";. c #DFDFDF",
":. c #C7D9E5",
">. c #C2DEEC",
",. c #CBDFE9",
"<. c #DDDFE0",
"1. c #C3E3E9",
"2. c #E5E6E6",
"3. c #EAECEC",
"4. c #F3F3F3",
"5. c #F9F9F9",
/* pixels */
";.;.;.;.;.;.;.;.;.;.;.<.;.;.;.;.;.;.;.;.;.;.;.;.;.;.;.;.2.;.;.;.",
";.;.;.;.;.;.%.T ! %.%.$./ %.;.;.;.;.;.;.;.;.;.;.;.;.;.;.;.;.;.;.",
";.;.;.2.-.U Y y 6 : - 5 8 L T ;.;.;.;.;.;.;.;.;.;.;.;.;.;.;.;.;.",
";.;.;.T U C ;   % * = = % & M Y $.;.;.;.;.;.;.;.;.;.;.;.;.;.;.;.",
";.;.=.K 9 . % q h l l k p 1 * 6 L =.;.;.;.;.;.;.;.;.;.;.;.;.;.;.",
";.;.Z D . > j E ~ ` ' ~ b z u > B J ;.;.;.;.;.;.;.;.;.;.;.;.;.;.",
";.K Z ; = l E ~ ] ] ] ] ' ^ v u , F L ;.;.;.;.;.;.;.;.;.;.;.;.;.",
";.N S . g E ' [ } |  .| } { ' c 0 s Z ;.;.;.;.;.;.;.;.;.;.;.;.;.",
";.m 9 < ^ } } #.#.#.#.#.#. .[ ^ j a V ;.;.;.;.;.;.;.;.;.;.;.;.;.",
";.n w e ' 3 4 4 4 3 4 3 2 2 2 ' c r V ;.;.;.;.;.;.;.;.;.;.;.;.;.",
"=.n 7 i E $ $ $ $ $ $ $ $ $ $ [ E f Z %.;.;.;.;.;.;.;.;.;.;.;.;.",
"<.m d t R [  .X.X.+.+.+.o.X...{ E G V ;.;.;.;.;.;.;.;.;.;.;.;.;.",
"<.n P 0 E [ ..X.+.@.@.@.@.X...{ E H N ;.;.;.;.;.;.;.;.;.;.;.;.;.",
";.V K w x ] ..o.@.@.1.1.+.+...[ R U V ;.;.;.;.;.;.;.;.;.;.;.;.;.",
";.=.N Q g E ..X.@.1.1.1.@.X. .' ( V =.;.;.;.;.;.;.;.;.;.;.;.;.;.",
";.;.L F W x ] ..+.@.1.1.+...[ _ U Y ;.;.;.;.;.;.;.;.;.;.;.;.2.;.",
";.;.;.m L &.) ] | X.X.X...X.=.Y m 4.$.U ;.;.;.;.;.;.;.;.;.;.;.;.",
";.;.;.;.K A $.*.:.>.O.,.-.%.A L L U -.3.U =.;.;.;.;.;.;.;.;.;.;.",
";.;.;.;.;.=.N m A I U Z m m =.;.! o @ ;.3.Y %.;.;.;.;.;.;.;.;.;.",
";.;.;.;.;.;.;.;.-.Y Y -.;.;.;.;.-.@ o + %.3.$.%.;.;.;.;.;.;.;.;.",
";.;.;.;.;.;.;.;.;.;.;.;.;.;.;.;.;.;.# O o / 3.=.$.;.;.;.;.;.;.;.",
";.;.;.;.;.;.;.;.;.;.;.;.;.;.;.;.;.;.;.n @ X U 2.2.! ;.;.;.;.;.;.",
";.;.;.;.;.;.;.;.;.;.;.;.;.;.;.;.;.;.;.;.N @ X J ;.5.U ;.;.;.;.;.",
";.;.2.;.;.;.;.;.;.;.;.;.;.;.;.;.;.;.;.;.;.A # O V -.5.U ;.;.;.;.",
";.;.;.;.;.;.;.;.;.;.;.;.;.;.;.;.;.;.;.;.;.;.J n @ n %.5.U -.;.;.",
";.;.;.;.;.;.;.;.;.;.;.;.;.;.;.;.;.;.;.;.;.;.;.L n n # $.3.Y =.;.",
";.;.;.;.;.;.;.;.;.;.;.;.;.;.;.;.;.;.;.;.;.;.;.;.Y V V @ T 3.$.=.",
";.;.;.;.;.;.;.;.;.;.;.;.;.;.;.;.;.;.;.;.;.;.;.;.;.! V F @ L 2./ ",
";.;.;.;.;.;.;.;.;.;.;.;.;.;.;.;.;.;.;.;.;.;.;.;.;.;.$.A L n A %.",
";.;.;.;.;.;.;.;.;.;.;.;.;.;.;.;.;.;.;.;.;.;.;.;.;.;.;.%.A A L ;.",
";.;.;.;.;.;.;.;.;.;.;.;.;.;.;.;.;.;.;.;.;.;.;.;.;.;.;.;.=.L ;.;.",
";.;.;.;.;.;.;.;.;.;.2.;.;.;.;.;.;.;.;.;.;.;.;.;.;.;.;.;.;.;.;.;."
};
